G75*
%MOIN*%
%OFA0B0*%
%FSLAX25Y25*%
%IPPOS*%
%LPD*%
%AMOC8*
5,1,8,0,0,1.08239X$1,22.5*
%
%ADD10C,0.00000*%
%ADD11C,0.00100*%
D10*
X0021404Y0011404D02*
X0021404Y0196364D01*
X0295104Y0196364D01*
X0295104Y0011404D01*
X0021404Y0011404D01*
X0030892Y0026404D02*
X0030894Y0026552D01*
X0030900Y0026700D01*
X0030910Y0026848D01*
X0030924Y0026995D01*
X0030942Y0027142D01*
X0030963Y0027288D01*
X0030989Y0027434D01*
X0031019Y0027579D01*
X0031052Y0027723D01*
X0031090Y0027866D01*
X0031131Y0028008D01*
X0031176Y0028149D01*
X0031224Y0028289D01*
X0031277Y0028428D01*
X0031333Y0028565D01*
X0031393Y0028700D01*
X0031456Y0028834D01*
X0031523Y0028966D01*
X0031594Y0029096D01*
X0031668Y0029224D01*
X0031745Y0029350D01*
X0031826Y0029474D01*
X0031910Y0029596D01*
X0031997Y0029715D01*
X0032088Y0029832D01*
X0032182Y0029947D01*
X0032278Y0030059D01*
X0032378Y0030169D01*
X0032480Y0030275D01*
X0032586Y0030379D01*
X0032694Y0030480D01*
X0032805Y0030578D01*
X0032918Y0030674D01*
X0033034Y0030766D01*
X0033152Y0030855D01*
X0033273Y0030940D01*
X0033396Y0031023D01*
X0033521Y0031102D01*
X0033648Y0031178D01*
X0033777Y0031250D01*
X0033908Y0031319D01*
X0034041Y0031384D01*
X0034176Y0031445D01*
X0034312Y0031503D01*
X0034449Y0031558D01*
X0034588Y0031608D01*
X0034729Y0031655D01*
X0034870Y0031698D01*
X0035013Y0031738D01*
X0035157Y0031773D01*
X0035301Y0031805D01*
X0035447Y0031832D01*
X0035593Y0031856D01*
X0035740Y0031876D01*
X0035887Y0031892D01*
X0036034Y0031904D01*
X0036182Y0031912D01*
X0036330Y0031916D01*
X0036478Y0031916D01*
X0036626Y0031912D01*
X0036774Y0031904D01*
X0036921Y0031892D01*
X0037068Y0031876D01*
X0037215Y0031856D01*
X0037361Y0031832D01*
X0037507Y0031805D01*
X0037651Y0031773D01*
X0037795Y0031738D01*
X0037938Y0031698D01*
X0038079Y0031655D01*
X0038220Y0031608D01*
X0038359Y0031558D01*
X0038496Y0031503D01*
X0038632Y0031445D01*
X0038767Y0031384D01*
X0038900Y0031319D01*
X0039031Y0031250D01*
X0039160Y0031178D01*
X0039287Y0031102D01*
X0039412Y0031023D01*
X0039535Y0030940D01*
X0039656Y0030855D01*
X0039774Y0030766D01*
X0039890Y0030674D01*
X0040003Y0030578D01*
X0040114Y0030480D01*
X0040222Y0030379D01*
X0040328Y0030275D01*
X0040430Y0030169D01*
X0040530Y0030059D01*
X0040626Y0029947D01*
X0040720Y0029832D01*
X0040811Y0029715D01*
X0040898Y0029596D01*
X0040982Y0029474D01*
X0041063Y0029350D01*
X0041140Y0029224D01*
X0041214Y0029096D01*
X0041285Y0028966D01*
X0041352Y0028834D01*
X0041415Y0028700D01*
X0041475Y0028565D01*
X0041531Y0028428D01*
X0041584Y0028289D01*
X0041632Y0028149D01*
X0041677Y0028008D01*
X0041718Y0027866D01*
X0041756Y0027723D01*
X0041789Y0027579D01*
X0041819Y0027434D01*
X0041845Y0027288D01*
X0041866Y0027142D01*
X0041884Y0026995D01*
X0041898Y0026848D01*
X0041908Y0026700D01*
X0041914Y0026552D01*
X0041916Y0026404D01*
X0041914Y0026256D01*
X0041908Y0026108D01*
X0041898Y0025960D01*
X0041884Y0025813D01*
X0041866Y0025666D01*
X0041845Y0025520D01*
X0041819Y0025374D01*
X0041789Y0025229D01*
X0041756Y0025085D01*
X0041718Y0024942D01*
X0041677Y0024800D01*
X0041632Y0024659D01*
X0041584Y0024519D01*
X0041531Y0024380D01*
X0041475Y0024243D01*
X0041415Y0024108D01*
X0041352Y0023974D01*
X0041285Y0023842D01*
X0041214Y0023712D01*
X0041140Y0023584D01*
X0041063Y0023458D01*
X0040982Y0023334D01*
X0040898Y0023212D01*
X0040811Y0023093D01*
X0040720Y0022976D01*
X0040626Y0022861D01*
X0040530Y0022749D01*
X0040430Y0022639D01*
X0040328Y0022533D01*
X0040222Y0022429D01*
X0040114Y0022328D01*
X0040003Y0022230D01*
X0039890Y0022134D01*
X0039774Y0022042D01*
X0039656Y0021953D01*
X0039535Y0021868D01*
X0039412Y0021785D01*
X0039287Y0021706D01*
X0039160Y0021630D01*
X0039031Y0021558D01*
X0038900Y0021489D01*
X0038767Y0021424D01*
X0038632Y0021363D01*
X0038496Y0021305D01*
X0038359Y0021250D01*
X0038220Y0021200D01*
X0038079Y0021153D01*
X0037938Y0021110D01*
X0037795Y0021070D01*
X0037651Y0021035D01*
X0037507Y0021003D01*
X0037361Y0020976D01*
X0037215Y0020952D01*
X0037068Y0020932D01*
X0036921Y0020916D01*
X0036774Y0020904D01*
X0036626Y0020896D01*
X0036478Y0020892D01*
X0036330Y0020892D01*
X0036182Y0020896D01*
X0036034Y0020904D01*
X0035887Y0020916D01*
X0035740Y0020932D01*
X0035593Y0020952D01*
X0035447Y0020976D01*
X0035301Y0021003D01*
X0035157Y0021035D01*
X0035013Y0021070D01*
X0034870Y0021110D01*
X0034729Y0021153D01*
X0034588Y0021200D01*
X0034449Y0021250D01*
X0034312Y0021305D01*
X0034176Y0021363D01*
X0034041Y0021424D01*
X0033908Y0021489D01*
X0033777Y0021558D01*
X0033648Y0021630D01*
X0033521Y0021706D01*
X0033396Y0021785D01*
X0033273Y0021868D01*
X0033152Y0021953D01*
X0033034Y0022042D01*
X0032918Y0022134D01*
X0032805Y0022230D01*
X0032694Y0022328D01*
X0032586Y0022429D01*
X0032480Y0022533D01*
X0032378Y0022639D01*
X0032278Y0022749D01*
X0032182Y0022861D01*
X0032088Y0022976D01*
X0031997Y0023093D01*
X0031910Y0023212D01*
X0031826Y0023334D01*
X0031745Y0023458D01*
X0031668Y0023584D01*
X0031594Y0023712D01*
X0031523Y0023842D01*
X0031456Y0023974D01*
X0031393Y0024108D01*
X0031333Y0024243D01*
X0031277Y0024380D01*
X0031224Y0024519D01*
X0031176Y0024659D01*
X0031131Y0024800D01*
X0031090Y0024942D01*
X0031052Y0025085D01*
X0031019Y0025229D01*
X0030989Y0025374D01*
X0030963Y0025520D01*
X0030942Y0025666D01*
X0030924Y0025813D01*
X0030910Y0025960D01*
X0030900Y0026108D01*
X0030894Y0026256D01*
X0030892Y0026404D01*
X0039632Y0102742D02*
X0039634Y0102826D01*
X0039640Y0102909D01*
X0039650Y0102992D01*
X0039664Y0103075D01*
X0039681Y0103157D01*
X0039703Y0103238D01*
X0039728Y0103317D01*
X0039757Y0103396D01*
X0039790Y0103473D01*
X0039826Y0103548D01*
X0039866Y0103622D01*
X0039909Y0103694D01*
X0039956Y0103763D01*
X0040006Y0103830D01*
X0040059Y0103895D01*
X0040115Y0103957D01*
X0040173Y0104017D01*
X0040235Y0104074D01*
X0040299Y0104127D01*
X0040366Y0104178D01*
X0040435Y0104225D01*
X0040506Y0104270D01*
X0040579Y0104310D01*
X0040654Y0104347D01*
X0040731Y0104381D01*
X0040809Y0104411D01*
X0040888Y0104437D01*
X0040969Y0104460D01*
X0041051Y0104478D01*
X0041133Y0104493D01*
X0041216Y0104504D01*
X0041299Y0104511D01*
X0041383Y0104514D01*
X0041467Y0104513D01*
X0041550Y0104508D01*
X0041634Y0104499D01*
X0041716Y0104486D01*
X0041798Y0104470D01*
X0041879Y0104449D01*
X0041960Y0104425D01*
X0042038Y0104397D01*
X0042116Y0104365D01*
X0042192Y0104329D01*
X0042266Y0104290D01*
X0042338Y0104248D01*
X0042408Y0104202D01*
X0042476Y0104153D01*
X0042541Y0104101D01*
X0042604Y0104046D01*
X0042664Y0103988D01*
X0042722Y0103927D01*
X0042776Y0103863D01*
X0042828Y0103797D01*
X0042876Y0103729D01*
X0042921Y0103658D01*
X0042962Y0103585D01*
X0043001Y0103511D01*
X0043035Y0103435D01*
X0043066Y0103357D01*
X0043093Y0103278D01*
X0043117Y0103197D01*
X0043136Y0103116D01*
X0043152Y0103034D01*
X0043164Y0102951D01*
X0043172Y0102867D01*
X0043176Y0102784D01*
X0043176Y0102700D01*
X0043172Y0102617D01*
X0043164Y0102533D01*
X0043152Y0102450D01*
X0043136Y0102368D01*
X0043117Y0102287D01*
X0043093Y0102206D01*
X0043066Y0102127D01*
X0043035Y0102049D01*
X0043001Y0101973D01*
X0042962Y0101899D01*
X0042921Y0101826D01*
X0042876Y0101755D01*
X0042828Y0101687D01*
X0042776Y0101621D01*
X0042722Y0101557D01*
X0042664Y0101496D01*
X0042604Y0101438D01*
X0042541Y0101383D01*
X0042476Y0101331D01*
X0042408Y0101282D01*
X0042338Y0101236D01*
X0042266Y0101194D01*
X0042192Y0101155D01*
X0042116Y0101119D01*
X0042038Y0101087D01*
X0041960Y0101059D01*
X0041879Y0101035D01*
X0041798Y0101014D01*
X0041716Y0100998D01*
X0041634Y0100985D01*
X0041550Y0100976D01*
X0041467Y0100971D01*
X0041383Y0100970D01*
X0041299Y0100973D01*
X0041216Y0100980D01*
X0041133Y0100991D01*
X0041051Y0101006D01*
X0040969Y0101024D01*
X0040888Y0101047D01*
X0040809Y0101073D01*
X0040731Y0101103D01*
X0040654Y0101137D01*
X0040579Y0101174D01*
X0040506Y0101214D01*
X0040435Y0101259D01*
X0040366Y0101306D01*
X0040299Y0101357D01*
X0040235Y0101410D01*
X0040173Y0101467D01*
X0040115Y0101527D01*
X0040059Y0101589D01*
X0040006Y0101654D01*
X0039956Y0101721D01*
X0039909Y0101790D01*
X0039866Y0101862D01*
X0039826Y0101936D01*
X0039790Y0102011D01*
X0039757Y0102088D01*
X0039728Y0102167D01*
X0039703Y0102246D01*
X0039681Y0102327D01*
X0039664Y0102409D01*
X0039650Y0102492D01*
X0039640Y0102575D01*
X0039634Y0102658D01*
X0039632Y0102742D01*
X0039632Y0120065D02*
X0039634Y0120149D01*
X0039640Y0120232D01*
X0039650Y0120315D01*
X0039664Y0120398D01*
X0039681Y0120480D01*
X0039703Y0120561D01*
X0039728Y0120640D01*
X0039757Y0120719D01*
X0039790Y0120796D01*
X0039826Y0120871D01*
X0039866Y0120945D01*
X0039909Y0121017D01*
X0039956Y0121086D01*
X0040006Y0121153D01*
X0040059Y0121218D01*
X0040115Y0121280D01*
X0040173Y0121340D01*
X0040235Y0121397D01*
X0040299Y0121450D01*
X0040366Y0121501D01*
X0040435Y0121548D01*
X0040506Y0121593D01*
X0040579Y0121633D01*
X0040654Y0121670D01*
X0040731Y0121704D01*
X0040809Y0121734D01*
X0040888Y0121760D01*
X0040969Y0121783D01*
X0041051Y0121801D01*
X0041133Y0121816D01*
X0041216Y0121827D01*
X0041299Y0121834D01*
X0041383Y0121837D01*
X0041467Y0121836D01*
X0041550Y0121831D01*
X0041634Y0121822D01*
X0041716Y0121809D01*
X0041798Y0121793D01*
X0041879Y0121772D01*
X0041960Y0121748D01*
X0042038Y0121720D01*
X0042116Y0121688D01*
X0042192Y0121652D01*
X0042266Y0121613D01*
X0042338Y0121571D01*
X0042408Y0121525D01*
X0042476Y0121476D01*
X0042541Y0121424D01*
X0042604Y0121369D01*
X0042664Y0121311D01*
X0042722Y0121250D01*
X0042776Y0121186D01*
X0042828Y0121120D01*
X0042876Y0121052D01*
X0042921Y0120981D01*
X0042962Y0120908D01*
X0043001Y0120834D01*
X0043035Y0120758D01*
X0043066Y0120680D01*
X0043093Y0120601D01*
X0043117Y0120520D01*
X0043136Y0120439D01*
X0043152Y0120357D01*
X0043164Y0120274D01*
X0043172Y0120190D01*
X0043176Y0120107D01*
X0043176Y0120023D01*
X0043172Y0119940D01*
X0043164Y0119856D01*
X0043152Y0119773D01*
X0043136Y0119691D01*
X0043117Y0119610D01*
X0043093Y0119529D01*
X0043066Y0119450D01*
X0043035Y0119372D01*
X0043001Y0119296D01*
X0042962Y0119222D01*
X0042921Y0119149D01*
X0042876Y0119078D01*
X0042828Y0119010D01*
X0042776Y0118944D01*
X0042722Y0118880D01*
X0042664Y0118819D01*
X0042604Y0118761D01*
X0042541Y0118706D01*
X0042476Y0118654D01*
X0042408Y0118605D01*
X0042338Y0118559D01*
X0042266Y0118517D01*
X0042192Y0118478D01*
X0042116Y0118442D01*
X0042038Y0118410D01*
X0041960Y0118382D01*
X0041879Y0118358D01*
X0041798Y0118337D01*
X0041716Y0118321D01*
X0041634Y0118308D01*
X0041550Y0118299D01*
X0041467Y0118294D01*
X0041383Y0118293D01*
X0041299Y0118296D01*
X0041216Y0118303D01*
X0041133Y0118314D01*
X0041051Y0118329D01*
X0040969Y0118347D01*
X0040888Y0118370D01*
X0040809Y0118396D01*
X0040731Y0118426D01*
X0040654Y0118460D01*
X0040579Y0118497D01*
X0040506Y0118537D01*
X0040435Y0118582D01*
X0040366Y0118629D01*
X0040299Y0118680D01*
X0040235Y0118733D01*
X0040173Y0118790D01*
X0040115Y0118850D01*
X0040059Y0118912D01*
X0040006Y0118977D01*
X0039956Y0119044D01*
X0039909Y0119113D01*
X0039866Y0119185D01*
X0039826Y0119259D01*
X0039790Y0119334D01*
X0039757Y0119411D01*
X0039728Y0119490D01*
X0039703Y0119569D01*
X0039681Y0119650D01*
X0039664Y0119732D01*
X0039650Y0119815D01*
X0039640Y0119898D01*
X0039634Y0119981D01*
X0039632Y0120065D01*
X0030892Y0181404D02*
X0030894Y0181552D01*
X0030900Y0181700D01*
X0030910Y0181848D01*
X0030924Y0181995D01*
X0030942Y0182142D01*
X0030963Y0182288D01*
X0030989Y0182434D01*
X0031019Y0182579D01*
X0031052Y0182723D01*
X0031090Y0182866D01*
X0031131Y0183008D01*
X0031176Y0183149D01*
X0031224Y0183289D01*
X0031277Y0183428D01*
X0031333Y0183565D01*
X0031393Y0183700D01*
X0031456Y0183834D01*
X0031523Y0183966D01*
X0031594Y0184096D01*
X0031668Y0184224D01*
X0031745Y0184350D01*
X0031826Y0184474D01*
X0031910Y0184596D01*
X0031997Y0184715D01*
X0032088Y0184832D01*
X0032182Y0184947D01*
X0032278Y0185059D01*
X0032378Y0185169D01*
X0032480Y0185275D01*
X0032586Y0185379D01*
X0032694Y0185480D01*
X0032805Y0185578D01*
X0032918Y0185674D01*
X0033034Y0185766D01*
X0033152Y0185855D01*
X0033273Y0185940D01*
X0033396Y0186023D01*
X0033521Y0186102D01*
X0033648Y0186178D01*
X0033777Y0186250D01*
X0033908Y0186319D01*
X0034041Y0186384D01*
X0034176Y0186445D01*
X0034312Y0186503D01*
X0034449Y0186558D01*
X0034588Y0186608D01*
X0034729Y0186655D01*
X0034870Y0186698D01*
X0035013Y0186738D01*
X0035157Y0186773D01*
X0035301Y0186805D01*
X0035447Y0186832D01*
X0035593Y0186856D01*
X0035740Y0186876D01*
X0035887Y0186892D01*
X0036034Y0186904D01*
X0036182Y0186912D01*
X0036330Y0186916D01*
X0036478Y0186916D01*
X0036626Y0186912D01*
X0036774Y0186904D01*
X0036921Y0186892D01*
X0037068Y0186876D01*
X0037215Y0186856D01*
X0037361Y0186832D01*
X0037507Y0186805D01*
X0037651Y0186773D01*
X0037795Y0186738D01*
X0037938Y0186698D01*
X0038079Y0186655D01*
X0038220Y0186608D01*
X0038359Y0186558D01*
X0038496Y0186503D01*
X0038632Y0186445D01*
X0038767Y0186384D01*
X0038900Y0186319D01*
X0039031Y0186250D01*
X0039160Y0186178D01*
X0039287Y0186102D01*
X0039412Y0186023D01*
X0039535Y0185940D01*
X0039656Y0185855D01*
X0039774Y0185766D01*
X0039890Y0185674D01*
X0040003Y0185578D01*
X0040114Y0185480D01*
X0040222Y0185379D01*
X0040328Y0185275D01*
X0040430Y0185169D01*
X0040530Y0185059D01*
X0040626Y0184947D01*
X0040720Y0184832D01*
X0040811Y0184715D01*
X0040898Y0184596D01*
X0040982Y0184474D01*
X0041063Y0184350D01*
X0041140Y0184224D01*
X0041214Y0184096D01*
X0041285Y0183966D01*
X0041352Y0183834D01*
X0041415Y0183700D01*
X0041475Y0183565D01*
X0041531Y0183428D01*
X0041584Y0183289D01*
X0041632Y0183149D01*
X0041677Y0183008D01*
X0041718Y0182866D01*
X0041756Y0182723D01*
X0041789Y0182579D01*
X0041819Y0182434D01*
X0041845Y0182288D01*
X0041866Y0182142D01*
X0041884Y0181995D01*
X0041898Y0181848D01*
X0041908Y0181700D01*
X0041914Y0181552D01*
X0041916Y0181404D01*
X0041914Y0181256D01*
X0041908Y0181108D01*
X0041898Y0180960D01*
X0041884Y0180813D01*
X0041866Y0180666D01*
X0041845Y0180520D01*
X0041819Y0180374D01*
X0041789Y0180229D01*
X0041756Y0180085D01*
X0041718Y0179942D01*
X0041677Y0179800D01*
X0041632Y0179659D01*
X0041584Y0179519D01*
X0041531Y0179380D01*
X0041475Y0179243D01*
X0041415Y0179108D01*
X0041352Y0178974D01*
X0041285Y0178842D01*
X0041214Y0178712D01*
X0041140Y0178584D01*
X0041063Y0178458D01*
X0040982Y0178334D01*
X0040898Y0178212D01*
X0040811Y0178093D01*
X0040720Y0177976D01*
X0040626Y0177861D01*
X0040530Y0177749D01*
X0040430Y0177639D01*
X0040328Y0177533D01*
X0040222Y0177429D01*
X0040114Y0177328D01*
X0040003Y0177230D01*
X0039890Y0177134D01*
X0039774Y0177042D01*
X0039656Y0176953D01*
X0039535Y0176868D01*
X0039412Y0176785D01*
X0039287Y0176706D01*
X0039160Y0176630D01*
X0039031Y0176558D01*
X0038900Y0176489D01*
X0038767Y0176424D01*
X0038632Y0176363D01*
X0038496Y0176305D01*
X0038359Y0176250D01*
X0038220Y0176200D01*
X0038079Y0176153D01*
X0037938Y0176110D01*
X0037795Y0176070D01*
X0037651Y0176035D01*
X0037507Y0176003D01*
X0037361Y0175976D01*
X0037215Y0175952D01*
X0037068Y0175932D01*
X0036921Y0175916D01*
X0036774Y0175904D01*
X0036626Y0175896D01*
X0036478Y0175892D01*
X0036330Y0175892D01*
X0036182Y0175896D01*
X0036034Y0175904D01*
X0035887Y0175916D01*
X0035740Y0175932D01*
X0035593Y0175952D01*
X0035447Y0175976D01*
X0035301Y0176003D01*
X0035157Y0176035D01*
X0035013Y0176070D01*
X0034870Y0176110D01*
X0034729Y0176153D01*
X0034588Y0176200D01*
X0034449Y0176250D01*
X0034312Y0176305D01*
X0034176Y0176363D01*
X0034041Y0176424D01*
X0033908Y0176489D01*
X0033777Y0176558D01*
X0033648Y0176630D01*
X0033521Y0176706D01*
X0033396Y0176785D01*
X0033273Y0176868D01*
X0033152Y0176953D01*
X0033034Y0177042D01*
X0032918Y0177134D01*
X0032805Y0177230D01*
X0032694Y0177328D01*
X0032586Y0177429D01*
X0032480Y0177533D01*
X0032378Y0177639D01*
X0032278Y0177749D01*
X0032182Y0177861D01*
X0032088Y0177976D01*
X0031997Y0178093D01*
X0031910Y0178212D01*
X0031826Y0178334D01*
X0031745Y0178458D01*
X0031668Y0178584D01*
X0031594Y0178712D01*
X0031523Y0178842D01*
X0031456Y0178974D01*
X0031393Y0179108D01*
X0031333Y0179243D01*
X0031277Y0179380D01*
X0031224Y0179519D01*
X0031176Y0179659D01*
X0031131Y0179800D01*
X0031090Y0179942D01*
X0031052Y0180085D01*
X0031019Y0180229D01*
X0030989Y0180374D01*
X0030963Y0180520D01*
X0030942Y0180666D01*
X0030924Y0180813D01*
X0030910Y0180960D01*
X0030900Y0181108D01*
X0030894Y0181256D01*
X0030892Y0181404D01*
X0275892Y0181404D02*
X0275894Y0181552D01*
X0275900Y0181700D01*
X0275910Y0181848D01*
X0275924Y0181995D01*
X0275942Y0182142D01*
X0275963Y0182288D01*
X0275989Y0182434D01*
X0276019Y0182579D01*
X0276052Y0182723D01*
X0276090Y0182866D01*
X0276131Y0183008D01*
X0276176Y0183149D01*
X0276224Y0183289D01*
X0276277Y0183428D01*
X0276333Y0183565D01*
X0276393Y0183700D01*
X0276456Y0183834D01*
X0276523Y0183966D01*
X0276594Y0184096D01*
X0276668Y0184224D01*
X0276745Y0184350D01*
X0276826Y0184474D01*
X0276910Y0184596D01*
X0276997Y0184715D01*
X0277088Y0184832D01*
X0277182Y0184947D01*
X0277278Y0185059D01*
X0277378Y0185169D01*
X0277480Y0185275D01*
X0277586Y0185379D01*
X0277694Y0185480D01*
X0277805Y0185578D01*
X0277918Y0185674D01*
X0278034Y0185766D01*
X0278152Y0185855D01*
X0278273Y0185940D01*
X0278396Y0186023D01*
X0278521Y0186102D01*
X0278648Y0186178D01*
X0278777Y0186250D01*
X0278908Y0186319D01*
X0279041Y0186384D01*
X0279176Y0186445D01*
X0279312Y0186503D01*
X0279449Y0186558D01*
X0279588Y0186608D01*
X0279729Y0186655D01*
X0279870Y0186698D01*
X0280013Y0186738D01*
X0280157Y0186773D01*
X0280301Y0186805D01*
X0280447Y0186832D01*
X0280593Y0186856D01*
X0280740Y0186876D01*
X0280887Y0186892D01*
X0281034Y0186904D01*
X0281182Y0186912D01*
X0281330Y0186916D01*
X0281478Y0186916D01*
X0281626Y0186912D01*
X0281774Y0186904D01*
X0281921Y0186892D01*
X0282068Y0186876D01*
X0282215Y0186856D01*
X0282361Y0186832D01*
X0282507Y0186805D01*
X0282651Y0186773D01*
X0282795Y0186738D01*
X0282938Y0186698D01*
X0283079Y0186655D01*
X0283220Y0186608D01*
X0283359Y0186558D01*
X0283496Y0186503D01*
X0283632Y0186445D01*
X0283767Y0186384D01*
X0283900Y0186319D01*
X0284031Y0186250D01*
X0284160Y0186178D01*
X0284287Y0186102D01*
X0284412Y0186023D01*
X0284535Y0185940D01*
X0284656Y0185855D01*
X0284774Y0185766D01*
X0284890Y0185674D01*
X0285003Y0185578D01*
X0285114Y0185480D01*
X0285222Y0185379D01*
X0285328Y0185275D01*
X0285430Y0185169D01*
X0285530Y0185059D01*
X0285626Y0184947D01*
X0285720Y0184832D01*
X0285811Y0184715D01*
X0285898Y0184596D01*
X0285982Y0184474D01*
X0286063Y0184350D01*
X0286140Y0184224D01*
X0286214Y0184096D01*
X0286285Y0183966D01*
X0286352Y0183834D01*
X0286415Y0183700D01*
X0286475Y0183565D01*
X0286531Y0183428D01*
X0286584Y0183289D01*
X0286632Y0183149D01*
X0286677Y0183008D01*
X0286718Y0182866D01*
X0286756Y0182723D01*
X0286789Y0182579D01*
X0286819Y0182434D01*
X0286845Y0182288D01*
X0286866Y0182142D01*
X0286884Y0181995D01*
X0286898Y0181848D01*
X0286908Y0181700D01*
X0286914Y0181552D01*
X0286916Y0181404D01*
X0286914Y0181256D01*
X0286908Y0181108D01*
X0286898Y0180960D01*
X0286884Y0180813D01*
X0286866Y0180666D01*
X0286845Y0180520D01*
X0286819Y0180374D01*
X0286789Y0180229D01*
X0286756Y0180085D01*
X0286718Y0179942D01*
X0286677Y0179800D01*
X0286632Y0179659D01*
X0286584Y0179519D01*
X0286531Y0179380D01*
X0286475Y0179243D01*
X0286415Y0179108D01*
X0286352Y0178974D01*
X0286285Y0178842D01*
X0286214Y0178712D01*
X0286140Y0178584D01*
X0286063Y0178458D01*
X0285982Y0178334D01*
X0285898Y0178212D01*
X0285811Y0178093D01*
X0285720Y0177976D01*
X0285626Y0177861D01*
X0285530Y0177749D01*
X0285430Y0177639D01*
X0285328Y0177533D01*
X0285222Y0177429D01*
X0285114Y0177328D01*
X0285003Y0177230D01*
X0284890Y0177134D01*
X0284774Y0177042D01*
X0284656Y0176953D01*
X0284535Y0176868D01*
X0284412Y0176785D01*
X0284287Y0176706D01*
X0284160Y0176630D01*
X0284031Y0176558D01*
X0283900Y0176489D01*
X0283767Y0176424D01*
X0283632Y0176363D01*
X0283496Y0176305D01*
X0283359Y0176250D01*
X0283220Y0176200D01*
X0283079Y0176153D01*
X0282938Y0176110D01*
X0282795Y0176070D01*
X0282651Y0176035D01*
X0282507Y0176003D01*
X0282361Y0175976D01*
X0282215Y0175952D01*
X0282068Y0175932D01*
X0281921Y0175916D01*
X0281774Y0175904D01*
X0281626Y0175896D01*
X0281478Y0175892D01*
X0281330Y0175892D01*
X0281182Y0175896D01*
X0281034Y0175904D01*
X0280887Y0175916D01*
X0280740Y0175932D01*
X0280593Y0175952D01*
X0280447Y0175976D01*
X0280301Y0176003D01*
X0280157Y0176035D01*
X0280013Y0176070D01*
X0279870Y0176110D01*
X0279729Y0176153D01*
X0279588Y0176200D01*
X0279449Y0176250D01*
X0279312Y0176305D01*
X0279176Y0176363D01*
X0279041Y0176424D01*
X0278908Y0176489D01*
X0278777Y0176558D01*
X0278648Y0176630D01*
X0278521Y0176706D01*
X0278396Y0176785D01*
X0278273Y0176868D01*
X0278152Y0176953D01*
X0278034Y0177042D01*
X0277918Y0177134D01*
X0277805Y0177230D01*
X0277694Y0177328D01*
X0277586Y0177429D01*
X0277480Y0177533D01*
X0277378Y0177639D01*
X0277278Y0177749D01*
X0277182Y0177861D01*
X0277088Y0177976D01*
X0276997Y0178093D01*
X0276910Y0178212D01*
X0276826Y0178334D01*
X0276745Y0178458D01*
X0276668Y0178584D01*
X0276594Y0178712D01*
X0276523Y0178842D01*
X0276456Y0178974D01*
X0276393Y0179108D01*
X0276333Y0179243D01*
X0276277Y0179380D01*
X0276224Y0179519D01*
X0276176Y0179659D01*
X0276131Y0179800D01*
X0276090Y0179942D01*
X0276052Y0180085D01*
X0276019Y0180229D01*
X0275989Y0180374D01*
X0275963Y0180520D01*
X0275942Y0180666D01*
X0275924Y0180813D01*
X0275910Y0180960D01*
X0275900Y0181108D01*
X0275894Y0181256D01*
X0275892Y0181404D01*
X0275892Y0026404D02*
X0275894Y0026552D01*
X0275900Y0026700D01*
X0275910Y0026848D01*
X0275924Y0026995D01*
X0275942Y0027142D01*
X0275963Y0027288D01*
X0275989Y0027434D01*
X0276019Y0027579D01*
X0276052Y0027723D01*
X0276090Y0027866D01*
X0276131Y0028008D01*
X0276176Y0028149D01*
X0276224Y0028289D01*
X0276277Y0028428D01*
X0276333Y0028565D01*
X0276393Y0028700D01*
X0276456Y0028834D01*
X0276523Y0028966D01*
X0276594Y0029096D01*
X0276668Y0029224D01*
X0276745Y0029350D01*
X0276826Y0029474D01*
X0276910Y0029596D01*
X0276997Y0029715D01*
X0277088Y0029832D01*
X0277182Y0029947D01*
X0277278Y0030059D01*
X0277378Y0030169D01*
X0277480Y0030275D01*
X0277586Y0030379D01*
X0277694Y0030480D01*
X0277805Y0030578D01*
X0277918Y0030674D01*
X0278034Y0030766D01*
X0278152Y0030855D01*
X0278273Y0030940D01*
X0278396Y0031023D01*
X0278521Y0031102D01*
X0278648Y0031178D01*
X0278777Y0031250D01*
X0278908Y0031319D01*
X0279041Y0031384D01*
X0279176Y0031445D01*
X0279312Y0031503D01*
X0279449Y0031558D01*
X0279588Y0031608D01*
X0279729Y0031655D01*
X0279870Y0031698D01*
X0280013Y0031738D01*
X0280157Y0031773D01*
X0280301Y0031805D01*
X0280447Y0031832D01*
X0280593Y0031856D01*
X0280740Y0031876D01*
X0280887Y0031892D01*
X0281034Y0031904D01*
X0281182Y0031912D01*
X0281330Y0031916D01*
X0281478Y0031916D01*
X0281626Y0031912D01*
X0281774Y0031904D01*
X0281921Y0031892D01*
X0282068Y0031876D01*
X0282215Y0031856D01*
X0282361Y0031832D01*
X0282507Y0031805D01*
X0282651Y0031773D01*
X0282795Y0031738D01*
X0282938Y0031698D01*
X0283079Y0031655D01*
X0283220Y0031608D01*
X0283359Y0031558D01*
X0283496Y0031503D01*
X0283632Y0031445D01*
X0283767Y0031384D01*
X0283900Y0031319D01*
X0284031Y0031250D01*
X0284160Y0031178D01*
X0284287Y0031102D01*
X0284412Y0031023D01*
X0284535Y0030940D01*
X0284656Y0030855D01*
X0284774Y0030766D01*
X0284890Y0030674D01*
X0285003Y0030578D01*
X0285114Y0030480D01*
X0285222Y0030379D01*
X0285328Y0030275D01*
X0285430Y0030169D01*
X0285530Y0030059D01*
X0285626Y0029947D01*
X0285720Y0029832D01*
X0285811Y0029715D01*
X0285898Y0029596D01*
X0285982Y0029474D01*
X0286063Y0029350D01*
X0286140Y0029224D01*
X0286214Y0029096D01*
X0286285Y0028966D01*
X0286352Y0028834D01*
X0286415Y0028700D01*
X0286475Y0028565D01*
X0286531Y0028428D01*
X0286584Y0028289D01*
X0286632Y0028149D01*
X0286677Y0028008D01*
X0286718Y0027866D01*
X0286756Y0027723D01*
X0286789Y0027579D01*
X0286819Y0027434D01*
X0286845Y0027288D01*
X0286866Y0027142D01*
X0286884Y0026995D01*
X0286898Y0026848D01*
X0286908Y0026700D01*
X0286914Y0026552D01*
X0286916Y0026404D01*
X0286914Y0026256D01*
X0286908Y0026108D01*
X0286898Y0025960D01*
X0286884Y0025813D01*
X0286866Y0025666D01*
X0286845Y0025520D01*
X0286819Y0025374D01*
X0286789Y0025229D01*
X0286756Y0025085D01*
X0286718Y0024942D01*
X0286677Y0024800D01*
X0286632Y0024659D01*
X0286584Y0024519D01*
X0286531Y0024380D01*
X0286475Y0024243D01*
X0286415Y0024108D01*
X0286352Y0023974D01*
X0286285Y0023842D01*
X0286214Y0023712D01*
X0286140Y0023584D01*
X0286063Y0023458D01*
X0285982Y0023334D01*
X0285898Y0023212D01*
X0285811Y0023093D01*
X0285720Y0022976D01*
X0285626Y0022861D01*
X0285530Y0022749D01*
X0285430Y0022639D01*
X0285328Y0022533D01*
X0285222Y0022429D01*
X0285114Y0022328D01*
X0285003Y0022230D01*
X0284890Y0022134D01*
X0284774Y0022042D01*
X0284656Y0021953D01*
X0284535Y0021868D01*
X0284412Y0021785D01*
X0284287Y0021706D01*
X0284160Y0021630D01*
X0284031Y0021558D01*
X0283900Y0021489D01*
X0283767Y0021424D01*
X0283632Y0021363D01*
X0283496Y0021305D01*
X0283359Y0021250D01*
X0283220Y0021200D01*
X0283079Y0021153D01*
X0282938Y0021110D01*
X0282795Y0021070D01*
X0282651Y0021035D01*
X0282507Y0021003D01*
X0282361Y0020976D01*
X0282215Y0020952D01*
X0282068Y0020932D01*
X0281921Y0020916D01*
X0281774Y0020904D01*
X0281626Y0020896D01*
X0281478Y0020892D01*
X0281330Y0020892D01*
X0281182Y0020896D01*
X0281034Y0020904D01*
X0280887Y0020916D01*
X0280740Y0020932D01*
X0280593Y0020952D01*
X0280447Y0020976D01*
X0280301Y0021003D01*
X0280157Y0021035D01*
X0280013Y0021070D01*
X0279870Y0021110D01*
X0279729Y0021153D01*
X0279588Y0021200D01*
X0279449Y0021250D01*
X0279312Y0021305D01*
X0279176Y0021363D01*
X0279041Y0021424D01*
X0278908Y0021489D01*
X0278777Y0021558D01*
X0278648Y0021630D01*
X0278521Y0021706D01*
X0278396Y0021785D01*
X0278273Y0021868D01*
X0278152Y0021953D01*
X0278034Y0022042D01*
X0277918Y0022134D01*
X0277805Y0022230D01*
X0277694Y0022328D01*
X0277586Y0022429D01*
X0277480Y0022533D01*
X0277378Y0022639D01*
X0277278Y0022749D01*
X0277182Y0022861D01*
X0277088Y0022976D01*
X0276997Y0023093D01*
X0276910Y0023212D01*
X0276826Y0023334D01*
X0276745Y0023458D01*
X0276668Y0023584D01*
X0276594Y0023712D01*
X0276523Y0023842D01*
X0276456Y0023974D01*
X0276393Y0024108D01*
X0276333Y0024243D01*
X0276277Y0024380D01*
X0276224Y0024519D01*
X0276176Y0024659D01*
X0276131Y0024800D01*
X0276090Y0024942D01*
X0276052Y0025085D01*
X0276019Y0025229D01*
X0275989Y0025374D01*
X0275963Y0025520D01*
X0275942Y0025666D01*
X0275924Y0025813D01*
X0275910Y0025960D01*
X0275900Y0026108D01*
X0275894Y0026256D01*
X0275892Y0026404D01*
D11*
X0277404Y0026404D02*
X0285404Y0026404D01*
X0281404Y0022404D02*
X0281404Y0030404D01*
X0277504Y0026404D02*
X0277506Y0026528D01*
X0277512Y0026653D01*
X0277522Y0026777D01*
X0277536Y0026900D01*
X0277553Y0027023D01*
X0277575Y0027146D01*
X0277601Y0027268D01*
X0277630Y0027388D01*
X0277664Y0027508D01*
X0277701Y0027627D01*
X0277742Y0027744D01*
X0277786Y0027860D01*
X0277834Y0027975D01*
X0277886Y0028088D01*
X0277942Y0028199D01*
X0278001Y0028309D01*
X0278063Y0028416D01*
X0278129Y0028522D01*
X0278198Y0028625D01*
X0278271Y0028726D01*
X0278347Y0028825D01*
X0278425Y0028921D01*
X0278507Y0029015D01*
X0278592Y0029106D01*
X0278679Y0029195D01*
X0278770Y0029280D01*
X0278863Y0029363D01*
X0278959Y0029442D01*
X0279057Y0029518D01*
X0279157Y0029592D01*
X0279260Y0029662D01*
X0279365Y0029728D01*
X0279472Y0029792D01*
X0279581Y0029852D01*
X0279692Y0029908D01*
X0279804Y0029961D01*
X0279919Y0030010D01*
X0280034Y0030056D01*
X0280152Y0030097D01*
X0280270Y0030136D01*
X0280390Y0030170D01*
X0280510Y0030200D01*
X0280632Y0030227D01*
X0280754Y0030249D01*
X0280877Y0030268D01*
X0281000Y0030283D01*
X0281124Y0030294D01*
X0281249Y0030301D01*
X0281373Y0030304D01*
X0281497Y0030303D01*
X0281622Y0030298D01*
X0281746Y0030289D01*
X0281869Y0030276D01*
X0281993Y0030259D01*
X0282115Y0030239D01*
X0282237Y0030214D01*
X0282358Y0030185D01*
X0282478Y0030153D01*
X0282597Y0030117D01*
X0282715Y0030077D01*
X0282832Y0030033D01*
X0282947Y0029986D01*
X0283060Y0029935D01*
X0283172Y0029880D01*
X0283282Y0029822D01*
X0283390Y0029761D01*
X0283496Y0029696D01*
X0283600Y0029627D01*
X0283701Y0029556D01*
X0283801Y0029481D01*
X0283898Y0029403D01*
X0283992Y0029322D01*
X0284084Y0029238D01*
X0284173Y0029151D01*
X0284259Y0029061D01*
X0284342Y0028969D01*
X0284422Y0028874D01*
X0284500Y0028776D01*
X0284574Y0028676D01*
X0284645Y0028574D01*
X0284712Y0028470D01*
X0284776Y0028363D01*
X0284837Y0028254D01*
X0284894Y0028144D01*
X0284948Y0028032D01*
X0284998Y0027918D01*
X0285045Y0027803D01*
X0285087Y0027686D01*
X0285126Y0027568D01*
X0285162Y0027448D01*
X0285193Y0027328D01*
X0285220Y0027207D01*
X0285244Y0027085D01*
X0285264Y0026962D01*
X0285280Y0026838D01*
X0285292Y0026715D01*
X0285300Y0026591D01*
X0285304Y0026466D01*
X0285304Y0026342D01*
X0285300Y0026217D01*
X0285292Y0026093D01*
X0285280Y0025970D01*
X0285264Y0025846D01*
X0285244Y0025723D01*
X0285220Y0025601D01*
X0285193Y0025480D01*
X0285162Y0025360D01*
X0285126Y0025240D01*
X0285087Y0025122D01*
X0285045Y0025005D01*
X0284998Y0024890D01*
X0284948Y0024776D01*
X0284894Y0024664D01*
X0284837Y0024554D01*
X0284776Y0024445D01*
X0284712Y0024338D01*
X0284645Y0024234D01*
X0284574Y0024132D01*
X0284500Y0024032D01*
X0284422Y0023934D01*
X0284342Y0023839D01*
X0284259Y0023747D01*
X0284173Y0023657D01*
X0284084Y0023570D01*
X0283992Y0023486D01*
X0283898Y0023405D01*
X0283801Y0023327D01*
X0283701Y0023252D01*
X0283600Y0023181D01*
X0283496Y0023112D01*
X0283390Y0023047D01*
X0283282Y0022986D01*
X0283172Y0022928D01*
X0283060Y0022873D01*
X0282947Y0022822D01*
X0282832Y0022775D01*
X0282715Y0022731D01*
X0282597Y0022691D01*
X0282478Y0022655D01*
X0282358Y0022623D01*
X0282237Y0022594D01*
X0282115Y0022569D01*
X0281993Y0022549D01*
X0281869Y0022532D01*
X0281746Y0022519D01*
X0281622Y0022510D01*
X0281497Y0022505D01*
X0281373Y0022504D01*
X0281249Y0022507D01*
X0281124Y0022514D01*
X0281000Y0022525D01*
X0280877Y0022540D01*
X0280754Y0022559D01*
X0280632Y0022581D01*
X0280510Y0022608D01*
X0280390Y0022638D01*
X0280270Y0022672D01*
X0280152Y0022711D01*
X0280034Y0022752D01*
X0279919Y0022798D01*
X0279804Y0022847D01*
X0279692Y0022900D01*
X0279581Y0022956D01*
X0279472Y0023016D01*
X0279365Y0023080D01*
X0279260Y0023146D01*
X0279157Y0023216D01*
X0279057Y0023290D01*
X0278959Y0023366D01*
X0278863Y0023445D01*
X0278770Y0023528D01*
X0278679Y0023613D01*
X0278592Y0023702D01*
X0278507Y0023793D01*
X0278425Y0023887D01*
X0278347Y0023983D01*
X0278271Y0024082D01*
X0278198Y0024183D01*
X0278129Y0024286D01*
X0278063Y0024392D01*
X0278001Y0024499D01*
X0277942Y0024609D01*
X0277886Y0024720D01*
X0277834Y0024833D01*
X0277786Y0024948D01*
X0277742Y0025064D01*
X0277701Y0025181D01*
X0277664Y0025300D01*
X0277630Y0025420D01*
X0277601Y0025540D01*
X0277575Y0025662D01*
X0277553Y0025785D01*
X0277536Y0025908D01*
X0277522Y0026031D01*
X0277512Y0026155D01*
X0277506Y0026280D01*
X0277504Y0026404D01*
X0265404Y0028904D02*
X0257404Y0028904D01*
X0261404Y0024904D02*
X0265404Y0028904D01*
X0261404Y0024904D02*
X0261404Y0032904D01*
X0257404Y0028904D01*
X0255404Y0028904D02*
X0247404Y0028904D01*
X0251404Y0024904D02*
X0255404Y0028904D01*
X0251404Y0024904D02*
X0251404Y0032904D01*
X0247404Y0028904D01*
X0245404Y0028904D02*
X0237404Y0028904D01*
X0241404Y0024904D02*
X0245404Y0028904D01*
X0241404Y0024904D02*
X0241404Y0032904D01*
X0237404Y0028904D01*
X0235404Y0028904D02*
X0227404Y0028904D01*
X0231404Y0024904D02*
X0235404Y0028904D01*
X0231404Y0024904D02*
X0231404Y0032904D01*
X0227404Y0028904D01*
X0225404Y0028904D02*
X0217404Y0028904D01*
X0221404Y0024904D02*
X0225404Y0028904D01*
X0221404Y0024904D02*
X0221404Y0032904D01*
X0217404Y0028904D01*
X0215404Y0028904D02*
X0207404Y0028904D01*
X0211404Y0024904D02*
X0215404Y0028904D01*
X0211404Y0024904D02*
X0211404Y0032904D01*
X0207404Y0028904D01*
X0205404Y0028904D02*
X0197404Y0028904D01*
X0201404Y0024904D02*
X0205404Y0028904D01*
X0201404Y0024904D02*
X0201404Y0032904D01*
X0197404Y0028904D01*
X0195404Y0028904D02*
X0187404Y0028904D01*
X0191404Y0024904D02*
X0195404Y0028904D01*
X0191404Y0024904D02*
X0191404Y0032904D01*
X0187404Y0028904D01*
X0185404Y0028904D02*
X0177404Y0028904D01*
X0181404Y0024904D02*
X0185404Y0028904D01*
X0181404Y0024904D02*
X0181404Y0032904D01*
X0177404Y0028904D01*
X0175404Y0028904D02*
X0167404Y0028904D01*
X0171404Y0024904D02*
X0175404Y0028904D01*
X0171404Y0024904D02*
X0171404Y0032904D01*
X0167404Y0028904D01*
X0165404Y0028904D02*
X0157404Y0028904D01*
X0161404Y0024904D02*
X0165404Y0028904D01*
X0161404Y0024904D02*
X0161404Y0032904D01*
X0157404Y0028904D01*
X0155404Y0028904D02*
X0147404Y0028904D01*
X0151404Y0024904D02*
X0155404Y0028904D01*
X0151404Y0024904D02*
X0151404Y0032904D01*
X0147404Y0028904D01*
X0145404Y0028904D02*
X0137404Y0028904D01*
X0141404Y0024904D02*
X0145404Y0028904D01*
X0141404Y0024904D02*
X0141404Y0032904D01*
X0137404Y0028904D01*
X0135404Y0028904D02*
X0127404Y0028904D01*
X0131404Y0024904D02*
X0135404Y0028904D01*
X0131404Y0024904D02*
X0131404Y0032904D01*
X0127404Y0028904D01*
X0125404Y0028904D02*
X0117404Y0028904D01*
X0121404Y0024904D02*
X0125404Y0028904D01*
X0121404Y0024904D02*
X0121404Y0032904D01*
X0117404Y0028904D01*
X0115404Y0028904D02*
X0107404Y0028904D01*
X0111404Y0024904D02*
X0115404Y0028904D01*
X0111404Y0024904D02*
X0111404Y0032904D01*
X0107404Y0028904D01*
X0112004Y0045604D02*
X0112006Y0045728D01*
X0112012Y0045853D01*
X0112022Y0045977D01*
X0112036Y0046100D01*
X0112053Y0046223D01*
X0112075Y0046346D01*
X0112101Y0046468D01*
X0112130Y0046588D01*
X0112164Y0046708D01*
X0112201Y0046827D01*
X0112242Y0046944D01*
X0112286Y0047060D01*
X0112334Y0047175D01*
X0112386Y0047288D01*
X0112442Y0047399D01*
X0112501Y0047509D01*
X0112563Y0047616D01*
X0112629Y0047722D01*
X0112698Y0047825D01*
X0112771Y0047926D01*
X0112847Y0048025D01*
X0112925Y0048121D01*
X0113007Y0048215D01*
X0113092Y0048306D01*
X0113179Y0048395D01*
X0113270Y0048480D01*
X0113363Y0048563D01*
X0113459Y0048642D01*
X0113557Y0048718D01*
X0113657Y0048792D01*
X0113760Y0048862D01*
X0113865Y0048928D01*
X0113972Y0048992D01*
X0114081Y0049052D01*
X0114192Y0049108D01*
X0114304Y0049161D01*
X0114419Y0049210D01*
X0114534Y0049256D01*
X0114652Y0049297D01*
X0114770Y0049336D01*
X0114890Y0049370D01*
X0115010Y0049400D01*
X0115132Y0049427D01*
X0115254Y0049449D01*
X0115377Y0049468D01*
X0115500Y0049483D01*
X0115624Y0049494D01*
X0115749Y0049501D01*
X0115873Y0049504D01*
X0115997Y0049503D01*
X0116122Y0049498D01*
X0116246Y0049489D01*
X0116369Y0049476D01*
X0116493Y0049459D01*
X0116615Y0049439D01*
X0116737Y0049414D01*
X0116858Y0049385D01*
X0116978Y0049353D01*
X0117097Y0049317D01*
X0117215Y0049277D01*
X0117332Y0049233D01*
X0117447Y0049186D01*
X0117560Y0049135D01*
X0117672Y0049080D01*
X0117782Y0049022D01*
X0117890Y0048961D01*
X0117996Y0048896D01*
X0118100Y0048827D01*
X0118201Y0048756D01*
X0118301Y0048681D01*
X0118398Y0048603D01*
X0118492Y0048522D01*
X0118584Y0048438D01*
X0118673Y0048351D01*
X0118759Y0048261D01*
X0118842Y0048169D01*
X0118922Y0048074D01*
X0119000Y0047976D01*
X0119074Y0047876D01*
X0119145Y0047774D01*
X0119212Y0047670D01*
X0119276Y0047563D01*
X0119337Y0047454D01*
X0119394Y0047344D01*
X0119448Y0047232D01*
X0119498Y0047118D01*
X0119545Y0047003D01*
X0119587Y0046886D01*
X0119626Y0046768D01*
X0119662Y0046648D01*
X0119693Y0046528D01*
X0119720Y0046407D01*
X0119744Y0046285D01*
X0119764Y0046162D01*
X0119780Y0046038D01*
X0119792Y0045915D01*
X0119800Y0045791D01*
X0119804Y0045666D01*
X0119804Y0045542D01*
X0119800Y0045417D01*
X0119792Y0045293D01*
X0119780Y0045170D01*
X0119764Y0045046D01*
X0119744Y0044923D01*
X0119720Y0044801D01*
X0119693Y0044680D01*
X0119662Y0044560D01*
X0119626Y0044440D01*
X0119587Y0044322D01*
X0119545Y0044205D01*
X0119498Y0044090D01*
X0119448Y0043976D01*
X0119394Y0043864D01*
X0119337Y0043754D01*
X0119276Y0043645D01*
X0119212Y0043538D01*
X0119145Y0043434D01*
X0119074Y0043332D01*
X0119000Y0043232D01*
X0118922Y0043134D01*
X0118842Y0043039D01*
X0118759Y0042947D01*
X0118673Y0042857D01*
X0118584Y0042770D01*
X0118492Y0042686D01*
X0118398Y0042605D01*
X0118301Y0042527D01*
X0118201Y0042452D01*
X0118100Y0042381D01*
X0117996Y0042312D01*
X0117890Y0042247D01*
X0117782Y0042186D01*
X0117672Y0042128D01*
X0117560Y0042073D01*
X0117447Y0042022D01*
X0117332Y0041975D01*
X0117215Y0041931D01*
X0117097Y0041891D01*
X0116978Y0041855D01*
X0116858Y0041823D01*
X0116737Y0041794D01*
X0116615Y0041769D01*
X0116493Y0041749D01*
X0116369Y0041732D01*
X0116246Y0041719D01*
X0116122Y0041710D01*
X0115997Y0041705D01*
X0115873Y0041704D01*
X0115749Y0041707D01*
X0115624Y0041714D01*
X0115500Y0041725D01*
X0115377Y0041740D01*
X0115254Y0041759D01*
X0115132Y0041781D01*
X0115010Y0041808D01*
X0114890Y0041838D01*
X0114770Y0041872D01*
X0114652Y0041911D01*
X0114534Y0041952D01*
X0114419Y0041998D01*
X0114304Y0042047D01*
X0114192Y0042100D01*
X0114081Y0042156D01*
X0113972Y0042216D01*
X0113865Y0042280D01*
X0113760Y0042346D01*
X0113657Y0042416D01*
X0113557Y0042490D01*
X0113459Y0042566D01*
X0113363Y0042645D01*
X0113270Y0042728D01*
X0113179Y0042813D01*
X0113092Y0042902D01*
X0113007Y0042993D01*
X0112925Y0043087D01*
X0112847Y0043183D01*
X0112771Y0043282D01*
X0112698Y0043383D01*
X0112629Y0043486D01*
X0112563Y0043592D01*
X0112501Y0043699D01*
X0112442Y0043809D01*
X0112386Y0043920D01*
X0112334Y0044033D01*
X0112286Y0044148D01*
X0112242Y0044264D01*
X0112201Y0044381D01*
X0112164Y0044500D01*
X0112130Y0044620D01*
X0112101Y0044740D01*
X0112075Y0044862D01*
X0112053Y0044985D01*
X0112036Y0045108D01*
X0112022Y0045231D01*
X0112012Y0045355D01*
X0112006Y0045480D01*
X0112004Y0045604D01*
X0111904Y0041604D02*
X0119904Y0049604D01*
X0131804Y0040204D02*
X0131806Y0040328D01*
X0131812Y0040453D01*
X0131822Y0040577D01*
X0131836Y0040700D01*
X0131853Y0040823D01*
X0131875Y0040946D01*
X0131901Y0041068D01*
X0131930Y0041188D01*
X0131964Y0041308D01*
X0132001Y0041427D01*
X0132042Y0041544D01*
X0132086Y0041660D01*
X0132134Y0041775D01*
X0132186Y0041888D01*
X0132242Y0041999D01*
X0132301Y0042109D01*
X0132363Y0042216D01*
X0132429Y0042322D01*
X0132498Y0042425D01*
X0132571Y0042526D01*
X0132647Y0042625D01*
X0132725Y0042721D01*
X0132807Y0042815D01*
X0132892Y0042906D01*
X0132979Y0042995D01*
X0133070Y0043080D01*
X0133163Y0043163D01*
X0133259Y0043242D01*
X0133357Y0043318D01*
X0133457Y0043392D01*
X0133560Y0043462D01*
X0133665Y0043528D01*
X0133772Y0043592D01*
X0133881Y0043652D01*
X0133992Y0043708D01*
X0134104Y0043761D01*
X0134219Y0043810D01*
X0134334Y0043856D01*
X0134452Y0043897D01*
X0134570Y0043936D01*
X0134690Y0043970D01*
X0134810Y0044000D01*
X0134932Y0044027D01*
X0135054Y0044049D01*
X0135177Y0044068D01*
X0135300Y0044083D01*
X0135424Y0044094D01*
X0135549Y0044101D01*
X0135673Y0044104D01*
X0135797Y0044103D01*
X0135922Y0044098D01*
X0136046Y0044089D01*
X0136169Y0044076D01*
X0136293Y0044059D01*
X0136415Y0044039D01*
X0136537Y0044014D01*
X0136658Y0043985D01*
X0136778Y0043953D01*
X0136897Y0043917D01*
X0137015Y0043877D01*
X0137132Y0043833D01*
X0137247Y0043786D01*
X0137360Y0043735D01*
X0137472Y0043680D01*
X0137582Y0043622D01*
X0137690Y0043561D01*
X0137796Y0043496D01*
X0137900Y0043427D01*
X0138001Y0043356D01*
X0138101Y0043281D01*
X0138198Y0043203D01*
X0138292Y0043122D01*
X0138384Y0043038D01*
X0138473Y0042951D01*
X0138559Y0042861D01*
X0138642Y0042769D01*
X0138722Y0042674D01*
X0138800Y0042576D01*
X0138874Y0042476D01*
X0138945Y0042374D01*
X0139012Y0042270D01*
X0139076Y0042163D01*
X0139137Y0042054D01*
X0139194Y0041944D01*
X0139248Y0041832D01*
X0139298Y0041718D01*
X0139345Y0041603D01*
X0139387Y0041486D01*
X0139426Y0041368D01*
X0139462Y0041248D01*
X0139493Y0041128D01*
X0139520Y0041007D01*
X0139544Y0040885D01*
X0139564Y0040762D01*
X0139580Y0040638D01*
X0139592Y0040515D01*
X0139600Y0040391D01*
X0139604Y0040266D01*
X0139604Y0040142D01*
X0139600Y0040017D01*
X0139592Y0039893D01*
X0139580Y0039770D01*
X0139564Y0039646D01*
X0139544Y0039523D01*
X0139520Y0039401D01*
X0139493Y0039280D01*
X0139462Y0039160D01*
X0139426Y0039040D01*
X0139387Y0038922D01*
X0139345Y0038805D01*
X0139298Y0038690D01*
X0139248Y0038576D01*
X0139194Y0038464D01*
X0139137Y0038354D01*
X0139076Y0038245D01*
X0139012Y0038138D01*
X0138945Y0038034D01*
X0138874Y0037932D01*
X0138800Y0037832D01*
X0138722Y0037734D01*
X0138642Y0037639D01*
X0138559Y0037547D01*
X0138473Y0037457D01*
X0138384Y0037370D01*
X0138292Y0037286D01*
X0138198Y0037205D01*
X0138101Y0037127D01*
X0138001Y0037052D01*
X0137900Y0036981D01*
X0137796Y0036912D01*
X0137690Y0036847D01*
X0137582Y0036786D01*
X0137472Y0036728D01*
X0137360Y0036673D01*
X0137247Y0036622D01*
X0137132Y0036575D01*
X0137015Y0036531D01*
X0136897Y0036491D01*
X0136778Y0036455D01*
X0136658Y0036423D01*
X0136537Y0036394D01*
X0136415Y0036369D01*
X0136293Y0036349D01*
X0136169Y0036332D01*
X0136046Y0036319D01*
X0135922Y0036310D01*
X0135797Y0036305D01*
X0135673Y0036304D01*
X0135549Y0036307D01*
X0135424Y0036314D01*
X0135300Y0036325D01*
X0135177Y0036340D01*
X0135054Y0036359D01*
X0134932Y0036381D01*
X0134810Y0036408D01*
X0134690Y0036438D01*
X0134570Y0036472D01*
X0134452Y0036511D01*
X0134334Y0036552D01*
X0134219Y0036598D01*
X0134104Y0036647D01*
X0133992Y0036700D01*
X0133881Y0036756D01*
X0133772Y0036816D01*
X0133665Y0036880D01*
X0133560Y0036946D01*
X0133457Y0037016D01*
X0133357Y0037090D01*
X0133259Y0037166D01*
X0133163Y0037245D01*
X0133070Y0037328D01*
X0132979Y0037413D01*
X0132892Y0037502D01*
X0132807Y0037593D01*
X0132725Y0037687D01*
X0132647Y0037783D01*
X0132571Y0037882D01*
X0132498Y0037983D01*
X0132429Y0038086D01*
X0132363Y0038192D01*
X0132301Y0038299D01*
X0132242Y0038409D01*
X0132186Y0038520D01*
X0132134Y0038633D01*
X0132086Y0038748D01*
X0132042Y0038864D01*
X0132001Y0038981D01*
X0131964Y0039100D01*
X0131930Y0039220D01*
X0131901Y0039340D01*
X0131875Y0039462D01*
X0131853Y0039585D01*
X0131836Y0039708D01*
X0131822Y0039831D01*
X0131812Y0039955D01*
X0131806Y0040080D01*
X0131804Y0040204D01*
X0131704Y0036204D02*
X0139704Y0044204D01*
X0100304Y0076204D02*
X0100306Y0076328D01*
X0100312Y0076453D01*
X0100322Y0076577D01*
X0100336Y0076700D01*
X0100353Y0076823D01*
X0100375Y0076946D01*
X0100401Y0077068D01*
X0100430Y0077188D01*
X0100464Y0077308D01*
X0100501Y0077427D01*
X0100542Y0077544D01*
X0100586Y0077660D01*
X0100634Y0077775D01*
X0100686Y0077888D01*
X0100742Y0077999D01*
X0100801Y0078109D01*
X0100863Y0078216D01*
X0100929Y0078322D01*
X0100998Y0078425D01*
X0101071Y0078526D01*
X0101147Y0078625D01*
X0101225Y0078721D01*
X0101307Y0078815D01*
X0101392Y0078906D01*
X0101479Y0078995D01*
X0101570Y0079080D01*
X0101663Y0079163D01*
X0101759Y0079242D01*
X0101857Y0079318D01*
X0101957Y0079392D01*
X0102060Y0079462D01*
X0102165Y0079528D01*
X0102272Y0079592D01*
X0102381Y0079652D01*
X0102492Y0079708D01*
X0102604Y0079761D01*
X0102719Y0079810D01*
X0102834Y0079856D01*
X0102952Y0079897D01*
X0103070Y0079936D01*
X0103190Y0079970D01*
X0103310Y0080000D01*
X0103432Y0080027D01*
X0103554Y0080049D01*
X0103677Y0080068D01*
X0103800Y0080083D01*
X0103924Y0080094D01*
X0104049Y0080101D01*
X0104173Y0080104D01*
X0104297Y0080103D01*
X0104422Y0080098D01*
X0104546Y0080089D01*
X0104669Y0080076D01*
X0104793Y0080059D01*
X0104915Y0080039D01*
X0105037Y0080014D01*
X0105158Y0079985D01*
X0105278Y0079953D01*
X0105397Y0079917D01*
X0105515Y0079877D01*
X0105632Y0079833D01*
X0105747Y0079786D01*
X0105860Y0079735D01*
X0105972Y0079680D01*
X0106082Y0079622D01*
X0106190Y0079561D01*
X0106296Y0079496D01*
X0106400Y0079427D01*
X0106501Y0079356D01*
X0106601Y0079281D01*
X0106698Y0079203D01*
X0106792Y0079122D01*
X0106884Y0079038D01*
X0106973Y0078951D01*
X0107059Y0078861D01*
X0107142Y0078769D01*
X0107222Y0078674D01*
X0107300Y0078576D01*
X0107374Y0078476D01*
X0107445Y0078374D01*
X0107512Y0078270D01*
X0107576Y0078163D01*
X0107637Y0078054D01*
X0107694Y0077944D01*
X0107748Y0077832D01*
X0107798Y0077718D01*
X0107845Y0077603D01*
X0107887Y0077486D01*
X0107926Y0077368D01*
X0107962Y0077248D01*
X0107993Y0077128D01*
X0108020Y0077007D01*
X0108044Y0076885D01*
X0108064Y0076762D01*
X0108080Y0076638D01*
X0108092Y0076515D01*
X0108100Y0076391D01*
X0108104Y0076266D01*
X0108104Y0076142D01*
X0108100Y0076017D01*
X0108092Y0075893D01*
X0108080Y0075770D01*
X0108064Y0075646D01*
X0108044Y0075523D01*
X0108020Y0075401D01*
X0107993Y0075280D01*
X0107962Y0075160D01*
X0107926Y0075040D01*
X0107887Y0074922D01*
X0107845Y0074805D01*
X0107798Y0074690D01*
X0107748Y0074576D01*
X0107694Y0074464D01*
X0107637Y0074354D01*
X0107576Y0074245D01*
X0107512Y0074138D01*
X0107445Y0074034D01*
X0107374Y0073932D01*
X0107300Y0073832D01*
X0107222Y0073734D01*
X0107142Y0073639D01*
X0107059Y0073547D01*
X0106973Y0073457D01*
X0106884Y0073370D01*
X0106792Y0073286D01*
X0106698Y0073205D01*
X0106601Y0073127D01*
X0106501Y0073052D01*
X0106400Y0072981D01*
X0106296Y0072912D01*
X0106190Y0072847D01*
X0106082Y0072786D01*
X0105972Y0072728D01*
X0105860Y0072673D01*
X0105747Y0072622D01*
X0105632Y0072575D01*
X0105515Y0072531D01*
X0105397Y0072491D01*
X0105278Y0072455D01*
X0105158Y0072423D01*
X0105037Y0072394D01*
X0104915Y0072369D01*
X0104793Y0072349D01*
X0104669Y0072332D01*
X0104546Y0072319D01*
X0104422Y0072310D01*
X0104297Y0072305D01*
X0104173Y0072304D01*
X0104049Y0072307D01*
X0103924Y0072314D01*
X0103800Y0072325D01*
X0103677Y0072340D01*
X0103554Y0072359D01*
X0103432Y0072381D01*
X0103310Y0072408D01*
X0103190Y0072438D01*
X0103070Y0072472D01*
X0102952Y0072511D01*
X0102834Y0072552D01*
X0102719Y0072598D01*
X0102604Y0072647D01*
X0102492Y0072700D01*
X0102381Y0072756D01*
X0102272Y0072816D01*
X0102165Y0072880D01*
X0102060Y0072946D01*
X0101957Y0073016D01*
X0101857Y0073090D01*
X0101759Y0073166D01*
X0101663Y0073245D01*
X0101570Y0073328D01*
X0101479Y0073413D01*
X0101392Y0073502D01*
X0101307Y0073593D01*
X0101225Y0073687D01*
X0101147Y0073783D01*
X0101071Y0073882D01*
X0100998Y0073983D01*
X0100929Y0074086D01*
X0100863Y0074192D01*
X0100801Y0074299D01*
X0100742Y0074409D01*
X0100686Y0074520D01*
X0100634Y0074633D01*
X0100586Y0074748D01*
X0100542Y0074864D01*
X0100501Y0074981D01*
X0100464Y0075100D01*
X0100430Y0075220D01*
X0100401Y0075340D01*
X0100375Y0075462D01*
X0100353Y0075585D01*
X0100336Y0075708D01*
X0100322Y0075831D01*
X0100312Y0075955D01*
X0100306Y0076080D01*
X0100304Y0076204D01*
X0100204Y0072204D02*
X0108204Y0080204D01*
X0103904Y0100504D02*
X0103906Y0100628D01*
X0103912Y0100753D01*
X0103922Y0100877D01*
X0103936Y0101000D01*
X0103953Y0101123D01*
X0103975Y0101246D01*
X0104001Y0101368D01*
X0104030Y0101488D01*
X0104064Y0101608D01*
X0104101Y0101727D01*
X0104142Y0101844D01*
X0104186Y0101960D01*
X0104234Y0102075D01*
X0104286Y0102188D01*
X0104342Y0102299D01*
X0104401Y0102409D01*
X0104463Y0102516D01*
X0104529Y0102622D01*
X0104598Y0102725D01*
X0104671Y0102826D01*
X0104747Y0102925D01*
X0104825Y0103021D01*
X0104907Y0103115D01*
X0104992Y0103206D01*
X0105079Y0103295D01*
X0105170Y0103380D01*
X0105263Y0103463D01*
X0105359Y0103542D01*
X0105457Y0103618D01*
X0105557Y0103692D01*
X0105660Y0103762D01*
X0105765Y0103828D01*
X0105872Y0103892D01*
X0105981Y0103952D01*
X0106092Y0104008D01*
X0106204Y0104061D01*
X0106319Y0104110D01*
X0106434Y0104156D01*
X0106552Y0104197D01*
X0106670Y0104236D01*
X0106790Y0104270D01*
X0106910Y0104300D01*
X0107032Y0104327D01*
X0107154Y0104349D01*
X0107277Y0104368D01*
X0107400Y0104383D01*
X0107524Y0104394D01*
X0107649Y0104401D01*
X0107773Y0104404D01*
X0107897Y0104403D01*
X0108022Y0104398D01*
X0108146Y0104389D01*
X0108269Y0104376D01*
X0108393Y0104359D01*
X0108515Y0104339D01*
X0108637Y0104314D01*
X0108758Y0104285D01*
X0108878Y0104253D01*
X0108997Y0104217D01*
X0109115Y0104177D01*
X0109232Y0104133D01*
X0109347Y0104086D01*
X0109460Y0104035D01*
X0109572Y0103980D01*
X0109682Y0103922D01*
X0109790Y0103861D01*
X0109896Y0103796D01*
X0110000Y0103727D01*
X0110101Y0103656D01*
X0110201Y0103581D01*
X0110298Y0103503D01*
X0110392Y0103422D01*
X0110484Y0103338D01*
X0110573Y0103251D01*
X0110659Y0103161D01*
X0110742Y0103069D01*
X0110822Y0102974D01*
X0110900Y0102876D01*
X0110974Y0102776D01*
X0111045Y0102674D01*
X0111112Y0102570D01*
X0111176Y0102463D01*
X0111237Y0102354D01*
X0111294Y0102244D01*
X0111348Y0102132D01*
X0111398Y0102018D01*
X0111445Y0101903D01*
X0111487Y0101786D01*
X0111526Y0101668D01*
X0111562Y0101548D01*
X0111593Y0101428D01*
X0111620Y0101307D01*
X0111644Y0101185D01*
X0111664Y0101062D01*
X0111680Y0100938D01*
X0111692Y0100815D01*
X0111700Y0100691D01*
X0111704Y0100566D01*
X0111704Y0100442D01*
X0111700Y0100317D01*
X0111692Y0100193D01*
X0111680Y0100070D01*
X0111664Y0099946D01*
X0111644Y0099823D01*
X0111620Y0099701D01*
X0111593Y0099580D01*
X0111562Y0099460D01*
X0111526Y0099340D01*
X0111487Y0099222D01*
X0111445Y0099105D01*
X0111398Y0098990D01*
X0111348Y0098876D01*
X0111294Y0098764D01*
X0111237Y0098654D01*
X0111176Y0098545D01*
X0111112Y0098438D01*
X0111045Y0098334D01*
X0110974Y0098232D01*
X0110900Y0098132D01*
X0110822Y0098034D01*
X0110742Y0097939D01*
X0110659Y0097847D01*
X0110573Y0097757D01*
X0110484Y0097670D01*
X0110392Y0097586D01*
X0110298Y0097505D01*
X0110201Y0097427D01*
X0110101Y0097352D01*
X0110000Y0097281D01*
X0109896Y0097212D01*
X0109790Y0097147D01*
X0109682Y0097086D01*
X0109572Y0097028D01*
X0109460Y0096973D01*
X0109347Y0096922D01*
X0109232Y0096875D01*
X0109115Y0096831D01*
X0108997Y0096791D01*
X0108878Y0096755D01*
X0108758Y0096723D01*
X0108637Y0096694D01*
X0108515Y0096669D01*
X0108393Y0096649D01*
X0108269Y0096632D01*
X0108146Y0096619D01*
X0108022Y0096610D01*
X0107897Y0096605D01*
X0107773Y0096604D01*
X0107649Y0096607D01*
X0107524Y0096614D01*
X0107400Y0096625D01*
X0107277Y0096640D01*
X0107154Y0096659D01*
X0107032Y0096681D01*
X0106910Y0096708D01*
X0106790Y0096738D01*
X0106670Y0096772D01*
X0106552Y0096811D01*
X0106434Y0096852D01*
X0106319Y0096898D01*
X0106204Y0096947D01*
X0106092Y0097000D01*
X0105981Y0097056D01*
X0105872Y0097116D01*
X0105765Y0097180D01*
X0105660Y0097246D01*
X0105557Y0097316D01*
X0105457Y0097390D01*
X0105359Y0097466D01*
X0105263Y0097545D01*
X0105170Y0097628D01*
X0105079Y0097713D01*
X0104992Y0097802D01*
X0104907Y0097893D01*
X0104825Y0097987D01*
X0104747Y0098083D01*
X0104671Y0098182D01*
X0104598Y0098283D01*
X0104529Y0098386D01*
X0104463Y0098492D01*
X0104401Y0098599D01*
X0104342Y0098709D01*
X0104286Y0098820D01*
X0104234Y0098933D01*
X0104186Y0099048D01*
X0104142Y0099164D01*
X0104101Y0099281D01*
X0104064Y0099400D01*
X0104030Y0099520D01*
X0104001Y0099640D01*
X0103975Y0099762D01*
X0103953Y0099885D01*
X0103936Y0100008D01*
X0103922Y0100131D01*
X0103912Y0100255D01*
X0103906Y0100380D01*
X0103904Y0100504D01*
X0103804Y0096504D02*
X0111804Y0104504D01*
X0106604Y0105004D02*
X0106606Y0105128D01*
X0106612Y0105253D01*
X0106622Y0105377D01*
X0106636Y0105500D01*
X0106653Y0105623D01*
X0106675Y0105746D01*
X0106701Y0105868D01*
X0106730Y0105988D01*
X0106764Y0106108D01*
X0106801Y0106227D01*
X0106842Y0106344D01*
X0106886Y0106460D01*
X0106934Y0106575D01*
X0106986Y0106688D01*
X0107042Y0106799D01*
X0107101Y0106909D01*
X0107163Y0107016D01*
X0107229Y0107122D01*
X0107298Y0107225D01*
X0107371Y0107326D01*
X0107447Y0107425D01*
X0107525Y0107521D01*
X0107607Y0107615D01*
X0107692Y0107706D01*
X0107779Y0107795D01*
X0107870Y0107880D01*
X0107963Y0107963D01*
X0108059Y0108042D01*
X0108157Y0108118D01*
X0108257Y0108192D01*
X0108360Y0108262D01*
X0108465Y0108328D01*
X0108572Y0108392D01*
X0108681Y0108452D01*
X0108792Y0108508D01*
X0108904Y0108561D01*
X0109019Y0108610D01*
X0109134Y0108656D01*
X0109252Y0108697D01*
X0109370Y0108736D01*
X0109490Y0108770D01*
X0109610Y0108800D01*
X0109732Y0108827D01*
X0109854Y0108849D01*
X0109977Y0108868D01*
X0110100Y0108883D01*
X0110224Y0108894D01*
X0110349Y0108901D01*
X0110473Y0108904D01*
X0110597Y0108903D01*
X0110722Y0108898D01*
X0110846Y0108889D01*
X0110969Y0108876D01*
X0111093Y0108859D01*
X0111215Y0108839D01*
X0111337Y0108814D01*
X0111458Y0108785D01*
X0111578Y0108753D01*
X0111697Y0108717D01*
X0111815Y0108677D01*
X0111932Y0108633D01*
X0112047Y0108586D01*
X0112160Y0108535D01*
X0112272Y0108480D01*
X0112382Y0108422D01*
X0112490Y0108361D01*
X0112596Y0108296D01*
X0112700Y0108227D01*
X0112801Y0108156D01*
X0112901Y0108081D01*
X0112998Y0108003D01*
X0113092Y0107922D01*
X0113184Y0107838D01*
X0113273Y0107751D01*
X0113359Y0107661D01*
X0113442Y0107569D01*
X0113522Y0107474D01*
X0113600Y0107376D01*
X0113674Y0107276D01*
X0113745Y0107174D01*
X0113812Y0107070D01*
X0113876Y0106963D01*
X0113937Y0106854D01*
X0113994Y0106744D01*
X0114048Y0106632D01*
X0114098Y0106518D01*
X0114145Y0106403D01*
X0114187Y0106286D01*
X0114226Y0106168D01*
X0114262Y0106048D01*
X0114293Y0105928D01*
X0114320Y0105807D01*
X0114344Y0105685D01*
X0114364Y0105562D01*
X0114380Y0105438D01*
X0114392Y0105315D01*
X0114400Y0105191D01*
X0114404Y0105066D01*
X0114404Y0104942D01*
X0114400Y0104817D01*
X0114392Y0104693D01*
X0114380Y0104570D01*
X0114364Y0104446D01*
X0114344Y0104323D01*
X0114320Y0104201D01*
X0114293Y0104080D01*
X0114262Y0103960D01*
X0114226Y0103840D01*
X0114187Y0103722D01*
X0114145Y0103605D01*
X0114098Y0103490D01*
X0114048Y0103376D01*
X0113994Y0103264D01*
X0113937Y0103154D01*
X0113876Y0103045D01*
X0113812Y0102938D01*
X0113745Y0102834D01*
X0113674Y0102732D01*
X0113600Y0102632D01*
X0113522Y0102534D01*
X0113442Y0102439D01*
X0113359Y0102347D01*
X0113273Y0102257D01*
X0113184Y0102170D01*
X0113092Y0102086D01*
X0112998Y0102005D01*
X0112901Y0101927D01*
X0112801Y0101852D01*
X0112700Y0101781D01*
X0112596Y0101712D01*
X0112490Y0101647D01*
X0112382Y0101586D01*
X0112272Y0101528D01*
X0112160Y0101473D01*
X0112047Y0101422D01*
X0111932Y0101375D01*
X0111815Y0101331D01*
X0111697Y0101291D01*
X0111578Y0101255D01*
X0111458Y0101223D01*
X0111337Y0101194D01*
X0111215Y0101169D01*
X0111093Y0101149D01*
X0110969Y0101132D01*
X0110846Y0101119D01*
X0110722Y0101110D01*
X0110597Y0101105D01*
X0110473Y0101104D01*
X0110349Y0101107D01*
X0110224Y0101114D01*
X0110100Y0101125D01*
X0109977Y0101140D01*
X0109854Y0101159D01*
X0109732Y0101181D01*
X0109610Y0101208D01*
X0109490Y0101238D01*
X0109370Y0101272D01*
X0109252Y0101311D01*
X0109134Y0101352D01*
X0109019Y0101398D01*
X0108904Y0101447D01*
X0108792Y0101500D01*
X0108681Y0101556D01*
X0108572Y0101616D01*
X0108465Y0101680D01*
X0108360Y0101746D01*
X0108257Y0101816D01*
X0108157Y0101890D01*
X0108059Y0101966D01*
X0107963Y0102045D01*
X0107870Y0102128D01*
X0107779Y0102213D01*
X0107692Y0102302D01*
X0107607Y0102393D01*
X0107525Y0102487D01*
X0107447Y0102583D01*
X0107371Y0102682D01*
X0107298Y0102783D01*
X0107229Y0102886D01*
X0107163Y0102992D01*
X0107101Y0103099D01*
X0107042Y0103209D01*
X0106986Y0103320D01*
X0106934Y0103433D01*
X0106886Y0103548D01*
X0106842Y0103664D01*
X0106801Y0103781D01*
X0106764Y0103900D01*
X0106730Y0104020D01*
X0106701Y0104140D01*
X0106675Y0104262D01*
X0106653Y0104385D01*
X0106636Y0104508D01*
X0106622Y0104631D01*
X0106612Y0104755D01*
X0106606Y0104880D01*
X0106604Y0105004D01*
X0106504Y0101004D02*
X0114504Y0109004D01*
X0101204Y0105904D02*
X0101206Y0106028D01*
X0101212Y0106153D01*
X0101222Y0106277D01*
X0101236Y0106400D01*
X0101253Y0106523D01*
X0101275Y0106646D01*
X0101301Y0106768D01*
X0101330Y0106888D01*
X0101364Y0107008D01*
X0101401Y0107127D01*
X0101442Y0107244D01*
X0101486Y0107360D01*
X0101534Y0107475D01*
X0101586Y0107588D01*
X0101642Y0107699D01*
X0101701Y0107809D01*
X0101763Y0107916D01*
X0101829Y0108022D01*
X0101898Y0108125D01*
X0101971Y0108226D01*
X0102047Y0108325D01*
X0102125Y0108421D01*
X0102207Y0108515D01*
X0102292Y0108606D01*
X0102379Y0108695D01*
X0102470Y0108780D01*
X0102563Y0108863D01*
X0102659Y0108942D01*
X0102757Y0109018D01*
X0102857Y0109092D01*
X0102960Y0109162D01*
X0103065Y0109228D01*
X0103172Y0109292D01*
X0103281Y0109352D01*
X0103392Y0109408D01*
X0103504Y0109461D01*
X0103619Y0109510D01*
X0103734Y0109556D01*
X0103852Y0109597D01*
X0103970Y0109636D01*
X0104090Y0109670D01*
X0104210Y0109700D01*
X0104332Y0109727D01*
X0104454Y0109749D01*
X0104577Y0109768D01*
X0104700Y0109783D01*
X0104824Y0109794D01*
X0104949Y0109801D01*
X0105073Y0109804D01*
X0105197Y0109803D01*
X0105322Y0109798D01*
X0105446Y0109789D01*
X0105569Y0109776D01*
X0105693Y0109759D01*
X0105815Y0109739D01*
X0105937Y0109714D01*
X0106058Y0109685D01*
X0106178Y0109653D01*
X0106297Y0109617D01*
X0106415Y0109577D01*
X0106532Y0109533D01*
X0106647Y0109486D01*
X0106760Y0109435D01*
X0106872Y0109380D01*
X0106982Y0109322D01*
X0107090Y0109261D01*
X0107196Y0109196D01*
X0107300Y0109127D01*
X0107401Y0109056D01*
X0107501Y0108981D01*
X0107598Y0108903D01*
X0107692Y0108822D01*
X0107784Y0108738D01*
X0107873Y0108651D01*
X0107959Y0108561D01*
X0108042Y0108469D01*
X0108122Y0108374D01*
X0108200Y0108276D01*
X0108274Y0108176D01*
X0108345Y0108074D01*
X0108412Y0107970D01*
X0108476Y0107863D01*
X0108537Y0107754D01*
X0108594Y0107644D01*
X0108648Y0107532D01*
X0108698Y0107418D01*
X0108745Y0107303D01*
X0108787Y0107186D01*
X0108826Y0107068D01*
X0108862Y0106948D01*
X0108893Y0106828D01*
X0108920Y0106707D01*
X0108944Y0106585D01*
X0108964Y0106462D01*
X0108980Y0106338D01*
X0108992Y0106215D01*
X0109000Y0106091D01*
X0109004Y0105966D01*
X0109004Y0105842D01*
X0109000Y0105717D01*
X0108992Y0105593D01*
X0108980Y0105470D01*
X0108964Y0105346D01*
X0108944Y0105223D01*
X0108920Y0105101D01*
X0108893Y0104980D01*
X0108862Y0104860D01*
X0108826Y0104740D01*
X0108787Y0104622D01*
X0108745Y0104505D01*
X0108698Y0104390D01*
X0108648Y0104276D01*
X0108594Y0104164D01*
X0108537Y0104054D01*
X0108476Y0103945D01*
X0108412Y0103838D01*
X0108345Y0103734D01*
X0108274Y0103632D01*
X0108200Y0103532D01*
X0108122Y0103434D01*
X0108042Y0103339D01*
X0107959Y0103247D01*
X0107873Y0103157D01*
X0107784Y0103070D01*
X0107692Y0102986D01*
X0107598Y0102905D01*
X0107501Y0102827D01*
X0107401Y0102752D01*
X0107300Y0102681D01*
X0107196Y0102612D01*
X0107090Y0102547D01*
X0106982Y0102486D01*
X0106872Y0102428D01*
X0106760Y0102373D01*
X0106647Y0102322D01*
X0106532Y0102275D01*
X0106415Y0102231D01*
X0106297Y0102191D01*
X0106178Y0102155D01*
X0106058Y0102123D01*
X0105937Y0102094D01*
X0105815Y0102069D01*
X0105693Y0102049D01*
X0105569Y0102032D01*
X0105446Y0102019D01*
X0105322Y0102010D01*
X0105197Y0102005D01*
X0105073Y0102004D01*
X0104949Y0102007D01*
X0104824Y0102014D01*
X0104700Y0102025D01*
X0104577Y0102040D01*
X0104454Y0102059D01*
X0104332Y0102081D01*
X0104210Y0102108D01*
X0104090Y0102138D01*
X0103970Y0102172D01*
X0103852Y0102211D01*
X0103734Y0102252D01*
X0103619Y0102298D01*
X0103504Y0102347D01*
X0103392Y0102400D01*
X0103281Y0102456D01*
X0103172Y0102516D01*
X0103065Y0102580D01*
X0102960Y0102646D01*
X0102857Y0102716D01*
X0102757Y0102790D01*
X0102659Y0102866D01*
X0102563Y0102945D01*
X0102470Y0103028D01*
X0102379Y0103113D01*
X0102292Y0103202D01*
X0102207Y0103293D01*
X0102125Y0103387D01*
X0102047Y0103483D01*
X0101971Y0103582D01*
X0101898Y0103683D01*
X0101829Y0103786D01*
X0101763Y0103892D01*
X0101701Y0103999D01*
X0101642Y0104109D01*
X0101586Y0104220D01*
X0101534Y0104333D01*
X0101486Y0104448D01*
X0101442Y0104564D01*
X0101401Y0104681D01*
X0101364Y0104800D01*
X0101330Y0104920D01*
X0101301Y0105040D01*
X0101275Y0105162D01*
X0101253Y0105285D01*
X0101236Y0105408D01*
X0101222Y0105531D01*
X0101212Y0105655D01*
X0101206Y0105780D01*
X0101204Y0105904D01*
X0101104Y0101904D02*
X0109104Y0109904D01*
X0111104Y0118504D02*
X0111106Y0118628D01*
X0111112Y0118753D01*
X0111122Y0118877D01*
X0111136Y0119000D01*
X0111153Y0119123D01*
X0111175Y0119246D01*
X0111201Y0119368D01*
X0111230Y0119488D01*
X0111264Y0119608D01*
X0111301Y0119727D01*
X0111342Y0119844D01*
X0111386Y0119960D01*
X0111434Y0120075D01*
X0111486Y0120188D01*
X0111542Y0120299D01*
X0111601Y0120409D01*
X0111663Y0120516D01*
X0111729Y0120622D01*
X0111798Y0120725D01*
X0111871Y0120826D01*
X0111947Y0120925D01*
X0112025Y0121021D01*
X0112107Y0121115D01*
X0112192Y0121206D01*
X0112279Y0121295D01*
X0112370Y0121380D01*
X0112463Y0121463D01*
X0112559Y0121542D01*
X0112657Y0121618D01*
X0112757Y0121692D01*
X0112860Y0121762D01*
X0112965Y0121828D01*
X0113072Y0121892D01*
X0113181Y0121952D01*
X0113292Y0122008D01*
X0113404Y0122061D01*
X0113519Y0122110D01*
X0113634Y0122156D01*
X0113752Y0122197D01*
X0113870Y0122236D01*
X0113990Y0122270D01*
X0114110Y0122300D01*
X0114232Y0122327D01*
X0114354Y0122349D01*
X0114477Y0122368D01*
X0114600Y0122383D01*
X0114724Y0122394D01*
X0114849Y0122401D01*
X0114973Y0122404D01*
X0115097Y0122403D01*
X0115222Y0122398D01*
X0115346Y0122389D01*
X0115469Y0122376D01*
X0115593Y0122359D01*
X0115715Y0122339D01*
X0115837Y0122314D01*
X0115958Y0122285D01*
X0116078Y0122253D01*
X0116197Y0122217D01*
X0116315Y0122177D01*
X0116432Y0122133D01*
X0116547Y0122086D01*
X0116660Y0122035D01*
X0116772Y0121980D01*
X0116882Y0121922D01*
X0116990Y0121861D01*
X0117096Y0121796D01*
X0117200Y0121727D01*
X0117301Y0121656D01*
X0117401Y0121581D01*
X0117498Y0121503D01*
X0117592Y0121422D01*
X0117684Y0121338D01*
X0117773Y0121251D01*
X0117859Y0121161D01*
X0117942Y0121069D01*
X0118022Y0120974D01*
X0118100Y0120876D01*
X0118174Y0120776D01*
X0118245Y0120674D01*
X0118312Y0120570D01*
X0118376Y0120463D01*
X0118437Y0120354D01*
X0118494Y0120244D01*
X0118548Y0120132D01*
X0118598Y0120018D01*
X0118645Y0119903D01*
X0118687Y0119786D01*
X0118726Y0119668D01*
X0118762Y0119548D01*
X0118793Y0119428D01*
X0118820Y0119307D01*
X0118844Y0119185D01*
X0118864Y0119062D01*
X0118880Y0118938D01*
X0118892Y0118815D01*
X0118900Y0118691D01*
X0118904Y0118566D01*
X0118904Y0118442D01*
X0118900Y0118317D01*
X0118892Y0118193D01*
X0118880Y0118070D01*
X0118864Y0117946D01*
X0118844Y0117823D01*
X0118820Y0117701D01*
X0118793Y0117580D01*
X0118762Y0117460D01*
X0118726Y0117340D01*
X0118687Y0117222D01*
X0118645Y0117105D01*
X0118598Y0116990D01*
X0118548Y0116876D01*
X0118494Y0116764D01*
X0118437Y0116654D01*
X0118376Y0116545D01*
X0118312Y0116438D01*
X0118245Y0116334D01*
X0118174Y0116232D01*
X0118100Y0116132D01*
X0118022Y0116034D01*
X0117942Y0115939D01*
X0117859Y0115847D01*
X0117773Y0115757D01*
X0117684Y0115670D01*
X0117592Y0115586D01*
X0117498Y0115505D01*
X0117401Y0115427D01*
X0117301Y0115352D01*
X0117200Y0115281D01*
X0117096Y0115212D01*
X0116990Y0115147D01*
X0116882Y0115086D01*
X0116772Y0115028D01*
X0116660Y0114973D01*
X0116547Y0114922D01*
X0116432Y0114875D01*
X0116315Y0114831D01*
X0116197Y0114791D01*
X0116078Y0114755D01*
X0115958Y0114723D01*
X0115837Y0114694D01*
X0115715Y0114669D01*
X0115593Y0114649D01*
X0115469Y0114632D01*
X0115346Y0114619D01*
X0115222Y0114610D01*
X0115097Y0114605D01*
X0114973Y0114604D01*
X0114849Y0114607D01*
X0114724Y0114614D01*
X0114600Y0114625D01*
X0114477Y0114640D01*
X0114354Y0114659D01*
X0114232Y0114681D01*
X0114110Y0114708D01*
X0113990Y0114738D01*
X0113870Y0114772D01*
X0113752Y0114811D01*
X0113634Y0114852D01*
X0113519Y0114898D01*
X0113404Y0114947D01*
X0113292Y0115000D01*
X0113181Y0115056D01*
X0113072Y0115116D01*
X0112965Y0115180D01*
X0112860Y0115246D01*
X0112757Y0115316D01*
X0112657Y0115390D01*
X0112559Y0115466D01*
X0112463Y0115545D01*
X0112370Y0115628D01*
X0112279Y0115713D01*
X0112192Y0115802D01*
X0112107Y0115893D01*
X0112025Y0115987D01*
X0111947Y0116083D01*
X0111871Y0116182D01*
X0111798Y0116283D01*
X0111729Y0116386D01*
X0111663Y0116492D01*
X0111601Y0116599D01*
X0111542Y0116709D01*
X0111486Y0116820D01*
X0111434Y0116933D01*
X0111386Y0117048D01*
X0111342Y0117164D01*
X0111301Y0117281D01*
X0111264Y0117400D01*
X0111230Y0117520D01*
X0111201Y0117640D01*
X0111175Y0117762D01*
X0111153Y0117885D01*
X0111136Y0118008D01*
X0111122Y0118131D01*
X0111112Y0118255D01*
X0111106Y0118380D01*
X0111104Y0118504D01*
X0111004Y0114504D02*
X0119004Y0122504D01*
X0103904Y0134704D02*
X0103906Y0134828D01*
X0103912Y0134953D01*
X0103922Y0135077D01*
X0103936Y0135200D01*
X0103953Y0135323D01*
X0103975Y0135446D01*
X0104001Y0135568D01*
X0104030Y0135688D01*
X0104064Y0135808D01*
X0104101Y0135927D01*
X0104142Y0136044D01*
X0104186Y0136160D01*
X0104234Y0136275D01*
X0104286Y0136388D01*
X0104342Y0136499D01*
X0104401Y0136609D01*
X0104463Y0136716D01*
X0104529Y0136822D01*
X0104598Y0136925D01*
X0104671Y0137026D01*
X0104747Y0137125D01*
X0104825Y0137221D01*
X0104907Y0137315D01*
X0104992Y0137406D01*
X0105079Y0137495D01*
X0105170Y0137580D01*
X0105263Y0137663D01*
X0105359Y0137742D01*
X0105457Y0137818D01*
X0105557Y0137892D01*
X0105660Y0137962D01*
X0105765Y0138028D01*
X0105872Y0138092D01*
X0105981Y0138152D01*
X0106092Y0138208D01*
X0106204Y0138261D01*
X0106319Y0138310D01*
X0106434Y0138356D01*
X0106552Y0138397D01*
X0106670Y0138436D01*
X0106790Y0138470D01*
X0106910Y0138500D01*
X0107032Y0138527D01*
X0107154Y0138549D01*
X0107277Y0138568D01*
X0107400Y0138583D01*
X0107524Y0138594D01*
X0107649Y0138601D01*
X0107773Y0138604D01*
X0107897Y0138603D01*
X0108022Y0138598D01*
X0108146Y0138589D01*
X0108269Y0138576D01*
X0108393Y0138559D01*
X0108515Y0138539D01*
X0108637Y0138514D01*
X0108758Y0138485D01*
X0108878Y0138453D01*
X0108997Y0138417D01*
X0109115Y0138377D01*
X0109232Y0138333D01*
X0109347Y0138286D01*
X0109460Y0138235D01*
X0109572Y0138180D01*
X0109682Y0138122D01*
X0109790Y0138061D01*
X0109896Y0137996D01*
X0110000Y0137927D01*
X0110101Y0137856D01*
X0110201Y0137781D01*
X0110298Y0137703D01*
X0110392Y0137622D01*
X0110484Y0137538D01*
X0110573Y0137451D01*
X0110659Y0137361D01*
X0110742Y0137269D01*
X0110822Y0137174D01*
X0110900Y0137076D01*
X0110974Y0136976D01*
X0111045Y0136874D01*
X0111112Y0136770D01*
X0111176Y0136663D01*
X0111237Y0136554D01*
X0111294Y0136444D01*
X0111348Y0136332D01*
X0111398Y0136218D01*
X0111445Y0136103D01*
X0111487Y0135986D01*
X0111526Y0135868D01*
X0111562Y0135748D01*
X0111593Y0135628D01*
X0111620Y0135507D01*
X0111644Y0135385D01*
X0111664Y0135262D01*
X0111680Y0135138D01*
X0111692Y0135015D01*
X0111700Y0134891D01*
X0111704Y0134766D01*
X0111704Y0134642D01*
X0111700Y0134517D01*
X0111692Y0134393D01*
X0111680Y0134270D01*
X0111664Y0134146D01*
X0111644Y0134023D01*
X0111620Y0133901D01*
X0111593Y0133780D01*
X0111562Y0133660D01*
X0111526Y0133540D01*
X0111487Y0133422D01*
X0111445Y0133305D01*
X0111398Y0133190D01*
X0111348Y0133076D01*
X0111294Y0132964D01*
X0111237Y0132854D01*
X0111176Y0132745D01*
X0111112Y0132638D01*
X0111045Y0132534D01*
X0110974Y0132432D01*
X0110900Y0132332D01*
X0110822Y0132234D01*
X0110742Y0132139D01*
X0110659Y0132047D01*
X0110573Y0131957D01*
X0110484Y0131870D01*
X0110392Y0131786D01*
X0110298Y0131705D01*
X0110201Y0131627D01*
X0110101Y0131552D01*
X0110000Y0131481D01*
X0109896Y0131412D01*
X0109790Y0131347D01*
X0109682Y0131286D01*
X0109572Y0131228D01*
X0109460Y0131173D01*
X0109347Y0131122D01*
X0109232Y0131075D01*
X0109115Y0131031D01*
X0108997Y0130991D01*
X0108878Y0130955D01*
X0108758Y0130923D01*
X0108637Y0130894D01*
X0108515Y0130869D01*
X0108393Y0130849D01*
X0108269Y0130832D01*
X0108146Y0130819D01*
X0108022Y0130810D01*
X0107897Y0130805D01*
X0107773Y0130804D01*
X0107649Y0130807D01*
X0107524Y0130814D01*
X0107400Y0130825D01*
X0107277Y0130840D01*
X0107154Y0130859D01*
X0107032Y0130881D01*
X0106910Y0130908D01*
X0106790Y0130938D01*
X0106670Y0130972D01*
X0106552Y0131011D01*
X0106434Y0131052D01*
X0106319Y0131098D01*
X0106204Y0131147D01*
X0106092Y0131200D01*
X0105981Y0131256D01*
X0105872Y0131316D01*
X0105765Y0131380D01*
X0105660Y0131446D01*
X0105557Y0131516D01*
X0105457Y0131590D01*
X0105359Y0131666D01*
X0105263Y0131745D01*
X0105170Y0131828D01*
X0105079Y0131913D01*
X0104992Y0132002D01*
X0104907Y0132093D01*
X0104825Y0132187D01*
X0104747Y0132283D01*
X0104671Y0132382D01*
X0104598Y0132483D01*
X0104529Y0132586D01*
X0104463Y0132692D01*
X0104401Y0132799D01*
X0104342Y0132909D01*
X0104286Y0133020D01*
X0104234Y0133133D01*
X0104186Y0133248D01*
X0104142Y0133364D01*
X0104101Y0133481D01*
X0104064Y0133600D01*
X0104030Y0133720D01*
X0104001Y0133840D01*
X0103975Y0133962D01*
X0103953Y0134085D01*
X0103936Y0134208D01*
X0103922Y0134331D01*
X0103912Y0134455D01*
X0103906Y0134580D01*
X0103904Y0134704D01*
X0103804Y0130704D02*
X0111804Y0138704D01*
X0117404Y0147304D02*
X0117406Y0147428D01*
X0117412Y0147553D01*
X0117422Y0147677D01*
X0117436Y0147800D01*
X0117453Y0147923D01*
X0117475Y0148046D01*
X0117501Y0148168D01*
X0117530Y0148288D01*
X0117564Y0148408D01*
X0117601Y0148527D01*
X0117642Y0148644D01*
X0117686Y0148760D01*
X0117734Y0148875D01*
X0117786Y0148988D01*
X0117842Y0149099D01*
X0117901Y0149209D01*
X0117963Y0149316D01*
X0118029Y0149422D01*
X0118098Y0149525D01*
X0118171Y0149626D01*
X0118247Y0149725D01*
X0118325Y0149821D01*
X0118407Y0149915D01*
X0118492Y0150006D01*
X0118579Y0150095D01*
X0118670Y0150180D01*
X0118763Y0150263D01*
X0118859Y0150342D01*
X0118957Y0150418D01*
X0119057Y0150492D01*
X0119160Y0150562D01*
X0119265Y0150628D01*
X0119372Y0150692D01*
X0119481Y0150752D01*
X0119592Y0150808D01*
X0119704Y0150861D01*
X0119819Y0150910D01*
X0119934Y0150956D01*
X0120052Y0150997D01*
X0120170Y0151036D01*
X0120290Y0151070D01*
X0120410Y0151100D01*
X0120532Y0151127D01*
X0120654Y0151149D01*
X0120777Y0151168D01*
X0120900Y0151183D01*
X0121024Y0151194D01*
X0121149Y0151201D01*
X0121273Y0151204D01*
X0121397Y0151203D01*
X0121522Y0151198D01*
X0121646Y0151189D01*
X0121769Y0151176D01*
X0121893Y0151159D01*
X0122015Y0151139D01*
X0122137Y0151114D01*
X0122258Y0151085D01*
X0122378Y0151053D01*
X0122497Y0151017D01*
X0122615Y0150977D01*
X0122732Y0150933D01*
X0122847Y0150886D01*
X0122960Y0150835D01*
X0123072Y0150780D01*
X0123182Y0150722D01*
X0123290Y0150661D01*
X0123396Y0150596D01*
X0123500Y0150527D01*
X0123601Y0150456D01*
X0123701Y0150381D01*
X0123798Y0150303D01*
X0123892Y0150222D01*
X0123984Y0150138D01*
X0124073Y0150051D01*
X0124159Y0149961D01*
X0124242Y0149869D01*
X0124322Y0149774D01*
X0124400Y0149676D01*
X0124474Y0149576D01*
X0124545Y0149474D01*
X0124612Y0149370D01*
X0124676Y0149263D01*
X0124737Y0149154D01*
X0124794Y0149044D01*
X0124848Y0148932D01*
X0124898Y0148818D01*
X0124945Y0148703D01*
X0124987Y0148586D01*
X0125026Y0148468D01*
X0125062Y0148348D01*
X0125093Y0148228D01*
X0125120Y0148107D01*
X0125144Y0147985D01*
X0125164Y0147862D01*
X0125180Y0147738D01*
X0125192Y0147615D01*
X0125200Y0147491D01*
X0125204Y0147366D01*
X0125204Y0147242D01*
X0125200Y0147117D01*
X0125192Y0146993D01*
X0125180Y0146870D01*
X0125164Y0146746D01*
X0125144Y0146623D01*
X0125120Y0146501D01*
X0125093Y0146380D01*
X0125062Y0146260D01*
X0125026Y0146140D01*
X0124987Y0146022D01*
X0124945Y0145905D01*
X0124898Y0145790D01*
X0124848Y0145676D01*
X0124794Y0145564D01*
X0124737Y0145454D01*
X0124676Y0145345D01*
X0124612Y0145238D01*
X0124545Y0145134D01*
X0124474Y0145032D01*
X0124400Y0144932D01*
X0124322Y0144834D01*
X0124242Y0144739D01*
X0124159Y0144647D01*
X0124073Y0144557D01*
X0123984Y0144470D01*
X0123892Y0144386D01*
X0123798Y0144305D01*
X0123701Y0144227D01*
X0123601Y0144152D01*
X0123500Y0144081D01*
X0123396Y0144012D01*
X0123290Y0143947D01*
X0123182Y0143886D01*
X0123072Y0143828D01*
X0122960Y0143773D01*
X0122847Y0143722D01*
X0122732Y0143675D01*
X0122615Y0143631D01*
X0122497Y0143591D01*
X0122378Y0143555D01*
X0122258Y0143523D01*
X0122137Y0143494D01*
X0122015Y0143469D01*
X0121893Y0143449D01*
X0121769Y0143432D01*
X0121646Y0143419D01*
X0121522Y0143410D01*
X0121397Y0143405D01*
X0121273Y0143404D01*
X0121149Y0143407D01*
X0121024Y0143414D01*
X0120900Y0143425D01*
X0120777Y0143440D01*
X0120654Y0143459D01*
X0120532Y0143481D01*
X0120410Y0143508D01*
X0120290Y0143538D01*
X0120170Y0143572D01*
X0120052Y0143611D01*
X0119934Y0143652D01*
X0119819Y0143698D01*
X0119704Y0143747D01*
X0119592Y0143800D01*
X0119481Y0143856D01*
X0119372Y0143916D01*
X0119265Y0143980D01*
X0119160Y0144046D01*
X0119057Y0144116D01*
X0118957Y0144190D01*
X0118859Y0144266D01*
X0118763Y0144345D01*
X0118670Y0144428D01*
X0118579Y0144513D01*
X0118492Y0144602D01*
X0118407Y0144693D01*
X0118325Y0144787D01*
X0118247Y0144883D01*
X0118171Y0144982D01*
X0118098Y0145083D01*
X0118029Y0145186D01*
X0117963Y0145292D01*
X0117901Y0145399D01*
X0117842Y0145509D01*
X0117786Y0145620D01*
X0117734Y0145733D01*
X0117686Y0145848D01*
X0117642Y0145964D01*
X0117601Y0146081D01*
X0117564Y0146200D01*
X0117530Y0146320D01*
X0117501Y0146440D01*
X0117475Y0146562D01*
X0117453Y0146685D01*
X0117436Y0146808D01*
X0117422Y0146931D01*
X0117412Y0147055D01*
X0117406Y0147180D01*
X0117404Y0147304D01*
X0117304Y0143304D02*
X0125304Y0151304D01*
X0129104Y0141004D02*
X0129106Y0141128D01*
X0129112Y0141253D01*
X0129122Y0141377D01*
X0129136Y0141500D01*
X0129153Y0141623D01*
X0129175Y0141746D01*
X0129201Y0141868D01*
X0129230Y0141988D01*
X0129264Y0142108D01*
X0129301Y0142227D01*
X0129342Y0142344D01*
X0129386Y0142460D01*
X0129434Y0142575D01*
X0129486Y0142688D01*
X0129542Y0142799D01*
X0129601Y0142909D01*
X0129663Y0143016D01*
X0129729Y0143122D01*
X0129798Y0143225D01*
X0129871Y0143326D01*
X0129947Y0143425D01*
X0130025Y0143521D01*
X0130107Y0143615D01*
X0130192Y0143706D01*
X0130279Y0143795D01*
X0130370Y0143880D01*
X0130463Y0143963D01*
X0130559Y0144042D01*
X0130657Y0144118D01*
X0130757Y0144192D01*
X0130860Y0144262D01*
X0130965Y0144328D01*
X0131072Y0144392D01*
X0131181Y0144452D01*
X0131292Y0144508D01*
X0131404Y0144561D01*
X0131519Y0144610D01*
X0131634Y0144656D01*
X0131752Y0144697D01*
X0131870Y0144736D01*
X0131990Y0144770D01*
X0132110Y0144800D01*
X0132232Y0144827D01*
X0132354Y0144849D01*
X0132477Y0144868D01*
X0132600Y0144883D01*
X0132724Y0144894D01*
X0132849Y0144901D01*
X0132973Y0144904D01*
X0133097Y0144903D01*
X0133222Y0144898D01*
X0133346Y0144889D01*
X0133469Y0144876D01*
X0133593Y0144859D01*
X0133715Y0144839D01*
X0133837Y0144814D01*
X0133958Y0144785D01*
X0134078Y0144753D01*
X0134197Y0144717D01*
X0134315Y0144677D01*
X0134432Y0144633D01*
X0134547Y0144586D01*
X0134660Y0144535D01*
X0134772Y0144480D01*
X0134882Y0144422D01*
X0134990Y0144361D01*
X0135096Y0144296D01*
X0135200Y0144227D01*
X0135301Y0144156D01*
X0135401Y0144081D01*
X0135498Y0144003D01*
X0135592Y0143922D01*
X0135684Y0143838D01*
X0135773Y0143751D01*
X0135859Y0143661D01*
X0135942Y0143569D01*
X0136022Y0143474D01*
X0136100Y0143376D01*
X0136174Y0143276D01*
X0136245Y0143174D01*
X0136312Y0143070D01*
X0136376Y0142963D01*
X0136437Y0142854D01*
X0136494Y0142744D01*
X0136548Y0142632D01*
X0136598Y0142518D01*
X0136645Y0142403D01*
X0136687Y0142286D01*
X0136726Y0142168D01*
X0136762Y0142048D01*
X0136793Y0141928D01*
X0136820Y0141807D01*
X0136844Y0141685D01*
X0136864Y0141562D01*
X0136880Y0141438D01*
X0136892Y0141315D01*
X0136900Y0141191D01*
X0136904Y0141066D01*
X0136904Y0140942D01*
X0136900Y0140817D01*
X0136892Y0140693D01*
X0136880Y0140570D01*
X0136864Y0140446D01*
X0136844Y0140323D01*
X0136820Y0140201D01*
X0136793Y0140080D01*
X0136762Y0139960D01*
X0136726Y0139840D01*
X0136687Y0139722D01*
X0136645Y0139605D01*
X0136598Y0139490D01*
X0136548Y0139376D01*
X0136494Y0139264D01*
X0136437Y0139154D01*
X0136376Y0139045D01*
X0136312Y0138938D01*
X0136245Y0138834D01*
X0136174Y0138732D01*
X0136100Y0138632D01*
X0136022Y0138534D01*
X0135942Y0138439D01*
X0135859Y0138347D01*
X0135773Y0138257D01*
X0135684Y0138170D01*
X0135592Y0138086D01*
X0135498Y0138005D01*
X0135401Y0137927D01*
X0135301Y0137852D01*
X0135200Y0137781D01*
X0135096Y0137712D01*
X0134990Y0137647D01*
X0134882Y0137586D01*
X0134772Y0137528D01*
X0134660Y0137473D01*
X0134547Y0137422D01*
X0134432Y0137375D01*
X0134315Y0137331D01*
X0134197Y0137291D01*
X0134078Y0137255D01*
X0133958Y0137223D01*
X0133837Y0137194D01*
X0133715Y0137169D01*
X0133593Y0137149D01*
X0133469Y0137132D01*
X0133346Y0137119D01*
X0133222Y0137110D01*
X0133097Y0137105D01*
X0132973Y0137104D01*
X0132849Y0137107D01*
X0132724Y0137114D01*
X0132600Y0137125D01*
X0132477Y0137140D01*
X0132354Y0137159D01*
X0132232Y0137181D01*
X0132110Y0137208D01*
X0131990Y0137238D01*
X0131870Y0137272D01*
X0131752Y0137311D01*
X0131634Y0137352D01*
X0131519Y0137398D01*
X0131404Y0137447D01*
X0131292Y0137500D01*
X0131181Y0137556D01*
X0131072Y0137616D01*
X0130965Y0137680D01*
X0130860Y0137746D01*
X0130757Y0137816D01*
X0130657Y0137890D01*
X0130559Y0137966D01*
X0130463Y0138045D01*
X0130370Y0138128D01*
X0130279Y0138213D01*
X0130192Y0138302D01*
X0130107Y0138393D01*
X0130025Y0138487D01*
X0129947Y0138583D01*
X0129871Y0138682D01*
X0129798Y0138783D01*
X0129729Y0138886D01*
X0129663Y0138992D01*
X0129601Y0139099D01*
X0129542Y0139209D01*
X0129486Y0139320D01*
X0129434Y0139433D01*
X0129386Y0139548D01*
X0129342Y0139664D01*
X0129301Y0139781D01*
X0129264Y0139900D01*
X0129230Y0140020D01*
X0129201Y0140140D01*
X0129175Y0140262D01*
X0129153Y0140385D01*
X0129136Y0140508D01*
X0129122Y0140631D01*
X0129112Y0140755D01*
X0129106Y0140880D01*
X0129104Y0141004D01*
X0129004Y0137004D02*
X0137004Y0145004D01*
X0138104Y0159004D02*
X0138106Y0159128D01*
X0138112Y0159253D01*
X0138122Y0159377D01*
X0138136Y0159500D01*
X0138153Y0159623D01*
X0138175Y0159746D01*
X0138201Y0159868D01*
X0138230Y0159988D01*
X0138264Y0160108D01*
X0138301Y0160227D01*
X0138342Y0160344D01*
X0138386Y0160460D01*
X0138434Y0160575D01*
X0138486Y0160688D01*
X0138542Y0160799D01*
X0138601Y0160909D01*
X0138663Y0161016D01*
X0138729Y0161122D01*
X0138798Y0161225D01*
X0138871Y0161326D01*
X0138947Y0161425D01*
X0139025Y0161521D01*
X0139107Y0161615D01*
X0139192Y0161706D01*
X0139279Y0161795D01*
X0139370Y0161880D01*
X0139463Y0161963D01*
X0139559Y0162042D01*
X0139657Y0162118D01*
X0139757Y0162192D01*
X0139860Y0162262D01*
X0139965Y0162328D01*
X0140072Y0162392D01*
X0140181Y0162452D01*
X0140292Y0162508D01*
X0140404Y0162561D01*
X0140519Y0162610D01*
X0140634Y0162656D01*
X0140752Y0162697D01*
X0140870Y0162736D01*
X0140990Y0162770D01*
X0141110Y0162800D01*
X0141232Y0162827D01*
X0141354Y0162849D01*
X0141477Y0162868D01*
X0141600Y0162883D01*
X0141724Y0162894D01*
X0141849Y0162901D01*
X0141973Y0162904D01*
X0142097Y0162903D01*
X0142222Y0162898D01*
X0142346Y0162889D01*
X0142469Y0162876D01*
X0142593Y0162859D01*
X0142715Y0162839D01*
X0142837Y0162814D01*
X0142958Y0162785D01*
X0143078Y0162753D01*
X0143197Y0162717D01*
X0143315Y0162677D01*
X0143432Y0162633D01*
X0143547Y0162586D01*
X0143660Y0162535D01*
X0143772Y0162480D01*
X0143882Y0162422D01*
X0143990Y0162361D01*
X0144096Y0162296D01*
X0144200Y0162227D01*
X0144301Y0162156D01*
X0144401Y0162081D01*
X0144498Y0162003D01*
X0144592Y0161922D01*
X0144684Y0161838D01*
X0144773Y0161751D01*
X0144859Y0161661D01*
X0144942Y0161569D01*
X0145022Y0161474D01*
X0145100Y0161376D01*
X0145174Y0161276D01*
X0145245Y0161174D01*
X0145312Y0161070D01*
X0145376Y0160963D01*
X0145437Y0160854D01*
X0145494Y0160744D01*
X0145548Y0160632D01*
X0145598Y0160518D01*
X0145645Y0160403D01*
X0145687Y0160286D01*
X0145726Y0160168D01*
X0145762Y0160048D01*
X0145793Y0159928D01*
X0145820Y0159807D01*
X0145844Y0159685D01*
X0145864Y0159562D01*
X0145880Y0159438D01*
X0145892Y0159315D01*
X0145900Y0159191D01*
X0145904Y0159066D01*
X0145904Y0158942D01*
X0145900Y0158817D01*
X0145892Y0158693D01*
X0145880Y0158570D01*
X0145864Y0158446D01*
X0145844Y0158323D01*
X0145820Y0158201D01*
X0145793Y0158080D01*
X0145762Y0157960D01*
X0145726Y0157840D01*
X0145687Y0157722D01*
X0145645Y0157605D01*
X0145598Y0157490D01*
X0145548Y0157376D01*
X0145494Y0157264D01*
X0145437Y0157154D01*
X0145376Y0157045D01*
X0145312Y0156938D01*
X0145245Y0156834D01*
X0145174Y0156732D01*
X0145100Y0156632D01*
X0145022Y0156534D01*
X0144942Y0156439D01*
X0144859Y0156347D01*
X0144773Y0156257D01*
X0144684Y0156170D01*
X0144592Y0156086D01*
X0144498Y0156005D01*
X0144401Y0155927D01*
X0144301Y0155852D01*
X0144200Y0155781D01*
X0144096Y0155712D01*
X0143990Y0155647D01*
X0143882Y0155586D01*
X0143772Y0155528D01*
X0143660Y0155473D01*
X0143547Y0155422D01*
X0143432Y0155375D01*
X0143315Y0155331D01*
X0143197Y0155291D01*
X0143078Y0155255D01*
X0142958Y0155223D01*
X0142837Y0155194D01*
X0142715Y0155169D01*
X0142593Y0155149D01*
X0142469Y0155132D01*
X0142346Y0155119D01*
X0142222Y0155110D01*
X0142097Y0155105D01*
X0141973Y0155104D01*
X0141849Y0155107D01*
X0141724Y0155114D01*
X0141600Y0155125D01*
X0141477Y0155140D01*
X0141354Y0155159D01*
X0141232Y0155181D01*
X0141110Y0155208D01*
X0140990Y0155238D01*
X0140870Y0155272D01*
X0140752Y0155311D01*
X0140634Y0155352D01*
X0140519Y0155398D01*
X0140404Y0155447D01*
X0140292Y0155500D01*
X0140181Y0155556D01*
X0140072Y0155616D01*
X0139965Y0155680D01*
X0139860Y0155746D01*
X0139757Y0155816D01*
X0139657Y0155890D01*
X0139559Y0155966D01*
X0139463Y0156045D01*
X0139370Y0156128D01*
X0139279Y0156213D01*
X0139192Y0156302D01*
X0139107Y0156393D01*
X0139025Y0156487D01*
X0138947Y0156583D01*
X0138871Y0156682D01*
X0138798Y0156783D01*
X0138729Y0156886D01*
X0138663Y0156992D01*
X0138601Y0157099D01*
X0138542Y0157209D01*
X0138486Y0157320D01*
X0138434Y0157433D01*
X0138386Y0157548D01*
X0138342Y0157664D01*
X0138301Y0157781D01*
X0138264Y0157900D01*
X0138230Y0158020D01*
X0138201Y0158140D01*
X0138175Y0158262D01*
X0138153Y0158385D01*
X0138136Y0158508D01*
X0138122Y0158631D01*
X0138112Y0158755D01*
X0138106Y0158880D01*
X0138104Y0159004D01*
X0138004Y0155004D02*
X0146004Y0163004D01*
X0140804Y0163504D02*
X0140806Y0163628D01*
X0140812Y0163753D01*
X0140822Y0163877D01*
X0140836Y0164000D01*
X0140853Y0164123D01*
X0140875Y0164246D01*
X0140901Y0164368D01*
X0140930Y0164488D01*
X0140964Y0164608D01*
X0141001Y0164727D01*
X0141042Y0164844D01*
X0141086Y0164960D01*
X0141134Y0165075D01*
X0141186Y0165188D01*
X0141242Y0165299D01*
X0141301Y0165409D01*
X0141363Y0165516D01*
X0141429Y0165622D01*
X0141498Y0165725D01*
X0141571Y0165826D01*
X0141647Y0165925D01*
X0141725Y0166021D01*
X0141807Y0166115D01*
X0141892Y0166206D01*
X0141979Y0166295D01*
X0142070Y0166380D01*
X0142163Y0166463D01*
X0142259Y0166542D01*
X0142357Y0166618D01*
X0142457Y0166692D01*
X0142560Y0166762D01*
X0142665Y0166828D01*
X0142772Y0166892D01*
X0142881Y0166952D01*
X0142992Y0167008D01*
X0143104Y0167061D01*
X0143219Y0167110D01*
X0143334Y0167156D01*
X0143452Y0167197D01*
X0143570Y0167236D01*
X0143690Y0167270D01*
X0143810Y0167300D01*
X0143932Y0167327D01*
X0144054Y0167349D01*
X0144177Y0167368D01*
X0144300Y0167383D01*
X0144424Y0167394D01*
X0144549Y0167401D01*
X0144673Y0167404D01*
X0144797Y0167403D01*
X0144922Y0167398D01*
X0145046Y0167389D01*
X0145169Y0167376D01*
X0145293Y0167359D01*
X0145415Y0167339D01*
X0145537Y0167314D01*
X0145658Y0167285D01*
X0145778Y0167253D01*
X0145897Y0167217D01*
X0146015Y0167177D01*
X0146132Y0167133D01*
X0146247Y0167086D01*
X0146360Y0167035D01*
X0146472Y0166980D01*
X0146582Y0166922D01*
X0146690Y0166861D01*
X0146796Y0166796D01*
X0146900Y0166727D01*
X0147001Y0166656D01*
X0147101Y0166581D01*
X0147198Y0166503D01*
X0147292Y0166422D01*
X0147384Y0166338D01*
X0147473Y0166251D01*
X0147559Y0166161D01*
X0147642Y0166069D01*
X0147722Y0165974D01*
X0147800Y0165876D01*
X0147874Y0165776D01*
X0147945Y0165674D01*
X0148012Y0165570D01*
X0148076Y0165463D01*
X0148137Y0165354D01*
X0148194Y0165244D01*
X0148248Y0165132D01*
X0148298Y0165018D01*
X0148345Y0164903D01*
X0148387Y0164786D01*
X0148426Y0164668D01*
X0148462Y0164548D01*
X0148493Y0164428D01*
X0148520Y0164307D01*
X0148544Y0164185D01*
X0148564Y0164062D01*
X0148580Y0163938D01*
X0148592Y0163815D01*
X0148600Y0163691D01*
X0148604Y0163566D01*
X0148604Y0163442D01*
X0148600Y0163317D01*
X0148592Y0163193D01*
X0148580Y0163070D01*
X0148564Y0162946D01*
X0148544Y0162823D01*
X0148520Y0162701D01*
X0148493Y0162580D01*
X0148462Y0162460D01*
X0148426Y0162340D01*
X0148387Y0162222D01*
X0148345Y0162105D01*
X0148298Y0161990D01*
X0148248Y0161876D01*
X0148194Y0161764D01*
X0148137Y0161654D01*
X0148076Y0161545D01*
X0148012Y0161438D01*
X0147945Y0161334D01*
X0147874Y0161232D01*
X0147800Y0161132D01*
X0147722Y0161034D01*
X0147642Y0160939D01*
X0147559Y0160847D01*
X0147473Y0160757D01*
X0147384Y0160670D01*
X0147292Y0160586D01*
X0147198Y0160505D01*
X0147101Y0160427D01*
X0147001Y0160352D01*
X0146900Y0160281D01*
X0146796Y0160212D01*
X0146690Y0160147D01*
X0146582Y0160086D01*
X0146472Y0160028D01*
X0146360Y0159973D01*
X0146247Y0159922D01*
X0146132Y0159875D01*
X0146015Y0159831D01*
X0145897Y0159791D01*
X0145778Y0159755D01*
X0145658Y0159723D01*
X0145537Y0159694D01*
X0145415Y0159669D01*
X0145293Y0159649D01*
X0145169Y0159632D01*
X0145046Y0159619D01*
X0144922Y0159610D01*
X0144797Y0159605D01*
X0144673Y0159604D01*
X0144549Y0159607D01*
X0144424Y0159614D01*
X0144300Y0159625D01*
X0144177Y0159640D01*
X0144054Y0159659D01*
X0143932Y0159681D01*
X0143810Y0159708D01*
X0143690Y0159738D01*
X0143570Y0159772D01*
X0143452Y0159811D01*
X0143334Y0159852D01*
X0143219Y0159898D01*
X0143104Y0159947D01*
X0142992Y0160000D01*
X0142881Y0160056D01*
X0142772Y0160116D01*
X0142665Y0160180D01*
X0142560Y0160246D01*
X0142457Y0160316D01*
X0142357Y0160390D01*
X0142259Y0160466D01*
X0142163Y0160545D01*
X0142070Y0160628D01*
X0141979Y0160713D01*
X0141892Y0160802D01*
X0141807Y0160893D01*
X0141725Y0160987D01*
X0141647Y0161083D01*
X0141571Y0161182D01*
X0141498Y0161283D01*
X0141429Y0161386D01*
X0141363Y0161492D01*
X0141301Y0161599D01*
X0141242Y0161709D01*
X0141186Y0161820D01*
X0141134Y0161933D01*
X0141086Y0162048D01*
X0141042Y0162164D01*
X0141001Y0162281D01*
X0140964Y0162400D01*
X0140930Y0162520D01*
X0140901Y0162640D01*
X0140875Y0162762D01*
X0140853Y0162885D01*
X0140836Y0163008D01*
X0140822Y0163131D01*
X0140812Y0163255D01*
X0140806Y0163380D01*
X0140804Y0163504D01*
X0140704Y0159504D02*
X0148704Y0167504D01*
X0147104Y0171604D02*
X0147106Y0171728D01*
X0147112Y0171853D01*
X0147122Y0171977D01*
X0147136Y0172100D01*
X0147153Y0172223D01*
X0147175Y0172346D01*
X0147201Y0172468D01*
X0147230Y0172588D01*
X0147264Y0172708D01*
X0147301Y0172827D01*
X0147342Y0172944D01*
X0147386Y0173060D01*
X0147434Y0173175D01*
X0147486Y0173288D01*
X0147542Y0173399D01*
X0147601Y0173509D01*
X0147663Y0173616D01*
X0147729Y0173722D01*
X0147798Y0173825D01*
X0147871Y0173926D01*
X0147947Y0174025D01*
X0148025Y0174121D01*
X0148107Y0174215D01*
X0148192Y0174306D01*
X0148279Y0174395D01*
X0148370Y0174480D01*
X0148463Y0174563D01*
X0148559Y0174642D01*
X0148657Y0174718D01*
X0148757Y0174792D01*
X0148860Y0174862D01*
X0148965Y0174928D01*
X0149072Y0174992D01*
X0149181Y0175052D01*
X0149292Y0175108D01*
X0149404Y0175161D01*
X0149519Y0175210D01*
X0149634Y0175256D01*
X0149752Y0175297D01*
X0149870Y0175336D01*
X0149990Y0175370D01*
X0150110Y0175400D01*
X0150232Y0175427D01*
X0150354Y0175449D01*
X0150477Y0175468D01*
X0150600Y0175483D01*
X0150724Y0175494D01*
X0150849Y0175501D01*
X0150973Y0175504D01*
X0151097Y0175503D01*
X0151222Y0175498D01*
X0151346Y0175489D01*
X0151469Y0175476D01*
X0151593Y0175459D01*
X0151715Y0175439D01*
X0151837Y0175414D01*
X0151958Y0175385D01*
X0152078Y0175353D01*
X0152197Y0175317D01*
X0152315Y0175277D01*
X0152432Y0175233D01*
X0152547Y0175186D01*
X0152660Y0175135D01*
X0152772Y0175080D01*
X0152882Y0175022D01*
X0152990Y0174961D01*
X0153096Y0174896D01*
X0153200Y0174827D01*
X0153301Y0174756D01*
X0153401Y0174681D01*
X0153498Y0174603D01*
X0153592Y0174522D01*
X0153684Y0174438D01*
X0153773Y0174351D01*
X0153859Y0174261D01*
X0153942Y0174169D01*
X0154022Y0174074D01*
X0154100Y0173976D01*
X0154174Y0173876D01*
X0154245Y0173774D01*
X0154312Y0173670D01*
X0154376Y0173563D01*
X0154437Y0173454D01*
X0154494Y0173344D01*
X0154548Y0173232D01*
X0154598Y0173118D01*
X0154645Y0173003D01*
X0154687Y0172886D01*
X0154726Y0172768D01*
X0154762Y0172648D01*
X0154793Y0172528D01*
X0154820Y0172407D01*
X0154844Y0172285D01*
X0154864Y0172162D01*
X0154880Y0172038D01*
X0154892Y0171915D01*
X0154900Y0171791D01*
X0154904Y0171666D01*
X0154904Y0171542D01*
X0154900Y0171417D01*
X0154892Y0171293D01*
X0154880Y0171170D01*
X0154864Y0171046D01*
X0154844Y0170923D01*
X0154820Y0170801D01*
X0154793Y0170680D01*
X0154762Y0170560D01*
X0154726Y0170440D01*
X0154687Y0170322D01*
X0154645Y0170205D01*
X0154598Y0170090D01*
X0154548Y0169976D01*
X0154494Y0169864D01*
X0154437Y0169754D01*
X0154376Y0169645D01*
X0154312Y0169538D01*
X0154245Y0169434D01*
X0154174Y0169332D01*
X0154100Y0169232D01*
X0154022Y0169134D01*
X0153942Y0169039D01*
X0153859Y0168947D01*
X0153773Y0168857D01*
X0153684Y0168770D01*
X0153592Y0168686D01*
X0153498Y0168605D01*
X0153401Y0168527D01*
X0153301Y0168452D01*
X0153200Y0168381D01*
X0153096Y0168312D01*
X0152990Y0168247D01*
X0152882Y0168186D01*
X0152772Y0168128D01*
X0152660Y0168073D01*
X0152547Y0168022D01*
X0152432Y0167975D01*
X0152315Y0167931D01*
X0152197Y0167891D01*
X0152078Y0167855D01*
X0151958Y0167823D01*
X0151837Y0167794D01*
X0151715Y0167769D01*
X0151593Y0167749D01*
X0151469Y0167732D01*
X0151346Y0167719D01*
X0151222Y0167710D01*
X0151097Y0167705D01*
X0150973Y0167704D01*
X0150849Y0167707D01*
X0150724Y0167714D01*
X0150600Y0167725D01*
X0150477Y0167740D01*
X0150354Y0167759D01*
X0150232Y0167781D01*
X0150110Y0167808D01*
X0149990Y0167838D01*
X0149870Y0167872D01*
X0149752Y0167911D01*
X0149634Y0167952D01*
X0149519Y0167998D01*
X0149404Y0168047D01*
X0149292Y0168100D01*
X0149181Y0168156D01*
X0149072Y0168216D01*
X0148965Y0168280D01*
X0148860Y0168346D01*
X0148757Y0168416D01*
X0148657Y0168490D01*
X0148559Y0168566D01*
X0148463Y0168645D01*
X0148370Y0168728D01*
X0148279Y0168813D01*
X0148192Y0168902D01*
X0148107Y0168993D01*
X0148025Y0169087D01*
X0147947Y0169183D01*
X0147871Y0169282D01*
X0147798Y0169383D01*
X0147729Y0169486D01*
X0147663Y0169592D01*
X0147601Y0169699D01*
X0147542Y0169809D01*
X0147486Y0169920D01*
X0147434Y0170033D01*
X0147386Y0170148D01*
X0147342Y0170264D01*
X0147301Y0170381D01*
X0147264Y0170500D01*
X0147230Y0170620D01*
X0147201Y0170740D01*
X0147175Y0170862D01*
X0147153Y0170985D01*
X0147136Y0171108D01*
X0147122Y0171231D01*
X0147112Y0171355D01*
X0147106Y0171480D01*
X0147104Y0171604D01*
X0147004Y0167604D02*
X0155004Y0175604D01*
X0103904Y0150004D02*
X0103906Y0150128D01*
X0103912Y0150253D01*
X0103922Y0150377D01*
X0103936Y0150500D01*
X0103953Y0150623D01*
X0103975Y0150746D01*
X0104001Y0150868D01*
X0104030Y0150988D01*
X0104064Y0151108D01*
X0104101Y0151227D01*
X0104142Y0151344D01*
X0104186Y0151460D01*
X0104234Y0151575D01*
X0104286Y0151688D01*
X0104342Y0151799D01*
X0104401Y0151909D01*
X0104463Y0152016D01*
X0104529Y0152122D01*
X0104598Y0152225D01*
X0104671Y0152326D01*
X0104747Y0152425D01*
X0104825Y0152521D01*
X0104907Y0152615D01*
X0104992Y0152706D01*
X0105079Y0152795D01*
X0105170Y0152880D01*
X0105263Y0152963D01*
X0105359Y0153042D01*
X0105457Y0153118D01*
X0105557Y0153192D01*
X0105660Y0153262D01*
X0105765Y0153328D01*
X0105872Y0153392D01*
X0105981Y0153452D01*
X0106092Y0153508D01*
X0106204Y0153561D01*
X0106319Y0153610D01*
X0106434Y0153656D01*
X0106552Y0153697D01*
X0106670Y0153736D01*
X0106790Y0153770D01*
X0106910Y0153800D01*
X0107032Y0153827D01*
X0107154Y0153849D01*
X0107277Y0153868D01*
X0107400Y0153883D01*
X0107524Y0153894D01*
X0107649Y0153901D01*
X0107773Y0153904D01*
X0107897Y0153903D01*
X0108022Y0153898D01*
X0108146Y0153889D01*
X0108269Y0153876D01*
X0108393Y0153859D01*
X0108515Y0153839D01*
X0108637Y0153814D01*
X0108758Y0153785D01*
X0108878Y0153753D01*
X0108997Y0153717D01*
X0109115Y0153677D01*
X0109232Y0153633D01*
X0109347Y0153586D01*
X0109460Y0153535D01*
X0109572Y0153480D01*
X0109682Y0153422D01*
X0109790Y0153361D01*
X0109896Y0153296D01*
X0110000Y0153227D01*
X0110101Y0153156D01*
X0110201Y0153081D01*
X0110298Y0153003D01*
X0110392Y0152922D01*
X0110484Y0152838D01*
X0110573Y0152751D01*
X0110659Y0152661D01*
X0110742Y0152569D01*
X0110822Y0152474D01*
X0110900Y0152376D01*
X0110974Y0152276D01*
X0111045Y0152174D01*
X0111112Y0152070D01*
X0111176Y0151963D01*
X0111237Y0151854D01*
X0111294Y0151744D01*
X0111348Y0151632D01*
X0111398Y0151518D01*
X0111445Y0151403D01*
X0111487Y0151286D01*
X0111526Y0151168D01*
X0111562Y0151048D01*
X0111593Y0150928D01*
X0111620Y0150807D01*
X0111644Y0150685D01*
X0111664Y0150562D01*
X0111680Y0150438D01*
X0111692Y0150315D01*
X0111700Y0150191D01*
X0111704Y0150066D01*
X0111704Y0149942D01*
X0111700Y0149817D01*
X0111692Y0149693D01*
X0111680Y0149570D01*
X0111664Y0149446D01*
X0111644Y0149323D01*
X0111620Y0149201D01*
X0111593Y0149080D01*
X0111562Y0148960D01*
X0111526Y0148840D01*
X0111487Y0148722D01*
X0111445Y0148605D01*
X0111398Y0148490D01*
X0111348Y0148376D01*
X0111294Y0148264D01*
X0111237Y0148154D01*
X0111176Y0148045D01*
X0111112Y0147938D01*
X0111045Y0147834D01*
X0110974Y0147732D01*
X0110900Y0147632D01*
X0110822Y0147534D01*
X0110742Y0147439D01*
X0110659Y0147347D01*
X0110573Y0147257D01*
X0110484Y0147170D01*
X0110392Y0147086D01*
X0110298Y0147005D01*
X0110201Y0146927D01*
X0110101Y0146852D01*
X0110000Y0146781D01*
X0109896Y0146712D01*
X0109790Y0146647D01*
X0109682Y0146586D01*
X0109572Y0146528D01*
X0109460Y0146473D01*
X0109347Y0146422D01*
X0109232Y0146375D01*
X0109115Y0146331D01*
X0108997Y0146291D01*
X0108878Y0146255D01*
X0108758Y0146223D01*
X0108637Y0146194D01*
X0108515Y0146169D01*
X0108393Y0146149D01*
X0108269Y0146132D01*
X0108146Y0146119D01*
X0108022Y0146110D01*
X0107897Y0146105D01*
X0107773Y0146104D01*
X0107649Y0146107D01*
X0107524Y0146114D01*
X0107400Y0146125D01*
X0107277Y0146140D01*
X0107154Y0146159D01*
X0107032Y0146181D01*
X0106910Y0146208D01*
X0106790Y0146238D01*
X0106670Y0146272D01*
X0106552Y0146311D01*
X0106434Y0146352D01*
X0106319Y0146398D01*
X0106204Y0146447D01*
X0106092Y0146500D01*
X0105981Y0146556D01*
X0105872Y0146616D01*
X0105765Y0146680D01*
X0105660Y0146746D01*
X0105557Y0146816D01*
X0105457Y0146890D01*
X0105359Y0146966D01*
X0105263Y0147045D01*
X0105170Y0147128D01*
X0105079Y0147213D01*
X0104992Y0147302D01*
X0104907Y0147393D01*
X0104825Y0147487D01*
X0104747Y0147583D01*
X0104671Y0147682D01*
X0104598Y0147783D01*
X0104529Y0147886D01*
X0104463Y0147992D01*
X0104401Y0148099D01*
X0104342Y0148209D01*
X0104286Y0148320D01*
X0104234Y0148433D01*
X0104186Y0148548D01*
X0104142Y0148664D01*
X0104101Y0148781D01*
X0104064Y0148900D01*
X0104030Y0149020D01*
X0104001Y0149140D01*
X0103975Y0149262D01*
X0103953Y0149385D01*
X0103936Y0149508D01*
X0103922Y0149631D01*
X0103912Y0149755D01*
X0103906Y0149880D01*
X0103904Y0150004D01*
X0103804Y0146004D02*
X0111804Y0154004D01*
X0092204Y0122104D02*
X0092206Y0122228D01*
X0092212Y0122353D01*
X0092222Y0122477D01*
X0092236Y0122600D01*
X0092253Y0122723D01*
X0092275Y0122846D01*
X0092301Y0122968D01*
X0092330Y0123088D01*
X0092364Y0123208D01*
X0092401Y0123327D01*
X0092442Y0123444D01*
X0092486Y0123560D01*
X0092534Y0123675D01*
X0092586Y0123788D01*
X0092642Y0123899D01*
X0092701Y0124009D01*
X0092763Y0124116D01*
X0092829Y0124222D01*
X0092898Y0124325D01*
X0092971Y0124426D01*
X0093047Y0124525D01*
X0093125Y0124621D01*
X0093207Y0124715D01*
X0093292Y0124806D01*
X0093379Y0124895D01*
X0093470Y0124980D01*
X0093563Y0125063D01*
X0093659Y0125142D01*
X0093757Y0125218D01*
X0093857Y0125292D01*
X0093960Y0125362D01*
X0094065Y0125428D01*
X0094172Y0125492D01*
X0094281Y0125552D01*
X0094392Y0125608D01*
X0094504Y0125661D01*
X0094619Y0125710D01*
X0094734Y0125756D01*
X0094852Y0125797D01*
X0094970Y0125836D01*
X0095090Y0125870D01*
X0095210Y0125900D01*
X0095332Y0125927D01*
X0095454Y0125949D01*
X0095577Y0125968D01*
X0095700Y0125983D01*
X0095824Y0125994D01*
X0095949Y0126001D01*
X0096073Y0126004D01*
X0096197Y0126003D01*
X0096322Y0125998D01*
X0096446Y0125989D01*
X0096569Y0125976D01*
X0096693Y0125959D01*
X0096815Y0125939D01*
X0096937Y0125914D01*
X0097058Y0125885D01*
X0097178Y0125853D01*
X0097297Y0125817D01*
X0097415Y0125777D01*
X0097532Y0125733D01*
X0097647Y0125686D01*
X0097760Y0125635D01*
X0097872Y0125580D01*
X0097982Y0125522D01*
X0098090Y0125461D01*
X0098196Y0125396D01*
X0098300Y0125327D01*
X0098401Y0125256D01*
X0098501Y0125181D01*
X0098598Y0125103D01*
X0098692Y0125022D01*
X0098784Y0124938D01*
X0098873Y0124851D01*
X0098959Y0124761D01*
X0099042Y0124669D01*
X0099122Y0124574D01*
X0099200Y0124476D01*
X0099274Y0124376D01*
X0099345Y0124274D01*
X0099412Y0124170D01*
X0099476Y0124063D01*
X0099537Y0123954D01*
X0099594Y0123844D01*
X0099648Y0123732D01*
X0099698Y0123618D01*
X0099745Y0123503D01*
X0099787Y0123386D01*
X0099826Y0123268D01*
X0099862Y0123148D01*
X0099893Y0123028D01*
X0099920Y0122907D01*
X0099944Y0122785D01*
X0099964Y0122662D01*
X0099980Y0122538D01*
X0099992Y0122415D01*
X0100000Y0122291D01*
X0100004Y0122166D01*
X0100004Y0122042D01*
X0100000Y0121917D01*
X0099992Y0121793D01*
X0099980Y0121670D01*
X0099964Y0121546D01*
X0099944Y0121423D01*
X0099920Y0121301D01*
X0099893Y0121180D01*
X0099862Y0121060D01*
X0099826Y0120940D01*
X0099787Y0120822D01*
X0099745Y0120705D01*
X0099698Y0120590D01*
X0099648Y0120476D01*
X0099594Y0120364D01*
X0099537Y0120254D01*
X0099476Y0120145D01*
X0099412Y0120038D01*
X0099345Y0119934D01*
X0099274Y0119832D01*
X0099200Y0119732D01*
X0099122Y0119634D01*
X0099042Y0119539D01*
X0098959Y0119447D01*
X0098873Y0119357D01*
X0098784Y0119270D01*
X0098692Y0119186D01*
X0098598Y0119105D01*
X0098501Y0119027D01*
X0098401Y0118952D01*
X0098300Y0118881D01*
X0098196Y0118812D01*
X0098090Y0118747D01*
X0097982Y0118686D01*
X0097872Y0118628D01*
X0097760Y0118573D01*
X0097647Y0118522D01*
X0097532Y0118475D01*
X0097415Y0118431D01*
X0097297Y0118391D01*
X0097178Y0118355D01*
X0097058Y0118323D01*
X0096937Y0118294D01*
X0096815Y0118269D01*
X0096693Y0118249D01*
X0096569Y0118232D01*
X0096446Y0118219D01*
X0096322Y0118210D01*
X0096197Y0118205D01*
X0096073Y0118204D01*
X0095949Y0118207D01*
X0095824Y0118214D01*
X0095700Y0118225D01*
X0095577Y0118240D01*
X0095454Y0118259D01*
X0095332Y0118281D01*
X0095210Y0118308D01*
X0095090Y0118338D01*
X0094970Y0118372D01*
X0094852Y0118411D01*
X0094734Y0118452D01*
X0094619Y0118498D01*
X0094504Y0118547D01*
X0094392Y0118600D01*
X0094281Y0118656D01*
X0094172Y0118716D01*
X0094065Y0118780D01*
X0093960Y0118846D01*
X0093857Y0118916D01*
X0093757Y0118990D01*
X0093659Y0119066D01*
X0093563Y0119145D01*
X0093470Y0119228D01*
X0093379Y0119313D01*
X0093292Y0119402D01*
X0093207Y0119493D01*
X0093125Y0119587D01*
X0093047Y0119683D01*
X0092971Y0119782D01*
X0092898Y0119883D01*
X0092829Y0119986D01*
X0092763Y0120092D01*
X0092701Y0120199D01*
X0092642Y0120309D01*
X0092586Y0120420D01*
X0092534Y0120533D01*
X0092486Y0120648D01*
X0092442Y0120764D01*
X0092401Y0120881D01*
X0092364Y0121000D01*
X0092330Y0121120D01*
X0092301Y0121240D01*
X0092275Y0121362D01*
X0092253Y0121485D01*
X0092236Y0121608D01*
X0092222Y0121731D01*
X0092212Y0121855D01*
X0092206Y0121980D01*
X0092204Y0122104D01*
X0092104Y0118104D02*
X0100104Y0126104D01*
X0076094Y0115473D02*
X0076096Y0115597D01*
X0076102Y0115722D01*
X0076112Y0115846D01*
X0076126Y0115969D01*
X0076143Y0116092D01*
X0076165Y0116215D01*
X0076191Y0116337D01*
X0076220Y0116457D01*
X0076254Y0116577D01*
X0076291Y0116696D01*
X0076332Y0116813D01*
X0076376Y0116929D01*
X0076424Y0117044D01*
X0076476Y0117157D01*
X0076532Y0117268D01*
X0076591Y0117378D01*
X0076653Y0117485D01*
X0076719Y0117591D01*
X0076788Y0117694D01*
X0076861Y0117795D01*
X0076937Y0117894D01*
X0077015Y0117990D01*
X0077097Y0118084D01*
X0077182Y0118175D01*
X0077269Y0118264D01*
X0077360Y0118349D01*
X0077453Y0118432D01*
X0077549Y0118511D01*
X0077647Y0118587D01*
X0077747Y0118661D01*
X0077850Y0118731D01*
X0077955Y0118797D01*
X0078062Y0118861D01*
X0078171Y0118921D01*
X0078282Y0118977D01*
X0078394Y0119030D01*
X0078509Y0119079D01*
X0078624Y0119125D01*
X0078742Y0119166D01*
X0078860Y0119205D01*
X0078980Y0119239D01*
X0079100Y0119269D01*
X0079222Y0119296D01*
X0079344Y0119318D01*
X0079467Y0119337D01*
X0079590Y0119352D01*
X0079714Y0119363D01*
X0079839Y0119370D01*
X0079963Y0119373D01*
X0080087Y0119372D01*
X0080212Y0119367D01*
X0080336Y0119358D01*
X0080459Y0119345D01*
X0080583Y0119328D01*
X0080705Y0119308D01*
X0080827Y0119283D01*
X0080948Y0119254D01*
X0081068Y0119222D01*
X0081187Y0119186D01*
X0081305Y0119146D01*
X0081422Y0119102D01*
X0081537Y0119055D01*
X0081650Y0119004D01*
X0081762Y0118949D01*
X0081872Y0118891D01*
X0081980Y0118830D01*
X0082086Y0118765D01*
X0082190Y0118696D01*
X0082291Y0118625D01*
X0082391Y0118550D01*
X0082488Y0118472D01*
X0082582Y0118391D01*
X0082674Y0118307D01*
X0082763Y0118220D01*
X0082849Y0118130D01*
X0082932Y0118038D01*
X0083012Y0117943D01*
X0083090Y0117845D01*
X0083164Y0117745D01*
X0083235Y0117643D01*
X0083302Y0117539D01*
X0083366Y0117432D01*
X0083427Y0117323D01*
X0083484Y0117213D01*
X0083538Y0117101D01*
X0083588Y0116987D01*
X0083635Y0116872D01*
X0083677Y0116755D01*
X0083716Y0116637D01*
X0083752Y0116517D01*
X0083783Y0116397D01*
X0083810Y0116276D01*
X0083834Y0116154D01*
X0083854Y0116031D01*
X0083870Y0115907D01*
X0083882Y0115784D01*
X0083890Y0115660D01*
X0083894Y0115535D01*
X0083894Y0115411D01*
X0083890Y0115286D01*
X0083882Y0115162D01*
X0083870Y0115039D01*
X0083854Y0114915D01*
X0083834Y0114792D01*
X0083810Y0114670D01*
X0083783Y0114549D01*
X0083752Y0114429D01*
X0083716Y0114309D01*
X0083677Y0114191D01*
X0083635Y0114074D01*
X0083588Y0113959D01*
X0083538Y0113845D01*
X0083484Y0113733D01*
X0083427Y0113623D01*
X0083366Y0113514D01*
X0083302Y0113407D01*
X0083235Y0113303D01*
X0083164Y0113201D01*
X0083090Y0113101D01*
X0083012Y0113003D01*
X0082932Y0112908D01*
X0082849Y0112816D01*
X0082763Y0112726D01*
X0082674Y0112639D01*
X0082582Y0112555D01*
X0082488Y0112474D01*
X0082391Y0112396D01*
X0082291Y0112321D01*
X0082190Y0112250D01*
X0082086Y0112181D01*
X0081980Y0112116D01*
X0081872Y0112055D01*
X0081762Y0111997D01*
X0081650Y0111942D01*
X0081537Y0111891D01*
X0081422Y0111844D01*
X0081305Y0111800D01*
X0081187Y0111760D01*
X0081068Y0111724D01*
X0080948Y0111692D01*
X0080827Y0111663D01*
X0080705Y0111638D01*
X0080583Y0111618D01*
X0080459Y0111601D01*
X0080336Y0111588D01*
X0080212Y0111579D01*
X0080087Y0111574D01*
X0079963Y0111573D01*
X0079839Y0111576D01*
X0079714Y0111583D01*
X0079590Y0111594D01*
X0079467Y0111609D01*
X0079344Y0111628D01*
X0079222Y0111650D01*
X0079100Y0111677D01*
X0078980Y0111707D01*
X0078860Y0111741D01*
X0078742Y0111780D01*
X0078624Y0111821D01*
X0078509Y0111867D01*
X0078394Y0111916D01*
X0078282Y0111969D01*
X0078171Y0112025D01*
X0078062Y0112085D01*
X0077955Y0112149D01*
X0077850Y0112215D01*
X0077747Y0112285D01*
X0077647Y0112359D01*
X0077549Y0112435D01*
X0077453Y0112514D01*
X0077360Y0112597D01*
X0077269Y0112682D01*
X0077182Y0112771D01*
X0077097Y0112862D01*
X0077015Y0112956D01*
X0076937Y0113052D01*
X0076861Y0113151D01*
X0076788Y0113252D01*
X0076719Y0113355D01*
X0076653Y0113461D01*
X0076591Y0113568D01*
X0076532Y0113678D01*
X0076476Y0113789D01*
X0076424Y0113902D01*
X0076376Y0114017D01*
X0076332Y0114133D01*
X0076291Y0114250D01*
X0076254Y0114369D01*
X0076220Y0114489D01*
X0076191Y0114609D01*
X0076165Y0114731D01*
X0076143Y0114854D01*
X0076126Y0114977D01*
X0076112Y0115100D01*
X0076102Y0115224D01*
X0076096Y0115349D01*
X0076094Y0115473D01*
X0075994Y0111473D02*
X0083994Y0119473D01*
X0063404Y0116704D02*
X0063406Y0116828D01*
X0063412Y0116953D01*
X0063422Y0117077D01*
X0063436Y0117200D01*
X0063453Y0117323D01*
X0063475Y0117446D01*
X0063501Y0117568D01*
X0063530Y0117688D01*
X0063564Y0117808D01*
X0063601Y0117927D01*
X0063642Y0118044D01*
X0063686Y0118160D01*
X0063734Y0118275D01*
X0063786Y0118388D01*
X0063842Y0118499D01*
X0063901Y0118609D01*
X0063963Y0118716D01*
X0064029Y0118822D01*
X0064098Y0118925D01*
X0064171Y0119026D01*
X0064247Y0119125D01*
X0064325Y0119221D01*
X0064407Y0119315D01*
X0064492Y0119406D01*
X0064579Y0119495D01*
X0064670Y0119580D01*
X0064763Y0119663D01*
X0064859Y0119742D01*
X0064957Y0119818D01*
X0065057Y0119892D01*
X0065160Y0119962D01*
X0065265Y0120028D01*
X0065372Y0120092D01*
X0065481Y0120152D01*
X0065592Y0120208D01*
X0065704Y0120261D01*
X0065819Y0120310D01*
X0065934Y0120356D01*
X0066052Y0120397D01*
X0066170Y0120436D01*
X0066290Y0120470D01*
X0066410Y0120500D01*
X0066532Y0120527D01*
X0066654Y0120549D01*
X0066777Y0120568D01*
X0066900Y0120583D01*
X0067024Y0120594D01*
X0067149Y0120601D01*
X0067273Y0120604D01*
X0067397Y0120603D01*
X0067522Y0120598D01*
X0067646Y0120589D01*
X0067769Y0120576D01*
X0067893Y0120559D01*
X0068015Y0120539D01*
X0068137Y0120514D01*
X0068258Y0120485D01*
X0068378Y0120453D01*
X0068497Y0120417D01*
X0068615Y0120377D01*
X0068732Y0120333D01*
X0068847Y0120286D01*
X0068960Y0120235D01*
X0069072Y0120180D01*
X0069182Y0120122D01*
X0069290Y0120061D01*
X0069396Y0119996D01*
X0069500Y0119927D01*
X0069601Y0119856D01*
X0069701Y0119781D01*
X0069798Y0119703D01*
X0069892Y0119622D01*
X0069984Y0119538D01*
X0070073Y0119451D01*
X0070159Y0119361D01*
X0070242Y0119269D01*
X0070322Y0119174D01*
X0070400Y0119076D01*
X0070474Y0118976D01*
X0070545Y0118874D01*
X0070612Y0118770D01*
X0070676Y0118663D01*
X0070737Y0118554D01*
X0070794Y0118444D01*
X0070848Y0118332D01*
X0070898Y0118218D01*
X0070945Y0118103D01*
X0070987Y0117986D01*
X0071026Y0117868D01*
X0071062Y0117748D01*
X0071093Y0117628D01*
X0071120Y0117507D01*
X0071144Y0117385D01*
X0071164Y0117262D01*
X0071180Y0117138D01*
X0071192Y0117015D01*
X0071200Y0116891D01*
X0071204Y0116766D01*
X0071204Y0116642D01*
X0071200Y0116517D01*
X0071192Y0116393D01*
X0071180Y0116270D01*
X0071164Y0116146D01*
X0071144Y0116023D01*
X0071120Y0115901D01*
X0071093Y0115780D01*
X0071062Y0115660D01*
X0071026Y0115540D01*
X0070987Y0115422D01*
X0070945Y0115305D01*
X0070898Y0115190D01*
X0070848Y0115076D01*
X0070794Y0114964D01*
X0070737Y0114854D01*
X0070676Y0114745D01*
X0070612Y0114638D01*
X0070545Y0114534D01*
X0070474Y0114432D01*
X0070400Y0114332D01*
X0070322Y0114234D01*
X0070242Y0114139D01*
X0070159Y0114047D01*
X0070073Y0113957D01*
X0069984Y0113870D01*
X0069892Y0113786D01*
X0069798Y0113705D01*
X0069701Y0113627D01*
X0069601Y0113552D01*
X0069500Y0113481D01*
X0069396Y0113412D01*
X0069290Y0113347D01*
X0069182Y0113286D01*
X0069072Y0113228D01*
X0068960Y0113173D01*
X0068847Y0113122D01*
X0068732Y0113075D01*
X0068615Y0113031D01*
X0068497Y0112991D01*
X0068378Y0112955D01*
X0068258Y0112923D01*
X0068137Y0112894D01*
X0068015Y0112869D01*
X0067893Y0112849D01*
X0067769Y0112832D01*
X0067646Y0112819D01*
X0067522Y0112810D01*
X0067397Y0112805D01*
X0067273Y0112804D01*
X0067149Y0112807D01*
X0067024Y0112814D01*
X0066900Y0112825D01*
X0066777Y0112840D01*
X0066654Y0112859D01*
X0066532Y0112881D01*
X0066410Y0112908D01*
X0066290Y0112938D01*
X0066170Y0112972D01*
X0066052Y0113011D01*
X0065934Y0113052D01*
X0065819Y0113098D01*
X0065704Y0113147D01*
X0065592Y0113200D01*
X0065481Y0113256D01*
X0065372Y0113316D01*
X0065265Y0113380D01*
X0065160Y0113446D01*
X0065057Y0113516D01*
X0064957Y0113590D01*
X0064859Y0113666D01*
X0064763Y0113745D01*
X0064670Y0113828D01*
X0064579Y0113913D01*
X0064492Y0114002D01*
X0064407Y0114093D01*
X0064325Y0114187D01*
X0064247Y0114283D01*
X0064171Y0114382D01*
X0064098Y0114483D01*
X0064029Y0114586D01*
X0063963Y0114692D01*
X0063901Y0114799D01*
X0063842Y0114909D01*
X0063786Y0115020D01*
X0063734Y0115133D01*
X0063686Y0115248D01*
X0063642Y0115364D01*
X0063601Y0115481D01*
X0063564Y0115600D01*
X0063530Y0115720D01*
X0063501Y0115840D01*
X0063475Y0115962D01*
X0063453Y0116085D01*
X0063436Y0116208D01*
X0063422Y0116331D01*
X0063412Y0116455D01*
X0063406Y0116580D01*
X0063404Y0116704D01*
X0063304Y0112704D02*
X0071304Y0120704D01*
X0063073Y0111304D02*
X0063075Y0111428D01*
X0063081Y0111553D01*
X0063091Y0111677D01*
X0063105Y0111800D01*
X0063122Y0111923D01*
X0063144Y0112046D01*
X0063170Y0112168D01*
X0063199Y0112288D01*
X0063233Y0112408D01*
X0063270Y0112527D01*
X0063311Y0112644D01*
X0063355Y0112760D01*
X0063403Y0112875D01*
X0063455Y0112988D01*
X0063511Y0113099D01*
X0063570Y0113209D01*
X0063632Y0113316D01*
X0063698Y0113422D01*
X0063767Y0113525D01*
X0063840Y0113626D01*
X0063916Y0113725D01*
X0063994Y0113821D01*
X0064076Y0113915D01*
X0064161Y0114006D01*
X0064248Y0114095D01*
X0064339Y0114180D01*
X0064432Y0114263D01*
X0064528Y0114342D01*
X0064626Y0114418D01*
X0064726Y0114492D01*
X0064829Y0114562D01*
X0064934Y0114628D01*
X0065041Y0114692D01*
X0065150Y0114752D01*
X0065261Y0114808D01*
X0065373Y0114861D01*
X0065488Y0114910D01*
X0065603Y0114956D01*
X0065721Y0114997D01*
X0065839Y0115036D01*
X0065959Y0115070D01*
X0066079Y0115100D01*
X0066201Y0115127D01*
X0066323Y0115149D01*
X0066446Y0115168D01*
X0066569Y0115183D01*
X0066693Y0115194D01*
X0066818Y0115201D01*
X0066942Y0115204D01*
X0067066Y0115203D01*
X0067191Y0115198D01*
X0067315Y0115189D01*
X0067438Y0115176D01*
X0067562Y0115159D01*
X0067684Y0115139D01*
X0067806Y0115114D01*
X0067927Y0115085D01*
X0068047Y0115053D01*
X0068166Y0115017D01*
X0068284Y0114977D01*
X0068401Y0114933D01*
X0068516Y0114886D01*
X0068629Y0114835D01*
X0068741Y0114780D01*
X0068851Y0114722D01*
X0068959Y0114661D01*
X0069065Y0114596D01*
X0069169Y0114527D01*
X0069270Y0114456D01*
X0069370Y0114381D01*
X0069467Y0114303D01*
X0069561Y0114222D01*
X0069653Y0114138D01*
X0069742Y0114051D01*
X0069828Y0113961D01*
X0069911Y0113869D01*
X0069991Y0113774D01*
X0070069Y0113676D01*
X0070143Y0113576D01*
X0070214Y0113474D01*
X0070281Y0113370D01*
X0070345Y0113263D01*
X0070406Y0113154D01*
X0070463Y0113044D01*
X0070517Y0112932D01*
X0070567Y0112818D01*
X0070614Y0112703D01*
X0070656Y0112586D01*
X0070695Y0112468D01*
X0070731Y0112348D01*
X0070762Y0112228D01*
X0070789Y0112107D01*
X0070813Y0111985D01*
X0070833Y0111862D01*
X0070849Y0111738D01*
X0070861Y0111615D01*
X0070869Y0111491D01*
X0070873Y0111366D01*
X0070873Y0111242D01*
X0070869Y0111117D01*
X0070861Y0110993D01*
X0070849Y0110870D01*
X0070833Y0110746D01*
X0070813Y0110623D01*
X0070789Y0110501D01*
X0070762Y0110380D01*
X0070731Y0110260D01*
X0070695Y0110140D01*
X0070656Y0110022D01*
X0070614Y0109905D01*
X0070567Y0109790D01*
X0070517Y0109676D01*
X0070463Y0109564D01*
X0070406Y0109454D01*
X0070345Y0109345D01*
X0070281Y0109238D01*
X0070214Y0109134D01*
X0070143Y0109032D01*
X0070069Y0108932D01*
X0069991Y0108834D01*
X0069911Y0108739D01*
X0069828Y0108647D01*
X0069742Y0108557D01*
X0069653Y0108470D01*
X0069561Y0108386D01*
X0069467Y0108305D01*
X0069370Y0108227D01*
X0069270Y0108152D01*
X0069169Y0108081D01*
X0069065Y0108012D01*
X0068959Y0107947D01*
X0068851Y0107886D01*
X0068741Y0107828D01*
X0068629Y0107773D01*
X0068516Y0107722D01*
X0068401Y0107675D01*
X0068284Y0107631D01*
X0068166Y0107591D01*
X0068047Y0107555D01*
X0067927Y0107523D01*
X0067806Y0107494D01*
X0067684Y0107469D01*
X0067562Y0107449D01*
X0067438Y0107432D01*
X0067315Y0107419D01*
X0067191Y0107410D01*
X0067066Y0107405D01*
X0066942Y0107404D01*
X0066818Y0107407D01*
X0066693Y0107414D01*
X0066569Y0107425D01*
X0066446Y0107440D01*
X0066323Y0107459D01*
X0066201Y0107481D01*
X0066079Y0107508D01*
X0065959Y0107538D01*
X0065839Y0107572D01*
X0065721Y0107611D01*
X0065603Y0107652D01*
X0065488Y0107698D01*
X0065373Y0107747D01*
X0065261Y0107800D01*
X0065150Y0107856D01*
X0065041Y0107916D01*
X0064934Y0107980D01*
X0064829Y0108046D01*
X0064726Y0108116D01*
X0064626Y0108190D01*
X0064528Y0108266D01*
X0064432Y0108345D01*
X0064339Y0108428D01*
X0064248Y0108513D01*
X0064161Y0108602D01*
X0064076Y0108693D01*
X0063994Y0108787D01*
X0063916Y0108883D01*
X0063840Y0108982D01*
X0063767Y0109083D01*
X0063698Y0109186D01*
X0063632Y0109292D01*
X0063570Y0109399D01*
X0063511Y0109509D01*
X0063455Y0109620D01*
X0063403Y0109733D01*
X0063355Y0109848D01*
X0063311Y0109964D01*
X0063270Y0110081D01*
X0063233Y0110200D01*
X0063199Y0110320D01*
X0063170Y0110440D01*
X0063144Y0110562D01*
X0063122Y0110685D01*
X0063105Y0110808D01*
X0063091Y0110931D01*
X0063081Y0111055D01*
X0063075Y0111180D01*
X0063073Y0111304D01*
X0062973Y0107304D02*
X0070973Y0115304D01*
X0076004Y0108182D02*
X0076006Y0108306D01*
X0076012Y0108431D01*
X0076022Y0108555D01*
X0076036Y0108678D01*
X0076053Y0108801D01*
X0076075Y0108924D01*
X0076101Y0109046D01*
X0076130Y0109166D01*
X0076164Y0109286D01*
X0076201Y0109405D01*
X0076242Y0109522D01*
X0076286Y0109638D01*
X0076334Y0109753D01*
X0076386Y0109866D01*
X0076442Y0109977D01*
X0076501Y0110087D01*
X0076563Y0110194D01*
X0076629Y0110300D01*
X0076698Y0110403D01*
X0076771Y0110504D01*
X0076847Y0110603D01*
X0076925Y0110699D01*
X0077007Y0110793D01*
X0077092Y0110884D01*
X0077179Y0110973D01*
X0077270Y0111058D01*
X0077363Y0111141D01*
X0077459Y0111220D01*
X0077557Y0111296D01*
X0077657Y0111370D01*
X0077760Y0111440D01*
X0077865Y0111506D01*
X0077972Y0111570D01*
X0078081Y0111630D01*
X0078192Y0111686D01*
X0078304Y0111739D01*
X0078419Y0111788D01*
X0078534Y0111834D01*
X0078652Y0111875D01*
X0078770Y0111914D01*
X0078890Y0111948D01*
X0079010Y0111978D01*
X0079132Y0112005D01*
X0079254Y0112027D01*
X0079377Y0112046D01*
X0079500Y0112061D01*
X0079624Y0112072D01*
X0079749Y0112079D01*
X0079873Y0112082D01*
X0079997Y0112081D01*
X0080122Y0112076D01*
X0080246Y0112067D01*
X0080369Y0112054D01*
X0080493Y0112037D01*
X0080615Y0112017D01*
X0080737Y0111992D01*
X0080858Y0111963D01*
X0080978Y0111931D01*
X0081097Y0111895D01*
X0081215Y0111855D01*
X0081332Y0111811D01*
X0081447Y0111764D01*
X0081560Y0111713D01*
X0081672Y0111658D01*
X0081782Y0111600D01*
X0081890Y0111539D01*
X0081996Y0111474D01*
X0082100Y0111405D01*
X0082201Y0111334D01*
X0082301Y0111259D01*
X0082398Y0111181D01*
X0082492Y0111100D01*
X0082584Y0111016D01*
X0082673Y0110929D01*
X0082759Y0110839D01*
X0082842Y0110747D01*
X0082922Y0110652D01*
X0083000Y0110554D01*
X0083074Y0110454D01*
X0083145Y0110352D01*
X0083212Y0110248D01*
X0083276Y0110141D01*
X0083337Y0110032D01*
X0083394Y0109922D01*
X0083448Y0109810D01*
X0083498Y0109696D01*
X0083545Y0109581D01*
X0083587Y0109464D01*
X0083626Y0109346D01*
X0083662Y0109226D01*
X0083693Y0109106D01*
X0083720Y0108985D01*
X0083744Y0108863D01*
X0083764Y0108740D01*
X0083780Y0108616D01*
X0083792Y0108493D01*
X0083800Y0108369D01*
X0083804Y0108244D01*
X0083804Y0108120D01*
X0083800Y0107995D01*
X0083792Y0107871D01*
X0083780Y0107748D01*
X0083764Y0107624D01*
X0083744Y0107501D01*
X0083720Y0107379D01*
X0083693Y0107258D01*
X0083662Y0107138D01*
X0083626Y0107018D01*
X0083587Y0106900D01*
X0083545Y0106783D01*
X0083498Y0106668D01*
X0083448Y0106554D01*
X0083394Y0106442D01*
X0083337Y0106332D01*
X0083276Y0106223D01*
X0083212Y0106116D01*
X0083145Y0106012D01*
X0083074Y0105910D01*
X0083000Y0105810D01*
X0082922Y0105712D01*
X0082842Y0105617D01*
X0082759Y0105525D01*
X0082673Y0105435D01*
X0082584Y0105348D01*
X0082492Y0105264D01*
X0082398Y0105183D01*
X0082301Y0105105D01*
X0082201Y0105030D01*
X0082100Y0104959D01*
X0081996Y0104890D01*
X0081890Y0104825D01*
X0081782Y0104764D01*
X0081672Y0104706D01*
X0081560Y0104651D01*
X0081447Y0104600D01*
X0081332Y0104553D01*
X0081215Y0104509D01*
X0081097Y0104469D01*
X0080978Y0104433D01*
X0080858Y0104401D01*
X0080737Y0104372D01*
X0080615Y0104347D01*
X0080493Y0104327D01*
X0080369Y0104310D01*
X0080246Y0104297D01*
X0080122Y0104288D01*
X0079997Y0104283D01*
X0079873Y0104282D01*
X0079749Y0104285D01*
X0079624Y0104292D01*
X0079500Y0104303D01*
X0079377Y0104318D01*
X0079254Y0104337D01*
X0079132Y0104359D01*
X0079010Y0104386D01*
X0078890Y0104416D01*
X0078770Y0104450D01*
X0078652Y0104489D01*
X0078534Y0104530D01*
X0078419Y0104576D01*
X0078304Y0104625D01*
X0078192Y0104678D01*
X0078081Y0104734D01*
X0077972Y0104794D01*
X0077865Y0104858D01*
X0077760Y0104924D01*
X0077657Y0104994D01*
X0077557Y0105068D01*
X0077459Y0105144D01*
X0077363Y0105223D01*
X0077270Y0105306D01*
X0077179Y0105391D01*
X0077092Y0105480D01*
X0077007Y0105571D01*
X0076925Y0105665D01*
X0076847Y0105761D01*
X0076771Y0105860D01*
X0076698Y0105961D01*
X0076629Y0106064D01*
X0076563Y0106170D01*
X0076501Y0106277D01*
X0076442Y0106387D01*
X0076386Y0106498D01*
X0076334Y0106611D01*
X0076286Y0106726D01*
X0076242Y0106842D01*
X0076201Y0106959D01*
X0076164Y0107078D01*
X0076130Y0107198D01*
X0076101Y0107318D01*
X0076075Y0107440D01*
X0076053Y0107563D01*
X0076036Y0107686D01*
X0076022Y0107809D01*
X0076012Y0107933D01*
X0076006Y0108058D01*
X0076004Y0108182D01*
X0075904Y0104182D02*
X0083904Y0112182D01*
X0066004Y0100907D02*
X0058004Y0108907D01*
X0058004Y0100907D02*
X0066004Y0108907D01*
X0045404Y0106742D02*
X0037404Y0098742D01*
X0037404Y0106742D02*
X0045404Y0106742D01*
X0037404Y0106742D02*
X0045404Y0098742D01*
X0037404Y0098742D01*
X0037404Y0116065D02*
X0045404Y0124065D01*
X0037404Y0124065D01*
X0045404Y0116065D01*
X0037404Y0116065D01*
X0118304Y0105004D02*
X0118306Y0105128D01*
X0118312Y0105253D01*
X0118322Y0105377D01*
X0118336Y0105500D01*
X0118353Y0105623D01*
X0118375Y0105746D01*
X0118401Y0105868D01*
X0118430Y0105988D01*
X0118464Y0106108D01*
X0118501Y0106227D01*
X0118542Y0106344D01*
X0118586Y0106460D01*
X0118634Y0106575D01*
X0118686Y0106688D01*
X0118742Y0106799D01*
X0118801Y0106909D01*
X0118863Y0107016D01*
X0118929Y0107122D01*
X0118998Y0107225D01*
X0119071Y0107326D01*
X0119147Y0107425D01*
X0119225Y0107521D01*
X0119307Y0107615D01*
X0119392Y0107706D01*
X0119479Y0107795D01*
X0119570Y0107880D01*
X0119663Y0107963D01*
X0119759Y0108042D01*
X0119857Y0108118D01*
X0119957Y0108192D01*
X0120060Y0108262D01*
X0120165Y0108328D01*
X0120272Y0108392D01*
X0120381Y0108452D01*
X0120492Y0108508D01*
X0120604Y0108561D01*
X0120719Y0108610D01*
X0120834Y0108656D01*
X0120952Y0108697D01*
X0121070Y0108736D01*
X0121190Y0108770D01*
X0121310Y0108800D01*
X0121432Y0108827D01*
X0121554Y0108849D01*
X0121677Y0108868D01*
X0121800Y0108883D01*
X0121924Y0108894D01*
X0122049Y0108901D01*
X0122173Y0108904D01*
X0122297Y0108903D01*
X0122422Y0108898D01*
X0122546Y0108889D01*
X0122669Y0108876D01*
X0122793Y0108859D01*
X0122915Y0108839D01*
X0123037Y0108814D01*
X0123158Y0108785D01*
X0123278Y0108753D01*
X0123397Y0108717D01*
X0123515Y0108677D01*
X0123632Y0108633D01*
X0123747Y0108586D01*
X0123860Y0108535D01*
X0123972Y0108480D01*
X0124082Y0108422D01*
X0124190Y0108361D01*
X0124296Y0108296D01*
X0124400Y0108227D01*
X0124501Y0108156D01*
X0124601Y0108081D01*
X0124698Y0108003D01*
X0124792Y0107922D01*
X0124884Y0107838D01*
X0124973Y0107751D01*
X0125059Y0107661D01*
X0125142Y0107569D01*
X0125222Y0107474D01*
X0125300Y0107376D01*
X0125374Y0107276D01*
X0125445Y0107174D01*
X0125512Y0107070D01*
X0125576Y0106963D01*
X0125637Y0106854D01*
X0125694Y0106744D01*
X0125748Y0106632D01*
X0125798Y0106518D01*
X0125845Y0106403D01*
X0125887Y0106286D01*
X0125926Y0106168D01*
X0125962Y0106048D01*
X0125993Y0105928D01*
X0126020Y0105807D01*
X0126044Y0105685D01*
X0126064Y0105562D01*
X0126080Y0105438D01*
X0126092Y0105315D01*
X0126100Y0105191D01*
X0126104Y0105066D01*
X0126104Y0104942D01*
X0126100Y0104817D01*
X0126092Y0104693D01*
X0126080Y0104570D01*
X0126064Y0104446D01*
X0126044Y0104323D01*
X0126020Y0104201D01*
X0125993Y0104080D01*
X0125962Y0103960D01*
X0125926Y0103840D01*
X0125887Y0103722D01*
X0125845Y0103605D01*
X0125798Y0103490D01*
X0125748Y0103376D01*
X0125694Y0103264D01*
X0125637Y0103154D01*
X0125576Y0103045D01*
X0125512Y0102938D01*
X0125445Y0102834D01*
X0125374Y0102732D01*
X0125300Y0102632D01*
X0125222Y0102534D01*
X0125142Y0102439D01*
X0125059Y0102347D01*
X0124973Y0102257D01*
X0124884Y0102170D01*
X0124792Y0102086D01*
X0124698Y0102005D01*
X0124601Y0101927D01*
X0124501Y0101852D01*
X0124400Y0101781D01*
X0124296Y0101712D01*
X0124190Y0101647D01*
X0124082Y0101586D01*
X0123972Y0101528D01*
X0123860Y0101473D01*
X0123747Y0101422D01*
X0123632Y0101375D01*
X0123515Y0101331D01*
X0123397Y0101291D01*
X0123278Y0101255D01*
X0123158Y0101223D01*
X0123037Y0101194D01*
X0122915Y0101169D01*
X0122793Y0101149D01*
X0122669Y0101132D01*
X0122546Y0101119D01*
X0122422Y0101110D01*
X0122297Y0101105D01*
X0122173Y0101104D01*
X0122049Y0101107D01*
X0121924Y0101114D01*
X0121800Y0101125D01*
X0121677Y0101140D01*
X0121554Y0101159D01*
X0121432Y0101181D01*
X0121310Y0101208D01*
X0121190Y0101238D01*
X0121070Y0101272D01*
X0120952Y0101311D01*
X0120834Y0101352D01*
X0120719Y0101398D01*
X0120604Y0101447D01*
X0120492Y0101500D01*
X0120381Y0101556D01*
X0120272Y0101616D01*
X0120165Y0101680D01*
X0120060Y0101746D01*
X0119957Y0101816D01*
X0119857Y0101890D01*
X0119759Y0101966D01*
X0119663Y0102045D01*
X0119570Y0102128D01*
X0119479Y0102213D01*
X0119392Y0102302D01*
X0119307Y0102393D01*
X0119225Y0102487D01*
X0119147Y0102583D01*
X0119071Y0102682D01*
X0118998Y0102783D01*
X0118929Y0102886D01*
X0118863Y0102992D01*
X0118801Y0103099D01*
X0118742Y0103209D01*
X0118686Y0103320D01*
X0118634Y0103433D01*
X0118586Y0103548D01*
X0118542Y0103664D01*
X0118501Y0103781D01*
X0118464Y0103900D01*
X0118430Y0104020D01*
X0118401Y0104140D01*
X0118375Y0104262D01*
X0118353Y0104385D01*
X0118336Y0104508D01*
X0118322Y0104631D01*
X0118312Y0104755D01*
X0118306Y0104880D01*
X0118304Y0105004D01*
X0118204Y0101004D02*
X0126204Y0109004D01*
X0121904Y0101404D02*
X0121906Y0101528D01*
X0121912Y0101653D01*
X0121922Y0101777D01*
X0121936Y0101900D01*
X0121953Y0102023D01*
X0121975Y0102146D01*
X0122001Y0102268D01*
X0122030Y0102388D01*
X0122064Y0102508D01*
X0122101Y0102627D01*
X0122142Y0102744D01*
X0122186Y0102860D01*
X0122234Y0102975D01*
X0122286Y0103088D01*
X0122342Y0103199D01*
X0122401Y0103309D01*
X0122463Y0103416D01*
X0122529Y0103522D01*
X0122598Y0103625D01*
X0122671Y0103726D01*
X0122747Y0103825D01*
X0122825Y0103921D01*
X0122907Y0104015D01*
X0122992Y0104106D01*
X0123079Y0104195D01*
X0123170Y0104280D01*
X0123263Y0104363D01*
X0123359Y0104442D01*
X0123457Y0104518D01*
X0123557Y0104592D01*
X0123660Y0104662D01*
X0123765Y0104728D01*
X0123872Y0104792D01*
X0123981Y0104852D01*
X0124092Y0104908D01*
X0124204Y0104961D01*
X0124319Y0105010D01*
X0124434Y0105056D01*
X0124552Y0105097D01*
X0124670Y0105136D01*
X0124790Y0105170D01*
X0124910Y0105200D01*
X0125032Y0105227D01*
X0125154Y0105249D01*
X0125277Y0105268D01*
X0125400Y0105283D01*
X0125524Y0105294D01*
X0125649Y0105301D01*
X0125773Y0105304D01*
X0125897Y0105303D01*
X0126022Y0105298D01*
X0126146Y0105289D01*
X0126269Y0105276D01*
X0126393Y0105259D01*
X0126515Y0105239D01*
X0126637Y0105214D01*
X0126758Y0105185D01*
X0126878Y0105153D01*
X0126997Y0105117D01*
X0127115Y0105077D01*
X0127232Y0105033D01*
X0127347Y0104986D01*
X0127460Y0104935D01*
X0127572Y0104880D01*
X0127682Y0104822D01*
X0127790Y0104761D01*
X0127896Y0104696D01*
X0128000Y0104627D01*
X0128101Y0104556D01*
X0128201Y0104481D01*
X0128298Y0104403D01*
X0128392Y0104322D01*
X0128484Y0104238D01*
X0128573Y0104151D01*
X0128659Y0104061D01*
X0128742Y0103969D01*
X0128822Y0103874D01*
X0128900Y0103776D01*
X0128974Y0103676D01*
X0129045Y0103574D01*
X0129112Y0103470D01*
X0129176Y0103363D01*
X0129237Y0103254D01*
X0129294Y0103144D01*
X0129348Y0103032D01*
X0129398Y0102918D01*
X0129445Y0102803D01*
X0129487Y0102686D01*
X0129526Y0102568D01*
X0129562Y0102448D01*
X0129593Y0102328D01*
X0129620Y0102207D01*
X0129644Y0102085D01*
X0129664Y0101962D01*
X0129680Y0101838D01*
X0129692Y0101715D01*
X0129700Y0101591D01*
X0129704Y0101466D01*
X0129704Y0101342D01*
X0129700Y0101217D01*
X0129692Y0101093D01*
X0129680Y0100970D01*
X0129664Y0100846D01*
X0129644Y0100723D01*
X0129620Y0100601D01*
X0129593Y0100480D01*
X0129562Y0100360D01*
X0129526Y0100240D01*
X0129487Y0100122D01*
X0129445Y0100005D01*
X0129398Y0099890D01*
X0129348Y0099776D01*
X0129294Y0099664D01*
X0129237Y0099554D01*
X0129176Y0099445D01*
X0129112Y0099338D01*
X0129045Y0099234D01*
X0128974Y0099132D01*
X0128900Y0099032D01*
X0128822Y0098934D01*
X0128742Y0098839D01*
X0128659Y0098747D01*
X0128573Y0098657D01*
X0128484Y0098570D01*
X0128392Y0098486D01*
X0128298Y0098405D01*
X0128201Y0098327D01*
X0128101Y0098252D01*
X0128000Y0098181D01*
X0127896Y0098112D01*
X0127790Y0098047D01*
X0127682Y0097986D01*
X0127572Y0097928D01*
X0127460Y0097873D01*
X0127347Y0097822D01*
X0127232Y0097775D01*
X0127115Y0097731D01*
X0126997Y0097691D01*
X0126878Y0097655D01*
X0126758Y0097623D01*
X0126637Y0097594D01*
X0126515Y0097569D01*
X0126393Y0097549D01*
X0126269Y0097532D01*
X0126146Y0097519D01*
X0126022Y0097510D01*
X0125897Y0097505D01*
X0125773Y0097504D01*
X0125649Y0097507D01*
X0125524Y0097514D01*
X0125400Y0097525D01*
X0125277Y0097540D01*
X0125154Y0097559D01*
X0125032Y0097581D01*
X0124910Y0097608D01*
X0124790Y0097638D01*
X0124670Y0097672D01*
X0124552Y0097711D01*
X0124434Y0097752D01*
X0124319Y0097798D01*
X0124204Y0097847D01*
X0124092Y0097900D01*
X0123981Y0097956D01*
X0123872Y0098016D01*
X0123765Y0098080D01*
X0123660Y0098146D01*
X0123557Y0098216D01*
X0123457Y0098290D01*
X0123359Y0098366D01*
X0123263Y0098445D01*
X0123170Y0098528D01*
X0123079Y0098613D01*
X0122992Y0098702D01*
X0122907Y0098793D01*
X0122825Y0098887D01*
X0122747Y0098983D01*
X0122671Y0099082D01*
X0122598Y0099183D01*
X0122529Y0099286D01*
X0122463Y0099392D01*
X0122401Y0099499D01*
X0122342Y0099609D01*
X0122286Y0099720D01*
X0122234Y0099833D01*
X0122186Y0099948D01*
X0122142Y0100064D01*
X0122101Y0100181D01*
X0122064Y0100300D01*
X0122030Y0100420D01*
X0122001Y0100540D01*
X0121975Y0100662D01*
X0121953Y0100785D01*
X0121936Y0100908D01*
X0121922Y0101031D01*
X0121912Y0101155D01*
X0121906Y0101280D01*
X0121904Y0101404D01*
X0121804Y0097404D02*
X0129804Y0105404D01*
X0184904Y0119404D02*
X0184906Y0119528D01*
X0184912Y0119653D01*
X0184922Y0119777D01*
X0184936Y0119900D01*
X0184953Y0120023D01*
X0184975Y0120146D01*
X0185001Y0120268D01*
X0185030Y0120388D01*
X0185064Y0120508D01*
X0185101Y0120627D01*
X0185142Y0120744D01*
X0185186Y0120860D01*
X0185234Y0120975D01*
X0185286Y0121088D01*
X0185342Y0121199D01*
X0185401Y0121309D01*
X0185463Y0121416D01*
X0185529Y0121522D01*
X0185598Y0121625D01*
X0185671Y0121726D01*
X0185747Y0121825D01*
X0185825Y0121921D01*
X0185907Y0122015D01*
X0185992Y0122106D01*
X0186079Y0122195D01*
X0186170Y0122280D01*
X0186263Y0122363D01*
X0186359Y0122442D01*
X0186457Y0122518D01*
X0186557Y0122592D01*
X0186660Y0122662D01*
X0186765Y0122728D01*
X0186872Y0122792D01*
X0186981Y0122852D01*
X0187092Y0122908D01*
X0187204Y0122961D01*
X0187319Y0123010D01*
X0187434Y0123056D01*
X0187552Y0123097D01*
X0187670Y0123136D01*
X0187790Y0123170D01*
X0187910Y0123200D01*
X0188032Y0123227D01*
X0188154Y0123249D01*
X0188277Y0123268D01*
X0188400Y0123283D01*
X0188524Y0123294D01*
X0188649Y0123301D01*
X0188773Y0123304D01*
X0188897Y0123303D01*
X0189022Y0123298D01*
X0189146Y0123289D01*
X0189269Y0123276D01*
X0189393Y0123259D01*
X0189515Y0123239D01*
X0189637Y0123214D01*
X0189758Y0123185D01*
X0189878Y0123153D01*
X0189997Y0123117D01*
X0190115Y0123077D01*
X0190232Y0123033D01*
X0190347Y0122986D01*
X0190460Y0122935D01*
X0190572Y0122880D01*
X0190682Y0122822D01*
X0190790Y0122761D01*
X0190896Y0122696D01*
X0191000Y0122627D01*
X0191101Y0122556D01*
X0191201Y0122481D01*
X0191298Y0122403D01*
X0191392Y0122322D01*
X0191484Y0122238D01*
X0191573Y0122151D01*
X0191659Y0122061D01*
X0191742Y0121969D01*
X0191822Y0121874D01*
X0191900Y0121776D01*
X0191974Y0121676D01*
X0192045Y0121574D01*
X0192112Y0121470D01*
X0192176Y0121363D01*
X0192237Y0121254D01*
X0192294Y0121144D01*
X0192348Y0121032D01*
X0192398Y0120918D01*
X0192445Y0120803D01*
X0192487Y0120686D01*
X0192526Y0120568D01*
X0192562Y0120448D01*
X0192593Y0120328D01*
X0192620Y0120207D01*
X0192644Y0120085D01*
X0192664Y0119962D01*
X0192680Y0119838D01*
X0192692Y0119715D01*
X0192700Y0119591D01*
X0192704Y0119466D01*
X0192704Y0119342D01*
X0192700Y0119217D01*
X0192692Y0119093D01*
X0192680Y0118970D01*
X0192664Y0118846D01*
X0192644Y0118723D01*
X0192620Y0118601D01*
X0192593Y0118480D01*
X0192562Y0118360D01*
X0192526Y0118240D01*
X0192487Y0118122D01*
X0192445Y0118005D01*
X0192398Y0117890D01*
X0192348Y0117776D01*
X0192294Y0117664D01*
X0192237Y0117554D01*
X0192176Y0117445D01*
X0192112Y0117338D01*
X0192045Y0117234D01*
X0191974Y0117132D01*
X0191900Y0117032D01*
X0191822Y0116934D01*
X0191742Y0116839D01*
X0191659Y0116747D01*
X0191573Y0116657D01*
X0191484Y0116570D01*
X0191392Y0116486D01*
X0191298Y0116405D01*
X0191201Y0116327D01*
X0191101Y0116252D01*
X0191000Y0116181D01*
X0190896Y0116112D01*
X0190790Y0116047D01*
X0190682Y0115986D01*
X0190572Y0115928D01*
X0190460Y0115873D01*
X0190347Y0115822D01*
X0190232Y0115775D01*
X0190115Y0115731D01*
X0189997Y0115691D01*
X0189878Y0115655D01*
X0189758Y0115623D01*
X0189637Y0115594D01*
X0189515Y0115569D01*
X0189393Y0115549D01*
X0189269Y0115532D01*
X0189146Y0115519D01*
X0189022Y0115510D01*
X0188897Y0115505D01*
X0188773Y0115504D01*
X0188649Y0115507D01*
X0188524Y0115514D01*
X0188400Y0115525D01*
X0188277Y0115540D01*
X0188154Y0115559D01*
X0188032Y0115581D01*
X0187910Y0115608D01*
X0187790Y0115638D01*
X0187670Y0115672D01*
X0187552Y0115711D01*
X0187434Y0115752D01*
X0187319Y0115798D01*
X0187204Y0115847D01*
X0187092Y0115900D01*
X0186981Y0115956D01*
X0186872Y0116016D01*
X0186765Y0116080D01*
X0186660Y0116146D01*
X0186557Y0116216D01*
X0186457Y0116290D01*
X0186359Y0116366D01*
X0186263Y0116445D01*
X0186170Y0116528D01*
X0186079Y0116613D01*
X0185992Y0116702D01*
X0185907Y0116793D01*
X0185825Y0116887D01*
X0185747Y0116983D01*
X0185671Y0117082D01*
X0185598Y0117183D01*
X0185529Y0117286D01*
X0185463Y0117392D01*
X0185401Y0117499D01*
X0185342Y0117609D01*
X0185286Y0117720D01*
X0185234Y0117833D01*
X0185186Y0117948D01*
X0185142Y0118064D01*
X0185101Y0118181D01*
X0185064Y0118300D01*
X0185030Y0118420D01*
X0185001Y0118540D01*
X0184975Y0118662D01*
X0184953Y0118785D01*
X0184936Y0118908D01*
X0184922Y0119031D01*
X0184912Y0119155D01*
X0184906Y0119280D01*
X0184904Y0119404D01*
X0184804Y0115404D02*
X0192804Y0123404D01*
X0208304Y0107704D02*
X0208306Y0107828D01*
X0208312Y0107953D01*
X0208322Y0108077D01*
X0208336Y0108200D01*
X0208353Y0108323D01*
X0208375Y0108446D01*
X0208401Y0108568D01*
X0208430Y0108688D01*
X0208464Y0108808D01*
X0208501Y0108927D01*
X0208542Y0109044D01*
X0208586Y0109160D01*
X0208634Y0109275D01*
X0208686Y0109388D01*
X0208742Y0109499D01*
X0208801Y0109609D01*
X0208863Y0109716D01*
X0208929Y0109822D01*
X0208998Y0109925D01*
X0209071Y0110026D01*
X0209147Y0110125D01*
X0209225Y0110221D01*
X0209307Y0110315D01*
X0209392Y0110406D01*
X0209479Y0110495D01*
X0209570Y0110580D01*
X0209663Y0110663D01*
X0209759Y0110742D01*
X0209857Y0110818D01*
X0209957Y0110892D01*
X0210060Y0110962D01*
X0210165Y0111028D01*
X0210272Y0111092D01*
X0210381Y0111152D01*
X0210492Y0111208D01*
X0210604Y0111261D01*
X0210719Y0111310D01*
X0210834Y0111356D01*
X0210952Y0111397D01*
X0211070Y0111436D01*
X0211190Y0111470D01*
X0211310Y0111500D01*
X0211432Y0111527D01*
X0211554Y0111549D01*
X0211677Y0111568D01*
X0211800Y0111583D01*
X0211924Y0111594D01*
X0212049Y0111601D01*
X0212173Y0111604D01*
X0212297Y0111603D01*
X0212422Y0111598D01*
X0212546Y0111589D01*
X0212669Y0111576D01*
X0212793Y0111559D01*
X0212915Y0111539D01*
X0213037Y0111514D01*
X0213158Y0111485D01*
X0213278Y0111453D01*
X0213397Y0111417D01*
X0213515Y0111377D01*
X0213632Y0111333D01*
X0213747Y0111286D01*
X0213860Y0111235D01*
X0213972Y0111180D01*
X0214082Y0111122D01*
X0214190Y0111061D01*
X0214296Y0110996D01*
X0214400Y0110927D01*
X0214501Y0110856D01*
X0214601Y0110781D01*
X0214698Y0110703D01*
X0214792Y0110622D01*
X0214884Y0110538D01*
X0214973Y0110451D01*
X0215059Y0110361D01*
X0215142Y0110269D01*
X0215222Y0110174D01*
X0215300Y0110076D01*
X0215374Y0109976D01*
X0215445Y0109874D01*
X0215512Y0109770D01*
X0215576Y0109663D01*
X0215637Y0109554D01*
X0215694Y0109444D01*
X0215748Y0109332D01*
X0215798Y0109218D01*
X0215845Y0109103D01*
X0215887Y0108986D01*
X0215926Y0108868D01*
X0215962Y0108748D01*
X0215993Y0108628D01*
X0216020Y0108507D01*
X0216044Y0108385D01*
X0216064Y0108262D01*
X0216080Y0108138D01*
X0216092Y0108015D01*
X0216100Y0107891D01*
X0216104Y0107766D01*
X0216104Y0107642D01*
X0216100Y0107517D01*
X0216092Y0107393D01*
X0216080Y0107270D01*
X0216064Y0107146D01*
X0216044Y0107023D01*
X0216020Y0106901D01*
X0215993Y0106780D01*
X0215962Y0106660D01*
X0215926Y0106540D01*
X0215887Y0106422D01*
X0215845Y0106305D01*
X0215798Y0106190D01*
X0215748Y0106076D01*
X0215694Y0105964D01*
X0215637Y0105854D01*
X0215576Y0105745D01*
X0215512Y0105638D01*
X0215445Y0105534D01*
X0215374Y0105432D01*
X0215300Y0105332D01*
X0215222Y0105234D01*
X0215142Y0105139D01*
X0215059Y0105047D01*
X0214973Y0104957D01*
X0214884Y0104870D01*
X0214792Y0104786D01*
X0214698Y0104705D01*
X0214601Y0104627D01*
X0214501Y0104552D01*
X0214400Y0104481D01*
X0214296Y0104412D01*
X0214190Y0104347D01*
X0214082Y0104286D01*
X0213972Y0104228D01*
X0213860Y0104173D01*
X0213747Y0104122D01*
X0213632Y0104075D01*
X0213515Y0104031D01*
X0213397Y0103991D01*
X0213278Y0103955D01*
X0213158Y0103923D01*
X0213037Y0103894D01*
X0212915Y0103869D01*
X0212793Y0103849D01*
X0212669Y0103832D01*
X0212546Y0103819D01*
X0212422Y0103810D01*
X0212297Y0103805D01*
X0212173Y0103804D01*
X0212049Y0103807D01*
X0211924Y0103814D01*
X0211800Y0103825D01*
X0211677Y0103840D01*
X0211554Y0103859D01*
X0211432Y0103881D01*
X0211310Y0103908D01*
X0211190Y0103938D01*
X0211070Y0103972D01*
X0210952Y0104011D01*
X0210834Y0104052D01*
X0210719Y0104098D01*
X0210604Y0104147D01*
X0210492Y0104200D01*
X0210381Y0104256D01*
X0210272Y0104316D01*
X0210165Y0104380D01*
X0210060Y0104446D01*
X0209957Y0104516D01*
X0209857Y0104590D01*
X0209759Y0104666D01*
X0209663Y0104745D01*
X0209570Y0104828D01*
X0209479Y0104913D01*
X0209392Y0105002D01*
X0209307Y0105093D01*
X0209225Y0105187D01*
X0209147Y0105283D01*
X0209071Y0105382D01*
X0208998Y0105483D01*
X0208929Y0105586D01*
X0208863Y0105692D01*
X0208801Y0105799D01*
X0208742Y0105909D01*
X0208686Y0106020D01*
X0208634Y0106133D01*
X0208586Y0106248D01*
X0208542Y0106364D01*
X0208501Y0106481D01*
X0208464Y0106600D01*
X0208430Y0106720D01*
X0208401Y0106840D01*
X0208375Y0106962D01*
X0208353Y0107085D01*
X0208336Y0107208D01*
X0208322Y0107331D01*
X0208312Y0107455D01*
X0208306Y0107580D01*
X0208304Y0107704D01*
X0208204Y0103704D02*
X0216204Y0111704D01*
X0237104Y0095104D02*
X0237106Y0095228D01*
X0237112Y0095353D01*
X0237122Y0095477D01*
X0237136Y0095600D01*
X0237153Y0095723D01*
X0237175Y0095846D01*
X0237201Y0095968D01*
X0237230Y0096088D01*
X0237264Y0096208D01*
X0237301Y0096327D01*
X0237342Y0096444D01*
X0237386Y0096560D01*
X0237434Y0096675D01*
X0237486Y0096788D01*
X0237542Y0096899D01*
X0237601Y0097009D01*
X0237663Y0097116D01*
X0237729Y0097222D01*
X0237798Y0097325D01*
X0237871Y0097426D01*
X0237947Y0097525D01*
X0238025Y0097621D01*
X0238107Y0097715D01*
X0238192Y0097806D01*
X0238279Y0097895D01*
X0238370Y0097980D01*
X0238463Y0098063D01*
X0238559Y0098142D01*
X0238657Y0098218D01*
X0238757Y0098292D01*
X0238860Y0098362D01*
X0238965Y0098428D01*
X0239072Y0098492D01*
X0239181Y0098552D01*
X0239292Y0098608D01*
X0239404Y0098661D01*
X0239519Y0098710D01*
X0239634Y0098756D01*
X0239752Y0098797D01*
X0239870Y0098836D01*
X0239990Y0098870D01*
X0240110Y0098900D01*
X0240232Y0098927D01*
X0240354Y0098949D01*
X0240477Y0098968D01*
X0240600Y0098983D01*
X0240724Y0098994D01*
X0240849Y0099001D01*
X0240973Y0099004D01*
X0241097Y0099003D01*
X0241222Y0098998D01*
X0241346Y0098989D01*
X0241469Y0098976D01*
X0241593Y0098959D01*
X0241715Y0098939D01*
X0241837Y0098914D01*
X0241958Y0098885D01*
X0242078Y0098853D01*
X0242197Y0098817D01*
X0242315Y0098777D01*
X0242432Y0098733D01*
X0242547Y0098686D01*
X0242660Y0098635D01*
X0242772Y0098580D01*
X0242882Y0098522D01*
X0242990Y0098461D01*
X0243096Y0098396D01*
X0243200Y0098327D01*
X0243301Y0098256D01*
X0243401Y0098181D01*
X0243498Y0098103D01*
X0243592Y0098022D01*
X0243684Y0097938D01*
X0243773Y0097851D01*
X0243859Y0097761D01*
X0243942Y0097669D01*
X0244022Y0097574D01*
X0244100Y0097476D01*
X0244174Y0097376D01*
X0244245Y0097274D01*
X0244312Y0097170D01*
X0244376Y0097063D01*
X0244437Y0096954D01*
X0244494Y0096844D01*
X0244548Y0096732D01*
X0244598Y0096618D01*
X0244645Y0096503D01*
X0244687Y0096386D01*
X0244726Y0096268D01*
X0244762Y0096148D01*
X0244793Y0096028D01*
X0244820Y0095907D01*
X0244844Y0095785D01*
X0244864Y0095662D01*
X0244880Y0095538D01*
X0244892Y0095415D01*
X0244900Y0095291D01*
X0244904Y0095166D01*
X0244904Y0095042D01*
X0244900Y0094917D01*
X0244892Y0094793D01*
X0244880Y0094670D01*
X0244864Y0094546D01*
X0244844Y0094423D01*
X0244820Y0094301D01*
X0244793Y0094180D01*
X0244762Y0094060D01*
X0244726Y0093940D01*
X0244687Y0093822D01*
X0244645Y0093705D01*
X0244598Y0093590D01*
X0244548Y0093476D01*
X0244494Y0093364D01*
X0244437Y0093254D01*
X0244376Y0093145D01*
X0244312Y0093038D01*
X0244245Y0092934D01*
X0244174Y0092832D01*
X0244100Y0092732D01*
X0244022Y0092634D01*
X0243942Y0092539D01*
X0243859Y0092447D01*
X0243773Y0092357D01*
X0243684Y0092270D01*
X0243592Y0092186D01*
X0243498Y0092105D01*
X0243401Y0092027D01*
X0243301Y0091952D01*
X0243200Y0091881D01*
X0243096Y0091812D01*
X0242990Y0091747D01*
X0242882Y0091686D01*
X0242772Y0091628D01*
X0242660Y0091573D01*
X0242547Y0091522D01*
X0242432Y0091475D01*
X0242315Y0091431D01*
X0242197Y0091391D01*
X0242078Y0091355D01*
X0241958Y0091323D01*
X0241837Y0091294D01*
X0241715Y0091269D01*
X0241593Y0091249D01*
X0241469Y0091232D01*
X0241346Y0091219D01*
X0241222Y0091210D01*
X0241097Y0091205D01*
X0240973Y0091204D01*
X0240849Y0091207D01*
X0240724Y0091214D01*
X0240600Y0091225D01*
X0240477Y0091240D01*
X0240354Y0091259D01*
X0240232Y0091281D01*
X0240110Y0091308D01*
X0239990Y0091338D01*
X0239870Y0091372D01*
X0239752Y0091411D01*
X0239634Y0091452D01*
X0239519Y0091498D01*
X0239404Y0091547D01*
X0239292Y0091600D01*
X0239181Y0091656D01*
X0239072Y0091716D01*
X0238965Y0091780D01*
X0238860Y0091846D01*
X0238757Y0091916D01*
X0238657Y0091990D01*
X0238559Y0092066D01*
X0238463Y0092145D01*
X0238370Y0092228D01*
X0238279Y0092313D01*
X0238192Y0092402D01*
X0238107Y0092493D01*
X0238025Y0092587D01*
X0237947Y0092683D01*
X0237871Y0092782D01*
X0237798Y0092883D01*
X0237729Y0092986D01*
X0237663Y0093092D01*
X0237601Y0093199D01*
X0237542Y0093309D01*
X0237486Y0093420D01*
X0237434Y0093533D01*
X0237386Y0093648D01*
X0237342Y0093764D01*
X0237301Y0093881D01*
X0237264Y0094000D01*
X0237230Y0094120D01*
X0237201Y0094240D01*
X0237175Y0094362D01*
X0237153Y0094485D01*
X0237136Y0094608D01*
X0237122Y0094731D01*
X0237112Y0094855D01*
X0237106Y0094980D01*
X0237104Y0095104D01*
X0237004Y0091104D02*
X0245004Y0099104D01*
X0233504Y0091504D02*
X0233506Y0091628D01*
X0233512Y0091753D01*
X0233522Y0091877D01*
X0233536Y0092000D01*
X0233553Y0092123D01*
X0233575Y0092246D01*
X0233601Y0092368D01*
X0233630Y0092488D01*
X0233664Y0092608D01*
X0233701Y0092727D01*
X0233742Y0092844D01*
X0233786Y0092960D01*
X0233834Y0093075D01*
X0233886Y0093188D01*
X0233942Y0093299D01*
X0234001Y0093409D01*
X0234063Y0093516D01*
X0234129Y0093622D01*
X0234198Y0093725D01*
X0234271Y0093826D01*
X0234347Y0093925D01*
X0234425Y0094021D01*
X0234507Y0094115D01*
X0234592Y0094206D01*
X0234679Y0094295D01*
X0234770Y0094380D01*
X0234863Y0094463D01*
X0234959Y0094542D01*
X0235057Y0094618D01*
X0235157Y0094692D01*
X0235260Y0094762D01*
X0235365Y0094828D01*
X0235472Y0094892D01*
X0235581Y0094952D01*
X0235692Y0095008D01*
X0235804Y0095061D01*
X0235919Y0095110D01*
X0236034Y0095156D01*
X0236152Y0095197D01*
X0236270Y0095236D01*
X0236390Y0095270D01*
X0236510Y0095300D01*
X0236632Y0095327D01*
X0236754Y0095349D01*
X0236877Y0095368D01*
X0237000Y0095383D01*
X0237124Y0095394D01*
X0237249Y0095401D01*
X0237373Y0095404D01*
X0237497Y0095403D01*
X0237622Y0095398D01*
X0237746Y0095389D01*
X0237869Y0095376D01*
X0237993Y0095359D01*
X0238115Y0095339D01*
X0238237Y0095314D01*
X0238358Y0095285D01*
X0238478Y0095253D01*
X0238597Y0095217D01*
X0238715Y0095177D01*
X0238832Y0095133D01*
X0238947Y0095086D01*
X0239060Y0095035D01*
X0239172Y0094980D01*
X0239282Y0094922D01*
X0239390Y0094861D01*
X0239496Y0094796D01*
X0239600Y0094727D01*
X0239701Y0094656D01*
X0239801Y0094581D01*
X0239898Y0094503D01*
X0239992Y0094422D01*
X0240084Y0094338D01*
X0240173Y0094251D01*
X0240259Y0094161D01*
X0240342Y0094069D01*
X0240422Y0093974D01*
X0240500Y0093876D01*
X0240574Y0093776D01*
X0240645Y0093674D01*
X0240712Y0093570D01*
X0240776Y0093463D01*
X0240837Y0093354D01*
X0240894Y0093244D01*
X0240948Y0093132D01*
X0240998Y0093018D01*
X0241045Y0092903D01*
X0241087Y0092786D01*
X0241126Y0092668D01*
X0241162Y0092548D01*
X0241193Y0092428D01*
X0241220Y0092307D01*
X0241244Y0092185D01*
X0241264Y0092062D01*
X0241280Y0091938D01*
X0241292Y0091815D01*
X0241300Y0091691D01*
X0241304Y0091566D01*
X0241304Y0091442D01*
X0241300Y0091317D01*
X0241292Y0091193D01*
X0241280Y0091070D01*
X0241264Y0090946D01*
X0241244Y0090823D01*
X0241220Y0090701D01*
X0241193Y0090580D01*
X0241162Y0090460D01*
X0241126Y0090340D01*
X0241087Y0090222D01*
X0241045Y0090105D01*
X0240998Y0089990D01*
X0240948Y0089876D01*
X0240894Y0089764D01*
X0240837Y0089654D01*
X0240776Y0089545D01*
X0240712Y0089438D01*
X0240645Y0089334D01*
X0240574Y0089232D01*
X0240500Y0089132D01*
X0240422Y0089034D01*
X0240342Y0088939D01*
X0240259Y0088847D01*
X0240173Y0088757D01*
X0240084Y0088670D01*
X0239992Y0088586D01*
X0239898Y0088505D01*
X0239801Y0088427D01*
X0239701Y0088352D01*
X0239600Y0088281D01*
X0239496Y0088212D01*
X0239390Y0088147D01*
X0239282Y0088086D01*
X0239172Y0088028D01*
X0239060Y0087973D01*
X0238947Y0087922D01*
X0238832Y0087875D01*
X0238715Y0087831D01*
X0238597Y0087791D01*
X0238478Y0087755D01*
X0238358Y0087723D01*
X0238237Y0087694D01*
X0238115Y0087669D01*
X0237993Y0087649D01*
X0237869Y0087632D01*
X0237746Y0087619D01*
X0237622Y0087610D01*
X0237497Y0087605D01*
X0237373Y0087604D01*
X0237249Y0087607D01*
X0237124Y0087614D01*
X0237000Y0087625D01*
X0236877Y0087640D01*
X0236754Y0087659D01*
X0236632Y0087681D01*
X0236510Y0087708D01*
X0236390Y0087738D01*
X0236270Y0087772D01*
X0236152Y0087811D01*
X0236034Y0087852D01*
X0235919Y0087898D01*
X0235804Y0087947D01*
X0235692Y0088000D01*
X0235581Y0088056D01*
X0235472Y0088116D01*
X0235365Y0088180D01*
X0235260Y0088246D01*
X0235157Y0088316D01*
X0235057Y0088390D01*
X0234959Y0088466D01*
X0234863Y0088545D01*
X0234770Y0088628D01*
X0234679Y0088713D01*
X0234592Y0088802D01*
X0234507Y0088893D01*
X0234425Y0088987D01*
X0234347Y0089083D01*
X0234271Y0089182D01*
X0234198Y0089283D01*
X0234129Y0089386D01*
X0234063Y0089492D01*
X0234001Y0089599D01*
X0233942Y0089709D01*
X0233886Y0089820D01*
X0233834Y0089933D01*
X0233786Y0090048D01*
X0233742Y0090164D01*
X0233701Y0090281D01*
X0233664Y0090400D01*
X0233630Y0090520D01*
X0233601Y0090640D01*
X0233575Y0090762D01*
X0233553Y0090885D01*
X0233536Y0091008D01*
X0233522Y0091131D01*
X0233512Y0091255D01*
X0233506Y0091380D01*
X0233504Y0091504D01*
X0233404Y0087504D02*
X0241404Y0095504D01*
X0207404Y0077104D02*
X0207406Y0077228D01*
X0207412Y0077353D01*
X0207422Y0077477D01*
X0207436Y0077600D01*
X0207453Y0077723D01*
X0207475Y0077846D01*
X0207501Y0077968D01*
X0207530Y0078088D01*
X0207564Y0078208D01*
X0207601Y0078327D01*
X0207642Y0078444D01*
X0207686Y0078560D01*
X0207734Y0078675D01*
X0207786Y0078788D01*
X0207842Y0078899D01*
X0207901Y0079009D01*
X0207963Y0079116D01*
X0208029Y0079222D01*
X0208098Y0079325D01*
X0208171Y0079426D01*
X0208247Y0079525D01*
X0208325Y0079621D01*
X0208407Y0079715D01*
X0208492Y0079806D01*
X0208579Y0079895D01*
X0208670Y0079980D01*
X0208763Y0080063D01*
X0208859Y0080142D01*
X0208957Y0080218D01*
X0209057Y0080292D01*
X0209160Y0080362D01*
X0209265Y0080428D01*
X0209372Y0080492D01*
X0209481Y0080552D01*
X0209592Y0080608D01*
X0209704Y0080661D01*
X0209819Y0080710D01*
X0209934Y0080756D01*
X0210052Y0080797D01*
X0210170Y0080836D01*
X0210290Y0080870D01*
X0210410Y0080900D01*
X0210532Y0080927D01*
X0210654Y0080949D01*
X0210777Y0080968D01*
X0210900Y0080983D01*
X0211024Y0080994D01*
X0211149Y0081001D01*
X0211273Y0081004D01*
X0211397Y0081003D01*
X0211522Y0080998D01*
X0211646Y0080989D01*
X0211769Y0080976D01*
X0211893Y0080959D01*
X0212015Y0080939D01*
X0212137Y0080914D01*
X0212258Y0080885D01*
X0212378Y0080853D01*
X0212497Y0080817D01*
X0212615Y0080777D01*
X0212732Y0080733D01*
X0212847Y0080686D01*
X0212960Y0080635D01*
X0213072Y0080580D01*
X0213182Y0080522D01*
X0213290Y0080461D01*
X0213396Y0080396D01*
X0213500Y0080327D01*
X0213601Y0080256D01*
X0213701Y0080181D01*
X0213798Y0080103D01*
X0213892Y0080022D01*
X0213984Y0079938D01*
X0214073Y0079851D01*
X0214159Y0079761D01*
X0214242Y0079669D01*
X0214322Y0079574D01*
X0214400Y0079476D01*
X0214474Y0079376D01*
X0214545Y0079274D01*
X0214612Y0079170D01*
X0214676Y0079063D01*
X0214737Y0078954D01*
X0214794Y0078844D01*
X0214848Y0078732D01*
X0214898Y0078618D01*
X0214945Y0078503D01*
X0214987Y0078386D01*
X0215026Y0078268D01*
X0215062Y0078148D01*
X0215093Y0078028D01*
X0215120Y0077907D01*
X0215144Y0077785D01*
X0215164Y0077662D01*
X0215180Y0077538D01*
X0215192Y0077415D01*
X0215200Y0077291D01*
X0215204Y0077166D01*
X0215204Y0077042D01*
X0215200Y0076917D01*
X0215192Y0076793D01*
X0215180Y0076670D01*
X0215164Y0076546D01*
X0215144Y0076423D01*
X0215120Y0076301D01*
X0215093Y0076180D01*
X0215062Y0076060D01*
X0215026Y0075940D01*
X0214987Y0075822D01*
X0214945Y0075705D01*
X0214898Y0075590D01*
X0214848Y0075476D01*
X0214794Y0075364D01*
X0214737Y0075254D01*
X0214676Y0075145D01*
X0214612Y0075038D01*
X0214545Y0074934D01*
X0214474Y0074832D01*
X0214400Y0074732D01*
X0214322Y0074634D01*
X0214242Y0074539D01*
X0214159Y0074447D01*
X0214073Y0074357D01*
X0213984Y0074270D01*
X0213892Y0074186D01*
X0213798Y0074105D01*
X0213701Y0074027D01*
X0213601Y0073952D01*
X0213500Y0073881D01*
X0213396Y0073812D01*
X0213290Y0073747D01*
X0213182Y0073686D01*
X0213072Y0073628D01*
X0212960Y0073573D01*
X0212847Y0073522D01*
X0212732Y0073475D01*
X0212615Y0073431D01*
X0212497Y0073391D01*
X0212378Y0073355D01*
X0212258Y0073323D01*
X0212137Y0073294D01*
X0212015Y0073269D01*
X0211893Y0073249D01*
X0211769Y0073232D01*
X0211646Y0073219D01*
X0211522Y0073210D01*
X0211397Y0073205D01*
X0211273Y0073204D01*
X0211149Y0073207D01*
X0211024Y0073214D01*
X0210900Y0073225D01*
X0210777Y0073240D01*
X0210654Y0073259D01*
X0210532Y0073281D01*
X0210410Y0073308D01*
X0210290Y0073338D01*
X0210170Y0073372D01*
X0210052Y0073411D01*
X0209934Y0073452D01*
X0209819Y0073498D01*
X0209704Y0073547D01*
X0209592Y0073600D01*
X0209481Y0073656D01*
X0209372Y0073716D01*
X0209265Y0073780D01*
X0209160Y0073846D01*
X0209057Y0073916D01*
X0208957Y0073990D01*
X0208859Y0074066D01*
X0208763Y0074145D01*
X0208670Y0074228D01*
X0208579Y0074313D01*
X0208492Y0074402D01*
X0208407Y0074493D01*
X0208325Y0074587D01*
X0208247Y0074683D01*
X0208171Y0074782D01*
X0208098Y0074883D01*
X0208029Y0074986D01*
X0207963Y0075092D01*
X0207901Y0075199D01*
X0207842Y0075309D01*
X0207786Y0075420D01*
X0207734Y0075533D01*
X0207686Y0075648D01*
X0207642Y0075764D01*
X0207601Y0075881D01*
X0207564Y0076000D01*
X0207530Y0076120D01*
X0207501Y0076240D01*
X0207475Y0076362D01*
X0207453Y0076485D01*
X0207436Y0076608D01*
X0207422Y0076731D01*
X0207412Y0076855D01*
X0207406Y0076980D01*
X0207404Y0077104D01*
X0207304Y0073104D02*
X0215304Y0081104D01*
X0229004Y0069904D02*
X0229006Y0070028D01*
X0229012Y0070153D01*
X0229022Y0070277D01*
X0229036Y0070400D01*
X0229053Y0070523D01*
X0229075Y0070646D01*
X0229101Y0070768D01*
X0229130Y0070888D01*
X0229164Y0071008D01*
X0229201Y0071127D01*
X0229242Y0071244D01*
X0229286Y0071360D01*
X0229334Y0071475D01*
X0229386Y0071588D01*
X0229442Y0071699D01*
X0229501Y0071809D01*
X0229563Y0071916D01*
X0229629Y0072022D01*
X0229698Y0072125D01*
X0229771Y0072226D01*
X0229847Y0072325D01*
X0229925Y0072421D01*
X0230007Y0072515D01*
X0230092Y0072606D01*
X0230179Y0072695D01*
X0230270Y0072780D01*
X0230363Y0072863D01*
X0230459Y0072942D01*
X0230557Y0073018D01*
X0230657Y0073092D01*
X0230760Y0073162D01*
X0230865Y0073228D01*
X0230972Y0073292D01*
X0231081Y0073352D01*
X0231192Y0073408D01*
X0231304Y0073461D01*
X0231419Y0073510D01*
X0231534Y0073556D01*
X0231652Y0073597D01*
X0231770Y0073636D01*
X0231890Y0073670D01*
X0232010Y0073700D01*
X0232132Y0073727D01*
X0232254Y0073749D01*
X0232377Y0073768D01*
X0232500Y0073783D01*
X0232624Y0073794D01*
X0232749Y0073801D01*
X0232873Y0073804D01*
X0232997Y0073803D01*
X0233122Y0073798D01*
X0233246Y0073789D01*
X0233369Y0073776D01*
X0233493Y0073759D01*
X0233615Y0073739D01*
X0233737Y0073714D01*
X0233858Y0073685D01*
X0233978Y0073653D01*
X0234097Y0073617D01*
X0234215Y0073577D01*
X0234332Y0073533D01*
X0234447Y0073486D01*
X0234560Y0073435D01*
X0234672Y0073380D01*
X0234782Y0073322D01*
X0234890Y0073261D01*
X0234996Y0073196D01*
X0235100Y0073127D01*
X0235201Y0073056D01*
X0235301Y0072981D01*
X0235398Y0072903D01*
X0235492Y0072822D01*
X0235584Y0072738D01*
X0235673Y0072651D01*
X0235759Y0072561D01*
X0235842Y0072469D01*
X0235922Y0072374D01*
X0236000Y0072276D01*
X0236074Y0072176D01*
X0236145Y0072074D01*
X0236212Y0071970D01*
X0236276Y0071863D01*
X0236337Y0071754D01*
X0236394Y0071644D01*
X0236448Y0071532D01*
X0236498Y0071418D01*
X0236545Y0071303D01*
X0236587Y0071186D01*
X0236626Y0071068D01*
X0236662Y0070948D01*
X0236693Y0070828D01*
X0236720Y0070707D01*
X0236744Y0070585D01*
X0236764Y0070462D01*
X0236780Y0070338D01*
X0236792Y0070215D01*
X0236800Y0070091D01*
X0236804Y0069966D01*
X0236804Y0069842D01*
X0236800Y0069717D01*
X0236792Y0069593D01*
X0236780Y0069470D01*
X0236764Y0069346D01*
X0236744Y0069223D01*
X0236720Y0069101D01*
X0236693Y0068980D01*
X0236662Y0068860D01*
X0236626Y0068740D01*
X0236587Y0068622D01*
X0236545Y0068505D01*
X0236498Y0068390D01*
X0236448Y0068276D01*
X0236394Y0068164D01*
X0236337Y0068054D01*
X0236276Y0067945D01*
X0236212Y0067838D01*
X0236145Y0067734D01*
X0236074Y0067632D01*
X0236000Y0067532D01*
X0235922Y0067434D01*
X0235842Y0067339D01*
X0235759Y0067247D01*
X0235673Y0067157D01*
X0235584Y0067070D01*
X0235492Y0066986D01*
X0235398Y0066905D01*
X0235301Y0066827D01*
X0235201Y0066752D01*
X0235100Y0066681D01*
X0234996Y0066612D01*
X0234890Y0066547D01*
X0234782Y0066486D01*
X0234672Y0066428D01*
X0234560Y0066373D01*
X0234447Y0066322D01*
X0234332Y0066275D01*
X0234215Y0066231D01*
X0234097Y0066191D01*
X0233978Y0066155D01*
X0233858Y0066123D01*
X0233737Y0066094D01*
X0233615Y0066069D01*
X0233493Y0066049D01*
X0233369Y0066032D01*
X0233246Y0066019D01*
X0233122Y0066010D01*
X0232997Y0066005D01*
X0232873Y0066004D01*
X0232749Y0066007D01*
X0232624Y0066014D01*
X0232500Y0066025D01*
X0232377Y0066040D01*
X0232254Y0066059D01*
X0232132Y0066081D01*
X0232010Y0066108D01*
X0231890Y0066138D01*
X0231770Y0066172D01*
X0231652Y0066211D01*
X0231534Y0066252D01*
X0231419Y0066298D01*
X0231304Y0066347D01*
X0231192Y0066400D01*
X0231081Y0066456D01*
X0230972Y0066516D01*
X0230865Y0066580D01*
X0230760Y0066646D01*
X0230657Y0066716D01*
X0230557Y0066790D01*
X0230459Y0066866D01*
X0230363Y0066945D01*
X0230270Y0067028D01*
X0230179Y0067113D01*
X0230092Y0067202D01*
X0230007Y0067293D01*
X0229925Y0067387D01*
X0229847Y0067483D01*
X0229771Y0067582D01*
X0229698Y0067683D01*
X0229629Y0067786D01*
X0229563Y0067892D01*
X0229501Y0067999D01*
X0229442Y0068109D01*
X0229386Y0068220D01*
X0229334Y0068333D01*
X0229286Y0068448D01*
X0229242Y0068564D01*
X0229201Y0068681D01*
X0229164Y0068800D01*
X0229130Y0068920D01*
X0229101Y0069040D01*
X0229075Y0069162D01*
X0229053Y0069285D01*
X0229036Y0069408D01*
X0229022Y0069531D01*
X0229012Y0069655D01*
X0229006Y0069780D01*
X0229004Y0069904D01*
X0228904Y0065904D02*
X0236904Y0073904D01*
X0259604Y0060004D02*
X0259606Y0060128D01*
X0259612Y0060253D01*
X0259622Y0060377D01*
X0259636Y0060500D01*
X0259653Y0060623D01*
X0259675Y0060746D01*
X0259701Y0060868D01*
X0259730Y0060988D01*
X0259764Y0061108D01*
X0259801Y0061227D01*
X0259842Y0061344D01*
X0259886Y0061460D01*
X0259934Y0061575D01*
X0259986Y0061688D01*
X0260042Y0061799D01*
X0260101Y0061909D01*
X0260163Y0062016D01*
X0260229Y0062122D01*
X0260298Y0062225D01*
X0260371Y0062326D01*
X0260447Y0062425D01*
X0260525Y0062521D01*
X0260607Y0062615D01*
X0260692Y0062706D01*
X0260779Y0062795D01*
X0260870Y0062880D01*
X0260963Y0062963D01*
X0261059Y0063042D01*
X0261157Y0063118D01*
X0261257Y0063192D01*
X0261360Y0063262D01*
X0261465Y0063328D01*
X0261572Y0063392D01*
X0261681Y0063452D01*
X0261792Y0063508D01*
X0261904Y0063561D01*
X0262019Y0063610D01*
X0262134Y0063656D01*
X0262252Y0063697D01*
X0262370Y0063736D01*
X0262490Y0063770D01*
X0262610Y0063800D01*
X0262732Y0063827D01*
X0262854Y0063849D01*
X0262977Y0063868D01*
X0263100Y0063883D01*
X0263224Y0063894D01*
X0263349Y0063901D01*
X0263473Y0063904D01*
X0263597Y0063903D01*
X0263722Y0063898D01*
X0263846Y0063889D01*
X0263969Y0063876D01*
X0264093Y0063859D01*
X0264215Y0063839D01*
X0264337Y0063814D01*
X0264458Y0063785D01*
X0264578Y0063753D01*
X0264697Y0063717D01*
X0264815Y0063677D01*
X0264932Y0063633D01*
X0265047Y0063586D01*
X0265160Y0063535D01*
X0265272Y0063480D01*
X0265382Y0063422D01*
X0265490Y0063361D01*
X0265596Y0063296D01*
X0265700Y0063227D01*
X0265801Y0063156D01*
X0265901Y0063081D01*
X0265998Y0063003D01*
X0266092Y0062922D01*
X0266184Y0062838D01*
X0266273Y0062751D01*
X0266359Y0062661D01*
X0266442Y0062569D01*
X0266522Y0062474D01*
X0266600Y0062376D01*
X0266674Y0062276D01*
X0266745Y0062174D01*
X0266812Y0062070D01*
X0266876Y0061963D01*
X0266937Y0061854D01*
X0266994Y0061744D01*
X0267048Y0061632D01*
X0267098Y0061518D01*
X0267145Y0061403D01*
X0267187Y0061286D01*
X0267226Y0061168D01*
X0267262Y0061048D01*
X0267293Y0060928D01*
X0267320Y0060807D01*
X0267344Y0060685D01*
X0267364Y0060562D01*
X0267380Y0060438D01*
X0267392Y0060315D01*
X0267400Y0060191D01*
X0267404Y0060066D01*
X0267404Y0059942D01*
X0267400Y0059817D01*
X0267392Y0059693D01*
X0267380Y0059570D01*
X0267364Y0059446D01*
X0267344Y0059323D01*
X0267320Y0059201D01*
X0267293Y0059080D01*
X0267262Y0058960D01*
X0267226Y0058840D01*
X0267187Y0058722D01*
X0267145Y0058605D01*
X0267098Y0058490D01*
X0267048Y0058376D01*
X0266994Y0058264D01*
X0266937Y0058154D01*
X0266876Y0058045D01*
X0266812Y0057938D01*
X0266745Y0057834D01*
X0266674Y0057732D01*
X0266600Y0057632D01*
X0266522Y0057534D01*
X0266442Y0057439D01*
X0266359Y0057347D01*
X0266273Y0057257D01*
X0266184Y0057170D01*
X0266092Y0057086D01*
X0265998Y0057005D01*
X0265901Y0056927D01*
X0265801Y0056852D01*
X0265700Y0056781D01*
X0265596Y0056712D01*
X0265490Y0056647D01*
X0265382Y0056586D01*
X0265272Y0056528D01*
X0265160Y0056473D01*
X0265047Y0056422D01*
X0264932Y0056375D01*
X0264815Y0056331D01*
X0264697Y0056291D01*
X0264578Y0056255D01*
X0264458Y0056223D01*
X0264337Y0056194D01*
X0264215Y0056169D01*
X0264093Y0056149D01*
X0263969Y0056132D01*
X0263846Y0056119D01*
X0263722Y0056110D01*
X0263597Y0056105D01*
X0263473Y0056104D01*
X0263349Y0056107D01*
X0263224Y0056114D01*
X0263100Y0056125D01*
X0262977Y0056140D01*
X0262854Y0056159D01*
X0262732Y0056181D01*
X0262610Y0056208D01*
X0262490Y0056238D01*
X0262370Y0056272D01*
X0262252Y0056311D01*
X0262134Y0056352D01*
X0262019Y0056398D01*
X0261904Y0056447D01*
X0261792Y0056500D01*
X0261681Y0056556D01*
X0261572Y0056616D01*
X0261465Y0056680D01*
X0261360Y0056746D01*
X0261257Y0056816D01*
X0261157Y0056890D01*
X0261059Y0056966D01*
X0260963Y0057045D01*
X0260870Y0057128D01*
X0260779Y0057213D01*
X0260692Y0057302D01*
X0260607Y0057393D01*
X0260525Y0057487D01*
X0260447Y0057583D01*
X0260371Y0057682D01*
X0260298Y0057783D01*
X0260229Y0057886D01*
X0260163Y0057992D01*
X0260101Y0058099D01*
X0260042Y0058209D01*
X0259986Y0058320D01*
X0259934Y0058433D01*
X0259886Y0058548D01*
X0259842Y0058664D01*
X0259801Y0058781D01*
X0259764Y0058900D01*
X0259730Y0059020D01*
X0259701Y0059140D01*
X0259675Y0059262D01*
X0259653Y0059385D01*
X0259636Y0059508D01*
X0259622Y0059631D01*
X0259612Y0059755D01*
X0259606Y0059880D01*
X0259604Y0060004D01*
X0259504Y0056004D02*
X0267504Y0064004D01*
X0273104Y0057304D02*
X0273106Y0057428D01*
X0273112Y0057553D01*
X0273122Y0057677D01*
X0273136Y0057800D01*
X0273153Y0057923D01*
X0273175Y0058046D01*
X0273201Y0058168D01*
X0273230Y0058288D01*
X0273264Y0058408D01*
X0273301Y0058527D01*
X0273342Y0058644D01*
X0273386Y0058760D01*
X0273434Y0058875D01*
X0273486Y0058988D01*
X0273542Y0059099D01*
X0273601Y0059209D01*
X0273663Y0059316D01*
X0273729Y0059422D01*
X0273798Y0059525D01*
X0273871Y0059626D01*
X0273947Y0059725D01*
X0274025Y0059821D01*
X0274107Y0059915D01*
X0274192Y0060006D01*
X0274279Y0060095D01*
X0274370Y0060180D01*
X0274463Y0060263D01*
X0274559Y0060342D01*
X0274657Y0060418D01*
X0274757Y0060492D01*
X0274860Y0060562D01*
X0274965Y0060628D01*
X0275072Y0060692D01*
X0275181Y0060752D01*
X0275292Y0060808D01*
X0275404Y0060861D01*
X0275519Y0060910D01*
X0275634Y0060956D01*
X0275752Y0060997D01*
X0275870Y0061036D01*
X0275990Y0061070D01*
X0276110Y0061100D01*
X0276232Y0061127D01*
X0276354Y0061149D01*
X0276477Y0061168D01*
X0276600Y0061183D01*
X0276724Y0061194D01*
X0276849Y0061201D01*
X0276973Y0061204D01*
X0277097Y0061203D01*
X0277222Y0061198D01*
X0277346Y0061189D01*
X0277469Y0061176D01*
X0277593Y0061159D01*
X0277715Y0061139D01*
X0277837Y0061114D01*
X0277958Y0061085D01*
X0278078Y0061053D01*
X0278197Y0061017D01*
X0278315Y0060977D01*
X0278432Y0060933D01*
X0278547Y0060886D01*
X0278660Y0060835D01*
X0278772Y0060780D01*
X0278882Y0060722D01*
X0278990Y0060661D01*
X0279096Y0060596D01*
X0279200Y0060527D01*
X0279301Y0060456D01*
X0279401Y0060381D01*
X0279498Y0060303D01*
X0279592Y0060222D01*
X0279684Y0060138D01*
X0279773Y0060051D01*
X0279859Y0059961D01*
X0279942Y0059869D01*
X0280022Y0059774D01*
X0280100Y0059676D01*
X0280174Y0059576D01*
X0280245Y0059474D01*
X0280312Y0059370D01*
X0280376Y0059263D01*
X0280437Y0059154D01*
X0280494Y0059044D01*
X0280548Y0058932D01*
X0280598Y0058818D01*
X0280645Y0058703D01*
X0280687Y0058586D01*
X0280726Y0058468D01*
X0280762Y0058348D01*
X0280793Y0058228D01*
X0280820Y0058107D01*
X0280844Y0057985D01*
X0280864Y0057862D01*
X0280880Y0057738D01*
X0280892Y0057615D01*
X0280900Y0057491D01*
X0280904Y0057366D01*
X0280904Y0057242D01*
X0280900Y0057117D01*
X0280892Y0056993D01*
X0280880Y0056870D01*
X0280864Y0056746D01*
X0280844Y0056623D01*
X0280820Y0056501D01*
X0280793Y0056380D01*
X0280762Y0056260D01*
X0280726Y0056140D01*
X0280687Y0056022D01*
X0280645Y0055905D01*
X0280598Y0055790D01*
X0280548Y0055676D01*
X0280494Y0055564D01*
X0280437Y0055454D01*
X0280376Y0055345D01*
X0280312Y0055238D01*
X0280245Y0055134D01*
X0280174Y0055032D01*
X0280100Y0054932D01*
X0280022Y0054834D01*
X0279942Y0054739D01*
X0279859Y0054647D01*
X0279773Y0054557D01*
X0279684Y0054470D01*
X0279592Y0054386D01*
X0279498Y0054305D01*
X0279401Y0054227D01*
X0279301Y0054152D01*
X0279200Y0054081D01*
X0279096Y0054012D01*
X0278990Y0053947D01*
X0278882Y0053886D01*
X0278772Y0053828D01*
X0278660Y0053773D01*
X0278547Y0053722D01*
X0278432Y0053675D01*
X0278315Y0053631D01*
X0278197Y0053591D01*
X0278078Y0053555D01*
X0277958Y0053523D01*
X0277837Y0053494D01*
X0277715Y0053469D01*
X0277593Y0053449D01*
X0277469Y0053432D01*
X0277346Y0053419D01*
X0277222Y0053410D01*
X0277097Y0053405D01*
X0276973Y0053404D01*
X0276849Y0053407D01*
X0276724Y0053414D01*
X0276600Y0053425D01*
X0276477Y0053440D01*
X0276354Y0053459D01*
X0276232Y0053481D01*
X0276110Y0053508D01*
X0275990Y0053538D01*
X0275870Y0053572D01*
X0275752Y0053611D01*
X0275634Y0053652D01*
X0275519Y0053698D01*
X0275404Y0053747D01*
X0275292Y0053800D01*
X0275181Y0053856D01*
X0275072Y0053916D01*
X0274965Y0053980D01*
X0274860Y0054046D01*
X0274757Y0054116D01*
X0274657Y0054190D01*
X0274559Y0054266D01*
X0274463Y0054345D01*
X0274370Y0054428D01*
X0274279Y0054513D01*
X0274192Y0054602D01*
X0274107Y0054693D01*
X0274025Y0054787D01*
X0273947Y0054883D01*
X0273871Y0054982D01*
X0273798Y0055083D01*
X0273729Y0055186D01*
X0273663Y0055292D01*
X0273601Y0055399D01*
X0273542Y0055509D01*
X0273486Y0055620D01*
X0273434Y0055733D01*
X0273386Y0055848D01*
X0273342Y0055964D01*
X0273301Y0056081D01*
X0273264Y0056200D01*
X0273230Y0056320D01*
X0273201Y0056440D01*
X0273175Y0056562D01*
X0273153Y0056685D01*
X0273136Y0056808D01*
X0273122Y0056931D01*
X0273112Y0057055D01*
X0273106Y0057180D01*
X0273104Y0057304D01*
X0273004Y0053304D02*
X0281004Y0061304D01*
X0267704Y0051904D02*
X0267706Y0052028D01*
X0267712Y0052153D01*
X0267722Y0052277D01*
X0267736Y0052400D01*
X0267753Y0052523D01*
X0267775Y0052646D01*
X0267801Y0052768D01*
X0267830Y0052888D01*
X0267864Y0053008D01*
X0267901Y0053127D01*
X0267942Y0053244D01*
X0267986Y0053360D01*
X0268034Y0053475D01*
X0268086Y0053588D01*
X0268142Y0053699D01*
X0268201Y0053809D01*
X0268263Y0053916D01*
X0268329Y0054022D01*
X0268398Y0054125D01*
X0268471Y0054226D01*
X0268547Y0054325D01*
X0268625Y0054421D01*
X0268707Y0054515D01*
X0268792Y0054606D01*
X0268879Y0054695D01*
X0268970Y0054780D01*
X0269063Y0054863D01*
X0269159Y0054942D01*
X0269257Y0055018D01*
X0269357Y0055092D01*
X0269460Y0055162D01*
X0269565Y0055228D01*
X0269672Y0055292D01*
X0269781Y0055352D01*
X0269892Y0055408D01*
X0270004Y0055461D01*
X0270119Y0055510D01*
X0270234Y0055556D01*
X0270352Y0055597D01*
X0270470Y0055636D01*
X0270590Y0055670D01*
X0270710Y0055700D01*
X0270832Y0055727D01*
X0270954Y0055749D01*
X0271077Y0055768D01*
X0271200Y0055783D01*
X0271324Y0055794D01*
X0271449Y0055801D01*
X0271573Y0055804D01*
X0271697Y0055803D01*
X0271822Y0055798D01*
X0271946Y0055789D01*
X0272069Y0055776D01*
X0272193Y0055759D01*
X0272315Y0055739D01*
X0272437Y0055714D01*
X0272558Y0055685D01*
X0272678Y0055653D01*
X0272797Y0055617D01*
X0272915Y0055577D01*
X0273032Y0055533D01*
X0273147Y0055486D01*
X0273260Y0055435D01*
X0273372Y0055380D01*
X0273482Y0055322D01*
X0273590Y0055261D01*
X0273696Y0055196D01*
X0273800Y0055127D01*
X0273901Y0055056D01*
X0274001Y0054981D01*
X0274098Y0054903D01*
X0274192Y0054822D01*
X0274284Y0054738D01*
X0274373Y0054651D01*
X0274459Y0054561D01*
X0274542Y0054469D01*
X0274622Y0054374D01*
X0274700Y0054276D01*
X0274774Y0054176D01*
X0274845Y0054074D01*
X0274912Y0053970D01*
X0274976Y0053863D01*
X0275037Y0053754D01*
X0275094Y0053644D01*
X0275148Y0053532D01*
X0275198Y0053418D01*
X0275245Y0053303D01*
X0275287Y0053186D01*
X0275326Y0053068D01*
X0275362Y0052948D01*
X0275393Y0052828D01*
X0275420Y0052707D01*
X0275444Y0052585D01*
X0275464Y0052462D01*
X0275480Y0052338D01*
X0275492Y0052215D01*
X0275500Y0052091D01*
X0275504Y0051966D01*
X0275504Y0051842D01*
X0275500Y0051717D01*
X0275492Y0051593D01*
X0275480Y0051470D01*
X0275464Y0051346D01*
X0275444Y0051223D01*
X0275420Y0051101D01*
X0275393Y0050980D01*
X0275362Y0050860D01*
X0275326Y0050740D01*
X0275287Y0050622D01*
X0275245Y0050505D01*
X0275198Y0050390D01*
X0275148Y0050276D01*
X0275094Y0050164D01*
X0275037Y0050054D01*
X0274976Y0049945D01*
X0274912Y0049838D01*
X0274845Y0049734D01*
X0274774Y0049632D01*
X0274700Y0049532D01*
X0274622Y0049434D01*
X0274542Y0049339D01*
X0274459Y0049247D01*
X0274373Y0049157D01*
X0274284Y0049070D01*
X0274192Y0048986D01*
X0274098Y0048905D01*
X0274001Y0048827D01*
X0273901Y0048752D01*
X0273800Y0048681D01*
X0273696Y0048612D01*
X0273590Y0048547D01*
X0273482Y0048486D01*
X0273372Y0048428D01*
X0273260Y0048373D01*
X0273147Y0048322D01*
X0273032Y0048275D01*
X0272915Y0048231D01*
X0272797Y0048191D01*
X0272678Y0048155D01*
X0272558Y0048123D01*
X0272437Y0048094D01*
X0272315Y0048069D01*
X0272193Y0048049D01*
X0272069Y0048032D01*
X0271946Y0048019D01*
X0271822Y0048010D01*
X0271697Y0048005D01*
X0271573Y0048004D01*
X0271449Y0048007D01*
X0271324Y0048014D01*
X0271200Y0048025D01*
X0271077Y0048040D01*
X0270954Y0048059D01*
X0270832Y0048081D01*
X0270710Y0048108D01*
X0270590Y0048138D01*
X0270470Y0048172D01*
X0270352Y0048211D01*
X0270234Y0048252D01*
X0270119Y0048298D01*
X0270004Y0048347D01*
X0269892Y0048400D01*
X0269781Y0048456D01*
X0269672Y0048516D01*
X0269565Y0048580D01*
X0269460Y0048646D01*
X0269357Y0048716D01*
X0269257Y0048790D01*
X0269159Y0048866D01*
X0269063Y0048945D01*
X0268970Y0049028D01*
X0268879Y0049113D01*
X0268792Y0049202D01*
X0268707Y0049293D01*
X0268625Y0049387D01*
X0268547Y0049483D01*
X0268471Y0049582D01*
X0268398Y0049683D01*
X0268329Y0049786D01*
X0268263Y0049892D01*
X0268201Y0049999D01*
X0268142Y0050109D01*
X0268086Y0050220D01*
X0268034Y0050333D01*
X0267986Y0050448D01*
X0267942Y0050564D01*
X0267901Y0050681D01*
X0267864Y0050800D01*
X0267830Y0050920D01*
X0267801Y0051040D01*
X0267775Y0051162D01*
X0267753Y0051285D01*
X0267736Y0051408D01*
X0267722Y0051531D01*
X0267712Y0051655D01*
X0267706Y0051780D01*
X0267704Y0051904D01*
X0267604Y0047904D02*
X0275604Y0055904D01*
X0272404Y0045404D02*
X0280404Y0037404D01*
X0272404Y0037404D02*
X0280404Y0045404D01*
X0265404Y0037404D02*
X0257404Y0045404D01*
X0257404Y0037404D02*
X0265404Y0045404D01*
X0229904Y0039304D02*
X0229906Y0039428D01*
X0229912Y0039553D01*
X0229922Y0039677D01*
X0229936Y0039800D01*
X0229953Y0039923D01*
X0229975Y0040046D01*
X0230001Y0040168D01*
X0230030Y0040288D01*
X0230064Y0040408D01*
X0230101Y0040527D01*
X0230142Y0040644D01*
X0230186Y0040760D01*
X0230234Y0040875D01*
X0230286Y0040988D01*
X0230342Y0041099D01*
X0230401Y0041209D01*
X0230463Y0041316D01*
X0230529Y0041422D01*
X0230598Y0041525D01*
X0230671Y0041626D01*
X0230747Y0041725D01*
X0230825Y0041821D01*
X0230907Y0041915D01*
X0230992Y0042006D01*
X0231079Y0042095D01*
X0231170Y0042180D01*
X0231263Y0042263D01*
X0231359Y0042342D01*
X0231457Y0042418D01*
X0231557Y0042492D01*
X0231660Y0042562D01*
X0231765Y0042628D01*
X0231872Y0042692D01*
X0231981Y0042752D01*
X0232092Y0042808D01*
X0232204Y0042861D01*
X0232319Y0042910D01*
X0232434Y0042956D01*
X0232552Y0042997D01*
X0232670Y0043036D01*
X0232790Y0043070D01*
X0232910Y0043100D01*
X0233032Y0043127D01*
X0233154Y0043149D01*
X0233277Y0043168D01*
X0233400Y0043183D01*
X0233524Y0043194D01*
X0233649Y0043201D01*
X0233773Y0043204D01*
X0233897Y0043203D01*
X0234022Y0043198D01*
X0234146Y0043189D01*
X0234269Y0043176D01*
X0234393Y0043159D01*
X0234515Y0043139D01*
X0234637Y0043114D01*
X0234758Y0043085D01*
X0234878Y0043053D01*
X0234997Y0043017D01*
X0235115Y0042977D01*
X0235232Y0042933D01*
X0235347Y0042886D01*
X0235460Y0042835D01*
X0235572Y0042780D01*
X0235682Y0042722D01*
X0235790Y0042661D01*
X0235896Y0042596D01*
X0236000Y0042527D01*
X0236101Y0042456D01*
X0236201Y0042381D01*
X0236298Y0042303D01*
X0236392Y0042222D01*
X0236484Y0042138D01*
X0236573Y0042051D01*
X0236659Y0041961D01*
X0236742Y0041869D01*
X0236822Y0041774D01*
X0236900Y0041676D01*
X0236974Y0041576D01*
X0237045Y0041474D01*
X0237112Y0041370D01*
X0237176Y0041263D01*
X0237237Y0041154D01*
X0237294Y0041044D01*
X0237348Y0040932D01*
X0237398Y0040818D01*
X0237445Y0040703D01*
X0237487Y0040586D01*
X0237526Y0040468D01*
X0237562Y0040348D01*
X0237593Y0040228D01*
X0237620Y0040107D01*
X0237644Y0039985D01*
X0237664Y0039862D01*
X0237680Y0039738D01*
X0237692Y0039615D01*
X0237700Y0039491D01*
X0237704Y0039366D01*
X0237704Y0039242D01*
X0237700Y0039117D01*
X0237692Y0038993D01*
X0237680Y0038870D01*
X0237664Y0038746D01*
X0237644Y0038623D01*
X0237620Y0038501D01*
X0237593Y0038380D01*
X0237562Y0038260D01*
X0237526Y0038140D01*
X0237487Y0038022D01*
X0237445Y0037905D01*
X0237398Y0037790D01*
X0237348Y0037676D01*
X0237294Y0037564D01*
X0237237Y0037454D01*
X0237176Y0037345D01*
X0237112Y0037238D01*
X0237045Y0037134D01*
X0236974Y0037032D01*
X0236900Y0036932D01*
X0236822Y0036834D01*
X0236742Y0036739D01*
X0236659Y0036647D01*
X0236573Y0036557D01*
X0236484Y0036470D01*
X0236392Y0036386D01*
X0236298Y0036305D01*
X0236201Y0036227D01*
X0236101Y0036152D01*
X0236000Y0036081D01*
X0235896Y0036012D01*
X0235790Y0035947D01*
X0235682Y0035886D01*
X0235572Y0035828D01*
X0235460Y0035773D01*
X0235347Y0035722D01*
X0235232Y0035675D01*
X0235115Y0035631D01*
X0234997Y0035591D01*
X0234878Y0035555D01*
X0234758Y0035523D01*
X0234637Y0035494D01*
X0234515Y0035469D01*
X0234393Y0035449D01*
X0234269Y0035432D01*
X0234146Y0035419D01*
X0234022Y0035410D01*
X0233897Y0035405D01*
X0233773Y0035404D01*
X0233649Y0035407D01*
X0233524Y0035414D01*
X0233400Y0035425D01*
X0233277Y0035440D01*
X0233154Y0035459D01*
X0233032Y0035481D01*
X0232910Y0035508D01*
X0232790Y0035538D01*
X0232670Y0035572D01*
X0232552Y0035611D01*
X0232434Y0035652D01*
X0232319Y0035698D01*
X0232204Y0035747D01*
X0232092Y0035800D01*
X0231981Y0035856D01*
X0231872Y0035916D01*
X0231765Y0035980D01*
X0231660Y0036046D01*
X0231557Y0036116D01*
X0231457Y0036190D01*
X0231359Y0036266D01*
X0231263Y0036345D01*
X0231170Y0036428D01*
X0231079Y0036513D01*
X0230992Y0036602D01*
X0230907Y0036693D01*
X0230825Y0036787D01*
X0230747Y0036883D01*
X0230671Y0036982D01*
X0230598Y0037083D01*
X0230529Y0037186D01*
X0230463Y0037292D01*
X0230401Y0037399D01*
X0230342Y0037509D01*
X0230286Y0037620D01*
X0230234Y0037733D01*
X0230186Y0037848D01*
X0230142Y0037964D01*
X0230101Y0038081D01*
X0230064Y0038200D01*
X0230030Y0038320D01*
X0230001Y0038440D01*
X0229975Y0038562D01*
X0229953Y0038685D01*
X0229936Y0038808D01*
X0229922Y0038931D01*
X0229912Y0039055D01*
X0229906Y0039180D01*
X0229904Y0039304D01*
X0229804Y0035304D02*
X0237804Y0043304D01*
X0230804Y0130204D02*
X0230806Y0130328D01*
X0230812Y0130453D01*
X0230822Y0130577D01*
X0230836Y0130700D01*
X0230853Y0130823D01*
X0230875Y0130946D01*
X0230901Y0131068D01*
X0230930Y0131188D01*
X0230964Y0131308D01*
X0231001Y0131427D01*
X0231042Y0131544D01*
X0231086Y0131660D01*
X0231134Y0131775D01*
X0231186Y0131888D01*
X0231242Y0131999D01*
X0231301Y0132109D01*
X0231363Y0132216D01*
X0231429Y0132322D01*
X0231498Y0132425D01*
X0231571Y0132526D01*
X0231647Y0132625D01*
X0231725Y0132721D01*
X0231807Y0132815D01*
X0231892Y0132906D01*
X0231979Y0132995D01*
X0232070Y0133080D01*
X0232163Y0133163D01*
X0232259Y0133242D01*
X0232357Y0133318D01*
X0232457Y0133392D01*
X0232560Y0133462D01*
X0232665Y0133528D01*
X0232772Y0133592D01*
X0232881Y0133652D01*
X0232992Y0133708D01*
X0233104Y0133761D01*
X0233219Y0133810D01*
X0233334Y0133856D01*
X0233452Y0133897D01*
X0233570Y0133936D01*
X0233690Y0133970D01*
X0233810Y0134000D01*
X0233932Y0134027D01*
X0234054Y0134049D01*
X0234177Y0134068D01*
X0234300Y0134083D01*
X0234424Y0134094D01*
X0234549Y0134101D01*
X0234673Y0134104D01*
X0234797Y0134103D01*
X0234922Y0134098D01*
X0235046Y0134089D01*
X0235169Y0134076D01*
X0235293Y0134059D01*
X0235415Y0134039D01*
X0235537Y0134014D01*
X0235658Y0133985D01*
X0235778Y0133953D01*
X0235897Y0133917D01*
X0236015Y0133877D01*
X0236132Y0133833D01*
X0236247Y0133786D01*
X0236360Y0133735D01*
X0236472Y0133680D01*
X0236582Y0133622D01*
X0236690Y0133561D01*
X0236796Y0133496D01*
X0236900Y0133427D01*
X0237001Y0133356D01*
X0237101Y0133281D01*
X0237198Y0133203D01*
X0237292Y0133122D01*
X0237384Y0133038D01*
X0237473Y0132951D01*
X0237559Y0132861D01*
X0237642Y0132769D01*
X0237722Y0132674D01*
X0237800Y0132576D01*
X0237874Y0132476D01*
X0237945Y0132374D01*
X0238012Y0132270D01*
X0238076Y0132163D01*
X0238137Y0132054D01*
X0238194Y0131944D01*
X0238248Y0131832D01*
X0238298Y0131718D01*
X0238345Y0131603D01*
X0238387Y0131486D01*
X0238426Y0131368D01*
X0238462Y0131248D01*
X0238493Y0131128D01*
X0238520Y0131007D01*
X0238544Y0130885D01*
X0238564Y0130762D01*
X0238580Y0130638D01*
X0238592Y0130515D01*
X0238600Y0130391D01*
X0238604Y0130266D01*
X0238604Y0130142D01*
X0238600Y0130017D01*
X0238592Y0129893D01*
X0238580Y0129770D01*
X0238564Y0129646D01*
X0238544Y0129523D01*
X0238520Y0129401D01*
X0238493Y0129280D01*
X0238462Y0129160D01*
X0238426Y0129040D01*
X0238387Y0128922D01*
X0238345Y0128805D01*
X0238298Y0128690D01*
X0238248Y0128576D01*
X0238194Y0128464D01*
X0238137Y0128354D01*
X0238076Y0128245D01*
X0238012Y0128138D01*
X0237945Y0128034D01*
X0237874Y0127932D01*
X0237800Y0127832D01*
X0237722Y0127734D01*
X0237642Y0127639D01*
X0237559Y0127547D01*
X0237473Y0127457D01*
X0237384Y0127370D01*
X0237292Y0127286D01*
X0237198Y0127205D01*
X0237101Y0127127D01*
X0237001Y0127052D01*
X0236900Y0126981D01*
X0236796Y0126912D01*
X0236690Y0126847D01*
X0236582Y0126786D01*
X0236472Y0126728D01*
X0236360Y0126673D01*
X0236247Y0126622D01*
X0236132Y0126575D01*
X0236015Y0126531D01*
X0235897Y0126491D01*
X0235778Y0126455D01*
X0235658Y0126423D01*
X0235537Y0126394D01*
X0235415Y0126369D01*
X0235293Y0126349D01*
X0235169Y0126332D01*
X0235046Y0126319D01*
X0234922Y0126310D01*
X0234797Y0126305D01*
X0234673Y0126304D01*
X0234549Y0126307D01*
X0234424Y0126314D01*
X0234300Y0126325D01*
X0234177Y0126340D01*
X0234054Y0126359D01*
X0233932Y0126381D01*
X0233810Y0126408D01*
X0233690Y0126438D01*
X0233570Y0126472D01*
X0233452Y0126511D01*
X0233334Y0126552D01*
X0233219Y0126598D01*
X0233104Y0126647D01*
X0232992Y0126700D01*
X0232881Y0126756D01*
X0232772Y0126816D01*
X0232665Y0126880D01*
X0232560Y0126946D01*
X0232457Y0127016D01*
X0232357Y0127090D01*
X0232259Y0127166D01*
X0232163Y0127245D01*
X0232070Y0127328D01*
X0231979Y0127413D01*
X0231892Y0127502D01*
X0231807Y0127593D01*
X0231725Y0127687D01*
X0231647Y0127783D01*
X0231571Y0127882D01*
X0231498Y0127983D01*
X0231429Y0128086D01*
X0231363Y0128192D01*
X0231301Y0128299D01*
X0231242Y0128409D01*
X0231186Y0128520D01*
X0231134Y0128633D01*
X0231086Y0128748D01*
X0231042Y0128864D01*
X0231001Y0128981D01*
X0230964Y0129100D01*
X0230930Y0129220D01*
X0230901Y0129340D01*
X0230875Y0129462D01*
X0230853Y0129585D01*
X0230836Y0129708D01*
X0230822Y0129831D01*
X0230812Y0129955D01*
X0230806Y0130080D01*
X0230804Y0130204D01*
X0230704Y0126204D02*
X0238704Y0134204D01*
X0207404Y0160804D02*
X0207406Y0160928D01*
X0207412Y0161053D01*
X0207422Y0161177D01*
X0207436Y0161300D01*
X0207453Y0161423D01*
X0207475Y0161546D01*
X0207501Y0161668D01*
X0207530Y0161788D01*
X0207564Y0161908D01*
X0207601Y0162027D01*
X0207642Y0162144D01*
X0207686Y0162260D01*
X0207734Y0162375D01*
X0207786Y0162488D01*
X0207842Y0162599D01*
X0207901Y0162709D01*
X0207963Y0162816D01*
X0208029Y0162922D01*
X0208098Y0163025D01*
X0208171Y0163126D01*
X0208247Y0163225D01*
X0208325Y0163321D01*
X0208407Y0163415D01*
X0208492Y0163506D01*
X0208579Y0163595D01*
X0208670Y0163680D01*
X0208763Y0163763D01*
X0208859Y0163842D01*
X0208957Y0163918D01*
X0209057Y0163992D01*
X0209160Y0164062D01*
X0209265Y0164128D01*
X0209372Y0164192D01*
X0209481Y0164252D01*
X0209592Y0164308D01*
X0209704Y0164361D01*
X0209819Y0164410D01*
X0209934Y0164456D01*
X0210052Y0164497D01*
X0210170Y0164536D01*
X0210290Y0164570D01*
X0210410Y0164600D01*
X0210532Y0164627D01*
X0210654Y0164649D01*
X0210777Y0164668D01*
X0210900Y0164683D01*
X0211024Y0164694D01*
X0211149Y0164701D01*
X0211273Y0164704D01*
X0211397Y0164703D01*
X0211522Y0164698D01*
X0211646Y0164689D01*
X0211769Y0164676D01*
X0211893Y0164659D01*
X0212015Y0164639D01*
X0212137Y0164614D01*
X0212258Y0164585D01*
X0212378Y0164553D01*
X0212497Y0164517D01*
X0212615Y0164477D01*
X0212732Y0164433D01*
X0212847Y0164386D01*
X0212960Y0164335D01*
X0213072Y0164280D01*
X0213182Y0164222D01*
X0213290Y0164161D01*
X0213396Y0164096D01*
X0213500Y0164027D01*
X0213601Y0163956D01*
X0213701Y0163881D01*
X0213798Y0163803D01*
X0213892Y0163722D01*
X0213984Y0163638D01*
X0214073Y0163551D01*
X0214159Y0163461D01*
X0214242Y0163369D01*
X0214322Y0163274D01*
X0214400Y0163176D01*
X0214474Y0163076D01*
X0214545Y0162974D01*
X0214612Y0162870D01*
X0214676Y0162763D01*
X0214737Y0162654D01*
X0214794Y0162544D01*
X0214848Y0162432D01*
X0214898Y0162318D01*
X0214945Y0162203D01*
X0214987Y0162086D01*
X0215026Y0161968D01*
X0215062Y0161848D01*
X0215093Y0161728D01*
X0215120Y0161607D01*
X0215144Y0161485D01*
X0215164Y0161362D01*
X0215180Y0161238D01*
X0215192Y0161115D01*
X0215200Y0160991D01*
X0215204Y0160866D01*
X0215204Y0160742D01*
X0215200Y0160617D01*
X0215192Y0160493D01*
X0215180Y0160370D01*
X0215164Y0160246D01*
X0215144Y0160123D01*
X0215120Y0160001D01*
X0215093Y0159880D01*
X0215062Y0159760D01*
X0215026Y0159640D01*
X0214987Y0159522D01*
X0214945Y0159405D01*
X0214898Y0159290D01*
X0214848Y0159176D01*
X0214794Y0159064D01*
X0214737Y0158954D01*
X0214676Y0158845D01*
X0214612Y0158738D01*
X0214545Y0158634D01*
X0214474Y0158532D01*
X0214400Y0158432D01*
X0214322Y0158334D01*
X0214242Y0158239D01*
X0214159Y0158147D01*
X0214073Y0158057D01*
X0213984Y0157970D01*
X0213892Y0157886D01*
X0213798Y0157805D01*
X0213701Y0157727D01*
X0213601Y0157652D01*
X0213500Y0157581D01*
X0213396Y0157512D01*
X0213290Y0157447D01*
X0213182Y0157386D01*
X0213072Y0157328D01*
X0212960Y0157273D01*
X0212847Y0157222D01*
X0212732Y0157175D01*
X0212615Y0157131D01*
X0212497Y0157091D01*
X0212378Y0157055D01*
X0212258Y0157023D01*
X0212137Y0156994D01*
X0212015Y0156969D01*
X0211893Y0156949D01*
X0211769Y0156932D01*
X0211646Y0156919D01*
X0211522Y0156910D01*
X0211397Y0156905D01*
X0211273Y0156904D01*
X0211149Y0156907D01*
X0211024Y0156914D01*
X0210900Y0156925D01*
X0210777Y0156940D01*
X0210654Y0156959D01*
X0210532Y0156981D01*
X0210410Y0157008D01*
X0210290Y0157038D01*
X0210170Y0157072D01*
X0210052Y0157111D01*
X0209934Y0157152D01*
X0209819Y0157198D01*
X0209704Y0157247D01*
X0209592Y0157300D01*
X0209481Y0157356D01*
X0209372Y0157416D01*
X0209265Y0157480D01*
X0209160Y0157546D01*
X0209057Y0157616D01*
X0208957Y0157690D01*
X0208859Y0157766D01*
X0208763Y0157845D01*
X0208670Y0157928D01*
X0208579Y0158013D01*
X0208492Y0158102D01*
X0208407Y0158193D01*
X0208325Y0158287D01*
X0208247Y0158383D01*
X0208171Y0158482D01*
X0208098Y0158583D01*
X0208029Y0158686D01*
X0207963Y0158792D01*
X0207901Y0158899D01*
X0207842Y0159009D01*
X0207786Y0159120D01*
X0207734Y0159233D01*
X0207686Y0159348D01*
X0207642Y0159464D01*
X0207601Y0159581D01*
X0207564Y0159700D01*
X0207530Y0159820D01*
X0207501Y0159940D01*
X0207475Y0160062D01*
X0207453Y0160185D01*
X0207436Y0160308D01*
X0207422Y0160431D01*
X0207412Y0160555D01*
X0207406Y0160680D01*
X0207404Y0160804D01*
X0207304Y0156804D02*
X0215304Y0164804D01*
X0237104Y0185104D02*
X0237106Y0185228D01*
X0237112Y0185353D01*
X0237122Y0185477D01*
X0237136Y0185600D01*
X0237153Y0185723D01*
X0237175Y0185846D01*
X0237201Y0185968D01*
X0237230Y0186088D01*
X0237264Y0186208D01*
X0237301Y0186327D01*
X0237342Y0186444D01*
X0237386Y0186560D01*
X0237434Y0186675D01*
X0237486Y0186788D01*
X0237542Y0186899D01*
X0237601Y0187009D01*
X0237663Y0187116D01*
X0237729Y0187222D01*
X0237798Y0187325D01*
X0237871Y0187426D01*
X0237947Y0187525D01*
X0238025Y0187621D01*
X0238107Y0187715D01*
X0238192Y0187806D01*
X0238279Y0187895D01*
X0238370Y0187980D01*
X0238463Y0188063D01*
X0238559Y0188142D01*
X0238657Y0188218D01*
X0238757Y0188292D01*
X0238860Y0188362D01*
X0238965Y0188428D01*
X0239072Y0188492D01*
X0239181Y0188552D01*
X0239292Y0188608D01*
X0239404Y0188661D01*
X0239519Y0188710D01*
X0239634Y0188756D01*
X0239752Y0188797D01*
X0239870Y0188836D01*
X0239990Y0188870D01*
X0240110Y0188900D01*
X0240232Y0188927D01*
X0240354Y0188949D01*
X0240477Y0188968D01*
X0240600Y0188983D01*
X0240724Y0188994D01*
X0240849Y0189001D01*
X0240973Y0189004D01*
X0241097Y0189003D01*
X0241222Y0188998D01*
X0241346Y0188989D01*
X0241469Y0188976D01*
X0241593Y0188959D01*
X0241715Y0188939D01*
X0241837Y0188914D01*
X0241958Y0188885D01*
X0242078Y0188853D01*
X0242197Y0188817D01*
X0242315Y0188777D01*
X0242432Y0188733D01*
X0242547Y0188686D01*
X0242660Y0188635D01*
X0242772Y0188580D01*
X0242882Y0188522D01*
X0242990Y0188461D01*
X0243096Y0188396D01*
X0243200Y0188327D01*
X0243301Y0188256D01*
X0243401Y0188181D01*
X0243498Y0188103D01*
X0243592Y0188022D01*
X0243684Y0187938D01*
X0243773Y0187851D01*
X0243859Y0187761D01*
X0243942Y0187669D01*
X0244022Y0187574D01*
X0244100Y0187476D01*
X0244174Y0187376D01*
X0244245Y0187274D01*
X0244312Y0187170D01*
X0244376Y0187063D01*
X0244437Y0186954D01*
X0244494Y0186844D01*
X0244548Y0186732D01*
X0244598Y0186618D01*
X0244645Y0186503D01*
X0244687Y0186386D01*
X0244726Y0186268D01*
X0244762Y0186148D01*
X0244793Y0186028D01*
X0244820Y0185907D01*
X0244844Y0185785D01*
X0244864Y0185662D01*
X0244880Y0185538D01*
X0244892Y0185415D01*
X0244900Y0185291D01*
X0244904Y0185166D01*
X0244904Y0185042D01*
X0244900Y0184917D01*
X0244892Y0184793D01*
X0244880Y0184670D01*
X0244864Y0184546D01*
X0244844Y0184423D01*
X0244820Y0184301D01*
X0244793Y0184180D01*
X0244762Y0184060D01*
X0244726Y0183940D01*
X0244687Y0183822D01*
X0244645Y0183705D01*
X0244598Y0183590D01*
X0244548Y0183476D01*
X0244494Y0183364D01*
X0244437Y0183254D01*
X0244376Y0183145D01*
X0244312Y0183038D01*
X0244245Y0182934D01*
X0244174Y0182832D01*
X0244100Y0182732D01*
X0244022Y0182634D01*
X0243942Y0182539D01*
X0243859Y0182447D01*
X0243773Y0182357D01*
X0243684Y0182270D01*
X0243592Y0182186D01*
X0243498Y0182105D01*
X0243401Y0182027D01*
X0243301Y0181952D01*
X0243200Y0181881D01*
X0243096Y0181812D01*
X0242990Y0181747D01*
X0242882Y0181686D01*
X0242772Y0181628D01*
X0242660Y0181573D01*
X0242547Y0181522D01*
X0242432Y0181475D01*
X0242315Y0181431D01*
X0242197Y0181391D01*
X0242078Y0181355D01*
X0241958Y0181323D01*
X0241837Y0181294D01*
X0241715Y0181269D01*
X0241593Y0181249D01*
X0241469Y0181232D01*
X0241346Y0181219D01*
X0241222Y0181210D01*
X0241097Y0181205D01*
X0240973Y0181204D01*
X0240849Y0181207D01*
X0240724Y0181214D01*
X0240600Y0181225D01*
X0240477Y0181240D01*
X0240354Y0181259D01*
X0240232Y0181281D01*
X0240110Y0181308D01*
X0239990Y0181338D01*
X0239870Y0181372D01*
X0239752Y0181411D01*
X0239634Y0181452D01*
X0239519Y0181498D01*
X0239404Y0181547D01*
X0239292Y0181600D01*
X0239181Y0181656D01*
X0239072Y0181716D01*
X0238965Y0181780D01*
X0238860Y0181846D01*
X0238757Y0181916D01*
X0238657Y0181990D01*
X0238559Y0182066D01*
X0238463Y0182145D01*
X0238370Y0182228D01*
X0238279Y0182313D01*
X0238192Y0182402D01*
X0238107Y0182493D01*
X0238025Y0182587D01*
X0237947Y0182683D01*
X0237871Y0182782D01*
X0237798Y0182883D01*
X0237729Y0182986D01*
X0237663Y0183092D01*
X0237601Y0183199D01*
X0237542Y0183309D01*
X0237486Y0183420D01*
X0237434Y0183533D01*
X0237386Y0183648D01*
X0237342Y0183764D01*
X0237301Y0183881D01*
X0237264Y0184000D01*
X0237230Y0184120D01*
X0237201Y0184240D01*
X0237175Y0184362D01*
X0237153Y0184485D01*
X0237136Y0184608D01*
X0237122Y0184731D01*
X0237112Y0184855D01*
X0237106Y0184980D01*
X0237104Y0185104D01*
X0237004Y0181104D02*
X0245004Y0189104D01*
X0257804Y0164404D02*
X0257806Y0164528D01*
X0257812Y0164653D01*
X0257822Y0164777D01*
X0257836Y0164900D01*
X0257853Y0165023D01*
X0257875Y0165146D01*
X0257901Y0165268D01*
X0257930Y0165388D01*
X0257964Y0165508D01*
X0258001Y0165627D01*
X0258042Y0165744D01*
X0258086Y0165860D01*
X0258134Y0165975D01*
X0258186Y0166088D01*
X0258242Y0166199D01*
X0258301Y0166309D01*
X0258363Y0166416D01*
X0258429Y0166522D01*
X0258498Y0166625D01*
X0258571Y0166726D01*
X0258647Y0166825D01*
X0258725Y0166921D01*
X0258807Y0167015D01*
X0258892Y0167106D01*
X0258979Y0167195D01*
X0259070Y0167280D01*
X0259163Y0167363D01*
X0259259Y0167442D01*
X0259357Y0167518D01*
X0259457Y0167592D01*
X0259560Y0167662D01*
X0259665Y0167728D01*
X0259772Y0167792D01*
X0259881Y0167852D01*
X0259992Y0167908D01*
X0260104Y0167961D01*
X0260219Y0168010D01*
X0260334Y0168056D01*
X0260452Y0168097D01*
X0260570Y0168136D01*
X0260690Y0168170D01*
X0260810Y0168200D01*
X0260932Y0168227D01*
X0261054Y0168249D01*
X0261177Y0168268D01*
X0261300Y0168283D01*
X0261424Y0168294D01*
X0261549Y0168301D01*
X0261673Y0168304D01*
X0261797Y0168303D01*
X0261922Y0168298D01*
X0262046Y0168289D01*
X0262169Y0168276D01*
X0262293Y0168259D01*
X0262415Y0168239D01*
X0262537Y0168214D01*
X0262658Y0168185D01*
X0262778Y0168153D01*
X0262897Y0168117D01*
X0263015Y0168077D01*
X0263132Y0168033D01*
X0263247Y0167986D01*
X0263360Y0167935D01*
X0263472Y0167880D01*
X0263582Y0167822D01*
X0263690Y0167761D01*
X0263796Y0167696D01*
X0263900Y0167627D01*
X0264001Y0167556D01*
X0264101Y0167481D01*
X0264198Y0167403D01*
X0264292Y0167322D01*
X0264384Y0167238D01*
X0264473Y0167151D01*
X0264559Y0167061D01*
X0264642Y0166969D01*
X0264722Y0166874D01*
X0264800Y0166776D01*
X0264874Y0166676D01*
X0264945Y0166574D01*
X0265012Y0166470D01*
X0265076Y0166363D01*
X0265137Y0166254D01*
X0265194Y0166144D01*
X0265248Y0166032D01*
X0265298Y0165918D01*
X0265345Y0165803D01*
X0265387Y0165686D01*
X0265426Y0165568D01*
X0265462Y0165448D01*
X0265493Y0165328D01*
X0265520Y0165207D01*
X0265544Y0165085D01*
X0265564Y0164962D01*
X0265580Y0164838D01*
X0265592Y0164715D01*
X0265600Y0164591D01*
X0265604Y0164466D01*
X0265604Y0164342D01*
X0265600Y0164217D01*
X0265592Y0164093D01*
X0265580Y0163970D01*
X0265564Y0163846D01*
X0265544Y0163723D01*
X0265520Y0163601D01*
X0265493Y0163480D01*
X0265462Y0163360D01*
X0265426Y0163240D01*
X0265387Y0163122D01*
X0265345Y0163005D01*
X0265298Y0162890D01*
X0265248Y0162776D01*
X0265194Y0162664D01*
X0265137Y0162554D01*
X0265076Y0162445D01*
X0265012Y0162338D01*
X0264945Y0162234D01*
X0264874Y0162132D01*
X0264800Y0162032D01*
X0264722Y0161934D01*
X0264642Y0161839D01*
X0264559Y0161747D01*
X0264473Y0161657D01*
X0264384Y0161570D01*
X0264292Y0161486D01*
X0264198Y0161405D01*
X0264101Y0161327D01*
X0264001Y0161252D01*
X0263900Y0161181D01*
X0263796Y0161112D01*
X0263690Y0161047D01*
X0263582Y0160986D01*
X0263472Y0160928D01*
X0263360Y0160873D01*
X0263247Y0160822D01*
X0263132Y0160775D01*
X0263015Y0160731D01*
X0262897Y0160691D01*
X0262778Y0160655D01*
X0262658Y0160623D01*
X0262537Y0160594D01*
X0262415Y0160569D01*
X0262293Y0160549D01*
X0262169Y0160532D01*
X0262046Y0160519D01*
X0261922Y0160510D01*
X0261797Y0160505D01*
X0261673Y0160504D01*
X0261549Y0160507D01*
X0261424Y0160514D01*
X0261300Y0160525D01*
X0261177Y0160540D01*
X0261054Y0160559D01*
X0260932Y0160581D01*
X0260810Y0160608D01*
X0260690Y0160638D01*
X0260570Y0160672D01*
X0260452Y0160711D01*
X0260334Y0160752D01*
X0260219Y0160798D01*
X0260104Y0160847D01*
X0259992Y0160900D01*
X0259881Y0160956D01*
X0259772Y0161016D01*
X0259665Y0161080D01*
X0259560Y0161146D01*
X0259457Y0161216D01*
X0259357Y0161290D01*
X0259259Y0161366D01*
X0259163Y0161445D01*
X0259070Y0161528D01*
X0258979Y0161613D01*
X0258892Y0161702D01*
X0258807Y0161793D01*
X0258725Y0161887D01*
X0258647Y0161983D01*
X0258571Y0162082D01*
X0258498Y0162183D01*
X0258429Y0162286D01*
X0258363Y0162392D01*
X0258301Y0162499D01*
X0258242Y0162609D01*
X0258186Y0162720D01*
X0258134Y0162833D01*
X0258086Y0162948D01*
X0258042Y0163064D01*
X0258001Y0163181D01*
X0257964Y0163300D01*
X0257930Y0163420D01*
X0257901Y0163540D01*
X0257875Y0163662D01*
X0257853Y0163785D01*
X0257836Y0163908D01*
X0257822Y0164031D01*
X0257812Y0164155D01*
X0257806Y0164280D01*
X0257804Y0164404D01*
X0257704Y0160404D02*
X0265704Y0168404D01*
X0274004Y0165304D02*
X0274006Y0165428D01*
X0274012Y0165553D01*
X0274022Y0165677D01*
X0274036Y0165800D01*
X0274053Y0165923D01*
X0274075Y0166046D01*
X0274101Y0166168D01*
X0274130Y0166288D01*
X0274164Y0166408D01*
X0274201Y0166527D01*
X0274242Y0166644D01*
X0274286Y0166760D01*
X0274334Y0166875D01*
X0274386Y0166988D01*
X0274442Y0167099D01*
X0274501Y0167209D01*
X0274563Y0167316D01*
X0274629Y0167422D01*
X0274698Y0167525D01*
X0274771Y0167626D01*
X0274847Y0167725D01*
X0274925Y0167821D01*
X0275007Y0167915D01*
X0275092Y0168006D01*
X0275179Y0168095D01*
X0275270Y0168180D01*
X0275363Y0168263D01*
X0275459Y0168342D01*
X0275557Y0168418D01*
X0275657Y0168492D01*
X0275760Y0168562D01*
X0275865Y0168628D01*
X0275972Y0168692D01*
X0276081Y0168752D01*
X0276192Y0168808D01*
X0276304Y0168861D01*
X0276419Y0168910D01*
X0276534Y0168956D01*
X0276652Y0168997D01*
X0276770Y0169036D01*
X0276890Y0169070D01*
X0277010Y0169100D01*
X0277132Y0169127D01*
X0277254Y0169149D01*
X0277377Y0169168D01*
X0277500Y0169183D01*
X0277624Y0169194D01*
X0277749Y0169201D01*
X0277873Y0169204D01*
X0277997Y0169203D01*
X0278122Y0169198D01*
X0278246Y0169189D01*
X0278369Y0169176D01*
X0278493Y0169159D01*
X0278615Y0169139D01*
X0278737Y0169114D01*
X0278858Y0169085D01*
X0278978Y0169053D01*
X0279097Y0169017D01*
X0279215Y0168977D01*
X0279332Y0168933D01*
X0279447Y0168886D01*
X0279560Y0168835D01*
X0279672Y0168780D01*
X0279782Y0168722D01*
X0279890Y0168661D01*
X0279996Y0168596D01*
X0280100Y0168527D01*
X0280201Y0168456D01*
X0280301Y0168381D01*
X0280398Y0168303D01*
X0280492Y0168222D01*
X0280584Y0168138D01*
X0280673Y0168051D01*
X0280759Y0167961D01*
X0280842Y0167869D01*
X0280922Y0167774D01*
X0281000Y0167676D01*
X0281074Y0167576D01*
X0281145Y0167474D01*
X0281212Y0167370D01*
X0281276Y0167263D01*
X0281337Y0167154D01*
X0281394Y0167044D01*
X0281448Y0166932D01*
X0281498Y0166818D01*
X0281545Y0166703D01*
X0281587Y0166586D01*
X0281626Y0166468D01*
X0281662Y0166348D01*
X0281693Y0166228D01*
X0281720Y0166107D01*
X0281744Y0165985D01*
X0281764Y0165862D01*
X0281780Y0165738D01*
X0281792Y0165615D01*
X0281800Y0165491D01*
X0281804Y0165366D01*
X0281804Y0165242D01*
X0281800Y0165117D01*
X0281792Y0164993D01*
X0281780Y0164870D01*
X0281764Y0164746D01*
X0281744Y0164623D01*
X0281720Y0164501D01*
X0281693Y0164380D01*
X0281662Y0164260D01*
X0281626Y0164140D01*
X0281587Y0164022D01*
X0281545Y0163905D01*
X0281498Y0163790D01*
X0281448Y0163676D01*
X0281394Y0163564D01*
X0281337Y0163454D01*
X0281276Y0163345D01*
X0281212Y0163238D01*
X0281145Y0163134D01*
X0281074Y0163032D01*
X0281000Y0162932D01*
X0280922Y0162834D01*
X0280842Y0162739D01*
X0280759Y0162647D01*
X0280673Y0162557D01*
X0280584Y0162470D01*
X0280492Y0162386D01*
X0280398Y0162305D01*
X0280301Y0162227D01*
X0280201Y0162152D01*
X0280100Y0162081D01*
X0279996Y0162012D01*
X0279890Y0161947D01*
X0279782Y0161886D01*
X0279672Y0161828D01*
X0279560Y0161773D01*
X0279447Y0161722D01*
X0279332Y0161675D01*
X0279215Y0161631D01*
X0279097Y0161591D01*
X0278978Y0161555D01*
X0278858Y0161523D01*
X0278737Y0161494D01*
X0278615Y0161469D01*
X0278493Y0161449D01*
X0278369Y0161432D01*
X0278246Y0161419D01*
X0278122Y0161410D01*
X0277997Y0161405D01*
X0277873Y0161404D01*
X0277749Y0161407D01*
X0277624Y0161414D01*
X0277500Y0161425D01*
X0277377Y0161440D01*
X0277254Y0161459D01*
X0277132Y0161481D01*
X0277010Y0161508D01*
X0276890Y0161538D01*
X0276770Y0161572D01*
X0276652Y0161611D01*
X0276534Y0161652D01*
X0276419Y0161698D01*
X0276304Y0161747D01*
X0276192Y0161800D01*
X0276081Y0161856D01*
X0275972Y0161916D01*
X0275865Y0161980D01*
X0275760Y0162046D01*
X0275657Y0162116D01*
X0275557Y0162190D01*
X0275459Y0162266D01*
X0275363Y0162345D01*
X0275270Y0162428D01*
X0275179Y0162513D01*
X0275092Y0162602D01*
X0275007Y0162693D01*
X0274925Y0162787D01*
X0274847Y0162883D01*
X0274771Y0162982D01*
X0274698Y0163083D01*
X0274629Y0163186D01*
X0274563Y0163292D01*
X0274501Y0163399D01*
X0274442Y0163509D01*
X0274386Y0163620D01*
X0274334Y0163733D01*
X0274286Y0163848D01*
X0274242Y0163964D01*
X0274201Y0164081D01*
X0274164Y0164200D01*
X0274130Y0164320D01*
X0274101Y0164440D01*
X0274075Y0164562D01*
X0274053Y0164685D01*
X0274036Y0164808D01*
X0274022Y0164931D01*
X0274012Y0165055D01*
X0274006Y0165180D01*
X0274004Y0165304D01*
X0273904Y0161304D02*
X0281904Y0169304D01*
X0285404Y0181404D02*
X0277404Y0181404D01*
X0281404Y0177404D02*
X0281404Y0185404D01*
X0277504Y0181404D02*
X0277506Y0181528D01*
X0277512Y0181653D01*
X0277522Y0181777D01*
X0277536Y0181900D01*
X0277553Y0182023D01*
X0277575Y0182146D01*
X0277601Y0182268D01*
X0277630Y0182388D01*
X0277664Y0182508D01*
X0277701Y0182627D01*
X0277742Y0182744D01*
X0277786Y0182860D01*
X0277834Y0182975D01*
X0277886Y0183088D01*
X0277942Y0183199D01*
X0278001Y0183309D01*
X0278063Y0183416D01*
X0278129Y0183522D01*
X0278198Y0183625D01*
X0278271Y0183726D01*
X0278347Y0183825D01*
X0278425Y0183921D01*
X0278507Y0184015D01*
X0278592Y0184106D01*
X0278679Y0184195D01*
X0278770Y0184280D01*
X0278863Y0184363D01*
X0278959Y0184442D01*
X0279057Y0184518D01*
X0279157Y0184592D01*
X0279260Y0184662D01*
X0279365Y0184728D01*
X0279472Y0184792D01*
X0279581Y0184852D01*
X0279692Y0184908D01*
X0279804Y0184961D01*
X0279919Y0185010D01*
X0280034Y0185056D01*
X0280152Y0185097D01*
X0280270Y0185136D01*
X0280390Y0185170D01*
X0280510Y0185200D01*
X0280632Y0185227D01*
X0280754Y0185249D01*
X0280877Y0185268D01*
X0281000Y0185283D01*
X0281124Y0185294D01*
X0281249Y0185301D01*
X0281373Y0185304D01*
X0281497Y0185303D01*
X0281622Y0185298D01*
X0281746Y0185289D01*
X0281869Y0185276D01*
X0281993Y0185259D01*
X0282115Y0185239D01*
X0282237Y0185214D01*
X0282358Y0185185D01*
X0282478Y0185153D01*
X0282597Y0185117D01*
X0282715Y0185077D01*
X0282832Y0185033D01*
X0282947Y0184986D01*
X0283060Y0184935D01*
X0283172Y0184880D01*
X0283282Y0184822D01*
X0283390Y0184761D01*
X0283496Y0184696D01*
X0283600Y0184627D01*
X0283701Y0184556D01*
X0283801Y0184481D01*
X0283898Y0184403D01*
X0283992Y0184322D01*
X0284084Y0184238D01*
X0284173Y0184151D01*
X0284259Y0184061D01*
X0284342Y0183969D01*
X0284422Y0183874D01*
X0284500Y0183776D01*
X0284574Y0183676D01*
X0284645Y0183574D01*
X0284712Y0183470D01*
X0284776Y0183363D01*
X0284837Y0183254D01*
X0284894Y0183144D01*
X0284948Y0183032D01*
X0284998Y0182918D01*
X0285045Y0182803D01*
X0285087Y0182686D01*
X0285126Y0182568D01*
X0285162Y0182448D01*
X0285193Y0182328D01*
X0285220Y0182207D01*
X0285244Y0182085D01*
X0285264Y0181962D01*
X0285280Y0181838D01*
X0285292Y0181715D01*
X0285300Y0181591D01*
X0285304Y0181466D01*
X0285304Y0181342D01*
X0285300Y0181217D01*
X0285292Y0181093D01*
X0285280Y0180970D01*
X0285264Y0180846D01*
X0285244Y0180723D01*
X0285220Y0180601D01*
X0285193Y0180480D01*
X0285162Y0180360D01*
X0285126Y0180240D01*
X0285087Y0180122D01*
X0285045Y0180005D01*
X0284998Y0179890D01*
X0284948Y0179776D01*
X0284894Y0179664D01*
X0284837Y0179554D01*
X0284776Y0179445D01*
X0284712Y0179338D01*
X0284645Y0179234D01*
X0284574Y0179132D01*
X0284500Y0179032D01*
X0284422Y0178934D01*
X0284342Y0178839D01*
X0284259Y0178747D01*
X0284173Y0178657D01*
X0284084Y0178570D01*
X0283992Y0178486D01*
X0283898Y0178405D01*
X0283801Y0178327D01*
X0283701Y0178252D01*
X0283600Y0178181D01*
X0283496Y0178112D01*
X0283390Y0178047D01*
X0283282Y0177986D01*
X0283172Y0177928D01*
X0283060Y0177873D01*
X0282947Y0177822D01*
X0282832Y0177775D01*
X0282715Y0177731D01*
X0282597Y0177691D01*
X0282478Y0177655D01*
X0282358Y0177623D01*
X0282237Y0177594D01*
X0282115Y0177569D01*
X0281993Y0177549D01*
X0281869Y0177532D01*
X0281746Y0177519D01*
X0281622Y0177510D01*
X0281497Y0177505D01*
X0281373Y0177504D01*
X0281249Y0177507D01*
X0281124Y0177514D01*
X0281000Y0177525D01*
X0280877Y0177540D01*
X0280754Y0177559D01*
X0280632Y0177581D01*
X0280510Y0177608D01*
X0280390Y0177638D01*
X0280270Y0177672D01*
X0280152Y0177711D01*
X0280034Y0177752D01*
X0279919Y0177798D01*
X0279804Y0177847D01*
X0279692Y0177900D01*
X0279581Y0177956D01*
X0279472Y0178016D01*
X0279365Y0178080D01*
X0279260Y0178146D01*
X0279157Y0178216D01*
X0279057Y0178290D01*
X0278959Y0178366D01*
X0278863Y0178445D01*
X0278770Y0178528D01*
X0278679Y0178613D01*
X0278592Y0178702D01*
X0278507Y0178793D01*
X0278425Y0178887D01*
X0278347Y0178983D01*
X0278271Y0179082D01*
X0278198Y0179183D01*
X0278129Y0179286D01*
X0278063Y0179392D01*
X0278001Y0179499D01*
X0277942Y0179609D01*
X0277886Y0179720D01*
X0277834Y0179833D01*
X0277786Y0179948D01*
X0277742Y0180064D01*
X0277701Y0180181D01*
X0277664Y0180300D01*
X0277630Y0180420D01*
X0277601Y0180540D01*
X0277575Y0180662D01*
X0277553Y0180785D01*
X0277536Y0180908D01*
X0277522Y0181031D01*
X0277512Y0181155D01*
X0277506Y0181280D01*
X0277504Y0181404D01*
X0040404Y0181404D02*
X0032404Y0181404D01*
X0036404Y0177404D02*
X0036404Y0185404D01*
X0032504Y0181404D02*
X0032506Y0181528D01*
X0032512Y0181653D01*
X0032522Y0181777D01*
X0032536Y0181900D01*
X0032553Y0182023D01*
X0032575Y0182146D01*
X0032601Y0182268D01*
X0032630Y0182388D01*
X0032664Y0182508D01*
X0032701Y0182627D01*
X0032742Y0182744D01*
X0032786Y0182860D01*
X0032834Y0182975D01*
X0032886Y0183088D01*
X0032942Y0183199D01*
X0033001Y0183309D01*
X0033063Y0183416D01*
X0033129Y0183522D01*
X0033198Y0183625D01*
X0033271Y0183726D01*
X0033347Y0183825D01*
X0033425Y0183921D01*
X0033507Y0184015D01*
X0033592Y0184106D01*
X0033679Y0184195D01*
X0033770Y0184280D01*
X0033863Y0184363D01*
X0033959Y0184442D01*
X0034057Y0184518D01*
X0034157Y0184592D01*
X0034260Y0184662D01*
X0034365Y0184728D01*
X0034472Y0184792D01*
X0034581Y0184852D01*
X0034692Y0184908D01*
X0034804Y0184961D01*
X0034919Y0185010D01*
X0035034Y0185056D01*
X0035152Y0185097D01*
X0035270Y0185136D01*
X0035390Y0185170D01*
X0035510Y0185200D01*
X0035632Y0185227D01*
X0035754Y0185249D01*
X0035877Y0185268D01*
X0036000Y0185283D01*
X0036124Y0185294D01*
X0036249Y0185301D01*
X0036373Y0185304D01*
X0036497Y0185303D01*
X0036622Y0185298D01*
X0036746Y0185289D01*
X0036869Y0185276D01*
X0036993Y0185259D01*
X0037115Y0185239D01*
X0037237Y0185214D01*
X0037358Y0185185D01*
X0037478Y0185153D01*
X0037597Y0185117D01*
X0037715Y0185077D01*
X0037832Y0185033D01*
X0037947Y0184986D01*
X0038060Y0184935D01*
X0038172Y0184880D01*
X0038282Y0184822D01*
X0038390Y0184761D01*
X0038496Y0184696D01*
X0038600Y0184627D01*
X0038701Y0184556D01*
X0038801Y0184481D01*
X0038898Y0184403D01*
X0038992Y0184322D01*
X0039084Y0184238D01*
X0039173Y0184151D01*
X0039259Y0184061D01*
X0039342Y0183969D01*
X0039422Y0183874D01*
X0039500Y0183776D01*
X0039574Y0183676D01*
X0039645Y0183574D01*
X0039712Y0183470D01*
X0039776Y0183363D01*
X0039837Y0183254D01*
X0039894Y0183144D01*
X0039948Y0183032D01*
X0039998Y0182918D01*
X0040045Y0182803D01*
X0040087Y0182686D01*
X0040126Y0182568D01*
X0040162Y0182448D01*
X0040193Y0182328D01*
X0040220Y0182207D01*
X0040244Y0182085D01*
X0040264Y0181962D01*
X0040280Y0181838D01*
X0040292Y0181715D01*
X0040300Y0181591D01*
X0040304Y0181466D01*
X0040304Y0181342D01*
X0040300Y0181217D01*
X0040292Y0181093D01*
X0040280Y0180970D01*
X0040264Y0180846D01*
X0040244Y0180723D01*
X0040220Y0180601D01*
X0040193Y0180480D01*
X0040162Y0180360D01*
X0040126Y0180240D01*
X0040087Y0180122D01*
X0040045Y0180005D01*
X0039998Y0179890D01*
X0039948Y0179776D01*
X0039894Y0179664D01*
X0039837Y0179554D01*
X0039776Y0179445D01*
X0039712Y0179338D01*
X0039645Y0179234D01*
X0039574Y0179132D01*
X0039500Y0179032D01*
X0039422Y0178934D01*
X0039342Y0178839D01*
X0039259Y0178747D01*
X0039173Y0178657D01*
X0039084Y0178570D01*
X0038992Y0178486D01*
X0038898Y0178405D01*
X0038801Y0178327D01*
X0038701Y0178252D01*
X0038600Y0178181D01*
X0038496Y0178112D01*
X0038390Y0178047D01*
X0038282Y0177986D01*
X0038172Y0177928D01*
X0038060Y0177873D01*
X0037947Y0177822D01*
X0037832Y0177775D01*
X0037715Y0177731D01*
X0037597Y0177691D01*
X0037478Y0177655D01*
X0037358Y0177623D01*
X0037237Y0177594D01*
X0037115Y0177569D01*
X0036993Y0177549D01*
X0036869Y0177532D01*
X0036746Y0177519D01*
X0036622Y0177510D01*
X0036497Y0177505D01*
X0036373Y0177504D01*
X0036249Y0177507D01*
X0036124Y0177514D01*
X0036000Y0177525D01*
X0035877Y0177540D01*
X0035754Y0177559D01*
X0035632Y0177581D01*
X0035510Y0177608D01*
X0035390Y0177638D01*
X0035270Y0177672D01*
X0035152Y0177711D01*
X0035034Y0177752D01*
X0034919Y0177798D01*
X0034804Y0177847D01*
X0034692Y0177900D01*
X0034581Y0177956D01*
X0034472Y0178016D01*
X0034365Y0178080D01*
X0034260Y0178146D01*
X0034157Y0178216D01*
X0034057Y0178290D01*
X0033959Y0178366D01*
X0033863Y0178445D01*
X0033770Y0178528D01*
X0033679Y0178613D01*
X0033592Y0178702D01*
X0033507Y0178793D01*
X0033425Y0178887D01*
X0033347Y0178983D01*
X0033271Y0179082D01*
X0033198Y0179183D01*
X0033129Y0179286D01*
X0033063Y0179392D01*
X0033001Y0179499D01*
X0032942Y0179609D01*
X0032886Y0179720D01*
X0032834Y0179833D01*
X0032786Y0179948D01*
X0032742Y0180064D01*
X0032701Y0180181D01*
X0032664Y0180300D01*
X0032630Y0180420D01*
X0032601Y0180540D01*
X0032575Y0180662D01*
X0032553Y0180785D01*
X0032536Y0180908D01*
X0032522Y0181031D01*
X0032512Y0181155D01*
X0032506Y0181280D01*
X0032504Y0181404D01*
X0032404Y0026404D02*
X0040404Y0026404D01*
X0036404Y0022404D02*
X0036404Y0030404D01*
X0032504Y0026404D02*
X0032506Y0026528D01*
X0032512Y0026653D01*
X0032522Y0026777D01*
X0032536Y0026900D01*
X0032553Y0027023D01*
X0032575Y0027146D01*
X0032601Y0027268D01*
X0032630Y0027388D01*
X0032664Y0027508D01*
X0032701Y0027627D01*
X0032742Y0027744D01*
X0032786Y0027860D01*
X0032834Y0027975D01*
X0032886Y0028088D01*
X0032942Y0028199D01*
X0033001Y0028309D01*
X0033063Y0028416D01*
X0033129Y0028522D01*
X0033198Y0028625D01*
X0033271Y0028726D01*
X0033347Y0028825D01*
X0033425Y0028921D01*
X0033507Y0029015D01*
X0033592Y0029106D01*
X0033679Y0029195D01*
X0033770Y0029280D01*
X0033863Y0029363D01*
X0033959Y0029442D01*
X0034057Y0029518D01*
X0034157Y0029592D01*
X0034260Y0029662D01*
X0034365Y0029728D01*
X0034472Y0029792D01*
X0034581Y0029852D01*
X0034692Y0029908D01*
X0034804Y0029961D01*
X0034919Y0030010D01*
X0035034Y0030056D01*
X0035152Y0030097D01*
X0035270Y0030136D01*
X0035390Y0030170D01*
X0035510Y0030200D01*
X0035632Y0030227D01*
X0035754Y0030249D01*
X0035877Y0030268D01*
X0036000Y0030283D01*
X0036124Y0030294D01*
X0036249Y0030301D01*
X0036373Y0030304D01*
X0036497Y0030303D01*
X0036622Y0030298D01*
X0036746Y0030289D01*
X0036869Y0030276D01*
X0036993Y0030259D01*
X0037115Y0030239D01*
X0037237Y0030214D01*
X0037358Y0030185D01*
X0037478Y0030153D01*
X0037597Y0030117D01*
X0037715Y0030077D01*
X0037832Y0030033D01*
X0037947Y0029986D01*
X0038060Y0029935D01*
X0038172Y0029880D01*
X0038282Y0029822D01*
X0038390Y0029761D01*
X0038496Y0029696D01*
X0038600Y0029627D01*
X0038701Y0029556D01*
X0038801Y0029481D01*
X0038898Y0029403D01*
X0038992Y0029322D01*
X0039084Y0029238D01*
X0039173Y0029151D01*
X0039259Y0029061D01*
X0039342Y0028969D01*
X0039422Y0028874D01*
X0039500Y0028776D01*
X0039574Y0028676D01*
X0039645Y0028574D01*
X0039712Y0028470D01*
X0039776Y0028363D01*
X0039837Y0028254D01*
X0039894Y0028144D01*
X0039948Y0028032D01*
X0039998Y0027918D01*
X0040045Y0027803D01*
X0040087Y0027686D01*
X0040126Y0027568D01*
X0040162Y0027448D01*
X0040193Y0027328D01*
X0040220Y0027207D01*
X0040244Y0027085D01*
X0040264Y0026962D01*
X0040280Y0026838D01*
X0040292Y0026715D01*
X0040300Y0026591D01*
X0040304Y0026466D01*
X0040304Y0026342D01*
X0040300Y0026217D01*
X0040292Y0026093D01*
X0040280Y0025970D01*
X0040264Y0025846D01*
X0040244Y0025723D01*
X0040220Y0025601D01*
X0040193Y0025480D01*
X0040162Y0025360D01*
X0040126Y0025240D01*
X0040087Y0025122D01*
X0040045Y0025005D01*
X0039998Y0024890D01*
X0039948Y0024776D01*
X0039894Y0024664D01*
X0039837Y0024554D01*
X0039776Y0024445D01*
X0039712Y0024338D01*
X0039645Y0024234D01*
X0039574Y0024132D01*
X0039500Y0024032D01*
X0039422Y0023934D01*
X0039342Y0023839D01*
X0039259Y0023747D01*
X0039173Y0023657D01*
X0039084Y0023570D01*
X0038992Y0023486D01*
X0038898Y0023405D01*
X0038801Y0023327D01*
X0038701Y0023252D01*
X0038600Y0023181D01*
X0038496Y0023112D01*
X0038390Y0023047D01*
X0038282Y0022986D01*
X0038172Y0022928D01*
X0038060Y0022873D01*
X0037947Y0022822D01*
X0037832Y0022775D01*
X0037715Y0022731D01*
X0037597Y0022691D01*
X0037478Y0022655D01*
X0037358Y0022623D01*
X0037237Y0022594D01*
X0037115Y0022569D01*
X0036993Y0022549D01*
X0036869Y0022532D01*
X0036746Y0022519D01*
X0036622Y0022510D01*
X0036497Y0022505D01*
X0036373Y0022504D01*
X0036249Y0022507D01*
X0036124Y0022514D01*
X0036000Y0022525D01*
X0035877Y0022540D01*
X0035754Y0022559D01*
X0035632Y0022581D01*
X0035510Y0022608D01*
X0035390Y0022638D01*
X0035270Y0022672D01*
X0035152Y0022711D01*
X0035034Y0022752D01*
X0034919Y0022798D01*
X0034804Y0022847D01*
X0034692Y0022900D01*
X0034581Y0022956D01*
X0034472Y0023016D01*
X0034365Y0023080D01*
X0034260Y0023146D01*
X0034157Y0023216D01*
X0034057Y0023290D01*
X0033959Y0023366D01*
X0033863Y0023445D01*
X0033770Y0023528D01*
X0033679Y0023613D01*
X0033592Y0023702D01*
X0033507Y0023793D01*
X0033425Y0023887D01*
X0033347Y0023983D01*
X0033271Y0024082D01*
X0033198Y0024183D01*
X0033129Y0024286D01*
X0033063Y0024392D01*
X0033001Y0024499D01*
X0032942Y0024609D01*
X0032886Y0024720D01*
X0032834Y0024833D01*
X0032786Y0024948D01*
X0032742Y0025064D01*
X0032701Y0025181D01*
X0032664Y0025300D01*
X0032630Y0025420D01*
X0032601Y0025540D01*
X0032575Y0025662D01*
X0032553Y0025785D01*
X0032536Y0025908D01*
X0032522Y0026031D01*
X0032512Y0026155D01*
X0032506Y0026280D01*
X0032504Y0026404D01*
M02*
