%
M48
M72
T01C0.02362
T02C0.02400
T03C0.03543
T04C0.04724
T05C0.11024
%
T01
X62004Y104907
X261404Y41404
X276404Y41404
T02
X271604Y51904
X277004Y57304
X263504Y60004
X232904Y69904
X211304Y77104
X237404Y91504
X241004Y95104
X212204Y107704
X188804Y119404
X234704Y130204
X211304Y160804
X241004Y185104
X261704Y164404
X277904Y165304
X151004Y171604
X144704Y163504
X142004Y159004
X121304Y147304
X133004Y141004
X107804Y134704
X96104Y122104
X79994Y115473
X79904Y108182
X66973Y111304
X67304Y116704
X105104Y105904
X110504Y105004
X107804Y100504
X122204Y105004
X125804Y101404
X115004Y118504
X107804Y150004
X104204Y76204
X115904Y45604
X135704Y40204
X233804Y39304
T03
X41404Y102742
X41404Y120065
T04
X111404Y28904
X121404Y28904
X131404Y28904
X141404Y28904
X151404Y28904
X161404Y28904
X171404Y28904
X181404Y28904
X191404Y28904
X201404Y28904
X211404Y28904
X221404Y28904
X231404Y28904
X241404Y28904
X251404Y28904
X261404Y28904
T05
X36404Y26404
X36404Y181404
X281404Y181404
X281404Y26404
M30
