G75*
%MOIN*%
%OFA0B0*%
%FSLAX25Y25*%
%IPPOS*%
%LPD*%
%AMOC8*
5,1,8,0,0,1.08239X$1,22.5*
%
%ADD10C,0.00000*%
%ADD11C,0.00600*%
%ADD12C,0.00200*%
%ADD13C,0.00400*%
%ADD14R,0.05709X0.02953*%
%ADD15R,0.02953X0.05709*%
%ADD16C,0.00800*%
%ADD17C,0.03482*%
%ADD18R,0.01400X0.05100*%
%ADD19C,0.00500*%
%ADD20C,0.00100*%
%ADD21R,0.12600X0.07300*%
%ADD22R,0.03400X0.07300*%
%ADD23R,0.04724X0.01181*%
%ADD24R,0.00591X0.01181*%
%ADD25R,0.01181X0.01181*%
%ADD26R,0.05315X0.02362*%
%ADD27R,0.02559X0.05512*%
%ADD28R,0.05512X0.02559*%
%ADD29R,0.01800X0.02300*%
%ADD30C,0.02400*%
%ADD31C,0.01000*%
D10*
X0021404Y0011404D02*
X0021404Y0196364D01*
X0295104Y0196364D01*
X0295104Y0011404D01*
X0021404Y0011404D01*
X0030892Y0026404D02*
X0030894Y0026552D01*
X0030900Y0026700D01*
X0030910Y0026848D01*
X0030924Y0026995D01*
X0030942Y0027142D01*
X0030963Y0027288D01*
X0030989Y0027434D01*
X0031019Y0027579D01*
X0031052Y0027723D01*
X0031090Y0027866D01*
X0031131Y0028008D01*
X0031176Y0028149D01*
X0031224Y0028289D01*
X0031277Y0028428D01*
X0031333Y0028565D01*
X0031393Y0028700D01*
X0031456Y0028834D01*
X0031523Y0028966D01*
X0031594Y0029096D01*
X0031668Y0029224D01*
X0031745Y0029350D01*
X0031826Y0029474D01*
X0031910Y0029596D01*
X0031997Y0029715D01*
X0032088Y0029832D01*
X0032182Y0029947D01*
X0032278Y0030059D01*
X0032378Y0030169D01*
X0032480Y0030275D01*
X0032586Y0030379D01*
X0032694Y0030480D01*
X0032805Y0030578D01*
X0032918Y0030674D01*
X0033034Y0030766D01*
X0033152Y0030855D01*
X0033273Y0030940D01*
X0033396Y0031023D01*
X0033521Y0031102D01*
X0033648Y0031178D01*
X0033777Y0031250D01*
X0033908Y0031319D01*
X0034041Y0031384D01*
X0034176Y0031445D01*
X0034312Y0031503D01*
X0034449Y0031558D01*
X0034588Y0031608D01*
X0034729Y0031655D01*
X0034870Y0031698D01*
X0035013Y0031738D01*
X0035157Y0031773D01*
X0035301Y0031805D01*
X0035447Y0031832D01*
X0035593Y0031856D01*
X0035740Y0031876D01*
X0035887Y0031892D01*
X0036034Y0031904D01*
X0036182Y0031912D01*
X0036330Y0031916D01*
X0036478Y0031916D01*
X0036626Y0031912D01*
X0036774Y0031904D01*
X0036921Y0031892D01*
X0037068Y0031876D01*
X0037215Y0031856D01*
X0037361Y0031832D01*
X0037507Y0031805D01*
X0037651Y0031773D01*
X0037795Y0031738D01*
X0037938Y0031698D01*
X0038079Y0031655D01*
X0038220Y0031608D01*
X0038359Y0031558D01*
X0038496Y0031503D01*
X0038632Y0031445D01*
X0038767Y0031384D01*
X0038900Y0031319D01*
X0039031Y0031250D01*
X0039160Y0031178D01*
X0039287Y0031102D01*
X0039412Y0031023D01*
X0039535Y0030940D01*
X0039656Y0030855D01*
X0039774Y0030766D01*
X0039890Y0030674D01*
X0040003Y0030578D01*
X0040114Y0030480D01*
X0040222Y0030379D01*
X0040328Y0030275D01*
X0040430Y0030169D01*
X0040530Y0030059D01*
X0040626Y0029947D01*
X0040720Y0029832D01*
X0040811Y0029715D01*
X0040898Y0029596D01*
X0040982Y0029474D01*
X0041063Y0029350D01*
X0041140Y0029224D01*
X0041214Y0029096D01*
X0041285Y0028966D01*
X0041352Y0028834D01*
X0041415Y0028700D01*
X0041475Y0028565D01*
X0041531Y0028428D01*
X0041584Y0028289D01*
X0041632Y0028149D01*
X0041677Y0028008D01*
X0041718Y0027866D01*
X0041756Y0027723D01*
X0041789Y0027579D01*
X0041819Y0027434D01*
X0041845Y0027288D01*
X0041866Y0027142D01*
X0041884Y0026995D01*
X0041898Y0026848D01*
X0041908Y0026700D01*
X0041914Y0026552D01*
X0041916Y0026404D01*
X0041914Y0026256D01*
X0041908Y0026108D01*
X0041898Y0025960D01*
X0041884Y0025813D01*
X0041866Y0025666D01*
X0041845Y0025520D01*
X0041819Y0025374D01*
X0041789Y0025229D01*
X0041756Y0025085D01*
X0041718Y0024942D01*
X0041677Y0024800D01*
X0041632Y0024659D01*
X0041584Y0024519D01*
X0041531Y0024380D01*
X0041475Y0024243D01*
X0041415Y0024108D01*
X0041352Y0023974D01*
X0041285Y0023842D01*
X0041214Y0023712D01*
X0041140Y0023584D01*
X0041063Y0023458D01*
X0040982Y0023334D01*
X0040898Y0023212D01*
X0040811Y0023093D01*
X0040720Y0022976D01*
X0040626Y0022861D01*
X0040530Y0022749D01*
X0040430Y0022639D01*
X0040328Y0022533D01*
X0040222Y0022429D01*
X0040114Y0022328D01*
X0040003Y0022230D01*
X0039890Y0022134D01*
X0039774Y0022042D01*
X0039656Y0021953D01*
X0039535Y0021868D01*
X0039412Y0021785D01*
X0039287Y0021706D01*
X0039160Y0021630D01*
X0039031Y0021558D01*
X0038900Y0021489D01*
X0038767Y0021424D01*
X0038632Y0021363D01*
X0038496Y0021305D01*
X0038359Y0021250D01*
X0038220Y0021200D01*
X0038079Y0021153D01*
X0037938Y0021110D01*
X0037795Y0021070D01*
X0037651Y0021035D01*
X0037507Y0021003D01*
X0037361Y0020976D01*
X0037215Y0020952D01*
X0037068Y0020932D01*
X0036921Y0020916D01*
X0036774Y0020904D01*
X0036626Y0020896D01*
X0036478Y0020892D01*
X0036330Y0020892D01*
X0036182Y0020896D01*
X0036034Y0020904D01*
X0035887Y0020916D01*
X0035740Y0020932D01*
X0035593Y0020952D01*
X0035447Y0020976D01*
X0035301Y0021003D01*
X0035157Y0021035D01*
X0035013Y0021070D01*
X0034870Y0021110D01*
X0034729Y0021153D01*
X0034588Y0021200D01*
X0034449Y0021250D01*
X0034312Y0021305D01*
X0034176Y0021363D01*
X0034041Y0021424D01*
X0033908Y0021489D01*
X0033777Y0021558D01*
X0033648Y0021630D01*
X0033521Y0021706D01*
X0033396Y0021785D01*
X0033273Y0021868D01*
X0033152Y0021953D01*
X0033034Y0022042D01*
X0032918Y0022134D01*
X0032805Y0022230D01*
X0032694Y0022328D01*
X0032586Y0022429D01*
X0032480Y0022533D01*
X0032378Y0022639D01*
X0032278Y0022749D01*
X0032182Y0022861D01*
X0032088Y0022976D01*
X0031997Y0023093D01*
X0031910Y0023212D01*
X0031826Y0023334D01*
X0031745Y0023458D01*
X0031668Y0023584D01*
X0031594Y0023712D01*
X0031523Y0023842D01*
X0031456Y0023974D01*
X0031393Y0024108D01*
X0031333Y0024243D01*
X0031277Y0024380D01*
X0031224Y0024519D01*
X0031176Y0024659D01*
X0031131Y0024800D01*
X0031090Y0024942D01*
X0031052Y0025085D01*
X0031019Y0025229D01*
X0030989Y0025374D01*
X0030963Y0025520D01*
X0030942Y0025666D01*
X0030924Y0025813D01*
X0030910Y0025960D01*
X0030900Y0026108D01*
X0030894Y0026256D01*
X0030892Y0026404D01*
X0091404Y0062404D02*
X0091404Y0070404D01*
X0087404Y0066404D02*
X0095404Y0066404D01*
X0104904Y0066404D02*
X0112904Y0066404D01*
X0108904Y0062404D02*
X0108904Y0070404D01*
X0116404Y0079904D02*
X0116404Y0087904D01*
X0112404Y0083904D02*
X0120404Y0083904D01*
X0116404Y0094904D02*
X0116404Y0102904D01*
X0112404Y0098904D02*
X0120404Y0098904D01*
X0137886Y0099406D02*
X0145886Y0099406D01*
X0141886Y0095406D02*
X0141886Y0103406D01*
X0156404Y0112404D02*
X0156404Y0120404D01*
X0152404Y0116404D02*
X0160404Y0116404D01*
X0141404Y0127404D02*
X0141404Y0135404D01*
X0137404Y0131404D02*
X0145404Y0131404D01*
X0115404Y0126404D02*
X0107404Y0126404D01*
X0111404Y0122404D02*
X0111404Y0130404D01*
X0090404Y0126404D02*
X0082404Y0126404D01*
X0079549Y0126404D02*
X0073258Y0126404D01*
X0070404Y0126404D02*
X0062404Y0126404D01*
X0066404Y0122404D02*
X0066404Y0130404D01*
X0066404Y0137404D02*
X0066404Y0145404D01*
X0062404Y0141404D02*
X0070404Y0141404D01*
X0081124Y0153175D02*
X0089124Y0153175D01*
X0085124Y0149175D02*
X0085124Y0157175D01*
X0097404Y0156404D02*
X0105404Y0156404D01*
X0101404Y0152404D02*
X0101404Y0160404D01*
X0117404Y0156404D02*
X0125404Y0156404D01*
X0121404Y0152404D02*
X0121404Y0160404D01*
X0132404Y0156404D02*
X0140404Y0156404D01*
X0136404Y0152404D02*
X0136404Y0160404D01*
X0136404Y0172404D02*
X0136404Y0180404D01*
X0132404Y0176404D02*
X0140404Y0176404D01*
X0125404Y0176404D02*
X0117404Y0176404D01*
X0121404Y0172404D02*
X0121404Y0180404D01*
X0157404Y0166404D02*
X0165404Y0166404D01*
X0161404Y0162404D02*
X0161404Y0170404D01*
X0182404Y0176404D02*
X0190404Y0176404D01*
X0186404Y0172404D02*
X0186404Y0180404D01*
X0181404Y0160404D02*
X0181404Y0152404D01*
X0177404Y0156404D02*
X0185404Y0156404D01*
X0197404Y0156404D02*
X0205404Y0156404D01*
X0201404Y0152404D02*
X0201404Y0160404D01*
X0217404Y0156404D02*
X0225404Y0156404D01*
X0221404Y0152404D02*
X0221404Y0160404D01*
X0242404Y0161404D02*
X0250404Y0161404D01*
X0246404Y0157404D02*
X0246404Y0165404D01*
X0257404Y0176404D02*
X0265404Y0176404D01*
X0261404Y0172404D02*
X0261404Y0180404D01*
X0275892Y0181404D02*
X0275894Y0181552D01*
X0275900Y0181700D01*
X0275910Y0181848D01*
X0275924Y0181995D01*
X0275942Y0182142D01*
X0275963Y0182288D01*
X0275989Y0182434D01*
X0276019Y0182579D01*
X0276052Y0182723D01*
X0276090Y0182866D01*
X0276131Y0183008D01*
X0276176Y0183149D01*
X0276224Y0183289D01*
X0276277Y0183428D01*
X0276333Y0183565D01*
X0276393Y0183700D01*
X0276456Y0183834D01*
X0276523Y0183966D01*
X0276594Y0184096D01*
X0276668Y0184224D01*
X0276745Y0184350D01*
X0276826Y0184474D01*
X0276910Y0184596D01*
X0276997Y0184715D01*
X0277088Y0184832D01*
X0277182Y0184947D01*
X0277278Y0185059D01*
X0277378Y0185169D01*
X0277480Y0185275D01*
X0277586Y0185379D01*
X0277694Y0185480D01*
X0277805Y0185578D01*
X0277918Y0185674D01*
X0278034Y0185766D01*
X0278152Y0185855D01*
X0278273Y0185940D01*
X0278396Y0186023D01*
X0278521Y0186102D01*
X0278648Y0186178D01*
X0278777Y0186250D01*
X0278908Y0186319D01*
X0279041Y0186384D01*
X0279176Y0186445D01*
X0279312Y0186503D01*
X0279449Y0186558D01*
X0279588Y0186608D01*
X0279729Y0186655D01*
X0279870Y0186698D01*
X0280013Y0186738D01*
X0280157Y0186773D01*
X0280301Y0186805D01*
X0280447Y0186832D01*
X0280593Y0186856D01*
X0280740Y0186876D01*
X0280887Y0186892D01*
X0281034Y0186904D01*
X0281182Y0186912D01*
X0281330Y0186916D01*
X0281478Y0186916D01*
X0281626Y0186912D01*
X0281774Y0186904D01*
X0281921Y0186892D01*
X0282068Y0186876D01*
X0282215Y0186856D01*
X0282361Y0186832D01*
X0282507Y0186805D01*
X0282651Y0186773D01*
X0282795Y0186738D01*
X0282938Y0186698D01*
X0283079Y0186655D01*
X0283220Y0186608D01*
X0283359Y0186558D01*
X0283496Y0186503D01*
X0283632Y0186445D01*
X0283767Y0186384D01*
X0283900Y0186319D01*
X0284031Y0186250D01*
X0284160Y0186178D01*
X0284287Y0186102D01*
X0284412Y0186023D01*
X0284535Y0185940D01*
X0284656Y0185855D01*
X0284774Y0185766D01*
X0284890Y0185674D01*
X0285003Y0185578D01*
X0285114Y0185480D01*
X0285222Y0185379D01*
X0285328Y0185275D01*
X0285430Y0185169D01*
X0285530Y0185059D01*
X0285626Y0184947D01*
X0285720Y0184832D01*
X0285811Y0184715D01*
X0285898Y0184596D01*
X0285982Y0184474D01*
X0286063Y0184350D01*
X0286140Y0184224D01*
X0286214Y0184096D01*
X0286285Y0183966D01*
X0286352Y0183834D01*
X0286415Y0183700D01*
X0286475Y0183565D01*
X0286531Y0183428D01*
X0286584Y0183289D01*
X0286632Y0183149D01*
X0286677Y0183008D01*
X0286718Y0182866D01*
X0286756Y0182723D01*
X0286789Y0182579D01*
X0286819Y0182434D01*
X0286845Y0182288D01*
X0286866Y0182142D01*
X0286884Y0181995D01*
X0286898Y0181848D01*
X0286908Y0181700D01*
X0286914Y0181552D01*
X0286916Y0181404D01*
X0286914Y0181256D01*
X0286908Y0181108D01*
X0286898Y0180960D01*
X0286884Y0180813D01*
X0286866Y0180666D01*
X0286845Y0180520D01*
X0286819Y0180374D01*
X0286789Y0180229D01*
X0286756Y0180085D01*
X0286718Y0179942D01*
X0286677Y0179800D01*
X0286632Y0179659D01*
X0286584Y0179519D01*
X0286531Y0179380D01*
X0286475Y0179243D01*
X0286415Y0179108D01*
X0286352Y0178974D01*
X0286285Y0178842D01*
X0286214Y0178712D01*
X0286140Y0178584D01*
X0286063Y0178458D01*
X0285982Y0178334D01*
X0285898Y0178212D01*
X0285811Y0178093D01*
X0285720Y0177976D01*
X0285626Y0177861D01*
X0285530Y0177749D01*
X0285430Y0177639D01*
X0285328Y0177533D01*
X0285222Y0177429D01*
X0285114Y0177328D01*
X0285003Y0177230D01*
X0284890Y0177134D01*
X0284774Y0177042D01*
X0284656Y0176953D01*
X0284535Y0176868D01*
X0284412Y0176785D01*
X0284287Y0176706D01*
X0284160Y0176630D01*
X0284031Y0176558D01*
X0283900Y0176489D01*
X0283767Y0176424D01*
X0283632Y0176363D01*
X0283496Y0176305D01*
X0283359Y0176250D01*
X0283220Y0176200D01*
X0283079Y0176153D01*
X0282938Y0176110D01*
X0282795Y0176070D01*
X0282651Y0176035D01*
X0282507Y0176003D01*
X0282361Y0175976D01*
X0282215Y0175952D01*
X0282068Y0175932D01*
X0281921Y0175916D01*
X0281774Y0175904D01*
X0281626Y0175896D01*
X0281478Y0175892D01*
X0281330Y0175892D01*
X0281182Y0175896D01*
X0281034Y0175904D01*
X0280887Y0175916D01*
X0280740Y0175932D01*
X0280593Y0175952D01*
X0280447Y0175976D01*
X0280301Y0176003D01*
X0280157Y0176035D01*
X0280013Y0176070D01*
X0279870Y0176110D01*
X0279729Y0176153D01*
X0279588Y0176200D01*
X0279449Y0176250D01*
X0279312Y0176305D01*
X0279176Y0176363D01*
X0279041Y0176424D01*
X0278908Y0176489D01*
X0278777Y0176558D01*
X0278648Y0176630D01*
X0278521Y0176706D01*
X0278396Y0176785D01*
X0278273Y0176868D01*
X0278152Y0176953D01*
X0278034Y0177042D01*
X0277918Y0177134D01*
X0277805Y0177230D01*
X0277694Y0177328D01*
X0277586Y0177429D01*
X0277480Y0177533D01*
X0277378Y0177639D01*
X0277278Y0177749D01*
X0277182Y0177861D01*
X0277088Y0177976D01*
X0276997Y0178093D01*
X0276910Y0178212D01*
X0276826Y0178334D01*
X0276745Y0178458D01*
X0276668Y0178584D01*
X0276594Y0178712D01*
X0276523Y0178842D01*
X0276456Y0178974D01*
X0276393Y0179108D01*
X0276333Y0179243D01*
X0276277Y0179380D01*
X0276224Y0179519D01*
X0276176Y0179659D01*
X0276131Y0179800D01*
X0276090Y0179942D01*
X0276052Y0180085D01*
X0276019Y0180229D01*
X0275989Y0180374D01*
X0275963Y0180520D01*
X0275942Y0180666D01*
X0275924Y0180813D01*
X0275910Y0180960D01*
X0275900Y0181108D01*
X0275894Y0181256D01*
X0275892Y0181404D01*
X0271404Y0165404D02*
X0271404Y0157404D01*
X0267404Y0161404D02*
X0275404Y0161404D01*
X0282404Y0161404D02*
X0290404Y0161404D01*
X0286404Y0157404D02*
X0286404Y0165404D01*
X0266404Y0115404D02*
X0266404Y0107404D01*
X0262404Y0111404D02*
X0270404Y0111404D01*
X0215404Y0086404D02*
X0207404Y0086404D01*
X0211404Y0082404D02*
X0211404Y0090404D01*
X0190404Y0076404D02*
X0182404Y0076404D01*
X0186404Y0072404D02*
X0186404Y0080404D01*
X0160404Y0071404D02*
X0152404Y0071404D01*
X0156404Y0067404D02*
X0156404Y0075404D01*
X0191404Y0107404D02*
X0191404Y0115404D01*
X0187404Y0111404D02*
X0195404Y0111404D01*
X0201404Y0132404D02*
X0201404Y0140404D01*
X0197404Y0136404D02*
X0205404Y0136404D01*
X0190404Y0136404D02*
X0182404Y0136404D01*
X0186404Y0132404D02*
X0186404Y0140404D01*
X0100404Y0098904D02*
X0092404Y0098904D01*
X0096404Y0094904D02*
X0096404Y0102904D01*
X0085404Y0101404D02*
X0077404Y0101404D01*
X0081404Y0097404D02*
X0081404Y0105404D01*
X0066404Y0095404D02*
X0066404Y0087404D01*
X0062404Y0091404D02*
X0070404Y0091404D01*
X0092404Y0083904D02*
X0100404Y0083904D01*
X0096404Y0079904D02*
X0096404Y0087904D01*
X0045404Y0111404D02*
X0037404Y0111404D01*
X0041404Y0107404D02*
X0041404Y0115404D01*
X0039632Y0120065D02*
X0039634Y0120149D01*
X0039640Y0120232D01*
X0039650Y0120315D01*
X0039664Y0120398D01*
X0039681Y0120480D01*
X0039703Y0120561D01*
X0039728Y0120640D01*
X0039757Y0120719D01*
X0039790Y0120796D01*
X0039826Y0120871D01*
X0039866Y0120945D01*
X0039909Y0121017D01*
X0039956Y0121086D01*
X0040006Y0121153D01*
X0040059Y0121218D01*
X0040115Y0121280D01*
X0040173Y0121340D01*
X0040235Y0121397D01*
X0040299Y0121450D01*
X0040366Y0121501D01*
X0040435Y0121548D01*
X0040506Y0121593D01*
X0040579Y0121633D01*
X0040654Y0121670D01*
X0040731Y0121704D01*
X0040809Y0121734D01*
X0040888Y0121760D01*
X0040969Y0121783D01*
X0041051Y0121801D01*
X0041133Y0121816D01*
X0041216Y0121827D01*
X0041299Y0121834D01*
X0041383Y0121837D01*
X0041467Y0121836D01*
X0041550Y0121831D01*
X0041634Y0121822D01*
X0041716Y0121809D01*
X0041798Y0121793D01*
X0041879Y0121772D01*
X0041960Y0121748D01*
X0042038Y0121720D01*
X0042116Y0121688D01*
X0042192Y0121652D01*
X0042266Y0121613D01*
X0042338Y0121571D01*
X0042408Y0121525D01*
X0042476Y0121476D01*
X0042541Y0121424D01*
X0042604Y0121369D01*
X0042664Y0121311D01*
X0042722Y0121250D01*
X0042776Y0121186D01*
X0042828Y0121120D01*
X0042876Y0121052D01*
X0042921Y0120981D01*
X0042962Y0120908D01*
X0043001Y0120834D01*
X0043035Y0120758D01*
X0043066Y0120680D01*
X0043093Y0120601D01*
X0043117Y0120520D01*
X0043136Y0120439D01*
X0043152Y0120357D01*
X0043164Y0120274D01*
X0043172Y0120190D01*
X0043176Y0120107D01*
X0043176Y0120023D01*
X0043172Y0119940D01*
X0043164Y0119856D01*
X0043152Y0119773D01*
X0043136Y0119691D01*
X0043117Y0119610D01*
X0043093Y0119529D01*
X0043066Y0119450D01*
X0043035Y0119372D01*
X0043001Y0119296D01*
X0042962Y0119222D01*
X0042921Y0119149D01*
X0042876Y0119078D01*
X0042828Y0119010D01*
X0042776Y0118944D01*
X0042722Y0118880D01*
X0042664Y0118819D01*
X0042604Y0118761D01*
X0042541Y0118706D01*
X0042476Y0118654D01*
X0042408Y0118605D01*
X0042338Y0118559D01*
X0042266Y0118517D01*
X0042192Y0118478D01*
X0042116Y0118442D01*
X0042038Y0118410D01*
X0041960Y0118382D01*
X0041879Y0118358D01*
X0041798Y0118337D01*
X0041716Y0118321D01*
X0041634Y0118308D01*
X0041550Y0118299D01*
X0041467Y0118294D01*
X0041383Y0118293D01*
X0041299Y0118296D01*
X0041216Y0118303D01*
X0041133Y0118314D01*
X0041051Y0118329D01*
X0040969Y0118347D01*
X0040888Y0118370D01*
X0040809Y0118396D01*
X0040731Y0118426D01*
X0040654Y0118460D01*
X0040579Y0118497D01*
X0040506Y0118537D01*
X0040435Y0118582D01*
X0040366Y0118629D01*
X0040299Y0118680D01*
X0040235Y0118733D01*
X0040173Y0118790D01*
X0040115Y0118850D01*
X0040059Y0118912D01*
X0040006Y0118977D01*
X0039956Y0119044D01*
X0039909Y0119113D01*
X0039866Y0119185D01*
X0039826Y0119259D01*
X0039790Y0119334D01*
X0039757Y0119411D01*
X0039728Y0119490D01*
X0039703Y0119569D01*
X0039681Y0119650D01*
X0039664Y0119732D01*
X0039650Y0119815D01*
X0039640Y0119898D01*
X0039634Y0119981D01*
X0039632Y0120065D01*
X0039632Y0102742D02*
X0039634Y0102826D01*
X0039640Y0102909D01*
X0039650Y0102992D01*
X0039664Y0103075D01*
X0039681Y0103157D01*
X0039703Y0103238D01*
X0039728Y0103317D01*
X0039757Y0103396D01*
X0039790Y0103473D01*
X0039826Y0103548D01*
X0039866Y0103622D01*
X0039909Y0103694D01*
X0039956Y0103763D01*
X0040006Y0103830D01*
X0040059Y0103895D01*
X0040115Y0103957D01*
X0040173Y0104017D01*
X0040235Y0104074D01*
X0040299Y0104127D01*
X0040366Y0104178D01*
X0040435Y0104225D01*
X0040506Y0104270D01*
X0040579Y0104310D01*
X0040654Y0104347D01*
X0040731Y0104381D01*
X0040809Y0104411D01*
X0040888Y0104437D01*
X0040969Y0104460D01*
X0041051Y0104478D01*
X0041133Y0104493D01*
X0041216Y0104504D01*
X0041299Y0104511D01*
X0041383Y0104514D01*
X0041467Y0104513D01*
X0041550Y0104508D01*
X0041634Y0104499D01*
X0041716Y0104486D01*
X0041798Y0104470D01*
X0041879Y0104449D01*
X0041960Y0104425D01*
X0042038Y0104397D01*
X0042116Y0104365D01*
X0042192Y0104329D01*
X0042266Y0104290D01*
X0042338Y0104248D01*
X0042408Y0104202D01*
X0042476Y0104153D01*
X0042541Y0104101D01*
X0042604Y0104046D01*
X0042664Y0103988D01*
X0042722Y0103927D01*
X0042776Y0103863D01*
X0042828Y0103797D01*
X0042876Y0103729D01*
X0042921Y0103658D01*
X0042962Y0103585D01*
X0043001Y0103511D01*
X0043035Y0103435D01*
X0043066Y0103357D01*
X0043093Y0103278D01*
X0043117Y0103197D01*
X0043136Y0103116D01*
X0043152Y0103034D01*
X0043164Y0102951D01*
X0043172Y0102867D01*
X0043176Y0102784D01*
X0043176Y0102700D01*
X0043172Y0102617D01*
X0043164Y0102533D01*
X0043152Y0102450D01*
X0043136Y0102368D01*
X0043117Y0102287D01*
X0043093Y0102206D01*
X0043066Y0102127D01*
X0043035Y0102049D01*
X0043001Y0101973D01*
X0042962Y0101899D01*
X0042921Y0101826D01*
X0042876Y0101755D01*
X0042828Y0101687D01*
X0042776Y0101621D01*
X0042722Y0101557D01*
X0042664Y0101496D01*
X0042604Y0101438D01*
X0042541Y0101383D01*
X0042476Y0101331D01*
X0042408Y0101282D01*
X0042338Y0101236D01*
X0042266Y0101194D01*
X0042192Y0101155D01*
X0042116Y0101119D01*
X0042038Y0101087D01*
X0041960Y0101059D01*
X0041879Y0101035D01*
X0041798Y0101014D01*
X0041716Y0100998D01*
X0041634Y0100985D01*
X0041550Y0100976D01*
X0041467Y0100971D01*
X0041383Y0100970D01*
X0041299Y0100973D01*
X0041216Y0100980D01*
X0041133Y0100991D01*
X0041051Y0101006D01*
X0040969Y0101024D01*
X0040888Y0101047D01*
X0040809Y0101073D01*
X0040731Y0101103D01*
X0040654Y0101137D01*
X0040579Y0101174D01*
X0040506Y0101214D01*
X0040435Y0101259D01*
X0040366Y0101306D01*
X0040299Y0101357D01*
X0040235Y0101410D01*
X0040173Y0101467D01*
X0040115Y0101527D01*
X0040059Y0101589D01*
X0040006Y0101654D01*
X0039956Y0101721D01*
X0039909Y0101790D01*
X0039866Y0101862D01*
X0039826Y0101936D01*
X0039790Y0102011D01*
X0039757Y0102088D01*
X0039728Y0102167D01*
X0039703Y0102246D01*
X0039681Y0102327D01*
X0039664Y0102409D01*
X0039650Y0102492D01*
X0039640Y0102575D01*
X0039634Y0102658D01*
X0039632Y0102742D01*
X0076404Y0123258D02*
X0076404Y0129549D01*
X0086404Y0130404D02*
X0086404Y0122404D01*
X0030892Y0181404D02*
X0030894Y0181552D01*
X0030900Y0181700D01*
X0030910Y0181848D01*
X0030924Y0181995D01*
X0030942Y0182142D01*
X0030963Y0182288D01*
X0030989Y0182434D01*
X0031019Y0182579D01*
X0031052Y0182723D01*
X0031090Y0182866D01*
X0031131Y0183008D01*
X0031176Y0183149D01*
X0031224Y0183289D01*
X0031277Y0183428D01*
X0031333Y0183565D01*
X0031393Y0183700D01*
X0031456Y0183834D01*
X0031523Y0183966D01*
X0031594Y0184096D01*
X0031668Y0184224D01*
X0031745Y0184350D01*
X0031826Y0184474D01*
X0031910Y0184596D01*
X0031997Y0184715D01*
X0032088Y0184832D01*
X0032182Y0184947D01*
X0032278Y0185059D01*
X0032378Y0185169D01*
X0032480Y0185275D01*
X0032586Y0185379D01*
X0032694Y0185480D01*
X0032805Y0185578D01*
X0032918Y0185674D01*
X0033034Y0185766D01*
X0033152Y0185855D01*
X0033273Y0185940D01*
X0033396Y0186023D01*
X0033521Y0186102D01*
X0033648Y0186178D01*
X0033777Y0186250D01*
X0033908Y0186319D01*
X0034041Y0186384D01*
X0034176Y0186445D01*
X0034312Y0186503D01*
X0034449Y0186558D01*
X0034588Y0186608D01*
X0034729Y0186655D01*
X0034870Y0186698D01*
X0035013Y0186738D01*
X0035157Y0186773D01*
X0035301Y0186805D01*
X0035447Y0186832D01*
X0035593Y0186856D01*
X0035740Y0186876D01*
X0035887Y0186892D01*
X0036034Y0186904D01*
X0036182Y0186912D01*
X0036330Y0186916D01*
X0036478Y0186916D01*
X0036626Y0186912D01*
X0036774Y0186904D01*
X0036921Y0186892D01*
X0037068Y0186876D01*
X0037215Y0186856D01*
X0037361Y0186832D01*
X0037507Y0186805D01*
X0037651Y0186773D01*
X0037795Y0186738D01*
X0037938Y0186698D01*
X0038079Y0186655D01*
X0038220Y0186608D01*
X0038359Y0186558D01*
X0038496Y0186503D01*
X0038632Y0186445D01*
X0038767Y0186384D01*
X0038900Y0186319D01*
X0039031Y0186250D01*
X0039160Y0186178D01*
X0039287Y0186102D01*
X0039412Y0186023D01*
X0039535Y0185940D01*
X0039656Y0185855D01*
X0039774Y0185766D01*
X0039890Y0185674D01*
X0040003Y0185578D01*
X0040114Y0185480D01*
X0040222Y0185379D01*
X0040328Y0185275D01*
X0040430Y0185169D01*
X0040530Y0185059D01*
X0040626Y0184947D01*
X0040720Y0184832D01*
X0040811Y0184715D01*
X0040898Y0184596D01*
X0040982Y0184474D01*
X0041063Y0184350D01*
X0041140Y0184224D01*
X0041214Y0184096D01*
X0041285Y0183966D01*
X0041352Y0183834D01*
X0041415Y0183700D01*
X0041475Y0183565D01*
X0041531Y0183428D01*
X0041584Y0183289D01*
X0041632Y0183149D01*
X0041677Y0183008D01*
X0041718Y0182866D01*
X0041756Y0182723D01*
X0041789Y0182579D01*
X0041819Y0182434D01*
X0041845Y0182288D01*
X0041866Y0182142D01*
X0041884Y0181995D01*
X0041898Y0181848D01*
X0041908Y0181700D01*
X0041914Y0181552D01*
X0041916Y0181404D01*
X0041914Y0181256D01*
X0041908Y0181108D01*
X0041898Y0180960D01*
X0041884Y0180813D01*
X0041866Y0180666D01*
X0041845Y0180520D01*
X0041819Y0180374D01*
X0041789Y0180229D01*
X0041756Y0180085D01*
X0041718Y0179942D01*
X0041677Y0179800D01*
X0041632Y0179659D01*
X0041584Y0179519D01*
X0041531Y0179380D01*
X0041475Y0179243D01*
X0041415Y0179108D01*
X0041352Y0178974D01*
X0041285Y0178842D01*
X0041214Y0178712D01*
X0041140Y0178584D01*
X0041063Y0178458D01*
X0040982Y0178334D01*
X0040898Y0178212D01*
X0040811Y0178093D01*
X0040720Y0177976D01*
X0040626Y0177861D01*
X0040530Y0177749D01*
X0040430Y0177639D01*
X0040328Y0177533D01*
X0040222Y0177429D01*
X0040114Y0177328D01*
X0040003Y0177230D01*
X0039890Y0177134D01*
X0039774Y0177042D01*
X0039656Y0176953D01*
X0039535Y0176868D01*
X0039412Y0176785D01*
X0039287Y0176706D01*
X0039160Y0176630D01*
X0039031Y0176558D01*
X0038900Y0176489D01*
X0038767Y0176424D01*
X0038632Y0176363D01*
X0038496Y0176305D01*
X0038359Y0176250D01*
X0038220Y0176200D01*
X0038079Y0176153D01*
X0037938Y0176110D01*
X0037795Y0176070D01*
X0037651Y0176035D01*
X0037507Y0176003D01*
X0037361Y0175976D01*
X0037215Y0175952D01*
X0037068Y0175932D01*
X0036921Y0175916D01*
X0036774Y0175904D01*
X0036626Y0175896D01*
X0036478Y0175892D01*
X0036330Y0175892D01*
X0036182Y0175896D01*
X0036034Y0175904D01*
X0035887Y0175916D01*
X0035740Y0175932D01*
X0035593Y0175952D01*
X0035447Y0175976D01*
X0035301Y0176003D01*
X0035157Y0176035D01*
X0035013Y0176070D01*
X0034870Y0176110D01*
X0034729Y0176153D01*
X0034588Y0176200D01*
X0034449Y0176250D01*
X0034312Y0176305D01*
X0034176Y0176363D01*
X0034041Y0176424D01*
X0033908Y0176489D01*
X0033777Y0176558D01*
X0033648Y0176630D01*
X0033521Y0176706D01*
X0033396Y0176785D01*
X0033273Y0176868D01*
X0033152Y0176953D01*
X0033034Y0177042D01*
X0032918Y0177134D01*
X0032805Y0177230D01*
X0032694Y0177328D01*
X0032586Y0177429D01*
X0032480Y0177533D01*
X0032378Y0177639D01*
X0032278Y0177749D01*
X0032182Y0177861D01*
X0032088Y0177976D01*
X0031997Y0178093D01*
X0031910Y0178212D01*
X0031826Y0178334D01*
X0031745Y0178458D01*
X0031668Y0178584D01*
X0031594Y0178712D01*
X0031523Y0178842D01*
X0031456Y0178974D01*
X0031393Y0179108D01*
X0031333Y0179243D01*
X0031277Y0179380D01*
X0031224Y0179519D01*
X0031176Y0179659D01*
X0031131Y0179800D01*
X0031090Y0179942D01*
X0031052Y0180085D01*
X0031019Y0180229D01*
X0030989Y0180374D01*
X0030963Y0180520D01*
X0030942Y0180666D01*
X0030924Y0180813D01*
X0030910Y0180960D01*
X0030900Y0181108D01*
X0030894Y0181256D01*
X0030892Y0181404D01*
X0232404Y0061404D02*
X0240404Y0061404D01*
X0236404Y0057404D02*
X0236404Y0065404D01*
X0252404Y0066404D02*
X0260404Y0066404D01*
X0256404Y0062404D02*
X0256404Y0070404D01*
X0256404Y0055404D02*
X0256404Y0047404D01*
X0252404Y0051404D02*
X0260404Y0051404D01*
X0277404Y0051404D02*
X0285404Y0051404D01*
X0281404Y0047404D02*
X0281404Y0055404D01*
X0281404Y0062404D02*
X0281404Y0070404D01*
X0277404Y0066404D02*
X0285404Y0066404D01*
X0275892Y0026404D02*
X0275894Y0026552D01*
X0275900Y0026700D01*
X0275910Y0026848D01*
X0275924Y0026995D01*
X0275942Y0027142D01*
X0275963Y0027288D01*
X0275989Y0027434D01*
X0276019Y0027579D01*
X0276052Y0027723D01*
X0276090Y0027866D01*
X0276131Y0028008D01*
X0276176Y0028149D01*
X0276224Y0028289D01*
X0276277Y0028428D01*
X0276333Y0028565D01*
X0276393Y0028700D01*
X0276456Y0028834D01*
X0276523Y0028966D01*
X0276594Y0029096D01*
X0276668Y0029224D01*
X0276745Y0029350D01*
X0276826Y0029474D01*
X0276910Y0029596D01*
X0276997Y0029715D01*
X0277088Y0029832D01*
X0277182Y0029947D01*
X0277278Y0030059D01*
X0277378Y0030169D01*
X0277480Y0030275D01*
X0277586Y0030379D01*
X0277694Y0030480D01*
X0277805Y0030578D01*
X0277918Y0030674D01*
X0278034Y0030766D01*
X0278152Y0030855D01*
X0278273Y0030940D01*
X0278396Y0031023D01*
X0278521Y0031102D01*
X0278648Y0031178D01*
X0278777Y0031250D01*
X0278908Y0031319D01*
X0279041Y0031384D01*
X0279176Y0031445D01*
X0279312Y0031503D01*
X0279449Y0031558D01*
X0279588Y0031608D01*
X0279729Y0031655D01*
X0279870Y0031698D01*
X0280013Y0031738D01*
X0280157Y0031773D01*
X0280301Y0031805D01*
X0280447Y0031832D01*
X0280593Y0031856D01*
X0280740Y0031876D01*
X0280887Y0031892D01*
X0281034Y0031904D01*
X0281182Y0031912D01*
X0281330Y0031916D01*
X0281478Y0031916D01*
X0281626Y0031912D01*
X0281774Y0031904D01*
X0281921Y0031892D01*
X0282068Y0031876D01*
X0282215Y0031856D01*
X0282361Y0031832D01*
X0282507Y0031805D01*
X0282651Y0031773D01*
X0282795Y0031738D01*
X0282938Y0031698D01*
X0283079Y0031655D01*
X0283220Y0031608D01*
X0283359Y0031558D01*
X0283496Y0031503D01*
X0283632Y0031445D01*
X0283767Y0031384D01*
X0283900Y0031319D01*
X0284031Y0031250D01*
X0284160Y0031178D01*
X0284287Y0031102D01*
X0284412Y0031023D01*
X0284535Y0030940D01*
X0284656Y0030855D01*
X0284774Y0030766D01*
X0284890Y0030674D01*
X0285003Y0030578D01*
X0285114Y0030480D01*
X0285222Y0030379D01*
X0285328Y0030275D01*
X0285430Y0030169D01*
X0285530Y0030059D01*
X0285626Y0029947D01*
X0285720Y0029832D01*
X0285811Y0029715D01*
X0285898Y0029596D01*
X0285982Y0029474D01*
X0286063Y0029350D01*
X0286140Y0029224D01*
X0286214Y0029096D01*
X0286285Y0028966D01*
X0286352Y0028834D01*
X0286415Y0028700D01*
X0286475Y0028565D01*
X0286531Y0028428D01*
X0286584Y0028289D01*
X0286632Y0028149D01*
X0286677Y0028008D01*
X0286718Y0027866D01*
X0286756Y0027723D01*
X0286789Y0027579D01*
X0286819Y0027434D01*
X0286845Y0027288D01*
X0286866Y0027142D01*
X0286884Y0026995D01*
X0286898Y0026848D01*
X0286908Y0026700D01*
X0286914Y0026552D01*
X0286916Y0026404D01*
X0286914Y0026256D01*
X0286908Y0026108D01*
X0286898Y0025960D01*
X0286884Y0025813D01*
X0286866Y0025666D01*
X0286845Y0025520D01*
X0286819Y0025374D01*
X0286789Y0025229D01*
X0286756Y0025085D01*
X0286718Y0024942D01*
X0286677Y0024800D01*
X0286632Y0024659D01*
X0286584Y0024519D01*
X0286531Y0024380D01*
X0286475Y0024243D01*
X0286415Y0024108D01*
X0286352Y0023974D01*
X0286285Y0023842D01*
X0286214Y0023712D01*
X0286140Y0023584D01*
X0286063Y0023458D01*
X0285982Y0023334D01*
X0285898Y0023212D01*
X0285811Y0023093D01*
X0285720Y0022976D01*
X0285626Y0022861D01*
X0285530Y0022749D01*
X0285430Y0022639D01*
X0285328Y0022533D01*
X0285222Y0022429D01*
X0285114Y0022328D01*
X0285003Y0022230D01*
X0284890Y0022134D01*
X0284774Y0022042D01*
X0284656Y0021953D01*
X0284535Y0021868D01*
X0284412Y0021785D01*
X0284287Y0021706D01*
X0284160Y0021630D01*
X0284031Y0021558D01*
X0283900Y0021489D01*
X0283767Y0021424D01*
X0283632Y0021363D01*
X0283496Y0021305D01*
X0283359Y0021250D01*
X0283220Y0021200D01*
X0283079Y0021153D01*
X0282938Y0021110D01*
X0282795Y0021070D01*
X0282651Y0021035D01*
X0282507Y0021003D01*
X0282361Y0020976D01*
X0282215Y0020952D01*
X0282068Y0020932D01*
X0281921Y0020916D01*
X0281774Y0020904D01*
X0281626Y0020896D01*
X0281478Y0020892D01*
X0281330Y0020892D01*
X0281182Y0020896D01*
X0281034Y0020904D01*
X0280887Y0020916D01*
X0280740Y0020932D01*
X0280593Y0020952D01*
X0280447Y0020976D01*
X0280301Y0021003D01*
X0280157Y0021035D01*
X0280013Y0021070D01*
X0279870Y0021110D01*
X0279729Y0021153D01*
X0279588Y0021200D01*
X0279449Y0021250D01*
X0279312Y0021305D01*
X0279176Y0021363D01*
X0279041Y0021424D01*
X0278908Y0021489D01*
X0278777Y0021558D01*
X0278648Y0021630D01*
X0278521Y0021706D01*
X0278396Y0021785D01*
X0278273Y0021868D01*
X0278152Y0021953D01*
X0278034Y0022042D01*
X0277918Y0022134D01*
X0277805Y0022230D01*
X0277694Y0022328D01*
X0277586Y0022429D01*
X0277480Y0022533D01*
X0277378Y0022639D01*
X0277278Y0022749D01*
X0277182Y0022861D01*
X0277088Y0022976D01*
X0276997Y0023093D01*
X0276910Y0023212D01*
X0276826Y0023334D01*
X0276745Y0023458D01*
X0276668Y0023584D01*
X0276594Y0023712D01*
X0276523Y0023842D01*
X0276456Y0023974D01*
X0276393Y0024108D01*
X0276333Y0024243D01*
X0276277Y0024380D01*
X0276224Y0024519D01*
X0276176Y0024659D01*
X0276131Y0024800D01*
X0276090Y0024942D01*
X0276052Y0025085D01*
X0276019Y0025229D01*
X0275989Y0025374D01*
X0275963Y0025520D01*
X0275942Y0025666D01*
X0275924Y0025813D01*
X0275910Y0025960D01*
X0275900Y0026108D01*
X0275894Y0026256D01*
X0275892Y0026404D01*
X0210404Y0028904D02*
X0202404Y0028904D01*
X0206404Y0024904D02*
X0206404Y0032904D01*
X0130404Y0028904D02*
X0122404Y0028904D01*
X0126404Y0024904D02*
X0126404Y0032904D01*
D11*
X0129404Y0031404D02*
X0133404Y0026404D01*
X0127904Y0028904D02*
X0127906Y0029022D01*
X0127912Y0029140D01*
X0127922Y0029258D01*
X0127936Y0029375D01*
X0127954Y0029492D01*
X0127976Y0029609D01*
X0128001Y0029724D01*
X0128031Y0029838D01*
X0128065Y0029952D01*
X0128102Y0030064D01*
X0128143Y0030175D01*
X0128188Y0030284D01*
X0128236Y0030392D01*
X0128288Y0030498D01*
X0128344Y0030603D01*
X0128403Y0030705D01*
X0128465Y0030805D01*
X0128531Y0030903D01*
X0128600Y0030999D01*
X0128673Y0031093D01*
X0128748Y0031184D01*
X0128827Y0031272D01*
X0128908Y0031358D01*
X0128993Y0031441D01*
X0129080Y0031521D01*
X0129169Y0031598D01*
X0129262Y0031672D01*
X0129356Y0031742D01*
X0129453Y0031810D01*
X0129553Y0031874D01*
X0129654Y0031935D01*
X0129757Y0031992D01*
X0129863Y0032046D01*
X0129970Y0032097D01*
X0130078Y0032143D01*
X0130188Y0032186D01*
X0130300Y0032225D01*
X0130413Y0032261D01*
X0130527Y0032292D01*
X0130642Y0032320D01*
X0130757Y0032344D01*
X0130874Y0032364D01*
X0130991Y0032380D01*
X0131109Y0032392D01*
X0131227Y0032400D01*
X0131345Y0032404D01*
X0131463Y0032404D01*
X0131581Y0032400D01*
X0131699Y0032392D01*
X0131817Y0032380D01*
X0131934Y0032364D01*
X0132051Y0032344D01*
X0132166Y0032320D01*
X0132281Y0032292D01*
X0132395Y0032261D01*
X0132508Y0032225D01*
X0132620Y0032186D01*
X0132730Y0032143D01*
X0132838Y0032097D01*
X0132945Y0032046D01*
X0133051Y0031992D01*
X0133154Y0031935D01*
X0133255Y0031874D01*
X0133355Y0031810D01*
X0133452Y0031742D01*
X0133546Y0031672D01*
X0133639Y0031598D01*
X0133728Y0031521D01*
X0133815Y0031441D01*
X0133900Y0031358D01*
X0133981Y0031272D01*
X0134060Y0031184D01*
X0134135Y0031093D01*
X0134208Y0030999D01*
X0134277Y0030903D01*
X0134343Y0030805D01*
X0134405Y0030705D01*
X0134464Y0030603D01*
X0134520Y0030498D01*
X0134572Y0030392D01*
X0134620Y0030284D01*
X0134665Y0030175D01*
X0134706Y0030064D01*
X0134743Y0029952D01*
X0134777Y0029838D01*
X0134807Y0029724D01*
X0134832Y0029609D01*
X0134854Y0029492D01*
X0134872Y0029375D01*
X0134886Y0029258D01*
X0134896Y0029140D01*
X0134902Y0029022D01*
X0134904Y0028904D01*
X0134902Y0028786D01*
X0134896Y0028668D01*
X0134886Y0028550D01*
X0134872Y0028433D01*
X0134854Y0028316D01*
X0134832Y0028199D01*
X0134807Y0028084D01*
X0134777Y0027970D01*
X0134743Y0027856D01*
X0134706Y0027744D01*
X0134665Y0027633D01*
X0134620Y0027524D01*
X0134572Y0027416D01*
X0134520Y0027310D01*
X0134464Y0027205D01*
X0134405Y0027103D01*
X0134343Y0027003D01*
X0134277Y0026905D01*
X0134208Y0026809D01*
X0134135Y0026715D01*
X0134060Y0026624D01*
X0133981Y0026536D01*
X0133900Y0026450D01*
X0133815Y0026367D01*
X0133728Y0026287D01*
X0133639Y0026210D01*
X0133546Y0026136D01*
X0133452Y0026066D01*
X0133355Y0025998D01*
X0133255Y0025934D01*
X0133154Y0025873D01*
X0133051Y0025816D01*
X0132945Y0025762D01*
X0132838Y0025711D01*
X0132730Y0025665D01*
X0132620Y0025622D01*
X0132508Y0025583D01*
X0132395Y0025547D01*
X0132281Y0025516D01*
X0132166Y0025488D01*
X0132051Y0025464D01*
X0131934Y0025444D01*
X0131817Y0025428D01*
X0131699Y0025416D01*
X0131581Y0025408D01*
X0131463Y0025404D01*
X0131345Y0025404D01*
X0131227Y0025408D01*
X0131109Y0025416D01*
X0130991Y0025428D01*
X0130874Y0025444D01*
X0130757Y0025464D01*
X0130642Y0025488D01*
X0130527Y0025516D01*
X0130413Y0025547D01*
X0130300Y0025583D01*
X0130188Y0025622D01*
X0130078Y0025665D01*
X0129970Y0025711D01*
X0129863Y0025762D01*
X0129757Y0025816D01*
X0129654Y0025873D01*
X0129553Y0025934D01*
X0129453Y0025998D01*
X0129356Y0026066D01*
X0129262Y0026136D01*
X0129169Y0026210D01*
X0129080Y0026287D01*
X0128993Y0026367D01*
X0128908Y0026450D01*
X0128827Y0026536D01*
X0128748Y0026624D01*
X0128673Y0026715D01*
X0128600Y0026809D01*
X0128531Y0026905D01*
X0128465Y0027003D01*
X0128403Y0027103D01*
X0128344Y0027205D01*
X0128288Y0027310D01*
X0128236Y0027416D01*
X0128188Y0027524D01*
X0128143Y0027633D01*
X0128102Y0027744D01*
X0128065Y0027856D01*
X0128031Y0027970D01*
X0128001Y0028084D01*
X0127976Y0028199D01*
X0127954Y0028316D01*
X0127936Y0028433D01*
X0127922Y0028550D01*
X0127912Y0028668D01*
X0127906Y0028786D01*
X0127904Y0028904D01*
X0124404Y0029404D02*
X0118404Y0027904D01*
X0117904Y0028904D02*
X0117906Y0029022D01*
X0117912Y0029140D01*
X0117922Y0029258D01*
X0117936Y0029375D01*
X0117954Y0029492D01*
X0117976Y0029609D01*
X0118001Y0029724D01*
X0118031Y0029838D01*
X0118065Y0029952D01*
X0118102Y0030064D01*
X0118143Y0030175D01*
X0118188Y0030284D01*
X0118236Y0030392D01*
X0118288Y0030498D01*
X0118344Y0030603D01*
X0118403Y0030705D01*
X0118465Y0030805D01*
X0118531Y0030903D01*
X0118600Y0030999D01*
X0118673Y0031093D01*
X0118748Y0031184D01*
X0118827Y0031272D01*
X0118908Y0031358D01*
X0118993Y0031441D01*
X0119080Y0031521D01*
X0119169Y0031598D01*
X0119262Y0031672D01*
X0119356Y0031742D01*
X0119453Y0031810D01*
X0119553Y0031874D01*
X0119654Y0031935D01*
X0119757Y0031992D01*
X0119863Y0032046D01*
X0119970Y0032097D01*
X0120078Y0032143D01*
X0120188Y0032186D01*
X0120300Y0032225D01*
X0120413Y0032261D01*
X0120527Y0032292D01*
X0120642Y0032320D01*
X0120757Y0032344D01*
X0120874Y0032364D01*
X0120991Y0032380D01*
X0121109Y0032392D01*
X0121227Y0032400D01*
X0121345Y0032404D01*
X0121463Y0032404D01*
X0121581Y0032400D01*
X0121699Y0032392D01*
X0121817Y0032380D01*
X0121934Y0032364D01*
X0122051Y0032344D01*
X0122166Y0032320D01*
X0122281Y0032292D01*
X0122395Y0032261D01*
X0122508Y0032225D01*
X0122620Y0032186D01*
X0122730Y0032143D01*
X0122838Y0032097D01*
X0122945Y0032046D01*
X0123051Y0031992D01*
X0123154Y0031935D01*
X0123255Y0031874D01*
X0123355Y0031810D01*
X0123452Y0031742D01*
X0123546Y0031672D01*
X0123639Y0031598D01*
X0123728Y0031521D01*
X0123815Y0031441D01*
X0123900Y0031358D01*
X0123981Y0031272D01*
X0124060Y0031184D01*
X0124135Y0031093D01*
X0124208Y0030999D01*
X0124277Y0030903D01*
X0124343Y0030805D01*
X0124405Y0030705D01*
X0124464Y0030603D01*
X0124520Y0030498D01*
X0124572Y0030392D01*
X0124620Y0030284D01*
X0124665Y0030175D01*
X0124706Y0030064D01*
X0124743Y0029952D01*
X0124777Y0029838D01*
X0124807Y0029724D01*
X0124832Y0029609D01*
X0124854Y0029492D01*
X0124872Y0029375D01*
X0124886Y0029258D01*
X0124896Y0029140D01*
X0124902Y0029022D01*
X0124904Y0028904D01*
X0124902Y0028786D01*
X0124896Y0028668D01*
X0124886Y0028550D01*
X0124872Y0028433D01*
X0124854Y0028316D01*
X0124832Y0028199D01*
X0124807Y0028084D01*
X0124777Y0027970D01*
X0124743Y0027856D01*
X0124706Y0027744D01*
X0124665Y0027633D01*
X0124620Y0027524D01*
X0124572Y0027416D01*
X0124520Y0027310D01*
X0124464Y0027205D01*
X0124405Y0027103D01*
X0124343Y0027003D01*
X0124277Y0026905D01*
X0124208Y0026809D01*
X0124135Y0026715D01*
X0124060Y0026624D01*
X0123981Y0026536D01*
X0123900Y0026450D01*
X0123815Y0026367D01*
X0123728Y0026287D01*
X0123639Y0026210D01*
X0123546Y0026136D01*
X0123452Y0026066D01*
X0123355Y0025998D01*
X0123255Y0025934D01*
X0123154Y0025873D01*
X0123051Y0025816D01*
X0122945Y0025762D01*
X0122838Y0025711D01*
X0122730Y0025665D01*
X0122620Y0025622D01*
X0122508Y0025583D01*
X0122395Y0025547D01*
X0122281Y0025516D01*
X0122166Y0025488D01*
X0122051Y0025464D01*
X0121934Y0025444D01*
X0121817Y0025428D01*
X0121699Y0025416D01*
X0121581Y0025408D01*
X0121463Y0025404D01*
X0121345Y0025404D01*
X0121227Y0025408D01*
X0121109Y0025416D01*
X0120991Y0025428D01*
X0120874Y0025444D01*
X0120757Y0025464D01*
X0120642Y0025488D01*
X0120527Y0025516D01*
X0120413Y0025547D01*
X0120300Y0025583D01*
X0120188Y0025622D01*
X0120078Y0025665D01*
X0119970Y0025711D01*
X0119863Y0025762D01*
X0119757Y0025816D01*
X0119654Y0025873D01*
X0119553Y0025934D01*
X0119453Y0025998D01*
X0119356Y0026066D01*
X0119262Y0026136D01*
X0119169Y0026210D01*
X0119080Y0026287D01*
X0118993Y0026367D01*
X0118908Y0026450D01*
X0118827Y0026536D01*
X0118748Y0026624D01*
X0118673Y0026715D01*
X0118600Y0026809D01*
X0118531Y0026905D01*
X0118465Y0027003D01*
X0118403Y0027103D01*
X0118344Y0027205D01*
X0118288Y0027310D01*
X0118236Y0027416D01*
X0118188Y0027524D01*
X0118143Y0027633D01*
X0118102Y0027744D01*
X0118065Y0027856D01*
X0118031Y0027970D01*
X0118001Y0028084D01*
X0117976Y0028199D01*
X0117954Y0028316D01*
X0117936Y0028433D01*
X0117922Y0028550D01*
X0117912Y0028668D01*
X0117906Y0028786D01*
X0117904Y0028904D01*
X0113404Y0031404D02*
X0108904Y0026904D01*
X0107904Y0028904D02*
X0107906Y0029022D01*
X0107912Y0029140D01*
X0107922Y0029258D01*
X0107936Y0029375D01*
X0107954Y0029492D01*
X0107976Y0029609D01*
X0108001Y0029724D01*
X0108031Y0029838D01*
X0108065Y0029952D01*
X0108102Y0030064D01*
X0108143Y0030175D01*
X0108188Y0030284D01*
X0108236Y0030392D01*
X0108288Y0030498D01*
X0108344Y0030603D01*
X0108403Y0030705D01*
X0108465Y0030805D01*
X0108531Y0030903D01*
X0108600Y0030999D01*
X0108673Y0031093D01*
X0108748Y0031184D01*
X0108827Y0031272D01*
X0108908Y0031358D01*
X0108993Y0031441D01*
X0109080Y0031521D01*
X0109169Y0031598D01*
X0109262Y0031672D01*
X0109356Y0031742D01*
X0109453Y0031810D01*
X0109553Y0031874D01*
X0109654Y0031935D01*
X0109757Y0031992D01*
X0109863Y0032046D01*
X0109970Y0032097D01*
X0110078Y0032143D01*
X0110188Y0032186D01*
X0110300Y0032225D01*
X0110413Y0032261D01*
X0110527Y0032292D01*
X0110642Y0032320D01*
X0110757Y0032344D01*
X0110874Y0032364D01*
X0110991Y0032380D01*
X0111109Y0032392D01*
X0111227Y0032400D01*
X0111345Y0032404D01*
X0111463Y0032404D01*
X0111581Y0032400D01*
X0111699Y0032392D01*
X0111817Y0032380D01*
X0111934Y0032364D01*
X0112051Y0032344D01*
X0112166Y0032320D01*
X0112281Y0032292D01*
X0112395Y0032261D01*
X0112508Y0032225D01*
X0112620Y0032186D01*
X0112730Y0032143D01*
X0112838Y0032097D01*
X0112945Y0032046D01*
X0113051Y0031992D01*
X0113154Y0031935D01*
X0113255Y0031874D01*
X0113355Y0031810D01*
X0113452Y0031742D01*
X0113546Y0031672D01*
X0113639Y0031598D01*
X0113728Y0031521D01*
X0113815Y0031441D01*
X0113900Y0031358D01*
X0113981Y0031272D01*
X0114060Y0031184D01*
X0114135Y0031093D01*
X0114208Y0030999D01*
X0114277Y0030903D01*
X0114343Y0030805D01*
X0114405Y0030705D01*
X0114464Y0030603D01*
X0114520Y0030498D01*
X0114572Y0030392D01*
X0114620Y0030284D01*
X0114665Y0030175D01*
X0114706Y0030064D01*
X0114743Y0029952D01*
X0114777Y0029838D01*
X0114807Y0029724D01*
X0114832Y0029609D01*
X0114854Y0029492D01*
X0114872Y0029375D01*
X0114886Y0029258D01*
X0114896Y0029140D01*
X0114902Y0029022D01*
X0114904Y0028904D01*
X0114902Y0028786D01*
X0114896Y0028668D01*
X0114886Y0028550D01*
X0114872Y0028433D01*
X0114854Y0028316D01*
X0114832Y0028199D01*
X0114807Y0028084D01*
X0114777Y0027970D01*
X0114743Y0027856D01*
X0114706Y0027744D01*
X0114665Y0027633D01*
X0114620Y0027524D01*
X0114572Y0027416D01*
X0114520Y0027310D01*
X0114464Y0027205D01*
X0114405Y0027103D01*
X0114343Y0027003D01*
X0114277Y0026905D01*
X0114208Y0026809D01*
X0114135Y0026715D01*
X0114060Y0026624D01*
X0113981Y0026536D01*
X0113900Y0026450D01*
X0113815Y0026367D01*
X0113728Y0026287D01*
X0113639Y0026210D01*
X0113546Y0026136D01*
X0113452Y0026066D01*
X0113355Y0025998D01*
X0113255Y0025934D01*
X0113154Y0025873D01*
X0113051Y0025816D01*
X0112945Y0025762D01*
X0112838Y0025711D01*
X0112730Y0025665D01*
X0112620Y0025622D01*
X0112508Y0025583D01*
X0112395Y0025547D01*
X0112281Y0025516D01*
X0112166Y0025488D01*
X0112051Y0025464D01*
X0111934Y0025444D01*
X0111817Y0025428D01*
X0111699Y0025416D01*
X0111581Y0025408D01*
X0111463Y0025404D01*
X0111345Y0025404D01*
X0111227Y0025408D01*
X0111109Y0025416D01*
X0110991Y0025428D01*
X0110874Y0025444D01*
X0110757Y0025464D01*
X0110642Y0025488D01*
X0110527Y0025516D01*
X0110413Y0025547D01*
X0110300Y0025583D01*
X0110188Y0025622D01*
X0110078Y0025665D01*
X0109970Y0025711D01*
X0109863Y0025762D01*
X0109757Y0025816D01*
X0109654Y0025873D01*
X0109553Y0025934D01*
X0109453Y0025998D01*
X0109356Y0026066D01*
X0109262Y0026136D01*
X0109169Y0026210D01*
X0109080Y0026287D01*
X0108993Y0026367D01*
X0108908Y0026450D01*
X0108827Y0026536D01*
X0108748Y0026624D01*
X0108673Y0026715D01*
X0108600Y0026809D01*
X0108531Y0026905D01*
X0108465Y0027003D01*
X0108403Y0027103D01*
X0108344Y0027205D01*
X0108288Y0027310D01*
X0108236Y0027416D01*
X0108188Y0027524D01*
X0108143Y0027633D01*
X0108102Y0027744D01*
X0108065Y0027856D01*
X0108031Y0027970D01*
X0108001Y0028084D01*
X0107976Y0028199D01*
X0107954Y0028316D01*
X0107936Y0028433D01*
X0107922Y0028550D01*
X0107912Y0028668D01*
X0107906Y0028786D01*
X0107904Y0028904D01*
X0106325Y0033234D02*
X0146482Y0033234D01*
X0146325Y0033234D02*
X0266482Y0033234D01*
X0263404Y0031404D02*
X0258904Y0026904D01*
X0257904Y0028904D02*
X0257906Y0029022D01*
X0257912Y0029140D01*
X0257922Y0029258D01*
X0257936Y0029375D01*
X0257954Y0029492D01*
X0257976Y0029609D01*
X0258001Y0029724D01*
X0258031Y0029838D01*
X0258065Y0029952D01*
X0258102Y0030064D01*
X0258143Y0030175D01*
X0258188Y0030284D01*
X0258236Y0030392D01*
X0258288Y0030498D01*
X0258344Y0030603D01*
X0258403Y0030705D01*
X0258465Y0030805D01*
X0258531Y0030903D01*
X0258600Y0030999D01*
X0258673Y0031093D01*
X0258748Y0031184D01*
X0258827Y0031272D01*
X0258908Y0031358D01*
X0258993Y0031441D01*
X0259080Y0031521D01*
X0259169Y0031598D01*
X0259262Y0031672D01*
X0259356Y0031742D01*
X0259453Y0031810D01*
X0259553Y0031874D01*
X0259654Y0031935D01*
X0259757Y0031992D01*
X0259863Y0032046D01*
X0259970Y0032097D01*
X0260078Y0032143D01*
X0260188Y0032186D01*
X0260300Y0032225D01*
X0260413Y0032261D01*
X0260527Y0032292D01*
X0260642Y0032320D01*
X0260757Y0032344D01*
X0260874Y0032364D01*
X0260991Y0032380D01*
X0261109Y0032392D01*
X0261227Y0032400D01*
X0261345Y0032404D01*
X0261463Y0032404D01*
X0261581Y0032400D01*
X0261699Y0032392D01*
X0261817Y0032380D01*
X0261934Y0032364D01*
X0262051Y0032344D01*
X0262166Y0032320D01*
X0262281Y0032292D01*
X0262395Y0032261D01*
X0262508Y0032225D01*
X0262620Y0032186D01*
X0262730Y0032143D01*
X0262838Y0032097D01*
X0262945Y0032046D01*
X0263051Y0031992D01*
X0263154Y0031935D01*
X0263255Y0031874D01*
X0263355Y0031810D01*
X0263452Y0031742D01*
X0263546Y0031672D01*
X0263639Y0031598D01*
X0263728Y0031521D01*
X0263815Y0031441D01*
X0263900Y0031358D01*
X0263981Y0031272D01*
X0264060Y0031184D01*
X0264135Y0031093D01*
X0264208Y0030999D01*
X0264277Y0030903D01*
X0264343Y0030805D01*
X0264405Y0030705D01*
X0264464Y0030603D01*
X0264520Y0030498D01*
X0264572Y0030392D01*
X0264620Y0030284D01*
X0264665Y0030175D01*
X0264706Y0030064D01*
X0264743Y0029952D01*
X0264777Y0029838D01*
X0264807Y0029724D01*
X0264832Y0029609D01*
X0264854Y0029492D01*
X0264872Y0029375D01*
X0264886Y0029258D01*
X0264896Y0029140D01*
X0264902Y0029022D01*
X0264904Y0028904D01*
X0264902Y0028786D01*
X0264896Y0028668D01*
X0264886Y0028550D01*
X0264872Y0028433D01*
X0264854Y0028316D01*
X0264832Y0028199D01*
X0264807Y0028084D01*
X0264777Y0027970D01*
X0264743Y0027856D01*
X0264706Y0027744D01*
X0264665Y0027633D01*
X0264620Y0027524D01*
X0264572Y0027416D01*
X0264520Y0027310D01*
X0264464Y0027205D01*
X0264405Y0027103D01*
X0264343Y0027003D01*
X0264277Y0026905D01*
X0264208Y0026809D01*
X0264135Y0026715D01*
X0264060Y0026624D01*
X0263981Y0026536D01*
X0263900Y0026450D01*
X0263815Y0026367D01*
X0263728Y0026287D01*
X0263639Y0026210D01*
X0263546Y0026136D01*
X0263452Y0026066D01*
X0263355Y0025998D01*
X0263255Y0025934D01*
X0263154Y0025873D01*
X0263051Y0025816D01*
X0262945Y0025762D01*
X0262838Y0025711D01*
X0262730Y0025665D01*
X0262620Y0025622D01*
X0262508Y0025583D01*
X0262395Y0025547D01*
X0262281Y0025516D01*
X0262166Y0025488D01*
X0262051Y0025464D01*
X0261934Y0025444D01*
X0261817Y0025428D01*
X0261699Y0025416D01*
X0261581Y0025408D01*
X0261463Y0025404D01*
X0261345Y0025404D01*
X0261227Y0025408D01*
X0261109Y0025416D01*
X0260991Y0025428D01*
X0260874Y0025444D01*
X0260757Y0025464D01*
X0260642Y0025488D01*
X0260527Y0025516D01*
X0260413Y0025547D01*
X0260300Y0025583D01*
X0260188Y0025622D01*
X0260078Y0025665D01*
X0259970Y0025711D01*
X0259863Y0025762D01*
X0259757Y0025816D01*
X0259654Y0025873D01*
X0259553Y0025934D01*
X0259453Y0025998D01*
X0259356Y0026066D01*
X0259262Y0026136D01*
X0259169Y0026210D01*
X0259080Y0026287D01*
X0258993Y0026367D01*
X0258908Y0026450D01*
X0258827Y0026536D01*
X0258748Y0026624D01*
X0258673Y0026715D01*
X0258600Y0026809D01*
X0258531Y0026905D01*
X0258465Y0027003D01*
X0258403Y0027103D01*
X0258344Y0027205D01*
X0258288Y0027310D01*
X0258236Y0027416D01*
X0258188Y0027524D01*
X0258143Y0027633D01*
X0258102Y0027744D01*
X0258065Y0027856D01*
X0258031Y0027970D01*
X0258001Y0028084D01*
X0257976Y0028199D01*
X0257954Y0028316D01*
X0257936Y0028433D01*
X0257922Y0028550D01*
X0257912Y0028668D01*
X0257906Y0028786D01*
X0257904Y0028904D01*
X0253404Y0031404D02*
X0248904Y0026904D01*
X0247904Y0028904D02*
X0247906Y0029022D01*
X0247912Y0029140D01*
X0247922Y0029258D01*
X0247936Y0029375D01*
X0247954Y0029492D01*
X0247976Y0029609D01*
X0248001Y0029724D01*
X0248031Y0029838D01*
X0248065Y0029952D01*
X0248102Y0030064D01*
X0248143Y0030175D01*
X0248188Y0030284D01*
X0248236Y0030392D01*
X0248288Y0030498D01*
X0248344Y0030603D01*
X0248403Y0030705D01*
X0248465Y0030805D01*
X0248531Y0030903D01*
X0248600Y0030999D01*
X0248673Y0031093D01*
X0248748Y0031184D01*
X0248827Y0031272D01*
X0248908Y0031358D01*
X0248993Y0031441D01*
X0249080Y0031521D01*
X0249169Y0031598D01*
X0249262Y0031672D01*
X0249356Y0031742D01*
X0249453Y0031810D01*
X0249553Y0031874D01*
X0249654Y0031935D01*
X0249757Y0031992D01*
X0249863Y0032046D01*
X0249970Y0032097D01*
X0250078Y0032143D01*
X0250188Y0032186D01*
X0250300Y0032225D01*
X0250413Y0032261D01*
X0250527Y0032292D01*
X0250642Y0032320D01*
X0250757Y0032344D01*
X0250874Y0032364D01*
X0250991Y0032380D01*
X0251109Y0032392D01*
X0251227Y0032400D01*
X0251345Y0032404D01*
X0251463Y0032404D01*
X0251581Y0032400D01*
X0251699Y0032392D01*
X0251817Y0032380D01*
X0251934Y0032364D01*
X0252051Y0032344D01*
X0252166Y0032320D01*
X0252281Y0032292D01*
X0252395Y0032261D01*
X0252508Y0032225D01*
X0252620Y0032186D01*
X0252730Y0032143D01*
X0252838Y0032097D01*
X0252945Y0032046D01*
X0253051Y0031992D01*
X0253154Y0031935D01*
X0253255Y0031874D01*
X0253355Y0031810D01*
X0253452Y0031742D01*
X0253546Y0031672D01*
X0253639Y0031598D01*
X0253728Y0031521D01*
X0253815Y0031441D01*
X0253900Y0031358D01*
X0253981Y0031272D01*
X0254060Y0031184D01*
X0254135Y0031093D01*
X0254208Y0030999D01*
X0254277Y0030903D01*
X0254343Y0030805D01*
X0254405Y0030705D01*
X0254464Y0030603D01*
X0254520Y0030498D01*
X0254572Y0030392D01*
X0254620Y0030284D01*
X0254665Y0030175D01*
X0254706Y0030064D01*
X0254743Y0029952D01*
X0254777Y0029838D01*
X0254807Y0029724D01*
X0254832Y0029609D01*
X0254854Y0029492D01*
X0254872Y0029375D01*
X0254886Y0029258D01*
X0254896Y0029140D01*
X0254902Y0029022D01*
X0254904Y0028904D01*
X0254902Y0028786D01*
X0254896Y0028668D01*
X0254886Y0028550D01*
X0254872Y0028433D01*
X0254854Y0028316D01*
X0254832Y0028199D01*
X0254807Y0028084D01*
X0254777Y0027970D01*
X0254743Y0027856D01*
X0254706Y0027744D01*
X0254665Y0027633D01*
X0254620Y0027524D01*
X0254572Y0027416D01*
X0254520Y0027310D01*
X0254464Y0027205D01*
X0254405Y0027103D01*
X0254343Y0027003D01*
X0254277Y0026905D01*
X0254208Y0026809D01*
X0254135Y0026715D01*
X0254060Y0026624D01*
X0253981Y0026536D01*
X0253900Y0026450D01*
X0253815Y0026367D01*
X0253728Y0026287D01*
X0253639Y0026210D01*
X0253546Y0026136D01*
X0253452Y0026066D01*
X0253355Y0025998D01*
X0253255Y0025934D01*
X0253154Y0025873D01*
X0253051Y0025816D01*
X0252945Y0025762D01*
X0252838Y0025711D01*
X0252730Y0025665D01*
X0252620Y0025622D01*
X0252508Y0025583D01*
X0252395Y0025547D01*
X0252281Y0025516D01*
X0252166Y0025488D01*
X0252051Y0025464D01*
X0251934Y0025444D01*
X0251817Y0025428D01*
X0251699Y0025416D01*
X0251581Y0025408D01*
X0251463Y0025404D01*
X0251345Y0025404D01*
X0251227Y0025408D01*
X0251109Y0025416D01*
X0250991Y0025428D01*
X0250874Y0025444D01*
X0250757Y0025464D01*
X0250642Y0025488D01*
X0250527Y0025516D01*
X0250413Y0025547D01*
X0250300Y0025583D01*
X0250188Y0025622D01*
X0250078Y0025665D01*
X0249970Y0025711D01*
X0249863Y0025762D01*
X0249757Y0025816D01*
X0249654Y0025873D01*
X0249553Y0025934D01*
X0249453Y0025998D01*
X0249356Y0026066D01*
X0249262Y0026136D01*
X0249169Y0026210D01*
X0249080Y0026287D01*
X0248993Y0026367D01*
X0248908Y0026450D01*
X0248827Y0026536D01*
X0248748Y0026624D01*
X0248673Y0026715D01*
X0248600Y0026809D01*
X0248531Y0026905D01*
X0248465Y0027003D01*
X0248403Y0027103D01*
X0248344Y0027205D01*
X0248288Y0027310D01*
X0248236Y0027416D01*
X0248188Y0027524D01*
X0248143Y0027633D01*
X0248102Y0027744D01*
X0248065Y0027856D01*
X0248031Y0027970D01*
X0248001Y0028084D01*
X0247976Y0028199D01*
X0247954Y0028316D01*
X0247936Y0028433D01*
X0247922Y0028550D01*
X0247912Y0028668D01*
X0247906Y0028786D01*
X0247904Y0028904D01*
X0243404Y0031404D02*
X0238904Y0026904D01*
X0237904Y0028904D02*
X0237906Y0029022D01*
X0237912Y0029140D01*
X0237922Y0029258D01*
X0237936Y0029375D01*
X0237954Y0029492D01*
X0237976Y0029609D01*
X0238001Y0029724D01*
X0238031Y0029838D01*
X0238065Y0029952D01*
X0238102Y0030064D01*
X0238143Y0030175D01*
X0238188Y0030284D01*
X0238236Y0030392D01*
X0238288Y0030498D01*
X0238344Y0030603D01*
X0238403Y0030705D01*
X0238465Y0030805D01*
X0238531Y0030903D01*
X0238600Y0030999D01*
X0238673Y0031093D01*
X0238748Y0031184D01*
X0238827Y0031272D01*
X0238908Y0031358D01*
X0238993Y0031441D01*
X0239080Y0031521D01*
X0239169Y0031598D01*
X0239262Y0031672D01*
X0239356Y0031742D01*
X0239453Y0031810D01*
X0239553Y0031874D01*
X0239654Y0031935D01*
X0239757Y0031992D01*
X0239863Y0032046D01*
X0239970Y0032097D01*
X0240078Y0032143D01*
X0240188Y0032186D01*
X0240300Y0032225D01*
X0240413Y0032261D01*
X0240527Y0032292D01*
X0240642Y0032320D01*
X0240757Y0032344D01*
X0240874Y0032364D01*
X0240991Y0032380D01*
X0241109Y0032392D01*
X0241227Y0032400D01*
X0241345Y0032404D01*
X0241463Y0032404D01*
X0241581Y0032400D01*
X0241699Y0032392D01*
X0241817Y0032380D01*
X0241934Y0032364D01*
X0242051Y0032344D01*
X0242166Y0032320D01*
X0242281Y0032292D01*
X0242395Y0032261D01*
X0242508Y0032225D01*
X0242620Y0032186D01*
X0242730Y0032143D01*
X0242838Y0032097D01*
X0242945Y0032046D01*
X0243051Y0031992D01*
X0243154Y0031935D01*
X0243255Y0031874D01*
X0243355Y0031810D01*
X0243452Y0031742D01*
X0243546Y0031672D01*
X0243639Y0031598D01*
X0243728Y0031521D01*
X0243815Y0031441D01*
X0243900Y0031358D01*
X0243981Y0031272D01*
X0244060Y0031184D01*
X0244135Y0031093D01*
X0244208Y0030999D01*
X0244277Y0030903D01*
X0244343Y0030805D01*
X0244405Y0030705D01*
X0244464Y0030603D01*
X0244520Y0030498D01*
X0244572Y0030392D01*
X0244620Y0030284D01*
X0244665Y0030175D01*
X0244706Y0030064D01*
X0244743Y0029952D01*
X0244777Y0029838D01*
X0244807Y0029724D01*
X0244832Y0029609D01*
X0244854Y0029492D01*
X0244872Y0029375D01*
X0244886Y0029258D01*
X0244896Y0029140D01*
X0244902Y0029022D01*
X0244904Y0028904D01*
X0244902Y0028786D01*
X0244896Y0028668D01*
X0244886Y0028550D01*
X0244872Y0028433D01*
X0244854Y0028316D01*
X0244832Y0028199D01*
X0244807Y0028084D01*
X0244777Y0027970D01*
X0244743Y0027856D01*
X0244706Y0027744D01*
X0244665Y0027633D01*
X0244620Y0027524D01*
X0244572Y0027416D01*
X0244520Y0027310D01*
X0244464Y0027205D01*
X0244405Y0027103D01*
X0244343Y0027003D01*
X0244277Y0026905D01*
X0244208Y0026809D01*
X0244135Y0026715D01*
X0244060Y0026624D01*
X0243981Y0026536D01*
X0243900Y0026450D01*
X0243815Y0026367D01*
X0243728Y0026287D01*
X0243639Y0026210D01*
X0243546Y0026136D01*
X0243452Y0026066D01*
X0243355Y0025998D01*
X0243255Y0025934D01*
X0243154Y0025873D01*
X0243051Y0025816D01*
X0242945Y0025762D01*
X0242838Y0025711D01*
X0242730Y0025665D01*
X0242620Y0025622D01*
X0242508Y0025583D01*
X0242395Y0025547D01*
X0242281Y0025516D01*
X0242166Y0025488D01*
X0242051Y0025464D01*
X0241934Y0025444D01*
X0241817Y0025428D01*
X0241699Y0025416D01*
X0241581Y0025408D01*
X0241463Y0025404D01*
X0241345Y0025404D01*
X0241227Y0025408D01*
X0241109Y0025416D01*
X0240991Y0025428D01*
X0240874Y0025444D01*
X0240757Y0025464D01*
X0240642Y0025488D01*
X0240527Y0025516D01*
X0240413Y0025547D01*
X0240300Y0025583D01*
X0240188Y0025622D01*
X0240078Y0025665D01*
X0239970Y0025711D01*
X0239863Y0025762D01*
X0239757Y0025816D01*
X0239654Y0025873D01*
X0239553Y0025934D01*
X0239453Y0025998D01*
X0239356Y0026066D01*
X0239262Y0026136D01*
X0239169Y0026210D01*
X0239080Y0026287D01*
X0238993Y0026367D01*
X0238908Y0026450D01*
X0238827Y0026536D01*
X0238748Y0026624D01*
X0238673Y0026715D01*
X0238600Y0026809D01*
X0238531Y0026905D01*
X0238465Y0027003D01*
X0238403Y0027103D01*
X0238344Y0027205D01*
X0238288Y0027310D01*
X0238236Y0027416D01*
X0238188Y0027524D01*
X0238143Y0027633D01*
X0238102Y0027744D01*
X0238065Y0027856D01*
X0238031Y0027970D01*
X0238001Y0028084D01*
X0237976Y0028199D01*
X0237954Y0028316D01*
X0237936Y0028433D01*
X0237922Y0028550D01*
X0237912Y0028668D01*
X0237906Y0028786D01*
X0237904Y0028904D01*
X0233404Y0031404D02*
X0228904Y0026904D01*
X0227904Y0028904D02*
X0227906Y0029022D01*
X0227912Y0029140D01*
X0227922Y0029258D01*
X0227936Y0029375D01*
X0227954Y0029492D01*
X0227976Y0029609D01*
X0228001Y0029724D01*
X0228031Y0029838D01*
X0228065Y0029952D01*
X0228102Y0030064D01*
X0228143Y0030175D01*
X0228188Y0030284D01*
X0228236Y0030392D01*
X0228288Y0030498D01*
X0228344Y0030603D01*
X0228403Y0030705D01*
X0228465Y0030805D01*
X0228531Y0030903D01*
X0228600Y0030999D01*
X0228673Y0031093D01*
X0228748Y0031184D01*
X0228827Y0031272D01*
X0228908Y0031358D01*
X0228993Y0031441D01*
X0229080Y0031521D01*
X0229169Y0031598D01*
X0229262Y0031672D01*
X0229356Y0031742D01*
X0229453Y0031810D01*
X0229553Y0031874D01*
X0229654Y0031935D01*
X0229757Y0031992D01*
X0229863Y0032046D01*
X0229970Y0032097D01*
X0230078Y0032143D01*
X0230188Y0032186D01*
X0230300Y0032225D01*
X0230413Y0032261D01*
X0230527Y0032292D01*
X0230642Y0032320D01*
X0230757Y0032344D01*
X0230874Y0032364D01*
X0230991Y0032380D01*
X0231109Y0032392D01*
X0231227Y0032400D01*
X0231345Y0032404D01*
X0231463Y0032404D01*
X0231581Y0032400D01*
X0231699Y0032392D01*
X0231817Y0032380D01*
X0231934Y0032364D01*
X0232051Y0032344D01*
X0232166Y0032320D01*
X0232281Y0032292D01*
X0232395Y0032261D01*
X0232508Y0032225D01*
X0232620Y0032186D01*
X0232730Y0032143D01*
X0232838Y0032097D01*
X0232945Y0032046D01*
X0233051Y0031992D01*
X0233154Y0031935D01*
X0233255Y0031874D01*
X0233355Y0031810D01*
X0233452Y0031742D01*
X0233546Y0031672D01*
X0233639Y0031598D01*
X0233728Y0031521D01*
X0233815Y0031441D01*
X0233900Y0031358D01*
X0233981Y0031272D01*
X0234060Y0031184D01*
X0234135Y0031093D01*
X0234208Y0030999D01*
X0234277Y0030903D01*
X0234343Y0030805D01*
X0234405Y0030705D01*
X0234464Y0030603D01*
X0234520Y0030498D01*
X0234572Y0030392D01*
X0234620Y0030284D01*
X0234665Y0030175D01*
X0234706Y0030064D01*
X0234743Y0029952D01*
X0234777Y0029838D01*
X0234807Y0029724D01*
X0234832Y0029609D01*
X0234854Y0029492D01*
X0234872Y0029375D01*
X0234886Y0029258D01*
X0234896Y0029140D01*
X0234902Y0029022D01*
X0234904Y0028904D01*
X0234902Y0028786D01*
X0234896Y0028668D01*
X0234886Y0028550D01*
X0234872Y0028433D01*
X0234854Y0028316D01*
X0234832Y0028199D01*
X0234807Y0028084D01*
X0234777Y0027970D01*
X0234743Y0027856D01*
X0234706Y0027744D01*
X0234665Y0027633D01*
X0234620Y0027524D01*
X0234572Y0027416D01*
X0234520Y0027310D01*
X0234464Y0027205D01*
X0234405Y0027103D01*
X0234343Y0027003D01*
X0234277Y0026905D01*
X0234208Y0026809D01*
X0234135Y0026715D01*
X0234060Y0026624D01*
X0233981Y0026536D01*
X0233900Y0026450D01*
X0233815Y0026367D01*
X0233728Y0026287D01*
X0233639Y0026210D01*
X0233546Y0026136D01*
X0233452Y0026066D01*
X0233355Y0025998D01*
X0233255Y0025934D01*
X0233154Y0025873D01*
X0233051Y0025816D01*
X0232945Y0025762D01*
X0232838Y0025711D01*
X0232730Y0025665D01*
X0232620Y0025622D01*
X0232508Y0025583D01*
X0232395Y0025547D01*
X0232281Y0025516D01*
X0232166Y0025488D01*
X0232051Y0025464D01*
X0231934Y0025444D01*
X0231817Y0025428D01*
X0231699Y0025416D01*
X0231581Y0025408D01*
X0231463Y0025404D01*
X0231345Y0025404D01*
X0231227Y0025408D01*
X0231109Y0025416D01*
X0230991Y0025428D01*
X0230874Y0025444D01*
X0230757Y0025464D01*
X0230642Y0025488D01*
X0230527Y0025516D01*
X0230413Y0025547D01*
X0230300Y0025583D01*
X0230188Y0025622D01*
X0230078Y0025665D01*
X0229970Y0025711D01*
X0229863Y0025762D01*
X0229757Y0025816D01*
X0229654Y0025873D01*
X0229553Y0025934D01*
X0229453Y0025998D01*
X0229356Y0026066D01*
X0229262Y0026136D01*
X0229169Y0026210D01*
X0229080Y0026287D01*
X0228993Y0026367D01*
X0228908Y0026450D01*
X0228827Y0026536D01*
X0228748Y0026624D01*
X0228673Y0026715D01*
X0228600Y0026809D01*
X0228531Y0026905D01*
X0228465Y0027003D01*
X0228403Y0027103D01*
X0228344Y0027205D01*
X0228288Y0027310D01*
X0228236Y0027416D01*
X0228188Y0027524D01*
X0228143Y0027633D01*
X0228102Y0027744D01*
X0228065Y0027856D01*
X0228031Y0027970D01*
X0228001Y0028084D01*
X0227976Y0028199D01*
X0227954Y0028316D01*
X0227936Y0028433D01*
X0227922Y0028550D01*
X0227912Y0028668D01*
X0227906Y0028786D01*
X0227904Y0028904D01*
X0223404Y0031404D02*
X0218904Y0026904D01*
X0217904Y0028904D02*
X0217906Y0029022D01*
X0217912Y0029140D01*
X0217922Y0029258D01*
X0217936Y0029375D01*
X0217954Y0029492D01*
X0217976Y0029609D01*
X0218001Y0029724D01*
X0218031Y0029838D01*
X0218065Y0029952D01*
X0218102Y0030064D01*
X0218143Y0030175D01*
X0218188Y0030284D01*
X0218236Y0030392D01*
X0218288Y0030498D01*
X0218344Y0030603D01*
X0218403Y0030705D01*
X0218465Y0030805D01*
X0218531Y0030903D01*
X0218600Y0030999D01*
X0218673Y0031093D01*
X0218748Y0031184D01*
X0218827Y0031272D01*
X0218908Y0031358D01*
X0218993Y0031441D01*
X0219080Y0031521D01*
X0219169Y0031598D01*
X0219262Y0031672D01*
X0219356Y0031742D01*
X0219453Y0031810D01*
X0219553Y0031874D01*
X0219654Y0031935D01*
X0219757Y0031992D01*
X0219863Y0032046D01*
X0219970Y0032097D01*
X0220078Y0032143D01*
X0220188Y0032186D01*
X0220300Y0032225D01*
X0220413Y0032261D01*
X0220527Y0032292D01*
X0220642Y0032320D01*
X0220757Y0032344D01*
X0220874Y0032364D01*
X0220991Y0032380D01*
X0221109Y0032392D01*
X0221227Y0032400D01*
X0221345Y0032404D01*
X0221463Y0032404D01*
X0221581Y0032400D01*
X0221699Y0032392D01*
X0221817Y0032380D01*
X0221934Y0032364D01*
X0222051Y0032344D01*
X0222166Y0032320D01*
X0222281Y0032292D01*
X0222395Y0032261D01*
X0222508Y0032225D01*
X0222620Y0032186D01*
X0222730Y0032143D01*
X0222838Y0032097D01*
X0222945Y0032046D01*
X0223051Y0031992D01*
X0223154Y0031935D01*
X0223255Y0031874D01*
X0223355Y0031810D01*
X0223452Y0031742D01*
X0223546Y0031672D01*
X0223639Y0031598D01*
X0223728Y0031521D01*
X0223815Y0031441D01*
X0223900Y0031358D01*
X0223981Y0031272D01*
X0224060Y0031184D01*
X0224135Y0031093D01*
X0224208Y0030999D01*
X0224277Y0030903D01*
X0224343Y0030805D01*
X0224405Y0030705D01*
X0224464Y0030603D01*
X0224520Y0030498D01*
X0224572Y0030392D01*
X0224620Y0030284D01*
X0224665Y0030175D01*
X0224706Y0030064D01*
X0224743Y0029952D01*
X0224777Y0029838D01*
X0224807Y0029724D01*
X0224832Y0029609D01*
X0224854Y0029492D01*
X0224872Y0029375D01*
X0224886Y0029258D01*
X0224896Y0029140D01*
X0224902Y0029022D01*
X0224904Y0028904D01*
X0224902Y0028786D01*
X0224896Y0028668D01*
X0224886Y0028550D01*
X0224872Y0028433D01*
X0224854Y0028316D01*
X0224832Y0028199D01*
X0224807Y0028084D01*
X0224777Y0027970D01*
X0224743Y0027856D01*
X0224706Y0027744D01*
X0224665Y0027633D01*
X0224620Y0027524D01*
X0224572Y0027416D01*
X0224520Y0027310D01*
X0224464Y0027205D01*
X0224405Y0027103D01*
X0224343Y0027003D01*
X0224277Y0026905D01*
X0224208Y0026809D01*
X0224135Y0026715D01*
X0224060Y0026624D01*
X0223981Y0026536D01*
X0223900Y0026450D01*
X0223815Y0026367D01*
X0223728Y0026287D01*
X0223639Y0026210D01*
X0223546Y0026136D01*
X0223452Y0026066D01*
X0223355Y0025998D01*
X0223255Y0025934D01*
X0223154Y0025873D01*
X0223051Y0025816D01*
X0222945Y0025762D01*
X0222838Y0025711D01*
X0222730Y0025665D01*
X0222620Y0025622D01*
X0222508Y0025583D01*
X0222395Y0025547D01*
X0222281Y0025516D01*
X0222166Y0025488D01*
X0222051Y0025464D01*
X0221934Y0025444D01*
X0221817Y0025428D01*
X0221699Y0025416D01*
X0221581Y0025408D01*
X0221463Y0025404D01*
X0221345Y0025404D01*
X0221227Y0025408D01*
X0221109Y0025416D01*
X0220991Y0025428D01*
X0220874Y0025444D01*
X0220757Y0025464D01*
X0220642Y0025488D01*
X0220527Y0025516D01*
X0220413Y0025547D01*
X0220300Y0025583D01*
X0220188Y0025622D01*
X0220078Y0025665D01*
X0219970Y0025711D01*
X0219863Y0025762D01*
X0219757Y0025816D01*
X0219654Y0025873D01*
X0219553Y0025934D01*
X0219453Y0025998D01*
X0219356Y0026066D01*
X0219262Y0026136D01*
X0219169Y0026210D01*
X0219080Y0026287D01*
X0218993Y0026367D01*
X0218908Y0026450D01*
X0218827Y0026536D01*
X0218748Y0026624D01*
X0218673Y0026715D01*
X0218600Y0026809D01*
X0218531Y0026905D01*
X0218465Y0027003D01*
X0218403Y0027103D01*
X0218344Y0027205D01*
X0218288Y0027310D01*
X0218236Y0027416D01*
X0218188Y0027524D01*
X0218143Y0027633D01*
X0218102Y0027744D01*
X0218065Y0027856D01*
X0218031Y0027970D01*
X0218001Y0028084D01*
X0217976Y0028199D01*
X0217954Y0028316D01*
X0217936Y0028433D01*
X0217922Y0028550D01*
X0217912Y0028668D01*
X0217906Y0028786D01*
X0217904Y0028904D01*
X0213404Y0026404D02*
X0209404Y0031404D01*
X0207904Y0028904D02*
X0207906Y0029022D01*
X0207912Y0029140D01*
X0207922Y0029258D01*
X0207936Y0029375D01*
X0207954Y0029492D01*
X0207976Y0029609D01*
X0208001Y0029724D01*
X0208031Y0029838D01*
X0208065Y0029952D01*
X0208102Y0030064D01*
X0208143Y0030175D01*
X0208188Y0030284D01*
X0208236Y0030392D01*
X0208288Y0030498D01*
X0208344Y0030603D01*
X0208403Y0030705D01*
X0208465Y0030805D01*
X0208531Y0030903D01*
X0208600Y0030999D01*
X0208673Y0031093D01*
X0208748Y0031184D01*
X0208827Y0031272D01*
X0208908Y0031358D01*
X0208993Y0031441D01*
X0209080Y0031521D01*
X0209169Y0031598D01*
X0209262Y0031672D01*
X0209356Y0031742D01*
X0209453Y0031810D01*
X0209553Y0031874D01*
X0209654Y0031935D01*
X0209757Y0031992D01*
X0209863Y0032046D01*
X0209970Y0032097D01*
X0210078Y0032143D01*
X0210188Y0032186D01*
X0210300Y0032225D01*
X0210413Y0032261D01*
X0210527Y0032292D01*
X0210642Y0032320D01*
X0210757Y0032344D01*
X0210874Y0032364D01*
X0210991Y0032380D01*
X0211109Y0032392D01*
X0211227Y0032400D01*
X0211345Y0032404D01*
X0211463Y0032404D01*
X0211581Y0032400D01*
X0211699Y0032392D01*
X0211817Y0032380D01*
X0211934Y0032364D01*
X0212051Y0032344D01*
X0212166Y0032320D01*
X0212281Y0032292D01*
X0212395Y0032261D01*
X0212508Y0032225D01*
X0212620Y0032186D01*
X0212730Y0032143D01*
X0212838Y0032097D01*
X0212945Y0032046D01*
X0213051Y0031992D01*
X0213154Y0031935D01*
X0213255Y0031874D01*
X0213355Y0031810D01*
X0213452Y0031742D01*
X0213546Y0031672D01*
X0213639Y0031598D01*
X0213728Y0031521D01*
X0213815Y0031441D01*
X0213900Y0031358D01*
X0213981Y0031272D01*
X0214060Y0031184D01*
X0214135Y0031093D01*
X0214208Y0030999D01*
X0214277Y0030903D01*
X0214343Y0030805D01*
X0214405Y0030705D01*
X0214464Y0030603D01*
X0214520Y0030498D01*
X0214572Y0030392D01*
X0214620Y0030284D01*
X0214665Y0030175D01*
X0214706Y0030064D01*
X0214743Y0029952D01*
X0214777Y0029838D01*
X0214807Y0029724D01*
X0214832Y0029609D01*
X0214854Y0029492D01*
X0214872Y0029375D01*
X0214886Y0029258D01*
X0214896Y0029140D01*
X0214902Y0029022D01*
X0214904Y0028904D01*
X0214902Y0028786D01*
X0214896Y0028668D01*
X0214886Y0028550D01*
X0214872Y0028433D01*
X0214854Y0028316D01*
X0214832Y0028199D01*
X0214807Y0028084D01*
X0214777Y0027970D01*
X0214743Y0027856D01*
X0214706Y0027744D01*
X0214665Y0027633D01*
X0214620Y0027524D01*
X0214572Y0027416D01*
X0214520Y0027310D01*
X0214464Y0027205D01*
X0214405Y0027103D01*
X0214343Y0027003D01*
X0214277Y0026905D01*
X0214208Y0026809D01*
X0214135Y0026715D01*
X0214060Y0026624D01*
X0213981Y0026536D01*
X0213900Y0026450D01*
X0213815Y0026367D01*
X0213728Y0026287D01*
X0213639Y0026210D01*
X0213546Y0026136D01*
X0213452Y0026066D01*
X0213355Y0025998D01*
X0213255Y0025934D01*
X0213154Y0025873D01*
X0213051Y0025816D01*
X0212945Y0025762D01*
X0212838Y0025711D01*
X0212730Y0025665D01*
X0212620Y0025622D01*
X0212508Y0025583D01*
X0212395Y0025547D01*
X0212281Y0025516D01*
X0212166Y0025488D01*
X0212051Y0025464D01*
X0211934Y0025444D01*
X0211817Y0025428D01*
X0211699Y0025416D01*
X0211581Y0025408D01*
X0211463Y0025404D01*
X0211345Y0025404D01*
X0211227Y0025408D01*
X0211109Y0025416D01*
X0210991Y0025428D01*
X0210874Y0025444D01*
X0210757Y0025464D01*
X0210642Y0025488D01*
X0210527Y0025516D01*
X0210413Y0025547D01*
X0210300Y0025583D01*
X0210188Y0025622D01*
X0210078Y0025665D01*
X0209970Y0025711D01*
X0209863Y0025762D01*
X0209757Y0025816D01*
X0209654Y0025873D01*
X0209553Y0025934D01*
X0209453Y0025998D01*
X0209356Y0026066D01*
X0209262Y0026136D01*
X0209169Y0026210D01*
X0209080Y0026287D01*
X0208993Y0026367D01*
X0208908Y0026450D01*
X0208827Y0026536D01*
X0208748Y0026624D01*
X0208673Y0026715D01*
X0208600Y0026809D01*
X0208531Y0026905D01*
X0208465Y0027003D01*
X0208403Y0027103D01*
X0208344Y0027205D01*
X0208288Y0027310D01*
X0208236Y0027416D01*
X0208188Y0027524D01*
X0208143Y0027633D01*
X0208102Y0027744D01*
X0208065Y0027856D01*
X0208031Y0027970D01*
X0208001Y0028084D01*
X0207976Y0028199D01*
X0207954Y0028316D01*
X0207936Y0028433D01*
X0207922Y0028550D01*
X0207912Y0028668D01*
X0207906Y0028786D01*
X0207904Y0028904D01*
X0204404Y0027404D02*
X0198404Y0030404D01*
X0197904Y0028904D02*
X0197906Y0029022D01*
X0197912Y0029140D01*
X0197922Y0029258D01*
X0197936Y0029375D01*
X0197954Y0029492D01*
X0197976Y0029609D01*
X0198001Y0029724D01*
X0198031Y0029838D01*
X0198065Y0029952D01*
X0198102Y0030064D01*
X0198143Y0030175D01*
X0198188Y0030284D01*
X0198236Y0030392D01*
X0198288Y0030498D01*
X0198344Y0030603D01*
X0198403Y0030705D01*
X0198465Y0030805D01*
X0198531Y0030903D01*
X0198600Y0030999D01*
X0198673Y0031093D01*
X0198748Y0031184D01*
X0198827Y0031272D01*
X0198908Y0031358D01*
X0198993Y0031441D01*
X0199080Y0031521D01*
X0199169Y0031598D01*
X0199262Y0031672D01*
X0199356Y0031742D01*
X0199453Y0031810D01*
X0199553Y0031874D01*
X0199654Y0031935D01*
X0199757Y0031992D01*
X0199863Y0032046D01*
X0199970Y0032097D01*
X0200078Y0032143D01*
X0200188Y0032186D01*
X0200300Y0032225D01*
X0200413Y0032261D01*
X0200527Y0032292D01*
X0200642Y0032320D01*
X0200757Y0032344D01*
X0200874Y0032364D01*
X0200991Y0032380D01*
X0201109Y0032392D01*
X0201227Y0032400D01*
X0201345Y0032404D01*
X0201463Y0032404D01*
X0201581Y0032400D01*
X0201699Y0032392D01*
X0201817Y0032380D01*
X0201934Y0032364D01*
X0202051Y0032344D01*
X0202166Y0032320D01*
X0202281Y0032292D01*
X0202395Y0032261D01*
X0202508Y0032225D01*
X0202620Y0032186D01*
X0202730Y0032143D01*
X0202838Y0032097D01*
X0202945Y0032046D01*
X0203051Y0031992D01*
X0203154Y0031935D01*
X0203255Y0031874D01*
X0203355Y0031810D01*
X0203452Y0031742D01*
X0203546Y0031672D01*
X0203639Y0031598D01*
X0203728Y0031521D01*
X0203815Y0031441D01*
X0203900Y0031358D01*
X0203981Y0031272D01*
X0204060Y0031184D01*
X0204135Y0031093D01*
X0204208Y0030999D01*
X0204277Y0030903D01*
X0204343Y0030805D01*
X0204405Y0030705D01*
X0204464Y0030603D01*
X0204520Y0030498D01*
X0204572Y0030392D01*
X0204620Y0030284D01*
X0204665Y0030175D01*
X0204706Y0030064D01*
X0204743Y0029952D01*
X0204777Y0029838D01*
X0204807Y0029724D01*
X0204832Y0029609D01*
X0204854Y0029492D01*
X0204872Y0029375D01*
X0204886Y0029258D01*
X0204896Y0029140D01*
X0204902Y0029022D01*
X0204904Y0028904D01*
X0204902Y0028786D01*
X0204896Y0028668D01*
X0204886Y0028550D01*
X0204872Y0028433D01*
X0204854Y0028316D01*
X0204832Y0028199D01*
X0204807Y0028084D01*
X0204777Y0027970D01*
X0204743Y0027856D01*
X0204706Y0027744D01*
X0204665Y0027633D01*
X0204620Y0027524D01*
X0204572Y0027416D01*
X0204520Y0027310D01*
X0204464Y0027205D01*
X0204405Y0027103D01*
X0204343Y0027003D01*
X0204277Y0026905D01*
X0204208Y0026809D01*
X0204135Y0026715D01*
X0204060Y0026624D01*
X0203981Y0026536D01*
X0203900Y0026450D01*
X0203815Y0026367D01*
X0203728Y0026287D01*
X0203639Y0026210D01*
X0203546Y0026136D01*
X0203452Y0026066D01*
X0203355Y0025998D01*
X0203255Y0025934D01*
X0203154Y0025873D01*
X0203051Y0025816D01*
X0202945Y0025762D01*
X0202838Y0025711D01*
X0202730Y0025665D01*
X0202620Y0025622D01*
X0202508Y0025583D01*
X0202395Y0025547D01*
X0202281Y0025516D01*
X0202166Y0025488D01*
X0202051Y0025464D01*
X0201934Y0025444D01*
X0201817Y0025428D01*
X0201699Y0025416D01*
X0201581Y0025408D01*
X0201463Y0025404D01*
X0201345Y0025404D01*
X0201227Y0025408D01*
X0201109Y0025416D01*
X0200991Y0025428D01*
X0200874Y0025444D01*
X0200757Y0025464D01*
X0200642Y0025488D01*
X0200527Y0025516D01*
X0200413Y0025547D01*
X0200300Y0025583D01*
X0200188Y0025622D01*
X0200078Y0025665D01*
X0199970Y0025711D01*
X0199863Y0025762D01*
X0199757Y0025816D01*
X0199654Y0025873D01*
X0199553Y0025934D01*
X0199453Y0025998D01*
X0199356Y0026066D01*
X0199262Y0026136D01*
X0199169Y0026210D01*
X0199080Y0026287D01*
X0198993Y0026367D01*
X0198908Y0026450D01*
X0198827Y0026536D01*
X0198748Y0026624D01*
X0198673Y0026715D01*
X0198600Y0026809D01*
X0198531Y0026905D01*
X0198465Y0027003D01*
X0198403Y0027103D01*
X0198344Y0027205D01*
X0198288Y0027310D01*
X0198236Y0027416D01*
X0198188Y0027524D01*
X0198143Y0027633D01*
X0198102Y0027744D01*
X0198065Y0027856D01*
X0198031Y0027970D01*
X0198001Y0028084D01*
X0197976Y0028199D01*
X0197954Y0028316D01*
X0197936Y0028433D01*
X0197922Y0028550D01*
X0197912Y0028668D01*
X0197906Y0028786D01*
X0197904Y0028904D01*
X0193404Y0026404D02*
X0189404Y0031404D01*
X0187904Y0028904D02*
X0187906Y0029022D01*
X0187912Y0029140D01*
X0187922Y0029258D01*
X0187936Y0029375D01*
X0187954Y0029492D01*
X0187976Y0029609D01*
X0188001Y0029724D01*
X0188031Y0029838D01*
X0188065Y0029952D01*
X0188102Y0030064D01*
X0188143Y0030175D01*
X0188188Y0030284D01*
X0188236Y0030392D01*
X0188288Y0030498D01*
X0188344Y0030603D01*
X0188403Y0030705D01*
X0188465Y0030805D01*
X0188531Y0030903D01*
X0188600Y0030999D01*
X0188673Y0031093D01*
X0188748Y0031184D01*
X0188827Y0031272D01*
X0188908Y0031358D01*
X0188993Y0031441D01*
X0189080Y0031521D01*
X0189169Y0031598D01*
X0189262Y0031672D01*
X0189356Y0031742D01*
X0189453Y0031810D01*
X0189553Y0031874D01*
X0189654Y0031935D01*
X0189757Y0031992D01*
X0189863Y0032046D01*
X0189970Y0032097D01*
X0190078Y0032143D01*
X0190188Y0032186D01*
X0190300Y0032225D01*
X0190413Y0032261D01*
X0190527Y0032292D01*
X0190642Y0032320D01*
X0190757Y0032344D01*
X0190874Y0032364D01*
X0190991Y0032380D01*
X0191109Y0032392D01*
X0191227Y0032400D01*
X0191345Y0032404D01*
X0191463Y0032404D01*
X0191581Y0032400D01*
X0191699Y0032392D01*
X0191817Y0032380D01*
X0191934Y0032364D01*
X0192051Y0032344D01*
X0192166Y0032320D01*
X0192281Y0032292D01*
X0192395Y0032261D01*
X0192508Y0032225D01*
X0192620Y0032186D01*
X0192730Y0032143D01*
X0192838Y0032097D01*
X0192945Y0032046D01*
X0193051Y0031992D01*
X0193154Y0031935D01*
X0193255Y0031874D01*
X0193355Y0031810D01*
X0193452Y0031742D01*
X0193546Y0031672D01*
X0193639Y0031598D01*
X0193728Y0031521D01*
X0193815Y0031441D01*
X0193900Y0031358D01*
X0193981Y0031272D01*
X0194060Y0031184D01*
X0194135Y0031093D01*
X0194208Y0030999D01*
X0194277Y0030903D01*
X0194343Y0030805D01*
X0194405Y0030705D01*
X0194464Y0030603D01*
X0194520Y0030498D01*
X0194572Y0030392D01*
X0194620Y0030284D01*
X0194665Y0030175D01*
X0194706Y0030064D01*
X0194743Y0029952D01*
X0194777Y0029838D01*
X0194807Y0029724D01*
X0194832Y0029609D01*
X0194854Y0029492D01*
X0194872Y0029375D01*
X0194886Y0029258D01*
X0194896Y0029140D01*
X0194902Y0029022D01*
X0194904Y0028904D01*
X0194902Y0028786D01*
X0194896Y0028668D01*
X0194886Y0028550D01*
X0194872Y0028433D01*
X0194854Y0028316D01*
X0194832Y0028199D01*
X0194807Y0028084D01*
X0194777Y0027970D01*
X0194743Y0027856D01*
X0194706Y0027744D01*
X0194665Y0027633D01*
X0194620Y0027524D01*
X0194572Y0027416D01*
X0194520Y0027310D01*
X0194464Y0027205D01*
X0194405Y0027103D01*
X0194343Y0027003D01*
X0194277Y0026905D01*
X0194208Y0026809D01*
X0194135Y0026715D01*
X0194060Y0026624D01*
X0193981Y0026536D01*
X0193900Y0026450D01*
X0193815Y0026367D01*
X0193728Y0026287D01*
X0193639Y0026210D01*
X0193546Y0026136D01*
X0193452Y0026066D01*
X0193355Y0025998D01*
X0193255Y0025934D01*
X0193154Y0025873D01*
X0193051Y0025816D01*
X0192945Y0025762D01*
X0192838Y0025711D01*
X0192730Y0025665D01*
X0192620Y0025622D01*
X0192508Y0025583D01*
X0192395Y0025547D01*
X0192281Y0025516D01*
X0192166Y0025488D01*
X0192051Y0025464D01*
X0191934Y0025444D01*
X0191817Y0025428D01*
X0191699Y0025416D01*
X0191581Y0025408D01*
X0191463Y0025404D01*
X0191345Y0025404D01*
X0191227Y0025408D01*
X0191109Y0025416D01*
X0190991Y0025428D01*
X0190874Y0025444D01*
X0190757Y0025464D01*
X0190642Y0025488D01*
X0190527Y0025516D01*
X0190413Y0025547D01*
X0190300Y0025583D01*
X0190188Y0025622D01*
X0190078Y0025665D01*
X0189970Y0025711D01*
X0189863Y0025762D01*
X0189757Y0025816D01*
X0189654Y0025873D01*
X0189553Y0025934D01*
X0189453Y0025998D01*
X0189356Y0026066D01*
X0189262Y0026136D01*
X0189169Y0026210D01*
X0189080Y0026287D01*
X0188993Y0026367D01*
X0188908Y0026450D01*
X0188827Y0026536D01*
X0188748Y0026624D01*
X0188673Y0026715D01*
X0188600Y0026809D01*
X0188531Y0026905D01*
X0188465Y0027003D01*
X0188403Y0027103D01*
X0188344Y0027205D01*
X0188288Y0027310D01*
X0188236Y0027416D01*
X0188188Y0027524D01*
X0188143Y0027633D01*
X0188102Y0027744D01*
X0188065Y0027856D01*
X0188031Y0027970D01*
X0188001Y0028084D01*
X0187976Y0028199D01*
X0187954Y0028316D01*
X0187936Y0028433D01*
X0187922Y0028550D01*
X0187912Y0028668D01*
X0187906Y0028786D01*
X0187904Y0028904D01*
X0184404Y0027404D02*
X0178404Y0030404D01*
X0177904Y0028904D02*
X0177906Y0029022D01*
X0177912Y0029140D01*
X0177922Y0029258D01*
X0177936Y0029375D01*
X0177954Y0029492D01*
X0177976Y0029609D01*
X0178001Y0029724D01*
X0178031Y0029838D01*
X0178065Y0029952D01*
X0178102Y0030064D01*
X0178143Y0030175D01*
X0178188Y0030284D01*
X0178236Y0030392D01*
X0178288Y0030498D01*
X0178344Y0030603D01*
X0178403Y0030705D01*
X0178465Y0030805D01*
X0178531Y0030903D01*
X0178600Y0030999D01*
X0178673Y0031093D01*
X0178748Y0031184D01*
X0178827Y0031272D01*
X0178908Y0031358D01*
X0178993Y0031441D01*
X0179080Y0031521D01*
X0179169Y0031598D01*
X0179262Y0031672D01*
X0179356Y0031742D01*
X0179453Y0031810D01*
X0179553Y0031874D01*
X0179654Y0031935D01*
X0179757Y0031992D01*
X0179863Y0032046D01*
X0179970Y0032097D01*
X0180078Y0032143D01*
X0180188Y0032186D01*
X0180300Y0032225D01*
X0180413Y0032261D01*
X0180527Y0032292D01*
X0180642Y0032320D01*
X0180757Y0032344D01*
X0180874Y0032364D01*
X0180991Y0032380D01*
X0181109Y0032392D01*
X0181227Y0032400D01*
X0181345Y0032404D01*
X0181463Y0032404D01*
X0181581Y0032400D01*
X0181699Y0032392D01*
X0181817Y0032380D01*
X0181934Y0032364D01*
X0182051Y0032344D01*
X0182166Y0032320D01*
X0182281Y0032292D01*
X0182395Y0032261D01*
X0182508Y0032225D01*
X0182620Y0032186D01*
X0182730Y0032143D01*
X0182838Y0032097D01*
X0182945Y0032046D01*
X0183051Y0031992D01*
X0183154Y0031935D01*
X0183255Y0031874D01*
X0183355Y0031810D01*
X0183452Y0031742D01*
X0183546Y0031672D01*
X0183639Y0031598D01*
X0183728Y0031521D01*
X0183815Y0031441D01*
X0183900Y0031358D01*
X0183981Y0031272D01*
X0184060Y0031184D01*
X0184135Y0031093D01*
X0184208Y0030999D01*
X0184277Y0030903D01*
X0184343Y0030805D01*
X0184405Y0030705D01*
X0184464Y0030603D01*
X0184520Y0030498D01*
X0184572Y0030392D01*
X0184620Y0030284D01*
X0184665Y0030175D01*
X0184706Y0030064D01*
X0184743Y0029952D01*
X0184777Y0029838D01*
X0184807Y0029724D01*
X0184832Y0029609D01*
X0184854Y0029492D01*
X0184872Y0029375D01*
X0184886Y0029258D01*
X0184896Y0029140D01*
X0184902Y0029022D01*
X0184904Y0028904D01*
X0184902Y0028786D01*
X0184896Y0028668D01*
X0184886Y0028550D01*
X0184872Y0028433D01*
X0184854Y0028316D01*
X0184832Y0028199D01*
X0184807Y0028084D01*
X0184777Y0027970D01*
X0184743Y0027856D01*
X0184706Y0027744D01*
X0184665Y0027633D01*
X0184620Y0027524D01*
X0184572Y0027416D01*
X0184520Y0027310D01*
X0184464Y0027205D01*
X0184405Y0027103D01*
X0184343Y0027003D01*
X0184277Y0026905D01*
X0184208Y0026809D01*
X0184135Y0026715D01*
X0184060Y0026624D01*
X0183981Y0026536D01*
X0183900Y0026450D01*
X0183815Y0026367D01*
X0183728Y0026287D01*
X0183639Y0026210D01*
X0183546Y0026136D01*
X0183452Y0026066D01*
X0183355Y0025998D01*
X0183255Y0025934D01*
X0183154Y0025873D01*
X0183051Y0025816D01*
X0182945Y0025762D01*
X0182838Y0025711D01*
X0182730Y0025665D01*
X0182620Y0025622D01*
X0182508Y0025583D01*
X0182395Y0025547D01*
X0182281Y0025516D01*
X0182166Y0025488D01*
X0182051Y0025464D01*
X0181934Y0025444D01*
X0181817Y0025428D01*
X0181699Y0025416D01*
X0181581Y0025408D01*
X0181463Y0025404D01*
X0181345Y0025404D01*
X0181227Y0025408D01*
X0181109Y0025416D01*
X0180991Y0025428D01*
X0180874Y0025444D01*
X0180757Y0025464D01*
X0180642Y0025488D01*
X0180527Y0025516D01*
X0180413Y0025547D01*
X0180300Y0025583D01*
X0180188Y0025622D01*
X0180078Y0025665D01*
X0179970Y0025711D01*
X0179863Y0025762D01*
X0179757Y0025816D01*
X0179654Y0025873D01*
X0179553Y0025934D01*
X0179453Y0025998D01*
X0179356Y0026066D01*
X0179262Y0026136D01*
X0179169Y0026210D01*
X0179080Y0026287D01*
X0178993Y0026367D01*
X0178908Y0026450D01*
X0178827Y0026536D01*
X0178748Y0026624D01*
X0178673Y0026715D01*
X0178600Y0026809D01*
X0178531Y0026905D01*
X0178465Y0027003D01*
X0178403Y0027103D01*
X0178344Y0027205D01*
X0178288Y0027310D01*
X0178236Y0027416D01*
X0178188Y0027524D01*
X0178143Y0027633D01*
X0178102Y0027744D01*
X0178065Y0027856D01*
X0178031Y0027970D01*
X0178001Y0028084D01*
X0177976Y0028199D01*
X0177954Y0028316D01*
X0177936Y0028433D01*
X0177922Y0028550D01*
X0177912Y0028668D01*
X0177906Y0028786D01*
X0177904Y0028904D01*
X0173404Y0026404D02*
X0169404Y0031404D01*
X0167904Y0028904D02*
X0167906Y0029022D01*
X0167912Y0029140D01*
X0167922Y0029258D01*
X0167936Y0029375D01*
X0167954Y0029492D01*
X0167976Y0029609D01*
X0168001Y0029724D01*
X0168031Y0029838D01*
X0168065Y0029952D01*
X0168102Y0030064D01*
X0168143Y0030175D01*
X0168188Y0030284D01*
X0168236Y0030392D01*
X0168288Y0030498D01*
X0168344Y0030603D01*
X0168403Y0030705D01*
X0168465Y0030805D01*
X0168531Y0030903D01*
X0168600Y0030999D01*
X0168673Y0031093D01*
X0168748Y0031184D01*
X0168827Y0031272D01*
X0168908Y0031358D01*
X0168993Y0031441D01*
X0169080Y0031521D01*
X0169169Y0031598D01*
X0169262Y0031672D01*
X0169356Y0031742D01*
X0169453Y0031810D01*
X0169553Y0031874D01*
X0169654Y0031935D01*
X0169757Y0031992D01*
X0169863Y0032046D01*
X0169970Y0032097D01*
X0170078Y0032143D01*
X0170188Y0032186D01*
X0170300Y0032225D01*
X0170413Y0032261D01*
X0170527Y0032292D01*
X0170642Y0032320D01*
X0170757Y0032344D01*
X0170874Y0032364D01*
X0170991Y0032380D01*
X0171109Y0032392D01*
X0171227Y0032400D01*
X0171345Y0032404D01*
X0171463Y0032404D01*
X0171581Y0032400D01*
X0171699Y0032392D01*
X0171817Y0032380D01*
X0171934Y0032364D01*
X0172051Y0032344D01*
X0172166Y0032320D01*
X0172281Y0032292D01*
X0172395Y0032261D01*
X0172508Y0032225D01*
X0172620Y0032186D01*
X0172730Y0032143D01*
X0172838Y0032097D01*
X0172945Y0032046D01*
X0173051Y0031992D01*
X0173154Y0031935D01*
X0173255Y0031874D01*
X0173355Y0031810D01*
X0173452Y0031742D01*
X0173546Y0031672D01*
X0173639Y0031598D01*
X0173728Y0031521D01*
X0173815Y0031441D01*
X0173900Y0031358D01*
X0173981Y0031272D01*
X0174060Y0031184D01*
X0174135Y0031093D01*
X0174208Y0030999D01*
X0174277Y0030903D01*
X0174343Y0030805D01*
X0174405Y0030705D01*
X0174464Y0030603D01*
X0174520Y0030498D01*
X0174572Y0030392D01*
X0174620Y0030284D01*
X0174665Y0030175D01*
X0174706Y0030064D01*
X0174743Y0029952D01*
X0174777Y0029838D01*
X0174807Y0029724D01*
X0174832Y0029609D01*
X0174854Y0029492D01*
X0174872Y0029375D01*
X0174886Y0029258D01*
X0174896Y0029140D01*
X0174902Y0029022D01*
X0174904Y0028904D01*
X0174902Y0028786D01*
X0174896Y0028668D01*
X0174886Y0028550D01*
X0174872Y0028433D01*
X0174854Y0028316D01*
X0174832Y0028199D01*
X0174807Y0028084D01*
X0174777Y0027970D01*
X0174743Y0027856D01*
X0174706Y0027744D01*
X0174665Y0027633D01*
X0174620Y0027524D01*
X0174572Y0027416D01*
X0174520Y0027310D01*
X0174464Y0027205D01*
X0174405Y0027103D01*
X0174343Y0027003D01*
X0174277Y0026905D01*
X0174208Y0026809D01*
X0174135Y0026715D01*
X0174060Y0026624D01*
X0173981Y0026536D01*
X0173900Y0026450D01*
X0173815Y0026367D01*
X0173728Y0026287D01*
X0173639Y0026210D01*
X0173546Y0026136D01*
X0173452Y0026066D01*
X0173355Y0025998D01*
X0173255Y0025934D01*
X0173154Y0025873D01*
X0173051Y0025816D01*
X0172945Y0025762D01*
X0172838Y0025711D01*
X0172730Y0025665D01*
X0172620Y0025622D01*
X0172508Y0025583D01*
X0172395Y0025547D01*
X0172281Y0025516D01*
X0172166Y0025488D01*
X0172051Y0025464D01*
X0171934Y0025444D01*
X0171817Y0025428D01*
X0171699Y0025416D01*
X0171581Y0025408D01*
X0171463Y0025404D01*
X0171345Y0025404D01*
X0171227Y0025408D01*
X0171109Y0025416D01*
X0170991Y0025428D01*
X0170874Y0025444D01*
X0170757Y0025464D01*
X0170642Y0025488D01*
X0170527Y0025516D01*
X0170413Y0025547D01*
X0170300Y0025583D01*
X0170188Y0025622D01*
X0170078Y0025665D01*
X0169970Y0025711D01*
X0169863Y0025762D01*
X0169757Y0025816D01*
X0169654Y0025873D01*
X0169553Y0025934D01*
X0169453Y0025998D01*
X0169356Y0026066D01*
X0169262Y0026136D01*
X0169169Y0026210D01*
X0169080Y0026287D01*
X0168993Y0026367D01*
X0168908Y0026450D01*
X0168827Y0026536D01*
X0168748Y0026624D01*
X0168673Y0026715D01*
X0168600Y0026809D01*
X0168531Y0026905D01*
X0168465Y0027003D01*
X0168403Y0027103D01*
X0168344Y0027205D01*
X0168288Y0027310D01*
X0168236Y0027416D01*
X0168188Y0027524D01*
X0168143Y0027633D01*
X0168102Y0027744D01*
X0168065Y0027856D01*
X0168031Y0027970D01*
X0168001Y0028084D01*
X0167976Y0028199D01*
X0167954Y0028316D01*
X0167936Y0028433D01*
X0167922Y0028550D01*
X0167912Y0028668D01*
X0167906Y0028786D01*
X0167904Y0028904D01*
X0164404Y0029404D02*
X0158404Y0027904D01*
X0157904Y0028904D02*
X0157906Y0029022D01*
X0157912Y0029140D01*
X0157922Y0029258D01*
X0157936Y0029375D01*
X0157954Y0029492D01*
X0157976Y0029609D01*
X0158001Y0029724D01*
X0158031Y0029838D01*
X0158065Y0029952D01*
X0158102Y0030064D01*
X0158143Y0030175D01*
X0158188Y0030284D01*
X0158236Y0030392D01*
X0158288Y0030498D01*
X0158344Y0030603D01*
X0158403Y0030705D01*
X0158465Y0030805D01*
X0158531Y0030903D01*
X0158600Y0030999D01*
X0158673Y0031093D01*
X0158748Y0031184D01*
X0158827Y0031272D01*
X0158908Y0031358D01*
X0158993Y0031441D01*
X0159080Y0031521D01*
X0159169Y0031598D01*
X0159262Y0031672D01*
X0159356Y0031742D01*
X0159453Y0031810D01*
X0159553Y0031874D01*
X0159654Y0031935D01*
X0159757Y0031992D01*
X0159863Y0032046D01*
X0159970Y0032097D01*
X0160078Y0032143D01*
X0160188Y0032186D01*
X0160300Y0032225D01*
X0160413Y0032261D01*
X0160527Y0032292D01*
X0160642Y0032320D01*
X0160757Y0032344D01*
X0160874Y0032364D01*
X0160991Y0032380D01*
X0161109Y0032392D01*
X0161227Y0032400D01*
X0161345Y0032404D01*
X0161463Y0032404D01*
X0161581Y0032400D01*
X0161699Y0032392D01*
X0161817Y0032380D01*
X0161934Y0032364D01*
X0162051Y0032344D01*
X0162166Y0032320D01*
X0162281Y0032292D01*
X0162395Y0032261D01*
X0162508Y0032225D01*
X0162620Y0032186D01*
X0162730Y0032143D01*
X0162838Y0032097D01*
X0162945Y0032046D01*
X0163051Y0031992D01*
X0163154Y0031935D01*
X0163255Y0031874D01*
X0163355Y0031810D01*
X0163452Y0031742D01*
X0163546Y0031672D01*
X0163639Y0031598D01*
X0163728Y0031521D01*
X0163815Y0031441D01*
X0163900Y0031358D01*
X0163981Y0031272D01*
X0164060Y0031184D01*
X0164135Y0031093D01*
X0164208Y0030999D01*
X0164277Y0030903D01*
X0164343Y0030805D01*
X0164405Y0030705D01*
X0164464Y0030603D01*
X0164520Y0030498D01*
X0164572Y0030392D01*
X0164620Y0030284D01*
X0164665Y0030175D01*
X0164706Y0030064D01*
X0164743Y0029952D01*
X0164777Y0029838D01*
X0164807Y0029724D01*
X0164832Y0029609D01*
X0164854Y0029492D01*
X0164872Y0029375D01*
X0164886Y0029258D01*
X0164896Y0029140D01*
X0164902Y0029022D01*
X0164904Y0028904D01*
X0164902Y0028786D01*
X0164896Y0028668D01*
X0164886Y0028550D01*
X0164872Y0028433D01*
X0164854Y0028316D01*
X0164832Y0028199D01*
X0164807Y0028084D01*
X0164777Y0027970D01*
X0164743Y0027856D01*
X0164706Y0027744D01*
X0164665Y0027633D01*
X0164620Y0027524D01*
X0164572Y0027416D01*
X0164520Y0027310D01*
X0164464Y0027205D01*
X0164405Y0027103D01*
X0164343Y0027003D01*
X0164277Y0026905D01*
X0164208Y0026809D01*
X0164135Y0026715D01*
X0164060Y0026624D01*
X0163981Y0026536D01*
X0163900Y0026450D01*
X0163815Y0026367D01*
X0163728Y0026287D01*
X0163639Y0026210D01*
X0163546Y0026136D01*
X0163452Y0026066D01*
X0163355Y0025998D01*
X0163255Y0025934D01*
X0163154Y0025873D01*
X0163051Y0025816D01*
X0162945Y0025762D01*
X0162838Y0025711D01*
X0162730Y0025665D01*
X0162620Y0025622D01*
X0162508Y0025583D01*
X0162395Y0025547D01*
X0162281Y0025516D01*
X0162166Y0025488D01*
X0162051Y0025464D01*
X0161934Y0025444D01*
X0161817Y0025428D01*
X0161699Y0025416D01*
X0161581Y0025408D01*
X0161463Y0025404D01*
X0161345Y0025404D01*
X0161227Y0025408D01*
X0161109Y0025416D01*
X0160991Y0025428D01*
X0160874Y0025444D01*
X0160757Y0025464D01*
X0160642Y0025488D01*
X0160527Y0025516D01*
X0160413Y0025547D01*
X0160300Y0025583D01*
X0160188Y0025622D01*
X0160078Y0025665D01*
X0159970Y0025711D01*
X0159863Y0025762D01*
X0159757Y0025816D01*
X0159654Y0025873D01*
X0159553Y0025934D01*
X0159453Y0025998D01*
X0159356Y0026066D01*
X0159262Y0026136D01*
X0159169Y0026210D01*
X0159080Y0026287D01*
X0158993Y0026367D01*
X0158908Y0026450D01*
X0158827Y0026536D01*
X0158748Y0026624D01*
X0158673Y0026715D01*
X0158600Y0026809D01*
X0158531Y0026905D01*
X0158465Y0027003D01*
X0158403Y0027103D01*
X0158344Y0027205D01*
X0158288Y0027310D01*
X0158236Y0027416D01*
X0158188Y0027524D01*
X0158143Y0027633D01*
X0158102Y0027744D01*
X0158065Y0027856D01*
X0158031Y0027970D01*
X0158001Y0028084D01*
X0157976Y0028199D01*
X0157954Y0028316D01*
X0157936Y0028433D01*
X0157922Y0028550D01*
X0157912Y0028668D01*
X0157906Y0028786D01*
X0157904Y0028904D01*
X0153404Y0031404D02*
X0148904Y0026904D01*
X0147904Y0028904D02*
X0147906Y0029022D01*
X0147912Y0029140D01*
X0147922Y0029258D01*
X0147936Y0029375D01*
X0147954Y0029492D01*
X0147976Y0029609D01*
X0148001Y0029724D01*
X0148031Y0029838D01*
X0148065Y0029952D01*
X0148102Y0030064D01*
X0148143Y0030175D01*
X0148188Y0030284D01*
X0148236Y0030392D01*
X0148288Y0030498D01*
X0148344Y0030603D01*
X0148403Y0030705D01*
X0148465Y0030805D01*
X0148531Y0030903D01*
X0148600Y0030999D01*
X0148673Y0031093D01*
X0148748Y0031184D01*
X0148827Y0031272D01*
X0148908Y0031358D01*
X0148993Y0031441D01*
X0149080Y0031521D01*
X0149169Y0031598D01*
X0149262Y0031672D01*
X0149356Y0031742D01*
X0149453Y0031810D01*
X0149553Y0031874D01*
X0149654Y0031935D01*
X0149757Y0031992D01*
X0149863Y0032046D01*
X0149970Y0032097D01*
X0150078Y0032143D01*
X0150188Y0032186D01*
X0150300Y0032225D01*
X0150413Y0032261D01*
X0150527Y0032292D01*
X0150642Y0032320D01*
X0150757Y0032344D01*
X0150874Y0032364D01*
X0150991Y0032380D01*
X0151109Y0032392D01*
X0151227Y0032400D01*
X0151345Y0032404D01*
X0151463Y0032404D01*
X0151581Y0032400D01*
X0151699Y0032392D01*
X0151817Y0032380D01*
X0151934Y0032364D01*
X0152051Y0032344D01*
X0152166Y0032320D01*
X0152281Y0032292D01*
X0152395Y0032261D01*
X0152508Y0032225D01*
X0152620Y0032186D01*
X0152730Y0032143D01*
X0152838Y0032097D01*
X0152945Y0032046D01*
X0153051Y0031992D01*
X0153154Y0031935D01*
X0153255Y0031874D01*
X0153355Y0031810D01*
X0153452Y0031742D01*
X0153546Y0031672D01*
X0153639Y0031598D01*
X0153728Y0031521D01*
X0153815Y0031441D01*
X0153900Y0031358D01*
X0153981Y0031272D01*
X0154060Y0031184D01*
X0154135Y0031093D01*
X0154208Y0030999D01*
X0154277Y0030903D01*
X0154343Y0030805D01*
X0154405Y0030705D01*
X0154464Y0030603D01*
X0154520Y0030498D01*
X0154572Y0030392D01*
X0154620Y0030284D01*
X0154665Y0030175D01*
X0154706Y0030064D01*
X0154743Y0029952D01*
X0154777Y0029838D01*
X0154807Y0029724D01*
X0154832Y0029609D01*
X0154854Y0029492D01*
X0154872Y0029375D01*
X0154886Y0029258D01*
X0154896Y0029140D01*
X0154902Y0029022D01*
X0154904Y0028904D01*
X0154902Y0028786D01*
X0154896Y0028668D01*
X0154886Y0028550D01*
X0154872Y0028433D01*
X0154854Y0028316D01*
X0154832Y0028199D01*
X0154807Y0028084D01*
X0154777Y0027970D01*
X0154743Y0027856D01*
X0154706Y0027744D01*
X0154665Y0027633D01*
X0154620Y0027524D01*
X0154572Y0027416D01*
X0154520Y0027310D01*
X0154464Y0027205D01*
X0154405Y0027103D01*
X0154343Y0027003D01*
X0154277Y0026905D01*
X0154208Y0026809D01*
X0154135Y0026715D01*
X0154060Y0026624D01*
X0153981Y0026536D01*
X0153900Y0026450D01*
X0153815Y0026367D01*
X0153728Y0026287D01*
X0153639Y0026210D01*
X0153546Y0026136D01*
X0153452Y0026066D01*
X0153355Y0025998D01*
X0153255Y0025934D01*
X0153154Y0025873D01*
X0153051Y0025816D01*
X0152945Y0025762D01*
X0152838Y0025711D01*
X0152730Y0025665D01*
X0152620Y0025622D01*
X0152508Y0025583D01*
X0152395Y0025547D01*
X0152281Y0025516D01*
X0152166Y0025488D01*
X0152051Y0025464D01*
X0151934Y0025444D01*
X0151817Y0025428D01*
X0151699Y0025416D01*
X0151581Y0025408D01*
X0151463Y0025404D01*
X0151345Y0025404D01*
X0151227Y0025408D01*
X0151109Y0025416D01*
X0150991Y0025428D01*
X0150874Y0025444D01*
X0150757Y0025464D01*
X0150642Y0025488D01*
X0150527Y0025516D01*
X0150413Y0025547D01*
X0150300Y0025583D01*
X0150188Y0025622D01*
X0150078Y0025665D01*
X0149970Y0025711D01*
X0149863Y0025762D01*
X0149757Y0025816D01*
X0149654Y0025873D01*
X0149553Y0025934D01*
X0149453Y0025998D01*
X0149356Y0026066D01*
X0149262Y0026136D01*
X0149169Y0026210D01*
X0149080Y0026287D01*
X0148993Y0026367D01*
X0148908Y0026450D01*
X0148827Y0026536D01*
X0148748Y0026624D01*
X0148673Y0026715D01*
X0148600Y0026809D01*
X0148531Y0026905D01*
X0148465Y0027003D01*
X0148403Y0027103D01*
X0148344Y0027205D01*
X0148288Y0027310D01*
X0148236Y0027416D01*
X0148188Y0027524D01*
X0148143Y0027633D01*
X0148102Y0027744D01*
X0148065Y0027856D01*
X0148031Y0027970D01*
X0148001Y0028084D01*
X0147976Y0028199D01*
X0147954Y0028316D01*
X0147936Y0028433D01*
X0147922Y0028550D01*
X0147912Y0028668D01*
X0147906Y0028786D01*
X0147904Y0028904D01*
X0144404Y0027404D02*
X0138404Y0030404D01*
X0137904Y0028904D02*
X0137906Y0029022D01*
X0137912Y0029140D01*
X0137922Y0029258D01*
X0137936Y0029375D01*
X0137954Y0029492D01*
X0137976Y0029609D01*
X0138001Y0029724D01*
X0138031Y0029838D01*
X0138065Y0029952D01*
X0138102Y0030064D01*
X0138143Y0030175D01*
X0138188Y0030284D01*
X0138236Y0030392D01*
X0138288Y0030498D01*
X0138344Y0030603D01*
X0138403Y0030705D01*
X0138465Y0030805D01*
X0138531Y0030903D01*
X0138600Y0030999D01*
X0138673Y0031093D01*
X0138748Y0031184D01*
X0138827Y0031272D01*
X0138908Y0031358D01*
X0138993Y0031441D01*
X0139080Y0031521D01*
X0139169Y0031598D01*
X0139262Y0031672D01*
X0139356Y0031742D01*
X0139453Y0031810D01*
X0139553Y0031874D01*
X0139654Y0031935D01*
X0139757Y0031992D01*
X0139863Y0032046D01*
X0139970Y0032097D01*
X0140078Y0032143D01*
X0140188Y0032186D01*
X0140300Y0032225D01*
X0140413Y0032261D01*
X0140527Y0032292D01*
X0140642Y0032320D01*
X0140757Y0032344D01*
X0140874Y0032364D01*
X0140991Y0032380D01*
X0141109Y0032392D01*
X0141227Y0032400D01*
X0141345Y0032404D01*
X0141463Y0032404D01*
X0141581Y0032400D01*
X0141699Y0032392D01*
X0141817Y0032380D01*
X0141934Y0032364D01*
X0142051Y0032344D01*
X0142166Y0032320D01*
X0142281Y0032292D01*
X0142395Y0032261D01*
X0142508Y0032225D01*
X0142620Y0032186D01*
X0142730Y0032143D01*
X0142838Y0032097D01*
X0142945Y0032046D01*
X0143051Y0031992D01*
X0143154Y0031935D01*
X0143255Y0031874D01*
X0143355Y0031810D01*
X0143452Y0031742D01*
X0143546Y0031672D01*
X0143639Y0031598D01*
X0143728Y0031521D01*
X0143815Y0031441D01*
X0143900Y0031358D01*
X0143981Y0031272D01*
X0144060Y0031184D01*
X0144135Y0031093D01*
X0144208Y0030999D01*
X0144277Y0030903D01*
X0144343Y0030805D01*
X0144405Y0030705D01*
X0144464Y0030603D01*
X0144520Y0030498D01*
X0144572Y0030392D01*
X0144620Y0030284D01*
X0144665Y0030175D01*
X0144706Y0030064D01*
X0144743Y0029952D01*
X0144777Y0029838D01*
X0144807Y0029724D01*
X0144832Y0029609D01*
X0144854Y0029492D01*
X0144872Y0029375D01*
X0144886Y0029258D01*
X0144896Y0029140D01*
X0144902Y0029022D01*
X0144904Y0028904D01*
X0144902Y0028786D01*
X0144896Y0028668D01*
X0144886Y0028550D01*
X0144872Y0028433D01*
X0144854Y0028316D01*
X0144832Y0028199D01*
X0144807Y0028084D01*
X0144777Y0027970D01*
X0144743Y0027856D01*
X0144706Y0027744D01*
X0144665Y0027633D01*
X0144620Y0027524D01*
X0144572Y0027416D01*
X0144520Y0027310D01*
X0144464Y0027205D01*
X0144405Y0027103D01*
X0144343Y0027003D01*
X0144277Y0026905D01*
X0144208Y0026809D01*
X0144135Y0026715D01*
X0144060Y0026624D01*
X0143981Y0026536D01*
X0143900Y0026450D01*
X0143815Y0026367D01*
X0143728Y0026287D01*
X0143639Y0026210D01*
X0143546Y0026136D01*
X0143452Y0026066D01*
X0143355Y0025998D01*
X0143255Y0025934D01*
X0143154Y0025873D01*
X0143051Y0025816D01*
X0142945Y0025762D01*
X0142838Y0025711D01*
X0142730Y0025665D01*
X0142620Y0025622D01*
X0142508Y0025583D01*
X0142395Y0025547D01*
X0142281Y0025516D01*
X0142166Y0025488D01*
X0142051Y0025464D01*
X0141934Y0025444D01*
X0141817Y0025428D01*
X0141699Y0025416D01*
X0141581Y0025408D01*
X0141463Y0025404D01*
X0141345Y0025404D01*
X0141227Y0025408D01*
X0141109Y0025416D01*
X0140991Y0025428D01*
X0140874Y0025444D01*
X0140757Y0025464D01*
X0140642Y0025488D01*
X0140527Y0025516D01*
X0140413Y0025547D01*
X0140300Y0025583D01*
X0140188Y0025622D01*
X0140078Y0025665D01*
X0139970Y0025711D01*
X0139863Y0025762D01*
X0139757Y0025816D01*
X0139654Y0025873D01*
X0139553Y0025934D01*
X0139453Y0025998D01*
X0139356Y0026066D01*
X0139262Y0026136D01*
X0139169Y0026210D01*
X0139080Y0026287D01*
X0138993Y0026367D01*
X0138908Y0026450D01*
X0138827Y0026536D01*
X0138748Y0026624D01*
X0138673Y0026715D01*
X0138600Y0026809D01*
X0138531Y0026905D01*
X0138465Y0027003D01*
X0138403Y0027103D01*
X0138344Y0027205D01*
X0138288Y0027310D01*
X0138236Y0027416D01*
X0138188Y0027524D01*
X0138143Y0027633D01*
X0138102Y0027744D01*
X0138065Y0027856D01*
X0138031Y0027970D01*
X0138001Y0028084D01*
X0137976Y0028199D01*
X0137954Y0028316D01*
X0137936Y0028433D01*
X0137922Y0028550D01*
X0137912Y0028668D01*
X0137906Y0028786D01*
X0137904Y0028904D01*
X0132880Y0035916D02*
X0128610Y0035916D01*
X0127543Y0036984D01*
X0127543Y0039119D01*
X0128610Y0040186D01*
X0130745Y0040186D02*
X0130745Y0038051D01*
X0130745Y0040186D02*
X0132880Y0040186D01*
X0133948Y0039119D01*
X0133948Y0036984D01*
X0132880Y0035916D01*
X0138045Y0038445D02*
X0140180Y0040580D01*
X0144450Y0040580D01*
X0144450Y0042755D02*
X0144450Y0045958D01*
X0143382Y0047026D01*
X0139112Y0047026D01*
X0138045Y0045958D01*
X0138045Y0042755D01*
X0144450Y0042755D01*
X0148045Y0043823D02*
X0148045Y0045958D01*
X0149112Y0047026D01*
X0150180Y0047026D01*
X0151247Y0045958D01*
X0152315Y0047026D01*
X0153382Y0047026D01*
X0154450Y0045958D01*
X0154450Y0043823D01*
X0153382Y0042755D01*
X0154450Y0040580D02*
X0154450Y0036310D01*
X0154450Y0038445D02*
X0148045Y0038445D01*
X0150180Y0036310D01*
X0144450Y0036310D02*
X0140180Y0036310D01*
X0138045Y0038445D01*
X0141247Y0036310D02*
X0141247Y0040580D01*
X0133948Y0042362D02*
X0127543Y0042362D01*
X0133948Y0046632D01*
X0127543Y0046632D01*
X0127543Y0048807D02*
X0127543Y0052010D01*
X0128610Y0053077D01*
X0132880Y0053077D01*
X0133948Y0052010D01*
X0133948Y0048807D01*
X0127543Y0048807D01*
X0124450Y0050268D02*
X0123382Y0049201D01*
X0124450Y0050268D02*
X0124450Y0052404D01*
X0123382Y0053471D01*
X0122315Y0053471D01*
X0121247Y0052404D01*
X0121247Y0051336D01*
X0121247Y0052404D02*
X0120180Y0053471D01*
X0119112Y0053471D01*
X0118045Y0052404D01*
X0118045Y0050268D01*
X0119112Y0049201D01*
X0119112Y0047026D02*
X0120180Y0047026D01*
X0121247Y0045958D01*
X0122315Y0047026D01*
X0123382Y0047026D01*
X0124450Y0045958D01*
X0124450Y0043823D01*
X0123382Y0042755D01*
X0122315Y0040580D02*
X0118045Y0040580D01*
X0119112Y0042755D02*
X0118045Y0043823D01*
X0118045Y0045958D01*
X0119112Y0047026D01*
X0121247Y0045958D02*
X0121247Y0044890D01*
X0122315Y0040580D02*
X0124450Y0038445D01*
X0122315Y0036310D01*
X0118045Y0036310D01*
X0113564Y0037608D02*
X0111429Y0039744D01*
X0107159Y0039744D01*
X0108226Y0041919D02*
X0112497Y0041919D01*
X0113564Y0042986D01*
X0113564Y0045121D01*
X0112497Y0046189D01*
X0112497Y0048364D02*
X0108226Y0048364D01*
X0107159Y0049432D01*
X0107159Y0051567D01*
X0108226Y0052635D01*
X0112497Y0052635D02*
X0113564Y0051567D01*
X0113564Y0049432D01*
X0112497Y0048364D01*
X0108226Y0046189D02*
X0107159Y0045121D01*
X0107159Y0042986D01*
X0108226Y0041919D01*
X0113564Y0037608D02*
X0111429Y0035473D01*
X0107159Y0035473D01*
X0138045Y0050268D02*
X0139112Y0049201D01*
X0143382Y0049201D01*
X0144450Y0050268D01*
X0144450Y0052404D01*
X0143382Y0053471D01*
X0139112Y0053471D02*
X0138045Y0052404D01*
X0138045Y0050268D01*
X0148045Y0043823D02*
X0149112Y0042755D01*
X0151247Y0044890D02*
X0151247Y0045958D01*
X0158045Y0045958D02*
X0158045Y0043823D01*
X0159112Y0042755D01*
X0158045Y0045958D02*
X0159112Y0047026D01*
X0160180Y0047026D01*
X0164450Y0042755D01*
X0164450Y0047026D01*
X0168045Y0045958D02*
X0171247Y0042755D01*
X0171247Y0047026D01*
X0168045Y0045958D02*
X0174450Y0045958D01*
X0178045Y0047026D02*
X0179112Y0044890D01*
X0181247Y0042755D01*
X0181247Y0045958D01*
X0182315Y0047026D01*
X0183382Y0047026D01*
X0184450Y0045958D01*
X0184450Y0043823D01*
X0183382Y0042755D01*
X0181247Y0042755D01*
X0184450Y0040580D02*
X0184450Y0036310D01*
X0184450Y0038445D02*
X0178045Y0038445D01*
X0180180Y0036310D01*
X0174450Y0036310D02*
X0174450Y0040580D01*
X0174450Y0038445D02*
X0168045Y0038445D01*
X0170180Y0036310D01*
X0164450Y0036310D02*
X0164450Y0040580D01*
X0164450Y0038445D02*
X0158045Y0038445D01*
X0160180Y0036310D01*
X0188045Y0038445D02*
X0194450Y0038445D01*
X0194450Y0036310D02*
X0194450Y0040580D01*
X0193382Y0042755D02*
X0194450Y0043823D01*
X0194450Y0045958D01*
X0193382Y0047026D01*
X0191247Y0047026D01*
X0190180Y0045958D01*
X0190180Y0044890D01*
X0191247Y0042755D01*
X0188045Y0042755D01*
X0188045Y0047026D01*
X0198045Y0039513D02*
X0199112Y0040580D01*
X0200180Y0040580D01*
X0204450Y0036310D01*
X0204450Y0040580D01*
X0208045Y0039513D02*
X0209112Y0040580D01*
X0213382Y0036310D01*
X0214450Y0037377D01*
X0214450Y0039513D01*
X0213382Y0040580D01*
X0209112Y0040580D01*
X0208045Y0039513D02*
X0208045Y0037377D01*
X0209112Y0036310D01*
X0213382Y0036310D01*
X0218045Y0039513D02*
X0221247Y0036310D01*
X0221247Y0040580D01*
X0218045Y0039513D02*
X0224450Y0039513D01*
X0228045Y0041310D02*
X0231247Y0041310D01*
X0230180Y0043445D01*
X0230180Y0044513D01*
X0231247Y0045580D01*
X0233382Y0045580D01*
X0234450Y0044513D01*
X0234450Y0042377D01*
X0233382Y0041310D01*
X0238045Y0042755D02*
X0244450Y0047026D01*
X0248045Y0047026D02*
X0254450Y0042755D01*
X0254450Y0047026D02*
X0248045Y0042755D01*
X0248045Y0040580D02*
X0248045Y0036310D01*
X0248045Y0038445D02*
X0254450Y0038445D01*
X0263045Y0037377D02*
X0264112Y0036310D01*
X0268382Y0036310D01*
X0269450Y0037377D01*
X0269450Y0039513D01*
X0268382Y0040580D01*
X0266247Y0040580D01*
X0266247Y0038445D01*
X0264112Y0040580D02*
X0263045Y0039513D01*
X0263045Y0037377D01*
X0263045Y0042755D02*
X0269450Y0047026D01*
X0263045Y0047026D01*
X0263045Y0049201D02*
X0263045Y0052404D01*
X0264112Y0053471D01*
X0268382Y0053471D01*
X0269450Y0052404D01*
X0269450Y0049201D01*
X0263045Y0049201D01*
X0258018Y0048904D02*
X0254789Y0048904D01*
X0263045Y0042755D02*
X0269450Y0042755D01*
X0279789Y0048904D02*
X0283018Y0048904D01*
X0283018Y0053904D02*
X0279789Y0053904D01*
X0279789Y0063904D02*
X0283018Y0063904D01*
X0283018Y0068904D02*
X0279789Y0068904D01*
X0258018Y0068904D02*
X0254789Y0068904D01*
X0254789Y0063904D02*
X0258018Y0063904D01*
X0258018Y0053904D02*
X0254789Y0053904D01*
X0244450Y0042755D02*
X0238045Y0047026D01*
X0239112Y0040580D02*
X0241247Y0040580D01*
X0242315Y0039513D01*
X0242315Y0036310D01*
X0242315Y0038445D02*
X0244450Y0040580D01*
X0244450Y0036310D02*
X0238045Y0036310D01*
X0238045Y0039513D01*
X0239112Y0040580D01*
X0228045Y0041310D02*
X0228045Y0045580D01*
X0234789Y0058904D02*
X0238018Y0058904D01*
X0238018Y0063904D02*
X0234789Y0063904D01*
X0213904Y0084789D02*
X0213904Y0088018D01*
X0208904Y0088018D02*
X0208904Y0084789D01*
X0165904Y0094904D02*
X0165904Y0137904D01*
X0165902Y0137964D01*
X0165897Y0138025D01*
X0165888Y0138084D01*
X0165875Y0138143D01*
X0165859Y0138202D01*
X0165839Y0138259D01*
X0165816Y0138314D01*
X0165789Y0138369D01*
X0165760Y0138421D01*
X0165727Y0138472D01*
X0165691Y0138521D01*
X0165653Y0138567D01*
X0165611Y0138611D01*
X0165567Y0138653D01*
X0165521Y0138691D01*
X0165472Y0138727D01*
X0165421Y0138760D01*
X0165369Y0138789D01*
X0165314Y0138816D01*
X0165259Y0138839D01*
X0165202Y0138859D01*
X0165143Y0138875D01*
X0165084Y0138888D01*
X0165025Y0138897D01*
X0164964Y0138902D01*
X0164904Y0138904D01*
X0160904Y0138904D01*
X0157904Y0138904D01*
X0157904Y0141904D01*
X0154904Y0141904D01*
X0154904Y0138904D01*
X0157904Y0138904D01*
X0154904Y0138904D02*
X0151904Y0138904D01*
X0147904Y0138904D01*
X0147844Y0138902D01*
X0147783Y0138897D01*
X0147724Y0138888D01*
X0147665Y0138875D01*
X0147606Y0138859D01*
X0147549Y0138839D01*
X0147494Y0138816D01*
X0147439Y0138789D01*
X0147387Y0138760D01*
X0147336Y0138727D01*
X0147287Y0138691D01*
X0147241Y0138653D01*
X0147197Y0138611D01*
X0147155Y0138567D01*
X0147117Y0138521D01*
X0147081Y0138472D01*
X0147048Y0138421D01*
X0147019Y0138369D01*
X0146992Y0138314D01*
X0146969Y0138259D01*
X0146949Y0138202D01*
X0146933Y0138143D01*
X0146920Y0138084D01*
X0146911Y0138025D01*
X0146906Y0137964D01*
X0146904Y0137904D01*
X0146904Y0094904D01*
X0146906Y0094844D01*
X0146911Y0094783D01*
X0146920Y0094724D01*
X0146933Y0094665D01*
X0146949Y0094606D01*
X0146969Y0094549D01*
X0146992Y0094494D01*
X0147019Y0094439D01*
X0147048Y0094387D01*
X0147081Y0094336D01*
X0147117Y0094287D01*
X0147155Y0094241D01*
X0147197Y0094197D01*
X0147241Y0094155D01*
X0147287Y0094117D01*
X0147336Y0094081D01*
X0147387Y0094048D01*
X0147439Y0094019D01*
X0147494Y0093992D01*
X0147549Y0093969D01*
X0147606Y0093949D01*
X0147665Y0093933D01*
X0147724Y0093920D01*
X0147783Y0093911D01*
X0147844Y0093906D01*
X0147904Y0093904D01*
X0151904Y0093904D01*
X0160904Y0093904D01*
X0164904Y0093904D01*
X0164964Y0093906D01*
X0165025Y0093911D01*
X0165084Y0093920D01*
X0165143Y0093933D01*
X0165202Y0093949D01*
X0165259Y0093969D01*
X0165314Y0093992D01*
X0165369Y0094019D01*
X0165421Y0094048D01*
X0165472Y0094081D01*
X0165521Y0094117D01*
X0165567Y0094155D01*
X0165611Y0094197D01*
X0165653Y0094241D01*
X0165691Y0094287D01*
X0165727Y0094336D01*
X0165760Y0094387D01*
X0165789Y0094439D01*
X0165816Y0094494D01*
X0165839Y0094549D01*
X0165859Y0094606D01*
X0165875Y0094665D01*
X0165888Y0094724D01*
X0165897Y0094783D01*
X0165902Y0094844D01*
X0165904Y0094904D01*
X0157904Y0093904D02*
X0157904Y0090904D01*
X0154904Y0090904D01*
X0154904Y0093904D01*
X0153904Y0113904D02*
X0156404Y0113904D01*
X0158904Y0113904D01*
X0158904Y0115404D02*
X0158904Y0117404D01*
X0153904Y0117404D01*
X0153904Y0115404D01*
X0158904Y0115404D01*
X0158904Y0118904D02*
X0156404Y0118904D01*
X0153904Y0118904D01*
X0118904Y0100518D02*
X0118904Y0097289D01*
X0113904Y0097289D02*
X0113904Y0100518D01*
X0098904Y0100518D02*
X0098904Y0097289D01*
X0093904Y0097289D02*
X0093904Y0100518D01*
X0093018Y0068904D02*
X0089789Y0068904D01*
X0089789Y0063904D02*
X0093018Y0063904D01*
X0107289Y0063904D02*
X0110518Y0063904D01*
X0110518Y0068904D02*
X0107289Y0068904D01*
X0154789Y0068904D02*
X0158018Y0068904D01*
X0158018Y0073904D02*
X0154789Y0073904D01*
X0188045Y0038445D02*
X0190180Y0036310D01*
X0198045Y0037377D02*
X0199112Y0036310D01*
X0198045Y0037377D02*
X0198045Y0039513D01*
X0198904Y0134789D02*
X0198904Y0138018D01*
X0203904Y0138018D02*
X0203904Y0134789D01*
X0243904Y0159789D02*
X0243904Y0163018D01*
X0248904Y0163018D02*
X0248904Y0159789D01*
X0259789Y0173904D02*
X0263018Y0173904D01*
X0263018Y0178904D02*
X0259789Y0178904D01*
X0268904Y0163018D02*
X0268904Y0159789D01*
X0273904Y0159789D02*
X0273904Y0163018D01*
X0283904Y0163018D02*
X0283904Y0159789D01*
X0288904Y0159789D02*
X0288904Y0163018D01*
X0138904Y0174789D02*
X0138904Y0178018D01*
X0133904Y0178018D02*
X0133904Y0174789D01*
X0123904Y0158018D02*
X0123904Y0154789D01*
X0118904Y0154789D02*
X0118904Y0158018D01*
X0103018Y0158904D02*
X0099789Y0158904D01*
X0099789Y0153904D02*
X0103018Y0153904D01*
X0068018Y0143904D02*
X0064789Y0143904D01*
X0064789Y0138904D02*
X0068018Y0138904D01*
D12*
X0074171Y0137533D02*
X0058636Y0137533D01*
X0058636Y0145274D01*
X0074171Y0145274D01*
X0074171Y0137533D01*
X0070274Y0134171D02*
X0062533Y0134171D01*
X0062533Y0118636D01*
X0070274Y0118636D01*
X0070274Y0134171D01*
X0082533Y0134171D02*
X0090274Y0134171D01*
X0090274Y0118636D01*
X0082533Y0118636D01*
X0082533Y0134171D01*
X0077356Y0149305D02*
X0077356Y0157045D01*
X0092892Y0157045D01*
X0092892Y0149305D01*
X0077356Y0149305D01*
X0093636Y0152533D02*
X0093636Y0160274D01*
X0109171Y0160274D01*
X0109171Y0152533D01*
X0093636Y0152533D01*
X0117533Y0148636D02*
X0117533Y0164171D01*
X0125274Y0164171D01*
X0125274Y0148636D01*
X0117533Y0148636D01*
X0137533Y0139171D02*
X0145274Y0139171D01*
X0145274Y0123636D01*
X0137533Y0123636D01*
X0137533Y0139171D01*
X0148404Y0129904D02*
X0148404Y0102904D01*
X0151404Y0102904D02*
X0151404Y0129904D01*
X0151406Y0130037D01*
X0151411Y0130169D01*
X0151420Y0130301D01*
X0151432Y0130434D01*
X0151448Y0130565D01*
X0151467Y0130697D01*
X0151490Y0130827D01*
X0151516Y0130957D01*
X0151546Y0131087D01*
X0151579Y0131215D01*
X0151615Y0131343D01*
X0151655Y0131469D01*
X0151698Y0131595D01*
X0151745Y0131719D01*
X0151795Y0131842D01*
X0151848Y0131963D01*
X0151904Y0132083D01*
X0148404Y0129904D02*
X0148406Y0130098D01*
X0148413Y0130293D01*
X0148425Y0130487D01*
X0148442Y0130681D01*
X0148463Y0130875D01*
X0148489Y0131068D01*
X0148520Y0131260D01*
X0148555Y0131451D01*
X0148595Y0131642D01*
X0148640Y0131831D01*
X0148689Y0132020D01*
X0148743Y0132207D01*
X0148801Y0132393D01*
X0148864Y0132577D01*
X0148931Y0132760D01*
X0149003Y0132941D01*
X0149079Y0133120D01*
X0149159Y0133297D01*
X0149244Y0133472D01*
X0149333Y0133646D01*
X0149426Y0133817D01*
X0149523Y0133985D01*
X0149625Y0134151D01*
X0149730Y0134315D01*
X0149839Y0134476D01*
X0149953Y0134635D01*
X0150070Y0134790D01*
X0150190Y0134943D01*
X0150315Y0135093D01*
X0150443Y0135239D01*
X0150574Y0135383D01*
X0150709Y0135523D01*
X0150848Y0135660D01*
X0150990Y0135793D01*
X0151134Y0135923D01*
X0151282Y0136050D01*
X0151434Y0136173D01*
X0151588Y0136292D01*
X0151744Y0136407D01*
X0151904Y0136518D01*
X0160904Y0132083D02*
X0160960Y0131963D01*
X0161013Y0131842D01*
X0161063Y0131719D01*
X0161110Y0131595D01*
X0161153Y0131469D01*
X0161193Y0131343D01*
X0161229Y0131215D01*
X0161262Y0131087D01*
X0161292Y0130957D01*
X0161318Y0130827D01*
X0161341Y0130697D01*
X0161360Y0130565D01*
X0161376Y0130434D01*
X0161388Y0130301D01*
X0161397Y0130169D01*
X0161402Y0130037D01*
X0161404Y0129904D01*
X0161404Y0102904D01*
X0164404Y0102904D02*
X0164404Y0129904D01*
X0160904Y0136518D02*
X0160741Y0136626D01*
X0160576Y0136730D01*
X0160408Y0136830D01*
X0160238Y0136925D01*
X0160066Y0137017D01*
X0159892Y0137104D01*
X0159715Y0137187D01*
X0159536Y0137265D01*
X0159356Y0137339D01*
X0159174Y0137409D01*
X0158990Y0137474D01*
X0158805Y0137535D01*
X0158618Y0137592D01*
X0158430Y0137643D01*
X0158241Y0137690D01*
X0158050Y0137733D01*
X0157859Y0137771D01*
X0157667Y0137804D01*
X0157474Y0137832D01*
X0157280Y0137856D01*
X0157086Y0137875D01*
X0156891Y0137889D01*
X0156697Y0137899D01*
X0156502Y0137903D01*
X0156306Y0137903D01*
X0156111Y0137899D01*
X0155917Y0137889D01*
X0155722Y0137875D01*
X0155528Y0137856D01*
X0155334Y0137832D01*
X0155141Y0137804D01*
X0154949Y0137771D01*
X0154758Y0137733D01*
X0154567Y0137690D01*
X0154378Y0137643D01*
X0154190Y0137592D01*
X0154003Y0137535D01*
X0153818Y0137474D01*
X0153634Y0137409D01*
X0153452Y0137339D01*
X0153272Y0137265D01*
X0153093Y0137187D01*
X0152916Y0137104D01*
X0152742Y0137017D01*
X0152570Y0136925D01*
X0152400Y0136830D01*
X0152232Y0136730D01*
X0152067Y0136626D01*
X0151904Y0136518D01*
X0151904Y0132084D02*
X0151967Y0132209D01*
X0152033Y0132332D01*
X0152103Y0132453D01*
X0152176Y0132573D01*
X0152252Y0132690D01*
X0152332Y0132805D01*
X0152415Y0132918D01*
X0152500Y0133028D01*
X0152589Y0133136D01*
X0152681Y0133242D01*
X0152776Y0133345D01*
X0152874Y0133445D01*
X0152975Y0133542D01*
X0153078Y0133637D01*
X0153183Y0133729D01*
X0153292Y0133817D01*
X0153403Y0133903D01*
X0153516Y0133985D01*
X0153631Y0134065D01*
X0153749Y0134141D01*
X0153868Y0134213D01*
X0153990Y0134283D01*
X0154113Y0134348D01*
X0154239Y0134411D01*
X0154366Y0134470D01*
X0154494Y0134525D01*
X0154624Y0134577D01*
X0154756Y0134625D01*
X0154889Y0134669D01*
X0155023Y0134709D01*
X0155158Y0134746D01*
X0155294Y0134779D01*
X0155430Y0134808D01*
X0155568Y0134834D01*
X0155706Y0134855D01*
X0155845Y0134873D01*
X0155985Y0134886D01*
X0156124Y0134896D01*
X0156264Y0134902D01*
X0156404Y0134904D01*
X0156544Y0134902D01*
X0156684Y0134896D01*
X0156823Y0134886D01*
X0156963Y0134873D01*
X0157102Y0134855D01*
X0157240Y0134834D01*
X0157378Y0134808D01*
X0157514Y0134779D01*
X0157650Y0134746D01*
X0157785Y0134709D01*
X0157919Y0134669D01*
X0158052Y0134625D01*
X0158184Y0134577D01*
X0158314Y0134525D01*
X0158442Y0134470D01*
X0158569Y0134411D01*
X0158695Y0134348D01*
X0158818Y0134283D01*
X0158940Y0134213D01*
X0159059Y0134141D01*
X0159177Y0134065D01*
X0159292Y0133985D01*
X0159405Y0133903D01*
X0159516Y0133817D01*
X0159625Y0133729D01*
X0159730Y0133637D01*
X0159833Y0133542D01*
X0159934Y0133445D01*
X0160032Y0133345D01*
X0160127Y0133242D01*
X0160219Y0133136D01*
X0160308Y0133028D01*
X0160393Y0132918D01*
X0160476Y0132805D01*
X0160556Y0132690D01*
X0160632Y0132573D01*
X0160705Y0132453D01*
X0160775Y0132332D01*
X0160841Y0132209D01*
X0160904Y0132084D01*
X0164404Y0129903D02*
X0164402Y0130098D01*
X0164395Y0130293D01*
X0164383Y0130487D01*
X0164366Y0130681D01*
X0164345Y0130874D01*
X0164319Y0131067D01*
X0164288Y0131260D01*
X0164253Y0131451D01*
X0164213Y0131642D01*
X0164168Y0131831D01*
X0164119Y0132019D01*
X0164065Y0132207D01*
X0164007Y0132392D01*
X0163944Y0132577D01*
X0163877Y0132759D01*
X0163805Y0132940D01*
X0163729Y0133119D01*
X0163649Y0133297D01*
X0163564Y0133472D01*
X0163475Y0133645D01*
X0163382Y0133816D01*
X0163284Y0133985D01*
X0163183Y0134151D01*
X0163078Y0134315D01*
X0162968Y0134476D01*
X0162855Y0134634D01*
X0162738Y0134790D01*
X0162617Y0134942D01*
X0162493Y0135092D01*
X0162365Y0135239D01*
X0162233Y0135382D01*
X0162098Y0135522D01*
X0161960Y0135659D01*
X0161818Y0135793D01*
X0161673Y0135923D01*
X0161525Y0136049D01*
X0161374Y0136172D01*
X0161220Y0136291D01*
X0161063Y0136406D01*
X0160904Y0136518D01*
X0177533Y0148636D02*
X0185274Y0148636D01*
X0185274Y0164171D01*
X0177533Y0164171D01*
X0177533Y0148636D01*
X0197533Y0148636D02*
X0205274Y0148636D01*
X0205274Y0164171D01*
X0197533Y0164171D01*
X0197533Y0148636D01*
X0197533Y0144171D02*
X0205274Y0144171D01*
X0205274Y0128636D01*
X0197533Y0128636D01*
X0197533Y0144171D01*
X0217533Y0148636D02*
X0225274Y0148636D01*
X0225274Y0164171D01*
X0217533Y0164171D01*
X0217533Y0148636D01*
X0242533Y0153636D02*
X0242533Y0169171D01*
X0250274Y0169171D01*
X0250274Y0153636D01*
X0242533Y0153636D01*
X0267533Y0153636D02*
X0267533Y0169171D01*
X0275274Y0169171D01*
X0275274Y0153636D01*
X0267533Y0153636D01*
X0282533Y0153636D02*
X0282533Y0169171D01*
X0290274Y0169171D01*
X0290274Y0153636D01*
X0282533Y0153636D01*
X0269171Y0172533D02*
X0253636Y0172533D01*
X0253636Y0180274D01*
X0269171Y0180274D01*
X0269171Y0172533D01*
X0194171Y0172533D02*
X0194171Y0180274D01*
X0178636Y0180274D01*
X0178636Y0172533D01*
X0194171Y0172533D01*
X0140274Y0168636D02*
X0132533Y0168636D01*
X0132533Y0184171D01*
X0140274Y0184171D01*
X0140274Y0168636D01*
X0156404Y0120904D02*
X0156404Y0118904D01*
X0156404Y0113904D02*
X0156404Y0111904D01*
X0145756Y0107173D02*
X0138016Y0107173D01*
X0138016Y0091638D01*
X0145756Y0091638D01*
X0145756Y0107173D01*
X0148404Y0102904D02*
X0148406Y0102709D01*
X0148413Y0102515D01*
X0148425Y0102320D01*
X0148442Y0102126D01*
X0148463Y0101933D01*
X0148489Y0101740D01*
X0148520Y0101548D01*
X0148555Y0101356D01*
X0148595Y0101166D01*
X0148640Y0100976D01*
X0148689Y0100788D01*
X0148743Y0100601D01*
X0148801Y0100415D01*
X0148864Y0100231D01*
X0148931Y0100048D01*
X0149003Y0099867D01*
X0149079Y0099688D01*
X0149159Y0099511D01*
X0149244Y0099335D01*
X0149333Y0099162D01*
X0149426Y0098991D01*
X0149523Y0098823D01*
X0149625Y0098656D01*
X0149730Y0098493D01*
X0149840Y0098332D01*
X0149953Y0098173D01*
X0150070Y0098018D01*
X0150191Y0097865D01*
X0150315Y0097715D01*
X0150443Y0097569D01*
X0150575Y0097425D01*
X0150710Y0097285D01*
X0150848Y0097148D01*
X0150990Y0097015D01*
X0151135Y0096885D01*
X0151283Y0096758D01*
X0151434Y0096635D01*
X0151588Y0096516D01*
X0151745Y0096401D01*
X0151904Y0096289D01*
X0160904Y0096289D02*
X0161064Y0096400D01*
X0161220Y0096515D01*
X0161374Y0096634D01*
X0161526Y0096757D01*
X0161674Y0096884D01*
X0161818Y0097014D01*
X0161960Y0097147D01*
X0162099Y0097284D01*
X0162234Y0097424D01*
X0162365Y0097568D01*
X0162493Y0097714D01*
X0162618Y0097864D01*
X0162738Y0098017D01*
X0162855Y0098172D01*
X0162969Y0098331D01*
X0163078Y0098492D01*
X0163183Y0098656D01*
X0163285Y0098822D01*
X0163382Y0098990D01*
X0163475Y0099161D01*
X0163564Y0099335D01*
X0163649Y0099510D01*
X0163729Y0099687D01*
X0163805Y0099866D01*
X0163877Y0100047D01*
X0163944Y0100230D01*
X0164007Y0100414D01*
X0164065Y0100600D01*
X0164119Y0100787D01*
X0164168Y0100976D01*
X0164213Y0101165D01*
X0164253Y0101356D01*
X0164288Y0101547D01*
X0164319Y0101739D01*
X0164345Y0101932D01*
X0164366Y0102126D01*
X0164383Y0102320D01*
X0164395Y0102514D01*
X0164402Y0102709D01*
X0164404Y0102903D01*
X0160904Y0096290D02*
X0160741Y0096182D01*
X0160576Y0096078D01*
X0160408Y0095978D01*
X0160238Y0095883D01*
X0160066Y0095791D01*
X0159892Y0095704D01*
X0159715Y0095621D01*
X0159536Y0095543D01*
X0159356Y0095469D01*
X0159174Y0095399D01*
X0158990Y0095334D01*
X0158805Y0095273D01*
X0158618Y0095216D01*
X0158430Y0095165D01*
X0158241Y0095118D01*
X0158050Y0095075D01*
X0157859Y0095037D01*
X0157667Y0095004D01*
X0157474Y0094976D01*
X0157280Y0094952D01*
X0157086Y0094933D01*
X0156891Y0094919D01*
X0156697Y0094909D01*
X0156502Y0094905D01*
X0156306Y0094905D01*
X0156111Y0094909D01*
X0155917Y0094919D01*
X0155722Y0094933D01*
X0155528Y0094952D01*
X0155334Y0094976D01*
X0155141Y0095004D01*
X0154949Y0095037D01*
X0154758Y0095075D01*
X0154567Y0095118D01*
X0154378Y0095165D01*
X0154190Y0095216D01*
X0154003Y0095273D01*
X0153818Y0095334D01*
X0153634Y0095399D01*
X0153452Y0095469D01*
X0153272Y0095543D01*
X0153093Y0095621D01*
X0152916Y0095704D01*
X0152742Y0095791D01*
X0152570Y0095883D01*
X0152400Y0095978D01*
X0152232Y0096078D01*
X0152067Y0096182D01*
X0151904Y0096290D01*
X0151904Y0100724D02*
X0151848Y0100844D01*
X0151795Y0100965D01*
X0151745Y0101088D01*
X0151698Y0101212D01*
X0151655Y0101338D01*
X0151615Y0101464D01*
X0151579Y0101592D01*
X0151546Y0101720D01*
X0151516Y0101850D01*
X0151490Y0101980D01*
X0151467Y0102110D01*
X0151448Y0102242D01*
X0151432Y0102373D01*
X0151420Y0102506D01*
X0151411Y0102638D01*
X0151406Y0102770D01*
X0151404Y0102903D01*
X0151904Y0100724D02*
X0151967Y0100599D01*
X0152033Y0100476D01*
X0152103Y0100355D01*
X0152176Y0100235D01*
X0152252Y0100118D01*
X0152332Y0100003D01*
X0152415Y0099890D01*
X0152500Y0099780D01*
X0152589Y0099672D01*
X0152681Y0099566D01*
X0152776Y0099463D01*
X0152874Y0099363D01*
X0152975Y0099266D01*
X0153078Y0099171D01*
X0153183Y0099079D01*
X0153292Y0098991D01*
X0153403Y0098905D01*
X0153516Y0098823D01*
X0153631Y0098743D01*
X0153749Y0098667D01*
X0153868Y0098595D01*
X0153990Y0098525D01*
X0154113Y0098460D01*
X0154239Y0098397D01*
X0154366Y0098338D01*
X0154494Y0098283D01*
X0154624Y0098231D01*
X0154756Y0098183D01*
X0154889Y0098139D01*
X0155023Y0098099D01*
X0155158Y0098062D01*
X0155294Y0098029D01*
X0155430Y0098000D01*
X0155568Y0097974D01*
X0155706Y0097953D01*
X0155845Y0097935D01*
X0155985Y0097922D01*
X0156124Y0097912D01*
X0156264Y0097906D01*
X0156404Y0097904D01*
X0156544Y0097906D01*
X0156684Y0097912D01*
X0156823Y0097922D01*
X0156963Y0097935D01*
X0157102Y0097953D01*
X0157240Y0097974D01*
X0157378Y0098000D01*
X0157514Y0098029D01*
X0157650Y0098062D01*
X0157785Y0098099D01*
X0157919Y0098139D01*
X0158052Y0098183D01*
X0158184Y0098231D01*
X0158314Y0098283D01*
X0158442Y0098338D01*
X0158569Y0098397D01*
X0158695Y0098460D01*
X0158818Y0098525D01*
X0158940Y0098595D01*
X0159059Y0098667D01*
X0159177Y0098743D01*
X0159292Y0098823D01*
X0159405Y0098905D01*
X0159516Y0098991D01*
X0159625Y0099079D01*
X0159730Y0099171D01*
X0159833Y0099266D01*
X0159934Y0099363D01*
X0160032Y0099463D01*
X0160127Y0099566D01*
X0160219Y0099672D01*
X0160308Y0099780D01*
X0160393Y0099890D01*
X0160476Y0100003D01*
X0160556Y0100118D01*
X0160632Y0100235D01*
X0160705Y0100355D01*
X0160775Y0100476D01*
X0160841Y0100599D01*
X0160904Y0100724D01*
X0160960Y0100844D01*
X0161013Y0100965D01*
X0161063Y0101088D01*
X0161110Y0101212D01*
X0161153Y0101338D01*
X0161193Y0101464D01*
X0161229Y0101592D01*
X0161262Y0101720D01*
X0161292Y0101850D01*
X0161318Y0101980D01*
X0161341Y0102110D01*
X0161360Y0102242D01*
X0161376Y0102373D01*
X0161388Y0102506D01*
X0161397Y0102638D01*
X0161402Y0102770D01*
X0161404Y0102903D01*
X0120274Y0106671D02*
X0120274Y0091136D01*
X0112533Y0091136D01*
X0112533Y0106671D01*
X0120274Y0106671D01*
X0100274Y0106671D02*
X0100274Y0091136D01*
X0092533Y0091136D01*
X0092533Y0106671D01*
X0100274Y0106671D01*
X0089171Y0105274D02*
X0089171Y0097533D01*
X0073636Y0097533D01*
X0073636Y0105274D01*
X0089171Y0105274D01*
X0070274Y0099171D02*
X0062533Y0099171D01*
X0062533Y0083636D01*
X0070274Y0083636D01*
X0070274Y0099171D01*
X0083636Y0070274D02*
X0099171Y0070274D01*
X0099171Y0062533D01*
X0083636Y0062533D01*
X0083636Y0070274D01*
X0101136Y0070274D02*
X0101136Y0062533D01*
X0116671Y0062533D01*
X0116671Y0070274D01*
X0101136Y0070274D01*
X0148636Y0067533D02*
X0148636Y0075274D01*
X0164171Y0075274D01*
X0164171Y0067533D01*
X0148636Y0067533D01*
X0207533Y0078636D02*
X0207533Y0094171D01*
X0215274Y0094171D01*
X0215274Y0078636D01*
X0207533Y0078636D01*
X0228636Y0065274D02*
X0244171Y0065274D01*
X0244171Y0057533D01*
X0228636Y0057533D01*
X0228636Y0065274D01*
X0248636Y0062533D02*
X0248636Y0070274D01*
X0264171Y0070274D01*
X0264171Y0062533D01*
X0248636Y0062533D01*
X0248636Y0055274D02*
X0248636Y0047533D01*
X0264171Y0047533D01*
X0264171Y0055274D01*
X0248636Y0055274D01*
X0273636Y0055274D02*
X0273636Y0047533D01*
X0289171Y0047533D01*
X0289171Y0055274D01*
X0273636Y0055274D01*
X0273636Y0062533D02*
X0273636Y0070274D01*
X0289171Y0070274D01*
X0289171Y0062533D01*
X0273636Y0062533D01*
D13*
X0279104Y0061207D02*
X0281405Y0061207D01*
X0282173Y0060440D01*
X0282173Y0058905D01*
X0281405Y0058138D01*
X0279104Y0058138D01*
X0280638Y0058138D02*
X0282173Y0056604D01*
X0283707Y0056604D02*
X0286777Y0056604D01*
X0288311Y0056604D02*
X0288311Y0057371D01*
X0291381Y0060440D01*
X0291381Y0061207D01*
X0288311Y0061207D01*
X0285242Y0061207D02*
X0285242Y0056604D01*
X0283707Y0059673D02*
X0285242Y0061207D01*
X0279104Y0061207D02*
X0279104Y0056604D01*
X0276381Y0066604D02*
X0273311Y0066604D01*
X0271777Y0066604D02*
X0268707Y0066604D01*
X0267173Y0066604D02*
X0265638Y0068138D01*
X0266405Y0068138D02*
X0264104Y0068138D01*
X0264104Y0066604D02*
X0264104Y0071207D01*
X0266405Y0071207D01*
X0267173Y0070440D01*
X0267173Y0068905D01*
X0266405Y0068138D01*
X0268707Y0069673D02*
X0270242Y0071207D01*
X0270242Y0066604D01*
X0273311Y0069673D02*
X0274846Y0071207D01*
X0274846Y0066604D01*
X0261381Y0060440D02*
X0258311Y0057371D01*
X0259079Y0056604D01*
X0260613Y0056604D01*
X0261381Y0057371D01*
X0261381Y0060440D01*
X0260613Y0061207D01*
X0259079Y0061207D01*
X0258311Y0060440D01*
X0258311Y0057371D01*
X0256777Y0056604D02*
X0253707Y0056604D01*
X0252173Y0056604D02*
X0250638Y0058138D01*
X0251405Y0058138D02*
X0249104Y0058138D01*
X0249104Y0056604D02*
X0249104Y0061207D01*
X0251405Y0061207D01*
X0252173Y0060440D01*
X0252173Y0058905D01*
X0251405Y0058138D01*
X0253707Y0059673D02*
X0255242Y0061207D01*
X0255242Y0056604D01*
X0250613Y0066604D02*
X0249079Y0066604D01*
X0248311Y0067371D01*
X0248311Y0068905D01*
X0250613Y0068905D01*
X0251381Y0068138D01*
X0251381Y0067371D01*
X0250613Y0066604D01*
X0248311Y0068905D02*
X0249846Y0070440D01*
X0251381Y0071207D01*
X0245242Y0071207D02*
X0245242Y0066604D01*
X0243707Y0066604D02*
X0246777Y0066604D01*
X0243707Y0069673D02*
X0245242Y0071207D01*
X0242173Y0070440D02*
X0242173Y0068905D01*
X0241405Y0068138D01*
X0239104Y0068138D01*
X0240638Y0068138D02*
X0242173Y0066604D01*
X0239104Y0066604D02*
X0239104Y0071207D01*
X0241405Y0071207D01*
X0242173Y0070440D01*
X0221204Y0075292D02*
X0216600Y0075292D01*
X0216600Y0077594D01*
X0217367Y0078361D01*
X0218902Y0078361D01*
X0219669Y0077594D01*
X0219669Y0075292D01*
X0219669Y0076826D02*
X0221204Y0078361D01*
X0221204Y0079896D02*
X0221204Y0082965D01*
X0221204Y0081430D02*
X0216600Y0081430D01*
X0218134Y0079896D01*
X0218134Y0084500D02*
X0218902Y0085267D01*
X0218902Y0087569D01*
X0220436Y0087569D02*
X0217367Y0087569D01*
X0216600Y0086802D01*
X0216600Y0085267D01*
X0217367Y0084500D01*
X0218134Y0084500D01*
X0220436Y0084500D02*
X0221204Y0085267D01*
X0221204Y0086802D01*
X0220436Y0087569D01*
X0266550Y0096289D02*
X0270887Y0096289D01*
X0271755Y0097156D01*
X0271755Y0098891D01*
X0270887Y0099758D01*
X0266550Y0099758D01*
X0268285Y0101445D02*
X0266550Y0103180D01*
X0271755Y0103180D01*
X0271755Y0101445D02*
X0271755Y0104915D01*
X0278410Y0101315D02*
X0279278Y0102182D01*
X0281012Y0102182D01*
X0281880Y0101315D01*
X0281880Y0098713D01*
X0281880Y0097026D02*
X0282747Y0097026D01*
X0283615Y0096158D01*
X0283615Y0094424D01*
X0282747Y0093556D01*
X0283615Y0091869D02*
X0283615Y0088400D01*
X0278410Y0088400D01*
X0278410Y0091869D01*
X0279278Y0093556D02*
X0280145Y0093556D01*
X0281012Y0094424D01*
X0281012Y0096158D01*
X0281880Y0097026D01*
X0283615Y0098713D02*
X0278410Y0098713D01*
X0278410Y0101315D01*
X0279278Y0097026D02*
X0278410Y0096158D01*
X0278410Y0094424D01*
X0279278Y0093556D01*
X0281012Y0090135D02*
X0281012Y0088400D01*
X0281012Y0109025D02*
X0281012Y0112495D01*
X0280145Y0119338D02*
X0278410Y0121073D01*
X0283615Y0121073D01*
X0283615Y0119338D02*
X0283615Y0122808D01*
X0283615Y0124495D02*
X0280145Y0127964D01*
X0279278Y0127964D01*
X0278410Y0127097D01*
X0278410Y0125362D01*
X0279278Y0124495D01*
X0283615Y0124495D02*
X0283615Y0127964D01*
X0283615Y0129651D02*
X0283615Y0133121D01*
X0281012Y0131386D02*
X0281012Y0129651D01*
X0278410Y0129651D02*
X0283615Y0129651D01*
X0278410Y0129651D02*
X0278410Y0133121D01*
X0279669Y0149061D02*
X0279669Y0151363D01*
X0278902Y0152131D01*
X0277367Y0152131D01*
X0276600Y0151363D01*
X0276600Y0149061D01*
X0281204Y0149061D01*
X0279669Y0150596D02*
X0281204Y0152131D01*
X0281204Y0153665D02*
X0281204Y0156735D01*
X0281204Y0155200D02*
X0276600Y0155200D01*
X0278134Y0153665D01*
X0278902Y0158269D02*
X0278902Y0161339D01*
X0281204Y0160571D02*
X0276600Y0160571D01*
X0278902Y0158269D01*
X0280413Y0169143D02*
X0280413Y0173747D01*
X0282715Y0173747D01*
X0283482Y0172980D01*
X0283482Y0171445D01*
X0282715Y0170678D01*
X0280413Y0170678D01*
X0281947Y0170678D02*
X0283482Y0169143D01*
X0285017Y0169143D02*
X0288086Y0169143D01*
X0286551Y0169143D02*
X0286551Y0173747D01*
X0285017Y0172212D01*
X0289620Y0172980D02*
X0290388Y0173747D01*
X0291922Y0173747D01*
X0292690Y0172980D01*
X0292690Y0172212D01*
X0291922Y0171445D01*
X0292690Y0170678D01*
X0292690Y0169910D01*
X0291922Y0169143D01*
X0290388Y0169143D01*
X0289620Y0169910D01*
X0291155Y0171445D02*
X0291922Y0171445D01*
X0262569Y0171207D02*
X0259500Y0171207D01*
X0259500Y0168905D01*
X0261034Y0169673D01*
X0261802Y0169673D01*
X0262569Y0168905D01*
X0262569Y0167371D01*
X0261802Y0166604D01*
X0260267Y0166604D01*
X0259500Y0167371D01*
X0257965Y0166604D02*
X0254896Y0166604D01*
X0256430Y0166604D02*
X0256430Y0171207D01*
X0254896Y0169673D01*
X0253361Y0170440D02*
X0253361Y0168905D01*
X0252594Y0168138D01*
X0250292Y0168138D01*
X0251826Y0168138D02*
X0253361Y0166604D01*
X0250292Y0166604D02*
X0250292Y0171207D01*
X0252594Y0171207D01*
X0253361Y0170440D01*
X0253134Y0162569D02*
X0252367Y0162569D01*
X0251600Y0161802D01*
X0251600Y0160267D01*
X0252367Y0159500D01*
X0253134Y0162569D02*
X0256204Y0159500D01*
X0256204Y0162569D01*
X0256204Y0157965D02*
X0256204Y0154896D01*
X0256204Y0156430D02*
X0251600Y0156430D01*
X0253134Y0154896D01*
X0252367Y0153361D02*
X0253902Y0153361D01*
X0254669Y0152594D01*
X0254669Y0150292D01*
X0254669Y0151826D02*
X0256204Y0153361D01*
X0252367Y0153361D02*
X0251600Y0152594D01*
X0251600Y0150292D01*
X0256204Y0150292D01*
X0231204Y0157371D02*
X0231204Y0158905D01*
X0230436Y0159673D01*
X0231204Y0161207D02*
X0231204Y0164277D01*
X0231204Y0162742D02*
X0226600Y0162742D01*
X0228134Y0161207D01*
X0227367Y0159673D02*
X0226600Y0158905D01*
X0226600Y0157371D01*
X0227367Y0156604D01*
X0230436Y0156604D01*
X0231204Y0157371D01*
X0224002Y0157904D02*
X0224002Y0155002D01*
X0218805Y0154904D02*
X0218805Y0157904D01*
X0227367Y0165811D02*
X0226600Y0166579D01*
X0226600Y0168113D01*
X0227367Y0168881D01*
X0230436Y0165811D01*
X0231204Y0166579D01*
X0231204Y0168113D01*
X0230436Y0168881D01*
X0227367Y0168881D01*
X0227367Y0165811D02*
X0230436Y0165811D01*
X0204002Y0157904D02*
X0204002Y0155002D01*
X0198805Y0154904D02*
X0198805Y0157904D01*
X0196204Y0158509D02*
X0195436Y0159277D01*
X0192367Y0159277D01*
X0191600Y0158509D01*
X0191600Y0156975D01*
X0192367Y0156207D01*
X0193134Y0156207D01*
X0193902Y0156975D01*
X0193902Y0159277D01*
X0196204Y0158509D02*
X0196204Y0156975D01*
X0195436Y0156207D01*
X0195436Y0154673D02*
X0196204Y0153905D01*
X0196204Y0152371D01*
X0195436Y0151604D01*
X0192367Y0151604D01*
X0191600Y0152371D01*
X0191600Y0153905D01*
X0192367Y0154673D01*
X0184002Y0155002D02*
X0184002Y0157904D01*
X0178805Y0157904D02*
X0178805Y0154904D01*
X0176204Y0153905D02*
X0175436Y0154673D01*
X0176204Y0153905D02*
X0176204Y0152371D01*
X0175436Y0151604D01*
X0172367Y0151604D01*
X0171600Y0152371D01*
X0171600Y0153905D01*
X0172367Y0154673D01*
X0172367Y0156207D02*
X0171600Y0156975D01*
X0171600Y0158509D01*
X0172367Y0159277D01*
X0173134Y0159277D01*
X0173902Y0158509D01*
X0173902Y0156975D01*
X0173134Y0156207D01*
X0172367Y0156207D01*
X0173902Y0156975D02*
X0174669Y0156207D01*
X0175436Y0156207D01*
X0176204Y0156975D01*
X0176204Y0158509D01*
X0175436Y0159277D01*
X0174669Y0159277D01*
X0173902Y0158509D01*
X0182396Y0167371D02*
X0183163Y0166604D01*
X0184698Y0166604D01*
X0185465Y0167371D01*
X0187000Y0167371D02*
X0187000Y0166604D01*
X0187000Y0167371D02*
X0190069Y0170440D01*
X0190069Y0171207D01*
X0187000Y0171207D01*
X0185465Y0170440D02*
X0184698Y0171207D01*
X0183163Y0171207D01*
X0182396Y0170440D01*
X0182396Y0167371D01*
X0184904Y0173805D02*
X0187904Y0173805D01*
X0187805Y0179002D02*
X0184904Y0179002D01*
X0146204Y0178707D02*
X0145436Y0178707D01*
X0142367Y0181777D01*
X0141600Y0181777D01*
X0141600Y0178707D01*
X0142367Y0177173D02*
X0141600Y0176405D01*
X0141600Y0174104D01*
X0146204Y0174104D01*
X0144669Y0174104D02*
X0144669Y0176405D01*
X0143902Y0177173D01*
X0142367Y0177173D01*
X0144669Y0175638D02*
X0146204Y0177173D01*
X0135242Y0168707D02*
X0135242Y0164104D01*
X0133707Y0164104D02*
X0136777Y0164104D01*
X0133707Y0167173D02*
X0135242Y0168707D01*
X0132173Y0168707D02*
X0129104Y0168707D01*
X0130638Y0168707D02*
X0130638Y0164104D01*
X0127569Y0164104D02*
X0124500Y0164104D01*
X0127569Y0167173D01*
X0127569Y0167940D01*
X0126802Y0168707D01*
X0125267Y0168707D01*
X0124500Y0167940D01*
X0122965Y0168707D02*
X0119896Y0168707D01*
X0121430Y0168707D02*
X0121430Y0164104D01*
X0116204Y0161802D02*
X0116204Y0160267D01*
X0115436Y0159500D01*
X0114669Y0159500D01*
X0113902Y0160267D01*
X0113902Y0161802D01*
X0114669Y0162569D01*
X0115436Y0162569D01*
X0116204Y0161802D01*
X0113902Y0161802D02*
X0113134Y0162569D01*
X0112367Y0162569D01*
X0111600Y0161802D01*
X0111600Y0160267D01*
X0112367Y0159500D01*
X0113134Y0159500D01*
X0113902Y0160267D01*
X0113902Y0157965D02*
X0114669Y0157198D01*
X0114669Y0154896D01*
X0114669Y0156430D02*
X0116204Y0157965D01*
X0113902Y0157965D02*
X0112367Y0157965D01*
X0111600Y0157198D01*
X0111600Y0154896D01*
X0116204Y0154896D01*
X0102569Y0150440D02*
X0102569Y0149673D01*
X0101802Y0148905D01*
X0102569Y0148138D01*
X0102569Y0147371D01*
X0101802Y0146604D01*
X0100267Y0146604D01*
X0099500Y0147371D01*
X0097965Y0146604D02*
X0096430Y0148138D01*
X0097198Y0148138D02*
X0094896Y0148138D01*
X0094896Y0146604D02*
X0094896Y0151207D01*
X0097198Y0151207D01*
X0097965Y0150440D01*
X0097965Y0148905D01*
X0097198Y0148138D01*
X0099500Y0150440D02*
X0100267Y0151207D01*
X0101802Y0151207D01*
X0102569Y0150440D01*
X0101802Y0148905D02*
X0101034Y0148905D01*
X0090052Y0140374D02*
X0089285Y0141142D01*
X0088517Y0141142D01*
X0087750Y0140374D01*
X0087750Y0139607D01*
X0087750Y0140374D02*
X0086983Y0141142D01*
X0086215Y0141142D01*
X0085448Y0140374D01*
X0085448Y0138840D01*
X0086215Y0138072D01*
X0086215Y0136538D02*
X0085448Y0135770D01*
X0085448Y0134236D01*
X0086215Y0133469D01*
X0089285Y0133469D01*
X0090052Y0134236D01*
X0090052Y0135770D01*
X0089285Y0136538D01*
X0089285Y0138072D02*
X0090052Y0138840D01*
X0090052Y0140374D01*
X0079973Y0140928D02*
X0079973Y0139393D01*
X0079206Y0138626D01*
X0076137Y0138626D01*
X0075369Y0139393D01*
X0075369Y0140928D01*
X0076137Y0141695D01*
X0079206Y0141695D01*
X0079973Y0140928D01*
X0079973Y0143230D02*
X0075369Y0143230D01*
X0075369Y0146299D02*
X0079973Y0146299D01*
X0078439Y0144765D01*
X0079973Y0143230D01*
X0071777Y0147371D02*
X0071777Y0148138D01*
X0071009Y0148905D01*
X0068707Y0148905D01*
X0068707Y0147371D01*
X0069475Y0146604D01*
X0071009Y0146604D01*
X0071777Y0147371D01*
X0070242Y0150440D02*
X0068707Y0148905D01*
X0067173Y0148905D02*
X0067173Y0150440D01*
X0066405Y0151207D01*
X0064104Y0151207D01*
X0064104Y0146604D01*
X0064104Y0148138D02*
X0066405Y0148138D01*
X0067173Y0148905D01*
X0065638Y0148138D02*
X0067173Y0146604D01*
X0070242Y0150440D02*
X0071777Y0151207D01*
X0080324Y0159143D02*
X0081091Y0158375D01*
X0082626Y0158375D01*
X0083393Y0159143D01*
X0084928Y0158375D02*
X0087997Y0161444D01*
X0087997Y0162212D01*
X0087230Y0162979D01*
X0085695Y0162979D01*
X0084928Y0162212D01*
X0083393Y0162212D02*
X0082626Y0162979D01*
X0081091Y0162979D01*
X0080324Y0162212D01*
X0080324Y0159143D01*
X0083624Y0155774D02*
X0086624Y0155774D01*
X0087997Y0158375D02*
X0084928Y0158375D01*
X0083722Y0150577D02*
X0086624Y0150577D01*
X0077671Y0137091D02*
X0078439Y0136324D01*
X0078439Y0134022D01*
X0079973Y0134022D02*
X0075369Y0134022D01*
X0075369Y0136324D01*
X0076137Y0137091D01*
X0077671Y0137091D01*
X0078864Y0128175D02*
X0078864Y0124632D01*
X0083805Y0124904D02*
X0083805Y0127805D01*
X0089002Y0127904D02*
X0089002Y0124904D01*
X0073943Y0124632D02*
X0073943Y0128274D01*
X0068581Y0129805D02*
X0068581Y0123002D01*
X0064278Y0123002D02*
X0064278Y0129805D01*
X0061204Y0126777D02*
X0061204Y0123707D01*
X0061204Y0122173D02*
X0061204Y0119104D01*
X0056600Y0119104D01*
X0055097Y0119374D02*
X0055097Y0123258D01*
X0054892Y0123258D02*
X0053461Y0123258D01*
X0053461Y0125506D01*
X0055096Y0125710D02*
X0055094Y0125803D01*
X0055088Y0125896D01*
X0055079Y0125988D01*
X0055065Y0126080D01*
X0055048Y0126171D01*
X0055027Y0126262D01*
X0055003Y0126351D01*
X0054974Y0126440D01*
X0054942Y0126527D01*
X0054907Y0126613D01*
X0054868Y0126697D01*
X0054825Y0126780D01*
X0054779Y0126861D01*
X0054730Y0126940D01*
X0054678Y0127016D01*
X0054622Y0127091D01*
X0054563Y0127163D01*
X0054502Y0127233D01*
X0054438Y0127300D01*
X0054371Y0127364D01*
X0054301Y0127425D01*
X0054229Y0127484D01*
X0054154Y0127540D01*
X0054078Y0127592D01*
X0053999Y0127641D01*
X0053918Y0127687D01*
X0053835Y0127730D01*
X0053751Y0127769D01*
X0053665Y0127804D01*
X0053578Y0127836D01*
X0053489Y0127865D01*
X0053400Y0127889D01*
X0053309Y0127910D01*
X0053218Y0127927D01*
X0053126Y0127941D01*
X0053034Y0127950D01*
X0052941Y0127956D01*
X0052848Y0127958D01*
X0052848Y0127959D02*
X0043447Y0127959D01*
X0043447Y0127345D01*
X0043449Y0127289D01*
X0043455Y0127234D01*
X0043464Y0127179D01*
X0043477Y0127125D01*
X0043494Y0127071D01*
X0043515Y0127020D01*
X0043539Y0126969D01*
X0043566Y0126920D01*
X0043597Y0126874D01*
X0043630Y0126829D01*
X0043667Y0126787D01*
X0043706Y0126748D01*
X0043748Y0126711D01*
X0043793Y0126678D01*
X0043839Y0126647D01*
X0043888Y0126620D01*
X0043939Y0126596D01*
X0043990Y0126575D01*
X0044044Y0126558D01*
X0044098Y0126545D01*
X0044153Y0126536D01*
X0044208Y0126530D01*
X0044264Y0126528D01*
X0052440Y0126528D01*
X0052502Y0126526D01*
X0052563Y0126521D01*
X0052624Y0126511D01*
X0052685Y0126498D01*
X0052744Y0126482D01*
X0052802Y0126462D01*
X0052859Y0126438D01*
X0052915Y0126411D01*
X0052969Y0126381D01*
X0053021Y0126347D01*
X0053070Y0126311D01*
X0053118Y0126271D01*
X0053163Y0126229D01*
X0053205Y0126184D01*
X0053245Y0126136D01*
X0053281Y0126087D01*
X0053315Y0126035D01*
X0053345Y0125981D01*
X0053372Y0125925D01*
X0053396Y0125868D01*
X0053416Y0125810D01*
X0053432Y0125751D01*
X0053445Y0125690D01*
X0053455Y0125629D01*
X0053460Y0125568D01*
X0053462Y0125506D01*
X0055097Y0125711D02*
X0055096Y0099550D01*
X0055097Y0099550D02*
X0055097Y0103433D01*
X0054892Y0103433D02*
X0047535Y0103433D01*
X0047535Y0103638D02*
X0047535Y0119375D01*
X0054892Y0119375D01*
X0053461Y0119170D02*
X0053461Y0103637D01*
X0053461Y0099550D02*
X0054892Y0099550D01*
X0053461Y0099550D02*
X0053461Y0097302D01*
X0055097Y0097097D02*
X0055095Y0097004D01*
X0055089Y0096912D01*
X0055080Y0096819D01*
X0055066Y0096727D01*
X0055049Y0096636D01*
X0055028Y0096545D01*
X0055004Y0096456D01*
X0054975Y0096367D01*
X0054943Y0096280D01*
X0054908Y0096194D01*
X0054869Y0096110D01*
X0054826Y0096027D01*
X0054780Y0095946D01*
X0054731Y0095868D01*
X0054679Y0095791D01*
X0054623Y0095716D01*
X0054564Y0095644D01*
X0054503Y0095574D01*
X0054439Y0095507D01*
X0054372Y0095443D01*
X0054302Y0095382D01*
X0054230Y0095323D01*
X0054155Y0095267D01*
X0054078Y0095215D01*
X0054000Y0095166D01*
X0053919Y0095120D01*
X0053836Y0095077D01*
X0053752Y0095038D01*
X0053666Y0095003D01*
X0053579Y0094971D01*
X0053490Y0094942D01*
X0053401Y0094918D01*
X0053310Y0094897D01*
X0053219Y0094880D01*
X0053127Y0094866D01*
X0053034Y0094857D01*
X0052942Y0094851D01*
X0052849Y0094849D01*
X0052848Y0094849D02*
X0043447Y0094849D01*
X0043447Y0095463D01*
X0043449Y0095519D01*
X0043455Y0095574D01*
X0043464Y0095629D01*
X0043477Y0095683D01*
X0043494Y0095737D01*
X0043515Y0095788D01*
X0043539Y0095839D01*
X0043566Y0095888D01*
X0043597Y0095934D01*
X0043630Y0095979D01*
X0043667Y0096021D01*
X0043706Y0096060D01*
X0043748Y0096097D01*
X0043793Y0096130D01*
X0043839Y0096161D01*
X0043888Y0096188D01*
X0043939Y0096212D01*
X0043990Y0096233D01*
X0044044Y0096250D01*
X0044098Y0096263D01*
X0044153Y0096272D01*
X0044208Y0096278D01*
X0044264Y0096280D01*
X0044265Y0096280D02*
X0035173Y0096280D01*
X0032312Y0096280D02*
X0052440Y0096280D01*
X0052501Y0096282D01*
X0052563Y0096287D01*
X0052624Y0096297D01*
X0052684Y0096310D01*
X0052744Y0096326D01*
X0052802Y0096346D01*
X0052859Y0096370D01*
X0052914Y0096397D01*
X0052968Y0096427D01*
X0053020Y0096461D01*
X0053070Y0096497D01*
X0053117Y0096537D01*
X0053162Y0096579D01*
X0053204Y0096624D01*
X0053244Y0096671D01*
X0053280Y0096721D01*
X0053314Y0096773D01*
X0053344Y0096827D01*
X0053371Y0096882D01*
X0053395Y0096939D01*
X0053415Y0096997D01*
X0053431Y0097057D01*
X0053444Y0097117D01*
X0053454Y0097178D01*
X0053459Y0097240D01*
X0053461Y0097301D01*
X0053461Y0094645D02*
X0053461Y0092192D01*
X0051826Y0092192D01*
X0051826Y0093827D01*
X0049783Y0093827D01*
X0049783Y0092192D01*
X0048148Y0092192D01*
X0048148Y0094645D01*
X0045491Y0104250D02*
X0045491Y0118557D01*
X0045489Y0118612D01*
X0045483Y0118668D01*
X0045474Y0118723D01*
X0045461Y0118777D01*
X0045444Y0118830D01*
X0045423Y0118882D01*
X0045399Y0118933D01*
X0045372Y0118981D01*
X0045342Y0119028D01*
X0045308Y0119073D01*
X0045271Y0119115D01*
X0045232Y0119154D01*
X0045190Y0119191D01*
X0045145Y0119225D01*
X0045098Y0119255D01*
X0045050Y0119282D01*
X0044999Y0119306D01*
X0044947Y0119327D01*
X0044894Y0119344D01*
X0044840Y0119357D01*
X0044785Y0119366D01*
X0044729Y0119372D01*
X0044674Y0119374D01*
X0044673Y0119374D02*
X0044673Y0119374D01*
X0044611Y0119372D01*
X0044549Y0119367D01*
X0044488Y0119357D01*
X0044428Y0119344D01*
X0044369Y0119328D01*
X0044310Y0119308D01*
X0044253Y0119284D01*
X0044198Y0119257D01*
X0044144Y0119227D01*
X0044092Y0119193D01*
X0044043Y0119156D01*
X0043995Y0119117D01*
X0043950Y0119075D01*
X0043908Y0119030D01*
X0043869Y0118982D01*
X0043832Y0118933D01*
X0043798Y0118881D01*
X0043768Y0118827D01*
X0043741Y0118772D01*
X0043717Y0118715D01*
X0043697Y0118656D01*
X0043681Y0118597D01*
X0043668Y0118537D01*
X0043658Y0118476D01*
X0043653Y0118414D01*
X0043651Y0118352D01*
X0043651Y0118353D02*
X0043651Y0104455D01*
X0043653Y0104393D01*
X0043659Y0104332D01*
X0043668Y0104271D01*
X0043681Y0104210D01*
X0043698Y0104151D01*
X0043718Y0104093D01*
X0043741Y0104036D01*
X0043768Y0103980D01*
X0043799Y0103926D01*
X0043832Y0103875D01*
X0043869Y0103825D01*
X0043908Y0103778D01*
X0043951Y0103733D01*
X0043996Y0103690D01*
X0044043Y0103651D01*
X0044093Y0103614D01*
X0044144Y0103581D01*
X0044198Y0103550D01*
X0044254Y0103523D01*
X0044311Y0103500D01*
X0044369Y0103480D01*
X0044428Y0103463D01*
X0044489Y0103450D01*
X0044550Y0103441D01*
X0044611Y0103435D01*
X0044673Y0103433D01*
X0044674Y0103433D02*
X0044729Y0103435D01*
X0044785Y0103441D01*
X0044840Y0103450D01*
X0044894Y0103463D01*
X0044947Y0103480D01*
X0044999Y0103501D01*
X0045050Y0103525D01*
X0045098Y0103552D01*
X0045145Y0103582D01*
X0045190Y0103616D01*
X0045232Y0103653D01*
X0045271Y0103692D01*
X0045308Y0103734D01*
X0045342Y0103779D01*
X0045372Y0103826D01*
X0045399Y0103874D01*
X0045423Y0103925D01*
X0045444Y0103977D01*
X0045461Y0104030D01*
X0045474Y0104084D01*
X0045483Y0104139D01*
X0045489Y0104195D01*
X0045491Y0104250D01*
X0040177Y0108134D02*
X0040177Y0114674D01*
X0040172Y0114731D01*
X0040163Y0114788D01*
X0040150Y0114844D01*
X0040134Y0114899D01*
X0040114Y0114953D01*
X0040091Y0115006D01*
X0040064Y0115057D01*
X0040034Y0115106D01*
X0040000Y0115153D01*
X0039964Y0115197D01*
X0039925Y0115239D01*
X0039882Y0115279D01*
X0039838Y0115315D01*
X0039791Y0115348D01*
X0039742Y0115379D01*
X0039691Y0115406D01*
X0039639Y0115429D01*
X0039585Y0115449D01*
X0039530Y0115465D01*
X0039473Y0115478D01*
X0039417Y0115487D01*
X0039359Y0115492D01*
X0039359Y0115491D02*
X0023418Y0116309D01*
X0023417Y0116308D02*
X0023361Y0116306D01*
X0023306Y0116300D01*
X0023251Y0116291D01*
X0023197Y0116278D01*
X0023143Y0116261D01*
X0023092Y0116240D01*
X0023041Y0116216D01*
X0022992Y0116189D01*
X0022946Y0116158D01*
X0022901Y0116125D01*
X0022859Y0116088D01*
X0022820Y0116049D01*
X0022783Y0116007D01*
X0022750Y0115962D01*
X0022719Y0115916D01*
X0022692Y0115867D01*
X0022668Y0115816D01*
X0022647Y0115765D01*
X0022630Y0115711D01*
X0022617Y0115657D01*
X0022608Y0115602D01*
X0022602Y0115547D01*
X0022600Y0115491D01*
X0022600Y0115491D01*
X0022602Y0115435D01*
X0022608Y0115380D01*
X0022617Y0115325D01*
X0022630Y0115271D01*
X0022647Y0115217D01*
X0022668Y0115166D01*
X0022692Y0115115D01*
X0022719Y0115066D01*
X0022750Y0115020D01*
X0022783Y0114975D01*
X0022820Y0114933D01*
X0022859Y0114894D01*
X0022901Y0114857D01*
X0022946Y0114824D01*
X0022992Y0114793D01*
X0023041Y0114766D01*
X0023092Y0114742D01*
X0023143Y0114721D01*
X0023197Y0114704D01*
X0023251Y0114691D01*
X0023306Y0114682D01*
X0023361Y0114676D01*
X0023417Y0114674D01*
X0036907Y0113856D01*
X0036907Y0113857D02*
X0036907Y0108952D01*
X0023417Y0108134D01*
X0023361Y0108132D01*
X0023306Y0108126D01*
X0023251Y0108117D01*
X0023197Y0108104D01*
X0023143Y0108087D01*
X0023092Y0108066D01*
X0023041Y0108042D01*
X0022992Y0108015D01*
X0022946Y0107984D01*
X0022901Y0107951D01*
X0022859Y0107914D01*
X0022820Y0107875D01*
X0022783Y0107833D01*
X0022750Y0107788D01*
X0022719Y0107742D01*
X0022692Y0107693D01*
X0022668Y0107642D01*
X0022647Y0107591D01*
X0022630Y0107537D01*
X0022617Y0107483D01*
X0022608Y0107428D01*
X0022602Y0107373D01*
X0022600Y0107317D01*
X0022602Y0107261D01*
X0022608Y0107206D01*
X0022617Y0107151D01*
X0022630Y0107097D01*
X0022647Y0107043D01*
X0022668Y0106992D01*
X0022692Y0106941D01*
X0022719Y0106892D01*
X0022750Y0106846D01*
X0022783Y0106801D01*
X0022820Y0106759D01*
X0022859Y0106720D01*
X0022901Y0106683D01*
X0022946Y0106650D01*
X0022992Y0106619D01*
X0023041Y0106592D01*
X0023092Y0106568D01*
X0023143Y0106547D01*
X0023197Y0106530D01*
X0023251Y0106517D01*
X0023306Y0106508D01*
X0023361Y0106502D01*
X0023417Y0106500D01*
X0023418Y0106499D02*
X0039359Y0107317D01*
X0039360Y0107316D02*
X0039417Y0107321D01*
X0039474Y0107330D01*
X0039530Y0107343D01*
X0039585Y0107359D01*
X0039639Y0107379D01*
X0039691Y0107403D01*
X0039742Y0107429D01*
X0039791Y0107460D01*
X0039838Y0107493D01*
X0039883Y0107529D01*
X0039925Y0107569D01*
X0039964Y0107611D01*
X0040000Y0107655D01*
X0040034Y0107702D01*
X0040064Y0107751D01*
X0040091Y0107802D01*
X0040114Y0107854D01*
X0040134Y0107908D01*
X0040150Y0107964D01*
X0040163Y0108020D01*
X0040172Y0108077D01*
X0040177Y0108134D01*
X0034250Y0105477D02*
X0034250Y0104659D01*
X0024848Y0103638D01*
X0024848Y0101594D01*
X0034250Y0100572D01*
X0034250Y0099754D01*
X0023417Y0100572D01*
X0023351Y0100579D01*
X0023286Y0100590D01*
X0023221Y0100604D01*
X0023158Y0100622D01*
X0023095Y0100644D01*
X0023034Y0100669D01*
X0022974Y0100697D01*
X0022916Y0100729D01*
X0022860Y0100765D01*
X0022806Y0100803D01*
X0022755Y0100844D01*
X0022706Y0100888D01*
X0022659Y0100935D01*
X0022615Y0100985D01*
X0022574Y0101037D01*
X0022536Y0101091D01*
X0022501Y0101147D01*
X0022470Y0101205D01*
X0022442Y0101265D01*
X0022417Y0101327D01*
X0022396Y0101389D01*
X0022396Y0103638D02*
X0022417Y0103700D01*
X0022442Y0103762D01*
X0022470Y0103822D01*
X0022501Y0103880D01*
X0022536Y0103936D01*
X0022574Y0103990D01*
X0022615Y0104042D01*
X0022659Y0104092D01*
X0022706Y0104139D01*
X0022755Y0104183D01*
X0022806Y0104224D01*
X0022860Y0104262D01*
X0022916Y0104298D01*
X0022974Y0104330D01*
X0023034Y0104358D01*
X0023095Y0104383D01*
X0023158Y0104405D01*
X0023221Y0104423D01*
X0023286Y0104437D01*
X0023351Y0104448D01*
X0023417Y0104455D01*
X0034250Y0105477D01*
X0022396Y0103638D02*
X0022362Y0103523D01*
X0022332Y0103406D01*
X0022306Y0103289D01*
X0022284Y0103171D01*
X0022265Y0103053D01*
X0022250Y0102933D01*
X0022239Y0102814D01*
X0022231Y0102694D01*
X0022227Y0102574D01*
X0022227Y0102454D01*
X0022231Y0102334D01*
X0022239Y0102214D01*
X0022250Y0102095D01*
X0022265Y0101975D01*
X0022284Y0101857D01*
X0022306Y0101739D01*
X0022332Y0101622D01*
X0022362Y0101505D01*
X0022396Y0101390D01*
X0024023Y0096280D02*
X0018104Y0096280D01*
X0026884Y0096280D01*
X0026884Y0092192D01*
X0028315Y0092192D01*
X0028315Y0093827D01*
X0030768Y0093827D01*
X0030768Y0092192D01*
X0032312Y0092192D01*
X0032312Y0096280D01*
X0018104Y0096280D02*
X0018104Y0126528D01*
X0024023Y0126528D01*
X0026884Y0126528D02*
X0026884Y0130616D01*
X0028315Y0130616D01*
X0028315Y0128981D01*
X0030768Y0128981D01*
X0030768Y0130616D01*
X0032312Y0130616D01*
X0032312Y0126528D01*
X0044264Y0126528D01*
X0035173Y0126528D01*
X0034250Y0123054D02*
X0034250Y0122236D01*
X0024848Y0121214D01*
X0024848Y0119170D01*
X0034250Y0118148D01*
X0034250Y0117331D01*
X0023417Y0118353D01*
X0023351Y0118360D01*
X0023286Y0118371D01*
X0023221Y0118385D01*
X0023158Y0118403D01*
X0023095Y0118425D01*
X0023034Y0118450D01*
X0022974Y0118478D01*
X0022916Y0118510D01*
X0022860Y0118546D01*
X0022806Y0118584D01*
X0022755Y0118625D01*
X0022706Y0118669D01*
X0022659Y0118716D01*
X0022615Y0118766D01*
X0022574Y0118818D01*
X0022536Y0118872D01*
X0022501Y0118928D01*
X0022470Y0118986D01*
X0022442Y0119046D01*
X0022417Y0119108D01*
X0022396Y0119170D01*
X0022396Y0121419D02*
X0022417Y0121481D01*
X0022442Y0121543D01*
X0022470Y0121603D01*
X0022501Y0121661D01*
X0022536Y0121717D01*
X0022574Y0121771D01*
X0022615Y0121823D01*
X0022659Y0121873D01*
X0022706Y0121920D01*
X0022755Y0121964D01*
X0022806Y0122005D01*
X0022860Y0122043D01*
X0022916Y0122079D01*
X0022974Y0122111D01*
X0023034Y0122139D01*
X0023095Y0122164D01*
X0023158Y0122186D01*
X0023221Y0122204D01*
X0023286Y0122218D01*
X0023351Y0122229D01*
X0023417Y0122236D01*
X0034250Y0123054D01*
X0026884Y0126528D02*
X0018104Y0126528D01*
X0022396Y0121418D02*
X0022362Y0121303D01*
X0022332Y0121186D01*
X0022306Y0121069D01*
X0022284Y0120951D01*
X0022265Y0120833D01*
X0022250Y0120713D01*
X0022239Y0120594D01*
X0022231Y0120474D01*
X0022227Y0120354D01*
X0022227Y0120234D01*
X0022231Y0120114D01*
X0022239Y0119994D01*
X0022250Y0119875D01*
X0022265Y0119755D01*
X0022284Y0119637D01*
X0022306Y0119519D01*
X0022332Y0119402D01*
X0022362Y0119285D01*
X0022396Y0119170D01*
X0024104Y0134104D02*
X0027173Y0138707D01*
X0028707Y0137173D02*
X0030242Y0138707D01*
X0030242Y0134104D01*
X0028707Y0134104D02*
X0031777Y0134104D01*
X0027173Y0134104D02*
X0024104Y0138707D01*
X0048148Y0130616D02*
X0048148Y0128163D01*
X0049783Y0128981D02*
X0051826Y0128981D01*
X0051826Y0130616D01*
X0053461Y0130616D01*
X0053461Y0128163D01*
X0049783Y0128981D02*
X0049783Y0130616D01*
X0048148Y0130616D01*
X0056600Y0125242D02*
X0061204Y0125242D01*
X0058134Y0123707D02*
X0056600Y0125242D01*
X0079904Y0104002D02*
X0082805Y0104002D01*
X0082904Y0098805D02*
X0079904Y0098805D01*
X0079698Y0096207D02*
X0078163Y0096207D01*
X0077396Y0095440D01*
X0077396Y0092371D01*
X0078163Y0091604D01*
X0079698Y0091604D01*
X0080465Y0092371D01*
X0082000Y0093905D02*
X0085069Y0093905D01*
X0084302Y0091604D02*
X0084302Y0096207D01*
X0082000Y0093905D01*
X0080465Y0095440D02*
X0079698Y0096207D01*
X0076204Y0095069D02*
X0076204Y0092000D01*
X0076204Y0093534D02*
X0071600Y0093534D01*
X0073134Y0092000D01*
X0072367Y0090465D02*
X0071600Y0089698D01*
X0071600Y0088163D01*
X0072367Y0087396D01*
X0075436Y0087396D01*
X0076204Y0088163D01*
X0076204Y0089698D01*
X0075436Y0090465D01*
X0069002Y0089904D02*
X0069002Y0092904D01*
X0063805Y0092805D02*
X0063805Y0089904D01*
X0086600Y0086777D02*
X0091204Y0083707D01*
X0091204Y0086777D02*
X0086600Y0083707D01*
X0086600Y0082173D02*
X0086600Y0079104D01*
X0086600Y0080638D02*
X0091204Y0080638D01*
X0093943Y0082132D02*
X0093943Y0085675D01*
X0098864Y0085675D02*
X0098864Y0082033D01*
X0106600Y0081405D02*
X0106600Y0079104D01*
X0111204Y0079104D01*
X0109669Y0079104D02*
X0109669Y0081405D01*
X0108902Y0082173D01*
X0107367Y0082173D01*
X0106600Y0081405D01*
X0106600Y0083707D02*
X0111204Y0086777D01*
X0113943Y0085675D02*
X0113943Y0082132D01*
X0111204Y0082173D02*
X0109669Y0080638D01*
X0111204Y0083707D02*
X0106600Y0086777D01*
X0104737Y0092913D02*
X0100133Y0092913D01*
X0100133Y0095215D01*
X0100900Y0095982D01*
X0102435Y0095982D01*
X0103202Y0095215D01*
X0103202Y0092913D01*
X0103202Y0094447D02*
X0104737Y0095982D01*
X0103970Y0097517D02*
X0104737Y0098284D01*
X0104737Y0099818D01*
X0103970Y0100586D01*
X0102435Y0100586D01*
X0101668Y0099818D01*
X0101668Y0099051D01*
X0102435Y0097517D01*
X0100133Y0097517D01*
X0100133Y0100586D01*
X0121600Y0094302D02*
X0123902Y0092000D01*
X0123902Y0095069D01*
X0126204Y0094302D02*
X0121600Y0094302D01*
X0122367Y0090465D02*
X0121600Y0089698D01*
X0121600Y0087396D01*
X0126204Y0087396D01*
X0124669Y0087396D02*
X0124669Y0089698D01*
X0123902Y0090465D01*
X0122367Y0090465D01*
X0124669Y0088930D02*
X0126204Y0090465D01*
X0132082Y0095373D02*
X0132849Y0094606D01*
X0135919Y0094606D01*
X0136686Y0095373D01*
X0136686Y0096907D01*
X0135919Y0097675D01*
X0135919Y0099209D02*
X0136686Y0099977D01*
X0136686Y0101511D01*
X0135919Y0102279D01*
X0134384Y0102279D01*
X0133617Y0101511D01*
X0133617Y0100744D01*
X0134384Y0099209D01*
X0132082Y0099209D01*
X0132082Y0102279D01*
X0139287Y0100906D02*
X0139287Y0097906D01*
X0144484Y0098004D02*
X0144484Y0100906D01*
X0132849Y0097675D02*
X0132082Y0096907D01*
X0132082Y0095373D01*
X0118864Y0085675D02*
X0118864Y0082033D01*
X0145292Y0066207D02*
X0147594Y0066207D01*
X0148361Y0065440D01*
X0148361Y0063905D01*
X0147594Y0063138D01*
X0145292Y0063138D01*
X0146826Y0063138D02*
X0148361Y0061604D01*
X0149896Y0061604D02*
X0152965Y0064673D01*
X0152965Y0065440D01*
X0152198Y0066207D01*
X0150663Y0066207D01*
X0149896Y0065440D01*
X0154500Y0065440D02*
X0154500Y0062371D01*
X0157569Y0065440D01*
X0157569Y0062371D01*
X0156802Y0061604D01*
X0155267Y0061604D01*
X0154500Y0062371D01*
X0152965Y0061604D02*
X0149896Y0061604D01*
X0145292Y0061604D02*
X0145292Y0066207D01*
X0154500Y0065440D02*
X0155267Y0066207D01*
X0156802Y0066207D01*
X0157569Y0065440D01*
X0167830Y0067792D02*
X0167830Y0070094D01*
X0168597Y0070861D01*
X0170132Y0070861D01*
X0170899Y0070094D01*
X0170899Y0067792D01*
X0170899Y0069326D02*
X0172434Y0070861D01*
X0171667Y0072396D02*
X0172434Y0073163D01*
X0172434Y0074698D01*
X0171667Y0075465D01*
X0170899Y0075465D01*
X0170132Y0074698D01*
X0170132Y0073163D01*
X0169365Y0072396D01*
X0168597Y0072396D01*
X0167830Y0073163D01*
X0167830Y0074698D01*
X0168597Y0075465D01*
X0167830Y0077000D02*
X0167830Y0080069D01*
X0167830Y0078534D02*
X0172434Y0078534D01*
X0172434Y0067792D02*
X0167830Y0067792D01*
X0166600Y0098188D02*
X0170436Y0098188D01*
X0171204Y0098955D01*
X0171204Y0100490D01*
X0170436Y0101257D01*
X0166600Y0101257D01*
X0167367Y0102792D02*
X0168134Y0102792D01*
X0168902Y0103559D01*
X0168902Y0105094D01*
X0169669Y0105861D01*
X0170436Y0105861D01*
X0171204Y0105094D01*
X0171204Y0103559D01*
X0170436Y0102792D01*
X0167367Y0102792D02*
X0166600Y0103559D01*
X0166600Y0105094D01*
X0167367Y0105861D01*
X0166600Y0107396D02*
X0171204Y0107396D01*
X0171204Y0110465D01*
X0171204Y0112000D02*
X0166600Y0112000D01*
X0166600Y0114302D01*
X0167367Y0115069D01*
X0168902Y0115069D01*
X0169669Y0114302D01*
X0169669Y0112000D01*
X0169669Y0113534D02*
X0171204Y0115069D01*
X0166600Y0110465D02*
X0166600Y0107396D01*
X0168902Y0107396D02*
X0168902Y0108930D01*
X0141204Y0113163D02*
X0140436Y0112396D01*
X0137367Y0112396D01*
X0136600Y0113163D01*
X0136600Y0114698D01*
X0137367Y0115465D01*
X0138902Y0117000D02*
X0137367Y0118534D01*
X0136600Y0120069D01*
X0138902Y0119302D02*
X0138902Y0117000D01*
X0140436Y0117000D01*
X0141204Y0117767D01*
X0141204Y0119302D01*
X0140436Y0120069D01*
X0139669Y0120069D01*
X0138902Y0119302D01*
X0140436Y0115465D02*
X0141204Y0114698D01*
X0141204Y0113163D01*
X0137763Y0124680D02*
X0137763Y0126215D01*
X0137763Y0125448D02*
X0133159Y0125448D01*
X0133159Y0126215D02*
X0133159Y0124680D01*
X0133926Y0127750D02*
X0136995Y0127750D01*
X0137763Y0128517D01*
X0137763Y0130052D01*
X0136995Y0130819D01*
X0137763Y0132354D02*
X0137763Y0135423D01*
X0137763Y0133888D02*
X0133159Y0133888D01*
X0134693Y0132354D01*
X0133926Y0130819D02*
X0133159Y0130052D01*
X0133159Y0128517D01*
X0133926Y0127750D01*
X0138805Y0129904D02*
X0138805Y0132805D01*
X0144002Y0132904D02*
X0144002Y0129904D01*
X0154405Y0144179D02*
X0155940Y0144179D01*
X0155172Y0144179D02*
X0155172Y0148783D01*
X0154405Y0148783D02*
X0155940Y0148783D01*
X0157474Y0148016D02*
X0157474Y0144946D01*
X0158242Y0144179D01*
X0159776Y0144179D01*
X0160544Y0144946D01*
X0162078Y0144179D02*
X0165148Y0147248D01*
X0165148Y0148016D01*
X0164380Y0148783D01*
X0162846Y0148783D01*
X0162078Y0148016D01*
X0160544Y0148016D02*
X0159776Y0148783D01*
X0158242Y0148783D01*
X0157474Y0148016D01*
X0162078Y0144179D02*
X0165148Y0144179D01*
X0176600Y0144302D02*
X0176600Y0142000D01*
X0181204Y0142000D01*
X0181204Y0144302D01*
X0180436Y0145069D01*
X0177367Y0145069D01*
X0176600Y0144302D01*
X0176600Y0140465D02*
X0176600Y0137396D01*
X0181204Y0137396D01*
X0181204Y0140465D01*
X0178902Y0138930D02*
X0178902Y0137396D01*
X0181204Y0135861D02*
X0181204Y0132792D01*
X0176600Y0132792D01*
X0176600Y0131257D02*
X0180436Y0131257D01*
X0181204Y0130490D01*
X0181204Y0128955D01*
X0180436Y0128188D01*
X0176600Y0128188D01*
X0183943Y0134632D02*
X0183943Y0138274D01*
X0188864Y0138175D02*
X0188864Y0134632D01*
X0191600Y0134104D02*
X0191600Y0136405D01*
X0192367Y0137173D01*
X0193902Y0137173D01*
X0194669Y0136405D01*
X0194669Y0134104D01*
X0194669Y0135638D02*
X0196204Y0137173D01*
X0196204Y0138707D02*
X0196204Y0141777D01*
X0196204Y0140242D02*
X0191600Y0140242D01*
X0193134Y0138707D01*
X0193134Y0143311D02*
X0192367Y0143311D01*
X0191600Y0144079D01*
X0191600Y0145613D01*
X0192367Y0146381D01*
X0193134Y0146381D01*
X0193902Y0145613D01*
X0193902Y0144079D01*
X0193134Y0143311D01*
X0193902Y0144079D02*
X0194669Y0143311D01*
X0195436Y0143311D01*
X0196204Y0144079D01*
X0196204Y0145613D01*
X0195436Y0146381D01*
X0194669Y0146381D01*
X0193902Y0145613D01*
X0196204Y0134104D02*
X0191600Y0134104D01*
X0108534Y0061207D02*
X0107000Y0059673D01*
X0105465Y0060440D02*
X0105465Y0058905D01*
X0104698Y0058138D01*
X0102396Y0058138D01*
X0103930Y0058138D02*
X0105465Y0056604D01*
X0107000Y0056604D02*
X0110069Y0056604D01*
X0108534Y0056604D02*
X0108534Y0061207D01*
X0105465Y0060440D02*
X0104698Y0061207D01*
X0102396Y0061207D01*
X0102396Y0056604D01*
X0092569Y0056604D02*
X0089500Y0056604D01*
X0092569Y0059673D01*
X0092569Y0060440D01*
X0091802Y0061207D01*
X0090267Y0061207D01*
X0089500Y0060440D01*
X0087965Y0060440D02*
X0087965Y0058905D01*
X0087198Y0058138D01*
X0084896Y0058138D01*
X0086430Y0058138D02*
X0087965Y0056604D01*
X0084896Y0056604D02*
X0084896Y0061207D01*
X0087198Y0061207D01*
X0087965Y0060440D01*
X0095604Y0040707D02*
X0098673Y0036104D01*
X0100207Y0036104D02*
X0103277Y0039173D01*
X0103277Y0039940D01*
X0102509Y0040707D01*
X0100975Y0040707D01*
X0100207Y0039940D01*
X0098673Y0040707D02*
X0095604Y0036104D01*
X0100207Y0036104D02*
X0103277Y0036104D01*
X0102509Y0030707D02*
X0100975Y0030707D01*
X0100207Y0029940D01*
X0098673Y0030707D02*
X0095604Y0026104D01*
X0098673Y0026104D02*
X0095604Y0030707D01*
X0100207Y0026871D02*
X0100975Y0026104D01*
X0102509Y0026104D01*
X0103277Y0026871D01*
X0103277Y0027638D01*
X0102509Y0028405D01*
X0101742Y0028405D01*
X0102509Y0028405D02*
X0103277Y0029173D01*
X0103277Y0029940D01*
X0102509Y0030707D01*
X0018104Y0096280D02*
X0018104Y0096280D01*
X0229896Y0056207D02*
X0229896Y0051604D01*
X0229896Y0053138D02*
X0232198Y0053138D01*
X0232965Y0053905D01*
X0232965Y0055440D01*
X0232198Y0056207D01*
X0229896Y0056207D01*
X0234500Y0055440D02*
X0234500Y0054673D01*
X0235267Y0053905D01*
X0237569Y0053905D01*
X0237569Y0052371D02*
X0237569Y0055440D01*
X0236802Y0056207D01*
X0235267Y0056207D01*
X0234500Y0055440D01*
X0234500Y0052371D02*
X0235267Y0051604D01*
X0236802Y0051604D01*
X0237569Y0052371D01*
X0232965Y0051604D02*
X0231430Y0053138D01*
D14*
X0141881Y0096582D03*
X0141881Y0102282D03*
X0141408Y0128527D03*
X0141408Y0134227D03*
X0181399Y0153580D03*
X0181399Y0159280D03*
X0201399Y0159280D03*
X0201399Y0153580D03*
X0221399Y0153580D03*
X0221399Y0159280D03*
X0086408Y0129227D03*
X0086408Y0123527D03*
X0066408Y0094227D03*
X0066408Y0088527D03*
D15*
X0078527Y0101399D03*
X0084227Y0101399D03*
X0082301Y0153180D03*
X0088001Y0153180D03*
X0183527Y0176399D03*
X0189227Y0176399D03*
D16*
X0174305Y0173404D02*
X0174305Y0159404D01*
X0148502Y0159404D01*
X0148502Y0173404D01*
X0174305Y0173404D01*
X0131482Y0136640D02*
X0131482Y0116167D01*
X0091325Y0116167D01*
X0091325Y0136640D01*
X0131482Y0136640D01*
X0179199Y0123608D02*
X0203608Y0123608D01*
X0203608Y0099199D01*
X0179199Y0099199D01*
X0179199Y0123608D01*
X0180577Y0123608D02*
X0202230Y0123608D01*
X0203608Y0115341D02*
X0203608Y0107467D01*
X0202230Y0099199D02*
X0180577Y0099199D01*
X0179199Y0107467D02*
X0179199Y0115341D01*
X0184514Y0111404D02*
X0184516Y0111573D01*
X0184522Y0111742D01*
X0184533Y0111911D01*
X0184547Y0112079D01*
X0184566Y0112247D01*
X0184589Y0112415D01*
X0184615Y0112582D01*
X0184646Y0112748D01*
X0184681Y0112914D01*
X0184720Y0113078D01*
X0184764Y0113242D01*
X0184811Y0113404D01*
X0184862Y0113565D01*
X0184917Y0113725D01*
X0184976Y0113884D01*
X0185038Y0114041D01*
X0185105Y0114196D01*
X0185176Y0114350D01*
X0185250Y0114502D01*
X0185328Y0114652D01*
X0185409Y0114800D01*
X0185494Y0114946D01*
X0185583Y0115090D01*
X0185675Y0115232D01*
X0185771Y0115371D01*
X0185870Y0115508D01*
X0185972Y0115643D01*
X0186078Y0115775D01*
X0186187Y0115904D01*
X0186299Y0116031D01*
X0186414Y0116155D01*
X0186532Y0116276D01*
X0186653Y0116394D01*
X0186777Y0116509D01*
X0186904Y0116621D01*
X0187033Y0116730D01*
X0187165Y0116836D01*
X0187300Y0116938D01*
X0187437Y0117037D01*
X0187576Y0117133D01*
X0187718Y0117225D01*
X0187862Y0117314D01*
X0188008Y0117399D01*
X0188156Y0117480D01*
X0188306Y0117558D01*
X0188458Y0117632D01*
X0188612Y0117703D01*
X0188767Y0117770D01*
X0188924Y0117832D01*
X0189083Y0117891D01*
X0189243Y0117946D01*
X0189404Y0117997D01*
X0189566Y0118044D01*
X0189730Y0118088D01*
X0189894Y0118127D01*
X0190060Y0118162D01*
X0190226Y0118193D01*
X0190393Y0118219D01*
X0190561Y0118242D01*
X0190729Y0118261D01*
X0190897Y0118275D01*
X0191066Y0118286D01*
X0191235Y0118292D01*
X0191404Y0118294D01*
X0191573Y0118292D01*
X0191742Y0118286D01*
X0191911Y0118275D01*
X0192079Y0118261D01*
X0192247Y0118242D01*
X0192415Y0118219D01*
X0192582Y0118193D01*
X0192748Y0118162D01*
X0192914Y0118127D01*
X0193078Y0118088D01*
X0193242Y0118044D01*
X0193404Y0117997D01*
X0193565Y0117946D01*
X0193725Y0117891D01*
X0193884Y0117832D01*
X0194041Y0117770D01*
X0194196Y0117703D01*
X0194350Y0117632D01*
X0194502Y0117558D01*
X0194652Y0117480D01*
X0194800Y0117399D01*
X0194946Y0117314D01*
X0195090Y0117225D01*
X0195232Y0117133D01*
X0195371Y0117037D01*
X0195508Y0116938D01*
X0195643Y0116836D01*
X0195775Y0116730D01*
X0195904Y0116621D01*
X0196031Y0116509D01*
X0196155Y0116394D01*
X0196276Y0116276D01*
X0196394Y0116155D01*
X0196509Y0116031D01*
X0196621Y0115904D01*
X0196730Y0115775D01*
X0196836Y0115643D01*
X0196938Y0115508D01*
X0197037Y0115371D01*
X0197133Y0115232D01*
X0197225Y0115090D01*
X0197314Y0114946D01*
X0197399Y0114800D01*
X0197480Y0114652D01*
X0197558Y0114502D01*
X0197632Y0114350D01*
X0197703Y0114196D01*
X0197770Y0114041D01*
X0197832Y0113884D01*
X0197891Y0113725D01*
X0197946Y0113565D01*
X0197997Y0113404D01*
X0198044Y0113242D01*
X0198088Y0113078D01*
X0198127Y0112914D01*
X0198162Y0112748D01*
X0198193Y0112582D01*
X0198219Y0112415D01*
X0198242Y0112247D01*
X0198261Y0112079D01*
X0198275Y0111911D01*
X0198286Y0111742D01*
X0198292Y0111573D01*
X0198294Y0111404D01*
X0198292Y0111235D01*
X0198286Y0111066D01*
X0198275Y0110897D01*
X0198261Y0110729D01*
X0198242Y0110561D01*
X0198219Y0110393D01*
X0198193Y0110226D01*
X0198162Y0110060D01*
X0198127Y0109894D01*
X0198088Y0109730D01*
X0198044Y0109566D01*
X0197997Y0109404D01*
X0197946Y0109243D01*
X0197891Y0109083D01*
X0197832Y0108924D01*
X0197770Y0108767D01*
X0197703Y0108612D01*
X0197632Y0108458D01*
X0197558Y0108306D01*
X0197480Y0108156D01*
X0197399Y0108008D01*
X0197314Y0107862D01*
X0197225Y0107718D01*
X0197133Y0107576D01*
X0197037Y0107437D01*
X0196938Y0107300D01*
X0196836Y0107165D01*
X0196730Y0107033D01*
X0196621Y0106904D01*
X0196509Y0106777D01*
X0196394Y0106653D01*
X0196276Y0106532D01*
X0196155Y0106414D01*
X0196031Y0106299D01*
X0195904Y0106187D01*
X0195775Y0106078D01*
X0195643Y0105972D01*
X0195508Y0105870D01*
X0195371Y0105771D01*
X0195232Y0105675D01*
X0195090Y0105583D01*
X0194946Y0105494D01*
X0194800Y0105409D01*
X0194652Y0105328D01*
X0194502Y0105250D01*
X0194350Y0105176D01*
X0194196Y0105105D01*
X0194041Y0105038D01*
X0193884Y0104976D01*
X0193725Y0104917D01*
X0193565Y0104862D01*
X0193404Y0104811D01*
X0193242Y0104764D01*
X0193078Y0104720D01*
X0192914Y0104681D01*
X0192748Y0104646D01*
X0192582Y0104615D01*
X0192415Y0104589D01*
X0192247Y0104566D01*
X0192079Y0104547D01*
X0191911Y0104533D01*
X0191742Y0104522D01*
X0191573Y0104516D01*
X0191404Y0104514D01*
X0191235Y0104516D01*
X0191066Y0104522D01*
X0190897Y0104533D01*
X0190729Y0104547D01*
X0190561Y0104566D01*
X0190393Y0104589D01*
X0190226Y0104615D01*
X0190060Y0104646D01*
X0189894Y0104681D01*
X0189730Y0104720D01*
X0189566Y0104764D01*
X0189404Y0104811D01*
X0189243Y0104862D01*
X0189083Y0104917D01*
X0188924Y0104976D01*
X0188767Y0105038D01*
X0188612Y0105105D01*
X0188458Y0105176D01*
X0188306Y0105250D01*
X0188156Y0105328D01*
X0188008Y0105409D01*
X0187862Y0105494D01*
X0187718Y0105583D01*
X0187576Y0105675D01*
X0187437Y0105771D01*
X0187300Y0105870D01*
X0187165Y0105972D01*
X0187033Y0106078D01*
X0186904Y0106187D01*
X0186777Y0106299D01*
X0186653Y0106414D01*
X0186532Y0106532D01*
X0186414Y0106653D01*
X0186299Y0106777D01*
X0186187Y0106904D01*
X0186078Y0107033D01*
X0185972Y0107165D01*
X0185870Y0107300D01*
X0185771Y0107437D01*
X0185675Y0107576D01*
X0185583Y0107718D01*
X0185494Y0107862D01*
X0185409Y0108008D01*
X0185328Y0108156D01*
X0185250Y0108306D01*
X0185176Y0108458D01*
X0185105Y0108612D01*
X0185038Y0108767D01*
X0184976Y0108924D01*
X0184917Y0109083D01*
X0184862Y0109243D01*
X0184811Y0109404D01*
X0184764Y0109566D01*
X0184720Y0109730D01*
X0184681Y0109894D01*
X0184646Y0110060D01*
X0184615Y0110226D01*
X0184589Y0110393D01*
X0184566Y0110561D01*
X0184547Y0110729D01*
X0184533Y0110897D01*
X0184522Y0111066D01*
X0184516Y0111235D01*
X0184514Y0111404D01*
X0184516Y0111573D01*
X0184522Y0111742D01*
X0184533Y0111911D01*
X0184547Y0112079D01*
X0184566Y0112247D01*
X0184589Y0112415D01*
X0184615Y0112582D01*
X0184646Y0112748D01*
X0184681Y0112914D01*
X0184720Y0113078D01*
X0184764Y0113242D01*
X0184811Y0113404D01*
X0184862Y0113565D01*
X0184917Y0113725D01*
X0184976Y0113884D01*
X0185038Y0114041D01*
X0185105Y0114196D01*
X0185176Y0114350D01*
X0185250Y0114502D01*
X0185328Y0114652D01*
X0185409Y0114800D01*
X0185494Y0114946D01*
X0185583Y0115090D01*
X0185675Y0115232D01*
X0185771Y0115371D01*
X0185870Y0115508D01*
X0185972Y0115643D01*
X0186078Y0115775D01*
X0186187Y0115904D01*
X0186299Y0116031D01*
X0186414Y0116155D01*
X0186532Y0116276D01*
X0186653Y0116394D01*
X0186777Y0116509D01*
X0186904Y0116621D01*
X0187033Y0116730D01*
X0187165Y0116836D01*
X0187300Y0116938D01*
X0187437Y0117037D01*
X0187576Y0117133D01*
X0187718Y0117225D01*
X0187862Y0117314D01*
X0188008Y0117399D01*
X0188156Y0117480D01*
X0188306Y0117558D01*
X0188458Y0117632D01*
X0188612Y0117703D01*
X0188767Y0117770D01*
X0188924Y0117832D01*
X0189083Y0117891D01*
X0189243Y0117946D01*
X0189404Y0117997D01*
X0189566Y0118044D01*
X0189730Y0118088D01*
X0189894Y0118127D01*
X0190060Y0118162D01*
X0190226Y0118193D01*
X0190393Y0118219D01*
X0190561Y0118242D01*
X0190729Y0118261D01*
X0190897Y0118275D01*
X0191066Y0118286D01*
X0191235Y0118292D01*
X0191404Y0118294D01*
X0191573Y0118292D01*
X0191742Y0118286D01*
X0191911Y0118275D01*
X0192079Y0118261D01*
X0192247Y0118242D01*
X0192415Y0118219D01*
X0192582Y0118193D01*
X0192748Y0118162D01*
X0192914Y0118127D01*
X0193078Y0118088D01*
X0193242Y0118044D01*
X0193404Y0117997D01*
X0193565Y0117946D01*
X0193725Y0117891D01*
X0193884Y0117832D01*
X0194041Y0117770D01*
X0194196Y0117703D01*
X0194350Y0117632D01*
X0194502Y0117558D01*
X0194652Y0117480D01*
X0194800Y0117399D01*
X0194946Y0117314D01*
X0195090Y0117225D01*
X0195232Y0117133D01*
X0195371Y0117037D01*
X0195508Y0116938D01*
X0195643Y0116836D01*
X0195775Y0116730D01*
X0195904Y0116621D01*
X0196031Y0116509D01*
X0196155Y0116394D01*
X0196276Y0116276D01*
X0196394Y0116155D01*
X0196509Y0116031D01*
X0196621Y0115904D01*
X0196730Y0115775D01*
X0196836Y0115643D01*
X0196938Y0115508D01*
X0197037Y0115371D01*
X0197133Y0115232D01*
X0197225Y0115090D01*
X0197314Y0114946D01*
X0197399Y0114800D01*
X0197480Y0114652D01*
X0197558Y0114502D01*
X0197632Y0114350D01*
X0197703Y0114196D01*
X0197770Y0114041D01*
X0197832Y0113884D01*
X0197891Y0113725D01*
X0197946Y0113565D01*
X0197997Y0113404D01*
X0198044Y0113242D01*
X0198088Y0113078D01*
X0198127Y0112914D01*
X0198162Y0112748D01*
X0198193Y0112582D01*
X0198219Y0112415D01*
X0198242Y0112247D01*
X0198261Y0112079D01*
X0198275Y0111911D01*
X0198286Y0111742D01*
X0198292Y0111573D01*
X0198294Y0111404D01*
X0198292Y0111235D01*
X0198286Y0111066D01*
X0198275Y0110897D01*
X0198261Y0110729D01*
X0198242Y0110561D01*
X0198219Y0110393D01*
X0198193Y0110226D01*
X0198162Y0110060D01*
X0198127Y0109894D01*
X0198088Y0109730D01*
X0198044Y0109566D01*
X0197997Y0109404D01*
X0197946Y0109243D01*
X0197891Y0109083D01*
X0197832Y0108924D01*
X0197770Y0108767D01*
X0197703Y0108612D01*
X0197632Y0108458D01*
X0197558Y0108306D01*
X0197480Y0108156D01*
X0197399Y0108008D01*
X0197314Y0107862D01*
X0197225Y0107718D01*
X0197133Y0107576D01*
X0197037Y0107437D01*
X0196938Y0107300D01*
X0196836Y0107165D01*
X0196730Y0107033D01*
X0196621Y0106904D01*
X0196509Y0106777D01*
X0196394Y0106653D01*
X0196276Y0106532D01*
X0196155Y0106414D01*
X0196031Y0106299D01*
X0195904Y0106187D01*
X0195775Y0106078D01*
X0195643Y0105972D01*
X0195508Y0105870D01*
X0195371Y0105771D01*
X0195232Y0105675D01*
X0195090Y0105583D01*
X0194946Y0105494D01*
X0194800Y0105409D01*
X0194652Y0105328D01*
X0194502Y0105250D01*
X0194350Y0105176D01*
X0194196Y0105105D01*
X0194041Y0105038D01*
X0193884Y0104976D01*
X0193725Y0104917D01*
X0193565Y0104862D01*
X0193404Y0104811D01*
X0193242Y0104764D01*
X0193078Y0104720D01*
X0192914Y0104681D01*
X0192748Y0104646D01*
X0192582Y0104615D01*
X0192415Y0104589D01*
X0192247Y0104566D01*
X0192079Y0104547D01*
X0191911Y0104533D01*
X0191742Y0104522D01*
X0191573Y0104516D01*
X0191404Y0104514D01*
X0191235Y0104516D01*
X0191066Y0104522D01*
X0190897Y0104533D01*
X0190729Y0104547D01*
X0190561Y0104566D01*
X0190393Y0104589D01*
X0190226Y0104615D01*
X0190060Y0104646D01*
X0189894Y0104681D01*
X0189730Y0104720D01*
X0189566Y0104764D01*
X0189404Y0104811D01*
X0189243Y0104862D01*
X0189083Y0104917D01*
X0188924Y0104976D01*
X0188767Y0105038D01*
X0188612Y0105105D01*
X0188458Y0105176D01*
X0188306Y0105250D01*
X0188156Y0105328D01*
X0188008Y0105409D01*
X0187862Y0105494D01*
X0187718Y0105583D01*
X0187576Y0105675D01*
X0187437Y0105771D01*
X0187300Y0105870D01*
X0187165Y0105972D01*
X0187033Y0106078D01*
X0186904Y0106187D01*
X0186777Y0106299D01*
X0186653Y0106414D01*
X0186532Y0106532D01*
X0186414Y0106653D01*
X0186299Y0106777D01*
X0186187Y0106904D01*
X0186078Y0107033D01*
X0185972Y0107165D01*
X0185870Y0107300D01*
X0185771Y0107437D01*
X0185675Y0107576D01*
X0185583Y0107718D01*
X0185494Y0107862D01*
X0185409Y0108008D01*
X0185328Y0108156D01*
X0185250Y0108306D01*
X0185176Y0108458D01*
X0185105Y0108612D01*
X0185038Y0108767D01*
X0184976Y0108924D01*
X0184917Y0109083D01*
X0184862Y0109243D01*
X0184811Y0109404D01*
X0184764Y0109566D01*
X0184720Y0109730D01*
X0184681Y0109894D01*
X0184646Y0110060D01*
X0184615Y0110226D01*
X0184589Y0110393D01*
X0184566Y0110561D01*
X0184547Y0110729D01*
X0184533Y0110897D01*
X0184522Y0111066D01*
X0184516Y0111235D01*
X0184514Y0111404D01*
X0182467Y0088608D02*
X0190341Y0088608D01*
X0198608Y0088608D02*
X0174199Y0088608D01*
X0174199Y0064199D01*
X0198608Y0064199D01*
X0198608Y0088608D01*
X0198608Y0087230D02*
X0198608Y0065577D01*
X0190341Y0064199D02*
X0182467Y0064199D01*
X0174199Y0065577D02*
X0174199Y0087230D01*
X0179514Y0076404D02*
X0179516Y0076573D01*
X0179522Y0076742D01*
X0179533Y0076911D01*
X0179547Y0077079D01*
X0179566Y0077247D01*
X0179589Y0077415D01*
X0179615Y0077582D01*
X0179646Y0077748D01*
X0179681Y0077914D01*
X0179720Y0078078D01*
X0179764Y0078242D01*
X0179811Y0078404D01*
X0179862Y0078565D01*
X0179917Y0078725D01*
X0179976Y0078884D01*
X0180038Y0079041D01*
X0180105Y0079196D01*
X0180176Y0079350D01*
X0180250Y0079502D01*
X0180328Y0079652D01*
X0180409Y0079800D01*
X0180494Y0079946D01*
X0180583Y0080090D01*
X0180675Y0080232D01*
X0180771Y0080371D01*
X0180870Y0080508D01*
X0180972Y0080643D01*
X0181078Y0080775D01*
X0181187Y0080904D01*
X0181299Y0081031D01*
X0181414Y0081155D01*
X0181532Y0081276D01*
X0181653Y0081394D01*
X0181777Y0081509D01*
X0181904Y0081621D01*
X0182033Y0081730D01*
X0182165Y0081836D01*
X0182300Y0081938D01*
X0182437Y0082037D01*
X0182576Y0082133D01*
X0182718Y0082225D01*
X0182862Y0082314D01*
X0183008Y0082399D01*
X0183156Y0082480D01*
X0183306Y0082558D01*
X0183458Y0082632D01*
X0183612Y0082703D01*
X0183767Y0082770D01*
X0183924Y0082832D01*
X0184083Y0082891D01*
X0184243Y0082946D01*
X0184404Y0082997D01*
X0184566Y0083044D01*
X0184730Y0083088D01*
X0184894Y0083127D01*
X0185060Y0083162D01*
X0185226Y0083193D01*
X0185393Y0083219D01*
X0185561Y0083242D01*
X0185729Y0083261D01*
X0185897Y0083275D01*
X0186066Y0083286D01*
X0186235Y0083292D01*
X0186404Y0083294D01*
X0186573Y0083292D01*
X0186742Y0083286D01*
X0186911Y0083275D01*
X0187079Y0083261D01*
X0187247Y0083242D01*
X0187415Y0083219D01*
X0187582Y0083193D01*
X0187748Y0083162D01*
X0187914Y0083127D01*
X0188078Y0083088D01*
X0188242Y0083044D01*
X0188404Y0082997D01*
X0188565Y0082946D01*
X0188725Y0082891D01*
X0188884Y0082832D01*
X0189041Y0082770D01*
X0189196Y0082703D01*
X0189350Y0082632D01*
X0189502Y0082558D01*
X0189652Y0082480D01*
X0189800Y0082399D01*
X0189946Y0082314D01*
X0190090Y0082225D01*
X0190232Y0082133D01*
X0190371Y0082037D01*
X0190508Y0081938D01*
X0190643Y0081836D01*
X0190775Y0081730D01*
X0190904Y0081621D01*
X0191031Y0081509D01*
X0191155Y0081394D01*
X0191276Y0081276D01*
X0191394Y0081155D01*
X0191509Y0081031D01*
X0191621Y0080904D01*
X0191730Y0080775D01*
X0191836Y0080643D01*
X0191938Y0080508D01*
X0192037Y0080371D01*
X0192133Y0080232D01*
X0192225Y0080090D01*
X0192314Y0079946D01*
X0192399Y0079800D01*
X0192480Y0079652D01*
X0192558Y0079502D01*
X0192632Y0079350D01*
X0192703Y0079196D01*
X0192770Y0079041D01*
X0192832Y0078884D01*
X0192891Y0078725D01*
X0192946Y0078565D01*
X0192997Y0078404D01*
X0193044Y0078242D01*
X0193088Y0078078D01*
X0193127Y0077914D01*
X0193162Y0077748D01*
X0193193Y0077582D01*
X0193219Y0077415D01*
X0193242Y0077247D01*
X0193261Y0077079D01*
X0193275Y0076911D01*
X0193286Y0076742D01*
X0193292Y0076573D01*
X0193294Y0076404D01*
X0193292Y0076235D01*
X0193286Y0076066D01*
X0193275Y0075897D01*
X0193261Y0075729D01*
X0193242Y0075561D01*
X0193219Y0075393D01*
X0193193Y0075226D01*
X0193162Y0075060D01*
X0193127Y0074894D01*
X0193088Y0074730D01*
X0193044Y0074566D01*
X0192997Y0074404D01*
X0192946Y0074243D01*
X0192891Y0074083D01*
X0192832Y0073924D01*
X0192770Y0073767D01*
X0192703Y0073612D01*
X0192632Y0073458D01*
X0192558Y0073306D01*
X0192480Y0073156D01*
X0192399Y0073008D01*
X0192314Y0072862D01*
X0192225Y0072718D01*
X0192133Y0072576D01*
X0192037Y0072437D01*
X0191938Y0072300D01*
X0191836Y0072165D01*
X0191730Y0072033D01*
X0191621Y0071904D01*
X0191509Y0071777D01*
X0191394Y0071653D01*
X0191276Y0071532D01*
X0191155Y0071414D01*
X0191031Y0071299D01*
X0190904Y0071187D01*
X0190775Y0071078D01*
X0190643Y0070972D01*
X0190508Y0070870D01*
X0190371Y0070771D01*
X0190232Y0070675D01*
X0190090Y0070583D01*
X0189946Y0070494D01*
X0189800Y0070409D01*
X0189652Y0070328D01*
X0189502Y0070250D01*
X0189350Y0070176D01*
X0189196Y0070105D01*
X0189041Y0070038D01*
X0188884Y0069976D01*
X0188725Y0069917D01*
X0188565Y0069862D01*
X0188404Y0069811D01*
X0188242Y0069764D01*
X0188078Y0069720D01*
X0187914Y0069681D01*
X0187748Y0069646D01*
X0187582Y0069615D01*
X0187415Y0069589D01*
X0187247Y0069566D01*
X0187079Y0069547D01*
X0186911Y0069533D01*
X0186742Y0069522D01*
X0186573Y0069516D01*
X0186404Y0069514D01*
X0186235Y0069516D01*
X0186066Y0069522D01*
X0185897Y0069533D01*
X0185729Y0069547D01*
X0185561Y0069566D01*
X0185393Y0069589D01*
X0185226Y0069615D01*
X0185060Y0069646D01*
X0184894Y0069681D01*
X0184730Y0069720D01*
X0184566Y0069764D01*
X0184404Y0069811D01*
X0184243Y0069862D01*
X0184083Y0069917D01*
X0183924Y0069976D01*
X0183767Y0070038D01*
X0183612Y0070105D01*
X0183458Y0070176D01*
X0183306Y0070250D01*
X0183156Y0070328D01*
X0183008Y0070409D01*
X0182862Y0070494D01*
X0182718Y0070583D01*
X0182576Y0070675D01*
X0182437Y0070771D01*
X0182300Y0070870D01*
X0182165Y0070972D01*
X0182033Y0071078D01*
X0181904Y0071187D01*
X0181777Y0071299D01*
X0181653Y0071414D01*
X0181532Y0071532D01*
X0181414Y0071653D01*
X0181299Y0071777D01*
X0181187Y0071904D01*
X0181078Y0072033D01*
X0180972Y0072165D01*
X0180870Y0072300D01*
X0180771Y0072437D01*
X0180675Y0072576D01*
X0180583Y0072718D01*
X0180494Y0072862D01*
X0180409Y0073008D01*
X0180328Y0073156D01*
X0180250Y0073306D01*
X0180176Y0073458D01*
X0180105Y0073612D01*
X0180038Y0073767D01*
X0179976Y0073924D01*
X0179917Y0074083D01*
X0179862Y0074243D01*
X0179811Y0074404D01*
X0179764Y0074566D01*
X0179720Y0074730D01*
X0179681Y0074894D01*
X0179646Y0075060D01*
X0179615Y0075226D01*
X0179589Y0075393D01*
X0179566Y0075561D01*
X0179547Y0075729D01*
X0179533Y0075897D01*
X0179522Y0076066D01*
X0179516Y0076235D01*
X0179514Y0076404D01*
X0179516Y0076573D01*
X0179522Y0076742D01*
X0179533Y0076911D01*
X0179547Y0077079D01*
X0179566Y0077247D01*
X0179589Y0077415D01*
X0179615Y0077582D01*
X0179646Y0077748D01*
X0179681Y0077914D01*
X0179720Y0078078D01*
X0179764Y0078242D01*
X0179811Y0078404D01*
X0179862Y0078565D01*
X0179917Y0078725D01*
X0179976Y0078884D01*
X0180038Y0079041D01*
X0180105Y0079196D01*
X0180176Y0079350D01*
X0180250Y0079502D01*
X0180328Y0079652D01*
X0180409Y0079800D01*
X0180494Y0079946D01*
X0180583Y0080090D01*
X0180675Y0080232D01*
X0180771Y0080371D01*
X0180870Y0080508D01*
X0180972Y0080643D01*
X0181078Y0080775D01*
X0181187Y0080904D01*
X0181299Y0081031D01*
X0181414Y0081155D01*
X0181532Y0081276D01*
X0181653Y0081394D01*
X0181777Y0081509D01*
X0181904Y0081621D01*
X0182033Y0081730D01*
X0182165Y0081836D01*
X0182300Y0081938D01*
X0182437Y0082037D01*
X0182576Y0082133D01*
X0182718Y0082225D01*
X0182862Y0082314D01*
X0183008Y0082399D01*
X0183156Y0082480D01*
X0183306Y0082558D01*
X0183458Y0082632D01*
X0183612Y0082703D01*
X0183767Y0082770D01*
X0183924Y0082832D01*
X0184083Y0082891D01*
X0184243Y0082946D01*
X0184404Y0082997D01*
X0184566Y0083044D01*
X0184730Y0083088D01*
X0184894Y0083127D01*
X0185060Y0083162D01*
X0185226Y0083193D01*
X0185393Y0083219D01*
X0185561Y0083242D01*
X0185729Y0083261D01*
X0185897Y0083275D01*
X0186066Y0083286D01*
X0186235Y0083292D01*
X0186404Y0083294D01*
X0186573Y0083292D01*
X0186742Y0083286D01*
X0186911Y0083275D01*
X0187079Y0083261D01*
X0187247Y0083242D01*
X0187415Y0083219D01*
X0187582Y0083193D01*
X0187748Y0083162D01*
X0187914Y0083127D01*
X0188078Y0083088D01*
X0188242Y0083044D01*
X0188404Y0082997D01*
X0188565Y0082946D01*
X0188725Y0082891D01*
X0188884Y0082832D01*
X0189041Y0082770D01*
X0189196Y0082703D01*
X0189350Y0082632D01*
X0189502Y0082558D01*
X0189652Y0082480D01*
X0189800Y0082399D01*
X0189946Y0082314D01*
X0190090Y0082225D01*
X0190232Y0082133D01*
X0190371Y0082037D01*
X0190508Y0081938D01*
X0190643Y0081836D01*
X0190775Y0081730D01*
X0190904Y0081621D01*
X0191031Y0081509D01*
X0191155Y0081394D01*
X0191276Y0081276D01*
X0191394Y0081155D01*
X0191509Y0081031D01*
X0191621Y0080904D01*
X0191730Y0080775D01*
X0191836Y0080643D01*
X0191938Y0080508D01*
X0192037Y0080371D01*
X0192133Y0080232D01*
X0192225Y0080090D01*
X0192314Y0079946D01*
X0192399Y0079800D01*
X0192480Y0079652D01*
X0192558Y0079502D01*
X0192632Y0079350D01*
X0192703Y0079196D01*
X0192770Y0079041D01*
X0192832Y0078884D01*
X0192891Y0078725D01*
X0192946Y0078565D01*
X0192997Y0078404D01*
X0193044Y0078242D01*
X0193088Y0078078D01*
X0193127Y0077914D01*
X0193162Y0077748D01*
X0193193Y0077582D01*
X0193219Y0077415D01*
X0193242Y0077247D01*
X0193261Y0077079D01*
X0193275Y0076911D01*
X0193286Y0076742D01*
X0193292Y0076573D01*
X0193294Y0076404D01*
X0193292Y0076235D01*
X0193286Y0076066D01*
X0193275Y0075897D01*
X0193261Y0075729D01*
X0193242Y0075561D01*
X0193219Y0075393D01*
X0193193Y0075226D01*
X0193162Y0075060D01*
X0193127Y0074894D01*
X0193088Y0074730D01*
X0193044Y0074566D01*
X0192997Y0074404D01*
X0192946Y0074243D01*
X0192891Y0074083D01*
X0192832Y0073924D01*
X0192770Y0073767D01*
X0192703Y0073612D01*
X0192632Y0073458D01*
X0192558Y0073306D01*
X0192480Y0073156D01*
X0192399Y0073008D01*
X0192314Y0072862D01*
X0192225Y0072718D01*
X0192133Y0072576D01*
X0192037Y0072437D01*
X0191938Y0072300D01*
X0191836Y0072165D01*
X0191730Y0072033D01*
X0191621Y0071904D01*
X0191509Y0071777D01*
X0191394Y0071653D01*
X0191276Y0071532D01*
X0191155Y0071414D01*
X0191031Y0071299D01*
X0190904Y0071187D01*
X0190775Y0071078D01*
X0190643Y0070972D01*
X0190508Y0070870D01*
X0190371Y0070771D01*
X0190232Y0070675D01*
X0190090Y0070583D01*
X0189946Y0070494D01*
X0189800Y0070409D01*
X0189652Y0070328D01*
X0189502Y0070250D01*
X0189350Y0070176D01*
X0189196Y0070105D01*
X0189041Y0070038D01*
X0188884Y0069976D01*
X0188725Y0069917D01*
X0188565Y0069862D01*
X0188404Y0069811D01*
X0188242Y0069764D01*
X0188078Y0069720D01*
X0187914Y0069681D01*
X0187748Y0069646D01*
X0187582Y0069615D01*
X0187415Y0069589D01*
X0187247Y0069566D01*
X0187079Y0069547D01*
X0186911Y0069533D01*
X0186742Y0069522D01*
X0186573Y0069516D01*
X0186404Y0069514D01*
X0186235Y0069516D01*
X0186066Y0069522D01*
X0185897Y0069533D01*
X0185729Y0069547D01*
X0185561Y0069566D01*
X0185393Y0069589D01*
X0185226Y0069615D01*
X0185060Y0069646D01*
X0184894Y0069681D01*
X0184730Y0069720D01*
X0184566Y0069764D01*
X0184404Y0069811D01*
X0184243Y0069862D01*
X0184083Y0069917D01*
X0183924Y0069976D01*
X0183767Y0070038D01*
X0183612Y0070105D01*
X0183458Y0070176D01*
X0183306Y0070250D01*
X0183156Y0070328D01*
X0183008Y0070409D01*
X0182862Y0070494D01*
X0182718Y0070583D01*
X0182576Y0070675D01*
X0182437Y0070771D01*
X0182300Y0070870D01*
X0182165Y0070972D01*
X0182033Y0071078D01*
X0181904Y0071187D01*
X0181777Y0071299D01*
X0181653Y0071414D01*
X0181532Y0071532D01*
X0181414Y0071653D01*
X0181299Y0071777D01*
X0181187Y0071904D01*
X0181078Y0072033D01*
X0180972Y0072165D01*
X0180870Y0072300D01*
X0180771Y0072437D01*
X0180675Y0072576D01*
X0180583Y0072718D01*
X0180494Y0072862D01*
X0180409Y0073008D01*
X0180328Y0073156D01*
X0180250Y0073306D01*
X0180176Y0073458D01*
X0180105Y0073612D01*
X0180038Y0073767D01*
X0179976Y0073924D01*
X0179917Y0074083D01*
X0179862Y0074243D01*
X0179811Y0074404D01*
X0179764Y0074566D01*
X0179720Y0074730D01*
X0179681Y0074894D01*
X0179646Y0075060D01*
X0179615Y0075226D01*
X0179589Y0075393D01*
X0179566Y0075561D01*
X0179547Y0075729D01*
X0179533Y0075897D01*
X0179522Y0076066D01*
X0179516Y0076235D01*
X0179514Y0076404D01*
D17*
X0127939Y0132801D03*
D18*
X0128037Y0139354D03*
X0125479Y0139354D03*
X0122920Y0139354D03*
X0120361Y0139354D03*
X0117802Y0139354D03*
X0115243Y0139354D03*
X0112683Y0139354D03*
X0110124Y0139354D03*
X0107565Y0139354D03*
X0105006Y0139354D03*
X0102446Y0139354D03*
X0099887Y0139354D03*
X0097328Y0139354D03*
X0094770Y0139354D03*
X0094770Y0113454D03*
X0097328Y0113454D03*
X0099887Y0113454D03*
X0102446Y0113454D03*
X0105006Y0113454D03*
X0107565Y0113454D03*
X0110124Y0113454D03*
X0112683Y0113454D03*
X0115243Y0113454D03*
X0117802Y0113454D03*
X0120361Y0113454D03*
X0122920Y0113454D03*
X0125479Y0113454D03*
X0128037Y0113454D03*
D19*
X0166150Y0134904D02*
X0166150Y0136405D01*
X0166900Y0137156D01*
X0169903Y0137156D01*
X0170654Y0136405D01*
X0170654Y0134904D01*
X0169903Y0134154D01*
X0166900Y0134154D01*
X0166150Y0134904D01*
X0169152Y0135655D02*
X0170654Y0137156D01*
X0170654Y0138757D02*
X0170654Y0141760D01*
X0170654Y0140259D02*
X0166150Y0140259D01*
X0167651Y0138757D01*
X0142004Y0153804D02*
X0130804Y0153804D01*
X0130804Y0159004D01*
X0142004Y0159004D01*
X0142004Y0153804D01*
X0161404Y0164041D02*
X0160616Y0165616D01*
X0162191Y0165616D01*
X0161404Y0164041D01*
X0161404Y0169159D01*
X0162191Y0167585D01*
X0160616Y0167585D01*
X0161404Y0169159D01*
X0127004Y0173804D02*
X0115804Y0173804D01*
X0115804Y0179004D01*
X0127004Y0179004D01*
X0127004Y0173804D01*
X0227821Y0143293D02*
X0227821Y0134238D01*
X0293569Y0143293D02*
X0322309Y0143293D01*
X0322309Y0080301D01*
X0293569Y0080301D01*
X0227821Y0080301D02*
X0227821Y0086994D01*
D20*
X0157116Y0163578D02*
X0157116Y0164479D01*
X0157567Y0164479D01*
X0157717Y0164329D01*
X0157717Y0164029D01*
X0157567Y0163879D01*
X0157116Y0163879D01*
X0158037Y0164029D02*
X0158187Y0163879D01*
X0158638Y0163879D01*
X0158958Y0163879D02*
X0159408Y0163879D01*
X0159558Y0164029D01*
X0159558Y0164329D01*
X0159408Y0164479D01*
X0158958Y0164479D01*
X0158958Y0164780D02*
X0158958Y0163879D01*
X0158638Y0164479D02*
X0158187Y0164479D01*
X0158037Y0164329D01*
X0158037Y0164029D01*
X0158341Y0165650D02*
X0158191Y0165801D01*
X0158191Y0166101D01*
X0158341Y0166251D01*
X0158641Y0166251D01*
X0158791Y0166101D01*
X0158791Y0165801D01*
X0158641Y0165650D01*
X0158341Y0165650D01*
X0157727Y0165650D02*
X0157727Y0166401D01*
X0157877Y0166551D01*
X0157877Y0166101D02*
X0157577Y0166101D01*
X0156336Y0166101D02*
X0156336Y0165650D01*
X0156336Y0166101D02*
X0156185Y0166251D01*
X0155735Y0166251D01*
X0155735Y0165650D01*
X0155415Y0165801D02*
X0155415Y0166101D01*
X0155265Y0166251D01*
X0154964Y0166251D01*
X0154814Y0166101D01*
X0154814Y0165801D01*
X0154964Y0165650D01*
X0155265Y0165650D01*
X0155415Y0165801D01*
X0154501Y0165650D02*
X0154200Y0165650D01*
X0154351Y0165650D02*
X0154351Y0166251D01*
X0154200Y0166251D01*
X0153887Y0166251D02*
X0153587Y0166251D01*
X0153737Y0166401D02*
X0153737Y0165801D01*
X0153887Y0165650D01*
X0153266Y0165650D02*
X0152816Y0165650D01*
X0152666Y0165801D01*
X0152816Y0165951D01*
X0153266Y0165951D01*
X0153266Y0166101D02*
X0153266Y0165650D01*
X0153266Y0166101D02*
X0153116Y0166251D01*
X0152816Y0166251D01*
X0152352Y0166251D02*
X0152052Y0166251D01*
X0152202Y0166401D02*
X0152202Y0165801D01*
X0152352Y0165650D01*
X0151735Y0166251D02*
X0151585Y0166251D01*
X0151285Y0165951D01*
X0151285Y0166251D02*
X0151285Y0165650D01*
X0150964Y0165801D02*
X0150964Y0166101D01*
X0150814Y0166251D01*
X0150514Y0166251D01*
X0150364Y0166101D01*
X0150364Y0165801D01*
X0150514Y0165650D01*
X0150814Y0165650D01*
X0150964Y0165801D01*
X0150044Y0165801D02*
X0149894Y0165650D01*
X0149443Y0165650D01*
X0149443Y0165350D02*
X0149443Y0166251D01*
X0149894Y0166251D01*
X0150044Y0166101D01*
X0150044Y0165801D01*
X0149123Y0165801D02*
X0148973Y0165951D01*
X0148672Y0165951D01*
X0148522Y0166101D01*
X0148672Y0166251D01*
X0149123Y0166251D01*
X0149123Y0165801D02*
X0148973Y0165650D01*
X0148522Y0165650D01*
X0148202Y0165650D02*
X0148202Y0166101D01*
X0148052Y0166251D01*
X0147602Y0166251D01*
X0147602Y0165650D01*
X0147281Y0165650D02*
X0146831Y0165650D01*
X0146681Y0165801D01*
X0146831Y0165951D01*
X0147281Y0165951D01*
X0147281Y0166101D02*
X0147281Y0165650D01*
X0147281Y0166101D02*
X0147131Y0166251D01*
X0146831Y0166251D01*
X0146364Y0166251D02*
X0146214Y0166251D01*
X0145913Y0165951D01*
X0145913Y0166251D02*
X0145913Y0165650D01*
X0145600Y0165650D02*
X0145450Y0165801D01*
X0145450Y0166401D01*
X0145300Y0166251D02*
X0145600Y0166251D01*
X0146677Y0164479D02*
X0147128Y0164479D01*
X0147128Y0164780D02*
X0147128Y0163879D01*
X0146677Y0163879D01*
X0146527Y0164029D01*
X0146527Y0164329D01*
X0146677Y0164479D01*
X0147448Y0164479D02*
X0147598Y0164479D01*
X0147598Y0163879D01*
X0147448Y0163879D02*
X0147748Y0163879D01*
X0148062Y0163879D02*
X0148062Y0164479D01*
X0148062Y0164179D02*
X0148362Y0164479D01*
X0148512Y0164479D01*
X0148829Y0164329D02*
X0148979Y0164479D01*
X0149280Y0164479D01*
X0149430Y0164329D01*
X0149430Y0164179D01*
X0148829Y0164179D01*
X0148829Y0164029D02*
X0148829Y0164329D01*
X0148829Y0164029D02*
X0148979Y0163879D01*
X0149280Y0163879D01*
X0149750Y0164029D02*
X0149900Y0163879D01*
X0150351Y0163879D01*
X0150821Y0164029D02*
X0150971Y0163879D01*
X0150821Y0164029D02*
X0150821Y0164629D01*
X0150671Y0164479D02*
X0150971Y0164479D01*
X0151285Y0164479D02*
X0151435Y0164479D01*
X0151435Y0163879D01*
X0151285Y0163879D02*
X0151585Y0163879D01*
X0151899Y0164029D02*
X0152049Y0163879D01*
X0152349Y0163879D01*
X0152499Y0164029D01*
X0152499Y0164329D01*
X0152349Y0164479D01*
X0152049Y0164479D01*
X0151899Y0164329D01*
X0151899Y0164029D01*
X0151435Y0164780D02*
X0151435Y0164930D01*
X0150351Y0164479D02*
X0149900Y0164479D01*
X0149750Y0164329D01*
X0149750Y0164029D01*
X0147598Y0164780D02*
X0147598Y0164930D01*
X0148826Y0167422D02*
X0148976Y0167572D01*
X0149126Y0167422D01*
X0149276Y0167572D01*
X0149276Y0168023D01*
X0149747Y0168023D02*
X0150047Y0168023D01*
X0150197Y0167872D01*
X0150197Y0167422D01*
X0149747Y0167422D01*
X0149597Y0167572D01*
X0149747Y0167722D01*
X0150197Y0167722D01*
X0150517Y0168023D02*
X0150818Y0167422D01*
X0151118Y0168023D01*
X0151438Y0167872D02*
X0151588Y0168023D01*
X0151889Y0168023D01*
X0152039Y0167872D01*
X0152039Y0167722D01*
X0151438Y0167722D01*
X0151438Y0167572D02*
X0151438Y0167872D01*
X0151438Y0167572D02*
X0151588Y0167422D01*
X0151889Y0167422D01*
X0152359Y0167422D02*
X0152809Y0167422D01*
X0152959Y0167572D01*
X0152809Y0167722D01*
X0152509Y0167722D01*
X0152359Y0167872D01*
X0152509Y0168023D01*
X0152959Y0168023D01*
X0153280Y0167872D02*
X0153280Y0167572D01*
X0153430Y0167422D01*
X0153730Y0167422D01*
X0153880Y0167572D01*
X0153880Y0167872D01*
X0153730Y0168023D01*
X0153430Y0168023D01*
X0153280Y0167872D01*
X0154201Y0167422D02*
X0154501Y0167422D01*
X0154351Y0167422D02*
X0154351Y0168323D01*
X0154201Y0168323D01*
X0154814Y0167872D02*
X0154964Y0168023D01*
X0155415Y0168023D01*
X0155415Y0168323D02*
X0155415Y0167422D01*
X0154964Y0167422D01*
X0154814Y0167572D01*
X0154814Y0167872D01*
X0155735Y0167872D02*
X0155885Y0168023D01*
X0156186Y0168023D01*
X0156336Y0167872D01*
X0156336Y0167722D01*
X0155735Y0167722D01*
X0155735Y0167572D02*
X0155735Y0167872D01*
X0155735Y0167572D02*
X0155885Y0167422D01*
X0156186Y0167422D01*
X0156656Y0167422D02*
X0156656Y0168023D01*
X0156956Y0168023D02*
X0157106Y0168023D01*
X0156956Y0168023D02*
X0156656Y0167722D01*
X0157423Y0167422D02*
X0157723Y0167422D01*
X0157573Y0167422D02*
X0157573Y0168023D01*
X0157423Y0168023D01*
X0157573Y0168323D02*
X0157573Y0168473D01*
X0158037Y0168023D02*
X0158487Y0168023D01*
X0158638Y0167872D01*
X0158638Y0167422D01*
X0158958Y0167572D02*
X0159108Y0167422D01*
X0159558Y0167422D01*
X0159558Y0167272D02*
X0159558Y0168023D01*
X0159108Y0168023D01*
X0158958Y0167872D01*
X0158958Y0167572D01*
X0159258Y0167122D02*
X0159408Y0167122D01*
X0159558Y0167272D01*
X0159562Y0166251D02*
X0159412Y0166251D01*
X0159111Y0165951D01*
X0159111Y0166251D02*
X0159111Y0165650D01*
X0158037Y0167422D02*
X0158037Y0168023D01*
X0155882Y0164780D02*
X0155732Y0164629D01*
X0155732Y0163879D01*
X0155582Y0164329D02*
X0155882Y0164329D01*
X0155261Y0164329D02*
X0155111Y0164479D01*
X0154811Y0164479D01*
X0154661Y0164329D01*
X0154661Y0164029D01*
X0154811Y0163879D01*
X0155111Y0163879D01*
X0155261Y0164029D01*
X0155261Y0164329D01*
X0153420Y0164329D02*
X0153420Y0163879D01*
X0153420Y0164329D02*
X0153270Y0164479D01*
X0152819Y0164479D01*
X0152819Y0163879D01*
X0154351Y0166551D02*
X0154351Y0166701D01*
X0148826Y0167422D02*
X0148676Y0167572D01*
X0148676Y0168023D01*
D21*
X0161404Y0155654D03*
X0161404Y0155654D03*
D22*
X0161404Y0177154D03*
X0161404Y0177154D03*
X0152304Y0177154D03*
X0152304Y0177154D03*
X0170504Y0177154D03*
X0170504Y0177154D03*
D23*
X0066442Y0130294D03*
X0066442Y0122494D03*
D24*
X0074041Y0125813D03*
X0078766Y0125813D03*
X0094041Y0084494D03*
X0098766Y0084494D03*
X0114041Y0084494D03*
X0118766Y0084494D03*
X0184041Y0135813D03*
X0188766Y0135813D03*
D25*
X0186404Y0135813D03*
X0116404Y0084494D03*
X0096404Y0084494D03*
X0076404Y0125813D03*
D26*
X0076404Y0123451D03*
X0076404Y0129356D03*
X0096404Y0086856D03*
X0096404Y0080951D03*
X0116404Y0080951D03*
X0116404Y0086856D03*
X0186404Y0133451D03*
X0186404Y0139356D03*
D27*
X0258524Y0176398D03*
X0264324Y0176398D03*
X0104324Y0156398D03*
X0098524Y0156398D03*
X0069283Y0141409D03*
X0063483Y0141409D03*
X0153524Y0071398D03*
X0159324Y0071398D03*
X0111824Y0066398D03*
X0106024Y0066398D03*
X0094324Y0066398D03*
X0088524Y0066398D03*
X0233524Y0061398D03*
X0239324Y0061398D03*
X0253483Y0066409D03*
X0259283Y0066409D03*
X0278483Y0066409D03*
X0284283Y0066409D03*
X0284283Y0051409D03*
X0278483Y0051409D03*
X0259283Y0051409D03*
X0253483Y0051409D03*
D28*
X0211409Y0083524D03*
X0211409Y0089324D03*
X0201398Y0133483D03*
X0201398Y0139283D03*
X0246409Y0158524D03*
X0246409Y0164324D03*
X0271409Y0164324D03*
X0271409Y0158524D03*
X0286409Y0158524D03*
X0286409Y0164324D03*
X0136398Y0173483D03*
X0136398Y0179283D03*
X0121409Y0159324D03*
X0121409Y0153524D03*
X0116398Y0101783D03*
X0116398Y0095983D03*
X0096398Y0095983D03*
X0096398Y0101783D03*
D29*
X0132704Y0152454D03*
X0140104Y0152454D03*
X0136404Y0160354D03*
X0121404Y0172454D03*
X0125104Y0180354D03*
X0117704Y0180354D03*
D30*
X0297506Y0130695D02*
X0297506Y0105104D01*
X0305380Y0105104D02*
X0305380Y0109435D01*
X0319159Y0109435D01*
X0319159Y0113766D01*
X0304986Y0113766D01*
X0304986Y0118490D01*
X0319159Y0118490D01*
X0319159Y0123215D01*
X0304986Y0123215D01*
X0304986Y0127152D01*
X0319553Y0127152D01*
X0319553Y0130695D01*
X0300262Y0130695D01*
X0299868Y0130695D02*
X0297506Y0130695D01*
X0305380Y0105104D02*
X0319159Y0105104D01*
X0319159Y0089356D01*
D31*
X0266915Y0034612D02*
X0145892Y0034612D01*
X0145892Y0023195D01*
X0266915Y0023195D01*
X0266915Y0034612D01*
X0146915Y0034612D02*
X0146915Y0023195D01*
X0105892Y0023195D01*
X0105892Y0034612D01*
X0146915Y0034612D01*
M02*
