G75*
%MOIN*%
%OFA0B0*%
%FSLAX25Y25*%
%IPPOS*%
%LPD*%
%AMOC8*
5,1,8,0,0,1.08239X$1,22.5*
%
%ADD10C,0.00000*%
%ADD11C,0.07087*%
%ADD12C,0.00807*%
%ADD13C,0.04000*%
%ADD14C,0.03962*%
%ADD15C,0.01000*%
%ADD16C,0.02400*%
D10*
X0021404Y0011404D02*
X0021404Y0196364D01*
X0295104Y0196364D01*
X0295104Y0011404D01*
X0021404Y0011404D01*
X0030892Y0026404D02*
X0030894Y0026552D01*
X0030900Y0026700D01*
X0030910Y0026848D01*
X0030924Y0026995D01*
X0030942Y0027142D01*
X0030963Y0027288D01*
X0030989Y0027434D01*
X0031019Y0027579D01*
X0031052Y0027723D01*
X0031090Y0027866D01*
X0031131Y0028008D01*
X0031176Y0028149D01*
X0031224Y0028289D01*
X0031277Y0028428D01*
X0031333Y0028565D01*
X0031393Y0028700D01*
X0031456Y0028834D01*
X0031523Y0028966D01*
X0031594Y0029096D01*
X0031668Y0029224D01*
X0031745Y0029350D01*
X0031826Y0029474D01*
X0031910Y0029596D01*
X0031997Y0029715D01*
X0032088Y0029832D01*
X0032182Y0029947D01*
X0032278Y0030059D01*
X0032378Y0030169D01*
X0032480Y0030275D01*
X0032586Y0030379D01*
X0032694Y0030480D01*
X0032805Y0030578D01*
X0032918Y0030674D01*
X0033034Y0030766D01*
X0033152Y0030855D01*
X0033273Y0030940D01*
X0033396Y0031023D01*
X0033521Y0031102D01*
X0033648Y0031178D01*
X0033777Y0031250D01*
X0033908Y0031319D01*
X0034041Y0031384D01*
X0034176Y0031445D01*
X0034312Y0031503D01*
X0034449Y0031558D01*
X0034588Y0031608D01*
X0034729Y0031655D01*
X0034870Y0031698D01*
X0035013Y0031738D01*
X0035157Y0031773D01*
X0035301Y0031805D01*
X0035447Y0031832D01*
X0035593Y0031856D01*
X0035740Y0031876D01*
X0035887Y0031892D01*
X0036034Y0031904D01*
X0036182Y0031912D01*
X0036330Y0031916D01*
X0036478Y0031916D01*
X0036626Y0031912D01*
X0036774Y0031904D01*
X0036921Y0031892D01*
X0037068Y0031876D01*
X0037215Y0031856D01*
X0037361Y0031832D01*
X0037507Y0031805D01*
X0037651Y0031773D01*
X0037795Y0031738D01*
X0037938Y0031698D01*
X0038079Y0031655D01*
X0038220Y0031608D01*
X0038359Y0031558D01*
X0038496Y0031503D01*
X0038632Y0031445D01*
X0038767Y0031384D01*
X0038900Y0031319D01*
X0039031Y0031250D01*
X0039160Y0031178D01*
X0039287Y0031102D01*
X0039412Y0031023D01*
X0039535Y0030940D01*
X0039656Y0030855D01*
X0039774Y0030766D01*
X0039890Y0030674D01*
X0040003Y0030578D01*
X0040114Y0030480D01*
X0040222Y0030379D01*
X0040328Y0030275D01*
X0040430Y0030169D01*
X0040530Y0030059D01*
X0040626Y0029947D01*
X0040720Y0029832D01*
X0040811Y0029715D01*
X0040898Y0029596D01*
X0040982Y0029474D01*
X0041063Y0029350D01*
X0041140Y0029224D01*
X0041214Y0029096D01*
X0041285Y0028966D01*
X0041352Y0028834D01*
X0041415Y0028700D01*
X0041475Y0028565D01*
X0041531Y0028428D01*
X0041584Y0028289D01*
X0041632Y0028149D01*
X0041677Y0028008D01*
X0041718Y0027866D01*
X0041756Y0027723D01*
X0041789Y0027579D01*
X0041819Y0027434D01*
X0041845Y0027288D01*
X0041866Y0027142D01*
X0041884Y0026995D01*
X0041898Y0026848D01*
X0041908Y0026700D01*
X0041914Y0026552D01*
X0041916Y0026404D01*
X0041914Y0026256D01*
X0041908Y0026108D01*
X0041898Y0025960D01*
X0041884Y0025813D01*
X0041866Y0025666D01*
X0041845Y0025520D01*
X0041819Y0025374D01*
X0041789Y0025229D01*
X0041756Y0025085D01*
X0041718Y0024942D01*
X0041677Y0024800D01*
X0041632Y0024659D01*
X0041584Y0024519D01*
X0041531Y0024380D01*
X0041475Y0024243D01*
X0041415Y0024108D01*
X0041352Y0023974D01*
X0041285Y0023842D01*
X0041214Y0023712D01*
X0041140Y0023584D01*
X0041063Y0023458D01*
X0040982Y0023334D01*
X0040898Y0023212D01*
X0040811Y0023093D01*
X0040720Y0022976D01*
X0040626Y0022861D01*
X0040530Y0022749D01*
X0040430Y0022639D01*
X0040328Y0022533D01*
X0040222Y0022429D01*
X0040114Y0022328D01*
X0040003Y0022230D01*
X0039890Y0022134D01*
X0039774Y0022042D01*
X0039656Y0021953D01*
X0039535Y0021868D01*
X0039412Y0021785D01*
X0039287Y0021706D01*
X0039160Y0021630D01*
X0039031Y0021558D01*
X0038900Y0021489D01*
X0038767Y0021424D01*
X0038632Y0021363D01*
X0038496Y0021305D01*
X0038359Y0021250D01*
X0038220Y0021200D01*
X0038079Y0021153D01*
X0037938Y0021110D01*
X0037795Y0021070D01*
X0037651Y0021035D01*
X0037507Y0021003D01*
X0037361Y0020976D01*
X0037215Y0020952D01*
X0037068Y0020932D01*
X0036921Y0020916D01*
X0036774Y0020904D01*
X0036626Y0020896D01*
X0036478Y0020892D01*
X0036330Y0020892D01*
X0036182Y0020896D01*
X0036034Y0020904D01*
X0035887Y0020916D01*
X0035740Y0020932D01*
X0035593Y0020952D01*
X0035447Y0020976D01*
X0035301Y0021003D01*
X0035157Y0021035D01*
X0035013Y0021070D01*
X0034870Y0021110D01*
X0034729Y0021153D01*
X0034588Y0021200D01*
X0034449Y0021250D01*
X0034312Y0021305D01*
X0034176Y0021363D01*
X0034041Y0021424D01*
X0033908Y0021489D01*
X0033777Y0021558D01*
X0033648Y0021630D01*
X0033521Y0021706D01*
X0033396Y0021785D01*
X0033273Y0021868D01*
X0033152Y0021953D01*
X0033034Y0022042D01*
X0032918Y0022134D01*
X0032805Y0022230D01*
X0032694Y0022328D01*
X0032586Y0022429D01*
X0032480Y0022533D01*
X0032378Y0022639D01*
X0032278Y0022749D01*
X0032182Y0022861D01*
X0032088Y0022976D01*
X0031997Y0023093D01*
X0031910Y0023212D01*
X0031826Y0023334D01*
X0031745Y0023458D01*
X0031668Y0023584D01*
X0031594Y0023712D01*
X0031523Y0023842D01*
X0031456Y0023974D01*
X0031393Y0024108D01*
X0031333Y0024243D01*
X0031277Y0024380D01*
X0031224Y0024519D01*
X0031176Y0024659D01*
X0031131Y0024800D01*
X0031090Y0024942D01*
X0031052Y0025085D01*
X0031019Y0025229D01*
X0030989Y0025374D01*
X0030963Y0025520D01*
X0030942Y0025666D01*
X0030924Y0025813D01*
X0030910Y0025960D01*
X0030900Y0026108D01*
X0030894Y0026256D01*
X0030892Y0026404D01*
X0039632Y0102742D02*
X0039634Y0102826D01*
X0039640Y0102909D01*
X0039650Y0102992D01*
X0039664Y0103075D01*
X0039681Y0103157D01*
X0039703Y0103238D01*
X0039728Y0103317D01*
X0039757Y0103396D01*
X0039790Y0103473D01*
X0039826Y0103548D01*
X0039866Y0103622D01*
X0039909Y0103694D01*
X0039956Y0103763D01*
X0040006Y0103830D01*
X0040059Y0103895D01*
X0040115Y0103957D01*
X0040173Y0104017D01*
X0040235Y0104074D01*
X0040299Y0104127D01*
X0040366Y0104178D01*
X0040435Y0104225D01*
X0040506Y0104270D01*
X0040579Y0104310D01*
X0040654Y0104347D01*
X0040731Y0104381D01*
X0040809Y0104411D01*
X0040888Y0104437D01*
X0040969Y0104460D01*
X0041051Y0104478D01*
X0041133Y0104493D01*
X0041216Y0104504D01*
X0041299Y0104511D01*
X0041383Y0104514D01*
X0041467Y0104513D01*
X0041550Y0104508D01*
X0041634Y0104499D01*
X0041716Y0104486D01*
X0041798Y0104470D01*
X0041879Y0104449D01*
X0041960Y0104425D01*
X0042038Y0104397D01*
X0042116Y0104365D01*
X0042192Y0104329D01*
X0042266Y0104290D01*
X0042338Y0104248D01*
X0042408Y0104202D01*
X0042476Y0104153D01*
X0042541Y0104101D01*
X0042604Y0104046D01*
X0042664Y0103988D01*
X0042722Y0103927D01*
X0042776Y0103863D01*
X0042828Y0103797D01*
X0042876Y0103729D01*
X0042921Y0103658D01*
X0042962Y0103585D01*
X0043001Y0103511D01*
X0043035Y0103435D01*
X0043066Y0103357D01*
X0043093Y0103278D01*
X0043117Y0103197D01*
X0043136Y0103116D01*
X0043152Y0103034D01*
X0043164Y0102951D01*
X0043172Y0102867D01*
X0043176Y0102784D01*
X0043176Y0102700D01*
X0043172Y0102617D01*
X0043164Y0102533D01*
X0043152Y0102450D01*
X0043136Y0102368D01*
X0043117Y0102287D01*
X0043093Y0102206D01*
X0043066Y0102127D01*
X0043035Y0102049D01*
X0043001Y0101973D01*
X0042962Y0101899D01*
X0042921Y0101826D01*
X0042876Y0101755D01*
X0042828Y0101687D01*
X0042776Y0101621D01*
X0042722Y0101557D01*
X0042664Y0101496D01*
X0042604Y0101438D01*
X0042541Y0101383D01*
X0042476Y0101331D01*
X0042408Y0101282D01*
X0042338Y0101236D01*
X0042266Y0101194D01*
X0042192Y0101155D01*
X0042116Y0101119D01*
X0042038Y0101087D01*
X0041960Y0101059D01*
X0041879Y0101035D01*
X0041798Y0101014D01*
X0041716Y0100998D01*
X0041634Y0100985D01*
X0041550Y0100976D01*
X0041467Y0100971D01*
X0041383Y0100970D01*
X0041299Y0100973D01*
X0041216Y0100980D01*
X0041133Y0100991D01*
X0041051Y0101006D01*
X0040969Y0101024D01*
X0040888Y0101047D01*
X0040809Y0101073D01*
X0040731Y0101103D01*
X0040654Y0101137D01*
X0040579Y0101174D01*
X0040506Y0101214D01*
X0040435Y0101259D01*
X0040366Y0101306D01*
X0040299Y0101357D01*
X0040235Y0101410D01*
X0040173Y0101467D01*
X0040115Y0101527D01*
X0040059Y0101589D01*
X0040006Y0101654D01*
X0039956Y0101721D01*
X0039909Y0101790D01*
X0039866Y0101862D01*
X0039826Y0101936D01*
X0039790Y0102011D01*
X0039757Y0102088D01*
X0039728Y0102167D01*
X0039703Y0102246D01*
X0039681Y0102327D01*
X0039664Y0102409D01*
X0039650Y0102492D01*
X0039640Y0102575D01*
X0039634Y0102658D01*
X0039632Y0102742D01*
X0039632Y0120065D02*
X0039634Y0120149D01*
X0039640Y0120232D01*
X0039650Y0120315D01*
X0039664Y0120398D01*
X0039681Y0120480D01*
X0039703Y0120561D01*
X0039728Y0120640D01*
X0039757Y0120719D01*
X0039790Y0120796D01*
X0039826Y0120871D01*
X0039866Y0120945D01*
X0039909Y0121017D01*
X0039956Y0121086D01*
X0040006Y0121153D01*
X0040059Y0121218D01*
X0040115Y0121280D01*
X0040173Y0121340D01*
X0040235Y0121397D01*
X0040299Y0121450D01*
X0040366Y0121501D01*
X0040435Y0121548D01*
X0040506Y0121593D01*
X0040579Y0121633D01*
X0040654Y0121670D01*
X0040731Y0121704D01*
X0040809Y0121734D01*
X0040888Y0121760D01*
X0040969Y0121783D01*
X0041051Y0121801D01*
X0041133Y0121816D01*
X0041216Y0121827D01*
X0041299Y0121834D01*
X0041383Y0121837D01*
X0041467Y0121836D01*
X0041550Y0121831D01*
X0041634Y0121822D01*
X0041716Y0121809D01*
X0041798Y0121793D01*
X0041879Y0121772D01*
X0041960Y0121748D01*
X0042038Y0121720D01*
X0042116Y0121688D01*
X0042192Y0121652D01*
X0042266Y0121613D01*
X0042338Y0121571D01*
X0042408Y0121525D01*
X0042476Y0121476D01*
X0042541Y0121424D01*
X0042604Y0121369D01*
X0042664Y0121311D01*
X0042722Y0121250D01*
X0042776Y0121186D01*
X0042828Y0121120D01*
X0042876Y0121052D01*
X0042921Y0120981D01*
X0042962Y0120908D01*
X0043001Y0120834D01*
X0043035Y0120758D01*
X0043066Y0120680D01*
X0043093Y0120601D01*
X0043117Y0120520D01*
X0043136Y0120439D01*
X0043152Y0120357D01*
X0043164Y0120274D01*
X0043172Y0120190D01*
X0043176Y0120107D01*
X0043176Y0120023D01*
X0043172Y0119940D01*
X0043164Y0119856D01*
X0043152Y0119773D01*
X0043136Y0119691D01*
X0043117Y0119610D01*
X0043093Y0119529D01*
X0043066Y0119450D01*
X0043035Y0119372D01*
X0043001Y0119296D01*
X0042962Y0119222D01*
X0042921Y0119149D01*
X0042876Y0119078D01*
X0042828Y0119010D01*
X0042776Y0118944D01*
X0042722Y0118880D01*
X0042664Y0118819D01*
X0042604Y0118761D01*
X0042541Y0118706D01*
X0042476Y0118654D01*
X0042408Y0118605D01*
X0042338Y0118559D01*
X0042266Y0118517D01*
X0042192Y0118478D01*
X0042116Y0118442D01*
X0042038Y0118410D01*
X0041960Y0118382D01*
X0041879Y0118358D01*
X0041798Y0118337D01*
X0041716Y0118321D01*
X0041634Y0118308D01*
X0041550Y0118299D01*
X0041467Y0118294D01*
X0041383Y0118293D01*
X0041299Y0118296D01*
X0041216Y0118303D01*
X0041133Y0118314D01*
X0041051Y0118329D01*
X0040969Y0118347D01*
X0040888Y0118370D01*
X0040809Y0118396D01*
X0040731Y0118426D01*
X0040654Y0118460D01*
X0040579Y0118497D01*
X0040506Y0118537D01*
X0040435Y0118582D01*
X0040366Y0118629D01*
X0040299Y0118680D01*
X0040235Y0118733D01*
X0040173Y0118790D01*
X0040115Y0118850D01*
X0040059Y0118912D01*
X0040006Y0118977D01*
X0039956Y0119044D01*
X0039909Y0119113D01*
X0039866Y0119185D01*
X0039826Y0119259D01*
X0039790Y0119334D01*
X0039757Y0119411D01*
X0039728Y0119490D01*
X0039703Y0119569D01*
X0039681Y0119650D01*
X0039664Y0119732D01*
X0039650Y0119815D01*
X0039640Y0119898D01*
X0039634Y0119981D01*
X0039632Y0120065D01*
X0030892Y0181404D02*
X0030894Y0181552D01*
X0030900Y0181700D01*
X0030910Y0181848D01*
X0030924Y0181995D01*
X0030942Y0182142D01*
X0030963Y0182288D01*
X0030989Y0182434D01*
X0031019Y0182579D01*
X0031052Y0182723D01*
X0031090Y0182866D01*
X0031131Y0183008D01*
X0031176Y0183149D01*
X0031224Y0183289D01*
X0031277Y0183428D01*
X0031333Y0183565D01*
X0031393Y0183700D01*
X0031456Y0183834D01*
X0031523Y0183966D01*
X0031594Y0184096D01*
X0031668Y0184224D01*
X0031745Y0184350D01*
X0031826Y0184474D01*
X0031910Y0184596D01*
X0031997Y0184715D01*
X0032088Y0184832D01*
X0032182Y0184947D01*
X0032278Y0185059D01*
X0032378Y0185169D01*
X0032480Y0185275D01*
X0032586Y0185379D01*
X0032694Y0185480D01*
X0032805Y0185578D01*
X0032918Y0185674D01*
X0033034Y0185766D01*
X0033152Y0185855D01*
X0033273Y0185940D01*
X0033396Y0186023D01*
X0033521Y0186102D01*
X0033648Y0186178D01*
X0033777Y0186250D01*
X0033908Y0186319D01*
X0034041Y0186384D01*
X0034176Y0186445D01*
X0034312Y0186503D01*
X0034449Y0186558D01*
X0034588Y0186608D01*
X0034729Y0186655D01*
X0034870Y0186698D01*
X0035013Y0186738D01*
X0035157Y0186773D01*
X0035301Y0186805D01*
X0035447Y0186832D01*
X0035593Y0186856D01*
X0035740Y0186876D01*
X0035887Y0186892D01*
X0036034Y0186904D01*
X0036182Y0186912D01*
X0036330Y0186916D01*
X0036478Y0186916D01*
X0036626Y0186912D01*
X0036774Y0186904D01*
X0036921Y0186892D01*
X0037068Y0186876D01*
X0037215Y0186856D01*
X0037361Y0186832D01*
X0037507Y0186805D01*
X0037651Y0186773D01*
X0037795Y0186738D01*
X0037938Y0186698D01*
X0038079Y0186655D01*
X0038220Y0186608D01*
X0038359Y0186558D01*
X0038496Y0186503D01*
X0038632Y0186445D01*
X0038767Y0186384D01*
X0038900Y0186319D01*
X0039031Y0186250D01*
X0039160Y0186178D01*
X0039287Y0186102D01*
X0039412Y0186023D01*
X0039535Y0185940D01*
X0039656Y0185855D01*
X0039774Y0185766D01*
X0039890Y0185674D01*
X0040003Y0185578D01*
X0040114Y0185480D01*
X0040222Y0185379D01*
X0040328Y0185275D01*
X0040430Y0185169D01*
X0040530Y0185059D01*
X0040626Y0184947D01*
X0040720Y0184832D01*
X0040811Y0184715D01*
X0040898Y0184596D01*
X0040982Y0184474D01*
X0041063Y0184350D01*
X0041140Y0184224D01*
X0041214Y0184096D01*
X0041285Y0183966D01*
X0041352Y0183834D01*
X0041415Y0183700D01*
X0041475Y0183565D01*
X0041531Y0183428D01*
X0041584Y0183289D01*
X0041632Y0183149D01*
X0041677Y0183008D01*
X0041718Y0182866D01*
X0041756Y0182723D01*
X0041789Y0182579D01*
X0041819Y0182434D01*
X0041845Y0182288D01*
X0041866Y0182142D01*
X0041884Y0181995D01*
X0041898Y0181848D01*
X0041908Y0181700D01*
X0041914Y0181552D01*
X0041916Y0181404D01*
X0041914Y0181256D01*
X0041908Y0181108D01*
X0041898Y0180960D01*
X0041884Y0180813D01*
X0041866Y0180666D01*
X0041845Y0180520D01*
X0041819Y0180374D01*
X0041789Y0180229D01*
X0041756Y0180085D01*
X0041718Y0179942D01*
X0041677Y0179800D01*
X0041632Y0179659D01*
X0041584Y0179519D01*
X0041531Y0179380D01*
X0041475Y0179243D01*
X0041415Y0179108D01*
X0041352Y0178974D01*
X0041285Y0178842D01*
X0041214Y0178712D01*
X0041140Y0178584D01*
X0041063Y0178458D01*
X0040982Y0178334D01*
X0040898Y0178212D01*
X0040811Y0178093D01*
X0040720Y0177976D01*
X0040626Y0177861D01*
X0040530Y0177749D01*
X0040430Y0177639D01*
X0040328Y0177533D01*
X0040222Y0177429D01*
X0040114Y0177328D01*
X0040003Y0177230D01*
X0039890Y0177134D01*
X0039774Y0177042D01*
X0039656Y0176953D01*
X0039535Y0176868D01*
X0039412Y0176785D01*
X0039287Y0176706D01*
X0039160Y0176630D01*
X0039031Y0176558D01*
X0038900Y0176489D01*
X0038767Y0176424D01*
X0038632Y0176363D01*
X0038496Y0176305D01*
X0038359Y0176250D01*
X0038220Y0176200D01*
X0038079Y0176153D01*
X0037938Y0176110D01*
X0037795Y0176070D01*
X0037651Y0176035D01*
X0037507Y0176003D01*
X0037361Y0175976D01*
X0037215Y0175952D01*
X0037068Y0175932D01*
X0036921Y0175916D01*
X0036774Y0175904D01*
X0036626Y0175896D01*
X0036478Y0175892D01*
X0036330Y0175892D01*
X0036182Y0175896D01*
X0036034Y0175904D01*
X0035887Y0175916D01*
X0035740Y0175932D01*
X0035593Y0175952D01*
X0035447Y0175976D01*
X0035301Y0176003D01*
X0035157Y0176035D01*
X0035013Y0176070D01*
X0034870Y0176110D01*
X0034729Y0176153D01*
X0034588Y0176200D01*
X0034449Y0176250D01*
X0034312Y0176305D01*
X0034176Y0176363D01*
X0034041Y0176424D01*
X0033908Y0176489D01*
X0033777Y0176558D01*
X0033648Y0176630D01*
X0033521Y0176706D01*
X0033396Y0176785D01*
X0033273Y0176868D01*
X0033152Y0176953D01*
X0033034Y0177042D01*
X0032918Y0177134D01*
X0032805Y0177230D01*
X0032694Y0177328D01*
X0032586Y0177429D01*
X0032480Y0177533D01*
X0032378Y0177639D01*
X0032278Y0177749D01*
X0032182Y0177861D01*
X0032088Y0177976D01*
X0031997Y0178093D01*
X0031910Y0178212D01*
X0031826Y0178334D01*
X0031745Y0178458D01*
X0031668Y0178584D01*
X0031594Y0178712D01*
X0031523Y0178842D01*
X0031456Y0178974D01*
X0031393Y0179108D01*
X0031333Y0179243D01*
X0031277Y0179380D01*
X0031224Y0179519D01*
X0031176Y0179659D01*
X0031131Y0179800D01*
X0031090Y0179942D01*
X0031052Y0180085D01*
X0031019Y0180229D01*
X0030989Y0180374D01*
X0030963Y0180520D01*
X0030942Y0180666D01*
X0030924Y0180813D01*
X0030910Y0180960D01*
X0030900Y0181108D01*
X0030894Y0181256D01*
X0030892Y0181404D01*
X0275892Y0181404D02*
X0275894Y0181552D01*
X0275900Y0181700D01*
X0275910Y0181848D01*
X0275924Y0181995D01*
X0275942Y0182142D01*
X0275963Y0182288D01*
X0275989Y0182434D01*
X0276019Y0182579D01*
X0276052Y0182723D01*
X0276090Y0182866D01*
X0276131Y0183008D01*
X0276176Y0183149D01*
X0276224Y0183289D01*
X0276277Y0183428D01*
X0276333Y0183565D01*
X0276393Y0183700D01*
X0276456Y0183834D01*
X0276523Y0183966D01*
X0276594Y0184096D01*
X0276668Y0184224D01*
X0276745Y0184350D01*
X0276826Y0184474D01*
X0276910Y0184596D01*
X0276997Y0184715D01*
X0277088Y0184832D01*
X0277182Y0184947D01*
X0277278Y0185059D01*
X0277378Y0185169D01*
X0277480Y0185275D01*
X0277586Y0185379D01*
X0277694Y0185480D01*
X0277805Y0185578D01*
X0277918Y0185674D01*
X0278034Y0185766D01*
X0278152Y0185855D01*
X0278273Y0185940D01*
X0278396Y0186023D01*
X0278521Y0186102D01*
X0278648Y0186178D01*
X0278777Y0186250D01*
X0278908Y0186319D01*
X0279041Y0186384D01*
X0279176Y0186445D01*
X0279312Y0186503D01*
X0279449Y0186558D01*
X0279588Y0186608D01*
X0279729Y0186655D01*
X0279870Y0186698D01*
X0280013Y0186738D01*
X0280157Y0186773D01*
X0280301Y0186805D01*
X0280447Y0186832D01*
X0280593Y0186856D01*
X0280740Y0186876D01*
X0280887Y0186892D01*
X0281034Y0186904D01*
X0281182Y0186912D01*
X0281330Y0186916D01*
X0281478Y0186916D01*
X0281626Y0186912D01*
X0281774Y0186904D01*
X0281921Y0186892D01*
X0282068Y0186876D01*
X0282215Y0186856D01*
X0282361Y0186832D01*
X0282507Y0186805D01*
X0282651Y0186773D01*
X0282795Y0186738D01*
X0282938Y0186698D01*
X0283079Y0186655D01*
X0283220Y0186608D01*
X0283359Y0186558D01*
X0283496Y0186503D01*
X0283632Y0186445D01*
X0283767Y0186384D01*
X0283900Y0186319D01*
X0284031Y0186250D01*
X0284160Y0186178D01*
X0284287Y0186102D01*
X0284412Y0186023D01*
X0284535Y0185940D01*
X0284656Y0185855D01*
X0284774Y0185766D01*
X0284890Y0185674D01*
X0285003Y0185578D01*
X0285114Y0185480D01*
X0285222Y0185379D01*
X0285328Y0185275D01*
X0285430Y0185169D01*
X0285530Y0185059D01*
X0285626Y0184947D01*
X0285720Y0184832D01*
X0285811Y0184715D01*
X0285898Y0184596D01*
X0285982Y0184474D01*
X0286063Y0184350D01*
X0286140Y0184224D01*
X0286214Y0184096D01*
X0286285Y0183966D01*
X0286352Y0183834D01*
X0286415Y0183700D01*
X0286475Y0183565D01*
X0286531Y0183428D01*
X0286584Y0183289D01*
X0286632Y0183149D01*
X0286677Y0183008D01*
X0286718Y0182866D01*
X0286756Y0182723D01*
X0286789Y0182579D01*
X0286819Y0182434D01*
X0286845Y0182288D01*
X0286866Y0182142D01*
X0286884Y0181995D01*
X0286898Y0181848D01*
X0286908Y0181700D01*
X0286914Y0181552D01*
X0286916Y0181404D01*
X0286914Y0181256D01*
X0286908Y0181108D01*
X0286898Y0180960D01*
X0286884Y0180813D01*
X0286866Y0180666D01*
X0286845Y0180520D01*
X0286819Y0180374D01*
X0286789Y0180229D01*
X0286756Y0180085D01*
X0286718Y0179942D01*
X0286677Y0179800D01*
X0286632Y0179659D01*
X0286584Y0179519D01*
X0286531Y0179380D01*
X0286475Y0179243D01*
X0286415Y0179108D01*
X0286352Y0178974D01*
X0286285Y0178842D01*
X0286214Y0178712D01*
X0286140Y0178584D01*
X0286063Y0178458D01*
X0285982Y0178334D01*
X0285898Y0178212D01*
X0285811Y0178093D01*
X0285720Y0177976D01*
X0285626Y0177861D01*
X0285530Y0177749D01*
X0285430Y0177639D01*
X0285328Y0177533D01*
X0285222Y0177429D01*
X0285114Y0177328D01*
X0285003Y0177230D01*
X0284890Y0177134D01*
X0284774Y0177042D01*
X0284656Y0176953D01*
X0284535Y0176868D01*
X0284412Y0176785D01*
X0284287Y0176706D01*
X0284160Y0176630D01*
X0284031Y0176558D01*
X0283900Y0176489D01*
X0283767Y0176424D01*
X0283632Y0176363D01*
X0283496Y0176305D01*
X0283359Y0176250D01*
X0283220Y0176200D01*
X0283079Y0176153D01*
X0282938Y0176110D01*
X0282795Y0176070D01*
X0282651Y0176035D01*
X0282507Y0176003D01*
X0282361Y0175976D01*
X0282215Y0175952D01*
X0282068Y0175932D01*
X0281921Y0175916D01*
X0281774Y0175904D01*
X0281626Y0175896D01*
X0281478Y0175892D01*
X0281330Y0175892D01*
X0281182Y0175896D01*
X0281034Y0175904D01*
X0280887Y0175916D01*
X0280740Y0175932D01*
X0280593Y0175952D01*
X0280447Y0175976D01*
X0280301Y0176003D01*
X0280157Y0176035D01*
X0280013Y0176070D01*
X0279870Y0176110D01*
X0279729Y0176153D01*
X0279588Y0176200D01*
X0279449Y0176250D01*
X0279312Y0176305D01*
X0279176Y0176363D01*
X0279041Y0176424D01*
X0278908Y0176489D01*
X0278777Y0176558D01*
X0278648Y0176630D01*
X0278521Y0176706D01*
X0278396Y0176785D01*
X0278273Y0176868D01*
X0278152Y0176953D01*
X0278034Y0177042D01*
X0277918Y0177134D01*
X0277805Y0177230D01*
X0277694Y0177328D01*
X0277586Y0177429D01*
X0277480Y0177533D01*
X0277378Y0177639D01*
X0277278Y0177749D01*
X0277182Y0177861D01*
X0277088Y0177976D01*
X0276997Y0178093D01*
X0276910Y0178212D01*
X0276826Y0178334D01*
X0276745Y0178458D01*
X0276668Y0178584D01*
X0276594Y0178712D01*
X0276523Y0178842D01*
X0276456Y0178974D01*
X0276393Y0179108D01*
X0276333Y0179243D01*
X0276277Y0179380D01*
X0276224Y0179519D01*
X0276176Y0179659D01*
X0276131Y0179800D01*
X0276090Y0179942D01*
X0276052Y0180085D01*
X0276019Y0180229D01*
X0275989Y0180374D01*
X0275963Y0180520D01*
X0275942Y0180666D01*
X0275924Y0180813D01*
X0275910Y0180960D01*
X0275900Y0181108D01*
X0275894Y0181256D01*
X0275892Y0181404D01*
X0275892Y0026404D02*
X0275894Y0026552D01*
X0275900Y0026700D01*
X0275910Y0026848D01*
X0275924Y0026995D01*
X0275942Y0027142D01*
X0275963Y0027288D01*
X0275989Y0027434D01*
X0276019Y0027579D01*
X0276052Y0027723D01*
X0276090Y0027866D01*
X0276131Y0028008D01*
X0276176Y0028149D01*
X0276224Y0028289D01*
X0276277Y0028428D01*
X0276333Y0028565D01*
X0276393Y0028700D01*
X0276456Y0028834D01*
X0276523Y0028966D01*
X0276594Y0029096D01*
X0276668Y0029224D01*
X0276745Y0029350D01*
X0276826Y0029474D01*
X0276910Y0029596D01*
X0276997Y0029715D01*
X0277088Y0029832D01*
X0277182Y0029947D01*
X0277278Y0030059D01*
X0277378Y0030169D01*
X0277480Y0030275D01*
X0277586Y0030379D01*
X0277694Y0030480D01*
X0277805Y0030578D01*
X0277918Y0030674D01*
X0278034Y0030766D01*
X0278152Y0030855D01*
X0278273Y0030940D01*
X0278396Y0031023D01*
X0278521Y0031102D01*
X0278648Y0031178D01*
X0278777Y0031250D01*
X0278908Y0031319D01*
X0279041Y0031384D01*
X0279176Y0031445D01*
X0279312Y0031503D01*
X0279449Y0031558D01*
X0279588Y0031608D01*
X0279729Y0031655D01*
X0279870Y0031698D01*
X0280013Y0031738D01*
X0280157Y0031773D01*
X0280301Y0031805D01*
X0280447Y0031832D01*
X0280593Y0031856D01*
X0280740Y0031876D01*
X0280887Y0031892D01*
X0281034Y0031904D01*
X0281182Y0031912D01*
X0281330Y0031916D01*
X0281478Y0031916D01*
X0281626Y0031912D01*
X0281774Y0031904D01*
X0281921Y0031892D01*
X0282068Y0031876D01*
X0282215Y0031856D01*
X0282361Y0031832D01*
X0282507Y0031805D01*
X0282651Y0031773D01*
X0282795Y0031738D01*
X0282938Y0031698D01*
X0283079Y0031655D01*
X0283220Y0031608D01*
X0283359Y0031558D01*
X0283496Y0031503D01*
X0283632Y0031445D01*
X0283767Y0031384D01*
X0283900Y0031319D01*
X0284031Y0031250D01*
X0284160Y0031178D01*
X0284287Y0031102D01*
X0284412Y0031023D01*
X0284535Y0030940D01*
X0284656Y0030855D01*
X0284774Y0030766D01*
X0284890Y0030674D01*
X0285003Y0030578D01*
X0285114Y0030480D01*
X0285222Y0030379D01*
X0285328Y0030275D01*
X0285430Y0030169D01*
X0285530Y0030059D01*
X0285626Y0029947D01*
X0285720Y0029832D01*
X0285811Y0029715D01*
X0285898Y0029596D01*
X0285982Y0029474D01*
X0286063Y0029350D01*
X0286140Y0029224D01*
X0286214Y0029096D01*
X0286285Y0028966D01*
X0286352Y0028834D01*
X0286415Y0028700D01*
X0286475Y0028565D01*
X0286531Y0028428D01*
X0286584Y0028289D01*
X0286632Y0028149D01*
X0286677Y0028008D01*
X0286718Y0027866D01*
X0286756Y0027723D01*
X0286789Y0027579D01*
X0286819Y0027434D01*
X0286845Y0027288D01*
X0286866Y0027142D01*
X0286884Y0026995D01*
X0286898Y0026848D01*
X0286908Y0026700D01*
X0286914Y0026552D01*
X0286916Y0026404D01*
X0286914Y0026256D01*
X0286908Y0026108D01*
X0286898Y0025960D01*
X0286884Y0025813D01*
X0286866Y0025666D01*
X0286845Y0025520D01*
X0286819Y0025374D01*
X0286789Y0025229D01*
X0286756Y0025085D01*
X0286718Y0024942D01*
X0286677Y0024800D01*
X0286632Y0024659D01*
X0286584Y0024519D01*
X0286531Y0024380D01*
X0286475Y0024243D01*
X0286415Y0024108D01*
X0286352Y0023974D01*
X0286285Y0023842D01*
X0286214Y0023712D01*
X0286140Y0023584D01*
X0286063Y0023458D01*
X0285982Y0023334D01*
X0285898Y0023212D01*
X0285811Y0023093D01*
X0285720Y0022976D01*
X0285626Y0022861D01*
X0285530Y0022749D01*
X0285430Y0022639D01*
X0285328Y0022533D01*
X0285222Y0022429D01*
X0285114Y0022328D01*
X0285003Y0022230D01*
X0284890Y0022134D01*
X0284774Y0022042D01*
X0284656Y0021953D01*
X0284535Y0021868D01*
X0284412Y0021785D01*
X0284287Y0021706D01*
X0284160Y0021630D01*
X0284031Y0021558D01*
X0283900Y0021489D01*
X0283767Y0021424D01*
X0283632Y0021363D01*
X0283496Y0021305D01*
X0283359Y0021250D01*
X0283220Y0021200D01*
X0283079Y0021153D01*
X0282938Y0021110D01*
X0282795Y0021070D01*
X0282651Y0021035D01*
X0282507Y0021003D01*
X0282361Y0020976D01*
X0282215Y0020952D01*
X0282068Y0020932D01*
X0281921Y0020916D01*
X0281774Y0020904D01*
X0281626Y0020896D01*
X0281478Y0020892D01*
X0281330Y0020892D01*
X0281182Y0020896D01*
X0281034Y0020904D01*
X0280887Y0020916D01*
X0280740Y0020932D01*
X0280593Y0020952D01*
X0280447Y0020976D01*
X0280301Y0021003D01*
X0280157Y0021035D01*
X0280013Y0021070D01*
X0279870Y0021110D01*
X0279729Y0021153D01*
X0279588Y0021200D01*
X0279449Y0021250D01*
X0279312Y0021305D01*
X0279176Y0021363D01*
X0279041Y0021424D01*
X0278908Y0021489D01*
X0278777Y0021558D01*
X0278648Y0021630D01*
X0278521Y0021706D01*
X0278396Y0021785D01*
X0278273Y0021868D01*
X0278152Y0021953D01*
X0278034Y0022042D01*
X0277918Y0022134D01*
X0277805Y0022230D01*
X0277694Y0022328D01*
X0277586Y0022429D01*
X0277480Y0022533D01*
X0277378Y0022639D01*
X0277278Y0022749D01*
X0277182Y0022861D01*
X0277088Y0022976D01*
X0276997Y0023093D01*
X0276910Y0023212D01*
X0276826Y0023334D01*
X0276745Y0023458D01*
X0276668Y0023584D01*
X0276594Y0023712D01*
X0276523Y0023842D01*
X0276456Y0023974D01*
X0276393Y0024108D01*
X0276333Y0024243D01*
X0276277Y0024380D01*
X0276224Y0024519D01*
X0276176Y0024659D01*
X0276131Y0024800D01*
X0276090Y0024942D01*
X0276052Y0025085D01*
X0276019Y0025229D01*
X0275989Y0025374D01*
X0275963Y0025520D01*
X0275942Y0025666D01*
X0275924Y0025813D01*
X0275910Y0025960D01*
X0275900Y0026108D01*
X0275894Y0026256D01*
X0275892Y0026404D01*
D11*
X0261404Y0025360D02*
X0261404Y0032447D01*
X0251404Y0032447D02*
X0251404Y0025360D01*
X0241404Y0025360D02*
X0241404Y0032447D01*
X0231404Y0032447D02*
X0231404Y0025360D01*
X0221404Y0025360D02*
X0221404Y0032447D01*
X0211404Y0032447D02*
X0211404Y0025360D01*
X0201404Y0025360D02*
X0201404Y0032447D01*
X0191404Y0032447D02*
X0191404Y0025360D01*
X0181404Y0025360D02*
X0181404Y0032447D01*
X0171404Y0032447D02*
X0171404Y0025360D01*
X0161404Y0025360D02*
X0161404Y0032447D01*
X0151404Y0032447D02*
X0151404Y0025360D01*
X0141404Y0025360D02*
X0141404Y0032447D01*
X0131404Y0032447D02*
X0131404Y0025360D01*
X0121404Y0025360D02*
X0121404Y0032447D01*
X0111404Y0032447D02*
X0111404Y0025360D01*
D12*
X0107041Y0023488D02*
X0045928Y0023488D01*
X0046262Y0024293D02*
X0106708Y0024293D01*
X0106657Y0024416D02*
X0107379Y0022671D01*
X0108715Y0021336D01*
X0110459Y0020613D01*
X0112348Y0020613D01*
X0114092Y0021336D01*
X0115428Y0022671D01*
X0116150Y0024416D01*
X0116150Y0033391D01*
X0115428Y0035136D01*
X0115236Y0035327D01*
X0116609Y0036700D01*
X0117607Y0037698D01*
X0117607Y0042842D01*
X0117718Y0042888D01*
X0118619Y0043789D01*
X0119107Y0044966D01*
X0119107Y0046241D01*
X0118619Y0047418D01*
X0117718Y0048319D01*
X0116541Y0048807D01*
X0115266Y0048807D01*
X0114089Y0048319D01*
X0113188Y0047418D01*
X0112700Y0046241D01*
X0112700Y0044966D01*
X0113188Y0043789D01*
X0114089Y0042888D01*
X0114200Y0042842D01*
X0114200Y0039109D01*
X0112285Y0037194D01*
X0110459Y0037194D01*
X0108715Y0036471D01*
X0107379Y0035136D01*
X0106657Y0033391D01*
X0106657Y0024416D01*
X0106657Y0025099D02*
X0046319Y0025099D01*
X0046319Y0024431D02*
X0044809Y0020787D01*
X0042020Y0017998D01*
X0038376Y0016488D01*
X0034431Y0016488D01*
X0030787Y0017998D01*
X0027998Y0020787D01*
X0026488Y0024431D01*
X0026488Y0028376D01*
X0027998Y0032020D01*
X0030787Y0034809D01*
X0034431Y0036319D01*
X0038376Y0036319D01*
X0042020Y0034809D01*
X0044809Y0032020D01*
X0046319Y0028376D01*
X0046319Y0024431D01*
X0046319Y0025904D02*
X0106657Y0025904D01*
X0106657Y0026710D02*
X0046319Y0026710D01*
X0046319Y0027516D02*
X0106657Y0027516D01*
X0106657Y0028321D02*
X0046319Y0028321D01*
X0046008Y0029127D02*
X0106657Y0029127D01*
X0106657Y0029932D02*
X0045674Y0029932D01*
X0045340Y0030738D02*
X0106657Y0030738D01*
X0106657Y0031543D02*
X0045007Y0031543D01*
X0044480Y0032349D02*
X0106657Y0032349D01*
X0106657Y0033155D02*
X0043675Y0033155D01*
X0042869Y0033960D02*
X0106892Y0033960D01*
X0107226Y0034766D02*
X0042064Y0034766D01*
X0040180Y0035571D02*
X0107815Y0035571D01*
X0108621Y0036377D02*
X0025807Y0036377D01*
X0025807Y0035571D02*
X0032627Y0035571D01*
X0030743Y0034766D02*
X0025807Y0034766D01*
X0025807Y0033960D02*
X0029938Y0033960D01*
X0029132Y0033155D02*
X0025807Y0033155D01*
X0025807Y0032349D02*
X0028327Y0032349D01*
X0027800Y0031543D02*
X0025807Y0031543D01*
X0025807Y0030738D02*
X0027467Y0030738D01*
X0027133Y0029932D02*
X0025807Y0029932D01*
X0025807Y0029127D02*
X0026799Y0029127D01*
X0026488Y0028321D02*
X0025807Y0028321D01*
X0025807Y0027516D02*
X0026488Y0027516D01*
X0026488Y0026710D02*
X0025807Y0026710D01*
X0025807Y0025904D02*
X0026488Y0025904D01*
X0026488Y0025099D02*
X0025807Y0025099D01*
X0025807Y0024293D02*
X0026545Y0024293D01*
X0026879Y0023488D02*
X0025807Y0023488D01*
X0025807Y0022682D02*
X0027213Y0022682D01*
X0027546Y0021876D02*
X0025807Y0021876D01*
X0025807Y0021071D02*
X0027880Y0021071D01*
X0028520Y0020265D02*
X0025807Y0020265D01*
X0025807Y0019460D02*
X0029325Y0019460D01*
X0030131Y0018654D02*
X0025807Y0018654D01*
X0025807Y0017848D02*
X0031148Y0017848D01*
X0033092Y0017043D02*
X0025807Y0017043D01*
X0025807Y0016237D02*
X0216661Y0016237D01*
X0217091Y0015807D02*
X0025807Y0015807D01*
X0025807Y0191961D01*
X0290701Y0191961D01*
X0290701Y0184868D01*
X0289809Y0187020D01*
X0287020Y0189809D01*
X0283376Y0191319D01*
X0279431Y0191319D01*
X0275787Y0189809D01*
X0272998Y0187020D01*
X0271488Y0183376D01*
X0271488Y0179431D01*
X0272998Y0175787D01*
X0275787Y0172998D01*
X0279431Y0171488D01*
X0283376Y0171488D01*
X0287020Y0172998D01*
X0289809Y0175787D01*
X0290701Y0177939D01*
X0290701Y0029868D01*
X0289809Y0032020D01*
X0287020Y0034809D01*
X0283376Y0036319D01*
X0279431Y0036319D01*
X0275787Y0034809D01*
X0272998Y0032020D01*
X0271488Y0028376D01*
X0271488Y0024431D01*
X0272998Y0020787D01*
X0275787Y0017998D01*
X0279431Y0016488D01*
X0283376Y0016488D01*
X0287020Y0017998D01*
X0289809Y0020787D01*
X0290701Y0022939D01*
X0290701Y0015807D01*
X0264916Y0015807D01*
X0269609Y0020500D01*
X0270607Y0021498D01*
X0270607Y0048849D01*
X0270966Y0048700D01*
X0272241Y0048700D01*
X0273418Y0049188D01*
X0274319Y0050089D01*
X0274807Y0051266D01*
X0274807Y0052541D01*
X0274761Y0052652D01*
X0276255Y0054146D01*
X0276366Y0054100D01*
X0277641Y0054100D01*
X0278818Y0054588D01*
X0279719Y0055489D01*
X0280207Y0056666D01*
X0280207Y0057941D01*
X0279719Y0059118D01*
X0278818Y0060019D01*
X0278707Y0060065D01*
X0278707Y0162169D01*
X0279718Y0162588D01*
X0280619Y0163489D01*
X0281107Y0164666D01*
X0281107Y0165941D01*
X0280619Y0167118D01*
X0279718Y0168019D01*
X0278541Y0168507D01*
X0277266Y0168507D01*
X0276089Y0168019D01*
X0275188Y0167118D01*
X0274769Y0166107D01*
X0264465Y0166107D01*
X0264419Y0166218D01*
X0263518Y0167119D01*
X0262341Y0167607D01*
X0261066Y0167607D01*
X0260955Y0167561D01*
X0244161Y0184355D01*
X0244207Y0184466D01*
X0244207Y0185741D01*
X0243719Y0186918D01*
X0242818Y0187819D01*
X0241641Y0188307D01*
X0240366Y0188307D01*
X0239189Y0187819D01*
X0238288Y0186918D01*
X0237800Y0185741D01*
X0237800Y0184466D01*
X0238288Y0183289D01*
X0239189Y0182388D01*
X0240366Y0181900D01*
X0241641Y0181900D01*
X0241752Y0181946D01*
X0258546Y0165152D01*
X0258500Y0165041D01*
X0258500Y0163766D01*
X0258988Y0162589D01*
X0259889Y0161688D01*
X0261066Y0161200D01*
X0262341Y0161200D01*
X0263518Y0161688D01*
X0264419Y0162589D01*
X0264465Y0162700D01*
X0275300Y0162700D01*
X0275300Y0060065D01*
X0275189Y0060019D01*
X0274288Y0059118D01*
X0273800Y0057941D01*
X0273800Y0056666D01*
X0273846Y0056555D01*
X0272352Y0055061D01*
X0272241Y0055107D01*
X0270966Y0055107D01*
X0269789Y0054619D01*
X0268888Y0053718D01*
X0268807Y0053523D01*
X0268807Y0062509D01*
X0240561Y0090755D01*
X0240607Y0090866D01*
X0240607Y0091900D01*
X0241641Y0091900D01*
X0242818Y0092388D01*
X0243719Y0093289D01*
X0244207Y0094466D01*
X0244207Y0095741D01*
X0243719Y0096918D01*
X0242818Y0097819D01*
X0241641Y0098307D01*
X0240366Y0098307D01*
X0240255Y0098261D01*
X0233707Y0104809D01*
X0232709Y0105807D01*
X0214838Y0105807D01*
X0214919Y0105889D01*
X0215407Y0107066D01*
X0215407Y0108341D01*
X0215361Y0108452D01*
X0233955Y0127046D01*
X0234066Y0127000D01*
X0235341Y0127000D01*
X0236518Y0127488D01*
X0237419Y0128389D01*
X0237907Y0129566D01*
X0237907Y0130841D01*
X0237419Y0132018D01*
X0236518Y0132919D01*
X0235341Y0133407D01*
X0234066Y0133407D01*
X0232889Y0132919D01*
X0231988Y0132018D01*
X0231500Y0130841D01*
X0231500Y0129566D01*
X0231546Y0129455D01*
X0212952Y0110861D01*
X0212841Y0110907D01*
X0211566Y0110907D01*
X0210389Y0110419D01*
X0209488Y0109518D01*
X0209000Y0108341D01*
X0209000Y0107066D01*
X0209488Y0105889D01*
X0209570Y0105807D01*
X0204809Y0105807D01*
X0191961Y0118655D01*
X0192007Y0118766D01*
X0192007Y0120041D01*
X0191519Y0121218D01*
X0190618Y0122119D01*
X0189441Y0122607D01*
X0188166Y0122607D01*
X0188055Y0122561D01*
X0147861Y0162755D01*
X0147907Y0162866D01*
X0147907Y0164141D01*
X0147419Y0165318D01*
X0146518Y0166219D01*
X0145341Y0166707D01*
X0144066Y0166707D01*
X0142889Y0166219D01*
X0141988Y0165318D01*
X0141500Y0164141D01*
X0141500Y0162866D01*
X0141773Y0162207D01*
X0141366Y0162207D01*
X0140189Y0161719D01*
X0139288Y0160818D01*
X0138800Y0159641D01*
X0138800Y0158366D01*
X0139288Y0157189D01*
X0140189Y0156288D01*
X0141366Y0155800D01*
X0142641Y0155800D01*
X0143818Y0156288D01*
X0143964Y0156434D01*
X0209600Y0090798D01*
X0209600Y0090798D01*
X0210598Y0089800D01*
X0234642Y0089800D01*
X0234688Y0089689D01*
X0235589Y0088788D01*
X0236766Y0088300D01*
X0238041Y0088300D01*
X0238152Y0088346D01*
X0263291Y0063207D01*
X0262866Y0063207D01*
X0261689Y0062719D01*
X0260788Y0061818D01*
X0260300Y0060641D01*
X0260300Y0059366D01*
X0260346Y0059255D01*
X0243898Y0042807D01*
X0238109Y0042807D01*
X0138209Y0142707D01*
X0135765Y0142707D01*
X0135719Y0142818D01*
X0134818Y0143719D01*
X0133641Y0144207D01*
X0132366Y0144207D01*
X0131189Y0143719D01*
X0130288Y0142818D01*
X0129800Y0141641D01*
X0129800Y0140366D01*
X0130288Y0139189D01*
X0131189Y0138288D01*
X0132366Y0137800D01*
X0133641Y0137800D01*
X0134818Y0138288D01*
X0135719Y0139189D01*
X0135765Y0139300D01*
X0136798Y0139300D01*
X0233591Y0042507D01*
X0233166Y0042507D01*
X0231989Y0042019D01*
X0231877Y0041907D01*
X0206098Y0041907D01*
X0201385Y0037194D01*
X0200459Y0037194D01*
X0198715Y0036471D01*
X0197379Y0035136D01*
X0196657Y0033391D01*
X0196657Y0024416D01*
X0197379Y0022671D01*
X0198715Y0021336D01*
X0200459Y0020613D01*
X0202348Y0020613D01*
X0204092Y0021336D01*
X0205428Y0022671D01*
X0206150Y0024416D01*
X0206150Y0033391D01*
X0205428Y0035136D01*
X0204786Y0035777D01*
X0207509Y0038500D01*
X0230669Y0038500D01*
X0231088Y0037489D01*
X0231383Y0037194D01*
X0230459Y0037194D01*
X0228715Y0036471D01*
X0227379Y0035136D01*
X0226657Y0033391D01*
X0226657Y0024416D01*
X0227379Y0022671D01*
X0228715Y0021336D01*
X0230459Y0020613D01*
X0232348Y0020613D01*
X0234092Y0021336D01*
X0235428Y0022671D01*
X0236150Y0024416D01*
X0236150Y0033391D01*
X0235428Y0035136D01*
X0234457Y0036107D01*
X0235618Y0036588D01*
X0235764Y0036734D01*
X0237374Y0035124D01*
X0236657Y0033391D01*
X0236657Y0024416D01*
X0237379Y0022671D01*
X0238715Y0021336D01*
X0240459Y0020613D01*
X0242348Y0020613D01*
X0244092Y0021336D01*
X0245428Y0022671D01*
X0246150Y0024416D01*
X0246150Y0033391D01*
X0245428Y0035136D01*
X0244092Y0036471D01*
X0242348Y0037194D01*
X0240459Y0037194D01*
X0240221Y0037095D01*
X0239107Y0038209D01*
X0239107Y0039400D01*
X0245309Y0039400D01*
X0246307Y0040398D01*
X0262755Y0056846D01*
X0262866Y0056800D01*
X0264141Y0056800D01*
X0265318Y0057288D01*
X0265400Y0057370D01*
X0265400Y0050298D01*
X0266398Y0049300D01*
X0267200Y0048498D01*
X0267200Y0022909D01*
X0261898Y0017607D01*
X0220109Y0017607D01*
X0215236Y0022480D01*
X0215428Y0022671D01*
X0216150Y0024416D01*
X0216150Y0033391D01*
X0215428Y0035136D01*
X0214092Y0036471D01*
X0212348Y0037194D01*
X0210459Y0037194D01*
X0208715Y0036471D01*
X0207379Y0035136D01*
X0206657Y0033391D01*
X0206657Y0024416D01*
X0207379Y0022671D01*
X0208715Y0021336D01*
X0210459Y0020613D01*
X0212285Y0020613D01*
X0217091Y0015807D01*
X0215855Y0017043D02*
X0039715Y0017043D01*
X0041659Y0017848D02*
X0215050Y0017848D01*
X0214244Y0018654D02*
X0042676Y0018654D01*
X0043482Y0019460D02*
X0213438Y0019460D01*
X0212633Y0020265D02*
X0044288Y0020265D01*
X0044927Y0021071D02*
X0109355Y0021071D01*
X0108174Y0021876D02*
X0045261Y0021876D01*
X0045594Y0022682D02*
X0107375Y0022682D01*
X0113452Y0021071D02*
X0119355Y0021071D01*
X0118715Y0021336D02*
X0120459Y0020613D01*
X0122348Y0020613D01*
X0124092Y0021336D01*
X0125428Y0022671D01*
X0126150Y0024416D01*
X0126150Y0033391D01*
X0125428Y0035136D01*
X0125186Y0035377D01*
X0128309Y0038500D01*
X0132942Y0038500D01*
X0132988Y0038389D01*
X0133889Y0037488D01*
X0135066Y0037000D01*
X0136341Y0037000D01*
X0137518Y0037488D01*
X0138419Y0038389D01*
X0138907Y0039566D01*
X0138907Y0040841D01*
X0138419Y0042018D01*
X0137518Y0042919D01*
X0136341Y0043407D01*
X0135066Y0043407D01*
X0133889Y0042919D01*
X0132988Y0042018D01*
X0132942Y0041907D01*
X0126898Y0041907D01*
X0125900Y0040909D01*
X0122185Y0037194D01*
X0120459Y0037194D01*
X0118715Y0036471D01*
X0117379Y0035136D01*
X0116657Y0033391D01*
X0116657Y0024416D01*
X0117379Y0022671D01*
X0118715Y0021336D01*
X0118174Y0021876D02*
X0114633Y0021876D01*
X0115432Y0022682D02*
X0117375Y0022682D01*
X0117041Y0023488D02*
X0115766Y0023488D01*
X0116099Y0024293D02*
X0116708Y0024293D01*
X0116657Y0025099D02*
X0116150Y0025099D01*
X0116150Y0025904D02*
X0116657Y0025904D01*
X0116657Y0026710D02*
X0116150Y0026710D01*
X0116150Y0027516D02*
X0116657Y0027516D01*
X0116657Y0028321D02*
X0116150Y0028321D01*
X0116150Y0029127D02*
X0116657Y0029127D01*
X0116657Y0029932D02*
X0116150Y0029932D01*
X0116150Y0030738D02*
X0116657Y0030738D01*
X0116657Y0031543D02*
X0116150Y0031543D01*
X0116150Y0032349D02*
X0116657Y0032349D01*
X0116657Y0033155D02*
X0116150Y0033155D01*
X0115915Y0033960D02*
X0116892Y0033960D01*
X0117226Y0034766D02*
X0115581Y0034766D01*
X0115481Y0035571D02*
X0117815Y0035571D01*
X0118621Y0036377D02*
X0116286Y0036377D01*
X0117092Y0037183D02*
X0120433Y0037183D01*
X0122979Y0037988D02*
X0117607Y0037988D01*
X0117607Y0038794D02*
X0123785Y0038794D01*
X0124590Y0039599D02*
X0117607Y0039599D01*
X0117607Y0040405D02*
X0125396Y0040405D01*
X0126202Y0041211D02*
X0117607Y0041211D01*
X0117607Y0042016D02*
X0132987Y0042016D01*
X0133791Y0042822D02*
X0117607Y0042822D01*
X0118458Y0043627D02*
X0232470Y0043627D01*
X0233276Y0042822D02*
X0137616Y0042822D01*
X0138420Y0042016D02*
X0231986Y0042016D01*
X0231665Y0044433D02*
X0118886Y0044433D01*
X0119107Y0045239D02*
X0230859Y0045239D01*
X0230054Y0046044D02*
X0119107Y0046044D01*
X0118855Y0046850D02*
X0229248Y0046850D01*
X0228442Y0047655D02*
X0118382Y0047655D01*
X0117376Y0048461D02*
X0227637Y0048461D01*
X0226831Y0049267D02*
X0025807Y0049267D01*
X0025807Y0050072D02*
X0226026Y0050072D01*
X0225220Y0050878D02*
X0025807Y0050878D01*
X0025807Y0051683D02*
X0224414Y0051683D01*
X0223609Y0052489D02*
X0025807Y0052489D01*
X0025807Y0053295D02*
X0222803Y0053295D01*
X0221998Y0054100D02*
X0025807Y0054100D01*
X0025807Y0054906D02*
X0221192Y0054906D01*
X0220386Y0055711D02*
X0025807Y0055711D01*
X0025807Y0056517D02*
X0219581Y0056517D01*
X0218775Y0057323D02*
X0025807Y0057323D01*
X0025807Y0058128D02*
X0217970Y0058128D01*
X0217164Y0058934D02*
X0025807Y0058934D01*
X0025807Y0059739D02*
X0216358Y0059739D01*
X0215553Y0060545D02*
X0025807Y0060545D01*
X0025807Y0061351D02*
X0214747Y0061351D01*
X0213942Y0062156D02*
X0025807Y0062156D01*
X0025807Y0062962D02*
X0213136Y0062962D01*
X0212330Y0063767D02*
X0025807Y0063767D01*
X0025807Y0064573D02*
X0211525Y0064573D01*
X0210719Y0065379D02*
X0025807Y0065379D01*
X0025807Y0066184D02*
X0209914Y0066184D01*
X0209108Y0066990D02*
X0025807Y0066990D01*
X0025807Y0067795D02*
X0208303Y0067795D01*
X0207497Y0068601D02*
X0025807Y0068601D01*
X0025807Y0069407D02*
X0206691Y0069407D01*
X0205886Y0070212D02*
X0025807Y0070212D01*
X0025807Y0071018D02*
X0205080Y0071018D01*
X0204275Y0071823D02*
X0025807Y0071823D01*
X0025807Y0072629D02*
X0203469Y0072629D01*
X0202663Y0073435D02*
X0105890Y0073435D01*
X0106018Y0073488D02*
X0106919Y0074389D01*
X0107407Y0075566D01*
X0107407Y0076841D01*
X0106919Y0078018D01*
X0106018Y0078919D01*
X0105907Y0078965D01*
X0105907Y0097870D01*
X0105989Y0097788D01*
X0107166Y0097300D01*
X0108441Y0097300D01*
X0109618Y0097788D01*
X0110519Y0098689D01*
X0110565Y0098800D01*
X0118409Y0098800D01*
X0121455Y0101846D01*
X0121566Y0101800D01*
X0122600Y0101800D01*
X0122600Y0100766D01*
X0123088Y0099589D01*
X0123989Y0098688D01*
X0125166Y0098200D01*
X0126441Y0098200D01*
X0127618Y0098688D01*
X0128519Y0099589D01*
X0129007Y0100766D01*
X0129007Y0102041D01*
X0128519Y0103218D01*
X0127618Y0104119D01*
X0127507Y0104165D01*
X0127507Y0108409D01*
X0118161Y0117755D01*
X0118207Y0117866D01*
X0118207Y0119141D01*
X0117719Y0120318D01*
X0116818Y0121219D01*
X0115641Y0121707D01*
X0114366Y0121707D01*
X0113189Y0121219D01*
X0112288Y0120318D01*
X0111800Y0119141D01*
X0111800Y0117866D01*
X0112288Y0116689D01*
X0113189Y0115788D01*
X0114366Y0115300D01*
X0115641Y0115300D01*
X0115752Y0115346D01*
X0122926Y0108172D01*
X0122841Y0108207D01*
X0121566Y0108207D01*
X0120389Y0107719D01*
X0119488Y0106818D01*
X0119000Y0105641D01*
X0119000Y0104366D01*
X0119046Y0104255D01*
X0116998Y0102207D01*
X0112124Y0102207D01*
X0112318Y0102288D01*
X0113219Y0103189D01*
X0113707Y0104366D01*
X0113707Y0105641D01*
X0113219Y0106818D01*
X0112907Y0107130D01*
X0112907Y0107782D01*
X0112541Y0108665D01*
X0101955Y0119251D01*
X0104565Y0121767D01*
X0128696Y0144684D01*
X0128726Y0144696D01*
X0129042Y0145012D01*
X0129366Y0145320D01*
X0129379Y0145350D01*
X0129402Y0145372D01*
X0129573Y0145785D01*
X0129755Y0146194D01*
X0129755Y0146226D01*
X0129768Y0146256D01*
X0129768Y0146703D01*
X0129779Y0147150D01*
X0129768Y0147180D01*
X0129768Y0154401D01*
X0141424Y0167161D01*
X0149442Y0167161D01*
X0150326Y0167527D01*
X0151002Y0168203D01*
X0151199Y0168400D01*
X0151641Y0168400D01*
X0152818Y0168888D01*
X0153719Y0169789D01*
X0154207Y0170966D01*
X0154207Y0172241D01*
X0153719Y0173418D01*
X0152818Y0174319D01*
X0151641Y0174807D01*
X0150366Y0174807D01*
X0149189Y0174319D01*
X0148288Y0173418D01*
X0147800Y0172241D01*
X0147800Y0171968D01*
X0140786Y0171968D01*
X0140733Y0171987D01*
X0140310Y0171968D01*
X0139886Y0171968D01*
X0139834Y0171946D01*
X0139778Y0171944D01*
X0139394Y0171764D01*
X0139003Y0171602D01*
X0138963Y0171562D01*
X0138912Y0171538D01*
X0138626Y0171225D01*
X0138327Y0170926D01*
X0138305Y0170874D01*
X0125626Y0156995D01*
X0125327Y0156695D01*
X0125305Y0156643D01*
X0125267Y0156602D01*
X0125123Y0156203D01*
X0124961Y0155812D01*
X0124961Y0155756D01*
X0124941Y0155703D01*
X0124961Y0155280D01*
X0124961Y0147766D01*
X0124507Y0147335D01*
X0124507Y0147941D01*
X0124019Y0149118D01*
X0123118Y0150019D01*
X0121941Y0150507D01*
X0120666Y0150507D01*
X0120555Y0150461D01*
X0119309Y0151707D01*
X0110565Y0151707D01*
X0110519Y0151818D01*
X0109618Y0152719D01*
X0108441Y0153207D01*
X0107166Y0153207D01*
X0105989Y0152719D01*
X0105088Y0151818D01*
X0104600Y0150641D01*
X0104600Y0149366D01*
X0105088Y0148189D01*
X0105989Y0147288D01*
X0106100Y0147242D01*
X0106100Y0137465D01*
X0105989Y0137419D01*
X0105088Y0136518D01*
X0104600Y0135341D01*
X0104600Y0134066D01*
X0105088Y0132889D01*
X0105989Y0131988D01*
X0107166Y0131500D01*
X0107833Y0131500D01*
X0101588Y0125569D01*
X0101580Y0125566D01*
X0101241Y0125239D01*
X0100902Y0124917D01*
X0100898Y0124909D01*
X0099119Y0123194D01*
X0098819Y0123918D01*
X0097918Y0124819D01*
X0096741Y0125307D01*
X0095466Y0125307D01*
X0094289Y0124819D01*
X0093388Y0123918D01*
X0092900Y0122741D01*
X0092900Y0121466D01*
X0093388Y0120289D01*
X0094289Y0119388D01*
X0095466Y0118900D01*
X0095508Y0118900D01*
X0096809Y0117599D01*
X0097126Y0117270D01*
X0097147Y0117261D01*
X0097163Y0117245D01*
X0105301Y0109107D01*
X0104466Y0109107D01*
X0103289Y0108619D01*
X0102388Y0107718D01*
X0101900Y0106541D01*
X0101900Y0105266D01*
X0102388Y0104089D01*
X0102984Y0103493D01*
X0102500Y0103009D01*
X0102500Y0078965D01*
X0102389Y0078919D01*
X0101488Y0078018D01*
X0101000Y0076841D01*
X0101000Y0075566D01*
X0101488Y0074389D01*
X0102389Y0073488D01*
X0103566Y0073000D01*
X0104841Y0073000D01*
X0106018Y0073488D01*
X0106771Y0074240D02*
X0201858Y0074240D01*
X0201052Y0075046D02*
X0107191Y0075046D01*
X0107407Y0075851D02*
X0200247Y0075851D01*
X0199441Y0076657D02*
X0107407Y0076657D01*
X0107150Y0077463D02*
X0198635Y0077463D01*
X0197830Y0078268D02*
X0106669Y0078268D01*
X0105907Y0079074D02*
X0197024Y0079074D01*
X0196219Y0079879D02*
X0105907Y0079879D01*
X0105907Y0080685D02*
X0195413Y0080685D01*
X0194607Y0081491D02*
X0105907Y0081491D01*
X0105907Y0082296D02*
X0193802Y0082296D01*
X0192996Y0083102D02*
X0105907Y0083102D01*
X0105907Y0083907D02*
X0192191Y0083907D01*
X0191385Y0084713D02*
X0105907Y0084713D01*
X0105907Y0085519D02*
X0190579Y0085519D01*
X0189774Y0086324D02*
X0105907Y0086324D01*
X0105907Y0087130D02*
X0188968Y0087130D01*
X0188163Y0087935D02*
X0105907Y0087935D01*
X0105907Y0088741D02*
X0187357Y0088741D01*
X0186551Y0089547D02*
X0105907Y0089547D01*
X0105907Y0090352D02*
X0185746Y0090352D01*
X0184940Y0091158D02*
X0105907Y0091158D01*
X0105907Y0091963D02*
X0184135Y0091963D01*
X0183329Y0092769D02*
X0105907Y0092769D01*
X0105907Y0093575D02*
X0182523Y0093575D01*
X0181718Y0094380D02*
X0105907Y0094380D01*
X0105907Y0095186D02*
X0180912Y0095186D01*
X0180107Y0095991D02*
X0105907Y0095991D01*
X0105907Y0096797D02*
X0179301Y0096797D01*
X0178495Y0097603D02*
X0109171Y0097603D01*
X0110239Y0098408D02*
X0124664Y0098408D01*
X0123463Y0099214D02*
X0118823Y0099214D01*
X0119628Y0100019D02*
X0122909Y0100019D01*
X0122600Y0100825D02*
X0120434Y0100825D01*
X0121240Y0101631D02*
X0122600Y0101631D01*
X0118838Y0104047D02*
X0113575Y0104047D01*
X0113707Y0104853D02*
X0119000Y0104853D01*
X0119007Y0105659D02*
X0113700Y0105659D01*
X0113366Y0106464D02*
X0119341Y0106464D01*
X0119939Y0107270D02*
X0112907Y0107270D01*
X0112785Y0108075D02*
X0121248Y0108075D01*
X0122217Y0108881D02*
X0112325Y0108881D01*
X0111520Y0109686D02*
X0121411Y0109686D01*
X0120606Y0110492D02*
X0110714Y0110492D01*
X0109909Y0111298D02*
X0119800Y0111298D01*
X0118995Y0112103D02*
X0109103Y0112103D01*
X0108297Y0112909D02*
X0118189Y0112909D01*
X0117383Y0113714D02*
X0107492Y0113714D01*
X0106686Y0114520D02*
X0116578Y0114520D01*
X0115772Y0115326D02*
X0115703Y0115326D01*
X0114304Y0115326D02*
X0105881Y0115326D01*
X0105075Y0116131D02*
X0112845Y0116131D01*
X0112185Y0116937D02*
X0104269Y0116937D01*
X0103464Y0117742D02*
X0111851Y0117742D01*
X0111800Y0118548D02*
X0102658Y0118548D01*
X0102062Y0119354D02*
X0111888Y0119354D01*
X0112222Y0120159D02*
X0102897Y0120159D01*
X0103733Y0120965D02*
X0112934Y0120965D01*
X0117073Y0120965D02*
X0155133Y0120965D01*
X0154327Y0121770D02*
X0104569Y0121770D01*
X0105417Y0122576D02*
X0153522Y0122576D01*
X0152716Y0123382D02*
X0106265Y0123382D01*
X0107114Y0124187D02*
X0151911Y0124187D01*
X0151105Y0124993D02*
X0107962Y0124993D01*
X0108810Y0125798D02*
X0150299Y0125798D01*
X0149494Y0126604D02*
X0109659Y0126604D01*
X0110507Y0127410D02*
X0148688Y0127410D01*
X0147883Y0128215D02*
X0111355Y0128215D01*
X0112203Y0129021D02*
X0147077Y0129021D01*
X0146271Y0129826D02*
X0113052Y0129826D01*
X0113900Y0130632D02*
X0145466Y0130632D01*
X0144660Y0131438D02*
X0114748Y0131438D01*
X0115596Y0132243D02*
X0143855Y0132243D01*
X0143049Y0133049D02*
X0116445Y0133049D01*
X0117293Y0133854D02*
X0142243Y0133854D01*
X0141438Y0134660D02*
X0118141Y0134660D01*
X0118989Y0135466D02*
X0140632Y0135466D01*
X0139827Y0136271D02*
X0119838Y0136271D01*
X0120686Y0137077D02*
X0139021Y0137077D01*
X0138215Y0137882D02*
X0133840Y0137882D01*
X0135219Y0138688D02*
X0137410Y0138688D01*
X0139811Y0141105D02*
X0159293Y0141105D01*
X0158488Y0141910D02*
X0139006Y0141910D01*
X0140617Y0140299D02*
X0160099Y0140299D01*
X0160904Y0139494D02*
X0141423Y0139494D01*
X0142228Y0138688D02*
X0161710Y0138688D01*
X0162516Y0137882D02*
X0143034Y0137882D01*
X0143839Y0137077D02*
X0163321Y0137077D01*
X0164127Y0136271D02*
X0144645Y0136271D01*
X0145451Y0135466D02*
X0164932Y0135466D01*
X0165738Y0134660D02*
X0146256Y0134660D01*
X0147062Y0133854D02*
X0166543Y0133854D01*
X0167349Y0133049D02*
X0147867Y0133049D01*
X0148673Y0132243D02*
X0168155Y0132243D01*
X0168960Y0131438D02*
X0149479Y0131438D01*
X0150284Y0130632D02*
X0169766Y0130632D01*
X0170571Y0129826D02*
X0151090Y0129826D01*
X0151895Y0129021D02*
X0171377Y0129021D01*
X0172183Y0128215D02*
X0152701Y0128215D01*
X0153507Y0127410D02*
X0172988Y0127410D01*
X0173794Y0126604D02*
X0154312Y0126604D01*
X0155118Y0125798D02*
X0174599Y0125798D01*
X0175405Y0124993D02*
X0155923Y0124993D01*
X0156729Y0124187D02*
X0176211Y0124187D01*
X0177016Y0123382D02*
X0157535Y0123382D01*
X0158340Y0122576D02*
X0177822Y0122576D01*
X0178627Y0121770D02*
X0159146Y0121770D01*
X0159951Y0120965D02*
X0179433Y0120965D01*
X0180239Y0120159D02*
X0160757Y0120159D01*
X0161563Y0119354D02*
X0181044Y0119354D01*
X0181850Y0118548D02*
X0162368Y0118548D01*
X0163174Y0117742D02*
X0182655Y0117742D01*
X0183461Y0116937D02*
X0163979Y0116937D01*
X0164785Y0116131D02*
X0184267Y0116131D01*
X0185072Y0115326D02*
X0165591Y0115326D01*
X0166396Y0114520D02*
X0185878Y0114520D01*
X0186683Y0113714D02*
X0167202Y0113714D01*
X0168007Y0112909D02*
X0187489Y0112909D01*
X0188295Y0112103D02*
X0168813Y0112103D01*
X0169619Y0111298D02*
X0189100Y0111298D01*
X0189906Y0110492D02*
X0170424Y0110492D01*
X0171230Y0109686D02*
X0190711Y0109686D01*
X0191517Y0108881D02*
X0172035Y0108881D01*
X0172841Y0108075D02*
X0192323Y0108075D01*
X0193128Y0107270D02*
X0173647Y0107270D01*
X0174452Y0106464D02*
X0193934Y0106464D01*
X0194739Y0105659D02*
X0175258Y0105659D01*
X0176063Y0104853D02*
X0195545Y0104853D01*
X0196351Y0104047D02*
X0176869Y0104047D01*
X0177675Y0103242D02*
X0197156Y0103242D01*
X0197962Y0102436D02*
X0178480Y0102436D01*
X0179286Y0101631D02*
X0198767Y0101631D01*
X0199573Y0100825D02*
X0180091Y0100825D01*
X0180897Y0100019D02*
X0200379Y0100019D01*
X0201184Y0099214D02*
X0181703Y0099214D01*
X0182508Y0098408D02*
X0201990Y0098408D01*
X0202795Y0097603D02*
X0183314Y0097603D01*
X0184119Y0096797D02*
X0203601Y0096797D01*
X0204407Y0095991D02*
X0184925Y0095991D01*
X0185731Y0095186D02*
X0205212Y0095186D01*
X0206018Y0094380D02*
X0186536Y0094380D01*
X0187342Y0093575D02*
X0206823Y0093575D01*
X0207629Y0092769D02*
X0188147Y0092769D01*
X0188953Y0091963D02*
X0208435Y0091963D01*
X0209240Y0091158D02*
X0189759Y0091158D01*
X0190564Y0090352D02*
X0210046Y0090352D01*
X0199426Y0081491D02*
X0245007Y0081491D01*
X0244202Y0082296D02*
X0198620Y0082296D01*
X0197814Y0083102D02*
X0243396Y0083102D01*
X0242591Y0083907D02*
X0197009Y0083907D01*
X0196203Y0084713D02*
X0241785Y0084713D01*
X0240979Y0085519D02*
X0195398Y0085519D01*
X0194592Y0086324D02*
X0240174Y0086324D01*
X0239368Y0087130D02*
X0193786Y0087130D01*
X0192981Y0087935D02*
X0238563Y0087935D01*
X0235702Y0088741D02*
X0192175Y0088741D01*
X0191370Y0089547D02*
X0234830Y0089547D01*
X0240607Y0091158D02*
X0275300Y0091158D01*
X0275300Y0091963D02*
X0241794Y0091963D01*
X0243199Y0092769D02*
X0275300Y0092769D01*
X0275300Y0093575D02*
X0243838Y0093575D01*
X0244171Y0094380D02*
X0275300Y0094380D01*
X0275300Y0095186D02*
X0244207Y0095186D01*
X0244103Y0095991D02*
X0275300Y0095991D01*
X0275300Y0096797D02*
X0243770Y0096797D01*
X0243035Y0097603D02*
X0275300Y0097603D01*
X0275300Y0098408D02*
X0240108Y0098408D01*
X0239303Y0099214D02*
X0275300Y0099214D01*
X0275300Y0100019D02*
X0238497Y0100019D01*
X0237691Y0100825D02*
X0275300Y0100825D01*
X0275300Y0101631D02*
X0236886Y0101631D01*
X0236080Y0102436D02*
X0275300Y0102436D01*
X0275300Y0103242D02*
X0235275Y0103242D01*
X0234469Y0104047D02*
X0275300Y0104047D01*
X0275300Y0104853D02*
X0233663Y0104853D01*
X0232858Y0105659D02*
X0275300Y0105659D01*
X0275300Y0106464D02*
X0215158Y0106464D01*
X0215407Y0107270D02*
X0275300Y0107270D01*
X0275300Y0108075D02*
X0215407Y0108075D01*
X0215790Y0108881D02*
X0275300Y0108881D01*
X0275300Y0109686D02*
X0216596Y0109686D01*
X0217401Y0110492D02*
X0275300Y0110492D01*
X0275300Y0111298D02*
X0218207Y0111298D01*
X0219012Y0112103D02*
X0275300Y0112103D01*
X0275300Y0112909D02*
X0219818Y0112909D01*
X0220624Y0113714D02*
X0275300Y0113714D01*
X0275300Y0114520D02*
X0221429Y0114520D01*
X0222235Y0115326D02*
X0275300Y0115326D01*
X0275300Y0116131D02*
X0223040Y0116131D01*
X0223846Y0116937D02*
X0275300Y0116937D01*
X0275300Y0117742D02*
X0224652Y0117742D01*
X0225457Y0118548D02*
X0275300Y0118548D01*
X0275300Y0119354D02*
X0226263Y0119354D01*
X0227068Y0120159D02*
X0275300Y0120159D01*
X0275300Y0120965D02*
X0227874Y0120965D01*
X0228680Y0121770D02*
X0275300Y0121770D01*
X0275300Y0122576D02*
X0229485Y0122576D01*
X0230291Y0123382D02*
X0275300Y0123382D01*
X0275300Y0124187D02*
X0231096Y0124187D01*
X0231902Y0124993D02*
X0275300Y0124993D01*
X0275300Y0125798D02*
X0232708Y0125798D01*
X0233513Y0126604D02*
X0275300Y0126604D01*
X0275300Y0127410D02*
X0236330Y0127410D01*
X0237246Y0128215D02*
X0275300Y0128215D01*
X0275300Y0129021D02*
X0237681Y0129021D01*
X0237907Y0129826D02*
X0275300Y0129826D01*
X0275300Y0130632D02*
X0237907Y0130632D01*
X0237660Y0131438D02*
X0275300Y0131438D01*
X0275300Y0132243D02*
X0237194Y0132243D01*
X0236206Y0133049D02*
X0275300Y0133049D01*
X0275300Y0133854D02*
X0176762Y0133854D01*
X0177567Y0133049D02*
X0233201Y0133049D01*
X0232213Y0132243D02*
X0178373Y0132243D01*
X0179179Y0131438D02*
X0231747Y0131438D01*
X0231500Y0130632D02*
X0179984Y0130632D01*
X0180790Y0129826D02*
X0231500Y0129826D01*
X0231112Y0129021D02*
X0181595Y0129021D01*
X0182401Y0128215D02*
X0230306Y0128215D01*
X0229500Y0127410D02*
X0183207Y0127410D01*
X0184012Y0126604D02*
X0228695Y0126604D01*
X0227889Y0125798D02*
X0184818Y0125798D01*
X0185623Y0124993D02*
X0227084Y0124993D01*
X0226278Y0124187D02*
X0186429Y0124187D01*
X0187235Y0123382D02*
X0225473Y0123382D01*
X0224667Y0122576D02*
X0189516Y0122576D01*
X0188091Y0122576D02*
X0188040Y0122576D01*
X0190967Y0121770D02*
X0223861Y0121770D01*
X0223056Y0120965D02*
X0191624Y0120965D01*
X0191958Y0120159D02*
X0222250Y0120159D01*
X0221445Y0119354D02*
X0192007Y0119354D01*
X0192068Y0118548D02*
X0220639Y0118548D01*
X0219833Y0117742D02*
X0192874Y0117742D01*
X0193679Y0116937D02*
X0219028Y0116937D01*
X0218222Y0116131D02*
X0194485Y0116131D01*
X0195291Y0115326D02*
X0217417Y0115326D01*
X0216611Y0114520D02*
X0196096Y0114520D01*
X0196902Y0113714D02*
X0215805Y0113714D01*
X0215000Y0112909D02*
X0197707Y0112909D01*
X0198513Y0112103D02*
X0214194Y0112103D01*
X0213389Y0111298D02*
X0199319Y0111298D01*
X0200124Y0110492D02*
X0210564Y0110492D01*
X0209656Y0109686D02*
X0200930Y0109686D01*
X0201735Y0108881D02*
X0209224Y0108881D01*
X0209000Y0108075D02*
X0202541Y0108075D01*
X0203347Y0107270D02*
X0209000Y0107270D01*
X0209249Y0106464D02*
X0204152Y0106464D01*
X0177690Y0098408D02*
X0126943Y0098408D01*
X0128144Y0099214D02*
X0176884Y0099214D01*
X0176079Y0100019D02*
X0128698Y0100019D01*
X0129007Y0100825D02*
X0175273Y0100825D01*
X0174467Y0101631D02*
X0129007Y0101631D01*
X0128843Y0102436D02*
X0173662Y0102436D01*
X0172856Y0103242D02*
X0128496Y0103242D01*
X0127690Y0104047D02*
X0172051Y0104047D01*
X0171245Y0104853D02*
X0127507Y0104853D01*
X0127507Y0105659D02*
X0170439Y0105659D01*
X0169634Y0106464D02*
X0127507Y0106464D01*
X0127507Y0107270D02*
X0168828Y0107270D01*
X0168023Y0108075D02*
X0127507Y0108075D01*
X0127035Y0108881D02*
X0167217Y0108881D01*
X0166411Y0109686D02*
X0126230Y0109686D01*
X0125424Y0110492D02*
X0165606Y0110492D01*
X0164800Y0111298D02*
X0124619Y0111298D01*
X0123813Y0112103D02*
X0163995Y0112103D01*
X0163189Y0112909D02*
X0123007Y0112909D01*
X0122202Y0113714D02*
X0162383Y0113714D01*
X0161578Y0114520D02*
X0121396Y0114520D01*
X0120591Y0115326D02*
X0160772Y0115326D01*
X0159967Y0116131D02*
X0119785Y0116131D01*
X0118979Y0116937D02*
X0159161Y0116937D01*
X0158355Y0117742D02*
X0118174Y0117742D01*
X0118207Y0118548D02*
X0157550Y0118548D01*
X0156744Y0119354D02*
X0118119Y0119354D01*
X0117785Y0120159D02*
X0155939Y0120159D01*
X0175151Y0135466D02*
X0275300Y0135466D01*
X0275300Y0136271D02*
X0174345Y0136271D01*
X0173539Y0137077D02*
X0275300Y0137077D01*
X0275300Y0137882D02*
X0172734Y0137882D01*
X0171928Y0138688D02*
X0275300Y0138688D01*
X0275300Y0139494D02*
X0171123Y0139494D01*
X0170317Y0140299D02*
X0275300Y0140299D01*
X0275300Y0141105D02*
X0169511Y0141105D01*
X0168706Y0141910D02*
X0275300Y0141910D01*
X0275300Y0142716D02*
X0167900Y0142716D01*
X0167095Y0143522D02*
X0275300Y0143522D01*
X0275300Y0144327D02*
X0166289Y0144327D01*
X0165483Y0145133D02*
X0275300Y0145133D01*
X0275300Y0145938D02*
X0164678Y0145938D01*
X0163872Y0146744D02*
X0275300Y0146744D01*
X0275300Y0147550D02*
X0163067Y0147550D01*
X0162261Y0148355D02*
X0275300Y0148355D01*
X0275300Y0149161D02*
X0161455Y0149161D01*
X0160650Y0149966D02*
X0275300Y0149966D01*
X0275300Y0150772D02*
X0159844Y0150772D01*
X0159039Y0151578D02*
X0275300Y0151578D01*
X0275300Y0152383D02*
X0158233Y0152383D01*
X0157427Y0153189D02*
X0275300Y0153189D01*
X0275300Y0153994D02*
X0156622Y0153994D01*
X0155816Y0154800D02*
X0275300Y0154800D01*
X0275300Y0155606D02*
X0155011Y0155606D01*
X0154205Y0156411D02*
X0275300Y0156411D01*
X0275300Y0157217D02*
X0153399Y0157217D01*
X0152594Y0158022D02*
X0275300Y0158022D01*
X0275300Y0158828D02*
X0151788Y0158828D01*
X0150983Y0159634D02*
X0275300Y0159634D01*
X0275300Y0160439D02*
X0150177Y0160439D01*
X0149371Y0161245D02*
X0260958Y0161245D01*
X0262449Y0161245D02*
X0275300Y0161245D01*
X0275300Y0162050D02*
X0263881Y0162050D01*
X0259526Y0162050D02*
X0148566Y0162050D01*
X0147903Y0162856D02*
X0258877Y0162856D01*
X0258543Y0163662D02*
X0147907Y0163662D01*
X0147772Y0164467D02*
X0258500Y0164467D01*
X0258425Y0165273D02*
X0147438Y0165273D01*
X0146659Y0166078D02*
X0257620Y0166078D01*
X0256814Y0166884D02*
X0141171Y0166884D01*
X0140435Y0166078D02*
X0142748Y0166078D01*
X0141969Y0165273D02*
X0139699Y0165273D01*
X0138963Y0164467D02*
X0141635Y0164467D01*
X0141500Y0163662D02*
X0138227Y0163662D01*
X0137491Y0162856D02*
X0141504Y0162856D01*
X0140988Y0162050D02*
X0136755Y0162050D01*
X0136020Y0161245D02*
X0139714Y0161245D01*
X0139131Y0160439D02*
X0135284Y0160439D01*
X0134548Y0159634D02*
X0138800Y0159634D01*
X0138800Y0158828D02*
X0133812Y0158828D01*
X0133076Y0158022D02*
X0138942Y0158022D01*
X0139276Y0157217D02*
X0132340Y0157217D01*
X0131604Y0156411D02*
X0140065Y0156411D01*
X0143942Y0156411D02*
X0143987Y0156411D01*
X0144792Y0155606D02*
X0130868Y0155606D01*
X0130132Y0154800D02*
X0145598Y0154800D01*
X0146404Y0153994D02*
X0129768Y0153994D01*
X0129768Y0153189D02*
X0147209Y0153189D01*
X0148015Y0152383D02*
X0129768Y0152383D01*
X0129768Y0151578D02*
X0148820Y0151578D01*
X0149626Y0150772D02*
X0129768Y0150772D01*
X0129768Y0149966D02*
X0150432Y0149966D01*
X0151237Y0149161D02*
X0129768Y0149161D01*
X0129768Y0148355D02*
X0152043Y0148355D01*
X0152848Y0147550D02*
X0129768Y0147550D01*
X0129769Y0146744D02*
X0153654Y0146744D01*
X0154460Y0145938D02*
X0129641Y0145938D01*
X0129169Y0145133D02*
X0155265Y0145133D01*
X0156071Y0144327D02*
X0128320Y0144327D01*
X0127472Y0143522D02*
X0130991Y0143522D01*
X0130245Y0142716D02*
X0126624Y0142716D01*
X0125776Y0141910D02*
X0129912Y0141910D01*
X0129800Y0141105D02*
X0124927Y0141105D01*
X0124079Y0140299D02*
X0129828Y0140299D01*
X0130161Y0139494D02*
X0123231Y0139494D01*
X0122382Y0138688D02*
X0130789Y0138688D01*
X0132167Y0137882D02*
X0121534Y0137882D01*
X0135016Y0143522D02*
X0156876Y0143522D01*
X0157682Y0142716D02*
X0135762Y0142716D01*
X0124733Y0147550D02*
X0124507Y0147550D01*
X0124335Y0148355D02*
X0124961Y0148355D01*
X0124961Y0149161D02*
X0123977Y0149161D01*
X0123171Y0149966D02*
X0124961Y0149966D01*
X0124961Y0150772D02*
X0120244Y0150772D01*
X0119439Y0151578D02*
X0124961Y0151578D01*
X0124961Y0152383D02*
X0109954Y0152383D01*
X0108485Y0153189D02*
X0124961Y0153189D01*
X0124961Y0153994D02*
X0025807Y0153994D01*
X0025807Y0153189D02*
X0107122Y0153189D01*
X0105653Y0152383D02*
X0025807Y0152383D01*
X0025807Y0151578D02*
X0104988Y0151578D01*
X0104654Y0150772D02*
X0025807Y0150772D01*
X0025807Y0149966D02*
X0104600Y0149966D01*
X0104685Y0149161D02*
X0025807Y0149161D01*
X0025807Y0148355D02*
X0105019Y0148355D01*
X0105727Y0147550D02*
X0025807Y0147550D01*
X0025807Y0146744D02*
X0106100Y0146744D01*
X0106100Y0145938D02*
X0025807Y0145938D01*
X0025807Y0145133D02*
X0106100Y0145133D01*
X0106100Y0144327D02*
X0025807Y0144327D01*
X0025807Y0143522D02*
X0106100Y0143522D01*
X0106100Y0142716D02*
X0025807Y0142716D01*
X0025807Y0141910D02*
X0106100Y0141910D01*
X0106100Y0141105D02*
X0025807Y0141105D01*
X0025807Y0140299D02*
X0106100Y0140299D01*
X0106100Y0139494D02*
X0025807Y0139494D01*
X0025807Y0138688D02*
X0106100Y0138688D01*
X0106100Y0137882D02*
X0025807Y0137882D01*
X0025807Y0137077D02*
X0105646Y0137077D01*
X0104985Y0136271D02*
X0025807Y0136271D01*
X0025807Y0135466D02*
X0104652Y0135466D01*
X0104600Y0134660D02*
X0025807Y0134660D01*
X0025807Y0133854D02*
X0104688Y0133854D01*
X0105021Y0133049D02*
X0025807Y0133049D01*
X0025807Y0132243D02*
X0105733Y0132243D01*
X0106919Y0130632D02*
X0025807Y0130632D01*
X0025807Y0129826D02*
X0106071Y0129826D01*
X0105223Y0129021D02*
X0025807Y0129021D01*
X0025807Y0128215D02*
X0104375Y0128215D01*
X0103526Y0127410D02*
X0025807Y0127410D01*
X0025807Y0126604D02*
X0102678Y0126604D01*
X0101830Y0125798D02*
X0043698Y0125798D01*
X0042632Y0126240D02*
X0040175Y0126240D01*
X0037906Y0125300D01*
X0036168Y0123563D01*
X0035228Y0121293D01*
X0035228Y0118837D01*
X0036168Y0116567D01*
X0037906Y0114830D01*
X0040175Y0113890D01*
X0042632Y0113890D01*
X0044902Y0114830D01*
X0046639Y0116567D01*
X0047579Y0118837D01*
X0047579Y0121293D01*
X0046639Y0123563D01*
X0044902Y0125300D01*
X0042632Y0126240D01*
X0045209Y0124993D02*
X0094708Y0124993D01*
X0093657Y0124187D02*
X0046014Y0124187D01*
X0046714Y0123382D02*
X0093165Y0123382D01*
X0092900Y0122576D02*
X0047047Y0122576D01*
X0047381Y0121770D02*
X0092900Y0121770D01*
X0093108Y0120965D02*
X0047579Y0120965D01*
X0047579Y0120159D02*
X0093517Y0120159D01*
X0094371Y0119354D02*
X0069184Y0119354D01*
X0069118Y0119419D02*
X0067941Y0119907D01*
X0066666Y0119907D01*
X0065489Y0119419D01*
X0064588Y0118518D01*
X0064100Y0117341D01*
X0064100Y0116066D01*
X0064588Y0114889D01*
X0065370Y0114107D01*
X0065159Y0114019D01*
X0064257Y0113118D01*
X0063770Y0111941D01*
X0063770Y0110666D01*
X0064257Y0109489D01*
X0065159Y0108588D01*
X0066336Y0108100D01*
X0067610Y0108100D01*
X0068788Y0108588D01*
X0069689Y0109489D01*
X0069735Y0109600D01*
X0077023Y0109600D01*
X0076700Y0108820D01*
X0076700Y0107545D01*
X0077188Y0106368D01*
X0078089Y0105466D01*
X0079266Y0104979D01*
X0080541Y0104979D01*
X0081718Y0105466D01*
X0082619Y0106368D01*
X0083107Y0107545D01*
X0083107Y0108820D01*
X0082619Y0109997D01*
X0081718Y0110898D01*
X0080541Y0111386D01*
X0080023Y0111386D01*
X0079807Y0111760D01*
X0079807Y0112009D01*
X0079547Y0112270D01*
X0080632Y0112270D01*
X0081809Y0112757D01*
X0082710Y0113659D01*
X0083198Y0114836D01*
X0083198Y0116110D01*
X0082710Y0117288D01*
X0081809Y0118189D01*
X0080632Y0118677D01*
X0079357Y0118677D01*
X0078180Y0118189D01*
X0077783Y0117792D01*
X0077733Y0117805D01*
X0077530Y0117684D01*
X0070365Y0117684D01*
X0070019Y0118518D01*
X0069118Y0119419D01*
X0069989Y0118548D02*
X0079047Y0118548D01*
X0077628Y0117742D02*
X0070341Y0117742D01*
X0065423Y0119354D02*
X0047579Y0119354D01*
X0047459Y0118548D02*
X0064618Y0118548D01*
X0064266Y0117742D02*
X0047126Y0117742D01*
X0046792Y0116937D02*
X0064100Y0116937D01*
X0064100Y0116131D02*
X0046203Y0116131D01*
X0045397Y0115326D02*
X0064407Y0115326D01*
X0064957Y0114520D02*
X0044154Y0114520D01*
X0038653Y0114520D02*
X0025807Y0114520D01*
X0025807Y0113714D02*
X0064854Y0113714D01*
X0064171Y0112909D02*
X0025807Y0112909D01*
X0025807Y0112103D02*
X0063837Y0112103D01*
X0063770Y0111298D02*
X0025807Y0111298D01*
X0025807Y0110492D02*
X0063842Y0110492D01*
X0064176Y0109686D02*
X0025807Y0109686D01*
X0025807Y0108881D02*
X0040087Y0108881D01*
X0040175Y0108917D02*
X0037906Y0107977D01*
X0036168Y0106240D01*
X0035228Y0103970D01*
X0035228Y0101514D01*
X0036168Y0099244D01*
X0037906Y0097507D01*
X0040175Y0096567D01*
X0042632Y0096567D01*
X0044902Y0097507D01*
X0046639Y0099244D01*
X0047579Y0101514D01*
X0047579Y0103970D01*
X0046639Y0106240D01*
X0044902Y0107977D01*
X0042632Y0108917D01*
X0040175Y0108917D01*
X0038142Y0108075D02*
X0025807Y0108075D01*
X0025807Y0107270D02*
X0037198Y0107270D01*
X0036392Y0106464D02*
X0025807Y0106464D01*
X0025807Y0105659D02*
X0035928Y0105659D01*
X0035594Y0104853D02*
X0025807Y0104853D01*
X0025807Y0104047D02*
X0035260Y0104047D01*
X0035228Y0103242D02*
X0025807Y0103242D01*
X0025807Y0102436D02*
X0035228Y0102436D01*
X0035228Y0101631D02*
X0025807Y0101631D01*
X0025807Y0100825D02*
X0035514Y0100825D01*
X0035847Y0100019D02*
X0025807Y0100019D01*
X0025807Y0099214D02*
X0036199Y0099214D01*
X0037005Y0098408D02*
X0025807Y0098408D01*
X0025807Y0097603D02*
X0037810Y0097603D01*
X0039620Y0096797D02*
X0025807Y0096797D01*
X0025807Y0095991D02*
X0102500Y0095991D01*
X0102500Y0095186D02*
X0025807Y0095186D01*
X0025807Y0094380D02*
X0102500Y0094380D01*
X0102500Y0093575D02*
X0025807Y0093575D01*
X0025807Y0092769D02*
X0102500Y0092769D01*
X0102500Y0091963D02*
X0025807Y0091963D01*
X0025807Y0091158D02*
X0102500Y0091158D01*
X0102500Y0090352D02*
X0025807Y0090352D01*
X0025807Y0089547D02*
X0102500Y0089547D01*
X0102500Y0088741D02*
X0025807Y0088741D01*
X0025807Y0087935D02*
X0102500Y0087935D01*
X0102500Y0087130D02*
X0025807Y0087130D01*
X0025807Y0086324D02*
X0102500Y0086324D01*
X0102500Y0085519D02*
X0025807Y0085519D01*
X0025807Y0084713D02*
X0102500Y0084713D01*
X0102500Y0083907D02*
X0025807Y0083907D01*
X0025807Y0083102D02*
X0102500Y0083102D01*
X0102500Y0082296D02*
X0025807Y0082296D01*
X0025807Y0081491D02*
X0102500Y0081491D01*
X0102500Y0080685D02*
X0025807Y0080685D01*
X0025807Y0079879D02*
X0102500Y0079879D01*
X0102500Y0079074D02*
X0025807Y0079074D01*
X0025807Y0078268D02*
X0101738Y0078268D01*
X0101258Y0077463D02*
X0025807Y0077463D01*
X0025807Y0076657D02*
X0101000Y0076657D01*
X0101000Y0075851D02*
X0025807Y0075851D01*
X0025807Y0075046D02*
X0101216Y0075046D01*
X0101636Y0074240D02*
X0025807Y0074240D01*
X0025807Y0073435D02*
X0102517Y0073435D01*
X0102500Y0096797D02*
X0043187Y0096797D01*
X0044997Y0097603D02*
X0102500Y0097603D01*
X0102500Y0098408D02*
X0045803Y0098408D01*
X0046608Y0099214D02*
X0102500Y0099214D01*
X0102500Y0100019D02*
X0046960Y0100019D01*
X0047293Y0100825D02*
X0102500Y0100825D01*
X0102500Y0101631D02*
X0047579Y0101631D01*
X0047579Y0102436D02*
X0102500Y0102436D01*
X0102733Y0103242D02*
X0047579Y0103242D01*
X0047547Y0104047D02*
X0102429Y0104047D01*
X0102071Y0104853D02*
X0047213Y0104853D01*
X0046880Y0105659D02*
X0077897Y0105659D01*
X0077148Y0106464D02*
X0046415Y0106464D01*
X0045609Y0107270D02*
X0076814Y0107270D01*
X0076700Y0108075D02*
X0044665Y0108075D01*
X0042720Y0108881D02*
X0064865Y0108881D01*
X0069081Y0108881D02*
X0076725Y0108881D01*
X0079713Y0112103D02*
X0102305Y0112103D01*
X0103110Y0111298D02*
X0080754Y0111298D01*
X0082124Y0110492D02*
X0103916Y0110492D01*
X0104721Y0109686D02*
X0082748Y0109686D01*
X0083082Y0108881D02*
X0103920Y0108881D01*
X0102745Y0108075D02*
X0083107Y0108075D01*
X0082993Y0107270D02*
X0102202Y0107270D01*
X0101900Y0106464D02*
X0082659Y0106464D01*
X0081910Y0105659D02*
X0101900Y0105659D01*
X0112467Y0102436D02*
X0117227Y0102436D01*
X0118033Y0103242D02*
X0113241Y0103242D01*
X0106436Y0097603D02*
X0105907Y0097603D01*
X0101499Y0112909D02*
X0081961Y0112909D01*
X0082733Y0113714D02*
X0100693Y0113714D01*
X0099888Y0114520D02*
X0083067Y0114520D01*
X0083198Y0115326D02*
X0099082Y0115326D01*
X0098277Y0116131D02*
X0083189Y0116131D01*
X0082856Y0116937D02*
X0097471Y0116937D01*
X0096665Y0117742D02*
X0082256Y0117742D01*
X0080942Y0118548D02*
X0095860Y0118548D01*
X0099042Y0123382D02*
X0099314Y0123382D01*
X0098550Y0124187D02*
X0100150Y0124187D01*
X0100981Y0124993D02*
X0097499Y0124993D01*
X0107768Y0131438D02*
X0025807Y0131438D01*
X0025807Y0125798D02*
X0039109Y0125798D01*
X0037598Y0124993D02*
X0025807Y0124993D01*
X0025807Y0124187D02*
X0036793Y0124187D01*
X0036093Y0123382D02*
X0025807Y0123382D01*
X0025807Y0122576D02*
X0035760Y0122576D01*
X0035426Y0121770D02*
X0025807Y0121770D01*
X0025807Y0120965D02*
X0035228Y0120965D01*
X0035228Y0120159D02*
X0025807Y0120159D01*
X0025807Y0119354D02*
X0035228Y0119354D01*
X0035348Y0118548D02*
X0025807Y0118548D01*
X0025807Y0117742D02*
X0035682Y0117742D01*
X0036015Y0116937D02*
X0025807Y0116937D01*
X0025807Y0116131D02*
X0036604Y0116131D01*
X0037410Y0115326D02*
X0025807Y0115326D01*
X0025807Y0154800D02*
X0124961Y0154800D01*
X0124946Y0155606D02*
X0025807Y0155606D01*
X0025807Y0156411D02*
X0125198Y0156411D01*
X0125829Y0157217D02*
X0025807Y0157217D01*
X0025807Y0158022D02*
X0126565Y0158022D01*
X0127301Y0158828D02*
X0025807Y0158828D01*
X0025807Y0159634D02*
X0128037Y0159634D01*
X0128773Y0160439D02*
X0025807Y0160439D01*
X0025807Y0161245D02*
X0129509Y0161245D01*
X0130245Y0162050D02*
X0025807Y0162050D01*
X0025807Y0162856D02*
X0130980Y0162856D01*
X0131716Y0163662D02*
X0025807Y0163662D01*
X0025807Y0164467D02*
X0132452Y0164467D01*
X0133188Y0165273D02*
X0025807Y0165273D01*
X0025807Y0166078D02*
X0133924Y0166078D01*
X0134660Y0166884D02*
X0025807Y0166884D01*
X0025807Y0167690D02*
X0135396Y0167690D01*
X0136132Y0168495D02*
X0025807Y0168495D01*
X0025807Y0169301D02*
X0136868Y0169301D01*
X0137604Y0170106D02*
X0025807Y0170106D01*
X0025807Y0170912D02*
X0138321Y0170912D01*
X0139282Y0171718D02*
X0038930Y0171718D01*
X0038376Y0171488D02*
X0042020Y0172998D01*
X0044809Y0175787D01*
X0046319Y0179431D01*
X0046319Y0183376D01*
X0044809Y0187020D01*
X0042020Y0189809D01*
X0038376Y0191319D01*
X0034431Y0191319D01*
X0030787Y0189809D01*
X0027998Y0187020D01*
X0026488Y0183376D01*
X0026488Y0179431D01*
X0027998Y0175787D01*
X0030787Y0172998D01*
X0034431Y0171488D01*
X0038376Y0171488D01*
X0040874Y0172523D02*
X0147917Y0172523D01*
X0148251Y0173329D02*
X0042351Y0173329D01*
X0043157Y0174134D02*
X0149004Y0174134D01*
X0153003Y0174134D02*
X0249564Y0174134D01*
X0250369Y0173329D02*
X0153756Y0173329D01*
X0154090Y0172523D02*
X0251175Y0172523D01*
X0251980Y0171718D02*
X0154207Y0171718D01*
X0154185Y0170912D02*
X0252786Y0170912D01*
X0253592Y0170106D02*
X0153851Y0170106D01*
X0153231Y0169301D02*
X0254397Y0169301D01*
X0255203Y0168495D02*
X0151870Y0168495D01*
X0150489Y0167690D02*
X0256008Y0167690D01*
X0258410Y0170106D02*
X0290701Y0170106D01*
X0290701Y0169301D02*
X0259215Y0169301D01*
X0260021Y0168495D02*
X0277238Y0168495D01*
X0278570Y0168495D02*
X0290701Y0168495D01*
X0290701Y0167690D02*
X0280048Y0167690D01*
X0280716Y0166884D02*
X0290701Y0166884D01*
X0290701Y0166078D02*
X0281050Y0166078D01*
X0281107Y0165273D02*
X0290701Y0165273D01*
X0290701Y0164467D02*
X0281025Y0164467D01*
X0280691Y0163662D02*
X0290701Y0163662D01*
X0290701Y0162856D02*
X0279986Y0162856D01*
X0278707Y0162050D02*
X0290701Y0162050D01*
X0290701Y0161245D02*
X0278707Y0161245D01*
X0278707Y0160439D02*
X0290701Y0160439D01*
X0290701Y0159634D02*
X0278707Y0159634D01*
X0278707Y0158828D02*
X0290701Y0158828D01*
X0290701Y0158022D02*
X0278707Y0158022D01*
X0278707Y0157217D02*
X0290701Y0157217D01*
X0290701Y0156411D02*
X0278707Y0156411D01*
X0278707Y0155606D02*
X0290701Y0155606D01*
X0290701Y0154800D02*
X0278707Y0154800D01*
X0278707Y0153994D02*
X0290701Y0153994D01*
X0290701Y0153189D02*
X0278707Y0153189D01*
X0278707Y0152383D02*
X0290701Y0152383D01*
X0290701Y0151578D02*
X0278707Y0151578D01*
X0278707Y0150772D02*
X0290701Y0150772D01*
X0290701Y0149966D02*
X0278707Y0149966D01*
X0278707Y0149161D02*
X0290701Y0149161D01*
X0290701Y0148355D02*
X0278707Y0148355D01*
X0278707Y0147550D02*
X0290701Y0147550D01*
X0290701Y0146744D02*
X0278707Y0146744D01*
X0278707Y0145938D02*
X0290701Y0145938D01*
X0290701Y0145133D02*
X0278707Y0145133D01*
X0278707Y0144327D02*
X0290701Y0144327D01*
X0290701Y0143522D02*
X0278707Y0143522D01*
X0278707Y0142716D02*
X0290701Y0142716D01*
X0290701Y0141910D02*
X0278707Y0141910D01*
X0278707Y0141105D02*
X0290701Y0141105D01*
X0290701Y0140299D02*
X0278707Y0140299D01*
X0278707Y0139494D02*
X0290701Y0139494D01*
X0290701Y0138688D02*
X0278707Y0138688D01*
X0278707Y0137882D02*
X0290701Y0137882D01*
X0290701Y0137077D02*
X0278707Y0137077D01*
X0278707Y0136271D02*
X0290701Y0136271D01*
X0290701Y0135466D02*
X0278707Y0135466D01*
X0278707Y0134660D02*
X0290701Y0134660D01*
X0290701Y0133854D02*
X0278707Y0133854D01*
X0278707Y0133049D02*
X0290701Y0133049D01*
X0290701Y0132243D02*
X0278707Y0132243D01*
X0278707Y0131438D02*
X0290701Y0131438D01*
X0290701Y0130632D02*
X0278707Y0130632D01*
X0278707Y0129826D02*
X0290701Y0129826D01*
X0290701Y0129021D02*
X0278707Y0129021D01*
X0278707Y0128215D02*
X0290701Y0128215D01*
X0290701Y0127410D02*
X0278707Y0127410D01*
X0278707Y0126604D02*
X0290701Y0126604D01*
X0290701Y0125798D02*
X0278707Y0125798D01*
X0278707Y0124993D02*
X0290701Y0124993D01*
X0290701Y0124187D02*
X0278707Y0124187D01*
X0278707Y0123382D02*
X0290701Y0123382D01*
X0290701Y0122576D02*
X0278707Y0122576D01*
X0278707Y0121770D02*
X0290701Y0121770D01*
X0290701Y0120965D02*
X0278707Y0120965D01*
X0278707Y0120159D02*
X0290701Y0120159D01*
X0290701Y0119354D02*
X0278707Y0119354D01*
X0278707Y0118548D02*
X0290701Y0118548D01*
X0290701Y0117742D02*
X0278707Y0117742D01*
X0278707Y0116937D02*
X0290701Y0116937D01*
X0290701Y0116131D02*
X0278707Y0116131D01*
X0278707Y0115326D02*
X0290701Y0115326D01*
X0290701Y0114520D02*
X0278707Y0114520D01*
X0278707Y0113714D02*
X0290701Y0113714D01*
X0290701Y0112909D02*
X0278707Y0112909D01*
X0278707Y0112103D02*
X0290701Y0112103D01*
X0290701Y0111298D02*
X0278707Y0111298D01*
X0278707Y0110492D02*
X0290701Y0110492D01*
X0290701Y0109686D02*
X0278707Y0109686D01*
X0278707Y0108881D02*
X0290701Y0108881D01*
X0290701Y0108075D02*
X0278707Y0108075D01*
X0278707Y0107270D02*
X0290701Y0107270D01*
X0290701Y0106464D02*
X0278707Y0106464D01*
X0278707Y0105659D02*
X0290701Y0105659D01*
X0290701Y0104853D02*
X0278707Y0104853D01*
X0278707Y0104047D02*
X0290701Y0104047D01*
X0290701Y0103242D02*
X0278707Y0103242D01*
X0278707Y0102436D02*
X0290701Y0102436D01*
X0290701Y0101631D02*
X0278707Y0101631D01*
X0278707Y0100825D02*
X0290701Y0100825D01*
X0290701Y0100019D02*
X0278707Y0100019D01*
X0278707Y0099214D02*
X0290701Y0099214D01*
X0290701Y0098408D02*
X0278707Y0098408D01*
X0278707Y0097603D02*
X0290701Y0097603D01*
X0290701Y0096797D02*
X0278707Y0096797D01*
X0278707Y0095991D02*
X0290701Y0095991D01*
X0290701Y0095186D02*
X0278707Y0095186D01*
X0278707Y0094380D02*
X0290701Y0094380D01*
X0290701Y0093575D02*
X0278707Y0093575D01*
X0278707Y0092769D02*
X0290701Y0092769D01*
X0290701Y0091963D02*
X0278707Y0091963D01*
X0278707Y0091158D02*
X0290701Y0091158D01*
X0290701Y0090352D02*
X0278707Y0090352D01*
X0278707Y0089547D02*
X0290701Y0089547D01*
X0290701Y0088741D02*
X0278707Y0088741D01*
X0278707Y0087935D02*
X0290701Y0087935D01*
X0290701Y0087130D02*
X0278707Y0087130D01*
X0278707Y0086324D02*
X0290701Y0086324D01*
X0290701Y0085519D02*
X0278707Y0085519D01*
X0278707Y0084713D02*
X0290701Y0084713D01*
X0290701Y0083907D02*
X0278707Y0083907D01*
X0278707Y0083102D02*
X0290701Y0083102D01*
X0290701Y0082296D02*
X0278707Y0082296D01*
X0278707Y0081491D02*
X0290701Y0081491D01*
X0290701Y0080685D02*
X0278707Y0080685D01*
X0278707Y0079879D02*
X0290701Y0079879D01*
X0290701Y0079074D02*
X0278707Y0079074D01*
X0278707Y0078268D02*
X0290701Y0078268D01*
X0290701Y0077463D02*
X0278707Y0077463D01*
X0278707Y0076657D02*
X0290701Y0076657D01*
X0290701Y0075851D02*
X0278707Y0075851D01*
X0278707Y0075046D02*
X0290701Y0075046D01*
X0290701Y0074240D02*
X0278707Y0074240D01*
X0278707Y0073435D02*
X0290701Y0073435D01*
X0290701Y0072629D02*
X0278707Y0072629D01*
X0278707Y0071823D02*
X0290701Y0071823D01*
X0290701Y0071018D02*
X0278707Y0071018D01*
X0278707Y0070212D02*
X0290701Y0070212D01*
X0290701Y0069407D02*
X0278707Y0069407D01*
X0278707Y0068601D02*
X0290701Y0068601D01*
X0290701Y0067795D02*
X0278707Y0067795D01*
X0278707Y0066990D02*
X0290701Y0066990D01*
X0290701Y0066184D02*
X0278707Y0066184D01*
X0278707Y0065379D02*
X0290701Y0065379D01*
X0290701Y0064573D02*
X0278707Y0064573D01*
X0278707Y0063767D02*
X0290701Y0063767D01*
X0290701Y0062962D02*
X0278707Y0062962D01*
X0278707Y0062156D02*
X0290701Y0062156D01*
X0290701Y0061351D02*
X0278707Y0061351D01*
X0278707Y0060545D02*
X0290701Y0060545D01*
X0290701Y0059739D02*
X0279098Y0059739D01*
X0279796Y0058934D02*
X0290701Y0058934D01*
X0290701Y0058128D02*
X0280129Y0058128D01*
X0280207Y0057323D02*
X0290701Y0057323D01*
X0290701Y0056517D02*
X0280145Y0056517D01*
X0279812Y0055711D02*
X0290701Y0055711D01*
X0290701Y0054906D02*
X0279136Y0054906D01*
X0277641Y0054100D02*
X0290701Y0054100D01*
X0290701Y0053295D02*
X0275404Y0053295D01*
X0274807Y0052489D02*
X0290701Y0052489D01*
X0290701Y0051683D02*
X0274807Y0051683D01*
X0274646Y0050878D02*
X0290701Y0050878D01*
X0290701Y0050072D02*
X0274303Y0050072D01*
X0273497Y0049267D02*
X0290701Y0049267D01*
X0290701Y0048461D02*
X0270607Y0048461D01*
X0270607Y0047655D02*
X0290701Y0047655D01*
X0290701Y0046850D02*
X0270607Y0046850D01*
X0270607Y0046044D02*
X0290701Y0046044D01*
X0290701Y0045239D02*
X0270607Y0045239D01*
X0270607Y0044433D02*
X0290701Y0044433D01*
X0290701Y0043627D02*
X0270607Y0043627D01*
X0270607Y0042822D02*
X0290701Y0042822D01*
X0290701Y0042016D02*
X0270607Y0042016D01*
X0270607Y0041211D02*
X0290701Y0041211D01*
X0290701Y0040405D02*
X0270607Y0040405D01*
X0270607Y0039599D02*
X0290701Y0039599D01*
X0290701Y0038794D02*
X0270607Y0038794D01*
X0270607Y0037988D02*
X0290701Y0037988D01*
X0290701Y0037183D02*
X0270607Y0037183D01*
X0270607Y0036377D02*
X0290701Y0036377D01*
X0290701Y0035571D02*
X0285180Y0035571D01*
X0287064Y0034766D02*
X0290701Y0034766D01*
X0290701Y0033960D02*
X0287869Y0033960D01*
X0288675Y0033155D02*
X0290701Y0033155D01*
X0290701Y0032349D02*
X0289480Y0032349D01*
X0290007Y0031543D02*
X0290701Y0031543D01*
X0290701Y0030738D02*
X0290340Y0030738D01*
X0290674Y0029932D02*
X0290701Y0029932D01*
X0290594Y0022682D02*
X0290701Y0022682D01*
X0290701Y0021876D02*
X0290261Y0021876D01*
X0289927Y0021071D02*
X0290701Y0021071D01*
X0290701Y0020265D02*
X0289288Y0020265D01*
X0288482Y0019460D02*
X0290701Y0019460D01*
X0290701Y0018654D02*
X0287676Y0018654D01*
X0286659Y0017848D02*
X0290701Y0017848D01*
X0290701Y0017043D02*
X0284715Y0017043D01*
X0290701Y0016237D02*
X0265346Y0016237D01*
X0266152Y0017043D02*
X0278092Y0017043D01*
X0276148Y0017848D02*
X0266957Y0017848D01*
X0267763Y0018654D02*
X0275131Y0018654D01*
X0274325Y0019460D02*
X0268569Y0019460D01*
X0269374Y0020265D02*
X0273520Y0020265D01*
X0272880Y0021071D02*
X0270180Y0021071D01*
X0270607Y0021876D02*
X0272546Y0021876D01*
X0272213Y0022682D02*
X0270607Y0022682D01*
X0270607Y0023488D02*
X0271879Y0023488D01*
X0271545Y0024293D02*
X0270607Y0024293D01*
X0270607Y0025099D02*
X0271488Y0025099D01*
X0271488Y0025904D02*
X0270607Y0025904D01*
X0270607Y0026710D02*
X0271488Y0026710D01*
X0271488Y0027516D02*
X0270607Y0027516D01*
X0270607Y0028321D02*
X0271488Y0028321D01*
X0271799Y0029127D02*
X0270607Y0029127D01*
X0270607Y0029932D02*
X0272133Y0029932D01*
X0272467Y0030738D02*
X0270607Y0030738D01*
X0270607Y0031543D02*
X0272800Y0031543D01*
X0273327Y0032349D02*
X0270607Y0032349D01*
X0270607Y0033155D02*
X0274132Y0033155D01*
X0274938Y0033960D02*
X0270607Y0033960D01*
X0270607Y0034766D02*
X0275743Y0034766D01*
X0277627Y0035571D02*
X0270607Y0035571D01*
X0267200Y0035571D02*
X0265248Y0035571D01*
X0265177Y0035670D02*
X0264626Y0036220D01*
X0263996Y0036678D01*
X0263302Y0037031D01*
X0262562Y0037272D01*
X0261807Y0037391D01*
X0261807Y0029307D01*
X0266350Y0029307D01*
X0266350Y0032836D01*
X0266229Y0033605D01*
X0265988Y0034346D01*
X0265634Y0035040D01*
X0265177Y0035670D01*
X0264410Y0036377D02*
X0267200Y0036377D01*
X0267200Y0037183D02*
X0262836Y0037183D01*
X0261807Y0037183D02*
X0261000Y0037183D01*
X0261000Y0037391D02*
X0260245Y0037272D01*
X0259505Y0037031D01*
X0258811Y0036678D01*
X0258181Y0036220D01*
X0257630Y0035670D01*
X0257173Y0035040D01*
X0256819Y0034346D01*
X0256579Y0033605D01*
X0256457Y0032836D01*
X0256457Y0029307D01*
X0261000Y0029307D01*
X0261000Y0028500D01*
X0261807Y0028500D01*
X0261807Y0020416D01*
X0262562Y0020535D01*
X0263302Y0020776D01*
X0263996Y0021129D01*
X0264626Y0021587D01*
X0265177Y0022138D01*
X0265634Y0022768D01*
X0265988Y0023461D01*
X0266229Y0024202D01*
X0266350Y0024971D01*
X0266350Y0028500D01*
X0261807Y0028500D01*
X0261807Y0029307D01*
X0261000Y0029307D01*
X0261000Y0037391D01*
X0261000Y0036377D02*
X0261807Y0036377D01*
X0261807Y0035571D02*
X0261000Y0035571D01*
X0261000Y0034766D02*
X0261807Y0034766D01*
X0261807Y0033960D02*
X0261000Y0033960D01*
X0261000Y0033155D02*
X0261807Y0033155D01*
X0261807Y0032349D02*
X0261000Y0032349D01*
X0261000Y0031543D02*
X0261807Y0031543D01*
X0261807Y0030738D02*
X0261000Y0030738D01*
X0261000Y0029932D02*
X0261807Y0029932D01*
X0261807Y0029127D02*
X0267200Y0029127D01*
X0267200Y0029932D02*
X0266350Y0029932D01*
X0266350Y0030738D02*
X0267200Y0030738D01*
X0267200Y0031543D02*
X0266350Y0031543D01*
X0266350Y0032349D02*
X0267200Y0032349D01*
X0267200Y0033155D02*
X0266300Y0033155D01*
X0266113Y0033960D02*
X0267200Y0033960D01*
X0267200Y0034766D02*
X0265774Y0034766D01*
X0267200Y0037988D02*
X0239328Y0037988D01*
X0239107Y0038794D02*
X0267200Y0038794D01*
X0267200Y0039599D02*
X0245509Y0039599D01*
X0246314Y0040405D02*
X0267200Y0040405D01*
X0267200Y0041211D02*
X0247120Y0041211D01*
X0247925Y0042016D02*
X0267200Y0042016D01*
X0267200Y0042822D02*
X0248731Y0042822D01*
X0249537Y0043627D02*
X0267200Y0043627D01*
X0267200Y0044433D02*
X0250342Y0044433D01*
X0251148Y0045239D02*
X0267200Y0045239D01*
X0267200Y0046044D02*
X0251953Y0046044D01*
X0252759Y0046850D02*
X0267200Y0046850D01*
X0267200Y0047655D02*
X0253565Y0047655D01*
X0254370Y0048461D02*
X0267200Y0048461D01*
X0266431Y0049267D02*
X0255176Y0049267D01*
X0255981Y0050072D02*
X0265626Y0050072D01*
X0265400Y0050878D02*
X0256787Y0050878D01*
X0257593Y0051683D02*
X0265400Y0051683D01*
X0265400Y0052489D02*
X0258398Y0052489D01*
X0259204Y0053295D02*
X0265400Y0053295D01*
X0265400Y0054100D02*
X0260009Y0054100D01*
X0260815Y0054906D02*
X0265400Y0054906D01*
X0265400Y0055711D02*
X0261621Y0055711D01*
X0262426Y0056517D02*
X0265400Y0056517D01*
X0265400Y0057323D02*
X0265353Y0057323D01*
X0268807Y0057323D02*
X0273800Y0057323D01*
X0273808Y0056517D02*
X0268807Y0056517D01*
X0268807Y0055711D02*
X0273002Y0055711D01*
X0273878Y0058128D02*
X0268807Y0058128D01*
X0268807Y0058934D02*
X0274211Y0058934D01*
X0274909Y0059739D02*
X0268807Y0059739D01*
X0268807Y0060545D02*
X0275300Y0060545D01*
X0275300Y0061351D02*
X0268807Y0061351D01*
X0268807Y0062156D02*
X0275300Y0062156D01*
X0275300Y0062962D02*
X0268354Y0062962D01*
X0267549Y0063767D02*
X0275300Y0063767D01*
X0275300Y0064573D02*
X0266743Y0064573D01*
X0265938Y0065379D02*
X0275300Y0065379D01*
X0275300Y0066184D02*
X0265132Y0066184D01*
X0264326Y0066990D02*
X0275300Y0066990D01*
X0275300Y0067795D02*
X0263521Y0067795D01*
X0262715Y0068601D02*
X0275300Y0068601D01*
X0275300Y0069407D02*
X0261910Y0069407D01*
X0261104Y0070212D02*
X0275300Y0070212D01*
X0275300Y0071018D02*
X0260298Y0071018D01*
X0259493Y0071823D02*
X0275300Y0071823D01*
X0275300Y0072629D02*
X0258687Y0072629D01*
X0257882Y0073435D02*
X0275300Y0073435D01*
X0275300Y0074240D02*
X0257076Y0074240D01*
X0256270Y0075046D02*
X0275300Y0075046D01*
X0275300Y0075851D02*
X0255465Y0075851D01*
X0254659Y0076657D02*
X0275300Y0076657D01*
X0275300Y0077463D02*
X0253854Y0077463D01*
X0253048Y0078268D02*
X0275300Y0078268D01*
X0275300Y0079074D02*
X0252242Y0079074D01*
X0251437Y0079879D02*
X0275300Y0079879D01*
X0275300Y0080685D02*
X0250631Y0080685D01*
X0249826Y0081491D02*
X0275300Y0081491D01*
X0275300Y0082296D02*
X0249020Y0082296D01*
X0248214Y0083102D02*
X0275300Y0083102D01*
X0275300Y0083907D02*
X0247409Y0083907D01*
X0246603Y0084713D02*
X0275300Y0084713D01*
X0275300Y0085519D02*
X0245798Y0085519D01*
X0244992Y0086324D02*
X0275300Y0086324D01*
X0275300Y0087130D02*
X0244186Y0087130D01*
X0243381Y0087935D02*
X0275300Y0087935D01*
X0275300Y0088741D02*
X0242575Y0088741D01*
X0241770Y0089547D02*
X0275300Y0089547D01*
X0275300Y0090352D02*
X0240964Y0090352D01*
X0245813Y0080685D02*
X0200231Y0080685D01*
X0201037Y0079879D02*
X0246619Y0079879D01*
X0247424Y0079074D02*
X0201842Y0079074D01*
X0202648Y0078268D02*
X0248230Y0078268D01*
X0249035Y0077463D02*
X0203454Y0077463D01*
X0204259Y0076657D02*
X0249841Y0076657D01*
X0250647Y0075851D02*
X0205065Y0075851D01*
X0205870Y0075046D02*
X0251452Y0075046D01*
X0252258Y0074240D02*
X0206676Y0074240D01*
X0207482Y0073435D02*
X0253063Y0073435D01*
X0253869Y0072629D02*
X0208287Y0072629D01*
X0209093Y0071823D02*
X0254675Y0071823D01*
X0255480Y0071018D02*
X0209898Y0071018D01*
X0210704Y0070212D02*
X0256286Y0070212D01*
X0257091Y0069407D02*
X0211510Y0069407D01*
X0212315Y0068601D02*
X0257897Y0068601D01*
X0258703Y0067795D02*
X0213121Y0067795D01*
X0213926Y0066990D02*
X0259508Y0066990D01*
X0260314Y0066184D02*
X0214732Y0066184D01*
X0215538Y0065379D02*
X0261119Y0065379D01*
X0261925Y0064573D02*
X0216343Y0064573D01*
X0217149Y0063767D02*
X0262731Y0063767D01*
X0262274Y0062962D02*
X0217954Y0062962D01*
X0218760Y0062156D02*
X0261126Y0062156D01*
X0260594Y0061351D02*
X0219566Y0061351D01*
X0220371Y0060545D02*
X0260300Y0060545D01*
X0260300Y0059739D02*
X0221177Y0059739D01*
X0221982Y0058934D02*
X0260025Y0058934D01*
X0259219Y0058128D02*
X0222788Y0058128D01*
X0223594Y0057323D02*
X0258413Y0057323D01*
X0257608Y0056517D02*
X0224399Y0056517D01*
X0225205Y0055711D02*
X0256802Y0055711D01*
X0255997Y0054906D02*
X0226010Y0054906D01*
X0226816Y0054100D02*
X0255191Y0054100D01*
X0254385Y0053295D02*
X0227622Y0053295D01*
X0228427Y0052489D02*
X0253580Y0052489D01*
X0252774Y0051683D02*
X0229233Y0051683D01*
X0230038Y0050878D02*
X0251969Y0050878D01*
X0251163Y0050072D02*
X0230844Y0050072D01*
X0231650Y0049267D02*
X0250357Y0049267D01*
X0249552Y0048461D02*
X0232455Y0048461D01*
X0233261Y0047655D02*
X0248746Y0047655D01*
X0247941Y0046850D02*
X0234066Y0046850D01*
X0234872Y0046044D02*
X0247135Y0046044D01*
X0246330Y0045239D02*
X0235678Y0045239D01*
X0236483Y0044433D02*
X0245524Y0044433D01*
X0244718Y0043627D02*
X0237289Y0043627D01*
X0238094Y0042822D02*
X0243913Y0042822D01*
X0242374Y0037183D02*
X0250433Y0037183D01*
X0250459Y0037194D02*
X0248715Y0036471D01*
X0247379Y0035136D01*
X0246657Y0033391D01*
X0246657Y0024416D01*
X0247379Y0022671D01*
X0248715Y0021336D01*
X0250459Y0020613D01*
X0252348Y0020613D01*
X0254092Y0021336D01*
X0255428Y0022671D01*
X0256150Y0024416D01*
X0256150Y0033391D01*
X0255428Y0035136D01*
X0254092Y0036471D01*
X0252348Y0037194D01*
X0250459Y0037194D01*
X0252374Y0037183D02*
X0259971Y0037183D01*
X0258397Y0036377D02*
X0254186Y0036377D01*
X0254992Y0035571D02*
X0257559Y0035571D01*
X0257033Y0034766D02*
X0255581Y0034766D01*
X0255915Y0033960D02*
X0256694Y0033960D01*
X0256507Y0033155D02*
X0256150Y0033155D01*
X0256150Y0032349D02*
X0256457Y0032349D01*
X0256457Y0031543D02*
X0256150Y0031543D01*
X0256150Y0030738D02*
X0256457Y0030738D01*
X0256457Y0029932D02*
X0256150Y0029932D01*
X0256150Y0029127D02*
X0261000Y0029127D01*
X0261000Y0028500D02*
X0256457Y0028500D01*
X0256457Y0024971D01*
X0256579Y0024202D01*
X0256819Y0023461D01*
X0257173Y0022768D01*
X0257630Y0022138D01*
X0258181Y0021587D01*
X0258811Y0021129D01*
X0259505Y0020776D01*
X0260245Y0020535D01*
X0261000Y0020416D01*
X0261000Y0028500D01*
X0261000Y0028321D02*
X0261807Y0028321D01*
X0261807Y0027516D02*
X0261000Y0027516D01*
X0261000Y0026710D02*
X0261807Y0026710D01*
X0261807Y0025904D02*
X0261000Y0025904D01*
X0261000Y0025099D02*
X0261807Y0025099D01*
X0261807Y0024293D02*
X0261000Y0024293D01*
X0261000Y0023488D02*
X0261807Y0023488D01*
X0261807Y0022682D02*
X0261000Y0022682D01*
X0261000Y0021876D02*
X0261807Y0021876D01*
X0261807Y0021071D02*
X0261000Y0021071D01*
X0258926Y0021071D02*
X0253452Y0021071D01*
X0254633Y0021876D02*
X0257892Y0021876D01*
X0257235Y0022682D02*
X0255432Y0022682D01*
X0255766Y0023488D02*
X0256811Y0023488D01*
X0256564Y0024293D02*
X0256099Y0024293D01*
X0256150Y0025099D02*
X0256457Y0025099D01*
X0256457Y0025904D02*
X0256150Y0025904D01*
X0256150Y0026710D02*
X0256457Y0026710D01*
X0256457Y0027516D02*
X0256150Y0027516D01*
X0256150Y0028321D02*
X0256457Y0028321D01*
X0246657Y0028321D02*
X0246150Y0028321D01*
X0246150Y0027516D02*
X0246657Y0027516D01*
X0246657Y0026710D02*
X0246150Y0026710D01*
X0246150Y0025904D02*
X0246657Y0025904D01*
X0246657Y0025099D02*
X0246150Y0025099D01*
X0246099Y0024293D02*
X0246708Y0024293D01*
X0247041Y0023488D02*
X0245766Y0023488D01*
X0245432Y0022682D02*
X0247375Y0022682D01*
X0248174Y0021876D02*
X0244633Y0021876D01*
X0243452Y0021071D02*
X0249355Y0021071D01*
X0239355Y0021071D02*
X0233452Y0021071D01*
X0234633Y0021876D02*
X0238174Y0021876D01*
X0237375Y0022682D02*
X0235432Y0022682D01*
X0235766Y0023488D02*
X0237041Y0023488D01*
X0236708Y0024293D02*
X0236099Y0024293D01*
X0236150Y0025099D02*
X0236657Y0025099D01*
X0236657Y0025904D02*
X0236150Y0025904D01*
X0236150Y0026710D02*
X0236657Y0026710D01*
X0236657Y0027516D02*
X0236150Y0027516D01*
X0236150Y0028321D02*
X0236657Y0028321D01*
X0236657Y0029127D02*
X0236150Y0029127D01*
X0236150Y0029932D02*
X0236657Y0029932D01*
X0236657Y0030738D02*
X0236150Y0030738D01*
X0236150Y0031543D02*
X0236657Y0031543D01*
X0236657Y0032349D02*
X0236150Y0032349D01*
X0236150Y0033155D02*
X0236657Y0033155D01*
X0236892Y0033960D02*
X0235915Y0033960D01*
X0235581Y0034766D02*
X0237226Y0034766D01*
X0236926Y0035571D02*
X0234992Y0035571D01*
X0235110Y0036377D02*
X0236121Y0036377D01*
X0230881Y0037988D02*
X0206997Y0037988D01*
X0206192Y0037183D02*
X0210433Y0037183D01*
X0212374Y0037183D02*
X0220433Y0037183D01*
X0220459Y0037194D02*
X0218715Y0036471D01*
X0217379Y0035136D01*
X0216657Y0033391D01*
X0216657Y0024416D01*
X0217379Y0022671D01*
X0218715Y0021336D01*
X0220459Y0020613D01*
X0222348Y0020613D01*
X0224092Y0021336D01*
X0225428Y0022671D01*
X0226150Y0024416D01*
X0226150Y0033391D01*
X0225428Y0035136D01*
X0224092Y0036471D01*
X0222348Y0037194D01*
X0220459Y0037194D01*
X0222374Y0037183D02*
X0230433Y0037183D01*
X0228621Y0036377D02*
X0224186Y0036377D01*
X0224992Y0035571D02*
X0227815Y0035571D01*
X0227226Y0034766D02*
X0225581Y0034766D01*
X0225915Y0033960D02*
X0226892Y0033960D01*
X0226657Y0033155D02*
X0226150Y0033155D01*
X0226150Y0032349D02*
X0226657Y0032349D01*
X0226657Y0031543D02*
X0226150Y0031543D01*
X0226150Y0030738D02*
X0226657Y0030738D01*
X0226657Y0029932D02*
X0226150Y0029932D01*
X0226150Y0029127D02*
X0226657Y0029127D01*
X0226657Y0028321D02*
X0226150Y0028321D01*
X0226150Y0027516D02*
X0226657Y0027516D01*
X0226657Y0026710D02*
X0226150Y0026710D01*
X0226150Y0025904D02*
X0226657Y0025904D01*
X0226657Y0025099D02*
X0226150Y0025099D01*
X0226099Y0024293D02*
X0226708Y0024293D01*
X0227041Y0023488D02*
X0225766Y0023488D01*
X0225432Y0022682D02*
X0227375Y0022682D01*
X0228174Y0021876D02*
X0224633Y0021876D01*
X0223452Y0021071D02*
X0229355Y0021071D01*
X0219868Y0017848D02*
X0262139Y0017848D01*
X0262945Y0018654D02*
X0219062Y0018654D01*
X0218257Y0019460D02*
X0263750Y0019460D01*
X0264556Y0020265D02*
X0217451Y0020265D01*
X0216646Y0021071D02*
X0219355Y0021071D01*
X0218174Y0021876D02*
X0215840Y0021876D01*
X0215432Y0022682D02*
X0217375Y0022682D01*
X0217041Y0023488D02*
X0215766Y0023488D01*
X0216099Y0024293D02*
X0216708Y0024293D01*
X0216657Y0025099D02*
X0216150Y0025099D01*
X0216150Y0025904D02*
X0216657Y0025904D01*
X0216657Y0026710D02*
X0216150Y0026710D01*
X0216150Y0027516D02*
X0216657Y0027516D01*
X0216657Y0028321D02*
X0216150Y0028321D01*
X0216150Y0029127D02*
X0216657Y0029127D01*
X0216657Y0029932D02*
X0216150Y0029932D01*
X0216150Y0030738D02*
X0216657Y0030738D01*
X0216657Y0031543D02*
X0216150Y0031543D01*
X0216150Y0032349D02*
X0216657Y0032349D01*
X0216657Y0033155D02*
X0216150Y0033155D01*
X0215915Y0033960D02*
X0216892Y0033960D01*
X0217226Y0034766D02*
X0215581Y0034766D01*
X0214992Y0035571D02*
X0217815Y0035571D01*
X0218621Y0036377D02*
X0214186Y0036377D01*
X0208621Y0036377D02*
X0205386Y0036377D01*
X0204992Y0035571D02*
X0207815Y0035571D01*
X0207226Y0034766D02*
X0205581Y0034766D01*
X0205915Y0033960D02*
X0206892Y0033960D01*
X0206657Y0033155D02*
X0206150Y0033155D01*
X0206150Y0032349D02*
X0206657Y0032349D01*
X0206657Y0031543D02*
X0206150Y0031543D01*
X0206150Y0030738D02*
X0206657Y0030738D01*
X0206657Y0029932D02*
X0206150Y0029932D01*
X0206150Y0029127D02*
X0206657Y0029127D01*
X0206657Y0028321D02*
X0206150Y0028321D01*
X0206150Y0027516D02*
X0206657Y0027516D01*
X0206657Y0026710D02*
X0206150Y0026710D01*
X0206150Y0025904D02*
X0206657Y0025904D01*
X0206657Y0025099D02*
X0206150Y0025099D01*
X0206099Y0024293D02*
X0206708Y0024293D01*
X0207041Y0023488D02*
X0205766Y0023488D01*
X0205432Y0022682D02*
X0207375Y0022682D01*
X0208174Y0021876D02*
X0204633Y0021876D01*
X0203452Y0021071D02*
X0209355Y0021071D01*
X0199355Y0021071D02*
X0193452Y0021071D01*
X0194092Y0021336D02*
X0195428Y0022671D01*
X0196150Y0024416D01*
X0196150Y0033391D01*
X0195428Y0035136D01*
X0194092Y0036471D01*
X0192348Y0037194D01*
X0190459Y0037194D01*
X0188715Y0036471D01*
X0187379Y0035136D01*
X0186657Y0033391D01*
X0186657Y0024416D01*
X0187379Y0022671D01*
X0188715Y0021336D01*
X0190459Y0020613D01*
X0192348Y0020613D01*
X0194092Y0021336D01*
X0194633Y0021876D02*
X0198174Y0021876D01*
X0197375Y0022682D02*
X0195432Y0022682D01*
X0195766Y0023488D02*
X0197041Y0023488D01*
X0196708Y0024293D02*
X0196099Y0024293D01*
X0196150Y0025099D02*
X0196657Y0025099D01*
X0196657Y0025904D02*
X0196150Y0025904D01*
X0196150Y0026710D02*
X0196657Y0026710D01*
X0196657Y0027516D02*
X0196150Y0027516D01*
X0196150Y0028321D02*
X0196657Y0028321D01*
X0196657Y0029127D02*
X0196150Y0029127D01*
X0196150Y0029932D02*
X0196657Y0029932D01*
X0196657Y0030738D02*
X0196150Y0030738D01*
X0196150Y0031543D02*
X0196657Y0031543D01*
X0196657Y0032349D02*
X0196150Y0032349D01*
X0196150Y0033155D02*
X0196657Y0033155D01*
X0196892Y0033960D02*
X0195915Y0033960D01*
X0195581Y0034766D02*
X0197226Y0034766D01*
X0197815Y0035571D02*
X0194992Y0035571D01*
X0194186Y0036377D02*
X0198621Y0036377D01*
X0200433Y0037183D02*
X0192374Y0037183D01*
X0190433Y0037183D02*
X0182374Y0037183D01*
X0182348Y0037194D02*
X0180459Y0037194D01*
X0178715Y0036471D01*
X0177379Y0035136D01*
X0176657Y0033391D01*
X0176657Y0024416D01*
X0177379Y0022671D01*
X0178715Y0021336D01*
X0180459Y0020613D01*
X0182348Y0020613D01*
X0184092Y0021336D01*
X0185428Y0022671D01*
X0186150Y0024416D01*
X0186150Y0033391D01*
X0185428Y0035136D01*
X0184092Y0036471D01*
X0182348Y0037194D01*
X0180433Y0037183D02*
X0172374Y0037183D01*
X0172348Y0037194D02*
X0170459Y0037194D01*
X0168715Y0036471D01*
X0167379Y0035136D01*
X0166657Y0033391D01*
X0166657Y0024416D01*
X0167379Y0022671D01*
X0168715Y0021336D01*
X0170459Y0020613D01*
X0172348Y0020613D01*
X0174092Y0021336D01*
X0175428Y0022671D01*
X0176150Y0024416D01*
X0176150Y0033391D01*
X0175428Y0035136D01*
X0174092Y0036471D01*
X0172348Y0037194D01*
X0170433Y0037183D02*
X0162374Y0037183D01*
X0162348Y0037194D02*
X0160459Y0037194D01*
X0158715Y0036471D01*
X0157379Y0035136D01*
X0156657Y0033391D01*
X0156657Y0024416D01*
X0157379Y0022671D01*
X0158715Y0021336D01*
X0160459Y0020613D01*
X0162348Y0020613D01*
X0164092Y0021336D01*
X0165428Y0022671D01*
X0166150Y0024416D01*
X0166150Y0033391D01*
X0165428Y0035136D01*
X0164092Y0036471D01*
X0162348Y0037194D01*
X0160433Y0037183D02*
X0152374Y0037183D01*
X0152348Y0037194D02*
X0150459Y0037194D01*
X0148715Y0036471D01*
X0147379Y0035136D01*
X0146657Y0033391D01*
X0146657Y0024416D01*
X0147379Y0022671D01*
X0148715Y0021336D01*
X0150459Y0020613D01*
X0152348Y0020613D01*
X0154092Y0021336D01*
X0155428Y0022671D01*
X0156150Y0024416D01*
X0156150Y0033391D01*
X0155428Y0035136D01*
X0154092Y0036471D01*
X0152348Y0037194D01*
X0150433Y0037183D02*
X0142374Y0037183D01*
X0142348Y0037194D02*
X0140459Y0037194D01*
X0138715Y0036471D01*
X0137379Y0035136D01*
X0136657Y0033391D01*
X0136657Y0024416D01*
X0137379Y0022671D01*
X0138715Y0021336D01*
X0140459Y0020613D01*
X0142348Y0020613D01*
X0144092Y0021336D01*
X0145428Y0022671D01*
X0146150Y0024416D01*
X0146150Y0033391D01*
X0145428Y0035136D01*
X0144092Y0036471D01*
X0142348Y0037194D01*
X0140433Y0037183D02*
X0136782Y0037183D01*
X0138019Y0037988D02*
X0202179Y0037988D01*
X0202985Y0038794D02*
X0138587Y0038794D01*
X0138907Y0039599D02*
X0203790Y0039599D01*
X0204596Y0040405D02*
X0138907Y0040405D01*
X0138754Y0041211D02*
X0205402Y0041211D01*
X0188621Y0036377D02*
X0184186Y0036377D01*
X0184992Y0035571D02*
X0187815Y0035571D01*
X0187226Y0034766D02*
X0185581Y0034766D01*
X0185915Y0033960D02*
X0186892Y0033960D01*
X0186657Y0033155D02*
X0186150Y0033155D01*
X0186150Y0032349D02*
X0186657Y0032349D01*
X0186657Y0031543D02*
X0186150Y0031543D01*
X0186150Y0030738D02*
X0186657Y0030738D01*
X0186657Y0029932D02*
X0186150Y0029932D01*
X0186150Y0029127D02*
X0186657Y0029127D01*
X0186657Y0028321D02*
X0186150Y0028321D01*
X0186150Y0027516D02*
X0186657Y0027516D01*
X0186657Y0026710D02*
X0186150Y0026710D01*
X0186150Y0025904D02*
X0186657Y0025904D01*
X0186657Y0025099D02*
X0186150Y0025099D01*
X0186099Y0024293D02*
X0186708Y0024293D01*
X0187041Y0023488D02*
X0185766Y0023488D01*
X0185432Y0022682D02*
X0187375Y0022682D01*
X0188174Y0021876D02*
X0184633Y0021876D01*
X0183452Y0021071D02*
X0189355Y0021071D01*
X0179355Y0021071D02*
X0173452Y0021071D01*
X0174633Y0021876D02*
X0178174Y0021876D01*
X0177375Y0022682D02*
X0175432Y0022682D01*
X0175766Y0023488D02*
X0177041Y0023488D01*
X0176708Y0024293D02*
X0176099Y0024293D01*
X0176150Y0025099D02*
X0176657Y0025099D01*
X0176657Y0025904D02*
X0176150Y0025904D01*
X0176150Y0026710D02*
X0176657Y0026710D01*
X0176657Y0027516D02*
X0176150Y0027516D01*
X0176150Y0028321D02*
X0176657Y0028321D01*
X0176657Y0029127D02*
X0176150Y0029127D01*
X0176150Y0029932D02*
X0176657Y0029932D01*
X0176657Y0030738D02*
X0176150Y0030738D01*
X0176150Y0031543D02*
X0176657Y0031543D01*
X0176657Y0032349D02*
X0176150Y0032349D01*
X0176150Y0033155D02*
X0176657Y0033155D01*
X0176892Y0033960D02*
X0175915Y0033960D01*
X0175581Y0034766D02*
X0177226Y0034766D01*
X0177815Y0035571D02*
X0174992Y0035571D01*
X0174186Y0036377D02*
X0178621Y0036377D01*
X0168621Y0036377D02*
X0164186Y0036377D01*
X0164992Y0035571D02*
X0167815Y0035571D01*
X0167226Y0034766D02*
X0165581Y0034766D01*
X0165915Y0033960D02*
X0166892Y0033960D01*
X0166657Y0033155D02*
X0166150Y0033155D01*
X0166150Y0032349D02*
X0166657Y0032349D01*
X0166657Y0031543D02*
X0166150Y0031543D01*
X0166150Y0030738D02*
X0166657Y0030738D01*
X0166657Y0029932D02*
X0166150Y0029932D01*
X0166150Y0029127D02*
X0166657Y0029127D01*
X0166657Y0028321D02*
X0166150Y0028321D01*
X0166150Y0027516D02*
X0166657Y0027516D01*
X0166657Y0026710D02*
X0166150Y0026710D01*
X0166150Y0025904D02*
X0166657Y0025904D01*
X0166657Y0025099D02*
X0166150Y0025099D01*
X0166099Y0024293D02*
X0166708Y0024293D01*
X0167041Y0023488D02*
X0165766Y0023488D01*
X0165432Y0022682D02*
X0167375Y0022682D01*
X0168174Y0021876D02*
X0164633Y0021876D01*
X0163452Y0021071D02*
X0169355Y0021071D01*
X0159355Y0021071D02*
X0153452Y0021071D01*
X0154633Y0021876D02*
X0158174Y0021876D01*
X0157375Y0022682D02*
X0155432Y0022682D01*
X0155766Y0023488D02*
X0157041Y0023488D01*
X0156708Y0024293D02*
X0156099Y0024293D01*
X0156150Y0025099D02*
X0156657Y0025099D01*
X0156657Y0025904D02*
X0156150Y0025904D01*
X0156150Y0026710D02*
X0156657Y0026710D01*
X0156657Y0027516D02*
X0156150Y0027516D01*
X0156150Y0028321D02*
X0156657Y0028321D01*
X0156657Y0029127D02*
X0156150Y0029127D01*
X0156150Y0029932D02*
X0156657Y0029932D01*
X0156657Y0030738D02*
X0156150Y0030738D01*
X0156150Y0031543D02*
X0156657Y0031543D01*
X0156657Y0032349D02*
X0156150Y0032349D01*
X0156150Y0033155D02*
X0156657Y0033155D01*
X0156892Y0033960D02*
X0155915Y0033960D01*
X0155581Y0034766D02*
X0157226Y0034766D01*
X0157815Y0035571D02*
X0154992Y0035571D01*
X0154186Y0036377D02*
X0158621Y0036377D01*
X0148621Y0036377D02*
X0144186Y0036377D01*
X0144992Y0035571D02*
X0147815Y0035571D01*
X0147226Y0034766D02*
X0145581Y0034766D01*
X0145915Y0033960D02*
X0146892Y0033960D01*
X0146657Y0033155D02*
X0146150Y0033155D01*
X0146150Y0032349D02*
X0146657Y0032349D01*
X0146657Y0031543D02*
X0146150Y0031543D01*
X0146150Y0030738D02*
X0146657Y0030738D01*
X0146657Y0029932D02*
X0146150Y0029932D01*
X0146150Y0029127D02*
X0146657Y0029127D01*
X0146657Y0028321D02*
X0146150Y0028321D01*
X0146150Y0027516D02*
X0146657Y0027516D01*
X0146657Y0026710D02*
X0146150Y0026710D01*
X0146150Y0025904D02*
X0146657Y0025904D01*
X0146657Y0025099D02*
X0146150Y0025099D01*
X0146099Y0024293D02*
X0146708Y0024293D01*
X0147041Y0023488D02*
X0145766Y0023488D01*
X0145432Y0022682D02*
X0147375Y0022682D01*
X0148174Y0021876D02*
X0144633Y0021876D01*
X0143452Y0021071D02*
X0149355Y0021071D01*
X0139355Y0021071D02*
X0133881Y0021071D01*
X0133996Y0021129D02*
X0134626Y0021587D01*
X0135177Y0022138D01*
X0135634Y0022768D01*
X0135988Y0023461D01*
X0136229Y0024202D01*
X0136350Y0024971D01*
X0136350Y0028500D01*
X0131807Y0028500D01*
X0131807Y0020416D01*
X0132562Y0020535D01*
X0133302Y0020776D01*
X0133996Y0021129D01*
X0134916Y0021876D02*
X0138174Y0021876D01*
X0137375Y0022682D02*
X0135572Y0022682D01*
X0135996Y0023488D02*
X0137041Y0023488D01*
X0136708Y0024293D02*
X0136243Y0024293D01*
X0136350Y0025099D02*
X0136657Y0025099D01*
X0136657Y0025904D02*
X0136350Y0025904D01*
X0136350Y0026710D02*
X0136657Y0026710D01*
X0136657Y0027516D02*
X0136350Y0027516D01*
X0136350Y0028321D02*
X0136657Y0028321D01*
X0136657Y0029127D02*
X0131807Y0029127D01*
X0131807Y0029307D02*
X0136350Y0029307D01*
X0136350Y0032836D01*
X0136229Y0033605D01*
X0135988Y0034346D01*
X0135634Y0035040D01*
X0135177Y0035670D01*
X0134626Y0036220D01*
X0133996Y0036678D01*
X0133302Y0037031D01*
X0132562Y0037272D01*
X0131807Y0037391D01*
X0131807Y0029307D01*
X0131807Y0028500D01*
X0131000Y0028500D01*
X0131000Y0020416D01*
X0130245Y0020535D01*
X0129505Y0020776D01*
X0128811Y0021129D01*
X0128181Y0021587D01*
X0127630Y0022138D01*
X0127173Y0022768D01*
X0126819Y0023461D01*
X0126579Y0024202D01*
X0126457Y0024971D01*
X0126457Y0028500D01*
X0131000Y0028500D01*
X0131000Y0029307D01*
X0126457Y0029307D01*
X0126457Y0032836D01*
X0126579Y0033605D01*
X0126819Y0034346D01*
X0127173Y0035040D01*
X0127630Y0035670D01*
X0128181Y0036220D01*
X0128811Y0036678D01*
X0129505Y0037031D01*
X0130245Y0037272D01*
X0131000Y0037391D01*
X0131000Y0029307D01*
X0131807Y0029307D01*
X0131807Y0029932D02*
X0131000Y0029932D01*
X0131000Y0029127D02*
X0126150Y0029127D01*
X0126150Y0029932D02*
X0126457Y0029932D01*
X0126457Y0030738D02*
X0126150Y0030738D01*
X0126150Y0031543D02*
X0126457Y0031543D01*
X0126457Y0032349D02*
X0126150Y0032349D01*
X0126150Y0033155D02*
X0126507Y0033155D01*
X0126694Y0033960D02*
X0125915Y0033960D01*
X0125581Y0034766D02*
X0127033Y0034766D01*
X0127559Y0035571D02*
X0125381Y0035571D01*
X0126186Y0036377D02*
X0128397Y0036377D01*
X0126992Y0037183D02*
X0129971Y0037183D01*
X0131000Y0037183D02*
X0131807Y0037183D01*
X0131807Y0036377D02*
X0131000Y0036377D01*
X0131000Y0035571D02*
X0131807Y0035571D01*
X0131807Y0034766D02*
X0131000Y0034766D01*
X0131000Y0033960D02*
X0131807Y0033960D01*
X0131807Y0033155D02*
X0131000Y0033155D01*
X0131000Y0032349D02*
X0131807Y0032349D01*
X0131807Y0031543D02*
X0131000Y0031543D01*
X0131000Y0030738D02*
X0131807Y0030738D01*
X0131807Y0028321D02*
X0131000Y0028321D01*
X0131000Y0027516D02*
X0131807Y0027516D01*
X0131807Y0026710D02*
X0131000Y0026710D01*
X0131000Y0025904D02*
X0131807Y0025904D01*
X0131807Y0025099D02*
X0131000Y0025099D01*
X0131000Y0024293D02*
X0131807Y0024293D01*
X0131807Y0023488D02*
X0131000Y0023488D01*
X0131000Y0022682D02*
X0131807Y0022682D01*
X0131807Y0021876D02*
X0131000Y0021876D01*
X0131000Y0021071D02*
X0131807Y0021071D01*
X0128926Y0021071D02*
X0123452Y0021071D01*
X0124633Y0021876D02*
X0127892Y0021876D01*
X0127235Y0022682D02*
X0125432Y0022682D01*
X0125766Y0023488D02*
X0126811Y0023488D01*
X0126564Y0024293D02*
X0126099Y0024293D01*
X0126150Y0025099D02*
X0126457Y0025099D01*
X0126457Y0025904D02*
X0126150Y0025904D01*
X0126150Y0026710D02*
X0126457Y0026710D01*
X0126457Y0027516D02*
X0126150Y0027516D01*
X0126150Y0028321D02*
X0126457Y0028321D01*
X0136350Y0029932D02*
X0136657Y0029932D01*
X0136657Y0030738D02*
X0136350Y0030738D01*
X0136350Y0031543D02*
X0136657Y0031543D01*
X0136657Y0032349D02*
X0136350Y0032349D01*
X0136300Y0033155D02*
X0136657Y0033155D01*
X0136892Y0033960D02*
X0136113Y0033960D01*
X0135774Y0034766D02*
X0137226Y0034766D01*
X0137815Y0035571D02*
X0135248Y0035571D01*
X0134410Y0036377D02*
X0138621Y0036377D01*
X0134625Y0037183D02*
X0132836Y0037183D01*
X0133388Y0037988D02*
X0127797Y0037988D01*
X0114200Y0039599D02*
X0025807Y0039599D01*
X0025807Y0038794D02*
X0113885Y0038794D01*
X0113079Y0037988D02*
X0025807Y0037988D01*
X0025807Y0037183D02*
X0110433Y0037183D01*
X0114200Y0040405D02*
X0025807Y0040405D01*
X0025807Y0041211D02*
X0114200Y0041211D01*
X0114200Y0042016D02*
X0025807Y0042016D01*
X0025807Y0042822D02*
X0114200Y0042822D01*
X0113349Y0043627D02*
X0025807Y0043627D01*
X0025807Y0044433D02*
X0112921Y0044433D01*
X0112700Y0045239D02*
X0025807Y0045239D01*
X0025807Y0046044D02*
X0112700Y0046044D01*
X0112952Y0046850D02*
X0025807Y0046850D01*
X0025807Y0047655D02*
X0113425Y0047655D01*
X0114431Y0048461D02*
X0025807Y0048461D01*
X0175956Y0134660D02*
X0275300Y0134660D01*
X0275091Y0166884D02*
X0263754Y0166884D01*
X0260827Y0167690D02*
X0275759Y0167690D01*
X0278878Y0171718D02*
X0256799Y0171718D01*
X0255993Y0172523D02*
X0276933Y0172523D01*
X0275456Y0173329D02*
X0255187Y0173329D01*
X0254382Y0174134D02*
X0274650Y0174134D01*
X0273845Y0174940D02*
X0253576Y0174940D01*
X0252771Y0175746D02*
X0273039Y0175746D01*
X0272681Y0176551D02*
X0251965Y0176551D01*
X0251160Y0177357D02*
X0272347Y0177357D01*
X0272014Y0178162D02*
X0250354Y0178162D01*
X0249548Y0178968D02*
X0271680Y0178968D01*
X0271488Y0179774D02*
X0248743Y0179774D01*
X0247937Y0180579D02*
X0271488Y0180579D01*
X0271488Y0181385D02*
X0247132Y0181385D01*
X0246326Y0182190D02*
X0271488Y0182190D01*
X0271488Y0182996D02*
X0245520Y0182996D01*
X0244715Y0183802D02*
X0271665Y0183802D01*
X0271998Y0184607D02*
X0244207Y0184607D01*
X0244207Y0185413D02*
X0272332Y0185413D01*
X0272666Y0186218D02*
X0244009Y0186218D01*
X0243614Y0187024D02*
X0273001Y0187024D01*
X0273807Y0187829D02*
X0242794Y0187829D01*
X0239213Y0187829D02*
X0044000Y0187829D01*
X0044806Y0187024D02*
X0238393Y0187024D01*
X0237998Y0186218D02*
X0045141Y0186218D01*
X0045475Y0185413D02*
X0237800Y0185413D01*
X0237800Y0184607D02*
X0045809Y0184607D01*
X0046143Y0183802D02*
X0238075Y0183802D01*
X0238581Y0182996D02*
X0046319Y0182996D01*
X0046319Y0182190D02*
X0239665Y0182190D01*
X0242313Y0181385D02*
X0046319Y0181385D01*
X0046319Y0180579D02*
X0243119Y0180579D01*
X0243924Y0179774D02*
X0046319Y0179774D01*
X0046127Y0178968D02*
X0244730Y0178968D01*
X0245536Y0178162D02*
X0045793Y0178162D01*
X0045460Y0177357D02*
X0246341Y0177357D01*
X0247147Y0176551D02*
X0045126Y0176551D01*
X0044768Y0175746D02*
X0247952Y0175746D01*
X0248758Y0174940D02*
X0043962Y0174940D01*
X0033878Y0171718D02*
X0025807Y0171718D01*
X0025807Y0172523D02*
X0031933Y0172523D01*
X0030456Y0173329D02*
X0025807Y0173329D01*
X0025807Y0174134D02*
X0029650Y0174134D01*
X0028845Y0174940D02*
X0025807Y0174940D01*
X0025807Y0175746D02*
X0028039Y0175746D01*
X0027681Y0176551D02*
X0025807Y0176551D01*
X0025807Y0177357D02*
X0027347Y0177357D01*
X0027014Y0178162D02*
X0025807Y0178162D01*
X0025807Y0178968D02*
X0026680Y0178968D01*
X0026488Y0179774D02*
X0025807Y0179774D01*
X0025807Y0180579D02*
X0026488Y0180579D01*
X0026488Y0181385D02*
X0025807Y0181385D01*
X0025807Y0182190D02*
X0026488Y0182190D01*
X0026488Y0182996D02*
X0025807Y0182996D01*
X0025807Y0183802D02*
X0026665Y0183802D01*
X0026998Y0184607D02*
X0025807Y0184607D01*
X0025807Y0185413D02*
X0027332Y0185413D01*
X0027666Y0186218D02*
X0025807Y0186218D01*
X0025807Y0187024D02*
X0028001Y0187024D01*
X0028807Y0187829D02*
X0025807Y0187829D01*
X0025807Y0188635D02*
X0029613Y0188635D01*
X0030418Y0189441D02*
X0025807Y0189441D01*
X0025807Y0190246D02*
X0031842Y0190246D01*
X0033787Y0191052D02*
X0025807Y0191052D01*
X0025807Y0191857D02*
X0290701Y0191857D01*
X0290701Y0191052D02*
X0284020Y0191052D01*
X0285965Y0190246D02*
X0290701Y0190246D01*
X0290701Y0189441D02*
X0287389Y0189441D01*
X0288194Y0188635D02*
X0290701Y0188635D01*
X0290701Y0187829D02*
X0289000Y0187829D01*
X0289806Y0187024D02*
X0290701Y0187024D01*
X0290701Y0186218D02*
X0290141Y0186218D01*
X0290475Y0185413D02*
X0290701Y0185413D01*
X0290701Y0177357D02*
X0290460Y0177357D01*
X0290701Y0176551D02*
X0290126Y0176551D01*
X0289768Y0175746D02*
X0290701Y0175746D01*
X0290701Y0174940D02*
X0288962Y0174940D01*
X0288157Y0174134D02*
X0290701Y0174134D01*
X0290701Y0173329D02*
X0287351Y0173329D01*
X0285874Y0172523D02*
X0290701Y0172523D01*
X0290701Y0171718D02*
X0283930Y0171718D01*
X0290701Y0170912D02*
X0257604Y0170912D01*
X0274613Y0188635D02*
X0043194Y0188635D01*
X0042389Y0189441D02*
X0275418Y0189441D01*
X0276842Y0190246D02*
X0040965Y0190246D01*
X0039020Y0191052D02*
X0278787Y0191052D01*
X0270480Y0054906D02*
X0268807Y0054906D01*
X0268807Y0054100D02*
X0269270Y0054100D01*
X0276209Y0054100D02*
X0276366Y0054100D01*
X0248621Y0036377D02*
X0244186Y0036377D01*
X0244992Y0035571D02*
X0247815Y0035571D01*
X0247226Y0034766D02*
X0245581Y0034766D01*
X0245915Y0033960D02*
X0246892Y0033960D01*
X0246657Y0033155D02*
X0246150Y0033155D01*
X0246150Y0032349D02*
X0246657Y0032349D01*
X0246657Y0031543D02*
X0246150Y0031543D01*
X0246150Y0030738D02*
X0246657Y0030738D01*
X0246657Y0029932D02*
X0246150Y0029932D01*
X0246150Y0029127D02*
X0246657Y0029127D01*
X0240433Y0037183D02*
X0240134Y0037183D01*
X0266350Y0028321D02*
X0267200Y0028321D01*
X0267200Y0027516D02*
X0266350Y0027516D01*
X0266350Y0026710D02*
X0267200Y0026710D01*
X0267200Y0025904D02*
X0266350Y0025904D01*
X0266350Y0025099D02*
X0267200Y0025099D01*
X0267200Y0024293D02*
X0266243Y0024293D01*
X0265996Y0023488D02*
X0267200Y0023488D01*
X0266973Y0022682D02*
X0265572Y0022682D01*
X0266167Y0021876D02*
X0264916Y0021876D01*
X0265362Y0021071D02*
X0263881Y0021071D01*
D13*
X0233804Y0039304D03*
X0263504Y0060004D03*
X0271604Y0051904D03*
X0277004Y0057304D03*
X0232904Y0069904D03*
X0211304Y0077104D03*
X0237404Y0091504D03*
X0241004Y0095104D03*
X0212204Y0107704D03*
X0188804Y0119404D03*
X0234704Y0130204D03*
X0211304Y0160804D03*
X0241004Y0185104D03*
X0261704Y0164404D03*
X0277904Y0165304D03*
X0151004Y0171604D03*
X0144704Y0163504D03*
X0142004Y0159004D03*
X0121304Y0147304D03*
X0133004Y0141004D03*
X0107804Y0134704D03*
X0096104Y0122104D03*
X0079994Y0115473D03*
X0079904Y0108182D03*
X0066973Y0111304D03*
X0067304Y0116704D03*
X0105104Y0105904D03*
X0110504Y0105004D03*
X0107804Y0100504D03*
X0122204Y0105004D03*
X0125804Y0101404D03*
X0115004Y0118504D03*
X0107804Y0150004D03*
X0104204Y0076204D03*
X0115904Y0045604D03*
X0135704Y0040204D03*
D14*
X0062004Y0104907D03*
X0261404Y0041404D03*
X0276404Y0041404D03*
D15*
X0268904Y0049204D02*
X0267104Y0051004D01*
X0267104Y0061804D01*
X0237404Y0091504D01*
X0211304Y0091504D01*
X0143804Y0159004D01*
X0142004Y0159004D01*
X0144704Y0163504D02*
X0188804Y0119404D01*
X0204104Y0104104D01*
X0232004Y0104104D01*
X0241004Y0095104D01*
X0212204Y0107704D02*
X0234704Y0130204D01*
X0261704Y0164404D02*
X0241004Y0185104D01*
X0261704Y0164404D02*
X0277004Y0164404D01*
X0277904Y0165304D01*
X0277004Y0164404D02*
X0277004Y0057304D01*
X0271604Y0051904D01*
X0268904Y0049204D02*
X0268904Y0022204D01*
X0262604Y0015904D01*
X0219404Y0015904D01*
X0212204Y0023104D01*
X0212204Y0028504D01*
X0211404Y0028904D01*
X0201404Y0028904D02*
X0201404Y0034804D01*
X0206804Y0040204D01*
X0232904Y0040204D01*
X0233804Y0039304D01*
X0237404Y0037504D02*
X0237404Y0041104D01*
X0244604Y0041104D01*
X0263504Y0060004D01*
X0237404Y0041104D02*
X0137504Y0141004D01*
X0133004Y0141004D01*
X0121304Y0147304D02*
X0118604Y0150004D01*
X0107804Y0150004D01*
X0107804Y0134704D01*
X0115004Y0118504D02*
X0125804Y0107704D01*
X0125804Y0101404D01*
X0122204Y0105004D02*
X0117704Y0100504D01*
X0107804Y0100504D01*
X0105104Y0103204D02*
X0104204Y0102304D01*
X0104204Y0076204D01*
X0105104Y0103204D02*
X0105104Y0105904D01*
X0110504Y0105904D02*
X0110504Y0105004D01*
X0079904Y0108182D02*
X0078104Y0111304D01*
X0066973Y0111304D01*
X0068156Y0115980D02*
X0067304Y0116704D01*
X0068156Y0115980D02*
X0077998Y0115980D01*
X0079994Y0115473D01*
X0115904Y0045604D02*
X0115904Y0038404D01*
X0111404Y0033904D01*
X0111404Y0028904D01*
X0121404Y0028904D02*
X0122204Y0029404D01*
X0122204Y0034804D01*
X0127604Y0040204D01*
X0135704Y0040204D01*
X0237404Y0037504D02*
X0241004Y0033904D01*
X0241004Y0029404D01*
X0241404Y0028904D01*
D16*
X0110504Y0105904D02*
X0110504Y0107304D01*
X0098525Y0119282D01*
X0102904Y0123504D01*
X0127364Y0146734D01*
X0127364Y0155334D01*
X0140364Y0169564D01*
X0148964Y0169564D01*
X0151004Y0171604D01*
X0098525Y0119282D02*
X0096404Y0121404D01*
M02*
