G75*
%MOIN*%
%OFA0B0*%
%FSLAX25Y25*%
%IPPOS*%
%LPD*%
%AMOC8*
5,1,8,0,0,1.08239X$1,22.5*
%
%ADD10C,0.00000*%
%ADD11R,0.05906X0.05118*%
%ADD12R,0.05118X0.05906*%
%ADD13R,0.01575X0.05906*%
%ADD14R,0.05906X0.07874*%
%ADD15R,0.14961X0.07874*%
%ADD16R,0.03937X0.03937*%
%ADD17R,0.04724X0.04724*%
%ADD18R,0.07000X0.20000*%
%ADD19R,0.05118X0.06102*%
%ADD20R,0.06102X0.05118*%
%ADD21R,0.03937X0.05512*%
%ADD22R,0.04724X0.11811*%
%ADD23R,0.11811X0.04724*%
%ADD24R,0.09843X0.07874*%
%ADD25R,0.12992X0.07874*%
%ADD26R,0.12205X0.01969*%
%ADD27C,0.07087*%
%ADD28C,0.01000*%
%ADD29C,0.04000*%
%ADD30C,0.03962*%
%ADD31C,0.00807*%
%ADD32C,0.02400*%
%ADD33C,0.01200*%
D10*
X0021404Y0011404D02*
X0021404Y0196364D01*
X0295104Y0196364D01*
X0295104Y0011404D01*
X0021404Y0011404D01*
X0030892Y0026404D02*
X0030894Y0026552D01*
X0030900Y0026700D01*
X0030910Y0026848D01*
X0030924Y0026995D01*
X0030942Y0027142D01*
X0030963Y0027288D01*
X0030989Y0027434D01*
X0031019Y0027579D01*
X0031052Y0027723D01*
X0031090Y0027866D01*
X0031131Y0028008D01*
X0031176Y0028149D01*
X0031224Y0028289D01*
X0031277Y0028428D01*
X0031333Y0028565D01*
X0031393Y0028700D01*
X0031456Y0028834D01*
X0031523Y0028966D01*
X0031594Y0029096D01*
X0031668Y0029224D01*
X0031745Y0029350D01*
X0031826Y0029474D01*
X0031910Y0029596D01*
X0031997Y0029715D01*
X0032088Y0029832D01*
X0032182Y0029947D01*
X0032278Y0030059D01*
X0032378Y0030169D01*
X0032480Y0030275D01*
X0032586Y0030379D01*
X0032694Y0030480D01*
X0032805Y0030578D01*
X0032918Y0030674D01*
X0033034Y0030766D01*
X0033152Y0030855D01*
X0033273Y0030940D01*
X0033396Y0031023D01*
X0033521Y0031102D01*
X0033648Y0031178D01*
X0033777Y0031250D01*
X0033908Y0031319D01*
X0034041Y0031384D01*
X0034176Y0031445D01*
X0034312Y0031503D01*
X0034449Y0031558D01*
X0034588Y0031608D01*
X0034729Y0031655D01*
X0034870Y0031698D01*
X0035013Y0031738D01*
X0035157Y0031773D01*
X0035301Y0031805D01*
X0035447Y0031832D01*
X0035593Y0031856D01*
X0035740Y0031876D01*
X0035887Y0031892D01*
X0036034Y0031904D01*
X0036182Y0031912D01*
X0036330Y0031916D01*
X0036478Y0031916D01*
X0036626Y0031912D01*
X0036774Y0031904D01*
X0036921Y0031892D01*
X0037068Y0031876D01*
X0037215Y0031856D01*
X0037361Y0031832D01*
X0037507Y0031805D01*
X0037651Y0031773D01*
X0037795Y0031738D01*
X0037938Y0031698D01*
X0038079Y0031655D01*
X0038220Y0031608D01*
X0038359Y0031558D01*
X0038496Y0031503D01*
X0038632Y0031445D01*
X0038767Y0031384D01*
X0038900Y0031319D01*
X0039031Y0031250D01*
X0039160Y0031178D01*
X0039287Y0031102D01*
X0039412Y0031023D01*
X0039535Y0030940D01*
X0039656Y0030855D01*
X0039774Y0030766D01*
X0039890Y0030674D01*
X0040003Y0030578D01*
X0040114Y0030480D01*
X0040222Y0030379D01*
X0040328Y0030275D01*
X0040430Y0030169D01*
X0040530Y0030059D01*
X0040626Y0029947D01*
X0040720Y0029832D01*
X0040811Y0029715D01*
X0040898Y0029596D01*
X0040982Y0029474D01*
X0041063Y0029350D01*
X0041140Y0029224D01*
X0041214Y0029096D01*
X0041285Y0028966D01*
X0041352Y0028834D01*
X0041415Y0028700D01*
X0041475Y0028565D01*
X0041531Y0028428D01*
X0041584Y0028289D01*
X0041632Y0028149D01*
X0041677Y0028008D01*
X0041718Y0027866D01*
X0041756Y0027723D01*
X0041789Y0027579D01*
X0041819Y0027434D01*
X0041845Y0027288D01*
X0041866Y0027142D01*
X0041884Y0026995D01*
X0041898Y0026848D01*
X0041908Y0026700D01*
X0041914Y0026552D01*
X0041916Y0026404D01*
X0041914Y0026256D01*
X0041908Y0026108D01*
X0041898Y0025960D01*
X0041884Y0025813D01*
X0041866Y0025666D01*
X0041845Y0025520D01*
X0041819Y0025374D01*
X0041789Y0025229D01*
X0041756Y0025085D01*
X0041718Y0024942D01*
X0041677Y0024800D01*
X0041632Y0024659D01*
X0041584Y0024519D01*
X0041531Y0024380D01*
X0041475Y0024243D01*
X0041415Y0024108D01*
X0041352Y0023974D01*
X0041285Y0023842D01*
X0041214Y0023712D01*
X0041140Y0023584D01*
X0041063Y0023458D01*
X0040982Y0023334D01*
X0040898Y0023212D01*
X0040811Y0023093D01*
X0040720Y0022976D01*
X0040626Y0022861D01*
X0040530Y0022749D01*
X0040430Y0022639D01*
X0040328Y0022533D01*
X0040222Y0022429D01*
X0040114Y0022328D01*
X0040003Y0022230D01*
X0039890Y0022134D01*
X0039774Y0022042D01*
X0039656Y0021953D01*
X0039535Y0021868D01*
X0039412Y0021785D01*
X0039287Y0021706D01*
X0039160Y0021630D01*
X0039031Y0021558D01*
X0038900Y0021489D01*
X0038767Y0021424D01*
X0038632Y0021363D01*
X0038496Y0021305D01*
X0038359Y0021250D01*
X0038220Y0021200D01*
X0038079Y0021153D01*
X0037938Y0021110D01*
X0037795Y0021070D01*
X0037651Y0021035D01*
X0037507Y0021003D01*
X0037361Y0020976D01*
X0037215Y0020952D01*
X0037068Y0020932D01*
X0036921Y0020916D01*
X0036774Y0020904D01*
X0036626Y0020896D01*
X0036478Y0020892D01*
X0036330Y0020892D01*
X0036182Y0020896D01*
X0036034Y0020904D01*
X0035887Y0020916D01*
X0035740Y0020932D01*
X0035593Y0020952D01*
X0035447Y0020976D01*
X0035301Y0021003D01*
X0035157Y0021035D01*
X0035013Y0021070D01*
X0034870Y0021110D01*
X0034729Y0021153D01*
X0034588Y0021200D01*
X0034449Y0021250D01*
X0034312Y0021305D01*
X0034176Y0021363D01*
X0034041Y0021424D01*
X0033908Y0021489D01*
X0033777Y0021558D01*
X0033648Y0021630D01*
X0033521Y0021706D01*
X0033396Y0021785D01*
X0033273Y0021868D01*
X0033152Y0021953D01*
X0033034Y0022042D01*
X0032918Y0022134D01*
X0032805Y0022230D01*
X0032694Y0022328D01*
X0032586Y0022429D01*
X0032480Y0022533D01*
X0032378Y0022639D01*
X0032278Y0022749D01*
X0032182Y0022861D01*
X0032088Y0022976D01*
X0031997Y0023093D01*
X0031910Y0023212D01*
X0031826Y0023334D01*
X0031745Y0023458D01*
X0031668Y0023584D01*
X0031594Y0023712D01*
X0031523Y0023842D01*
X0031456Y0023974D01*
X0031393Y0024108D01*
X0031333Y0024243D01*
X0031277Y0024380D01*
X0031224Y0024519D01*
X0031176Y0024659D01*
X0031131Y0024800D01*
X0031090Y0024942D01*
X0031052Y0025085D01*
X0031019Y0025229D01*
X0030989Y0025374D01*
X0030963Y0025520D01*
X0030942Y0025666D01*
X0030924Y0025813D01*
X0030910Y0025960D01*
X0030900Y0026108D01*
X0030894Y0026256D01*
X0030892Y0026404D01*
X0039632Y0102742D02*
X0039634Y0102826D01*
X0039640Y0102909D01*
X0039650Y0102992D01*
X0039664Y0103075D01*
X0039681Y0103157D01*
X0039703Y0103238D01*
X0039728Y0103317D01*
X0039757Y0103396D01*
X0039790Y0103473D01*
X0039826Y0103548D01*
X0039866Y0103622D01*
X0039909Y0103694D01*
X0039956Y0103763D01*
X0040006Y0103830D01*
X0040059Y0103895D01*
X0040115Y0103957D01*
X0040173Y0104017D01*
X0040235Y0104074D01*
X0040299Y0104127D01*
X0040366Y0104178D01*
X0040435Y0104225D01*
X0040506Y0104270D01*
X0040579Y0104310D01*
X0040654Y0104347D01*
X0040731Y0104381D01*
X0040809Y0104411D01*
X0040888Y0104437D01*
X0040969Y0104460D01*
X0041051Y0104478D01*
X0041133Y0104493D01*
X0041216Y0104504D01*
X0041299Y0104511D01*
X0041383Y0104514D01*
X0041467Y0104513D01*
X0041550Y0104508D01*
X0041634Y0104499D01*
X0041716Y0104486D01*
X0041798Y0104470D01*
X0041879Y0104449D01*
X0041960Y0104425D01*
X0042038Y0104397D01*
X0042116Y0104365D01*
X0042192Y0104329D01*
X0042266Y0104290D01*
X0042338Y0104248D01*
X0042408Y0104202D01*
X0042476Y0104153D01*
X0042541Y0104101D01*
X0042604Y0104046D01*
X0042664Y0103988D01*
X0042722Y0103927D01*
X0042776Y0103863D01*
X0042828Y0103797D01*
X0042876Y0103729D01*
X0042921Y0103658D01*
X0042962Y0103585D01*
X0043001Y0103511D01*
X0043035Y0103435D01*
X0043066Y0103357D01*
X0043093Y0103278D01*
X0043117Y0103197D01*
X0043136Y0103116D01*
X0043152Y0103034D01*
X0043164Y0102951D01*
X0043172Y0102867D01*
X0043176Y0102784D01*
X0043176Y0102700D01*
X0043172Y0102617D01*
X0043164Y0102533D01*
X0043152Y0102450D01*
X0043136Y0102368D01*
X0043117Y0102287D01*
X0043093Y0102206D01*
X0043066Y0102127D01*
X0043035Y0102049D01*
X0043001Y0101973D01*
X0042962Y0101899D01*
X0042921Y0101826D01*
X0042876Y0101755D01*
X0042828Y0101687D01*
X0042776Y0101621D01*
X0042722Y0101557D01*
X0042664Y0101496D01*
X0042604Y0101438D01*
X0042541Y0101383D01*
X0042476Y0101331D01*
X0042408Y0101282D01*
X0042338Y0101236D01*
X0042266Y0101194D01*
X0042192Y0101155D01*
X0042116Y0101119D01*
X0042038Y0101087D01*
X0041960Y0101059D01*
X0041879Y0101035D01*
X0041798Y0101014D01*
X0041716Y0100998D01*
X0041634Y0100985D01*
X0041550Y0100976D01*
X0041467Y0100971D01*
X0041383Y0100970D01*
X0041299Y0100973D01*
X0041216Y0100980D01*
X0041133Y0100991D01*
X0041051Y0101006D01*
X0040969Y0101024D01*
X0040888Y0101047D01*
X0040809Y0101073D01*
X0040731Y0101103D01*
X0040654Y0101137D01*
X0040579Y0101174D01*
X0040506Y0101214D01*
X0040435Y0101259D01*
X0040366Y0101306D01*
X0040299Y0101357D01*
X0040235Y0101410D01*
X0040173Y0101467D01*
X0040115Y0101527D01*
X0040059Y0101589D01*
X0040006Y0101654D01*
X0039956Y0101721D01*
X0039909Y0101790D01*
X0039866Y0101862D01*
X0039826Y0101936D01*
X0039790Y0102011D01*
X0039757Y0102088D01*
X0039728Y0102167D01*
X0039703Y0102246D01*
X0039681Y0102327D01*
X0039664Y0102409D01*
X0039650Y0102492D01*
X0039640Y0102575D01*
X0039634Y0102658D01*
X0039632Y0102742D01*
X0039632Y0120065D02*
X0039634Y0120149D01*
X0039640Y0120232D01*
X0039650Y0120315D01*
X0039664Y0120398D01*
X0039681Y0120480D01*
X0039703Y0120561D01*
X0039728Y0120640D01*
X0039757Y0120719D01*
X0039790Y0120796D01*
X0039826Y0120871D01*
X0039866Y0120945D01*
X0039909Y0121017D01*
X0039956Y0121086D01*
X0040006Y0121153D01*
X0040059Y0121218D01*
X0040115Y0121280D01*
X0040173Y0121340D01*
X0040235Y0121397D01*
X0040299Y0121450D01*
X0040366Y0121501D01*
X0040435Y0121548D01*
X0040506Y0121593D01*
X0040579Y0121633D01*
X0040654Y0121670D01*
X0040731Y0121704D01*
X0040809Y0121734D01*
X0040888Y0121760D01*
X0040969Y0121783D01*
X0041051Y0121801D01*
X0041133Y0121816D01*
X0041216Y0121827D01*
X0041299Y0121834D01*
X0041383Y0121837D01*
X0041467Y0121836D01*
X0041550Y0121831D01*
X0041634Y0121822D01*
X0041716Y0121809D01*
X0041798Y0121793D01*
X0041879Y0121772D01*
X0041960Y0121748D01*
X0042038Y0121720D01*
X0042116Y0121688D01*
X0042192Y0121652D01*
X0042266Y0121613D01*
X0042338Y0121571D01*
X0042408Y0121525D01*
X0042476Y0121476D01*
X0042541Y0121424D01*
X0042604Y0121369D01*
X0042664Y0121311D01*
X0042722Y0121250D01*
X0042776Y0121186D01*
X0042828Y0121120D01*
X0042876Y0121052D01*
X0042921Y0120981D01*
X0042962Y0120908D01*
X0043001Y0120834D01*
X0043035Y0120758D01*
X0043066Y0120680D01*
X0043093Y0120601D01*
X0043117Y0120520D01*
X0043136Y0120439D01*
X0043152Y0120357D01*
X0043164Y0120274D01*
X0043172Y0120190D01*
X0043176Y0120107D01*
X0043176Y0120023D01*
X0043172Y0119940D01*
X0043164Y0119856D01*
X0043152Y0119773D01*
X0043136Y0119691D01*
X0043117Y0119610D01*
X0043093Y0119529D01*
X0043066Y0119450D01*
X0043035Y0119372D01*
X0043001Y0119296D01*
X0042962Y0119222D01*
X0042921Y0119149D01*
X0042876Y0119078D01*
X0042828Y0119010D01*
X0042776Y0118944D01*
X0042722Y0118880D01*
X0042664Y0118819D01*
X0042604Y0118761D01*
X0042541Y0118706D01*
X0042476Y0118654D01*
X0042408Y0118605D01*
X0042338Y0118559D01*
X0042266Y0118517D01*
X0042192Y0118478D01*
X0042116Y0118442D01*
X0042038Y0118410D01*
X0041960Y0118382D01*
X0041879Y0118358D01*
X0041798Y0118337D01*
X0041716Y0118321D01*
X0041634Y0118308D01*
X0041550Y0118299D01*
X0041467Y0118294D01*
X0041383Y0118293D01*
X0041299Y0118296D01*
X0041216Y0118303D01*
X0041133Y0118314D01*
X0041051Y0118329D01*
X0040969Y0118347D01*
X0040888Y0118370D01*
X0040809Y0118396D01*
X0040731Y0118426D01*
X0040654Y0118460D01*
X0040579Y0118497D01*
X0040506Y0118537D01*
X0040435Y0118582D01*
X0040366Y0118629D01*
X0040299Y0118680D01*
X0040235Y0118733D01*
X0040173Y0118790D01*
X0040115Y0118850D01*
X0040059Y0118912D01*
X0040006Y0118977D01*
X0039956Y0119044D01*
X0039909Y0119113D01*
X0039866Y0119185D01*
X0039826Y0119259D01*
X0039790Y0119334D01*
X0039757Y0119411D01*
X0039728Y0119490D01*
X0039703Y0119569D01*
X0039681Y0119650D01*
X0039664Y0119732D01*
X0039650Y0119815D01*
X0039640Y0119898D01*
X0039634Y0119981D01*
X0039632Y0120065D01*
X0030892Y0181404D02*
X0030894Y0181552D01*
X0030900Y0181700D01*
X0030910Y0181848D01*
X0030924Y0181995D01*
X0030942Y0182142D01*
X0030963Y0182288D01*
X0030989Y0182434D01*
X0031019Y0182579D01*
X0031052Y0182723D01*
X0031090Y0182866D01*
X0031131Y0183008D01*
X0031176Y0183149D01*
X0031224Y0183289D01*
X0031277Y0183428D01*
X0031333Y0183565D01*
X0031393Y0183700D01*
X0031456Y0183834D01*
X0031523Y0183966D01*
X0031594Y0184096D01*
X0031668Y0184224D01*
X0031745Y0184350D01*
X0031826Y0184474D01*
X0031910Y0184596D01*
X0031997Y0184715D01*
X0032088Y0184832D01*
X0032182Y0184947D01*
X0032278Y0185059D01*
X0032378Y0185169D01*
X0032480Y0185275D01*
X0032586Y0185379D01*
X0032694Y0185480D01*
X0032805Y0185578D01*
X0032918Y0185674D01*
X0033034Y0185766D01*
X0033152Y0185855D01*
X0033273Y0185940D01*
X0033396Y0186023D01*
X0033521Y0186102D01*
X0033648Y0186178D01*
X0033777Y0186250D01*
X0033908Y0186319D01*
X0034041Y0186384D01*
X0034176Y0186445D01*
X0034312Y0186503D01*
X0034449Y0186558D01*
X0034588Y0186608D01*
X0034729Y0186655D01*
X0034870Y0186698D01*
X0035013Y0186738D01*
X0035157Y0186773D01*
X0035301Y0186805D01*
X0035447Y0186832D01*
X0035593Y0186856D01*
X0035740Y0186876D01*
X0035887Y0186892D01*
X0036034Y0186904D01*
X0036182Y0186912D01*
X0036330Y0186916D01*
X0036478Y0186916D01*
X0036626Y0186912D01*
X0036774Y0186904D01*
X0036921Y0186892D01*
X0037068Y0186876D01*
X0037215Y0186856D01*
X0037361Y0186832D01*
X0037507Y0186805D01*
X0037651Y0186773D01*
X0037795Y0186738D01*
X0037938Y0186698D01*
X0038079Y0186655D01*
X0038220Y0186608D01*
X0038359Y0186558D01*
X0038496Y0186503D01*
X0038632Y0186445D01*
X0038767Y0186384D01*
X0038900Y0186319D01*
X0039031Y0186250D01*
X0039160Y0186178D01*
X0039287Y0186102D01*
X0039412Y0186023D01*
X0039535Y0185940D01*
X0039656Y0185855D01*
X0039774Y0185766D01*
X0039890Y0185674D01*
X0040003Y0185578D01*
X0040114Y0185480D01*
X0040222Y0185379D01*
X0040328Y0185275D01*
X0040430Y0185169D01*
X0040530Y0185059D01*
X0040626Y0184947D01*
X0040720Y0184832D01*
X0040811Y0184715D01*
X0040898Y0184596D01*
X0040982Y0184474D01*
X0041063Y0184350D01*
X0041140Y0184224D01*
X0041214Y0184096D01*
X0041285Y0183966D01*
X0041352Y0183834D01*
X0041415Y0183700D01*
X0041475Y0183565D01*
X0041531Y0183428D01*
X0041584Y0183289D01*
X0041632Y0183149D01*
X0041677Y0183008D01*
X0041718Y0182866D01*
X0041756Y0182723D01*
X0041789Y0182579D01*
X0041819Y0182434D01*
X0041845Y0182288D01*
X0041866Y0182142D01*
X0041884Y0181995D01*
X0041898Y0181848D01*
X0041908Y0181700D01*
X0041914Y0181552D01*
X0041916Y0181404D01*
X0041914Y0181256D01*
X0041908Y0181108D01*
X0041898Y0180960D01*
X0041884Y0180813D01*
X0041866Y0180666D01*
X0041845Y0180520D01*
X0041819Y0180374D01*
X0041789Y0180229D01*
X0041756Y0180085D01*
X0041718Y0179942D01*
X0041677Y0179800D01*
X0041632Y0179659D01*
X0041584Y0179519D01*
X0041531Y0179380D01*
X0041475Y0179243D01*
X0041415Y0179108D01*
X0041352Y0178974D01*
X0041285Y0178842D01*
X0041214Y0178712D01*
X0041140Y0178584D01*
X0041063Y0178458D01*
X0040982Y0178334D01*
X0040898Y0178212D01*
X0040811Y0178093D01*
X0040720Y0177976D01*
X0040626Y0177861D01*
X0040530Y0177749D01*
X0040430Y0177639D01*
X0040328Y0177533D01*
X0040222Y0177429D01*
X0040114Y0177328D01*
X0040003Y0177230D01*
X0039890Y0177134D01*
X0039774Y0177042D01*
X0039656Y0176953D01*
X0039535Y0176868D01*
X0039412Y0176785D01*
X0039287Y0176706D01*
X0039160Y0176630D01*
X0039031Y0176558D01*
X0038900Y0176489D01*
X0038767Y0176424D01*
X0038632Y0176363D01*
X0038496Y0176305D01*
X0038359Y0176250D01*
X0038220Y0176200D01*
X0038079Y0176153D01*
X0037938Y0176110D01*
X0037795Y0176070D01*
X0037651Y0176035D01*
X0037507Y0176003D01*
X0037361Y0175976D01*
X0037215Y0175952D01*
X0037068Y0175932D01*
X0036921Y0175916D01*
X0036774Y0175904D01*
X0036626Y0175896D01*
X0036478Y0175892D01*
X0036330Y0175892D01*
X0036182Y0175896D01*
X0036034Y0175904D01*
X0035887Y0175916D01*
X0035740Y0175932D01*
X0035593Y0175952D01*
X0035447Y0175976D01*
X0035301Y0176003D01*
X0035157Y0176035D01*
X0035013Y0176070D01*
X0034870Y0176110D01*
X0034729Y0176153D01*
X0034588Y0176200D01*
X0034449Y0176250D01*
X0034312Y0176305D01*
X0034176Y0176363D01*
X0034041Y0176424D01*
X0033908Y0176489D01*
X0033777Y0176558D01*
X0033648Y0176630D01*
X0033521Y0176706D01*
X0033396Y0176785D01*
X0033273Y0176868D01*
X0033152Y0176953D01*
X0033034Y0177042D01*
X0032918Y0177134D01*
X0032805Y0177230D01*
X0032694Y0177328D01*
X0032586Y0177429D01*
X0032480Y0177533D01*
X0032378Y0177639D01*
X0032278Y0177749D01*
X0032182Y0177861D01*
X0032088Y0177976D01*
X0031997Y0178093D01*
X0031910Y0178212D01*
X0031826Y0178334D01*
X0031745Y0178458D01*
X0031668Y0178584D01*
X0031594Y0178712D01*
X0031523Y0178842D01*
X0031456Y0178974D01*
X0031393Y0179108D01*
X0031333Y0179243D01*
X0031277Y0179380D01*
X0031224Y0179519D01*
X0031176Y0179659D01*
X0031131Y0179800D01*
X0031090Y0179942D01*
X0031052Y0180085D01*
X0031019Y0180229D01*
X0030989Y0180374D01*
X0030963Y0180520D01*
X0030942Y0180666D01*
X0030924Y0180813D01*
X0030910Y0180960D01*
X0030900Y0181108D01*
X0030894Y0181256D01*
X0030892Y0181404D01*
X0275892Y0181404D02*
X0275894Y0181552D01*
X0275900Y0181700D01*
X0275910Y0181848D01*
X0275924Y0181995D01*
X0275942Y0182142D01*
X0275963Y0182288D01*
X0275989Y0182434D01*
X0276019Y0182579D01*
X0276052Y0182723D01*
X0276090Y0182866D01*
X0276131Y0183008D01*
X0276176Y0183149D01*
X0276224Y0183289D01*
X0276277Y0183428D01*
X0276333Y0183565D01*
X0276393Y0183700D01*
X0276456Y0183834D01*
X0276523Y0183966D01*
X0276594Y0184096D01*
X0276668Y0184224D01*
X0276745Y0184350D01*
X0276826Y0184474D01*
X0276910Y0184596D01*
X0276997Y0184715D01*
X0277088Y0184832D01*
X0277182Y0184947D01*
X0277278Y0185059D01*
X0277378Y0185169D01*
X0277480Y0185275D01*
X0277586Y0185379D01*
X0277694Y0185480D01*
X0277805Y0185578D01*
X0277918Y0185674D01*
X0278034Y0185766D01*
X0278152Y0185855D01*
X0278273Y0185940D01*
X0278396Y0186023D01*
X0278521Y0186102D01*
X0278648Y0186178D01*
X0278777Y0186250D01*
X0278908Y0186319D01*
X0279041Y0186384D01*
X0279176Y0186445D01*
X0279312Y0186503D01*
X0279449Y0186558D01*
X0279588Y0186608D01*
X0279729Y0186655D01*
X0279870Y0186698D01*
X0280013Y0186738D01*
X0280157Y0186773D01*
X0280301Y0186805D01*
X0280447Y0186832D01*
X0280593Y0186856D01*
X0280740Y0186876D01*
X0280887Y0186892D01*
X0281034Y0186904D01*
X0281182Y0186912D01*
X0281330Y0186916D01*
X0281478Y0186916D01*
X0281626Y0186912D01*
X0281774Y0186904D01*
X0281921Y0186892D01*
X0282068Y0186876D01*
X0282215Y0186856D01*
X0282361Y0186832D01*
X0282507Y0186805D01*
X0282651Y0186773D01*
X0282795Y0186738D01*
X0282938Y0186698D01*
X0283079Y0186655D01*
X0283220Y0186608D01*
X0283359Y0186558D01*
X0283496Y0186503D01*
X0283632Y0186445D01*
X0283767Y0186384D01*
X0283900Y0186319D01*
X0284031Y0186250D01*
X0284160Y0186178D01*
X0284287Y0186102D01*
X0284412Y0186023D01*
X0284535Y0185940D01*
X0284656Y0185855D01*
X0284774Y0185766D01*
X0284890Y0185674D01*
X0285003Y0185578D01*
X0285114Y0185480D01*
X0285222Y0185379D01*
X0285328Y0185275D01*
X0285430Y0185169D01*
X0285530Y0185059D01*
X0285626Y0184947D01*
X0285720Y0184832D01*
X0285811Y0184715D01*
X0285898Y0184596D01*
X0285982Y0184474D01*
X0286063Y0184350D01*
X0286140Y0184224D01*
X0286214Y0184096D01*
X0286285Y0183966D01*
X0286352Y0183834D01*
X0286415Y0183700D01*
X0286475Y0183565D01*
X0286531Y0183428D01*
X0286584Y0183289D01*
X0286632Y0183149D01*
X0286677Y0183008D01*
X0286718Y0182866D01*
X0286756Y0182723D01*
X0286789Y0182579D01*
X0286819Y0182434D01*
X0286845Y0182288D01*
X0286866Y0182142D01*
X0286884Y0181995D01*
X0286898Y0181848D01*
X0286908Y0181700D01*
X0286914Y0181552D01*
X0286916Y0181404D01*
X0286914Y0181256D01*
X0286908Y0181108D01*
X0286898Y0180960D01*
X0286884Y0180813D01*
X0286866Y0180666D01*
X0286845Y0180520D01*
X0286819Y0180374D01*
X0286789Y0180229D01*
X0286756Y0180085D01*
X0286718Y0179942D01*
X0286677Y0179800D01*
X0286632Y0179659D01*
X0286584Y0179519D01*
X0286531Y0179380D01*
X0286475Y0179243D01*
X0286415Y0179108D01*
X0286352Y0178974D01*
X0286285Y0178842D01*
X0286214Y0178712D01*
X0286140Y0178584D01*
X0286063Y0178458D01*
X0285982Y0178334D01*
X0285898Y0178212D01*
X0285811Y0178093D01*
X0285720Y0177976D01*
X0285626Y0177861D01*
X0285530Y0177749D01*
X0285430Y0177639D01*
X0285328Y0177533D01*
X0285222Y0177429D01*
X0285114Y0177328D01*
X0285003Y0177230D01*
X0284890Y0177134D01*
X0284774Y0177042D01*
X0284656Y0176953D01*
X0284535Y0176868D01*
X0284412Y0176785D01*
X0284287Y0176706D01*
X0284160Y0176630D01*
X0284031Y0176558D01*
X0283900Y0176489D01*
X0283767Y0176424D01*
X0283632Y0176363D01*
X0283496Y0176305D01*
X0283359Y0176250D01*
X0283220Y0176200D01*
X0283079Y0176153D01*
X0282938Y0176110D01*
X0282795Y0176070D01*
X0282651Y0176035D01*
X0282507Y0176003D01*
X0282361Y0175976D01*
X0282215Y0175952D01*
X0282068Y0175932D01*
X0281921Y0175916D01*
X0281774Y0175904D01*
X0281626Y0175896D01*
X0281478Y0175892D01*
X0281330Y0175892D01*
X0281182Y0175896D01*
X0281034Y0175904D01*
X0280887Y0175916D01*
X0280740Y0175932D01*
X0280593Y0175952D01*
X0280447Y0175976D01*
X0280301Y0176003D01*
X0280157Y0176035D01*
X0280013Y0176070D01*
X0279870Y0176110D01*
X0279729Y0176153D01*
X0279588Y0176200D01*
X0279449Y0176250D01*
X0279312Y0176305D01*
X0279176Y0176363D01*
X0279041Y0176424D01*
X0278908Y0176489D01*
X0278777Y0176558D01*
X0278648Y0176630D01*
X0278521Y0176706D01*
X0278396Y0176785D01*
X0278273Y0176868D01*
X0278152Y0176953D01*
X0278034Y0177042D01*
X0277918Y0177134D01*
X0277805Y0177230D01*
X0277694Y0177328D01*
X0277586Y0177429D01*
X0277480Y0177533D01*
X0277378Y0177639D01*
X0277278Y0177749D01*
X0277182Y0177861D01*
X0277088Y0177976D01*
X0276997Y0178093D01*
X0276910Y0178212D01*
X0276826Y0178334D01*
X0276745Y0178458D01*
X0276668Y0178584D01*
X0276594Y0178712D01*
X0276523Y0178842D01*
X0276456Y0178974D01*
X0276393Y0179108D01*
X0276333Y0179243D01*
X0276277Y0179380D01*
X0276224Y0179519D01*
X0276176Y0179659D01*
X0276131Y0179800D01*
X0276090Y0179942D01*
X0276052Y0180085D01*
X0276019Y0180229D01*
X0275989Y0180374D01*
X0275963Y0180520D01*
X0275942Y0180666D01*
X0275924Y0180813D01*
X0275910Y0180960D01*
X0275900Y0181108D01*
X0275894Y0181256D01*
X0275892Y0181404D01*
X0275892Y0026404D02*
X0275894Y0026552D01*
X0275900Y0026700D01*
X0275910Y0026848D01*
X0275924Y0026995D01*
X0275942Y0027142D01*
X0275963Y0027288D01*
X0275989Y0027434D01*
X0276019Y0027579D01*
X0276052Y0027723D01*
X0276090Y0027866D01*
X0276131Y0028008D01*
X0276176Y0028149D01*
X0276224Y0028289D01*
X0276277Y0028428D01*
X0276333Y0028565D01*
X0276393Y0028700D01*
X0276456Y0028834D01*
X0276523Y0028966D01*
X0276594Y0029096D01*
X0276668Y0029224D01*
X0276745Y0029350D01*
X0276826Y0029474D01*
X0276910Y0029596D01*
X0276997Y0029715D01*
X0277088Y0029832D01*
X0277182Y0029947D01*
X0277278Y0030059D01*
X0277378Y0030169D01*
X0277480Y0030275D01*
X0277586Y0030379D01*
X0277694Y0030480D01*
X0277805Y0030578D01*
X0277918Y0030674D01*
X0278034Y0030766D01*
X0278152Y0030855D01*
X0278273Y0030940D01*
X0278396Y0031023D01*
X0278521Y0031102D01*
X0278648Y0031178D01*
X0278777Y0031250D01*
X0278908Y0031319D01*
X0279041Y0031384D01*
X0279176Y0031445D01*
X0279312Y0031503D01*
X0279449Y0031558D01*
X0279588Y0031608D01*
X0279729Y0031655D01*
X0279870Y0031698D01*
X0280013Y0031738D01*
X0280157Y0031773D01*
X0280301Y0031805D01*
X0280447Y0031832D01*
X0280593Y0031856D01*
X0280740Y0031876D01*
X0280887Y0031892D01*
X0281034Y0031904D01*
X0281182Y0031912D01*
X0281330Y0031916D01*
X0281478Y0031916D01*
X0281626Y0031912D01*
X0281774Y0031904D01*
X0281921Y0031892D01*
X0282068Y0031876D01*
X0282215Y0031856D01*
X0282361Y0031832D01*
X0282507Y0031805D01*
X0282651Y0031773D01*
X0282795Y0031738D01*
X0282938Y0031698D01*
X0283079Y0031655D01*
X0283220Y0031608D01*
X0283359Y0031558D01*
X0283496Y0031503D01*
X0283632Y0031445D01*
X0283767Y0031384D01*
X0283900Y0031319D01*
X0284031Y0031250D01*
X0284160Y0031178D01*
X0284287Y0031102D01*
X0284412Y0031023D01*
X0284535Y0030940D01*
X0284656Y0030855D01*
X0284774Y0030766D01*
X0284890Y0030674D01*
X0285003Y0030578D01*
X0285114Y0030480D01*
X0285222Y0030379D01*
X0285328Y0030275D01*
X0285430Y0030169D01*
X0285530Y0030059D01*
X0285626Y0029947D01*
X0285720Y0029832D01*
X0285811Y0029715D01*
X0285898Y0029596D01*
X0285982Y0029474D01*
X0286063Y0029350D01*
X0286140Y0029224D01*
X0286214Y0029096D01*
X0286285Y0028966D01*
X0286352Y0028834D01*
X0286415Y0028700D01*
X0286475Y0028565D01*
X0286531Y0028428D01*
X0286584Y0028289D01*
X0286632Y0028149D01*
X0286677Y0028008D01*
X0286718Y0027866D01*
X0286756Y0027723D01*
X0286789Y0027579D01*
X0286819Y0027434D01*
X0286845Y0027288D01*
X0286866Y0027142D01*
X0286884Y0026995D01*
X0286898Y0026848D01*
X0286908Y0026700D01*
X0286914Y0026552D01*
X0286916Y0026404D01*
X0286914Y0026256D01*
X0286908Y0026108D01*
X0286898Y0025960D01*
X0286884Y0025813D01*
X0286866Y0025666D01*
X0286845Y0025520D01*
X0286819Y0025374D01*
X0286789Y0025229D01*
X0286756Y0025085D01*
X0286718Y0024942D01*
X0286677Y0024800D01*
X0286632Y0024659D01*
X0286584Y0024519D01*
X0286531Y0024380D01*
X0286475Y0024243D01*
X0286415Y0024108D01*
X0286352Y0023974D01*
X0286285Y0023842D01*
X0286214Y0023712D01*
X0286140Y0023584D01*
X0286063Y0023458D01*
X0285982Y0023334D01*
X0285898Y0023212D01*
X0285811Y0023093D01*
X0285720Y0022976D01*
X0285626Y0022861D01*
X0285530Y0022749D01*
X0285430Y0022639D01*
X0285328Y0022533D01*
X0285222Y0022429D01*
X0285114Y0022328D01*
X0285003Y0022230D01*
X0284890Y0022134D01*
X0284774Y0022042D01*
X0284656Y0021953D01*
X0284535Y0021868D01*
X0284412Y0021785D01*
X0284287Y0021706D01*
X0284160Y0021630D01*
X0284031Y0021558D01*
X0283900Y0021489D01*
X0283767Y0021424D01*
X0283632Y0021363D01*
X0283496Y0021305D01*
X0283359Y0021250D01*
X0283220Y0021200D01*
X0283079Y0021153D01*
X0282938Y0021110D01*
X0282795Y0021070D01*
X0282651Y0021035D01*
X0282507Y0021003D01*
X0282361Y0020976D01*
X0282215Y0020952D01*
X0282068Y0020932D01*
X0281921Y0020916D01*
X0281774Y0020904D01*
X0281626Y0020896D01*
X0281478Y0020892D01*
X0281330Y0020892D01*
X0281182Y0020896D01*
X0281034Y0020904D01*
X0280887Y0020916D01*
X0280740Y0020932D01*
X0280593Y0020952D01*
X0280447Y0020976D01*
X0280301Y0021003D01*
X0280157Y0021035D01*
X0280013Y0021070D01*
X0279870Y0021110D01*
X0279729Y0021153D01*
X0279588Y0021200D01*
X0279449Y0021250D01*
X0279312Y0021305D01*
X0279176Y0021363D01*
X0279041Y0021424D01*
X0278908Y0021489D01*
X0278777Y0021558D01*
X0278648Y0021630D01*
X0278521Y0021706D01*
X0278396Y0021785D01*
X0278273Y0021868D01*
X0278152Y0021953D01*
X0278034Y0022042D01*
X0277918Y0022134D01*
X0277805Y0022230D01*
X0277694Y0022328D01*
X0277586Y0022429D01*
X0277480Y0022533D01*
X0277378Y0022639D01*
X0277278Y0022749D01*
X0277182Y0022861D01*
X0277088Y0022976D01*
X0276997Y0023093D01*
X0276910Y0023212D01*
X0276826Y0023334D01*
X0276745Y0023458D01*
X0276668Y0023584D01*
X0276594Y0023712D01*
X0276523Y0023842D01*
X0276456Y0023974D01*
X0276393Y0024108D01*
X0276333Y0024243D01*
X0276277Y0024380D01*
X0276224Y0024519D01*
X0276176Y0024659D01*
X0276131Y0024800D01*
X0276090Y0024942D01*
X0276052Y0025085D01*
X0276019Y0025229D01*
X0275989Y0025374D01*
X0275963Y0025520D01*
X0275942Y0025666D01*
X0275924Y0025813D01*
X0275910Y0025960D01*
X0275900Y0026108D01*
X0275894Y0026256D01*
X0275892Y0026404D01*
D11*
X0211404Y0082663D03*
X0211404Y0090144D03*
X0201404Y0132663D03*
X0201404Y0140144D03*
X0201404Y0152663D03*
X0201404Y0160144D03*
X0221404Y0160144D03*
X0221404Y0152663D03*
X0246404Y0157663D03*
X0246404Y0165144D03*
X0271404Y0165144D03*
X0271404Y0157663D03*
X0286404Y0157663D03*
X0286404Y0165144D03*
X0181404Y0160144D03*
X0181404Y0152663D03*
X0141404Y0135144D03*
X0141404Y0127663D03*
X0141886Y0103146D03*
X0141886Y0095665D03*
X0116404Y0095163D03*
X0116404Y0102644D03*
X0096404Y0102644D03*
X0096404Y0095163D03*
X0066404Y0095144D03*
X0066404Y0087663D03*
X0086404Y0122663D03*
X0086404Y0130144D03*
X0121404Y0152663D03*
X0121404Y0160144D03*
X0136404Y0172663D03*
X0136404Y0180144D03*
D12*
X0105144Y0156404D03*
X0097663Y0156404D03*
X0088864Y0153175D03*
X0081384Y0153175D03*
X0070144Y0141404D03*
X0062663Y0141404D03*
X0077663Y0101404D03*
X0085144Y0101404D03*
X0087663Y0066404D03*
X0095144Y0066404D03*
X0105163Y0066404D03*
X0112644Y0066404D03*
X0152663Y0071404D03*
X0160144Y0071404D03*
X0232663Y0061404D03*
X0240144Y0061404D03*
X0252663Y0066404D03*
X0260144Y0066404D03*
X0277663Y0066404D03*
X0285144Y0066404D03*
X0285144Y0051404D03*
X0277663Y0051404D03*
X0260144Y0051404D03*
X0252663Y0051404D03*
X0257663Y0176404D03*
X0265144Y0176404D03*
X0190144Y0176404D03*
X0182663Y0176404D03*
D13*
X0128037Y0140675D03*
X0125478Y0140675D03*
X0122919Y0140675D03*
X0120360Y0140675D03*
X0117801Y0140675D03*
X0115242Y0140675D03*
X0112683Y0140675D03*
X0110124Y0140675D03*
X0107565Y0140675D03*
X0105006Y0140675D03*
X0102447Y0140675D03*
X0099888Y0140675D03*
X0097329Y0140675D03*
X0094770Y0140675D03*
X0094770Y0112132D03*
X0097329Y0112132D03*
X0099888Y0112132D03*
X0102447Y0112132D03*
X0105006Y0112132D03*
X0107565Y0112132D03*
X0110124Y0112132D03*
X0112683Y0112132D03*
X0115242Y0112132D03*
X0117801Y0112132D03*
X0120360Y0112132D03*
X0122919Y0112132D03*
X0125478Y0112132D03*
X0128037Y0112132D03*
D14*
X0152348Y0178805D03*
X0161404Y0178805D03*
X0170459Y0178805D03*
D15*
X0161404Y0154002D03*
D16*
X0066404Y0130341D03*
X0066404Y0122467D03*
D17*
X0076404Y0122270D03*
X0076404Y0130537D03*
X0096404Y0088037D03*
X0096404Y0079770D03*
X0116404Y0079770D03*
X0116404Y0088037D03*
X0186404Y0132270D03*
X0186404Y0140537D03*
D18*
X0156404Y0135404D03*
X0156404Y0097404D03*
D19*
X0177545Y0092053D03*
X0195262Y0092053D03*
X0195262Y0060754D03*
X0177545Y0060754D03*
D20*
X0175754Y0102545D03*
X0175754Y0120262D03*
X0207053Y0120262D03*
X0207053Y0102545D03*
D21*
X0140144Y0152073D03*
X0132663Y0152073D03*
X0136404Y0160734D03*
X0121404Y0172073D03*
X0125144Y0180734D03*
X0117663Y0180734D03*
D22*
X0234120Y0144081D03*
X0241994Y0144081D03*
X0249868Y0144081D03*
X0257742Y0144081D03*
X0265616Y0144081D03*
X0273490Y0144081D03*
X0281364Y0144081D03*
X0289238Y0144081D03*
X0289238Y0079514D03*
X0281364Y0079514D03*
X0273490Y0079514D03*
X0265616Y0079514D03*
X0257742Y0079514D03*
X0249868Y0079514D03*
X0241994Y0079514D03*
X0234120Y0079514D03*
D23*
X0225852Y0090931D03*
X0225852Y0098805D03*
X0225852Y0106679D03*
X0225852Y0114553D03*
X0225852Y0122427D03*
X0225852Y0130301D03*
D24*
X0029593Y0128923D03*
X0029593Y0093884D03*
D25*
X0052821Y0093884D03*
X0052821Y0128923D03*
D26*
X0053215Y0117703D03*
X0053215Y0114553D03*
X0053215Y0111404D03*
X0053215Y0108254D03*
X0053215Y0105104D03*
D27*
X0111404Y0032447D02*
X0111404Y0025360D01*
X0121404Y0025360D02*
X0121404Y0032447D01*
X0131404Y0032447D02*
X0131404Y0025360D01*
X0141404Y0025360D02*
X0141404Y0032447D01*
X0151404Y0032447D02*
X0151404Y0025360D01*
X0161404Y0025360D02*
X0161404Y0032447D01*
X0171404Y0032447D02*
X0171404Y0025360D01*
X0181404Y0025360D02*
X0181404Y0032447D01*
X0191404Y0032447D02*
X0191404Y0025360D01*
X0201404Y0025360D02*
X0201404Y0032447D01*
X0211404Y0032447D02*
X0211404Y0025360D01*
X0221404Y0025360D02*
X0221404Y0032447D01*
X0231404Y0032447D02*
X0231404Y0025360D01*
X0241404Y0025360D02*
X0241404Y0032447D01*
X0251404Y0032447D02*
X0251404Y0025360D01*
X0261404Y0025360D02*
X0261404Y0032447D01*
D28*
X0259004Y0037504D02*
X0250904Y0029404D01*
X0251404Y0028904D01*
X0251804Y0028504D01*
X0243704Y0020404D01*
X0108704Y0020404D01*
X0044804Y0084304D01*
X0044804Y0089704D01*
X0034904Y0099604D01*
X0034904Y0123004D01*
X0036704Y0124804D01*
X0036704Y0125704D01*
X0073604Y0162604D01*
X0109604Y0162604D01*
X0113204Y0159004D01*
X0113204Y0152704D01*
X0117704Y0148204D01*
X0117704Y0141004D01*
X0117801Y0140675D01*
X0120360Y0140675D02*
X0120404Y0141004D01*
X0120404Y0144604D01*
X0121304Y0145504D01*
X0121304Y0147304D01*
X0125804Y0146404D02*
X0125804Y0152704D01*
X0122204Y0152704D01*
X0121404Y0152663D01*
X0125804Y0146404D02*
X0136404Y0146404D01*
X0140144Y0150144D01*
X0140144Y0152073D01*
X0132663Y0152073D02*
X0128441Y0156295D01*
X0128441Y0165193D01*
X0130902Y0170114D02*
X0123362Y0170114D01*
X0121404Y0172073D01*
X0122204Y0171604D01*
X0121404Y0176404D02*
X0118736Y0176404D01*
X0116138Y0173805D01*
X0116138Y0165193D01*
X0121187Y0160144D01*
X0121404Y0160144D01*
X0121304Y0160804D01*
X0130902Y0170114D02*
X0135704Y0165312D01*
X0135704Y0165304D01*
X0142904Y0165304D01*
X0144704Y0163504D01*
X0141104Y0159904D02*
X0142004Y0159004D01*
X0141104Y0159904D02*
X0136604Y0159904D01*
X0136404Y0160734D01*
X0150104Y0167104D02*
X0150104Y0152704D01*
X0133004Y0135604D01*
X0124904Y0135604D01*
X0123104Y0137404D01*
X0123104Y0140104D01*
X0122919Y0140675D01*
X0125478Y0140675D02*
X0125804Y0141004D01*
X0125804Y0146404D01*
X0128504Y0141004D02*
X0128037Y0140675D01*
X0128504Y0141004D02*
X0133004Y0141004D01*
X0141104Y0135604D02*
X0141404Y0135144D01*
X0142004Y0135604D01*
X0156404Y0135604D01*
X0156404Y0135404D01*
X0161804Y0141004D02*
X0161804Y0124804D01*
X0160904Y0123904D01*
X0160904Y0108604D01*
X0161804Y0107704D01*
X0161804Y0080704D01*
X0152804Y0071704D01*
X0152663Y0071404D01*
X0151904Y0070804D01*
X0151904Y0061804D01*
X0132104Y0042004D01*
X0111404Y0042004D01*
X0090704Y0062704D01*
X0090704Y0063604D01*
X0088004Y0066304D01*
X0087663Y0066404D01*
X0087104Y0067204D01*
X0067304Y0087004D01*
X0066404Y0087663D01*
X0066404Y0087004D01*
X0061904Y0091504D01*
X0061904Y0097804D01*
X0060104Y0099604D01*
X0059204Y0099604D01*
X0053804Y0105004D01*
X0053215Y0105104D01*
X0054622Y0104907D02*
X0062004Y0104907D01*
X0066404Y0104104D02*
X0071804Y0109504D01*
X0071804Y0113104D01*
X0071846Y0117211D01*
X0066404Y0122467D01*
X0066404Y0123004D01*
X0066404Y0122467D02*
X0066404Y0122104D01*
X0058804Y0118504D02*
X0053215Y0117703D01*
X0053804Y0114904D02*
X0053215Y0114553D01*
X0053804Y0114904D02*
X0060104Y0114904D01*
X0061904Y0116704D01*
X0067304Y0116704D01*
X0066973Y0111304D02*
X0053804Y0111304D01*
X0053215Y0111404D01*
X0066404Y0104104D02*
X0066404Y0095144D01*
X0066404Y0087904D02*
X0066404Y0087663D01*
X0066404Y0087904D02*
X0067304Y0087004D01*
X0077204Y0096904D01*
X0077204Y0101404D01*
X0077663Y0101404D01*
X0077204Y0101404D02*
X0077204Y0105404D01*
X0075164Y0112443D01*
X0075164Y0116043D01*
X0076304Y0122104D01*
X0076404Y0122270D01*
X0077204Y0122104D01*
X0086204Y0122104D01*
X0086404Y0122663D01*
X0087841Y0117211D02*
X0095222Y0117211D01*
X0097004Y0115804D01*
X0097004Y0112204D01*
X0097329Y0112132D01*
X0099704Y0112204D02*
X0099888Y0112132D01*
X0099704Y0111304D01*
X0099704Y0108604D01*
X0098804Y0107704D01*
X0093404Y0107704D01*
X0087104Y0101404D01*
X0087104Y0090604D01*
X0096104Y0081604D01*
X0096104Y0079804D01*
X0096404Y0079770D01*
X0097004Y0079804D01*
X0115904Y0079804D01*
X0116404Y0079770D01*
X0120404Y0082504D02*
X0120404Y0074404D01*
X0113204Y0067204D01*
X0112644Y0066404D01*
X0113204Y0066304D01*
X0115904Y0063604D01*
X0115904Y0045604D01*
X0132104Y0042004D02*
X0132104Y0029404D01*
X0131404Y0028904D01*
X0141404Y0028904D02*
X0142004Y0029404D01*
X0142004Y0033904D01*
X0183404Y0075304D01*
X0183404Y0124804D01*
X0180704Y0127504D01*
X0180704Y0141904D01*
X0186104Y0147304D01*
X0186104Y0152704D01*
X0214904Y0181504D01*
X0268004Y0181504D01*
X0270704Y0178804D01*
X0270704Y0165304D01*
X0271404Y0165144D01*
X0265304Y0163504D02*
X0270704Y0158104D01*
X0271404Y0157663D01*
X0271604Y0157204D01*
X0280604Y0148204D01*
X0280604Y0144604D01*
X0281364Y0144081D01*
X0286904Y0146404D02*
X0288704Y0144604D01*
X0289238Y0144081D01*
X0288704Y0143704D01*
X0288704Y0138704D01*
X0245104Y0095104D01*
X0241004Y0095104D01*
X0237404Y0091504D02*
X0248204Y0091504D01*
X0257204Y0082504D01*
X0257742Y0079514D01*
X0257204Y0079804D01*
X0257204Y0082504D01*
X0263504Y0088804D01*
X0282404Y0088804D01*
X0285104Y0086104D01*
X0285104Y0072604D01*
X0284204Y0071704D01*
X0282404Y0071704D01*
X0277904Y0067204D01*
X0277663Y0066404D01*
X0285104Y0066304D02*
X0285144Y0066404D01*
X0285104Y0066304D02*
X0285104Y0057304D01*
X0277004Y0057304D01*
X0273404Y0055504D02*
X0277004Y0051904D01*
X0277663Y0051404D01*
X0277004Y0051004D01*
X0272504Y0046504D01*
X0248204Y0046504D01*
X0236504Y0034804D01*
X0236504Y0033904D01*
X0232004Y0029404D01*
X0231404Y0028904D01*
X0222104Y0029404D02*
X0221404Y0028904D01*
X0222104Y0029404D02*
X0222104Y0033004D01*
X0251804Y0062704D01*
X0251804Y0066304D01*
X0252663Y0066404D01*
X0252704Y0067204D01*
X0257204Y0071704D01*
X0260804Y0071704D01*
X0265304Y0076204D01*
X0265304Y0078904D01*
X0265616Y0079514D01*
X0273404Y0078904D02*
X0273490Y0079514D01*
X0273404Y0078904D02*
X0273404Y0055504D01*
X0271604Y0051904D02*
X0260804Y0051904D01*
X0260144Y0051404D01*
X0259904Y0051904D01*
X0259904Y0066304D01*
X0260144Y0066404D01*
X0263504Y0060004D02*
X0269804Y0066304D01*
X0269804Y0086104D01*
X0270704Y0087004D01*
X0277004Y0087004D01*
X0280604Y0083404D01*
X0280604Y0079804D01*
X0281364Y0079514D01*
X0289238Y0079514D02*
X0289604Y0078904D01*
X0289604Y0048304D01*
X0278804Y0037504D01*
X0259004Y0037504D01*
X0261404Y0041404D02*
X0276404Y0041404D01*
X0285144Y0051404D02*
X0285104Y0051904D01*
X0285104Y0057304D01*
X0252663Y0051404D02*
X0251804Y0051004D01*
X0245504Y0051004D01*
X0233804Y0039304D01*
X0223904Y0037504D02*
X0209504Y0037504D01*
X0201404Y0029404D01*
X0201404Y0028904D01*
X0191504Y0029404D02*
X0191404Y0028904D01*
X0191504Y0029404D02*
X0218504Y0056404D01*
X0235604Y0056404D01*
X0240104Y0060904D01*
X0240144Y0061404D01*
X0241004Y0061804D01*
X0241004Y0078004D01*
X0241904Y0078904D01*
X0241994Y0079514D01*
X0249104Y0078904D02*
X0249868Y0079514D01*
X0249104Y0078904D02*
X0249104Y0070804D01*
X0244604Y0066304D01*
X0244604Y0058204D01*
X0223904Y0037504D01*
X0232663Y0061404D02*
X0232904Y0061804D01*
X0232904Y0069904D01*
X0232904Y0078004D01*
X0233804Y0078904D01*
X0234120Y0079514D01*
X0232904Y0087004D02*
X0231104Y0087004D01*
X0217604Y0073504D01*
X0217604Y0066304D01*
X0180704Y0029404D01*
X0181404Y0028904D01*
X0178904Y0037504D02*
X0170804Y0029404D01*
X0171404Y0028904D01*
X0161404Y0028904D02*
X0160904Y0029404D01*
X0183404Y0051904D01*
X0183404Y0069904D01*
X0212204Y0098704D01*
X0212204Y0107704D01*
X0215804Y0111304D02*
X0207704Y0119404D01*
X0207053Y0120262D01*
X0210404Y0124804D02*
X0212204Y0123004D01*
X0212204Y0117604D01*
X0223004Y0106804D01*
X0225704Y0106804D01*
X0225852Y0106679D01*
X0215804Y0111304D02*
X0215804Y0099604D01*
X0212204Y0096004D01*
X0212204Y0090604D01*
X0211404Y0090144D01*
X0215804Y0091504D02*
X0215804Y0073504D01*
X0179804Y0037504D01*
X0178904Y0037504D01*
X0161804Y0037504D02*
X0159104Y0037504D01*
X0151004Y0029404D01*
X0151404Y0028904D01*
X0161804Y0037504D02*
X0181604Y0057304D01*
X0181604Y0070804D01*
X0185204Y0074404D01*
X0185204Y0125704D01*
X0182504Y0128404D01*
X0182504Y0135604D01*
X0183404Y0136504D01*
X0189704Y0136504D01*
X0197804Y0144604D01*
X0221204Y0144604D01*
X0228404Y0151804D01*
X0236504Y0151804D01*
X0241904Y0146404D01*
X0241904Y0144604D01*
X0241994Y0144081D01*
X0249104Y0143704D02*
X0249104Y0141004D01*
X0238304Y0130204D01*
X0234704Y0130204D01*
X0242804Y0126604D02*
X0253604Y0137404D01*
X0253604Y0150904D01*
X0250904Y0153604D01*
X0242804Y0153604D01*
X0241904Y0154504D01*
X0241904Y0164404D01*
X0246404Y0164404D01*
X0246404Y0165144D01*
X0246404Y0164404D02*
X0261704Y0164404D01*
X0265304Y0163504D02*
X0265304Y0176104D01*
X0265144Y0176404D01*
X0257663Y0176404D02*
X0257204Y0176104D01*
X0237404Y0176104D01*
X0222104Y0160804D01*
X0221404Y0160144D01*
X0221204Y0160804D01*
X0211304Y0160804D01*
X0201404Y0160804D01*
X0201404Y0160144D01*
X0194204Y0163504D02*
X0215804Y0185104D01*
X0241004Y0185104D01*
X0241904Y0164404D02*
X0233804Y0164404D01*
X0222104Y0152704D01*
X0221404Y0152663D01*
X0221204Y0152704D01*
X0201404Y0152704D01*
X0201404Y0152663D01*
X0201404Y0151804D01*
X0190604Y0141004D01*
X0187004Y0141004D01*
X0186404Y0140537D01*
X0187004Y0132904D02*
X0186404Y0132270D01*
X0187004Y0132904D02*
X0194204Y0132904D01*
X0201404Y0140104D01*
X0201404Y0140144D01*
X0201404Y0132663D02*
X0201404Y0124804D01*
X0210404Y0124804D01*
X0218504Y0127504D02*
X0219404Y0126604D01*
X0242804Y0126604D01*
X0257204Y0119404D02*
X0232904Y0095104D01*
X0219404Y0095104D01*
X0215804Y0091504D01*
X0211404Y0082663D02*
X0211304Y0082504D01*
X0211304Y0077104D01*
X0232904Y0087004D02*
X0233804Y0087904D01*
X0233804Y0093304D01*
X0265304Y0124804D01*
X0265304Y0143704D01*
X0265616Y0144081D01*
X0273404Y0144604D02*
X0273490Y0144081D01*
X0273404Y0144604D02*
X0273404Y0146404D01*
X0262604Y0157204D01*
X0246404Y0157204D01*
X0246404Y0157663D01*
X0249868Y0144081D02*
X0249104Y0143704D01*
X0257204Y0143704D02*
X0257742Y0144081D01*
X0257204Y0143704D02*
X0257204Y0119404D01*
X0233804Y0143704D02*
X0228404Y0143704D01*
X0218504Y0133804D01*
X0218504Y0127504D01*
X0201404Y0124804D02*
X0201404Y0108604D01*
X0206804Y0103204D01*
X0207053Y0102545D01*
X0195104Y0092404D02*
X0195262Y0092053D01*
X0195104Y0092404D02*
X0188804Y0098704D01*
X0188804Y0119404D01*
X0181604Y0123904D02*
X0178904Y0126604D01*
X0178904Y0150004D01*
X0180704Y0151804D01*
X0181404Y0152663D01*
X0181604Y0152704D01*
X0186104Y0157204D01*
X0186104Y0163504D01*
X0194204Y0163504D01*
X0186104Y0163504D02*
X0185204Y0164404D01*
X0171704Y0164404D01*
X0161804Y0154504D01*
X0161404Y0154002D01*
X0160904Y0147304D02*
X0154604Y0147304D01*
X0151904Y0150004D01*
X0151904Y0158104D01*
X0171704Y0177904D01*
X0170459Y0178805D01*
X0170804Y0178804D01*
X0171704Y0177904D01*
X0172604Y0177004D01*
X0182504Y0177004D01*
X0182663Y0176404D01*
X0189704Y0177004D02*
X0190144Y0176404D01*
X0189704Y0177004D02*
X0182504Y0184204D01*
X0157304Y0184204D01*
X0152804Y0179704D01*
X0152348Y0178805D01*
X0151904Y0178804D01*
X0151904Y0172504D01*
X0151004Y0171604D01*
X0150104Y0167104D02*
X0136604Y0180604D01*
X0136404Y0180144D01*
X0135636Y0180144D01*
X0133362Y0182417D01*
X0133362Y0182713D01*
X0129671Y0186404D01*
X0121404Y0186404D01*
X0117663Y0182663D01*
X0117663Y0180734D01*
X0121404Y0176404D02*
X0125144Y0180144D01*
X0125144Y0180734D01*
X0129671Y0175035D02*
X0134031Y0175035D01*
X0136404Y0172663D01*
X0136604Y0172504D01*
X0136404Y0180144D02*
X0135704Y0180604D01*
X0106004Y0156304D02*
X0105144Y0156404D01*
X0106004Y0156304D02*
X0106004Y0151804D01*
X0107804Y0150004D01*
X0097663Y0156404D02*
X0097004Y0156304D01*
X0095204Y0154504D01*
X0095204Y0141004D01*
X0094770Y0140675D01*
X0107804Y0134704D02*
X0107804Y0123904D01*
X0099704Y0115804D01*
X0099704Y0112204D01*
X0102404Y0112204D02*
X0102447Y0112132D01*
X0102404Y0112204D02*
X0102404Y0115804D01*
X0103304Y0116704D01*
X0107804Y0116704D01*
X0112304Y0121204D01*
X0112304Y0122104D01*
X0116804Y0122104D01*
X0120404Y0118504D01*
X0120404Y0112204D01*
X0120360Y0112132D01*
X0120404Y0112204D02*
X0122204Y0112204D01*
X0122919Y0112132D01*
X0125478Y0112132D02*
X0125804Y0111304D01*
X0125804Y0108604D01*
X0138404Y0096004D01*
X0141104Y0096004D01*
X0141886Y0095665D01*
X0142004Y0096004D01*
X0155504Y0096004D01*
X0156404Y0096904D01*
X0156404Y0097404D01*
X0142004Y0103204D02*
X0141886Y0103146D01*
X0142004Y0103204D02*
X0142004Y0123904D01*
X0160904Y0123904D01*
X0142004Y0123904D02*
X0142004Y0127504D01*
X0141404Y0127663D01*
X0141104Y0135604D02*
X0128504Y0123004D01*
X0128504Y0112204D01*
X0128037Y0112132D01*
X0122204Y0105004D02*
X0119504Y0107704D01*
X0113204Y0107704D01*
X0112304Y0108604D01*
X0112304Y0111304D01*
X0112683Y0112132D01*
X0110504Y0112204D02*
X0110504Y0114904D01*
X0108704Y0116704D01*
X0107804Y0116704D01*
X0107565Y0112132D02*
X0107804Y0111304D01*
X0107804Y0108604D01*
X0110504Y0105904D01*
X0110504Y0105004D01*
X0111404Y0105004D02*
X0111404Y0086104D01*
X0113204Y0084304D01*
X0118604Y0084304D01*
X0120404Y0082504D01*
X0116404Y0088037D02*
X0116804Y0088804D01*
X0116804Y0095104D01*
X0116404Y0095163D01*
X0120404Y0101404D02*
X0125804Y0101404D01*
X0120404Y0101404D02*
X0119504Y0102304D01*
X0116804Y0102304D01*
X0116404Y0102644D01*
X0111404Y0105004D02*
X0110504Y0105904D01*
X0105104Y0105904D02*
X0105104Y0111304D01*
X0105006Y0112132D01*
X0110124Y0112132D02*
X0110504Y0112204D01*
X0115004Y0112204D02*
X0115242Y0112132D01*
X0115004Y0112204D02*
X0115004Y0118504D01*
X0112304Y0122104D02*
X0112304Y0140104D01*
X0112683Y0140675D01*
X0088904Y0129304D02*
X0087104Y0129304D01*
X0086404Y0130144D01*
X0086204Y0130204D01*
X0076404Y0130537D02*
X0076304Y0131104D01*
X0076304Y0135604D01*
X0070904Y0141004D01*
X0070144Y0141404D01*
X0062804Y0141004D02*
X0062663Y0141404D01*
X0062804Y0141904D01*
X0080459Y0147304D02*
X0081704Y0147304D01*
X0087841Y0117211D02*
X0085473Y0115473D01*
X0079994Y0115473D01*
X0084064Y0107282D02*
X0089071Y0112289D01*
X0094304Y0112204D01*
X0094770Y0112132D01*
X0096404Y0102644D02*
X0097004Y0102304D01*
X0106004Y0102304D01*
X0107804Y0100504D01*
X0096404Y0095163D02*
X0096104Y0095104D01*
X0096104Y0088804D01*
X0096404Y0088037D01*
X0104204Y0076204D02*
X0104204Y0066304D01*
X0105163Y0066404D01*
X0105104Y0066304D01*
X0104204Y0066304D01*
X0095204Y0066304D01*
X0095144Y0066404D01*
X0135704Y0040204D02*
X0161804Y0066304D01*
X0162704Y0066304D01*
X0181604Y0085204D01*
X0181604Y0123904D01*
X0161804Y0141004D02*
X0164504Y0143704D01*
X0160904Y0147304D01*
X0164504Y0143704D02*
X0180704Y0159904D01*
X0181404Y0160144D01*
X0233804Y0143704D02*
X0234120Y0144081D01*
X0277904Y0165304D02*
X0286004Y0165304D01*
X0286404Y0165144D01*
X0286404Y0157663D02*
X0286904Y0157204D01*
X0286904Y0146404D01*
X0177545Y0092053D02*
X0177104Y0091504D01*
X0160904Y0075304D01*
X0160904Y0071704D01*
X0160144Y0071404D01*
X0087104Y0101404D02*
X0085144Y0101404D01*
X0085304Y0101404D01*
X0084064Y0107282D02*
X0080804Y0107282D01*
X0079904Y0108182D01*
D29*
X0079904Y0108182D03*
X0079994Y0115473D03*
X0067304Y0116704D03*
X0066973Y0111304D03*
X0096104Y0122104D03*
X0107804Y0134704D03*
X0121304Y0147304D03*
X0133004Y0141004D03*
X0142004Y0159004D03*
X0144704Y0163504D03*
X0151004Y0171604D03*
X0107804Y0150004D03*
X0115004Y0118504D03*
X0110504Y0105004D03*
X0105104Y0105904D03*
X0107804Y0100504D03*
X0122204Y0105004D03*
X0125804Y0101404D03*
X0104204Y0076204D03*
X0115904Y0045604D03*
X0135704Y0040204D03*
X0211304Y0077104D03*
X0232904Y0069904D03*
X0237404Y0091504D03*
X0241004Y0095104D03*
X0212204Y0107704D03*
X0188804Y0119404D03*
X0234704Y0130204D03*
X0211304Y0160804D03*
X0241004Y0185104D03*
X0261704Y0164404D03*
X0277904Y0165304D03*
X0263504Y0060004D03*
X0271604Y0051904D03*
X0277004Y0057304D03*
X0233804Y0039304D03*
D30*
X0261404Y0041404D03*
X0276404Y0041404D03*
X0128441Y0165193D03*
X0129671Y0175035D03*
X0062004Y0104907D03*
D31*
X0060720Y0104853D02*
X0064744Y0104853D01*
X0064700Y0104809D02*
X0064700Y0098906D01*
X0062952Y0098906D01*
X0062247Y0098201D01*
X0062247Y0092086D01*
X0062842Y0091492D01*
X0062589Y0091346D01*
X0062328Y0091084D01*
X0062143Y0090764D01*
X0062047Y0090407D01*
X0062047Y0088067D01*
X0066000Y0088067D01*
X0066000Y0087260D01*
X0062047Y0087260D01*
X0062047Y0084920D01*
X0062143Y0084563D01*
X0062328Y0084243D01*
X0062589Y0083981D01*
X0062909Y0083796D01*
X0063266Y0083701D01*
X0066000Y0083701D01*
X0066000Y0087260D01*
X0066807Y0087260D01*
X0066807Y0088067D01*
X0070760Y0088067D01*
X0070760Y0090407D01*
X0070664Y0090764D01*
X0070479Y0091084D01*
X0070218Y0091346D01*
X0069965Y0091492D01*
X0070560Y0092086D01*
X0070560Y0098201D01*
X0069855Y0098906D01*
X0068107Y0098906D01*
X0068107Y0103398D01*
X0072509Y0107800D01*
X0073507Y0108798D01*
X0073507Y0113095D01*
X0073543Y0116515D01*
X0073562Y0116535D01*
X0073550Y0117217D01*
X0073557Y0117898D01*
X0073538Y0117918D01*
X0073537Y0117946D01*
X0073047Y0118420D01*
X0072570Y0118907D01*
X0072542Y0118907D01*
X0069576Y0121772D01*
X0069576Y0124934D01*
X0068871Y0125639D01*
X0063937Y0125639D01*
X0063231Y0124934D01*
X0063231Y0124507D01*
X0061925Y0124507D01*
X0061042Y0124141D01*
X0056845Y0119944D01*
X0056473Y0119891D01*
X0047579Y0119891D01*
X0047579Y0121293D01*
X0046639Y0123563D01*
X0046419Y0123783D01*
X0059815Y0123783D01*
X0060520Y0124488D01*
X0060520Y0133359D01*
X0059815Y0134064D01*
X0047473Y0134064D01*
X0074309Y0160900D01*
X0108898Y0160900D01*
X0111500Y0158298D01*
X0111500Y0151998D01*
X0112498Y0151000D01*
X0116000Y0147498D01*
X0116000Y0144831D01*
X0114193Y0144831D01*
X0114012Y0144936D01*
X0113655Y0145031D01*
X0112683Y0145031D01*
X0111711Y0145031D01*
X0111354Y0144936D01*
X0111173Y0144831D01*
X0096907Y0144831D01*
X0096907Y0152247D01*
X0100721Y0152247D01*
X0101404Y0152930D01*
X0102086Y0152247D01*
X0104300Y0152247D01*
X0104300Y0151098D01*
X0104646Y0150752D01*
X0104600Y0150641D01*
X0104600Y0149366D01*
X0105088Y0148189D01*
X0105989Y0147288D01*
X0107166Y0146800D01*
X0108441Y0146800D01*
X0109618Y0147288D01*
X0110519Y0148189D01*
X0111007Y0149366D01*
X0111007Y0150641D01*
X0110519Y0151818D01*
X0109618Y0152719D01*
X0108906Y0153014D01*
X0108906Y0159855D01*
X0108201Y0160560D01*
X0102086Y0160560D01*
X0101404Y0159877D01*
X0100721Y0160560D01*
X0094606Y0160560D01*
X0093901Y0159855D01*
X0093901Y0155610D01*
X0093500Y0155209D01*
X0093500Y0144831D01*
X0093484Y0144831D01*
X0092779Y0144126D01*
X0092779Y0137224D01*
X0093484Y0136519D01*
X0105088Y0136519D01*
X0105088Y0136518D01*
X0104600Y0135341D01*
X0104600Y0134066D01*
X0105088Y0132889D01*
X0105989Y0131988D01*
X0106100Y0131942D01*
X0106100Y0124609D01*
X0098998Y0117507D01*
X0098379Y0116888D01*
X0098138Y0117078D01*
X0097709Y0117507D01*
X0097595Y0117507D01*
X0096357Y0118486D01*
X0095942Y0118900D01*
X0096741Y0118900D01*
X0097918Y0119388D01*
X0098819Y0120289D01*
X0099307Y0121466D01*
X0099307Y0122741D01*
X0098819Y0123918D01*
X0097918Y0124819D01*
X0096741Y0125307D01*
X0096299Y0125307D01*
X0090560Y0131046D01*
X0090560Y0133201D01*
X0089855Y0133906D01*
X0088607Y0133906D01*
X0088607Y0143282D01*
X0088241Y0144165D01*
X0083387Y0149019D01*
X0084441Y0149019D01*
X0085036Y0149613D01*
X0085182Y0149361D01*
X0085443Y0149099D01*
X0085763Y0148915D01*
X0086120Y0148819D01*
X0088461Y0148819D01*
X0088461Y0152772D01*
X0089268Y0152772D01*
X0089268Y0153579D01*
X0088461Y0153579D01*
X0088461Y0157531D01*
X0086120Y0157531D01*
X0085763Y0157436D01*
X0085443Y0157251D01*
X0085182Y0156990D01*
X0085036Y0156737D01*
X0084441Y0157331D01*
X0078326Y0157331D01*
X0077621Y0156626D01*
X0077621Y0149724D01*
X0077638Y0149707D01*
X0067725Y0149707D01*
X0066842Y0149341D01*
X0066166Y0148665D01*
X0063061Y0145560D01*
X0059606Y0145560D01*
X0058901Y0144855D01*
X0058901Y0137952D01*
X0059606Y0137247D01*
X0063161Y0137247D01*
X0064000Y0136408D01*
X0064000Y0133513D01*
X0063937Y0133513D01*
X0063231Y0132808D01*
X0063231Y0127874D01*
X0063937Y0127169D01*
X0068871Y0127169D01*
X0069576Y0127874D01*
X0069576Y0132808D01*
X0068871Y0133513D01*
X0068807Y0133513D01*
X0068807Y0137247D01*
X0072251Y0137247D01*
X0074600Y0134898D01*
X0074600Y0134103D01*
X0073543Y0134103D01*
X0072838Y0133398D01*
X0072838Y0127677D01*
X0073543Y0126972D01*
X0079264Y0126972D01*
X0079969Y0127677D01*
X0079969Y0133398D01*
X0079264Y0134103D01*
X0078007Y0134103D01*
X0078007Y0136309D01*
X0073906Y0140410D01*
X0073906Y0144855D01*
X0073861Y0144900D01*
X0080708Y0144900D01*
X0083800Y0141808D01*
X0083800Y0133906D01*
X0082952Y0133906D01*
X0082247Y0133201D01*
X0082247Y0127086D01*
X0082842Y0126492D01*
X0082589Y0126346D01*
X0082328Y0126084D01*
X0082143Y0125764D01*
X0082047Y0125407D01*
X0082047Y0123067D01*
X0086000Y0123067D01*
X0086000Y0122260D01*
X0082047Y0122260D01*
X0082047Y0119920D01*
X0082143Y0119563D01*
X0082328Y0119243D01*
X0082589Y0118981D01*
X0082909Y0118796D01*
X0083266Y0118701D01*
X0086000Y0118701D01*
X0086000Y0122260D01*
X0086807Y0122260D01*
X0086807Y0123067D01*
X0090760Y0123067D01*
X0090760Y0124048D01*
X0092900Y0121908D01*
X0092900Y0121466D01*
X0093388Y0120289D01*
X0094289Y0119388D01*
X0095364Y0118942D01*
X0095123Y0118914D01*
X0090102Y0118914D01*
X0090218Y0118981D01*
X0090479Y0119243D01*
X0090664Y0119563D01*
X0090760Y0119920D01*
X0090760Y0122260D01*
X0086807Y0122260D01*
X0086807Y0118701D01*
X0086922Y0118701D01*
X0086728Y0118507D01*
X0084915Y0117177D01*
X0082756Y0117177D01*
X0082710Y0117288D01*
X0081809Y0118189D01*
X0080632Y0118677D01*
X0079441Y0118677D01*
X0079628Y0118784D01*
X0079889Y0119046D01*
X0080074Y0119366D01*
X0080169Y0119723D01*
X0080169Y0121866D01*
X0076807Y0121866D01*
X0076807Y0118504D01*
X0078940Y0118504D01*
X0078180Y0118189D01*
X0077279Y0117288D01*
X0076791Y0116110D01*
X0076791Y0114836D01*
X0077279Y0113659D01*
X0078180Y0112757D01*
X0079357Y0112270D01*
X0080632Y0112270D01*
X0081809Y0112757D01*
X0082710Y0113659D01*
X0082756Y0113770D01*
X0085343Y0113770D01*
X0085912Y0113682D01*
X0086031Y0113770D01*
X0086179Y0113770D01*
X0086586Y0114177D01*
X0088399Y0115507D01*
X0092779Y0115507D01*
X0092779Y0113932D01*
X0089788Y0113981D01*
X0089776Y0113993D01*
X0089085Y0113993D01*
X0088393Y0114004D01*
X0088382Y0113993D01*
X0088365Y0113993D01*
X0087876Y0113504D01*
X0087379Y0113023D01*
X0087379Y0113007D01*
X0083358Y0108986D01*
X0083038Y0108986D01*
X0082619Y0109997D01*
X0081718Y0110898D01*
X0080541Y0111386D01*
X0079266Y0111386D01*
X0078089Y0110898D01*
X0077188Y0109997D01*
X0076700Y0108820D01*
X0076700Y0107545D01*
X0077188Y0106368D01*
X0078067Y0105488D01*
X0078067Y0101807D01*
X0077260Y0101807D01*
X0077260Y0105760D01*
X0074920Y0105760D01*
X0074563Y0105664D01*
X0074243Y0105479D01*
X0073981Y0105218D01*
X0073796Y0104898D01*
X0073701Y0104541D01*
X0073701Y0101807D01*
X0077260Y0101807D01*
X0077260Y0101000D01*
X0078067Y0101000D01*
X0078067Y0097047D01*
X0080407Y0097047D01*
X0080764Y0097143D01*
X0081084Y0097328D01*
X0081346Y0097589D01*
X0081492Y0097842D01*
X0082086Y0097247D01*
X0085400Y0097247D01*
X0085400Y0089898D01*
X0086398Y0088900D01*
X0092838Y0082460D01*
X0092838Y0076909D01*
X0093543Y0076204D01*
X0099264Y0076204D01*
X0099969Y0076909D01*
X0099969Y0078100D01*
X0101570Y0078100D01*
X0101488Y0078018D01*
X0101000Y0076841D01*
X0101000Y0075566D01*
X0101488Y0074389D01*
X0102389Y0073488D01*
X0102500Y0073442D01*
X0102500Y0070560D01*
X0102106Y0070560D01*
X0101401Y0069855D01*
X0101401Y0068007D01*
X0098906Y0068007D01*
X0098906Y0069855D01*
X0098201Y0070560D01*
X0092086Y0070560D01*
X0091492Y0069965D01*
X0091346Y0070218D01*
X0091084Y0070479D01*
X0090764Y0070664D01*
X0090407Y0070760D01*
X0088067Y0070760D01*
X0088067Y0066807D01*
X0087260Y0066807D01*
X0087260Y0070760D01*
X0084920Y0070760D01*
X0084563Y0070664D01*
X0084243Y0070479D01*
X0083981Y0070218D01*
X0083796Y0069898D01*
X0083701Y0069541D01*
X0083701Y0066807D01*
X0087260Y0066807D01*
X0087260Y0066000D01*
X0088067Y0066000D01*
X0088067Y0062047D01*
X0090407Y0062047D01*
X0090764Y0062143D01*
X0091084Y0062328D01*
X0091346Y0062589D01*
X0091492Y0062842D01*
X0092086Y0062247D01*
X0098201Y0062247D01*
X0098906Y0062952D01*
X0098906Y0064600D01*
X0101401Y0064600D01*
X0101401Y0062952D01*
X0102106Y0062247D01*
X0108221Y0062247D01*
X0108904Y0062930D01*
X0109586Y0062247D01*
X0114200Y0062247D01*
X0114200Y0048365D01*
X0114089Y0048319D01*
X0113188Y0047418D01*
X0112700Y0046241D01*
X0112700Y0044966D01*
X0113188Y0043789D01*
X0114089Y0042888D01*
X0115266Y0042400D01*
X0116541Y0042400D01*
X0117718Y0042888D01*
X0118619Y0043789D01*
X0119107Y0044966D01*
X0119107Y0046241D01*
X0118619Y0047418D01*
X0117718Y0048319D01*
X0117607Y0048365D01*
X0117607Y0064309D01*
X0116406Y0065510D01*
X0116406Y0067997D01*
X0122107Y0073698D01*
X0122107Y0083209D01*
X0121109Y0084207D01*
X0119969Y0085347D01*
X0119969Y0090898D01*
X0119467Y0091401D01*
X0119855Y0091401D01*
X0120560Y0092106D01*
X0120560Y0098221D01*
X0119877Y0098904D01*
X0120560Y0099586D01*
X0120560Y0099700D01*
X0123042Y0099700D01*
X0123088Y0099589D01*
X0123989Y0098688D01*
X0125166Y0098200D01*
X0126441Y0098200D01*
X0127618Y0098688D01*
X0128519Y0099589D01*
X0129007Y0100766D01*
X0129007Y0102041D01*
X0128519Y0103218D01*
X0127618Y0104119D01*
X0126441Y0104607D01*
X0125407Y0104607D01*
X0125407Y0105641D01*
X0124919Y0106818D01*
X0124018Y0107719D01*
X0123882Y0107776D01*
X0123891Y0107776D01*
X0124152Y0107846D01*
X0136700Y0095298D01*
X0137698Y0094300D01*
X0137730Y0094300D01*
X0137730Y0092608D01*
X0138435Y0091903D01*
X0145337Y0091903D01*
X0146042Y0092608D01*
X0146042Y0094300D01*
X0151700Y0094300D01*
X0151700Y0086905D01*
X0152405Y0086200D01*
X0160402Y0086200D01*
X0161107Y0086905D01*
X0161107Y0107902D01*
X0160402Y0108607D01*
X0152405Y0108607D01*
X0151700Y0107902D01*
X0151700Y0097707D01*
X0146042Y0097707D01*
X0146042Y0098723D01*
X0145448Y0099318D01*
X0145700Y0099463D01*
X0145962Y0099725D01*
X0146146Y0100045D01*
X0146242Y0100402D01*
X0146242Y0102742D01*
X0142289Y0102742D01*
X0142289Y0103549D01*
X0141482Y0103549D01*
X0141482Y0102742D01*
X0137530Y0102742D01*
X0137530Y0100402D01*
X0137625Y0100045D01*
X0137810Y0099725D01*
X0138071Y0099463D01*
X0138324Y0099318D01*
X0137911Y0098905D01*
X0128841Y0107976D01*
X0129323Y0107976D01*
X0130028Y0108681D01*
X0130028Y0111319D01*
X0130207Y0111498D01*
X0130207Y0111646D01*
X0130295Y0111765D01*
X0130207Y0112334D01*
X0130207Y0122298D01*
X0137047Y0129138D01*
X0137047Y0128067D01*
X0141000Y0128067D01*
X0141000Y0127260D01*
X0137047Y0127260D01*
X0137047Y0124920D01*
X0137143Y0124563D01*
X0137328Y0124243D01*
X0137589Y0123981D01*
X0137909Y0123796D01*
X0138266Y0123701D01*
X0141000Y0123701D01*
X0141000Y0127260D01*
X0141807Y0127260D01*
X0141807Y0128067D01*
X0145760Y0128067D01*
X0145760Y0130407D01*
X0145664Y0130764D01*
X0145479Y0131084D01*
X0145218Y0131346D01*
X0144965Y0131492D01*
X0145560Y0132086D01*
X0145560Y0133900D01*
X0151700Y0133900D01*
X0151700Y0124905D01*
X0152405Y0124200D01*
X0160402Y0124200D01*
X0161107Y0124905D01*
X0161107Y0145902D01*
X0160402Y0146607D01*
X0152405Y0146607D01*
X0151700Y0145902D01*
X0151700Y0137307D01*
X0145560Y0137307D01*
X0145560Y0138201D01*
X0144855Y0138906D01*
X0138715Y0138906D01*
X0150809Y0151000D01*
X0151807Y0151998D01*
X0151807Y0167809D01*
X0151216Y0168400D01*
X0151641Y0168400D01*
X0152818Y0168888D01*
X0153719Y0169789D01*
X0154207Y0170966D01*
X0154207Y0172241D01*
X0153719Y0173418D01*
X0153607Y0173530D01*
X0153607Y0173665D01*
X0155800Y0173665D01*
X0156505Y0174370D01*
X0156505Y0180996D01*
X0157247Y0181738D01*
X0157247Y0174370D01*
X0157952Y0173665D01*
X0164855Y0173665D01*
X0165560Y0174370D01*
X0165560Y0182500D01*
X0166102Y0182500D01*
X0166102Y0179209D01*
X0170055Y0179209D01*
X0170055Y0178402D01*
X0166102Y0178402D01*
X0166102Y0174683D01*
X0166198Y0174326D01*
X0166383Y0174006D01*
X0166644Y0173745D01*
X0166964Y0173560D01*
X0167321Y0173465D01*
X0170055Y0173465D01*
X0170055Y0178402D01*
X0170862Y0178402D01*
X0170862Y0179209D01*
X0174815Y0179209D01*
X0174815Y0182500D01*
X0181798Y0182500D01*
X0183538Y0180760D01*
X0183067Y0180760D01*
X0183067Y0176807D01*
X0182260Y0176807D01*
X0182260Y0180760D01*
X0179920Y0180760D01*
X0179563Y0180664D01*
X0179243Y0180479D01*
X0178981Y0180218D01*
X0178796Y0179898D01*
X0178701Y0179541D01*
X0178701Y0176807D01*
X0182260Y0176807D01*
X0182260Y0176000D01*
X0183067Y0176000D01*
X0183067Y0172047D01*
X0185407Y0172047D01*
X0185764Y0172143D01*
X0186084Y0172328D01*
X0186346Y0172589D01*
X0186492Y0172842D01*
X0187086Y0172247D01*
X0193201Y0172247D01*
X0193906Y0172952D01*
X0193906Y0179855D01*
X0193201Y0180560D01*
X0188556Y0180560D01*
X0184207Y0184909D01*
X0183209Y0185907D01*
X0156598Y0185907D01*
X0154636Y0183946D01*
X0148897Y0183946D01*
X0148192Y0183241D01*
X0148192Y0174370D01*
X0148716Y0173846D01*
X0148288Y0173418D01*
X0147800Y0172241D01*
X0147800Y0171816D01*
X0140560Y0179056D01*
X0140560Y0183201D01*
X0139855Y0183906D01*
X0134578Y0183906D01*
X0130377Y0188107D01*
X0120698Y0188107D01*
X0119700Y0187109D01*
X0117285Y0184694D01*
X0115196Y0184694D01*
X0114491Y0183989D01*
X0114491Y0177480D01*
X0115196Y0176775D01*
X0116698Y0176775D01*
X0115432Y0175509D01*
X0114434Y0174511D01*
X0114434Y0164487D01*
X0115432Y0163489D01*
X0117247Y0161674D01*
X0117247Y0157086D01*
X0117930Y0156404D01*
X0117247Y0155721D01*
X0117247Y0151069D01*
X0114907Y0153409D01*
X0114907Y0159709D01*
X0111307Y0163309D01*
X0110309Y0164307D01*
X0072898Y0164307D01*
X0035998Y0127407D01*
X0035717Y0127126D01*
X0035717Y0133359D01*
X0035012Y0134064D01*
X0025807Y0134064D01*
X0025807Y0191961D01*
X0290701Y0191961D01*
X0290701Y0184868D01*
X0289809Y0187020D01*
X0287020Y0189809D01*
X0283376Y0191319D01*
X0279431Y0191319D01*
X0275787Y0189809D01*
X0272998Y0187020D01*
X0271488Y0183376D01*
X0271488Y0180428D01*
X0269707Y0182209D01*
X0268709Y0183207D01*
X0243638Y0183207D01*
X0243719Y0183289D01*
X0244207Y0184466D01*
X0244207Y0185741D01*
X0243719Y0186918D01*
X0242818Y0187819D01*
X0241641Y0188307D01*
X0240366Y0188307D01*
X0239189Y0187819D01*
X0238288Y0186918D01*
X0238242Y0186807D01*
X0215098Y0186807D01*
X0214100Y0185809D01*
X0193498Y0165207D01*
X0186809Y0165207D01*
X0185909Y0166107D01*
X0170998Y0166107D01*
X0164033Y0159143D01*
X0153425Y0159143D01*
X0152720Y0158438D01*
X0152720Y0149566D01*
X0153425Y0148861D01*
X0169382Y0148861D01*
X0170087Y0149566D01*
X0170087Y0158438D01*
X0169382Y0159143D01*
X0168852Y0159143D01*
X0172409Y0162700D01*
X0177047Y0162700D01*
X0177047Y0160547D01*
X0181000Y0160547D01*
X0181000Y0159740D01*
X0177047Y0159740D01*
X0177047Y0157400D01*
X0177143Y0157043D01*
X0177328Y0156723D01*
X0177589Y0156462D01*
X0177842Y0156316D01*
X0177247Y0155721D01*
X0177247Y0150756D01*
X0177200Y0150709D01*
X0177200Y0125898D01*
X0178198Y0124900D01*
X0179074Y0124024D01*
X0172204Y0124024D01*
X0171499Y0123319D01*
X0171499Y0117204D01*
X0172204Y0116499D01*
X0179304Y0116499D01*
X0179900Y0117096D01*
X0179900Y0105711D01*
X0179304Y0106308D01*
X0172204Y0106308D01*
X0171499Y0105603D01*
X0171499Y0099488D01*
X0172204Y0098783D01*
X0179304Y0098783D01*
X0179900Y0099379D01*
X0179900Y0096308D01*
X0174488Y0096308D01*
X0173783Y0095603D01*
X0173783Y0090592D01*
X0159200Y0076009D01*
X0159200Y0075560D01*
X0157086Y0075560D01*
X0156492Y0074965D01*
X0156346Y0075218D01*
X0156084Y0075479D01*
X0155764Y0075664D01*
X0155407Y0075760D01*
X0153067Y0075760D01*
X0153067Y0071807D01*
X0152260Y0071807D01*
X0152260Y0075760D01*
X0149920Y0075760D01*
X0149563Y0075664D01*
X0149243Y0075479D01*
X0148981Y0075218D01*
X0148796Y0074898D01*
X0148701Y0074541D01*
X0148701Y0071807D01*
X0152260Y0071807D01*
X0152260Y0071000D01*
X0153067Y0071000D01*
X0153067Y0067047D01*
X0155407Y0067047D01*
X0155764Y0067143D01*
X0156084Y0067328D01*
X0156346Y0067589D01*
X0156492Y0067842D01*
X0157086Y0067247D01*
X0160338Y0067247D01*
X0136452Y0043361D01*
X0136341Y0043407D01*
X0135066Y0043407D01*
X0133889Y0042919D01*
X0132988Y0042018D01*
X0132500Y0040841D01*
X0132500Y0039566D01*
X0132988Y0038389D01*
X0133889Y0037488D01*
X0135066Y0037000D01*
X0136341Y0037000D01*
X0137518Y0037488D01*
X0138419Y0038389D01*
X0138907Y0039566D01*
X0138907Y0040841D01*
X0138861Y0040952D01*
X0162509Y0064600D01*
X0163409Y0064600D01*
X0181700Y0082891D01*
X0181700Y0076009D01*
X0142727Y0037036D01*
X0142348Y0037194D01*
X0140459Y0037194D01*
X0138715Y0036471D01*
X0137379Y0035136D01*
X0136657Y0033391D01*
X0136657Y0024416D01*
X0137379Y0022671D01*
X0137944Y0022107D01*
X0135146Y0022107D01*
X0135177Y0022138D01*
X0135634Y0022768D01*
X0135988Y0023461D01*
X0136229Y0024202D01*
X0136350Y0024971D01*
X0136350Y0028500D01*
X0131807Y0028500D01*
X0131807Y0029307D01*
X0131000Y0029307D01*
X0131000Y0028500D01*
X0126457Y0028500D01*
X0126457Y0024971D01*
X0126579Y0024202D01*
X0126819Y0023461D01*
X0127173Y0022768D01*
X0127630Y0022138D01*
X0127661Y0022107D01*
X0124863Y0022107D01*
X0125428Y0022671D01*
X0126150Y0024416D01*
X0126150Y0033391D01*
X0125428Y0035136D01*
X0124092Y0036471D01*
X0122348Y0037194D01*
X0120459Y0037194D01*
X0118715Y0036471D01*
X0117379Y0035136D01*
X0116657Y0033391D01*
X0116657Y0024416D01*
X0117379Y0022671D01*
X0117944Y0022107D01*
X0114863Y0022107D01*
X0115428Y0022671D01*
X0116150Y0024416D01*
X0116150Y0033391D01*
X0115428Y0035136D01*
X0114092Y0036471D01*
X0112348Y0037194D01*
X0110459Y0037194D01*
X0108715Y0036471D01*
X0107379Y0035136D01*
X0106657Y0033391D01*
X0106657Y0024860D01*
X0046507Y0085009D01*
X0046507Y0088743D01*
X0059815Y0088743D01*
X0060520Y0089448D01*
X0060520Y0098319D01*
X0059815Y0099024D01*
X0046419Y0099024D01*
X0046639Y0099244D01*
X0047579Y0101514D01*
X0047579Y0102717D01*
X0053126Y0102717D01*
X0053126Y0105016D01*
X0053303Y0105016D01*
X0053303Y0105193D01*
X0060720Y0105193D01*
X0060720Y0106273D01*
X0060625Y0106630D01*
X0060520Y0106811D01*
X0060520Y0109600D01*
X0064211Y0109600D01*
X0064257Y0109489D01*
X0065159Y0108588D01*
X0066336Y0108100D01*
X0067610Y0108100D01*
X0068260Y0108369D01*
X0064700Y0104809D01*
X0064700Y0104047D02*
X0060720Y0104047D01*
X0060720Y0103935D02*
X0060720Y0105016D01*
X0053303Y0105016D01*
X0053303Y0102717D01*
X0059502Y0102717D01*
X0059859Y0102812D01*
X0060179Y0102997D01*
X0060440Y0103258D01*
X0060625Y0103578D01*
X0060720Y0103935D01*
X0060423Y0103242D02*
X0064700Y0103242D01*
X0064700Y0102436D02*
X0047579Y0102436D01*
X0047579Y0101631D02*
X0064700Y0101631D01*
X0064700Y0100825D02*
X0047293Y0100825D01*
X0046960Y0100019D02*
X0064700Y0100019D01*
X0064700Y0099214D02*
X0046608Y0099214D01*
X0053126Y0103242D02*
X0053303Y0103242D01*
X0053303Y0104047D02*
X0053126Y0104047D01*
X0053126Y0104853D02*
X0053303Y0104853D01*
X0060720Y0105659D02*
X0065549Y0105659D01*
X0066355Y0106464D02*
X0060669Y0106464D01*
X0060520Y0107270D02*
X0067161Y0107270D01*
X0067966Y0108075D02*
X0060520Y0108075D01*
X0060520Y0108881D02*
X0064865Y0108881D01*
X0069562Y0104853D02*
X0073784Y0104853D01*
X0073701Y0104047D02*
X0068756Y0104047D01*
X0068107Y0103242D02*
X0073701Y0103242D01*
X0073701Y0102436D02*
X0068107Y0102436D01*
X0068107Y0101631D02*
X0077260Y0101631D01*
X0077260Y0101000D02*
X0073701Y0101000D01*
X0073701Y0098266D01*
X0073796Y0097909D01*
X0073981Y0097589D01*
X0074243Y0097328D01*
X0074563Y0097143D01*
X0074920Y0097047D01*
X0077260Y0097047D01*
X0077260Y0101000D01*
X0077260Y0100825D02*
X0078067Y0100825D01*
X0078067Y0100019D02*
X0077260Y0100019D01*
X0077260Y0099214D02*
X0078067Y0099214D01*
X0078067Y0098408D02*
X0077260Y0098408D01*
X0077260Y0097603D02*
X0078067Y0097603D01*
X0081353Y0097603D02*
X0081731Y0097603D01*
X0085400Y0096797D02*
X0070560Y0096797D01*
X0070560Y0097603D02*
X0073973Y0097603D01*
X0073701Y0098408D02*
X0070353Y0098408D01*
X0068107Y0099214D02*
X0073701Y0099214D01*
X0073701Y0100019D02*
X0068107Y0100019D01*
X0068107Y0100825D02*
X0073701Y0100825D01*
X0077260Y0102436D02*
X0078067Y0102436D01*
X0078067Y0103242D02*
X0077260Y0103242D01*
X0077260Y0104047D02*
X0078067Y0104047D01*
X0078067Y0104853D02*
X0077260Y0104853D01*
X0077260Y0105659D02*
X0077897Y0105659D01*
X0077148Y0106464D02*
X0071173Y0106464D01*
X0070368Y0105659D02*
X0074553Y0105659D01*
X0076814Y0107270D02*
X0071979Y0107270D01*
X0072784Y0108075D02*
X0076700Y0108075D01*
X0076725Y0108881D02*
X0073507Y0108881D01*
X0073507Y0109686D02*
X0077059Y0109686D01*
X0077683Y0110492D02*
X0073507Y0110492D01*
X0073507Y0111298D02*
X0079054Y0111298D01*
X0080754Y0111298D02*
X0085670Y0111298D01*
X0086476Y0112103D02*
X0073507Y0112103D01*
X0073507Y0112909D02*
X0078028Y0112909D01*
X0077255Y0113714D02*
X0073514Y0113714D01*
X0073522Y0114520D02*
X0076922Y0114520D01*
X0076791Y0115326D02*
X0073530Y0115326D01*
X0073539Y0116131D02*
X0076800Y0116131D01*
X0077133Y0116937D02*
X0073555Y0116937D01*
X0073556Y0117742D02*
X0077733Y0117742D01*
X0076807Y0118548D02*
X0076000Y0118548D01*
X0076000Y0118504D02*
X0076000Y0121866D01*
X0076807Y0121866D01*
X0076807Y0122673D01*
X0080169Y0122673D01*
X0080169Y0124817D01*
X0080074Y0125174D01*
X0079889Y0125494D01*
X0079628Y0125755D01*
X0079307Y0125940D01*
X0078951Y0126035D01*
X0076807Y0126035D01*
X0076807Y0122673D01*
X0076000Y0122673D01*
X0076000Y0121866D01*
X0072638Y0121866D01*
X0072638Y0119723D01*
X0072733Y0119366D01*
X0072918Y0119046D01*
X0073180Y0118784D01*
X0073500Y0118600D01*
X0073857Y0118504D01*
X0076000Y0118504D01*
X0076000Y0119354D02*
X0076807Y0119354D01*
X0076807Y0120159D02*
X0076000Y0120159D01*
X0076000Y0120965D02*
X0076807Y0120965D01*
X0076807Y0121770D02*
X0076000Y0121770D01*
X0076000Y0122576D02*
X0069576Y0122576D01*
X0069577Y0121770D02*
X0072638Y0121770D01*
X0072638Y0120965D02*
X0070411Y0120965D01*
X0071245Y0120159D02*
X0072638Y0120159D01*
X0072740Y0119354D02*
X0072080Y0119354D01*
X0072921Y0118548D02*
X0073692Y0118548D01*
X0072638Y0122673D02*
X0076000Y0122673D01*
X0076000Y0126035D01*
X0073857Y0126035D01*
X0073500Y0125940D01*
X0073180Y0125755D01*
X0072918Y0125494D01*
X0072733Y0125174D01*
X0072638Y0124817D01*
X0072638Y0122673D01*
X0072638Y0123382D02*
X0069576Y0123382D01*
X0069576Y0124187D02*
X0072638Y0124187D01*
X0072685Y0124993D02*
X0069516Y0124993D01*
X0069112Y0127410D02*
X0073105Y0127410D01*
X0072838Y0128215D02*
X0069576Y0128215D01*
X0069576Y0129021D02*
X0072838Y0129021D01*
X0072838Y0129826D02*
X0069576Y0129826D01*
X0069576Y0130632D02*
X0072838Y0130632D01*
X0072838Y0131438D02*
X0069576Y0131438D01*
X0069576Y0132243D02*
X0072838Y0132243D01*
X0072838Y0133049D02*
X0069334Y0133049D01*
X0068807Y0133854D02*
X0073294Y0133854D01*
X0074600Y0134660D02*
X0068807Y0134660D01*
X0068807Y0135466D02*
X0074032Y0135466D01*
X0073227Y0136271D02*
X0068807Y0136271D01*
X0068807Y0137077D02*
X0072421Y0137077D01*
X0074823Y0139494D02*
X0083800Y0139494D01*
X0083800Y0140299D02*
X0074017Y0140299D01*
X0073906Y0141105D02*
X0083800Y0141105D01*
X0083698Y0141910D02*
X0073906Y0141910D01*
X0073906Y0142716D02*
X0082892Y0142716D01*
X0082086Y0143522D02*
X0073906Y0143522D01*
X0073906Y0144327D02*
X0081281Y0144327D01*
X0085662Y0146744D02*
X0093500Y0146744D01*
X0093500Y0145938D02*
X0086468Y0145938D01*
X0087273Y0145133D02*
X0093500Y0145133D01*
X0092979Y0144327D02*
X0088079Y0144327D01*
X0088508Y0143522D02*
X0092779Y0143522D01*
X0092779Y0142716D02*
X0088607Y0142716D01*
X0088607Y0141910D02*
X0092779Y0141910D01*
X0092779Y0141105D02*
X0088607Y0141105D01*
X0088607Y0140299D02*
X0092779Y0140299D01*
X0092779Y0139494D02*
X0088607Y0139494D01*
X0088607Y0138688D02*
X0092779Y0138688D01*
X0092779Y0137882D02*
X0088607Y0137882D01*
X0088607Y0137077D02*
X0092926Y0137077D01*
X0088607Y0136271D02*
X0104985Y0136271D01*
X0104652Y0135466D02*
X0088607Y0135466D01*
X0088607Y0134660D02*
X0104600Y0134660D01*
X0104688Y0133854D02*
X0089907Y0133854D01*
X0090560Y0133049D02*
X0105021Y0133049D01*
X0105733Y0132243D02*
X0090560Y0132243D01*
X0090560Y0131438D02*
X0106100Y0131438D01*
X0106100Y0130632D02*
X0090974Y0130632D01*
X0091780Y0129826D02*
X0106100Y0129826D01*
X0106100Y0129021D02*
X0092585Y0129021D01*
X0093391Y0128215D02*
X0106100Y0128215D01*
X0106100Y0127410D02*
X0094197Y0127410D01*
X0095002Y0126604D02*
X0106100Y0126604D01*
X0106100Y0125798D02*
X0095808Y0125798D01*
X0097499Y0124993D02*
X0106100Y0124993D01*
X0105678Y0124187D02*
X0098550Y0124187D01*
X0099042Y0123382D02*
X0104872Y0123382D01*
X0104067Y0122576D02*
X0099307Y0122576D01*
X0099307Y0121770D02*
X0103261Y0121770D01*
X0102456Y0120965D02*
X0099099Y0120965D01*
X0098690Y0120159D02*
X0101650Y0120159D01*
X0100845Y0119354D02*
X0097836Y0119354D01*
X0097297Y0117742D02*
X0099233Y0117742D01*
X0098428Y0116937D02*
X0098317Y0116937D01*
X0100039Y0118548D02*
X0096294Y0118548D01*
X0094371Y0119354D02*
X0090544Y0119354D01*
X0090760Y0120159D02*
X0093517Y0120159D01*
X0093108Y0120965D02*
X0090760Y0120965D01*
X0090760Y0121770D02*
X0092900Y0121770D01*
X0092232Y0122576D02*
X0086807Y0122576D01*
X0086807Y0121770D02*
X0086000Y0121770D01*
X0086000Y0120965D02*
X0086807Y0120965D01*
X0086807Y0120159D02*
X0086000Y0120159D01*
X0086000Y0119354D02*
X0086807Y0119354D01*
X0086769Y0118548D02*
X0080942Y0118548D01*
X0080067Y0119354D02*
X0082263Y0119354D01*
X0082047Y0120159D02*
X0080169Y0120159D01*
X0080169Y0120965D02*
X0082047Y0120965D01*
X0082047Y0121770D02*
X0080169Y0121770D01*
X0080169Y0123382D02*
X0082047Y0123382D01*
X0082047Y0124187D02*
X0080169Y0124187D01*
X0080122Y0124993D02*
X0082047Y0124993D01*
X0082163Y0125798D02*
X0079552Y0125798D01*
X0079702Y0127410D02*
X0082247Y0127410D01*
X0082247Y0128215D02*
X0079969Y0128215D01*
X0079969Y0129021D02*
X0082247Y0129021D01*
X0082247Y0129826D02*
X0079969Y0129826D01*
X0079969Y0130632D02*
X0082247Y0130632D01*
X0082247Y0131438D02*
X0079969Y0131438D01*
X0079969Y0132243D02*
X0082247Y0132243D01*
X0082247Y0133049D02*
X0079969Y0133049D01*
X0079513Y0133854D02*
X0082900Y0133854D01*
X0083800Y0134660D02*
X0078007Y0134660D01*
X0078007Y0135466D02*
X0083800Y0135466D01*
X0083800Y0136271D02*
X0078007Y0136271D01*
X0077239Y0137077D02*
X0083800Y0137077D01*
X0083800Y0137882D02*
X0076434Y0137882D01*
X0075628Y0138688D02*
X0083800Y0138688D01*
X0084857Y0147550D02*
X0093500Y0147550D01*
X0093500Y0148355D02*
X0084051Y0148355D01*
X0084583Y0149161D02*
X0085382Y0149161D01*
X0088461Y0149161D02*
X0089268Y0149161D01*
X0089268Y0148819D02*
X0091608Y0148819D01*
X0091965Y0148915D01*
X0092285Y0149099D01*
X0092546Y0149361D01*
X0092731Y0149681D01*
X0092827Y0150038D01*
X0092827Y0152772D01*
X0089268Y0152772D01*
X0089268Y0148819D01*
X0089268Y0149966D02*
X0088461Y0149966D01*
X0088461Y0150772D02*
X0089268Y0150772D01*
X0089268Y0151578D02*
X0088461Y0151578D01*
X0088461Y0152383D02*
X0089268Y0152383D01*
X0089268Y0153189D02*
X0093500Y0153189D01*
X0092827Y0153579D02*
X0089268Y0153579D01*
X0089268Y0157531D01*
X0091608Y0157531D01*
X0091965Y0157436D01*
X0092285Y0157251D01*
X0092546Y0156990D01*
X0092731Y0156670D01*
X0092827Y0156313D01*
X0092827Y0153579D01*
X0092827Y0153994D02*
X0093500Y0153994D01*
X0093500Y0154800D02*
X0092827Y0154800D01*
X0092827Y0155606D02*
X0093896Y0155606D01*
X0093901Y0156411D02*
X0092800Y0156411D01*
X0092319Y0157217D02*
X0093901Y0157217D01*
X0093901Y0158022D02*
X0071432Y0158022D01*
X0072237Y0158828D02*
X0093901Y0158828D01*
X0093901Y0159634D02*
X0073043Y0159634D01*
X0073848Y0160439D02*
X0094485Y0160439D01*
X0089268Y0157217D02*
X0088461Y0157217D01*
X0088461Y0156411D02*
X0089268Y0156411D01*
X0089268Y0155606D02*
X0088461Y0155606D01*
X0088461Y0154800D02*
X0089268Y0154800D01*
X0089268Y0153994D02*
X0088461Y0153994D01*
X0085409Y0157217D02*
X0084556Y0157217D01*
X0078212Y0157217D02*
X0070626Y0157217D01*
X0069820Y0156411D02*
X0077621Y0156411D01*
X0077621Y0155606D02*
X0069015Y0155606D01*
X0068209Y0154800D02*
X0077621Y0154800D01*
X0077621Y0153994D02*
X0067404Y0153994D01*
X0066598Y0153189D02*
X0077621Y0153189D01*
X0077621Y0152383D02*
X0065792Y0152383D01*
X0064987Y0151578D02*
X0077621Y0151578D01*
X0077621Y0150772D02*
X0064181Y0150772D01*
X0063376Y0149966D02*
X0077621Y0149966D01*
X0066662Y0149161D02*
X0062570Y0149161D01*
X0061764Y0148355D02*
X0065856Y0148355D01*
X0065050Y0147550D02*
X0060959Y0147550D01*
X0060153Y0146744D02*
X0064245Y0146744D01*
X0063439Y0145938D02*
X0059348Y0145938D01*
X0059179Y0145133D02*
X0058542Y0145133D01*
X0058901Y0144327D02*
X0057736Y0144327D01*
X0056931Y0143522D02*
X0058901Y0143522D01*
X0058901Y0142716D02*
X0056125Y0142716D01*
X0055320Y0141910D02*
X0058901Y0141910D01*
X0058901Y0141105D02*
X0054514Y0141105D01*
X0053708Y0140299D02*
X0058901Y0140299D01*
X0058901Y0139494D02*
X0052903Y0139494D01*
X0052097Y0138688D02*
X0058901Y0138688D01*
X0058971Y0137882D02*
X0051292Y0137882D01*
X0050486Y0137077D02*
X0063331Y0137077D01*
X0064000Y0136271D02*
X0049680Y0136271D01*
X0048875Y0135466D02*
X0064000Y0135466D01*
X0064000Y0134660D02*
X0048069Y0134660D01*
X0045668Y0137077D02*
X0025807Y0137077D01*
X0025807Y0137882D02*
X0046473Y0137882D01*
X0047279Y0138688D02*
X0025807Y0138688D01*
X0025807Y0139494D02*
X0048084Y0139494D01*
X0048890Y0140299D02*
X0025807Y0140299D01*
X0025807Y0141105D02*
X0049696Y0141105D01*
X0050501Y0141910D02*
X0025807Y0141910D01*
X0025807Y0142716D02*
X0051307Y0142716D01*
X0052112Y0143522D02*
X0025807Y0143522D01*
X0025807Y0144327D02*
X0052918Y0144327D01*
X0053724Y0145133D02*
X0025807Y0145133D01*
X0025807Y0145938D02*
X0054529Y0145938D01*
X0055335Y0146744D02*
X0025807Y0146744D01*
X0025807Y0147550D02*
X0056140Y0147550D01*
X0056946Y0148355D02*
X0025807Y0148355D01*
X0025807Y0149161D02*
X0057752Y0149161D01*
X0058557Y0149966D02*
X0025807Y0149966D01*
X0025807Y0150772D02*
X0059363Y0150772D01*
X0060168Y0151578D02*
X0025807Y0151578D01*
X0025807Y0152383D02*
X0060974Y0152383D01*
X0061780Y0153189D02*
X0025807Y0153189D01*
X0025807Y0153994D02*
X0062585Y0153994D01*
X0063391Y0154800D02*
X0025807Y0154800D01*
X0025807Y0155606D02*
X0064196Y0155606D01*
X0065002Y0156411D02*
X0025807Y0156411D01*
X0025807Y0157217D02*
X0065808Y0157217D01*
X0066613Y0158022D02*
X0025807Y0158022D01*
X0025807Y0158828D02*
X0067419Y0158828D01*
X0068224Y0159634D02*
X0025807Y0159634D01*
X0025807Y0160439D02*
X0069030Y0160439D01*
X0069836Y0161245D02*
X0025807Y0161245D01*
X0025807Y0162050D02*
X0070641Y0162050D01*
X0071447Y0162856D02*
X0025807Y0162856D01*
X0025807Y0163662D02*
X0072252Y0163662D01*
X0092827Y0152383D02*
X0093500Y0152383D01*
X0093500Y0151578D02*
X0092827Y0151578D01*
X0092827Y0150772D02*
X0093500Y0150772D01*
X0093500Y0149966D02*
X0092808Y0149966D01*
X0092346Y0149161D02*
X0093500Y0149161D01*
X0096907Y0149161D02*
X0104685Y0149161D01*
X0104600Y0149966D02*
X0096907Y0149966D01*
X0096907Y0150772D02*
X0104626Y0150772D01*
X0104300Y0151578D02*
X0096907Y0151578D01*
X0100857Y0152383D02*
X0101950Y0152383D01*
X0105019Y0148355D02*
X0096907Y0148355D01*
X0096907Y0147550D02*
X0105727Y0147550D01*
X0109880Y0147550D02*
X0115948Y0147550D01*
X0116000Y0146744D02*
X0096907Y0146744D01*
X0096907Y0145938D02*
X0116000Y0145938D01*
X0116000Y0145133D02*
X0096907Y0145133D01*
X0110588Y0148355D02*
X0115143Y0148355D01*
X0114337Y0149161D02*
X0110922Y0149161D01*
X0111007Y0149966D02*
X0113532Y0149966D01*
X0112726Y0150772D02*
X0110953Y0150772D01*
X0110619Y0151578D02*
X0111920Y0151578D01*
X0111500Y0152383D02*
X0109954Y0152383D01*
X0108906Y0153189D02*
X0111500Y0153189D01*
X0111500Y0153994D02*
X0108906Y0153994D01*
X0108906Y0154800D02*
X0111500Y0154800D01*
X0111500Y0155606D02*
X0108906Y0155606D01*
X0108906Y0156411D02*
X0111500Y0156411D01*
X0111500Y0157217D02*
X0108906Y0157217D01*
X0108906Y0158022D02*
X0111500Y0158022D01*
X0110970Y0158828D02*
X0108906Y0158828D01*
X0108906Y0159634D02*
X0110164Y0159634D01*
X0109359Y0160439D02*
X0108322Y0160439D01*
X0110955Y0163662D02*
X0115260Y0163662D01*
X0114454Y0164467D02*
X0025807Y0164467D01*
X0025807Y0165273D02*
X0114434Y0165273D01*
X0114434Y0166078D02*
X0025807Y0166078D01*
X0025807Y0166884D02*
X0114434Y0166884D01*
X0114434Y0167690D02*
X0025807Y0167690D01*
X0025807Y0168495D02*
X0114434Y0168495D01*
X0114434Y0169301D02*
X0025807Y0169301D01*
X0025807Y0170106D02*
X0114434Y0170106D01*
X0114434Y0170912D02*
X0025807Y0170912D01*
X0025807Y0171718D02*
X0033878Y0171718D01*
X0034431Y0171488D02*
X0038376Y0171488D01*
X0042020Y0172998D01*
X0044809Y0175787D01*
X0046319Y0179431D01*
X0046319Y0183376D01*
X0044809Y0187020D01*
X0042020Y0189809D01*
X0038376Y0191319D01*
X0034431Y0191319D01*
X0030787Y0189809D01*
X0027998Y0187020D01*
X0026488Y0183376D01*
X0026488Y0179431D01*
X0027998Y0175787D01*
X0030787Y0172998D01*
X0034431Y0171488D01*
X0031933Y0172523D02*
X0025807Y0172523D01*
X0025807Y0173329D02*
X0030456Y0173329D01*
X0029650Y0174134D02*
X0025807Y0174134D01*
X0025807Y0174940D02*
X0028845Y0174940D01*
X0028039Y0175746D02*
X0025807Y0175746D01*
X0025807Y0176551D02*
X0027681Y0176551D01*
X0027347Y0177357D02*
X0025807Y0177357D01*
X0025807Y0178162D02*
X0027014Y0178162D01*
X0026680Y0178968D02*
X0025807Y0178968D01*
X0025807Y0179774D02*
X0026488Y0179774D01*
X0026488Y0180579D02*
X0025807Y0180579D01*
X0025807Y0181385D02*
X0026488Y0181385D01*
X0026488Y0182190D02*
X0025807Y0182190D01*
X0025807Y0182996D02*
X0026488Y0182996D01*
X0026665Y0183802D02*
X0025807Y0183802D01*
X0025807Y0184607D02*
X0026998Y0184607D01*
X0027332Y0185413D02*
X0025807Y0185413D01*
X0025807Y0186218D02*
X0027666Y0186218D01*
X0028001Y0187024D02*
X0025807Y0187024D01*
X0025807Y0187829D02*
X0028807Y0187829D01*
X0029613Y0188635D02*
X0025807Y0188635D01*
X0025807Y0189441D02*
X0030418Y0189441D01*
X0031842Y0190246D02*
X0025807Y0190246D01*
X0025807Y0191052D02*
X0033787Y0191052D01*
X0039020Y0191052D02*
X0278787Y0191052D01*
X0276842Y0190246D02*
X0040965Y0190246D01*
X0042389Y0189441D02*
X0275418Y0189441D01*
X0274613Y0188635D02*
X0043194Y0188635D01*
X0044000Y0187829D02*
X0120420Y0187829D01*
X0119615Y0187024D02*
X0044806Y0187024D01*
X0045141Y0186218D02*
X0118809Y0186218D01*
X0118004Y0185413D02*
X0045475Y0185413D01*
X0045809Y0184607D02*
X0115110Y0184607D01*
X0114491Y0183802D02*
X0046143Y0183802D01*
X0046319Y0182996D02*
X0114491Y0182996D01*
X0114491Y0182190D02*
X0046319Y0182190D01*
X0046319Y0181385D02*
X0114491Y0181385D01*
X0114491Y0180579D02*
X0046319Y0180579D01*
X0046319Y0179774D02*
X0114491Y0179774D01*
X0114491Y0178968D02*
X0046127Y0178968D01*
X0045793Y0178162D02*
X0114491Y0178162D01*
X0114614Y0177357D02*
X0045460Y0177357D01*
X0045126Y0176551D02*
X0116475Y0176551D01*
X0115669Y0175746D02*
X0044768Y0175746D01*
X0043962Y0174940D02*
X0114863Y0174940D01*
X0114434Y0174134D02*
X0043157Y0174134D01*
X0042351Y0173329D02*
X0114434Y0173329D01*
X0114434Y0172523D02*
X0040874Y0172523D01*
X0038930Y0171718D02*
X0114434Y0171718D01*
X0116066Y0162856D02*
X0111760Y0162856D01*
X0112566Y0162050D02*
X0116871Y0162050D01*
X0117247Y0161245D02*
X0113371Y0161245D01*
X0114177Y0160439D02*
X0117247Y0160439D01*
X0117247Y0159634D02*
X0114907Y0159634D01*
X0114907Y0158828D02*
X0117247Y0158828D01*
X0117247Y0158022D02*
X0114907Y0158022D01*
X0114907Y0157217D02*
X0117247Y0157217D01*
X0117922Y0156411D02*
X0114907Y0156411D01*
X0114907Y0155606D02*
X0117247Y0155606D01*
X0117247Y0154800D02*
X0114907Y0154800D01*
X0114907Y0153994D02*
X0117247Y0153994D01*
X0117247Y0153189D02*
X0115127Y0153189D01*
X0115933Y0152383D02*
X0117247Y0152383D01*
X0117247Y0151578D02*
X0116739Y0151578D01*
X0112683Y0145031D02*
X0112683Y0140675D01*
X0112683Y0140675D01*
X0112683Y0136319D01*
X0111711Y0136319D01*
X0111354Y0136415D01*
X0111173Y0136519D01*
X0110519Y0136519D01*
X0110519Y0136518D01*
X0111007Y0135341D01*
X0111007Y0134066D01*
X0110519Y0132889D01*
X0109618Y0131988D01*
X0109507Y0131942D01*
X0109507Y0123198D01*
X0102797Y0116488D01*
X0103419Y0116488D01*
X0103776Y0116393D01*
X0103957Y0116288D01*
X0108614Y0116288D01*
X0108795Y0116393D01*
X0109152Y0116488D01*
X0110124Y0116488D01*
X0110124Y0112132D01*
X0110124Y0112132D01*
X0110124Y0116488D01*
X0111096Y0116488D01*
X0111453Y0116393D01*
X0111634Y0116288D01*
X0112688Y0116288D01*
X0112288Y0116689D01*
X0111800Y0117866D01*
X0111800Y0119141D01*
X0112288Y0120318D01*
X0113189Y0121219D01*
X0114366Y0121707D01*
X0115641Y0121707D01*
X0116818Y0121219D01*
X0117719Y0120318D01*
X0118207Y0119141D01*
X0118207Y0117866D01*
X0117719Y0116689D01*
X0117319Y0116288D01*
X0118850Y0116288D01*
X0119031Y0116393D01*
X0119388Y0116488D01*
X0120360Y0116488D01*
X0120360Y0112132D01*
X0120360Y0112132D01*
X0120360Y0116488D01*
X0121332Y0116488D01*
X0121640Y0116406D01*
X0121947Y0116488D01*
X0122919Y0116488D01*
X0122919Y0112132D01*
X0122919Y0112132D01*
X0120360Y0112132D01*
X0120360Y0112132D01*
X0122551Y0112132D01*
X0122919Y0112132D01*
X0122919Y0112132D01*
X0122919Y0116488D01*
X0123891Y0116488D01*
X0124248Y0116393D01*
X0124429Y0116288D01*
X0126800Y0116288D01*
X0126800Y0123709D01*
X0137247Y0134156D01*
X0137247Y0137438D01*
X0133709Y0133900D01*
X0124198Y0133900D01*
X0123200Y0134898D01*
X0121579Y0136519D01*
X0114193Y0136519D01*
X0114012Y0136415D01*
X0113655Y0136319D01*
X0112683Y0136319D01*
X0112683Y0140675D01*
X0112683Y0145031D01*
X0112683Y0144327D02*
X0112683Y0144327D01*
X0112683Y0143522D02*
X0112683Y0143522D01*
X0112683Y0142716D02*
X0112683Y0142716D01*
X0112683Y0141910D02*
X0112683Y0141910D01*
X0112683Y0141105D02*
X0112683Y0141105D01*
X0112683Y0140675D02*
X0112683Y0140675D01*
X0112683Y0140299D02*
X0112683Y0140299D01*
X0112683Y0139494D02*
X0112683Y0139494D01*
X0112683Y0138688D02*
X0112683Y0138688D01*
X0112683Y0137882D02*
X0112683Y0137882D01*
X0112683Y0137077D02*
X0112683Y0137077D01*
X0110622Y0136271D02*
X0121827Y0136271D01*
X0122632Y0135466D02*
X0110955Y0135466D01*
X0111007Y0134660D02*
X0123438Y0134660D01*
X0131306Y0128215D02*
X0109507Y0128215D01*
X0109507Y0127410D02*
X0130500Y0127410D01*
X0129695Y0126604D02*
X0109507Y0126604D01*
X0109507Y0125798D02*
X0128889Y0125798D01*
X0128084Y0124993D02*
X0109507Y0124993D01*
X0109507Y0124187D02*
X0127278Y0124187D01*
X0126800Y0123382D02*
X0109507Y0123382D01*
X0108885Y0122576D02*
X0126800Y0122576D01*
X0126800Y0121770D02*
X0108080Y0121770D01*
X0107274Y0120965D02*
X0112934Y0120965D01*
X0112222Y0120159D02*
X0106468Y0120159D01*
X0105663Y0119354D02*
X0111888Y0119354D01*
X0111800Y0118548D02*
X0104857Y0118548D01*
X0104052Y0117742D02*
X0111851Y0117742D01*
X0112185Y0116937D02*
X0103246Y0116937D01*
X0110124Y0116131D02*
X0110124Y0116131D01*
X0110124Y0115326D02*
X0110124Y0115326D01*
X0110124Y0114520D02*
X0110124Y0114520D01*
X0110124Y0113714D02*
X0110124Y0113714D01*
X0110124Y0112909D02*
X0110124Y0112909D01*
X0117822Y0116937D02*
X0126800Y0116937D01*
X0126800Y0117742D02*
X0118156Y0117742D01*
X0118207Y0118548D02*
X0126800Y0118548D01*
X0126800Y0119354D02*
X0118119Y0119354D01*
X0117785Y0120159D02*
X0126800Y0120159D01*
X0126800Y0120965D02*
X0117073Y0120965D01*
X0120360Y0116131D02*
X0120360Y0116131D01*
X0120360Y0115326D02*
X0120360Y0115326D01*
X0120360Y0114520D02*
X0120360Y0114520D01*
X0120360Y0113714D02*
X0120360Y0113714D01*
X0120360Y0112909D02*
X0120360Y0112909D01*
X0122919Y0112909D02*
X0122919Y0112909D01*
X0122919Y0113714D02*
X0122919Y0113714D01*
X0122919Y0114520D02*
X0122919Y0114520D01*
X0122919Y0115326D02*
X0122919Y0115326D01*
X0122919Y0116131D02*
X0122919Y0116131D01*
X0130207Y0116131D02*
X0179900Y0116131D01*
X0179900Y0115326D02*
X0130207Y0115326D01*
X0130207Y0114520D02*
X0179900Y0114520D01*
X0179900Y0113714D02*
X0130207Y0113714D01*
X0130207Y0112909D02*
X0179900Y0112909D01*
X0179900Y0112103D02*
X0130242Y0112103D01*
X0130028Y0111298D02*
X0179900Y0111298D01*
X0179900Y0110492D02*
X0130028Y0110492D01*
X0130028Y0109686D02*
X0179900Y0109686D01*
X0179900Y0108881D02*
X0130028Y0108881D01*
X0129423Y0108075D02*
X0151873Y0108075D01*
X0151700Y0107270D02*
X0129547Y0107270D01*
X0130352Y0106464D02*
X0137751Y0106464D01*
X0137810Y0106567D02*
X0137625Y0106246D01*
X0137530Y0105890D01*
X0137530Y0103549D01*
X0141482Y0103549D01*
X0141482Y0107108D01*
X0138748Y0107108D01*
X0138391Y0107013D01*
X0138071Y0106828D01*
X0137810Y0106567D01*
X0137530Y0105659D02*
X0131158Y0105659D01*
X0131963Y0104853D02*
X0137530Y0104853D01*
X0137530Y0104047D02*
X0132769Y0104047D01*
X0133575Y0103242D02*
X0141482Y0103242D01*
X0141482Y0104047D02*
X0142289Y0104047D01*
X0142289Y0103549D02*
X0142289Y0107108D01*
X0145023Y0107108D01*
X0145380Y0107013D01*
X0145700Y0106828D01*
X0145962Y0106567D01*
X0146146Y0106246D01*
X0146242Y0105890D01*
X0146242Y0103549D01*
X0142289Y0103549D01*
X0142289Y0103242D02*
X0151700Y0103242D01*
X0151700Y0104047D02*
X0146242Y0104047D01*
X0146242Y0104853D02*
X0151700Y0104853D01*
X0151700Y0105659D02*
X0146242Y0105659D01*
X0146021Y0106464D02*
X0151700Y0106464D01*
X0151700Y0102436D02*
X0146242Y0102436D01*
X0146242Y0101631D02*
X0151700Y0101631D01*
X0151700Y0100825D02*
X0146242Y0100825D01*
X0146132Y0100019D02*
X0151700Y0100019D01*
X0151700Y0099214D02*
X0145551Y0099214D01*
X0146042Y0098408D02*
X0151700Y0098408D01*
X0151700Y0093575D02*
X0146042Y0093575D01*
X0146042Y0092769D02*
X0151700Y0092769D01*
X0151700Y0091963D02*
X0145398Y0091963D01*
X0151700Y0091158D02*
X0119710Y0091158D01*
X0119969Y0090352D02*
X0151700Y0090352D01*
X0151700Y0089547D02*
X0119969Y0089547D01*
X0119969Y0088741D02*
X0151700Y0088741D01*
X0151700Y0087935D02*
X0119969Y0087935D01*
X0119969Y0087130D02*
X0151700Y0087130D01*
X0152281Y0086324D02*
X0119969Y0086324D01*
X0119969Y0085519D02*
X0168709Y0085519D01*
X0169515Y0086324D02*
X0160526Y0086324D01*
X0161107Y0087130D02*
X0170321Y0087130D01*
X0171126Y0087935D02*
X0161107Y0087935D01*
X0161107Y0088741D02*
X0171932Y0088741D01*
X0172737Y0089547D02*
X0161107Y0089547D01*
X0161107Y0090352D02*
X0173543Y0090352D01*
X0173783Y0091158D02*
X0161107Y0091158D01*
X0161107Y0091963D02*
X0173783Y0091963D01*
X0173783Y0092769D02*
X0161107Y0092769D01*
X0161107Y0093575D02*
X0173783Y0093575D01*
X0173783Y0094380D02*
X0161107Y0094380D01*
X0161107Y0095186D02*
X0173783Y0095186D01*
X0174171Y0095991D02*
X0161107Y0095991D01*
X0161107Y0096797D02*
X0179900Y0096797D01*
X0179900Y0097603D02*
X0161107Y0097603D01*
X0161107Y0098408D02*
X0179900Y0098408D01*
X0179900Y0099214D02*
X0179735Y0099214D01*
X0171773Y0099214D02*
X0161107Y0099214D01*
X0161107Y0100019D02*
X0171499Y0100019D01*
X0171499Y0100825D02*
X0161107Y0100825D01*
X0161107Y0101631D02*
X0171499Y0101631D01*
X0171499Y0102436D02*
X0161107Y0102436D01*
X0161107Y0103242D02*
X0171499Y0103242D01*
X0171499Y0104047D02*
X0161107Y0104047D01*
X0161107Y0104853D02*
X0171499Y0104853D01*
X0171555Y0105659D02*
X0161107Y0105659D01*
X0161107Y0106464D02*
X0179900Y0106464D01*
X0179900Y0107270D02*
X0161107Y0107270D01*
X0160934Y0108075D02*
X0179900Y0108075D01*
X0179900Y0116937D02*
X0179741Y0116937D01*
X0171767Y0116937D02*
X0130207Y0116937D01*
X0130207Y0117742D02*
X0171499Y0117742D01*
X0171499Y0118548D02*
X0130207Y0118548D01*
X0130207Y0119354D02*
X0171499Y0119354D01*
X0171499Y0120159D02*
X0130207Y0120159D01*
X0130207Y0120965D02*
X0171499Y0120965D01*
X0171499Y0121770D02*
X0130207Y0121770D01*
X0130485Y0122576D02*
X0171499Y0122576D01*
X0171561Y0123382D02*
X0131291Y0123382D01*
X0132096Y0124187D02*
X0137383Y0124187D01*
X0137047Y0124993D02*
X0132902Y0124993D01*
X0133708Y0125798D02*
X0137047Y0125798D01*
X0137047Y0126604D02*
X0134513Y0126604D01*
X0135319Y0127410D02*
X0141000Y0127410D01*
X0141000Y0126604D02*
X0141807Y0126604D01*
X0141807Y0127260D02*
X0141807Y0123701D01*
X0144541Y0123701D01*
X0144898Y0123796D01*
X0145218Y0123981D01*
X0145479Y0124243D01*
X0145664Y0124563D01*
X0145760Y0124920D01*
X0145760Y0127260D01*
X0141807Y0127260D01*
X0141807Y0127410D02*
X0151700Y0127410D01*
X0151700Y0128215D02*
X0145760Y0128215D01*
X0145760Y0129021D02*
X0151700Y0129021D01*
X0151700Y0129826D02*
X0145760Y0129826D01*
X0145700Y0130632D02*
X0151700Y0130632D01*
X0151700Y0131438D02*
X0145059Y0131438D01*
X0145560Y0132243D02*
X0151700Y0132243D01*
X0151700Y0133049D02*
X0145560Y0133049D01*
X0145560Y0133854D02*
X0151700Y0133854D01*
X0151700Y0137882D02*
X0145560Y0137882D01*
X0145073Y0138688D02*
X0151700Y0138688D01*
X0151700Y0139494D02*
X0139303Y0139494D01*
X0140108Y0140299D02*
X0151700Y0140299D01*
X0151700Y0141105D02*
X0140914Y0141105D01*
X0141720Y0141910D02*
X0151700Y0141910D01*
X0151700Y0142716D02*
X0142525Y0142716D01*
X0143331Y0143522D02*
X0151700Y0143522D01*
X0151700Y0144327D02*
X0144136Y0144327D01*
X0144942Y0145133D02*
X0151700Y0145133D01*
X0151736Y0145938D02*
X0145748Y0145938D01*
X0146553Y0146744D02*
X0177200Y0146744D01*
X0177200Y0145938D02*
X0161071Y0145938D01*
X0161107Y0145133D02*
X0177200Y0145133D01*
X0177200Y0144327D02*
X0161107Y0144327D01*
X0161107Y0143522D02*
X0177200Y0143522D01*
X0177200Y0142716D02*
X0161107Y0142716D01*
X0161107Y0141910D02*
X0177200Y0141910D01*
X0177200Y0141105D02*
X0161107Y0141105D01*
X0161107Y0140299D02*
X0177200Y0140299D01*
X0177200Y0139494D02*
X0161107Y0139494D01*
X0161107Y0138688D02*
X0177200Y0138688D01*
X0177200Y0137882D02*
X0161107Y0137882D01*
X0161107Y0137077D02*
X0177200Y0137077D01*
X0177200Y0136271D02*
X0161107Y0136271D01*
X0161107Y0135466D02*
X0177200Y0135466D01*
X0177200Y0134660D02*
X0161107Y0134660D01*
X0161107Y0133854D02*
X0177200Y0133854D01*
X0177200Y0133049D02*
X0161107Y0133049D01*
X0161107Y0132243D02*
X0177200Y0132243D01*
X0177200Y0131438D02*
X0161107Y0131438D01*
X0161107Y0130632D02*
X0177200Y0130632D01*
X0177200Y0129826D02*
X0161107Y0129826D01*
X0161107Y0129021D02*
X0177200Y0129021D01*
X0177200Y0128215D02*
X0161107Y0128215D01*
X0161107Y0127410D02*
X0177200Y0127410D01*
X0177200Y0126604D02*
X0161107Y0126604D01*
X0161107Y0125798D02*
X0177299Y0125798D01*
X0178105Y0124993D02*
X0161107Y0124993D01*
X0151700Y0124993D02*
X0145760Y0124993D01*
X0145760Y0125798D02*
X0151700Y0125798D01*
X0151700Y0126604D02*
X0145760Y0126604D01*
X0145424Y0124187D02*
X0178911Y0124187D01*
X0185312Y0144103D02*
X0187807Y0146598D01*
X0187807Y0148009D01*
X0187807Y0151998D01*
X0197047Y0161238D01*
X0197047Y0160547D01*
X0201000Y0160547D01*
X0201000Y0159740D01*
X0197047Y0159740D01*
X0197047Y0157400D01*
X0197143Y0157043D01*
X0197328Y0156723D01*
X0197589Y0156462D01*
X0197842Y0156316D01*
X0197247Y0155721D01*
X0197247Y0150056D01*
X0189969Y0142778D01*
X0189969Y0143398D01*
X0189264Y0144103D01*
X0185312Y0144103D01*
X0185536Y0144327D02*
X0191518Y0144327D01*
X0190712Y0143522D02*
X0189846Y0143522D01*
X0192324Y0145133D02*
X0186342Y0145133D01*
X0187148Y0145938D02*
X0193129Y0145938D01*
X0193935Y0146744D02*
X0187807Y0146744D01*
X0187807Y0147550D02*
X0194740Y0147550D01*
X0195546Y0148355D02*
X0187807Y0148355D01*
X0187807Y0149161D02*
X0196352Y0149161D01*
X0197157Y0149966D02*
X0187807Y0149966D01*
X0187807Y0150772D02*
X0197247Y0150772D01*
X0197247Y0151578D02*
X0187807Y0151578D01*
X0188192Y0152383D02*
X0197247Y0152383D01*
X0197247Y0153189D02*
X0188998Y0153189D01*
X0189804Y0153994D02*
X0197247Y0153994D01*
X0197247Y0154800D02*
X0190609Y0154800D01*
X0191415Y0155606D02*
X0197247Y0155606D01*
X0197676Y0156411D02*
X0192220Y0156411D01*
X0193026Y0157217D02*
X0197096Y0157217D01*
X0197047Y0158022D02*
X0193832Y0158022D01*
X0194637Y0158828D02*
X0197047Y0158828D01*
X0197047Y0159634D02*
X0195443Y0159634D01*
X0196248Y0160439D02*
X0201000Y0160439D01*
X0201000Y0160547D02*
X0201000Y0164106D01*
X0199915Y0164106D01*
X0215609Y0179800D01*
X0253770Y0179800D01*
X0253701Y0179541D01*
X0253701Y0176807D01*
X0257260Y0176807D01*
X0257260Y0176000D01*
X0258067Y0176000D01*
X0258067Y0172047D01*
X0260407Y0172047D01*
X0260764Y0172143D01*
X0261084Y0172328D01*
X0261346Y0172589D01*
X0261492Y0172842D01*
X0262086Y0172247D01*
X0263600Y0172247D01*
X0263600Y0167038D01*
X0263518Y0167119D01*
X0262341Y0167607D01*
X0261066Y0167607D01*
X0259889Y0167119D01*
X0258988Y0166218D01*
X0258942Y0166107D01*
X0250560Y0166107D01*
X0250560Y0168201D01*
X0249855Y0168906D01*
X0242952Y0168906D01*
X0242247Y0168201D01*
X0242247Y0166107D01*
X0233098Y0166107D01*
X0225760Y0158769D01*
X0225760Y0159740D01*
X0221807Y0159740D01*
X0221807Y0160547D01*
X0225760Y0160547D01*
X0225760Y0162888D01*
X0225664Y0163245D01*
X0225479Y0163565D01*
X0225218Y0163826D01*
X0224898Y0164011D01*
X0224541Y0164106D01*
X0221807Y0164106D01*
X0221807Y0160547D01*
X0221000Y0160547D01*
X0221000Y0159740D01*
X0217047Y0159740D01*
X0217047Y0157400D01*
X0217143Y0157043D01*
X0217328Y0156723D01*
X0217589Y0156462D01*
X0217842Y0156316D01*
X0217247Y0155721D01*
X0217247Y0154407D01*
X0205560Y0154407D01*
X0205560Y0155721D01*
X0204965Y0156316D01*
X0205218Y0156462D01*
X0205479Y0156723D01*
X0205664Y0157043D01*
X0205760Y0157400D01*
X0205760Y0159740D01*
X0201807Y0159740D01*
X0201807Y0160547D01*
X0205760Y0160547D01*
X0205760Y0162888D01*
X0205664Y0163245D01*
X0205479Y0163565D01*
X0205218Y0163826D01*
X0204898Y0164011D01*
X0204541Y0164106D01*
X0201807Y0164106D01*
X0201807Y0160547D01*
X0201000Y0160547D01*
X0201000Y0161245D02*
X0201807Y0161245D01*
X0201807Y0162050D02*
X0201000Y0162050D01*
X0201000Y0162856D02*
X0201807Y0162856D01*
X0201807Y0163662D02*
X0201000Y0163662D01*
X0200276Y0164467D02*
X0231458Y0164467D01*
X0230652Y0163662D02*
X0225382Y0163662D01*
X0225760Y0162856D02*
X0229847Y0162856D01*
X0229041Y0162050D02*
X0225760Y0162050D01*
X0225760Y0161245D02*
X0228236Y0161245D01*
X0227430Y0160439D02*
X0221807Y0160439D01*
X0221807Y0161245D02*
X0221000Y0161245D01*
X0221000Y0160547D02*
X0221000Y0164106D01*
X0218266Y0164106D01*
X0217909Y0164011D01*
X0217589Y0163826D01*
X0217328Y0163565D01*
X0217143Y0163245D01*
X0217047Y0162888D01*
X0217047Y0160547D01*
X0221000Y0160547D01*
X0221000Y0160439D02*
X0201807Y0160439D01*
X0205760Y0159634D02*
X0217047Y0159634D01*
X0217047Y0158828D02*
X0205760Y0158828D01*
X0205760Y0158022D02*
X0217047Y0158022D01*
X0217096Y0157217D02*
X0205711Y0157217D01*
X0205131Y0156411D02*
X0217676Y0156411D01*
X0217247Y0155606D02*
X0205560Y0155606D01*
X0205560Y0154800D02*
X0217247Y0154800D01*
X0225760Y0158828D02*
X0225819Y0158828D01*
X0225760Y0159634D02*
X0226624Y0159634D01*
X0221807Y0162050D02*
X0221000Y0162050D01*
X0221000Y0162856D02*
X0221807Y0162856D01*
X0221807Y0163662D02*
X0221000Y0163662D01*
X0217425Y0163662D02*
X0205382Y0163662D01*
X0205760Y0162856D02*
X0217047Y0162856D01*
X0217047Y0162050D02*
X0205760Y0162050D01*
X0205760Y0161245D02*
X0217047Y0161245D01*
X0205915Y0170106D02*
X0263600Y0170106D01*
X0263600Y0169301D02*
X0205110Y0169301D01*
X0204304Y0168495D02*
X0242541Y0168495D01*
X0242247Y0167690D02*
X0203499Y0167690D01*
X0202693Y0166884D02*
X0242247Y0166884D01*
X0250266Y0168495D02*
X0263600Y0168495D01*
X0263600Y0167690D02*
X0250560Y0167690D01*
X0250560Y0166884D02*
X0259653Y0166884D01*
X0263600Y0170912D02*
X0206721Y0170912D01*
X0207527Y0171718D02*
X0263600Y0171718D01*
X0261810Y0172523D02*
X0261280Y0172523D01*
X0258067Y0172523D02*
X0257260Y0172523D01*
X0257260Y0172047D02*
X0254920Y0172047D01*
X0254563Y0172143D01*
X0254243Y0172328D01*
X0253981Y0172589D01*
X0253796Y0172909D01*
X0253701Y0173266D01*
X0253701Y0176000D01*
X0257260Y0176000D01*
X0257260Y0172047D01*
X0257260Y0173329D02*
X0258067Y0173329D01*
X0258067Y0174134D02*
X0257260Y0174134D01*
X0257260Y0174940D02*
X0258067Y0174940D01*
X0258067Y0175746D02*
X0257260Y0175746D01*
X0257260Y0176551D02*
X0212360Y0176551D01*
X0211555Y0175746D02*
X0253701Y0175746D01*
X0253701Y0174940D02*
X0210749Y0174940D01*
X0209943Y0174134D02*
X0253701Y0174134D01*
X0253701Y0173329D02*
X0209138Y0173329D01*
X0208332Y0172523D02*
X0254047Y0172523D01*
X0253701Y0177357D02*
X0213166Y0177357D01*
X0213971Y0178162D02*
X0253701Y0178162D01*
X0253701Y0178968D02*
X0214777Y0178968D01*
X0215583Y0179774D02*
X0253763Y0179774D01*
X0243932Y0183802D02*
X0271665Y0183802D01*
X0271488Y0182996D02*
X0268920Y0182996D01*
X0269726Y0182190D02*
X0271488Y0182190D01*
X0271488Y0181385D02*
X0270532Y0181385D01*
X0271337Y0180579D02*
X0271488Y0180579D01*
X0271998Y0184607D02*
X0244207Y0184607D01*
X0244207Y0185413D02*
X0272332Y0185413D01*
X0272666Y0186218D02*
X0244009Y0186218D01*
X0243614Y0187024D02*
X0273001Y0187024D01*
X0273807Y0187829D02*
X0242794Y0187829D01*
X0239213Y0187829D02*
X0130654Y0187829D01*
X0131460Y0187024D02*
X0238393Y0187024D01*
X0214509Y0186218D02*
X0132266Y0186218D01*
X0133071Y0185413D02*
X0156104Y0185413D01*
X0155298Y0184607D02*
X0133877Y0184607D01*
X0139960Y0183802D02*
X0148753Y0183802D01*
X0148192Y0182996D02*
X0140560Y0182996D01*
X0140560Y0182190D02*
X0148192Y0182190D01*
X0148192Y0181385D02*
X0140560Y0181385D01*
X0140560Y0180579D02*
X0148192Y0180579D01*
X0148192Y0179774D02*
X0140560Y0179774D01*
X0140648Y0178968D02*
X0148192Y0178968D01*
X0148192Y0178162D02*
X0141454Y0178162D01*
X0142260Y0177357D02*
X0148192Y0177357D01*
X0148192Y0176551D02*
X0143065Y0176551D01*
X0143871Y0175746D02*
X0148192Y0175746D01*
X0148192Y0174940D02*
X0144676Y0174940D01*
X0145482Y0174134D02*
X0148427Y0174134D01*
X0148251Y0173329D02*
X0146288Y0173329D01*
X0147093Y0172523D02*
X0147917Y0172523D01*
X0151870Y0168495D02*
X0196786Y0168495D01*
X0195980Y0167690D02*
X0151807Y0167690D01*
X0151807Y0166884D02*
X0195175Y0166884D01*
X0194369Y0166078D02*
X0185938Y0166078D01*
X0186743Y0165273D02*
X0193564Y0165273D01*
X0197592Y0169301D02*
X0153231Y0169301D01*
X0153851Y0170106D02*
X0198397Y0170106D01*
X0199203Y0170912D02*
X0154185Y0170912D01*
X0154207Y0171718D02*
X0200008Y0171718D01*
X0200814Y0172523D02*
X0193477Y0172523D01*
X0193906Y0173329D02*
X0201620Y0173329D01*
X0202425Y0174134D02*
X0193906Y0174134D01*
X0193906Y0174940D02*
X0203231Y0174940D01*
X0204036Y0175746D02*
X0193906Y0175746D01*
X0193906Y0176551D02*
X0204842Y0176551D01*
X0205648Y0177357D02*
X0193906Y0177357D01*
X0193906Y0178162D02*
X0206453Y0178162D01*
X0207259Y0178968D02*
X0193906Y0178968D01*
X0193906Y0179774D02*
X0208064Y0179774D01*
X0208870Y0180579D02*
X0188537Y0180579D01*
X0187732Y0181385D02*
X0209676Y0181385D01*
X0210481Y0182190D02*
X0186926Y0182190D01*
X0186120Y0182996D02*
X0211287Y0182996D01*
X0212092Y0183802D02*
X0185315Y0183802D01*
X0184509Y0184607D02*
X0212898Y0184607D01*
X0213704Y0185413D02*
X0183704Y0185413D01*
X0182108Y0182190D02*
X0174815Y0182190D01*
X0174815Y0181385D02*
X0182913Y0181385D01*
X0183067Y0180579D02*
X0182260Y0180579D01*
X0182260Y0179774D02*
X0183067Y0179774D01*
X0183067Y0178968D02*
X0182260Y0178968D01*
X0182260Y0178162D02*
X0183067Y0178162D01*
X0183067Y0177357D02*
X0182260Y0177357D01*
X0182260Y0176551D02*
X0174815Y0176551D01*
X0174815Y0175746D02*
X0178701Y0175746D01*
X0178701Y0176000D02*
X0178701Y0173266D01*
X0178796Y0172909D01*
X0178981Y0172589D01*
X0179243Y0172328D01*
X0179563Y0172143D01*
X0179920Y0172047D01*
X0182260Y0172047D01*
X0182260Y0176000D01*
X0178701Y0176000D01*
X0178701Y0174940D02*
X0174815Y0174940D01*
X0174815Y0174683D02*
X0174815Y0178402D01*
X0170862Y0178402D01*
X0170862Y0173465D01*
X0173596Y0173465D01*
X0173953Y0173560D01*
X0174273Y0173745D01*
X0174535Y0174006D01*
X0174719Y0174326D01*
X0174815Y0174683D01*
X0174608Y0174134D02*
X0178701Y0174134D01*
X0178701Y0173329D02*
X0153756Y0173329D01*
X0154090Y0172523D02*
X0179047Y0172523D01*
X0182260Y0172523D02*
X0183067Y0172523D01*
X0183067Y0173329D02*
X0182260Y0173329D01*
X0182260Y0174134D02*
X0183067Y0174134D01*
X0183067Y0174940D02*
X0182260Y0174940D01*
X0182260Y0175746D02*
X0183067Y0175746D01*
X0186280Y0172523D02*
X0186810Y0172523D01*
X0178701Y0177357D02*
X0174815Y0177357D01*
X0174815Y0178162D02*
X0178701Y0178162D01*
X0178701Y0178968D02*
X0170862Y0178968D01*
X0170862Y0178162D02*
X0170055Y0178162D01*
X0170055Y0177357D02*
X0170862Y0177357D01*
X0170862Y0176551D02*
X0170055Y0176551D01*
X0170055Y0175746D02*
X0170862Y0175746D01*
X0170862Y0174940D02*
X0170055Y0174940D01*
X0170055Y0174134D02*
X0170862Y0174134D01*
X0166309Y0174134D02*
X0165325Y0174134D01*
X0165560Y0174940D02*
X0166102Y0174940D01*
X0166102Y0175746D02*
X0165560Y0175746D01*
X0165560Y0176551D02*
X0166102Y0176551D01*
X0166102Y0177357D02*
X0165560Y0177357D01*
X0165560Y0178162D02*
X0166102Y0178162D01*
X0165560Y0178968D02*
X0170055Y0178968D01*
X0166102Y0179774D02*
X0165560Y0179774D01*
X0165560Y0180579D02*
X0166102Y0180579D01*
X0166102Y0181385D02*
X0165560Y0181385D01*
X0165560Y0182190D02*
X0166102Y0182190D01*
X0174815Y0180579D02*
X0179415Y0180579D01*
X0178763Y0179774D02*
X0174815Y0179774D01*
X0157247Y0179774D02*
X0156505Y0179774D01*
X0156505Y0180579D02*
X0157247Y0180579D01*
X0157247Y0181385D02*
X0156894Y0181385D01*
X0157247Y0178968D02*
X0156505Y0178968D01*
X0156505Y0178162D02*
X0157247Y0178162D01*
X0157247Y0177357D02*
X0156505Y0177357D01*
X0156505Y0176551D02*
X0157247Y0176551D01*
X0157247Y0175746D02*
X0156505Y0175746D01*
X0156505Y0174940D02*
X0157247Y0174940D01*
X0157482Y0174134D02*
X0156269Y0174134D01*
X0151807Y0166078D02*
X0170969Y0166078D01*
X0170164Y0165273D02*
X0151807Y0165273D01*
X0151807Y0164467D02*
X0169358Y0164467D01*
X0168552Y0163662D02*
X0151807Y0163662D01*
X0151807Y0162856D02*
X0167747Y0162856D01*
X0166941Y0162050D02*
X0151807Y0162050D01*
X0151807Y0161245D02*
X0166136Y0161245D01*
X0165330Y0160439D02*
X0151807Y0160439D01*
X0151807Y0159634D02*
X0164524Y0159634D01*
X0169343Y0159634D02*
X0177047Y0159634D01*
X0177047Y0158828D02*
X0169697Y0158828D01*
X0170087Y0158022D02*
X0177047Y0158022D01*
X0177096Y0157217D02*
X0170087Y0157217D01*
X0170087Y0156411D02*
X0177676Y0156411D01*
X0177247Y0155606D02*
X0170087Y0155606D01*
X0170087Y0154800D02*
X0177247Y0154800D01*
X0177247Y0153994D02*
X0170087Y0153994D01*
X0170087Y0153189D02*
X0177247Y0153189D01*
X0177247Y0152383D02*
X0170087Y0152383D01*
X0170087Y0151578D02*
X0177247Y0151578D01*
X0177247Y0150772D02*
X0170087Y0150772D01*
X0170087Y0149966D02*
X0177200Y0149966D01*
X0177200Y0149161D02*
X0169682Y0149161D01*
X0177200Y0148355D02*
X0148164Y0148355D01*
X0147359Y0147550D02*
X0177200Y0147550D01*
X0181000Y0160439D02*
X0170148Y0160439D01*
X0170954Y0161245D02*
X0177047Y0161245D01*
X0177047Y0162050D02*
X0171760Y0162050D01*
X0153110Y0158828D02*
X0151807Y0158828D01*
X0151807Y0158022D02*
X0152720Y0158022D01*
X0152720Y0157217D02*
X0151807Y0157217D01*
X0151807Y0156411D02*
X0152720Y0156411D01*
X0152720Y0155606D02*
X0151807Y0155606D01*
X0151807Y0154800D02*
X0152720Y0154800D01*
X0152720Y0153994D02*
X0151807Y0153994D01*
X0151807Y0153189D02*
X0152720Y0153189D01*
X0152720Y0152383D02*
X0151807Y0152383D01*
X0151387Y0151578D02*
X0152720Y0151578D01*
X0152720Y0150772D02*
X0150581Y0150772D01*
X0149776Y0149966D02*
X0152720Y0149966D01*
X0153125Y0149161D02*
X0148970Y0149161D01*
X0137247Y0137077D02*
X0136886Y0137077D01*
X0137247Y0136271D02*
X0136080Y0136271D01*
X0135275Y0135466D02*
X0137247Y0135466D01*
X0137247Y0134660D02*
X0134469Y0134660D01*
X0136140Y0133049D02*
X0110586Y0133049D01*
X0110919Y0133854D02*
X0136945Y0133854D01*
X0135334Y0132243D02*
X0109874Y0132243D01*
X0109507Y0131438D02*
X0134528Y0131438D01*
X0133723Y0130632D02*
X0109507Y0130632D01*
X0109507Y0129826D02*
X0132917Y0129826D01*
X0132112Y0129021D02*
X0109507Y0129021D01*
X0091426Y0123382D02*
X0090760Y0123382D01*
X0086000Y0122576D02*
X0076807Y0122576D01*
X0076807Y0123382D02*
X0076000Y0123382D01*
X0076000Y0124187D02*
X0076807Y0124187D01*
X0076807Y0124993D02*
X0076000Y0124993D01*
X0076000Y0125798D02*
X0076807Y0125798D01*
X0073255Y0125798D02*
X0060520Y0125798D01*
X0060520Y0124993D02*
X0063291Y0124993D01*
X0061153Y0124187D02*
X0060220Y0124187D01*
X0060283Y0123382D02*
X0046714Y0123382D01*
X0047047Y0122576D02*
X0059477Y0122576D01*
X0058671Y0121770D02*
X0047381Y0121770D01*
X0047579Y0120965D02*
X0057866Y0120965D01*
X0057060Y0120159D02*
X0047579Y0120159D01*
X0060520Y0126604D02*
X0082729Y0126604D01*
X0082256Y0117742D02*
X0085686Y0117742D01*
X0088151Y0115326D02*
X0092779Y0115326D01*
X0092779Y0114520D02*
X0087054Y0114520D01*
X0088087Y0113714D02*
X0085956Y0113714D01*
X0085703Y0113714D02*
X0082733Y0113714D01*
X0081961Y0112909D02*
X0087281Y0112909D01*
X0084864Y0110492D02*
X0082124Y0110492D01*
X0082748Y0109686D02*
X0084059Y0109686D01*
X0085400Y0095991D02*
X0070560Y0095991D01*
X0070560Y0095186D02*
X0085400Y0095186D01*
X0085400Y0094380D02*
X0070560Y0094380D01*
X0070560Y0093575D02*
X0085400Y0093575D01*
X0085400Y0092769D02*
X0070560Y0092769D01*
X0070437Y0091963D02*
X0085400Y0091963D01*
X0085400Y0091158D02*
X0070406Y0091158D01*
X0070760Y0090352D02*
X0085400Y0090352D01*
X0085751Y0089547D02*
X0070760Y0089547D01*
X0070760Y0088741D02*
X0086557Y0088741D01*
X0087363Y0087935D02*
X0066807Y0087935D01*
X0066807Y0087260D02*
X0070760Y0087260D01*
X0070760Y0084920D01*
X0070664Y0084563D01*
X0070479Y0084243D01*
X0070218Y0083981D01*
X0069898Y0083796D01*
X0069541Y0083701D01*
X0066807Y0083701D01*
X0066807Y0087260D01*
X0066807Y0087130D02*
X0066000Y0087130D01*
X0066000Y0087935D02*
X0046507Y0087935D01*
X0046507Y0087130D02*
X0062047Y0087130D01*
X0062047Y0086324D02*
X0046507Y0086324D01*
X0046507Y0085519D02*
X0062047Y0085519D01*
X0062103Y0084713D02*
X0046803Y0084713D01*
X0047609Y0083907D02*
X0062717Y0083907D01*
X0066000Y0083907D02*
X0066807Y0083907D01*
X0066807Y0084713D02*
X0066000Y0084713D01*
X0066000Y0085519D02*
X0066807Y0085519D01*
X0066807Y0086324D02*
X0066000Y0086324D01*
X0062047Y0088741D02*
X0046507Y0088741D01*
X0043100Y0088741D02*
X0025807Y0088741D01*
X0025807Y0088743D02*
X0035012Y0088743D01*
X0035717Y0089448D01*
X0035717Y0096381D01*
X0043100Y0088998D01*
X0043100Y0083598D01*
X0107000Y0019698D01*
X0107998Y0018700D01*
X0244409Y0018700D01*
X0247880Y0022171D01*
X0248715Y0021336D01*
X0250459Y0020613D01*
X0252348Y0020613D01*
X0254092Y0021336D01*
X0255428Y0022671D01*
X0256150Y0024416D01*
X0256150Y0032241D01*
X0256457Y0032548D01*
X0256457Y0029307D01*
X0261000Y0029307D01*
X0261000Y0028500D01*
X0261807Y0028500D01*
X0261807Y0020416D01*
X0262562Y0020535D01*
X0263302Y0020776D01*
X0263996Y0021129D01*
X0264626Y0021587D01*
X0265177Y0022138D01*
X0265634Y0022768D01*
X0265988Y0023461D01*
X0266229Y0024202D01*
X0266350Y0024971D01*
X0266350Y0028500D01*
X0261807Y0028500D01*
X0261807Y0029307D01*
X0266350Y0029307D01*
X0266350Y0032836D01*
X0266229Y0033605D01*
X0265988Y0034346D01*
X0265634Y0035040D01*
X0265177Y0035670D01*
X0265046Y0035800D01*
X0278179Y0035800D01*
X0275787Y0034809D01*
X0272998Y0032020D01*
X0271488Y0028376D01*
X0271488Y0024431D01*
X0272998Y0020787D01*
X0275787Y0017998D01*
X0279431Y0016488D01*
X0283376Y0016488D01*
X0287020Y0017998D01*
X0289809Y0020787D01*
X0290701Y0022939D01*
X0290701Y0015807D01*
X0025807Y0015807D01*
X0025807Y0088743D01*
X0025807Y0087935D02*
X0043100Y0087935D01*
X0043100Y0087130D02*
X0025807Y0087130D01*
X0025807Y0086324D02*
X0043100Y0086324D01*
X0043100Y0085519D02*
X0025807Y0085519D01*
X0025807Y0084713D02*
X0043100Y0084713D01*
X0043100Y0083907D02*
X0025807Y0083907D01*
X0025807Y0083102D02*
X0043596Y0083102D01*
X0044402Y0082296D02*
X0025807Y0082296D01*
X0025807Y0081491D02*
X0045207Y0081491D01*
X0046013Y0080685D02*
X0025807Y0080685D01*
X0025807Y0079879D02*
X0046819Y0079879D01*
X0047624Y0079074D02*
X0025807Y0079074D01*
X0025807Y0078268D02*
X0048430Y0078268D01*
X0049235Y0077463D02*
X0025807Y0077463D01*
X0025807Y0076657D02*
X0050041Y0076657D01*
X0050847Y0075851D02*
X0025807Y0075851D01*
X0025807Y0075046D02*
X0051652Y0075046D01*
X0052458Y0074240D02*
X0025807Y0074240D01*
X0025807Y0073435D02*
X0053263Y0073435D01*
X0054069Y0072629D02*
X0025807Y0072629D01*
X0025807Y0071823D02*
X0054875Y0071823D01*
X0055680Y0071018D02*
X0025807Y0071018D01*
X0025807Y0070212D02*
X0056486Y0070212D01*
X0057291Y0069407D02*
X0025807Y0069407D01*
X0025807Y0068601D02*
X0058097Y0068601D01*
X0058903Y0067795D02*
X0025807Y0067795D01*
X0025807Y0066990D02*
X0059708Y0066990D01*
X0060514Y0066184D02*
X0025807Y0066184D01*
X0025807Y0065379D02*
X0061319Y0065379D01*
X0062125Y0064573D02*
X0025807Y0064573D01*
X0025807Y0063767D02*
X0062930Y0063767D01*
X0063736Y0062962D02*
X0025807Y0062962D01*
X0025807Y0062156D02*
X0064542Y0062156D01*
X0065347Y0061351D02*
X0025807Y0061351D01*
X0025807Y0060545D02*
X0066153Y0060545D01*
X0066958Y0059739D02*
X0025807Y0059739D01*
X0025807Y0058934D02*
X0067764Y0058934D01*
X0068570Y0058128D02*
X0025807Y0058128D01*
X0025807Y0057323D02*
X0069375Y0057323D01*
X0070181Y0056517D02*
X0025807Y0056517D01*
X0025807Y0055711D02*
X0070986Y0055711D01*
X0071792Y0054906D02*
X0025807Y0054906D01*
X0025807Y0054100D02*
X0072598Y0054100D01*
X0073403Y0053295D02*
X0025807Y0053295D01*
X0025807Y0052489D02*
X0074209Y0052489D01*
X0075014Y0051683D02*
X0025807Y0051683D01*
X0025807Y0050878D02*
X0075820Y0050878D01*
X0076626Y0050072D02*
X0025807Y0050072D01*
X0025807Y0049267D02*
X0077431Y0049267D01*
X0078237Y0048461D02*
X0025807Y0048461D01*
X0025807Y0047655D02*
X0079042Y0047655D01*
X0079848Y0046850D02*
X0025807Y0046850D01*
X0025807Y0046044D02*
X0080654Y0046044D01*
X0081459Y0045239D02*
X0025807Y0045239D01*
X0025807Y0044433D02*
X0082265Y0044433D01*
X0083070Y0043627D02*
X0025807Y0043627D01*
X0025807Y0042822D02*
X0083876Y0042822D01*
X0084682Y0042016D02*
X0025807Y0042016D01*
X0025807Y0041211D02*
X0085487Y0041211D01*
X0086293Y0040405D02*
X0025807Y0040405D01*
X0025807Y0039599D02*
X0087098Y0039599D01*
X0087904Y0038794D02*
X0025807Y0038794D01*
X0025807Y0037988D02*
X0088710Y0037988D01*
X0089515Y0037183D02*
X0025807Y0037183D01*
X0025807Y0036377D02*
X0090321Y0036377D01*
X0091126Y0035571D02*
X0040180Y0035571D01*
X0038376Y0036319D02*
X0034431Y0036319D01*
X0030787Y0034809D01*
X0027998Y0032020D01*
X0026488Y0028376D01*
X0026488Y0024431D01*
X0027998Y0020787D01*
X0030787Y0017998D01*
X0034431Y0016488D01*
X0038376Y0016488D01*
X0042020Y0017998D01*
X0044809Y0020787D01*
X0046319Y0024431D01*
X0046319Y0028376D01*
X0044809Y0032020D01*
X0042020Y0034809D01*
X0038376Y0036319D01*
X0042064Y0034766D02*
X0091932Y0034766D01*
X0092738Y0033960D02*
X0042869Y0033960D01*
X0043675Y0033155D02*
X0093543Y0033155D01*
X0094349Y0032349D02*
X0044480Y0032349D01*
X0045007Y0031543D02*
X0095154Y0031543D01*
X0095960Y0030738D02*
X0045340Y0030738D01*
X0045674Y0029932D02*
X0096766Y0029932D01*
X0097571Y0029127D02*
X0046008Y0029127D01*
X0046319Y0028321D02*
X0098377Y0028321D01*
X0099182Y0027516D02*
X0046319Y0027516D01*
X0046319Y0026710D02*
X0099988Y0026710D01*
X0100794Y0025904D02*
X0046319Y0025904D01*
X0046319Y0025099D02*
X0101599Y0025099D01*
X0102405Y0024293D02*
X0046262Y0024293D01*
X0045928Y0023488D02*
X0103210Y0023488D01*
X0104016Y0022682D02*
X0045594Y0022682D01*
X0045261Y0021876D02*
X0104822Y0021876D01*
X0105627Y0021071D02*
X0044927Y0021071D01*
X0044288Y0020265D02*
X0106433Y0020265D01*
X0107238Y0019460D02*
X0043482Y0019460D01*
X0042676Y0018654D02*
X0275131Y0018654D01*
X0274325Y0019460D02*
X0245169Y0019460D01*
X0245974Y0020265D02*
X0273520Y0020265D01*
X0272880Y0021071D02*
X0263881Y0021071D01*
X0264916Y0021876D02*
X0272546Y0021876D01*
X0272213Y0022682D02*
X0265572Y0022682D01*
X0265996Y0023488D02*
X0271879Y0023488D01*
X0271545Y0024293D02*
X0266243Y0024293D01*
X0266350Y0025099D02*
X0271488Y0025099D01*
X0271488Y0025904D02*
X0266350Y0025904D01*
X0266350Y0026710D02*
X0271488Y0026710D01*
X0271488Y0027516D02*
X0266350Y0027516D01*
X0266350Y0028321D02*
X0271488Y0028321D01*
X0271799Y0029127D02*
X0261807Y0029127D01*
X0261807Y0028321D02*
X0261000Y0028321D01*
X0261000Y0028500D02*
X0261000Y0020416D01*
X0260245Y0020535D01*
X0259505Y0020776D01*
X0258811Y0021129D01*
X0258181Y0021587D01*
X0257630Y0022138D01*
X0257173Y0022768D01*
X0256819Y0023461D01*
X0256579Y0024202D01*
X0256457Y0024971D01*
X0256457Y0028500D01*
X0261000Y0028500D01*
X0261000Y0029127D02*
X0256150Y0029127D01*
X0256150Y0029932D02*
X0256457Y0029932D01*
X0256457Y0030738D02*
X0256150Y0030738D01*
X0256150Y0031543D02*
X0256457Y0031543D01*
X0256457Y0032349D02*
X0256258Y0032349D01*
X0254827Y0035736D02*
X0254092Y0036471D01*
X0252348Y0037194D01*
X0250459Y0037194D01*
X0248715Y0036471D01*
X0247379Y0035136D01*
X0246657Y0033391D01*
X0246657Y0025766D01*
X0246150Y0025260D01*
X0246150Y0033391D01*
X0245428Y0035136D01*
X0244092Y0036471D01*
X0242348Y0037194D01*
X0241303Y0037194D01*
X0248909Y0044800D01*
X0273209Y0044800D01*
X0275656Y0047247D01*
X0280721Y0047247D01*
X0281404Y0047930D01*
X0282086Y0047247D01*
X0286138Y0047247D01*
X0278098Y0039207D01*
X0258298Y0039207D01*
X0254827Y0035736D01*
X0254186Y0036377D02*
X0255468Y0036377D01*
X0256274Y0037183D02*
X0252374Y0037183D01*
X0250433Y0037183D02*
X0242374Y0037183D01*
X0242097Y0037988D02*
X0257079Y0037988D01*
X0257885Y0038794D02*
X0242903Y0038794D01*
X0243709Y0039599D02*
X0278490Y0039599D01*
X0279296Y0040405D02*
X0244514Y0040405D01*
X0245320Y0041211D02*
X0280102Y0041211D01*
X0280907Y0042016D02*
X0246125Y0042016D01*
X0246931Y0042822D02*
X0281713Y0042822D01*
X0282518Y0043627D02*
X0247737Y0043627D01*
X0248542Y0044433D02*
X0283324Y0044433D01*
X0284130Y0045239D02*
X0273648Y0045239D01*
X0274453Y0046044D02*
X0284935Y0046044D01*
X0285741Y0046850D02*
X0275259Y0046850D01*
X0281129Y0047655D02*
X0281678Y0047655D01*
X0277627Y0035571D02*
X0265248Y0035571D01*
X0265774Y0034766D02*
X0275743Y0034766D01*
X0274938Y0033960D02*
X0266113Y0033960D01*
X0266300Y0033155D02*
X0274132Y0033155D01*
X0273327Y0032349D02*
X0266350Y0032349D01*
X0266350Y0031543D02*
X0272800Y0031543D01*
X0272467Y0030738D02*
X0266350Y0030738D01*
X0266350Y0029932D02*
X0272133Y0029932D01*
X0261807Y0027516D02*
X0261000Y0027516D01*
X0261000Y0026710D02*
X0261807Y0026710D01*
X0261807Y0025904D02*
X0261000Y0025904D01*
X0261000Y0025099D02*
X0261807Y0025099D01*
X0261807Y0024293D02*
X0261000Y0024293D01*
X0261000Y0023488D02*
X0261807Y0023488D01*
X0261807Y0022682D02*
X0261000Y0022682D01*
X0261000Y0021876D02*
X0261807Y0021876D01*
X0261807Y0021071D02*
X0261000Y0021071D01*
X0258926Y0021071D02*
X0253452Y0021071D01*
X0254633Y0021876D02*
X0257892Y0021876D01*
X0257235Y0022682D02*
X0255432Y0022682D01*
X0255766Y0023488D02*
X0256811Y0023488D01*
X0256564Y0024293D02*
X0256099Y0024293D01*
X0256150Y0025099D02*
X0256457Y0025099D01*
X0256457Y0025904D02*
X0256150Y0025904D01*
X0256150Y0026710D02*
X0256457Y0026710D01*
X0256457Y0027516D02*
X0256150Y0027516D01*
X0256150Y0028321D02*
X0256457Y0028321D01*
X0246657Y0028321D02*
X0246150Y0028321D01*
X0246150Y0027516D02*
X0246657Y0027516D01*
X0246657Y0026710D02*
X0246150Y0026710D01*
X0246150Y0025904D02*
X0246657Y0025904D01*
X0246657Y0029127D02*
X0246150Y0029127D01*
X0246150Y0029932D02*
X0246657Y0029932D01*
X0246657Y0030738D02*
X0246150Y0030738D01*
X0246150Y0031543D02*
X0246657Y0031543D01*
X0246657Y0032349D02*
X0246150Y0032349D01*
X0246150Y0033155D02*
X0246657Y0033155D01*
X0246892Y0033960D02*
X0245915Y0033960D01*
X0245581Y0034766D02*
X0247226Y0034766D01*
X0247815Y0035571D02*
X0244992Y0035571D01*
X0244186Y0036377D02*
X0248621Y0036377D01*
X0248174Y0021876D02*
X0247585Y0021876D01*
X0246780Y0021071D02*
X0249355Y0021071D01*
X0276148Y0017848D02*
X0041659Y0017848D01*
X0039715Y0017043D02*
X0278092Y0017043D01*
X0284715Y0017043D02*
X0290701Y0017043D01*
X0290701Y0017848D02*
X0286659Y0017848D01*
X0287676Y0018654D02*
X0290701Y0018654D01*
X0290701Y0019460D02*
X0288482Y0019460D01*
X0289288Y0020265D02*
X0290701Y0020265D01*
X0290701Y0021071D02*
X0289927Y0021071D01*
X0290261Y0021876D02*
X0290701Y0021876D01*
X0290701Y0022682D02*
X0290594Y0022682D01*
X0290701Y0016237D02*
X0025807Y0016237D01*
X0025807Y0017043D02*
X0033092Y0017043D01*
X0031148Y0017848D02*
X0025807Y0017848D01*
X0025807Y0018654D02*
X0030131Y0018654D01*
X0029325Y0019460D02*
X0025807Y0019460D01*
X0025807Y0020265D02*
X0028520Y0020265D01*
X0027880Y0021071D02*
X0025807Y0021071D01*
X0025807Y0021876D02*
X0027546Y0021876D01*
X0027213Y0022682D02*
X0025807Y0022682D01*
X0025807Y0023488D02*
X0026879Y0023488D01*
X0026545Y0024293D02*
X0025807Y0024293D01*
X0025807Y0025099D02*
X0026488Y0025099D01*
X0026488Y0025904D02*
X0025807Y0025904D01*
X0025807Y0026710D02*
X0026488Y0026710D01*
X0026488Y0027516D02*
X0025807Y0027516D01*
X0025807Y0028321D02*
X0026488Y0028321D01*
X0026799Y0029127D02*
X0025807Y0029127D01*
X0025807Y0029932D02*
X0027133Y0029932D01*
X0027467Y0030738D02*
X0025807Y0030738D01*
X0025807Y0031543D02*
X0027800Y0031543D01*
X0028327Y0032349D02*
X0025807Y0032349D01*
X0025807Y0033155D02*
X0029132Y0033155D01*
X0029938Y0033960D02*
X0025807Y0033960D01*
X0025807Y0034766D02*
X0030743Y0034766D01*
X0032627Y0035571D02*
X0025807Y0035571D01*
X0067749Y0063767D02*
X0083701Y0063767D01*
X0083701Y0063266D02*
X0083796Y0062909D01*
X0083981Y0062589D01*
X0084243Y0062328D01*
X0084563Y0062143D01*
X0084920Y0062047D01*
X0087260Y0062047D01*
X0087260Y0066000D01*
X0083701Y0066000D01*
X0083701Y0063266D01*
X0083782Y0062962D02*
X0068554Y0062962D01*
X0069360Y0062156D02*
X0084539Y0062156D01*
X0083701Y0064573D02*
X0066943Y0064573D01*
X0066138Y0065379D02*
X0083701Y0065379D01*
X0083701Y0066990D02*
X0064526Y0066990D01*
X0063721Y0067795D02*
X0083701Y0067795D01*
X0083701Y0068601D02*
X0062915Y0068601D01*
X0062110Y0069407D02*
X0083701Y0069407D01*
X0083978Y0070212D02*
X0061304Y0070212D01*
X0060498Y0071018D02*
X0102500Y0071018D01*
X0102500Y0071823D02*
X0059693Y0071823D01*
X0058887Y0072629D02*
X0102500Y0072629D01*
X0102500Y0073435D02*
X0058082Y0073435D01*
X0057276Y0074240D02*
X0101636Y0074240D01*
X0101216Y0075046D02*
X0056470Y0075046D01*
X0055665Y0075851D02*
X0101000Y0075851D01*
X0101000Y0076657D02*
X0099717Y0076657D01*
X0099969Y0077463D02*
X0101258Y0077463D01*
X0093090Y0076657D02*
X0054859Y0076657D01*
X0054054Y0077463D02*
X0092838Y0077463D01*
X0092838Y0078268D02*
X0053248Y0078268D01*
X0052442Y0079074D02*
X0092838Y0079074D01*
X0092838Y0079879D02*
X0051637Y0079879D01*
X0050831Y0080685D02*
X0092838Y0080685D01*
X0092838Y0081491D02*
X0050026Y0081491D01*
X0049220Y0082296D02*
X0092838Y0082296D01*
X0092196Y0083102D02*
X0048414Y0083102D01*
X0042551Y0089547D02*
X0035717Y0089547D01*
X0035717Y0090352D02*
X0041746Y0090352D01*
X0040940Y0091158D02*
X0035717Y0091158D01*
X0035717Y0091963D02*
X0040135Y0091963D01*
X0039329Y0092769D02*
X0035717Y0092769D01*
X0035717Y0093575D02*
X0038523Y0093575D01*
X0037718Y0094380D02*
X0035717Y0094380D01*
X0035717Y0095186D02*
X0036912Y0095186D01*
X0036107Y0095991D02*
X0035717Y0095991D01*
X0060520Y0095991D02*
X0062247Y0095991D01*
X0062247Y0095186D02*
X0060520Y0095186D01*
X0060520Y0094380D02*
X0062247Y0094380D01*
X0062247Y0093575D02*
X0060520Y0093575D01*
X0060520Y0092769D02*
X0062247Y0092769D01*
X0062370Y0091963D02*
X0060520Y0091963D01*
X0060520Y0091158D02*
X0062401Y0091158D01*
X0062047Y0090352D02*
X0060520Y0090352D01*
X0060520Y0089547D02*
X0062047Y0089547D01*
X0070760Y0087130D02*
X0088168Y0087130D01*
X0088974Y0086324D02*
X0070760Y0086324D01*
X0070760Y0085519D02*
X0089779Y0085519D01*
X0090585Y0084713D02*
X0070704Y0084713D01*
X0070090Y0083907D02*
X0091391Y0083907D01*
X0091349Y0070212D02*
X0091738Y0070212D01*
X0088067Y0070212D02*
X0087260Y0070212D01*
X0087260Y0069407D02*
X0088067Y0069407D01*
X0088067Y0068601D02*
X0087260Y0068601D01*
X0087260Y0067795D02*
X0088067Y0067795D01*
X0088067Y0066990D02*
X0087260Y0066990D01*
X0087260Y0066184D02*
X0065332Y0066184D01*
X0070166Y0061351D02*
X0114200Y0061351D01*
X0114200Y0062156D02*
X0090787Y0062156D01*
X0088067Y0062156D02*
X0087260Y0062156D01*
X0087260Y0062962D02*
X0088067Y0062962D01*
X0088067Y0063767D02*
X0087260Y0063767D01*
X0087260Y0064573D02*
X0088067Y0064573D01*
X0088067Y0065379D02*
X0087260Y0065379D01*
X0098906Y0064573D02*
X0101401Y0064573D01*
X0101401Y0063767D02*
X0098906Y0063767D01*
X0098906Y0062962D02*
X0101401Y0062962D01*
X0101401Y0068601D02*
X0098906Y0068601D01*
X0098906Y0069407D02*
X0101401Y0069407D01*
X0101758Y0070212D02*
X0098549Y0070212D01*
X0114200Y0060545D02*
X0070971Y0060545D01*
X0071777Y0059739D02*
X0114200Y0059739D01*
X0114200Y0058934D02*
X0072582Y0058934D01*
X0073388Y0058128D02*
X0114200Y0058128D01*
X0114200Y0057323D02*
X0074194Y0057323D01*
X0074999Y0056517D02*
X0114200Y0056517D01*
X0114200Y0055711D02*
X0075805Y0055711D01*
X0076610Y0054906D02*
X0114200Y0054906D01*
X0114200Y0054100D02*
X0077416Y0054100D01*
X0078222Y0053295D02*
X0114200Y0053295D01*
X0114200Y0052489D02*
X0079027Y0052489D01*
X0079833Y0051683D02*
X0114200Y0051683D01*
X0114200Y0050878D02*
X0080638Y0050878D01*
X0081444Y0050072D02*
X0114200Y0050072D01*
X0114200Y0049267D02*
X0082250Y0049267D01*
X0083055Y0048461D02*
X0114200Y0048461D01*
X0113425Y0047655D02*
X0083861Y0047655D01*
X0084666Y0046850D02*
X0112952Y0046850D01*
X0112700Y0046044D02*
X0085472Y0046044D01*
X0086278Y0045239D02*
X0112700Y0045239D01*
X0112921Y0044433D02*
X0087083Y0044433D01*
X0087889Y0043627D02*
X0113349Y0043627D01*
X0114248Y0042822D02*
X0088694Y0042822D01*
X0089500Y0042016D02*
X0132987Y0042016D01*
X0132653Y0041211D02*
X0090306Y0041211D01*
X0091111Y0040405D02*
X0132500Y0040405D01*
X0132500Y0039599D02*
X0091917Y0039599D01*
X0092722Y0038794D02*
X0132820Y0038794D01*
X0133388Y0037988D02*
X0093528Y0037988D01*
X0094334Y0037183D02*
X0110433Y0037183D01*
X0112374Y0037183D02*
X0120433Y0037183D01*
X0122374Y0037183D02*
X0129971Y0037183D01*
X0130245Y0037272D02*
X0129505Y0037031D01*
X0128811Y0036678D01*
X0128181Y0036220D01*
X0127630Y0035670D01*
X0127173Y0035040D01*
X0126819Y0034346D01*
X0126579Y0033605D01*
X0126457Y0032836D01*
X0126457Y0029307D01*
X0131000Y0029307D01*
X0131000Y0037391D01*
X0130245Y0037272D01*
X0131000Y0037183D02*
X0131807Y0037183D01*
X0131807Y0037391D02*
X0131807Y0029307D01*
X0136350Y0029307D01*
X0136350Y0032836D01*
X0136229Y0033605D01*
X0135988Y0034346D01*
X0135634Y0035040D01*
X0135177Y0035670D01*
X0134626Y0036220D01*
X0133996Y0036678D01*
X0133302Y0037031D01*
X0132562Y0037272D01*
X0131807Y0037391D01*
X0131807Y0036377D02*
X0131000Y0036377D01*
X0131000Y0035571D02*
X0131807Y0035571D01*
X0131807Y0034766D02*
X0131000Y0034766D01*
X0131000Y0033960D02*
X0131807Y0033960D01*
X0131807Y0033155D02*
X0131000Y0033155D01*
X0131000Y0032349D02*
X0131807Y0032349D01*
X0131807Y0031543D02*
X0131000Y0031543D01*
X0131000Y0030738D02*
X0131807Y0030738D01*
X0131807Y0029932D02*
X0131000Y0029932D01*
X0131000Y0029127D02*
X0126150Y0029127D01*
X0126150Y0029932D02*
X0126457Y0029932D01*
X0126457Y0030738D02*
X0126150Y0030738D01*
X0126150Y0031543D02*
X0126457Y0031543D01*
X0126457Y0032349D02*
X0126150Y0032349D01*
X0126150Y0033155D02*
X0126507Y0033155D01*
X0126694Y0033960D02*
X0125915Y0033960D01*
X0125581Y0034766D02*
X0127033Y0034766D01*
X0127559Y0035571D02*
X0124992Y0035571D01*
X0124186Y0036377D02*
X0128397Y0036377D01*
X0132836Y0037183D02*
X0134625Y0037183D01*
X0134410Y0036377D02*
X0138621Y0036377D01*
X0137815Y0035571D02*
X0135248Y0035571D01*
X0135774Y0034766D02*
X0137226Y0034766D01*
X0136892Y0033960D02*
X0136113Y0033960D01*
X0136300Y0033155D02*
X0136657Y0033155D01*
X0136657Y0032349D02*
X0136350Y0032349D01*
X0136350Y0031543D02*
X0136657Y0031543D01*
X0136657Y0030738D02*
X0136350Y0030738D01*
X0136350Y0029932D02*
X0136657Y0029932D01*
X0136657Y0029127D02*
X0131807Y0029127D01*
X0136350Y0028321D02*
X0136657Y0028321D01*
X0136657Y0027516D02*
X0136350Y0027516D01*
X0136350Y0026710D02*
X0136657Y0026710D01*
X0136657Y0025904D02*
X0136350Y0025904D01*
X0136350Y0025099D02*
X0136657Y0025099D01*
X0136708Y0024293D02*
X0136243Y0024293D01*
X0135996Y0023488D02*
X0137041Y0023488D01*
X0137375Y0022682D02*
X0135572Y0022682D01*
X0127235Y0022682D02*
X0125432Y0022682D01*
X0125766Y0023488D02*
X0126811Y0023488D01*
X0126564Y0024293D02*
X0126099Y0024293D01*
X0126150Y0025099D02*
X0126457Y0025099D01*
X0126457Y0025904D02*
X0126150Y0025904D01*
X0126150Y0026710D02*
X0126457Y0026710D01*
X0126457Y0027516D02*
X0126150Y0027516D01*
X0126150Y0028321D02*
X0126457Y0028321D01*
X0116657Y0028321D02*
X0116150Y0028321D01*
X0116150Y0027516D02*
X0116657Y0027516D01*
X0116657Y0026710D02*
X0116150Y0026710D01*
X0116150Y0025904D02*
X0116657Y0025904D01*
X0116657Y0025099D02*
X0116150Y0025099D01*
X0116099Y0024293D02*
X0116708Y0024293D01*
X0117041Y0023488D02*
X0115766Y0023488D01*
X0115432Y0022682D02*
X0117375Y0022682D01*
X0116657Y0029127D02*
X0116150Y0029127D01*
X0116150Y0029932D02*
X0116657Y0029932D01*
X0116657Y0030738D02*
X0116150Y0030738D01*
X0116150Y0031543D02*
X0116657Y0031543D01*
X0116657Y0032349D02*
X0116150Y0032349D01*
X0116150Y0033155D02*
X0116657Y0033155D01*
X0116892Y0033960D02*
X0115915Y0033960D01*
X0115581Y0034766D02*
X0117226Y0034766D01*
X0117815Y0035571D02*
X0114992Y0035571D01*
X0114186Y0036377D02*
X0118621Y0036377D01*
X0117559Y0042822D02*
X0133791Y0042822D01*
X0136718Y0043627D02*
X0118458Y0043627D01*
X0118886Y0044433D02*
X0137524Y0044433D01*
X0138330Y0045239D02*
X0119107Y0045239D01*
X0119107Y0046044D02*
X0139135Y0046044D01*
X0139941Y0046850D02*
X0118855Y0046850D01*
X0118382Y0047655D02*
X0140746Y0047655D01*
X0141552Y0048461D02*
X0117607Y0048461D01*
X0117607Y0049267D02*
X0142357Y0049267D01*
X0143163Y0050072D02*
X0117607Y0050072D01*
X0117607Y0050878D02*
X0143969Y0050878D01*
X0144774Y0051683D02*
X0117607Y0051683D01*
X0117607Y0052489D02*
X0145580Y0052489D01*
X0146385Y0053295D02*
X0117607Y0053295D01*
X0117607Y0054100D02*
X0147191Y0054100D01*
X0147997Y0054906D02*
X0117607Y0054906D01*
X0117607Y0055711D02*
X0148802Y0055711D01*
X0149608Y0056517D02*
X0117607Y0056517D01*
X0117607Y0057323D02*
X0150413Y0057323D01*
X0151219Y0058128D02*
X0117607Y0058128D01*
X0117607Y0058934D02*
X0152025Y0058934D01*
X0152830Y0059739D02*
X0117607Y0059739D01*
X0117607Y0060545D02*
X0153636Y0060545D01*
X0154441Y0061351D02*
X0117607Y0061351D01*
X0117607Y0062156D02*
X0155247Y0062156D01*
X0156053Y0062962D02*
X0117607Y0062962D01*
X0117607Y0063767D02*
X0156858Y0063767D01*
X0157664Y0064573D02*
X0117343Y0064573D01*
X0116538Y0065379D02*
X0158469Y0065379D01*
X0159275Y0066184D02*
X0116406Y0066184D01*
X0116406Y0066990D02*
X0160081Y0066990D01*
X0162482Y0064573D02*
X0170264Y0064573D01*
X0171069Y0065379D02*
X0164188Y0065379D01*
X0164993Y0066184D02*
X0171875Y0066184D01*
X0172681Y0066990D02*
X0165799Y0066990D01*
X0166605Y0067795D02*
X0173486Y0067795D01*
X0174292Y0068601D02*
X0167410Y0068601D01*
X0168216Y0069407D02*
X0175097Y0069407D01*
X0175903Y0070212D02*
X0169021Y0070212D01*
X0169827Y0071018D02*
X0176709Y0071018D01*
X0177514Y0071823D02*
X0170633Y0071823D01*
X0171438Y0072629D02*
X0178320Y0072629D01*
X0179125Y0073435D02*
X0172244Y0073435D01*
X0173049Y0074240D02*
X0179931Y0074240D01*
X0180737Y0075046D02*
X0173855Y0075046D01*
X0174661Y0075851D02*
X0181542Y0075851D01*
X0181700Y0076657D02*
X0175466Y0076657D01*
X0176272Y0077463D02*
X0181700Y0077463D01*
X0181700Y0078268D02*
X0177077Y0078268D01*
X0177883Y0079074D02*
X0181700Y0079074D01*
X0181700Y0079879D02*
X0178689Y0079879D01*
X0179494Y0080685D02*
X0181700Y0080685D01*
X0181700Y0081491D02*
X0180300Y0081491D01*
X0181105Y0082296D02*
X0181700Y0082296D01*
X0190955Y0075046D02*
X0214100Y0075046D01*
X0214100Y0075851D02*
X0191761Y0075851D01*
X0192566Y0076657D02*
X0214100Y0076657D01*
X0214100Y0077463D02*
X0193372Y0077463D01*
X0194177Y0078268D02*
X0214100Y0078268D01*
X0214100Y0078701D02*
X0214100Y0074209D01*
X0199024Y0059134D01*
X0199024Y0064304D01*
X0198319Y0065009D01*
X0192204Y0065009D01*
X0191499Y0064304D01*
X0191499Y0057204D01*
X0192204Y0056499D01*
X0196390Y0056499D01*
X0179098Y0039207D01*
X0178198Y0039207D01*
X0174777Y0035786D01*
X0174092Y0036471D01*
X0172348Y0037194D01*
X0171103Y0037194D01*
X0185107Y0051198D01*
X0185107Y0069198D01*
X0207247Y0091338D01*
X0207247Y0087086D01*
X0207842Y0086492D01*
X0207589Y0086346D01*
X0207328Y0086084D01*
X0207143Y0085764D01*
X0207047Y0085407D01*
X0207047Y0083067D01*
X0211000Y0083067D01*
X0211000Y0082260D01*
X0207047Y0082260D01*
X0207047Y0079920D01*
X0207143Y0079563D01*
X0207328Y0079243D01*
X0207589Y0078981D01*
X0207909Y0078796D01*
X0208266Y0078701D01*
X0211000Y0078701D01*
X0211000Y0082260D01*
X0211807Y0082260D01*
X0211807Y0078701D01*
X0214100Y0078701D01*
X0211807Y0079074D02*
X0211000Y0079074D01*
X0211000Y0079879D02*
X0211807Y0079879D01*
X0211807Y0080685D02*
X0211000Y0080685D01*
X0211000Y0081491D02*
X0211807Y0081491D01*
X0211000Y0082296D02*
X0198205Y0082296D01*
X0197400Y0081491D02*
X0207047Y0081491D01*
X0207047Y0080685D02*
X0196594Y0080685D01*
X0195789Y0079879D02*
X0207058Y0079879D01*
X0207496Y0079074D02*
X0194983Y0079074D01*
X0199011Y0083102D02*
X0207047Y0083102D01*
X0207047Y0083907D02*
X0199817Y0083907D01*
X0200622Y0084713D02*
X0207047Y0084713D01*
X0207077Y0085519D02*
X0201428Y0085519D01*
X0202233Y0086324D02*
X0207568Y0086324D01*
X0207247Y0087130D02*
X0203039Y0087130D01*
X0203845Y0087935D02*
X0207247Y0087935D01*
X0207247Y0088741D02*
X0204650Y0088741D01*
X0205456Y0089547D02*
X0207247Y0089547D01*
X0207247Y0090352D02*
X0206261Y0090352D01*
X0207067Y0091158D02*
X0207247Y0091158D01*
X0225583Y0079074D02*
X0230354Y0079074D01*
X0230354Y0079110D02*
X0230354Y0073423D01*
X0230450Y0073067D01*
X0230635Y0072746D01*
X0230896Y0072485D01*
X0231216Y0072300D01*
X0231573Y0072205D01*
X0233717Y0072205D01*
X0233717Y0079110D01*
X0234524Y0079110D01*
X0234524Y0079917D01*
X0237886Y0079917D01*
X0237886Y0085604D01*
X0237790Y0085961D01*
X0237605Y0086281D01*
X0237344Y0086542D01*
X0237024Y0086727D01*
X0236667Y0086823D01*
X0235132Y0086823D01*
X0235507Y0087198D01*
X0235507Y0088870D01*
X0235589Y0088788D01*
X0236766Y0088300D01*
X0238041Y0088300D01*
X0239218Y0088788D01*
X0240119Y0089689D01*
X0240165Y0089800D01*
X0247498Y0089800D01*
X0250675Y0086623D01*
X0247007Y0086623D01*
X0246302Y0085918D01*
X0246302Y0073110D01*
X0247007Y0072405D01*
X0247400Y0072405D01*
X0247400Y0071509D01*
X0243898Y0068007D01*
X0242900Y0067009D01*
X0242900Y0065560D01*
X0242707Y0065560D01*
X0242707Y0072405D01*
X0244855Y0072405D01*
X0245560Y0073110D01*
X0245560Y0085918D01*
X0244855Y0086623D01*
X0239133Y0086623D01*
X0238428Y0085918D01*
X0238428Y0073110D01*
X0239133Y0072405D01*
X0239300Y0072405D01*
X0239300Y0065560D01*
X0237086Y0065560D01*
X0236492Y0064965D01*
X0236346Y0065218D01*
X0236084Y0065479D01*
X0235764Y0065664D01*
X0235407Y0065760D01*
X0233067Y0065760D01*
X0233067Y0061807D01*
X0232260Y0061807D01*
X0232260Y0065760D01*
X0229920Y0065760D01*
X0229563Y0065664D01*
X0229243Y0065479D01*
X0228981Y0065218D01*
X0228796Y0064898D01*
X0228701Y0064541D01*
X0228701Y0061807D01*
X0232260Y0061807D01*
X0232260Y0061000D01*
X0228701Y0061000D01*
X0228701Y0058266D01*
X0228743Y0058107D01*
X0217798Y0058107D01*
X0216800Y0057109D01*
X0195127Y0035436D01*
X0194092Y0036471D01*
X0192348Y0037194D01*
X0190903Y0037194D01*
X0219307Y0065598D01*
X0219307Y0072798D01*
X0230354Y0083845D01*
X0230354Y0079917D01*
X0233716Y0079917D01*
X0233716Y0079110D01*
X0230354Y0079110D01*
X0230354Y0078268D02*
X0224777Y0078268D01*
X0223972Y0077463D02*
X0230354Y0077463D01*
X0230354Y0076657D02*
X0223166Y0076657D01*
X0222361Y0075851D02*
X0230354Y0075851D01*
X0230354Y0075046D02*
X0221555Y0075046D01*
X0220749Y0074240D02*
X0230354Y0074240D01*
X0230354Y0073435D02*
X0219944Y0073435D01*
X0219307Y0072629D02*
X0230752Y0072629D01*
X0233717Y0072629D02*
X0234524Y0072629D01*
X0234524Y0072205D02*
X0236667Y0072205D01*
X0237024Y0072300D01*
X0237344Y0072485D01*
X0237605Y0072746D01*
X0237790Y0073067D01*
X0237886Y0073423D01*
X0237886Y0079110D01*
X0234524Y0079110D01*
X0234524Y0072205D01*
X0234524Y0073435D02*
X0233717Y0073435D01*
X0233717Y0074240D02*
X0234524Y0074240D01*
X0234524Y0075046D02*
X0233717Y0075046D01*
X0233717Y0075851D02*
X0234524Y0075851D01*
X0234524Y0076657D02*
X0233717Y0076657D01*
X0233717Y0077463D02*
X0234524Y0077463D01*
X0234524Y0078268D02*
X0233717Y0078268D01*
X0233717Y0079074D02*
X0234524Y0079074D01*
X0234524Y0079879D02*
X0238428Y0079879D01*
X0238428Y0079074D02*
X0237886Y0079074D01*
X0237886Y0078268D02*
X0238428Y0078268D01*
X0238428Y0077463D02*
X0237886Y0077463D01*
X0237886Y0076657D02*
X0238428Y0076657D01*
X0238428Y0075851D02*
X0237886Y0075851D01*
X0237886Y0075046D02*
X0238428Y0075046D01*
X0238428Y0074240D02*
X0237886Y0074240D01*
X0237886Y0073435D02*
X0238428Y0073435D01*
X0238909Y0072629D02*
X0237488Y0072629D01*
X0239300Y0071823D02*
X0219307Y0071823D01*
X0219307Y0071018D02*
X0239300Y0071018D01*
X0239300Y0070212D02*
X0219307Y0070212D01*
X0219307Y0069407D02*
X0239300Y0069407D01*
X0239300Y0068601D02*
X0219307Y0068601D01*
X0219307Y0067795D02*
X0239300Y0067795D01*
X0239300Y0066990D02*
X0219307Y0066990D01*
X0219307Y0066184D02*
X0239300Y0066184D01*
X0236905Y0065379D02*
X0236185Y0065379D01*
X0233067Y0065379D02*
X0232260Y0065379D01*
X0232260Y0064573D02*
X0233067Y0064573D01*
X0233067Y0063767D02*
X0232260Y0063767D01*
X0232260Y0062962D02*
X0233067Y0062962D01*
X0233067Y0062156D02*
X0232260Y0062156D01*
X0232260Y0061351D02*
X0215060Y0061351D01*
X0215865Y0062156D02*
X0228701Y0062156D01*
X0228701Y0062962D02*
X0216671Y0062962D01*
X0217477Y0063767D02*
X0228701Y0063767D01*
X0228709Y0064573D02*
X0218282Y0064573D01*
X0219088Y0065379D02*
X0229142Y0065379D01*
X0228701Y0060545D02*
X0214254Y0060545D01*
X0213449Y0059739D02*
X0228701Y0059739D01*
X0228701Y0058934D02*
X0212643Y0058934D01*
X0211837Y0058128D02*
X0228738Y0058128D01*
X0217013Y0057323D02*
X0211032Y0057323D01*
X0210226Y0056517D02*
X0216208Y0056517D01*
X0215402Y0055711D02*
X0209421Y0055711D01*
X0208615Y0054906D02*
X0214597Y0054906D01*
X0213791Y0054100D02*
X0207809Y0054100D01*
X0207004Y0053295D02*
X0212985Y0053295D01*
X0212180Y0052489D02*
X0206198Y0052489D01*
X0205393Y0051683D02*
X0211374Y0051683D01*
X0210569Y0050878D02*
X0204587Y0050878D01*
X0203781Y0050072D02*
X0209763Y0050072D01*
X0208957Y0049267D02*
X0202976Y0049267D01*
X0202170Y0048461D02*
X0208152Y0048461D01*
X0207346Y0047655D02*
X0201365Y0047655D01*
X0200559Y0046850D02*
X0206541Y0046850D01*
X0205735Y0046044D02*
X0199753Y0046044D01*
X0198948Y0045239D02*
X0204929Y0045239D01*
X0204124Y0044433D02*
X0198142Y0044433D01*
X0197337Y0043627D02*
X0203318Y0043627D01*
X0202513Y0042822D02*
X0196531Y0042822D01*
X0195725Y0042016D02*
X0201707Y0042016D01*
X0200902Y0041211D02*
X0194920Y0041211D01*
X0194114Y0040405D02*
X0200096Y0040405D01*
X0199290Y0039599D02*
X0193309Y0039599D01*
X0192503Y0038794D02*
X0198485Y0038794D01*
X0197679Y0037988D02*
X0191697Y0037988D01*
X0192374Y0037183D02*
X0196874Y0037183D01*
X0196068Y0036377D02*
X0194186Y0036377D01*
X0194992Y0035571D02*
X0195262Y0035571D01*
X0184324Y0044433D02*
X0178342Y0044433D01*
X0177537Y0043627D02*
X0183518Y0043627D01*
X0182713Y0042822D02*
X0176731Y0042822D01*
X0175925Y0042016D02*
X0181907Y0042016D01*
X0181102Y0041211D02*
X0175120Y0041211D01*
X0174314Y0040405D02*
X0180296Y0040405D01*
X0179490Y0039599D02*
X0173509Y0039599D01*
X0172703Y0038794D02*
X0177785Y0038794D01*
X0176979Y0037988D02*
X0171897Y0037988D01*
X0172374Y0037183D02*
X0176174Y0037183D01*
X0175368Y0036377D02*
X0174186Y0036377D01*
X0179148Y0045239D02*
X0185130Y0045239D01*
X0185935Y0046044D02*
X0179953Y0046044D01*
X0180759Y0046850D02*
X0186741Y0046850D01*
X0187546Y0047655D02*
X0181565Y0047655D01*
X0182370Y0048461D02*
X0188352Y0048461D01*
X0189157Y0049267D02*
X0183176Y0049267D01*
X0183981Y0050072D02*
X0189963Y0050072D01*
X0190769Y0050878D02*
X0184787Y0050878D01*
X0185107Y0051683D02*
X0191574Y0051683D01*
X0192380Y0052489D02*
X0185107Y0052489D01*
X0185107Y0053295D02*
X0193185Y0053295D01*
X0193991Y0054100D02*
X0185107Y0054100D01*
X0185107Y0054906D02*
X0194797Y0054906D01*
X0195602Y0055711D02*
X0185107Y0055711D01*
X0185107Y0056517D02*
X0192186Y0056517D01*
X0191499Y0057323D02*
X0185107Y0057323D01*
X0185107Y0058128D02*
X0191499Y0058128D01*
X0191499Y0058934D02*
X0185107Y0058934D01*
X0185107Y0059739D02*
X0191499Y0059739D01*
X0191499Y0060545D02*
X0185107Y0060545D01*
X0185107Y0061351D02*
X0191499Y0061351D01*
X0191499Y0062156D02*
X0185107Y0062156D01*
X0185107Y0062962D02*
X0191499Y0062962D01*
X0191499Y0063767D02*
X0185107Y0063767D01*
X0185107Y0064573D02*
X0191769Y0064573D01*
X0185107Y0065379D02*
X0205269Y0065379D01*
X0204464Y0064573D02*
X0198755Y0064573D01*
X0199024Y0063767D02*
X0203658Y0063767D01*
X0202853Y0062962D02*
X0199024Y0062962D01*
X0199024Y0062156D02*
X0202047Y0062156D01*
X0201241Y0061351D02*
X0199024Y0061351D01*
X0199024Y0060545D02*
X0200436Y0060545D01*
X0199630Y0059739D02*
X0199024Y0059739D01*
X0206075Y0066184D02*
X0185107Y0066184D01*
X0185107Y0066990D02*
X0206881Y0066990D01*
X0207686Y0067795D02*
X0185107Y0067795D01*
X0185107Y0068601D02*
X0208492Y0068601D01*
X0209297Y0069407D02*
X0185316Y0069407D01*
X0186121Y0070212D02*
X0210103Y0070212D01*
X0210909Y0071018D02*
X0186927Y0071018D01*
X0187733Y0071823D02*
X0211714Y0071823D01*
X0212520Y0072629D02*
X0188538Y0072629D01*
X0189344Y0073435D02*
X0213325Y0073435D01*
X0214100Y0074240D02*
X0190149Y0074240D01*
X0169458Y0063767D02*
X0161677Y0063767D01*
X0160871Y0062962D02*
X0168653Y0062962D01*
X0167847Y0062156D02*
X0160065Y0062156D01*
X0159260Y0061351D02*
X0167041Y0061351D01*
X0166236Y0060545D02*
X0158454Y0060545D01*
X0157649Y0059739D02*
X0165430Y0059739D01*
X0164625Y0058934D02*
X0156843Y0058934D01*
X0156037Y0058128D02*
X0163819Y0058128D01*
X0163013Y0057323D02*
X0155232Y0057323D01*
X0154426Y0056517D02*
X0162208Y0056517D01*
X0161402Y0055711D02*
X0153621Y0055711D01*
X0152815Y0054906D02*
X0160597Y0054906D01*
X0159791Y0054100D02*
X0152009Y0054100D01*
X0151204Y0053295D02*
X0158985Y0053295D01*
X0158180Y0052489D02*
X0150398Y0052489D01*
X0149593Y0051683D02*
X0157374Y0051683D01*
X0156569Y0050878D02*
X0148787Y0050878D01*
X0147981Y0050072D02*
X0155763Y0050072D01*
X0154957Y0049267D02*
X0147176Y0049267D01*
X0146370Y0048461D02*
X0154152Y0048461D01*
X0153346Y0047655D02*
X0145565Y0047655D01*
X0144759Y0046850D02*
X0152541Y0046850D01*
X0151735Y0046044D02*
X0143953Y0046044D01*
X0143148Y0045239D02*
X0150930Y0045239D01*
X0150124Y0044433D02*
X0142342Y0044433D01*
X0141537Y0043627D02*
X0149318Y0043627D01*
X0148513Y0042822D02*
X0140731Y0042822D01*
X0139925Y0042016D02*
X0147707Y0042016D01*
X0146902Y0041211D02*
X0139120Y0041211D01*
X0138907Y0040405D02*
X0146096Y0040405D01*
X0145290Y0039599D02*
X0138907Y0039599D01*
X0138587Y0038794D02*
X0144485Y0038794D01*
X0143679Y0037988D02*
X0138019Y0037988D01*
X0136782Y0037183D02*
X0140433Y0037183D01*
X0142374Y0037183D02*
X0142874Y0037183D01*
X0108621Y0036377D02*
X0095139Y0036377D01*
X0095945Y0035571D02*
X0107815Y0035571D01*
X0107226Y0034766D02*
X0096750Y0034766D01*
X0097556Y0033960D02*
X0106892Y0033960D01*
X0106657Y0033155D02*
X0098362Y0033155D01*
X0099167Y0032349D02*
X0106657Y0032349D01*
X0106657Y0031543D02*
X0099973Y0031543D01*
X0100778Y0030738D02*
X0106657Y0030738D01*
X0106657Y0029932D02*
X0101584Y0029932D01*
X0102390Y0029127D02*
X0106657Y0029127D01*
X0106657Y0028321D02*
X0103195Y0028321D01*
X0104001Y0027516D02*
X0106657Y0027516D01*
X0106657Y0026710D02*
X0104806Y0026710D01*
X0105612Y0025904D02*
X0106657Y0025904D01*
X0106657Y0025099D02*
X0106418Y0025099D01*
X0116406Y0067795D02*
X0148862Y0067795D01*
X0148796Y0067909D02*
X0148981Y0067589D01*
X0149243Y0067328D01*
X0149563Y0067143D01*
X0149920Y0067047D01*
X0152260Y0067047D01*
X0152260Y0071000D01*
X0148701Y0071000D01*
X0148701Y0068266D01*
X0148796Y0067909D01*
X0148701Y0068601D02*
X0117010Y0068601D01*
X0117816Y0069407D02*
X0148701Y0069407D01*
X0148701Y0070212D02*
X0118621Y0070212D01*
X0119427Y0071018D02*
X0152260Y0071018D01*
X0152260Y0071823D02*
X0153067Y0071823D01*
X0153067Y0072629D02*
X0152260Y0072629D01*
X0152260Y0073435D02*
X0153067Y0073435D01*
X0153067Y0074240D02*
X0152260Y0074240D01*
X0152260Y0075046D02*
X0153067Y0075046D01*
X0156445Y0075046D02*
X0156572Y0075046D01*
X0159200Y0075851D02*
X0122107Y0075851D01*
X0122107Y0075046D02*
X0148882Y0075046D01*
X0148701Y0074240D02*
X0122107Y0074240D01*
X0121844Y0073435D02*
X0148701Y0073435D01*
X0148701Y0072629D02*
X0121038Y0072629D01*
X0120233Y0071823D02*
X0148701Y0071823D01*
X0152260Y0070212D02*
X0153067Y0070212D01*
X0153067Y0069407D02*
X0152260Y0069407D01*
X0152260Y0068601D02*
X0153067Y0068601D01*
X0153067Y0067795D02*
X0152260Y0067795D01*
X0156465Y0067795D02*
X0156538Y0067795D01*
X0159848Y0076657D02*
X0122107Y0076657D01*
X0122107Y0077463D02*
X0160653Y0077463D01*
X0161459Y0078268D02*
X0122107Y0078268D01*
X0122107Y0079074D02*
X0162265Y0079074D01*
X0163070Y0079879D02*
X0122107Y0079879D01*
X0122107Y0080685D02*
X0163876Y0080685D01*
X0164681Y0081491D02*
X0122107Y0081491D01*
X0122107Y0082296D02*
X0165487Y0082296D01*
X0166293Y0083102D02*
X0122107Y0083102D01*
X0121409Y0083907D02*
X0167098Y0083907D01*
X0167904Y0084713D02*
X0120603Y0084713D01*
X0120417Y0091963D02*
X0138374Y0091963D01*
X0137730Y0092769D02*
X0120560Y0092769D01*
X0120560Y0093575D02*
X0137730Y0093575D01*
X0137618Y0094380D02*
X0120560Y0094380D01*
X0120560Y0095186D02*
X0136812Y0095186D01*
X0136007Y0095991D02*
X0120560Y0095991D01*
X0120560Y0096797D02*
X0135201Y0096797D01*
X0134395Y0097603D02*
X0120560Y0097603D01*
X0120373Y0098408D02*
X0124664Y0098408D01*
X0123463Y0099214D02*
X0120187Y0099214D01*
X0126943Y0098408D02*
X0133590Y0098408D01*
X0132784Y0099214D02*
X0128144Y0099214D01*
X0128698Y0100019D02*
X0131979Y0100019D01*
X0131173Y0100825D02*
X0129007Y0100825D01*
X0129007Y0101631D02*
X0130367Y0101631D01*
X0129562Y0102436D02*
X0128843Y0102436D01*
X0128756Y0103242D02*
X0128496Y0103242D01*
X0127951Y0104047D02*
X0127690Y0104047D01*
X0127145Y0104853D02*
X0125407Y0104853D01*
X0125400Y0105659D02*
X0126339Y0105659D01*
X0125534Y0106464D02*
X0125066Y0106464D01*
X0124728Y0107270D02*
X0124468Y0107270D01*
X0134380Y0102436D02*
X0137530Y0102436D01*
X0137530Y0101631D02*
X0135186Y0101631D01*
X0135991Y0100825D02*
X0137530Y0100825D01*
X0137640Y0100019D02*
X0136797Y0100019D01*
X0137603Y0099214D02*
X0138220Y0099214D01*
X0141482Y0104853D02*
X0142289Y0104853D01*
X0142289Y0105659D02*
X0141482Y0105659D01*
X0141482Y0106464D02*
X0142289Y0106464D01*
X0141807Y0124187D02*
X0141000Y0124187D01*
X0141000Y0124993D02*
X0141807Y0124993D01*
X0141807Y0125798D02*
X0141000Y0125798D01*
X0137047Y0128215D02*
X0136124Y0128215D01*
X0136930Y0129021D02*
X0137047Y0129021D01*
X0101965Y0160439D02*
X0100842Y0160439D01*
X0064000Y0133854D02*
X0060025Y0133854D01*
X0060520Y0133049D02*
X0063473Y0133049D01*
X0063231Y0132243D02*
X0060520Y0132243D01*
X0060520Y0131438D02*
X0063231Y0131438D01*
X0063231Y0130632D02*
X0060520Y0130632D01*
X0060520Y0129826D02*
X0063231Y0129826D01*
X0063231Y0129021D02*
X0060520Y0129021D01*
X0060520Y0128215D02*
X0063231Y0128215D01*
X0063695Y0127410D02*
X0060520Y0127410D01*
X0044056Y0135466D02*
X0025807Y0135466D01*
X0025807Y0136271D02*
X0044862Y0136271D01*
X0043251Y0134660D02*
X0025807Y0134660D01*
X0035222Y0133854D02*
X0042445Y0133854D01*
X0041640Y0133049D02*
X0035717Y0133049D01*
X0035717Y0132243D02*
X0040834Y0132243D01*
X0040028Y0131438D02*
X0035717Y0131438D01*
X0035717Y0130632D02*
X0039223Y0130632D01*
X0038417Y0129826D02*
X0035717Y0129826D01*
X0035717Y0129021D02*
X0037612Y0129021D01*
X0036806Y0128215D02*
X0035717Y0128215D01*
X0035717Y0127410D02*
X0036000Y0127410D01*
X0060432Y0098408D02*
X0062454Y0098408D01*
X0062247Y0097603D02*
X0060520Y0097603D01*
X0060520Y0096797D02*
X0062247Y0096797D01*
X0201082Y0165273D02*
X0232264Y0165273D01*
X0233069Y0166078D02*
X0201887Y0166078D01*
X0284020Y0191052D02*
X0290701Y0191052D01*
X0290701Y0191857D02*
X0025807Y0191857D01*
X0226389Y0079879D02*
X0233716Y0079879D01*
X0230354Y0080685D02*
X0227194Y0080685D01*
X0228000Y0081491D02*
X0230354Y0081491D01*
X0230354Y0082296D02*
X0228805Y0082296D01*
X0229611Y0083102D02*
X0230354Y0083102D01*
X0235439Y0087130D02*
X0250168Y0087130D01*
X0249363Y0087935D02*
X0235507Y0087935D01*
X0235507Y0088741D02*
X0235702Y0088741D01*
X0237562Y0086324D02*
X0238835Y0086324D01*
X0238428Y0085519D02*
X0237886Y0085519D01*
X0237886Y0084713D02*
X0238428Y0084713D01*
X0238428Y0083907D02*
X0237886Y0083907D01*
X0237886Y0083102D02*
X0238428Y0083102D01*
X0238428Y0082296D02*
X0237886Y0082296D01*
X0237886Y0081491D02*
X0238428Y0081491D01*
X0238428Y0080685D02*
X0237886Y0080685D01*
X0245560Y0080685D02*
X0246302Y0080685D01*
X0246302Y0081491D02*
X0245560Y0081491D01*
X0245560Y0082296D02*
X0246302Y0082296D01*
X0246302Y0083102D02*
X0245560Y0083102D01*
X0245560Y0083907D02*
X0246302Y0083907D01*
X0246302Y0084713D02*
X0245560Y0084713D01*
X0245560Y0085519D02*
X0246302Y0085519D01*
X0246709Y0086324D02*
X0245153Y0086324D01*
X0248557Y0088741D02*
X0239105Y0088741D01*
X0239977Y0089547D02*
X0247751Y0089547D01*
X0246302Y0079879D02*
X0245560Y0079879D01*
X0245560Y0079074D02*
X0246302Y0079074D01*
X0246302Y0078268D02*
X0245560Y0078268D01*
X0245560Y0077463D02*
X0246302Y0077463D01*
X0246302Y0076657D02*
X0245560Y0076657D01*
X0245560Y0075851D02*
X0246302Y0075851D01*
X0246302Y0075046D02*
X0245560Y0075046D01*
X0245560Y0074240D02*
X0246302Y0074240D01*
X0246302Y0073435D02*
X0245560Y0073435D01*
X0245079Y0072629D02*
X0246783Y0072629D01*
X0247400Y0071823D02*
X0242707Y0071823D01*
X0242707Y0071018D02*
X0246909Y0071018D01*
X0246103Y0070212D02*
X0242707Y0070212D01*
X0242707Y0069407D02*
X0245297Y0069407D01*
X0244492Y0068601D02*
X0242707Y0068601D01*
X0242707Y0067795D02*
X0243686Y0067795D01*
X0242900Y0066990D02*
X0242707Y0066990D01*
X0242707Y0066184D02*
X0242900Y0066184D01*
X0290475Y0185413D02*
X0290701Y0185413D01*
X0290701Y0186218D02*
X0290141Y0186218D01*
X0289806Y0187024D02*
X0290701Y0187024D01*
X0290701Y0187829D02*
X0289000Y0187829D01*
X0288194Y0188635D02*
X0290701Y0188635D01*
X0290701Y0189441D02*
X0287389Y0189441D01*
X0285965Y0190246D02*
X0290701Y0190246D01*
D32*
X0096104Y0122104D02*
X0088904Y0129304D01*
X0086204Y0130204D02*
X0086204Y0142804D01*
X0081704Y0147304D01*
X0080459Y0147304D02*
X0080459Y0151659D01*
X0080459Y0147304D02*
X0068204Y0147304D01*
X0062804Y0141904D01*
X0062804Y0141004D02*
X0066404Y0137404D01*
X0066404Y0130341D01*
X0066404Y0122104D02*
X0062404Y0122104D01*
X0058804Y0118504D01*
D33*
X0080459Y0151659D02*
X0081384Y0153175D01*
M02*
